<?xml version="1.0" encoding="UTF-8" standalone="no"?>
<!DOCTYPE svg PUBLIC "-//W3C//DTD SVG 1.1//EN"
 "http://www.w3.org/Graphics/SVG/1.1/DTD/svg11.dtd">
<!-- Generated by graphviz version 2.43.0 (0)
 -->
<!-- Title: atmega644constants.h Pages: 1 -->
<svg width="1030pt" height="364pt"
 viewBox="0.00 0.00 1029.94 364.00" xmlns="http://www.w3.org/2000/svg" xmlns:xlink="http://www.w3.org/1999/xlink">
<g id="graph0" class="graph" transform="scale(1 1) rotate(0) translate(4 360)">
<title>atmega644constants.h</title>
<polygon fill="white" stroke="transparent" points="-4,4 -4,-360 1025.94,-360 1025.94,4 -4,4"/>
<!-- Node1 -->
<g id="node1" class="node">
<title>Node1</title>
<g id="a_node1"><a xlink:title="Constants for ATMega644 and EVA board. Defines several useful constants for the ATMega644.">
<polygon fill="#bfbfbf" stroke="black" points="581,-336.5 581,-355.5 709,-355.5 709,-336.5 581,-336.5"/>
<text text-anchor="middle" x="645" y="-343.5" font-family="FreeSans" font-size="10.00">atmega644constants.h</text>
</a>
</g>
</g>
<!-- Node2 -->
<g id="node2" class="node">
<title>Node2</title>
<g id="a_node2"><a xlink:href="defines_8h.html" target="_top" xlink:title="Simple definitions and assembler&#45;macros, mostly 8/16&#45;Bit values.">
<polygon fill="white" stroke="black" points="576.5,-280.5 576.5,-299.5 637.5,-299.5 637.5,-280.5 576.5,-280.5"/>
<text text-anchor="middle" x="607" y="-287.5" font-family="FreeSans" font-size="10.00">defines.h</text>
</a>
</g>
</g>
<!-- Node1&#45;&gt;Node2 -->
<g id="edge1" class="edge">
<title>Node1&#45;&gt;Node2</title>
<path fill="none" stroke="midnightblue" d="M632.94,-327.86C626.36,-318.5 618.49,-307.33 613.16,-299.75"/>
<polygon fill="midnightblue" stroke="midnightblue" points="630.11,-329.92 638.73,-336.08 635.83,-325.89 630.11,-329.92"/>
</g>
<!-- Node8 -->
<g id="node8" class="node">
<title>Node8</title>
<g id="a_node8"><a xlink:href="util_8c.html" target="_top" xlink:title=" ">
<polygon fill="white" stroke="black" points="635.5,-168.5 635.5,-187.5 676.5,-187.5 676.5,-168.5 635.5,-168.5"/>
<text text-anchor="middle" x="656" y="-175.5" font-family="FreeSans" font-size="10.00">util.c</text>
</a>
</g>
</g>
<!-- Node1&#45;&gt;Node8 -->
<g id="edge44" class="edge">
<title>Node1&#45;&gt;Node8</title>
<path fill="none" stroke="midnightblue" d="M646.26,-325.93C648.65,-289.92 653.73,-213.23 655.43,-187.57"/>
<polygon fill="midnightblue" stroke="midnightblue" points="642.76,-325.87 645.59,-336.08 649.75,-326.33 642.76,-325.87"/>
</g>
<!-- Node3 -->
<g id="node3" class="node">
<title>Node3</title>
<g id="a_node3"><a xlink:href="lcd_8h.html" target="_top" xlink:title="Library for LCD use.">
<polygon fill="white" stroke="black" points="539,-224.5 539,-243.5 579,-243.5 579,-224.5 539,-224.5"/>
<text text-anchor="middle" x="559" y="-231.5" font-family="FreeSans" font-size="10.00">lcd.h</text>
</a>
</g>
</g>
<!-- Node2&#45;&gt;Node3 -->
<g id="edge2" class="edge">
<title>Node2&#45;&gt;Node3</title>
<path fill="none" stroke="midnightblue" d="M592.27,-272.43C583.86,-262.97 573.65,-251.48 566.78,-243.75"/>
<polygon fill="midnightblue" stroke="midnightblue" points="589.81,-274.93 599.07,-280.08 595.05,-270.28 589.81,-274.93"/>
</g>
<!-- Node5 -->
<g id="node5" class="node">
<title>Node5</title>
<g id="a_node5"><a xlink:href="os__core_8c.html" target="_top" xlink:title=" ">
<polygon fill="white" stroke="black" points="117,-112.5 117,-131.5 179,-131.5 179,-112.5 117,-112.5"/>
<text text-anchor="middle" x="148" y="-119.5" font-family="FreeSans" font-size="10.00">os_core.c</text>
</a>
</g>
</g>
<!-- Node2&#45;&gt;Node5 -->
<g id="edge8" class="edge">
<title>Node2&#45;&gt;Node5</title>
<path fill="none" stroke="midnightblue" d="M566.37,-286.79C462.57,-280.18 192.32,-256.58 142,-188 129.66,-171.19 138.16,-144.96 143.92,-131.54"/>
<polygon fill="midnightblue" stroke="midnightblue" points="566.26,-290.29 576.45,-287.41 566.69,-283.3 566.26,-290.29"/>
</g>
<!-- Node7 -->
<g id="node7" class="node">
<title>Node7</title>
<g id="a_node7"><a xlink:href="os__taskman_8c.html" target="_top" xlink:title=" ">
<polygon fill="white" stroke="black" points="641,-0.5 641,-19.5 725,-19.5 725,-0.5 641,-0.5"/>
<text text-anchor="middle" x="683" y="-7.5" font-family="FreeSans" font-size="10.00">os_taskman.c</text>
</a>
</g>
</g>
<!-- Node2&#45;&gt;Node7 -->
<g id="edge41" class="edge">
<title>Node2&#45;&gt;Node7</title>
<path fill="none" stroke="midnightblue" d="M647.95,-286.83C752.48,-280.19 1021,-255.66 1021,-179 1021,-179 1021,-179 1021,-121 1021,-90.9 1024.76,-75.69 1002,-56 961.4,-20.87 802.26,-13.12 725.23,-11.44"/>
<polygon fill="midnightblue" stroke="midnightblue" points="647.55,-283.35 637.78,-287.46 647.97,-290.34 647.55,-283.35"/>
</g>
<!-- Node2&#45;&gt;Node8 -->
<g id="edge43" class="edge">
<title>Node2&#45;&gt;Node8</title>
<path fill="none" stroke="midnightblue" d="M612.93,-270.66C617.4,-257.47 623.94,-239.37 631,-224 636.97,-211 645.24,-196.68 650.61,-187.76"/>
<polygon fill="midnightblue" stroke="midnightblue" points="609.52,-269.82 609.7,-280.42 616.17,-272.02 609.52,-269.82"/>
</g>
<!-- Node9 -->
<g id="node9" class="node">
<title>Node9</title>
<g id="a_node9"><a xlink:href="os__mem__drivers_8c.html" target="_top" xlink:title=" ">
<polygon fill="white" stroke="black" points="151,-168.5 151,-187.5 257,-187.5 257,-168.5 151,-168.5"/>
<text text-anchor="middle" x="204" y="-175.5" font-family="FreeSans" font-size="10.00">os_mem_drivers.c</text>
</a>
</g>
</g>
<!-- Node2&#45;&gt;Node9 -->
<g id="edge9" class="edge">
<title>Node2&#45;&gt;Node9</title>
<path fill="none" stroke="midnightblue" d="M566.4,-282.66C521.38,-275.2 446.81,-261.57 384,-244 324.97,-227.48 257.53,-201.01 224.47,-187.51"/>
<polygon fill="midnightblue" stroke="midnightblue" points="565.93,-286.13 576.36,-284.29 567.06,-279.22 565.93,-286.13"/>
</g>
<!-- Node10 -->
<g id="node10" class="node">
<title>Node10</title>
<g id="a_node10"><a xlink:href="os__mem__drivers_8h.html" target="_top" xlink:title="Drivers for OS memory management.">
<polygon fill="white" stroke="black" points="410.5,-224.5 410.5,-243.5 517.5,-243.5 517.5,-224.5 410.5,-224.5"/>
<text text-anchor="middle" x="464" y="-231.5" font-family="FreeSans" font-size="10.00">os_mem_drivers.h</text>
</a>
</g>
</g>
<!-- Node2&#45;&gt;Node10 -->
<g id="edge10" class="edge">
<title>Node2&#45;&gt;Node10</title>
<path fill="none" stroke="midnightblue" d="M574.97,-276.91C548.09,-266.75 510.36,-252.51 486.55,-243.52"/>
<polygon fill="midnightblue" stroke="midnightblue" points="573.75,-280.19 584.34,-280.44 576.22,-273.64 573.75,-280.19"/>
</g>
<!-- Node11 -->
<g id="node11" class="node">
<title>Node11</title>
<g id="a_node11"><a xlink:href="os__memheap__drivers_8h.html" target="_top" xlink:title="Drivers for OS heap management.">
<polygon fill="white" stroke="black" points="313.5,-168.5 313.5,-187.5 444.5,-187.5 444.5,-168.5 313.5,-168.5"/>
<text text-anchor="middle" x="379" y="-175.5" font-family="FreeSans" font-size="10.00">os_memheap_drivers.h</text>
</a>
</g>
</g>
<!-- Node2&#45;&gt;Node11 -->
<g id="edge30" class="edge">
<title>Node2&#45;&gt;Node11</title>
<path fill="none" stroke="midnightblue" d="M566.3,-284.76C513.7,-278.5 426.01,-265.2 402,-244 385.31,-229.26 380.73,-201.63 379.48,-187.62"/>
<polygon fill="midnightblue" stroke="midnightblue" points="565.99,-288.24 576.32,-285.92 566.79,-281.29 565.99,-288.24"/>
</g>
<!-- Node12 -->
<g id="node12" class="node">
<title>Node12</title>
<g id="a_node12"><a xlink:href="os__memheap__drivers_8c.html" target="_top" xlink:title=" ">
<polygon fill="white" stroke="black" points="0,-56.5 0,-75.5 130,-75.5 130,-56.5 0,-56.5"/>
<text text-anchor="middle" x="65" y="-63.5" font-family="FreeSans" font-size="10.00">os_memheap_drivers.c</text>
</a>
</g>
</g>
<!-- Node2&#45;&gt;Node12 -->
<g id="edge29" class="edge">
<title>Node2&#45;&gt;Node12</title>
<path fill="none" stroke="midnightblue" d="M566.26,-287.59C476.14,-283.97 262.69,-272.57 197,-244 120.72,-210.82 78.91,-106.71 67.95,-75.76"/>
<polygon fill="midnightblue" stroke="midnightblue" points="566.24,-291.09 576.37,-287.98 566.51,-284.09 566.24,-291.09"/>
</g>
<!-- Node16 -->
<g id="node16" class="node">
<title>Node16</title>
<g id="a_node16"><a xlink:href="os__user__privileges_8h.html" target="_top" xlink:title="User privileges specification used in part by the task manager.">
<polygon fill="white" stroke="black" points="711,-56.5 711,-75.5 827,-75.5 827,-56.5 711,-56.5"/>
<text text-anchor="middle" x="769" y="-63.5" font-family="FreeSans" font-size="10.00">os_user_privileges.h</text>
</a>
</g>
</g>
<!-- Node2&#45;&gt;Node16 -->
<g id="edge42" class="edge">
<title>Node2&#45;&gt;Node16</title>
<path fill="none" stroke="midnightblue" d="M648.12,-282.49C717.68,-268.92 856.02,-230.27 907,-132 911.09,-124.11 912.22,-119.19 907,-112 895.75,-96.5 849.21,-83.54 813.25,-75.57"/>
<polygon fill="midnightblue" stroke="midnightblue" points="647.15,-279.11 637.97,-284.39 648.44,-285.99 647.15,-279.11"/>
</g>
<!-- Node19 -->
<g id="node19" class="node">
<title>Node19</title>
<g id="a_node19"><a xlink:href="os__scheduler_8h.html" target="_top" xlink:title="Scheduling module for the OS.">
<polygon fill="white" stroke="black" points="694.5,-168.5 694.5,-187.5 783.5,-187.5 783.5,-168.5 694.5,-168.5"/>
<text text-anchor="middle" x="739" y="-175.5" font-family="FreeSans" font-size="10.00">os_scheduler.h</text>
</a>
</g>
</g>
<!-- Node2&#45;&gt;Node19 -->
<g id="edge31" class="edge">
<title>Node2&#45;&gt;Node19</title>
<path fill="none" stroke="midnightblue" d="M625.22,-273.82C653.34,-250.39 706.37,-206.19 728.69,-187.59"/>
<polygon fill="midnightblue" stroke="midnightblue" points="622.8,-271.28 617.36,-280.37 627.28,-276.66 622.8,-271.28"/>
</g>
<!-- Node20 -->
<g id="node20" class="node">
<title>Node20</title>
<g id="a_node20"><a xlink:href="os__scheduling__strategies_8h.html" target="_top" xlink:title="Scheduling library for the OS.">
<polygon fill="white" stroke="black" points="748.5,-112.5 748.5,-131.5 897.5,-131.5 897.5,-112.5 748.5,-112.5"/>
<text text-anchor="middle" x="823" y="-119.5" font-family="FreeSans" font-size="10.00">os_scheduling_strategies.h</text>
</a>
</g>
</g>
<!-- Node2&#45;&gt;Node20 -->
<g id="edge40" class="edge">
<title>Node2&#45;&gt;Node20</title>
<path fill="none" stroke="midnightblue" d="M643.78,-277.04C684.87,-262.03 751.11,-232.71 793,-188 808.64,-171.31 817.29,-145.03 820.93,-131.57"/>
<polygon fill="midnightblue" stroke="midnightblue" points="642.41,-273.81 634.16,-280.46 644.75,-280.4 642.41,-273.81"/>
</g>
<!-- Node21 -->
<g id="node21" class="node">
<title>Node21</title>
<g id="a_node21"><a xlink:href="os__scheduling__strategies_8c.html" target="_top" xlink:title=" ">
<polygon fill="white" stroke="black" points="845,-56.5 845,-75.5 993,-75.5 993,-56.5 845,-56.5"/>
<text text-anchor="middle" x="919" y="-63.5" font-family="FreeSans" font-size="10.00">os_scheduling_strategies.c</text>
</a>
</g>
</g>
<!-- Node2&#45;&gt;Node21 -->
<g id="edge39" class="edge">
<title>Node2&#45;&gt;Node21</title>
<path fill="none" stroke="midnightblue" d="M647.63,-284.56C689.1,-278.97 754.63,-267.14 807,-244 846.7,-226.46 857.12,-219.48 887,-188 907.21,-166.71 913.91,-160.21 922,-132 927.61,-112.45 923.85,-88.26 921.12,-75.62"/>
<polygon fill="midnightblue" stroke="midnightblue" points="647.1,-281.1 637.63,-285.85 648,-288.04 647.1,-281.1"/>
</g>
<!-- Node4 -->
<g id="node4" class="node">
<title>Node4</title>
<g id="a_node4"><a xlink:href="lcd_8c.html" target="_top" xlink:title="Library for LCD use.">
<polygon fill="white" stroke="black" points="539.5,-168.5 539.5,-187.5 578.5,-187.5 578.5,-168.5 539.5,-168.5"/>
<text text-anchor="middle" x="559" y="-175.5" font-family="FreeSans" font-size="10.00">lcd.c</text>
</a>
</g>
</g>
<!-- Node3&#45;&gt;Node4 -->
<g id="edge3" class="edge">
<title>Node3&#45;&gt;Node4</title>
<path fill="none" stroke="midnightblue" d="M559,-213.8C559,-204.91 559,-194.78 559,-187.75"/>
<polygon fill="midnightblue" stroke="midnightblue" points="555.5,-214.08 559,-224.08 562.5,-214.08 555.5,-214.08"/>
</g>
<!-- Node3&#45;&gt;Node5 -->
<g id="edge4" class="edge">
<title>Node3&#45;&gt;Node5</title>
<path fill="none" stroke="midnightblue" d="M528.81,-224.41C528.2,-224.27 527.6,-224.13 527,-224 428.96,-202.37 399.23,-219.8 304,-188 285.9,-181.96 283.39,-175.86 266,-168 234.63,-153.83 197.36,-140.11 173.22,-131.62"/>
<polygon fill="midnightblue" stroke="midnightblue" points="528.22,-227.87 538.77,-226.94 529.94,-221.08 528.22,-227.87"/>
</g>
<!-- Node6 -->
<g id="node6" class="node">
<title>Node6</title>
<g id="a_node6"><a xlink:href="os__scheduler_8c.html" target="_top" xlink:title="Scheduling module for the OS.">
<polygon fill="white" stroke="black" points="567,-56.5 567,-75.5 655,-75.5 655,-56.5 567,-56.5"/>
<text text-anchor="middle" x="611" y="-63.5" font-family="FreeSans" font-size="10.00">os_scheduler.c</text>
</a>
</g>
</g>
<!-- Node3&#45;&gt;Node6 -->
<g id="edge5" class="edge">
<title>Node3&#45;&gt;Node6</title>
<path fill="none" stroke="midnightblue" d="M572.12,-216.07C577.8,-207.98 584.04,-197.91 588,-188 604.03,-147.89 609.08,-95.74 610.5,-75.53"/>
<polygon fill="midnightblue" stroke="midnightblue" points="569.21,-214.13 566.1,-224.26 574.85,-218.28 569.21,-214.13"/>
</g>
<!-- Node3&#45;&gt;Node7 -->
<g id="edge6" class="edge">
<title>Node3&#45;&gt;Node7</title>
<path fill="none" stroke="midnightblue" d="M545.49,-216.3C539.83,-208.25 533.9,-198.16 531,-188 518.47,-144.15 523.92,-94.01 558,-56 579.09,-32.47 613.41,-21.24 640.75,-15.88"/>
<polygon fill="midnightblue" stroke="midnightblue" points="542.78,-218.52 551.59,-224.41 548.38,-214.31 542.78,-218.52"/>
</g>
<!-- Node3&#45;&gt;Node8 -->
<g id="edge7" class="edge">
<title>Node3&#45;&gt;Node8</title>
<path fill="none" stroke="midnightblue" d="M583.34,-219.45C601.24,-209.48 625.05,-196.23 640.45,-187.65"/>
<polygon fill="midnightblue" stroke="midnightblue" points="581.62,-216.4 574.58,-224.32 585.02,-222.52 581.62,-216.4"/>
</g>
<!-- Node10&#45;&gt;Node9 -->
<g id="edge11" class="edge">
<title>Node10&#45;&gt;Node9</title>
<path fill="none" stroke="midnightblue" d="M413.01,-222.41C363.87,-212.2 290.47,-196.96 245.01,-187.52"/>
<polygon fill="midnightblue" stroke="midnightblue" points="412.3,-225.84 422.8,-224.44 413.72,-218.98 412.3,-225.84"/>
</g>
<!-- Node10&#45;&gt;Node11 -->
<g id="edge12" class="edge">
<title>Node10&#45;&gt;Node11</title>
<path fill="none" stroke="midnightblue" d="M441.81,-218.9C426.22,-209 405.87,-196.07 392.62,-187.65"/>
<polygon fill="midnightblue" stroke="midnightblue" points="440.03,-221.92 450.34,-224.32 443.78,-216.01 440.03,-221.92"/>
</g>
<!-- Node13 -->
<g id="node13" class="node">
<title>Node13</title>
<g id="a_node13"><a xlink:href="os__memory_8h.html" target="_top" xlink:title="Library for OS memory management.">
<polygon fill="white" stroke="black" points="391,-112.5 391,-131.5 473,-131.5 473,-112.5 391,-112.5"/>
<text text-anchor="middle" x="432" y="-119.5" font-family="FreeSans" font-size="10.00">os_memory.h</text>
</a>
</g>
</g>
<!-- Node10&#45;&gt;Node13 -->
<g id="edge28" class="edge">
<title>Node10&#45;&gt;Node13</title>
<path fill="none" stroke="midnightblue" d="M462.62,-214.23C461.29,-201.06 458.75,-183.17 454,-168 449.84,-154.72 442.29,-140.46 437.21,-131.64"/>
<polygon fill="midnightblue" stroke="midnightblue" points="459.15,-214.74 463.5,-224.4 466.13,-214.14 459.15,-214.74"/>
</g>
<!-- Node11&#45;&gt;Node5 -->
<g id="edge13" class="edge">
<title>Node11&#45;&gt;Node5</title>
<path fill="none" stroke="midnightblue" d="M332.47,-166.12C286.88,-155.47 218.69,-139.52 179.25,-130.3"/>
<polygon fill="midnightblue" stroke="midnightblue" points="331.86,-169.58 342.4,-168.44 333.46,-162.76 331.86,-169.58"/>
</g>
<!-- Node11&#45;&gt;Node6 -->
<g id="edge27" class="edge">
<title>Node11&#45;&gt;Node6</title>
<path fill="none" stroke="midnightblue" d="M408.89,-164.46C429.55,-155.66 457.61,-143.46 482,-132 522.85,-112.8 570.03,-88.47 594.44,-75.71"/>
<polygon fill="midnightblue" stroke="midnightblue" points="407.51,-161.24 399.67,-168.36 410.24,-167.68 407.51,-161.24"/>
</g>
<!-- Node11&#45;&gt;Node12 -->
<g id="edge14" class="edge">
<title>Node11&#45;&gt;Node12</title>
<path fill="none" stroke="midnightblue" d="M332.44,-165.88C301.69,-157.91 260.81,-146.12 226,-132 208.31,-124.83 205.45,-119.74 188,-112 155.58,-97.61 116.99,-84.05 91.8,-75.65"/>
<polygon fill="midnightblue" stroke="midnightblue" points="331.9,-169.35 342.45,-168.43 333.63,-162.57 331.9,-169.35"/>
</g>
<!-- Node11&#45;&gt;Node13 -->
<g id="edge15" class="edge">
<title>Node11&#45;&gt;Node13</title>
<path fill="none" stroke="midnightblue" d="M394.98,-160.72C404.32,-151.2 415.75,-139.56 423.41,-131.75"/>
<polygon fill="midnightblue" stroke="midnightblue" points="392.26,-158.49 387.75,-168.08 397.25,-163.4 392.26,-158.49"/>
</g>
<!-- Node18 -->
<g id="node18" class="node">
<title>Node18</title>
<g id="a_node18"><a xlink:href="os__memory__strategies_8h.html" target="_top" xlink:title="Memory allocation library for the OS.">
<polygon fill="white" stroke="black" points="235.5,-112.5 235.5,-131.5 372.5,-131.5 372.5,-112.5 235.5,-112.5"/>
<text text-anchor="middle" x="304" y="-119.5" font-family="FreeSans" font-size="10.00">os_memory_strategies.h</text>
</a>
</g>
</g>
<!-- Node11&#45;&gt;Node18 -->
<g id="edge23" class="edge">
<title>Node11&#45;&gt;Node18</title>
<path fill="none" stroke="midnightblue" d="M358.69,-162.38C345.14,-152.62 327.76,-140.11 316.27,-131.83"/>
<polygon fill="midnightblue" stroke="midnightblue" points="356.79,-165.32 366.95,-168.32 360.88,-159.64 356.79,-165.32"/>
</g>
<!-- Node13&#45;&gt;Node6 -->
<g id="edge18" class="edge">
<title>Node13&#45;&gt;Node6</title>
<path fill="none" stroke="midnightblue" d="M470.33,-109.44C504.08,-99.26 552.45,-84.66 582.77,-75.52"/>
<polygon fill="midnightblue" stroke="midnightblue" points="468.93,-106.2 460.36,-112.44 470.95,-112.91 468.93,-106.2"/>
</g>
<!-- Node13&#45;&gt;Node7 -->
<g id="edge19" class="edge">
<title>Node13&#45;&gt;Node7</title>
<path fill="none" stroke="midnightblue" d="M449.76,-105.86C467.69,-91.26 496.72,-69.45 525,-56 562.35,-38.25 608.08,-26.17 640.71,-19.03"/>
<polygon fill="midnightblue" stroke="midnightblue" points="447.36,-103.31 441.9,-112.38 451.83,-108.69 447.36,-103.31"/>
</g>
<!-- Node14 -->
<g id="node14" class="node">
<title>Node14</title>
<g id="a_node14"><a xlink:href="os__memory_8c.html" target="_top" xlink:title=" ">
<polygon fill="white" stroke="black" points="303.5,-56.5 303.5,-75.5 384.5,-75.5 384.5,-56.5 303.5,-56.5"/>
<text text-anchor="middle" x="344" y="-63.5" font-family="FreeSans" font-size="10.00">os_memory.c</text>
</a>
</g>
</g>
<!-- Node13&#45;&gt;Node14 -->
<g id="edge16" class="edge">
<title>Node13&#45;&gt;Node14</title>
<path fill="none" stroke="midnightblue" d="M409.02,-106.9C392.89,-97 371.82,-84.07 358.1,-75.65"/>
<polygon fill="midnightblue" stroke="midnightblue" points="407.51,-110.08 417.86,-112.32 411.17,-104.11 407.51,-110.08"/>
</g>
<!-- Node15 -->
<g id="node15" class="node">
<title>Node15</title>
<g id="a_node15"><a xlink:href="os__memory__strategies_8c.html" target="_top" xlink:title=" ">
<polygon fill="white" stroke="black" points="148.5,-56.5 148.5,-75.5 285.5,-75.5 285.5,-56.5 148.5,-56.5"/>
<text text-anchor="middle" x="217" y="-63.5" font-family="FreeSans" font-size="10.00">os_memory_strategies.c</text>
</a>
</g>
</g>
<!-- Node13&#45;&gt;Node15 -->
<g id="edge17" class="edge">
<title>Node13&#45;&gt;Node15</title>
<path fill="none" stroke="midnightblue" d="M388.04,-109.96C347.43,-99.76 287.96,-84.82 250.91,-75.52"/>
<polygon fill="midnightblue" stroke="midnightblue" points="387.38,-113.4 397.93,-112.44 389.09,-106.61 387.38,-113.4"/>
</g>
<!-- Node13&#45;&gt;Node16 -->
<g id="edge20" class="edge">
<title>Node13&#45;&gt;Node16</title>
<path fill="none" stroke="midnightblue" d="M483.4,-112.76C546.22,-102.7 651.99,-85.75 715.67,-75.55"/>
<polygon fill="midnightblue" stroke="midnightblue" points="482.64,-109.34 473.32,-114.38 483.75,-116.25 482.64,-109.34"/>
</g>
<!-- Node17 -->
<g id="node17" class="node">
<title>Node17</title>
<g id="a_node17"><a xlink:href="tlcd__core_8h.html" target="_top" xlink:title="Core library for the touchpanel EA EDIPTFT43&#45;ATP.">
<polygon fill="white" stroke="black" points="403,-56.5 403,-75.5 473,-75.5 473,-56.5 403,-56.5"/>
<text text-anchor="middle" x="438" y="-63.5" font-family="FreeSans" font-size="10.00">tlcd_core.h</text>
</a>
</g>
</g>
<!-- Node13&#45;&gt;Node17 -->
<g id="edge22" class="edge">
<title>Node13&#45;&gt;Node17</title>
<path fill="none" stroke="midnightblue" d="M434.1,-102.1C435.1,-93.14 436.24,-82.86 437.03,-75.75"/>
<polygon fill="midnightblue" stroke="midnightblue" points="430.62,-101.76 432.99,-112.08 437.57,-102.53 430.62,-101.76"/>
</g>
<!-- Node16&#45;&gt;Node7 -->
<g id="edge21" class="edge">
<title>Node16&#45;&gt;Node7</title>
<path fill="none" stroke="midnightblue" d="M746.55,-50.9C730.78,-41 710.19,-28.07 696.78,-19.65"/>
<polygon fill="midnightblue" stroke="midnightblue" points="744.85,-53.97 755.18,-56.32 748.57,-48.04 744.85,-53.97"/>
</g>
<!-- Node18&#45;&gt;Node12 -->
<g id="edge24" class="edge">
<title>Node18&#45;&gt;Node12</title>
<path fill="none" stroke="midnightblue" d="M256.28,-110.22C211.11,-100.01 144.23,-84.9 102.69,-75.52"/>
<polygon fill="midnightblue" stroke="midnightblue" points="255.6,-113.65 266.13,-112.44 257.15,-106.83 255.6,-113.65"/>
</g>
<!-- Node18&#45;&gt;Node14 -->
<g id="edge25" class="edge">
<title>Node18&#45;&gt;Node14</title>
<path fill="none" stroke="midnightblue" d="M316.7,-103.86C323.63,-94.5 331.91,-83.33 337.52,-75.75"/>
<polygon fill="midnightblue" stroke="midnightblue" points="313.75,-101.96 310.61,-112.08 319.37,-106.13 313.75,-101.96"/>
</g>
<!-- Node18&#45;&gt;Node15 -->
<g id="edge26" class="edge">
<title>Node18&#45;&gt;Node15</title>
<path fill="none" stroke="midnightblue" d="M281.28,-106.9C265.33,-97 244.5,-84.07 230.94,-75.65"/>
<polygon fill="midnightblue" stroke="midnightblue" points="279.68,-110.02 290.02,-112.32 283.37,-104.08 279.68,-110.02"/>
</g>
<!-- Node19&#45;&gt;Node6 -->
<g id="edge33" class="edge">
<title>Node19&#45;&gt;Node6</title>
<path fill="none" stroke="midnightblue" d="M714.14,-163.26C700.22,-155.04 682.93,-143.89 669,-132 648.07,-114.12 627.58,-88.81 617.49,-75.67"/>
<polygon fill="midnightblue" stroke="midnightblue" points="712.74,-166.5 723.15,-168.46 716.24,-160.43 712.74,-166.5"/>
</g>
<!-- Node19&#45;&gt;Node7 -->
<g id="edge37" class="edge">
<title>Node19&#45;&gt;Node7</title>
<path fill="none" stroke="midnightblue" d="M731.99,-158.99C724.26,-138.89 711.64,-105.32 702,-76 695.46,-56.12 688.83,-32.46 685.4,-19.89"/>
<polygon fill="midnightblue" stroke="midnightblue" points="728.77,-160.36 735.64,-168.42 735.29,-157.83 728.77,-160.36"/>
</g>
<!-- Node19&#45;&gt;Node13 -->
<g id="edge32" class="edge">
<title>Node19&#45;&gt;Node13</title>
<path fill="none" stroke="midnightblue" d="M684.23,-167.37C623.74,-156.73 527.71,-139.83 473.25,-130.26"/>
<polygon fill="midnightblue" stroke="midnightblue" points="683.9,-170.86 694.36,-169.15 685.12,-163.97 683.9,-170.86"/>
</g>
<!-- Node19&#45;&gt;Node16 -->
<g id="edge38" class="edge">
<title>Node19&#45;&gt;Node16</title>
<path fill="none" stroke="midnightblue" d="M736.59,-158.15C735.55,-144.94 735.45,-127.04 740,-112 744.25,-97.94 754.3,-84.1 761.37,-75.56"/>
<polygon fill="midnightblue" stroke="midnightblue" points="733.14,-158.77 737.66,-168.36 740.1,-158.05 733.14,-158.77"/>
</g>
<!-- Node19&#45;&gt;Node20 -->
<g id="edge34" class="edge">
<title>Node19&#45;&gt;Node20</title>
<path fill="none" stroke="midnightblue" d="M760.93,-162.9C776.34,-153 796.45,-140.07 809.54,-131.65"/>
<polygon fill="midnightblue" stroke="midnightblue" points="759.02,-159.97 752.5,-168.32 762.8,-165.86 759.02,-159.97"/>
</g>
<!-- Node20&#45;&gt;Node6 -->
<g id="edge35" class="edge">
<title>Node20&#45;&gt;Node6</title>
<path fill="none" stroke="midnightblue" d="M779.65,-109.96C739.61,-99.76 680.97,-84.82 644.43,-75.52"/>
<polygon fill="midnightblue" stroke="midnightblue" points="778.85,-113.37 789.41,-112.44 780.58,-106.58 778.85,-113.37"/>
</g>
<!-- Node20&#45;&gt;Node21 -->
<g id="edge36" class="edge">
<title>Node20&#45;&gt;Node21</title>
<path fill="none" stroke="midnightblue" d="M847.57,-107.18C865.24,-97.24 888.51,-84.15 903.61,-75.65"/>
<polygon fill="midnightblue" stroke="midnightblue" points="845.42,-104.37 838.42,-112.32 848.86,-110.47 845.42,-104.37"/>
</g>
</g>
</svg>
