<?xml version="1.0" encoding="UTF-8" standalone="no"?>
<!DOCTYPE svg PUBLIC "-//W3C//DTD SVG 1.1//EN"
 "http://www.w3.org/Graphics/SVG/1.1/DTD/svg11.dtd">
<!-- Generated by graphviz version 2.43.0 (0)
 -->
<!-- Title: defines.h Pages: 1 -->
<svg width="1092pt" height="308pt"
 viewBox="0.00 0.00 1092.00 308.00" xmlns="http://www.w3.org/2000/svg" xmlns:xlink="http://www.w3.org/1999/xlink">
<g id="graph0" class="graph" transform="scale(1 1) rotate(0) translate(4 304)">
<title>defines.h</title>
<polygon fill="white" stroke="transparent" points="-4,4 -4,-304 1088,-304 1088,4 -4,4"/>
<!-- Node1 -->
<g id="node1" class="node">
<title>Node1</title>
<g id="a_node1"><a xlink:title="Simple definitions and assembler&#45;macros, mostly 8/16&#45;Bit values.">
<polygon fill="#bfbfbf" stroke="black" points="340.5,-280.5 340.5,-299.5 401.5,-299.5 401.5,-280.5 340.5,-280.5"/>
<text text-anchor="middle" x="371" y="-287.5" font-family="FreeSans" font-size="10.00">defines.h</text>
</a>
</g>
</g>
<!-- Node2 -->
<g id="node2" class="node">
<title>Node2</title>
<g id="a_node2"><a xlink:href="lcd_8h.html" target="_top" xlink:title="Library for LCD use.">
<polygon fill="white" stroke="black" points="152,-168.5 152,-187.5 192,-187.5 192,-168.5 152,-168.5"/>
<text text-anchor="middle" x="172" y="-175.5" font-family="FreeSans" font-size="10.00">lcd.h</text>
</a>
</g>
</g>
<!-- Node1&#45;&gt;Node2 -->
<g id="edge1" class="edge">
<title>Node1&#45;&gt;Node2</title>
<path fill="none" stroke="midnightblue" d="M330.47,-286.33C295.15,-282.15 244.2,-271.44 209,-244 189.95,-229.15 179.05,-201.57 174.51,-187.59"/>
<polygon fill="midnightblue" stroke="midnightblue" points="330.13,-289.82 340.44,-287.39 330.87,-282.86 330.13,-289.82"/>
</g>
<!-- Node4 -->
<g id="node4" class="node">
<title>Node4</title>
<g id="a_node4"><a xlink:href="os__core_8c.html" target="_top" xlink:title=" ">
<polygon fill="white" stroke="black" points="260,-112.5 260,-131.5 322,-131.5 322,-112.5 260,-112.5"/>
<text text-anchor="middle" x="291" y="-119.5" font-family="FreeSans" font-size="10.00">os_core.c</text>
</a>
</g>
</g>
<!-- Node1&#45;&gt;Node4 -->
<g id="edge7" class="edge">
<title>Node1&#45;&gt;Node4</title>
<path fill="none" stroke="midnightblue" d="M351.15,-274.06C329.4,-256.31 295.78,-224.48 282,-188 274.75,-168.82 282.15,-144.47 287.18,-131.71"/>
<polygon fill="midnightblue" stroke="midnightblue" points="349.1,-276.9 359.11,-280.36 353.44,-271.41 349.1,-276.9"/>
</g>
<!-- Node6 -->
<g id="node6" class="node">
<title>Node6</title>
<g id="a_node6"><a xlink:href="os__taskman_8c.html" target="_top" xlink:title=" ">
<polygon fill="white" stroke="black" points="475,-0.5 475,-19.5 559,-19.5 559,-0.5 475,-0.5"/>
<text text-anchor="middle" x="517" y="-7.5" font-family="FreeSans" font-size="10.00">os_taskman.c</text>
</a>
</g>
</g>
<!-- Node1&#45;&gt;Node6 -->
<g id="edge40" class="edge">
<title>Node1&#45;&gt;Node6</title>
<path fill="none" stroke="midnightblue" d="M330.36,-285.62C234.07,-276.5 0,-247.3 0,-179 0,-179 0,-179 0,-121 0,-24.19 351.22,-12.24 474.69,-11.03"/>
<polygon fill="midnightblue" stroke="midnightblue" points="330.04,-289.11 340.32,-286.54 330.69,-282.14 330.04,-289.11"/>
</g>
<!-- Node7 -->
<g id="node7" class="node">
<title>Node7</title>
<g id="a_node7"><a xlink:href="util_8c.html" target="_top" xlink:title=" ">
<polygon fill="white" stroke="black" points="200.5,-112.5 200.5,-131.5 241.5,-131.5 241.5,-112.5 200.5,-112.5"/>
<text text-anchor="middle" x="221" y="-119.5" font-family="FreeSans" font-size="10.00">util.c</text>
</a>
</g>
</g>
<!-- Node1&#45;&gt;Node7 -->
<g id="edge42" class="edge">
<title>Node1&#45;&gt;Node7</title>
<path fill="none" stroke="midnightblue" d="M343.23,-275.76C328.65,-267.9 311.13,-256.95 298,-244 261.83,-208.34 234.41,-152.68 224.76,-131.54"/>
<polygon fill="midnightblue" stroke="midnightblue" points="341.82,-278.97 352.31,-280.46 345.04,-272.76 341.82,-278.97"/>
</g>
<!-- Node8 -->
<g id="node8" class="node">
<title>Node8</title>
<g id="a_node8"><a xlink:href="os__mem__drivers_8c.html" target="_top" xlink:title=" ">
<polygon fill="white" stroke="black" points="291,-168.5 291,-187.5 397,-187.5 397,-168.5 291,-168.5"/>
<text text-anchor="middle" x="344" y="-175.5" font-family="FreeSans" font-size="10.00">os_mem_drivers.c</text>
</a>
</g>
</g>
<!-- Node1&#45;&gt;Node8 -->
<g id="edge8" class="edge">
<title>Node1&#45;&gt;Node8</title>
<path fill="none" stroke="midnightblue" d="M361.13,-271.53C356.99,-263.4 352.56,-253.47 350,-244 344.67,-224.31 343.87,-200.17 343.86,-187.58"/>
<polygon fill="midnightblue" stroke="midnightblue" points="358.06,-273.22 365.88,-280.38 364.23,-269.91 358.06,-273.22"/>
</g>
<!-- Node9 -->
<g id="node9" class="node">
<title>Node9</title>
<g id="a_node9"><a xlink:href="os__mem__drivers_8h.html" target="_top" xlink:title="Drivers for OS memory management.">
<polygon fill="white" stroke="black" points="358.5,-224.5 358.5,-243.5 465.5,-243.5 465.5,-224.5 358.5,-224.5"/>
<text text-anchor="middle" x="412" y="-231.5" font-family="FreeSans" font-size="10.00">os_mem_drivers.h</text>
</a>
</g>
</g>
<!-- Node1&#45;&gt;Node9 -->
<g id="edge9" class="edge">
<title>Node1&#45;&gt;Node9</title>
<path fill="none" stroke="midnightblue" d="M384.02,-271.86C391.12,-262.5 399.6,-251.33 405.36,-243.75"/>
<polygon fill="midnightblue" stroke="midnightblue" points="381.03,-270 377.77,-280.08 386.61,-274.24 381.03,-270"/>
</g>
<!-- Node10 -->
<g id="node10" class="node">
<title>Node10</title>
<g id="a_node10"><a xlink:href="os__memheap__drivers_8h.html" target="_top" xlink:title="Drivers for OS heap management.">
<polygon fill="white" stroke="black" points="415.5,-168.5 415.5,-187.5 546.5,-187.5 546.5,-168.5 415.5,-168.5"/>
<text text-anchor="middle" x="481" y="-175.5" font-family="FreeSans" font-size="10.00">os_memheap_drivers.h</text>
</a>
</g>
</g>
<!-- Node1&#45;&gt;Node10 -->
<g id="edge29" class="edge">
<title>Node1&#45;&gt;Node10</title>
<path fill="none" stroke="midnightblue" d="M411.74,-281.84C434.08,-275.7 460.18,-264.44 475,-244 487.24,-227.12 484.98,-200.92 482.75,-187.53"/>
<polygon fill="midnightblue" stroke="midnightblue" points="410.65,-278.51 401.79,-284.32 412.34,-285.3 410.65,-278.51"/>
</g>
<!-- Node11 -->
<g id="node11" class="node">
<title>Node11</title>
<g id="a_node11"><a xlink:href="os__memheap__drivers_8c.html" target="_top" xlink:title=" ">
<polygon fill="white" stroke="black" points="104,-56.5 104,-75.5 234,-75.5 234,-56.5 104,-56.5"/>
<text text-anchor="middle" x="169" y="-63.5" font-family="FreeSans" font-size="10.00">os_memheap_drivers.c</text>
</a>
</g>
</g>
<!-- Node1&#45;&gt;Node11 -->
<g id="edge28" class="edge">
<title>Node1&#45;&gt;Node11</title>
<path fill="none" stroke="midnightblue" d="M330.09,-284.24C256.69,-273.12 105.74,-237.79 57,-132 42.94,-101.47 83.49,-84.43 119.67,-75.54"/>
<polygon fill="midnightblue" stroke="midnightblue" points="329.94,-287.76 340.33,-285.71 330.93,-280.83 329.94,-287.76"/>
</g>
<!-- Node15 -->
<g id="node15" class="node">
<title>Node15</title>
<g id="a_node15"><a xlink:href="os__user__privileges_8h.html" target="_top" xlink:title="User privileges specification used in part by the task manager.">
<polygon fill="white" stroke="black" points="739,-56.5 739,-75.5 855,-75.5 855,-56.5 739,-56.5"/>
<text text-anchor="middle" x="797" y="-63.5" font-family="FreeSans" font-size="10.00">os_user_privileges.h</text>
</a>
</g>
</g>
<!-- Node1&#45;&gt;Node15 -->
<g id="edge41" class="edge">
<title>Node1&#45;&gt;Node15</title>
<path fill="none" stroke="midnightblue" d="M407.54,-277.22C431.9,-268.94 464.39,-257.03 492,-244 609.93,-188.35 742.76,-102.77 784.06,-75.59"/>
<polygon fill="midnightblue" stroke="midnightblue" points="406.34,-273.94 397.97,-280.44 408.56,-280.57 406.34,-273.94"/>
</g>
<!-- Node18 -->
<g id="node18" class="node">
<title>Node18</title>
<g id="a_node18"><a xlink:href="os__scheduler_8h.html" target="_top" xlink:title="Scheduling module for the OS.">
<polygon fill="white" stroke="black" points="748.5,-168.5 748.5,-187.5 837.5,-187.5 837.5,-168.5 748.5,-168.5"/>
<text text-anchor="middle" x="793" y="-175.5" font-family="FreeSans" font-size="10.00">os_scheduler.h</text>
</a>
</g>
</g>
<!-- Node1&#45;&gt;Node18 -->
<g id="edge30" class="edge">
<title>Node1&#45;&gt;Node18</title>
<path fill="none" stroke="midnightblue" d="M411.62,-287.5C494.21,-283.88 678.59,-272.74 734,-244 759.43,-230.81 779.33,-201.94 788.11,-187.53"/>
<polygon fill="midnightblue" stroke="midnightblue" points="411.44,-284 401.6,-287.92 411.74,-291 411.44,-284"/>
</g>
<!-- Node19 -->
<g id="node19" class="node">
<title>Node19</title>
<g id="a_node19"><a xlink:href="os__scheduling__strategies_8h.html" target="_top" xlink:title="Scheduling library for the OS.">
<polygon fill="white" stroke="black" points="858.5,-112.5 858.5,-131.5 1007.5,-131.5 1007.5,-112.5 858.5,-112.5"/>
<text text-anchor="middle" x="933" y="-119.5" font-family="FreeSans" font-size="10.00">os_scheduling_strategies.h</text>
</a>
</g>
</g>
<!-- Node1&#45;&gt;Node19 -->
<g id="edge39" class="edge">
<title>Node1&#45;&gt;Node19</title>
<path fill="none" stroke="midnightblue" d="M411.79,-286.63C498.12,-281.23 696.55,-266.7 760,-244 831.44,-218.45 900.46,-155.1 924.26,-131.79"/>
<polygon fill="midnightblue" stroke="midnightblue" points="411.36,-283.15 401.59,-287.26 411.79,-290.13 411.36,-283.15"/>
</g>
<!-- Node20 -->
<g id="node20" class="node">
<title>Node20</title>
<g id="a_node20"><a xlink:href="os__scheduling__strategies_8c.html" target="_top" xlink:title=" ">
<polygon fill="white" stroke="black" points="936,-56.5 936,-75.5 1084,-75.5 1084,-56.5 936,-56.5"/>
<text text-anchor="middle" x="1010" y="-63.5" font-family="FreeSans" font-size="10.00">os_scheduling_strategies.c</text>
</a>
</g>
</g>
<!-- Node1&#45;&gt;Node20 -->
<g id="edge38" class="edge">
<title>Node1&#45;&gt;Node20</title>
<path fill="none" stroke="midnightblue" d="M411.91,-289.46C488.51,-289.28 658.14,-283.91 794,-244 900.41,-212.74 958.78,-226.4 1017,-132 1027.84,-114.42 1019.73,-88.98 1014.13,-75.75"/>
<polygon fill="midnightblue" stroke="midnightblue" points="411.73,-285.96 401.73,-289.46 411.72,-292.96 411.73,-285.96"/>
</g>
<!-- Node3 -->
<g id="node3" class="node">
<title>Node3</title>
<g id="a_node3"><a xlink:href="lcd_8c.html" target="_top" xlink:title="Library for LCD use.">
<polygon fill="white" stroke="black" points="66.5,-112.5 66.5,-131.5 105.5,-131.5 105.5,-112.5 66.5,-112.5"/>
<text text-anchor="middle" x="86" y="-119.5" font-family="FreeSans" font-size="10.00">lcd.c</text>
</a>
</g>
</g>
<!-- Node2&#45;&gt;Node3 -->
<g id="edge2" class="edge">
<title>Node2&#45;&gt;Node3</title>
<path fill="none" stroke="midnightblue" d="M149.55,-162.9C133.78,-153 113.19,-140.07 99.78,-131.65"/>
<polygon fill="midnightblue" stroke="midnightblue" points="147.85,-165.97 158.18,-168.32 151.57,-160.04 147.85,-165.97"/>
</g>
<!-- Node2&#45;&gt;Node4 -->
<g id="edge3" class="edge">
<title>Node2&#45;&gt;Node4</title>
<path fill="none" stroke="midnightblue" d="M200.14,-164.23C222.4,-154.13 252.86,-140.31 272.23,-131.52"/>
<polygon fill="midnightblue" stroke="midnightblue" points="198.52,-161.12 190.86,-168.44 201.41,-167.5 198.52,-161.12"/>
</g>
<!-- Node5 -->
<g id="node5" class="node">
<title>Node5</title>
<g id="a_node5"><a xlink:href="os__scheduler_8c.html" target="_top" xlink:title="Scheduling module for the OS.">
<polygon fill="white" stroke="black" points="633,-56.5 633,-75.5 721,-75.5 721,-56.5 633,-56.5"/>
<text text-anchor="middle" x="677" y="-63.5" font-family="FreeSans" font-size="10.00">os_scheduler.c</text>
</a>
</g>
</g>
<!-- Node2&#45;&gt;Node5 -->
<g id="edge4" class="edge">
<title>Node2&#45;&gt;Node5</title>
<path fill="none" stroke="midnightblue" d="M172.09,-158C173.26,-143.07 177.5,-123.02 191,-112 228.4,-81.47 576.1,-82.05 624,-76 626.87,-75.64 629.82,-75.23 632.8,-74.8"/>
<polygon fill="midnightblue" stroke="midnightblue" points="168.58,-158.05 171.69,-168.18 175.58,-158.33 168.58,-158.05"/>
</g>
<!-- Node2&#45;&gt;Node6 -->
<g id="edge5" class="edge">
<title>Node2&#45;&gt;Node6</title>
<path fill="none" stroke="midnightblue" d="M156.23,-160.63C129.38,-131.86 79.17,-73.61 95,-56 120.12,-28.06 373.18,-16.07 474.95,-12.36"/>
<polygon fill="midnightblue" stroke="midnightblue" points="153.99,-163.36 163.41,-168.22 159.08,-158.55 153.99,-163.36"/>
</g>
<!-- Node2&#45;&gt;Node7 -->
<g id="edge6" class="edge">
<title>Node2&#45;&gt;Node7</title>
<path fill="none" stroke="midnightblue" d="M187.03,-160.43C195.62,-150.97 206.04,-139.48 213.06,-131.75"/>
<polygon fill="midnightblue" stroke="midnightblue" points="184.22,-158.33 180.09,-168.08 189.4,-163.03 184.22,-158.33"/>
</g>
<!-- Node9&#45;&gt;Node8 -->
<g id="edge10" class="edge">
<title>Node9&#45;&gt;Node8</title>
<path fill="none" stroke="midnightblue" d="M393.24,-218.1C381,-208.38 365.44,-196.03 355.12,-187.83"/>
<polygon fill="midnightblue" stroke="midnightblue" points="391.07,-220.85 401.07,-224.32 395.42,-215.36 391.07,-220.85"/>
</g>
<!-- Node9&#45;&gt;Node10 -->
<g id="edge11" class="edge">
<title>Node9&#45;&gt;Node10</title>
<path fill="none" stroke="midnightblue" d="M431.04,-218.1C443.46,-208.38 459.24,-196.03 469.71,-187.83"/>
<polygon fill="midnightblue" stroke="midnightblue" points="428.8,-215.4 423.09,-224.32 433.12,-220.92 428.8,-215.4"/>
</g>
<!-- Node12 -->
<g id="node12" class="node">
<title>Node12</title>
<g id="a_node12"><a xlink:href="os__memory_8h.html" target="_top" xlink:title="Library for OS memory management.">
<polygon fill="white" stroke="black" points="534,-112.5 534,-131.5 616,-131.5 616,-112.5 534,-112.5"/>
<text text-anchor="middle" x="575" y="-119.5" font-family="FreeSans" font-size="10.00">os_memory.h</text>
</a>
</g>
</g>
<!-- Node9&#45;&gt;Node12 -->
<g id="edge27" class="edge">
<title>Node9&#45;&gt;Node12</title>
<path fill="none" stroke="midnightblue" d="M475.81,-226.63C503.76,-220.74 534.92,-209.47 556,-188 571.15,-172.56 574.34,-145.74 574.93,-131.87"/>
<polygon fill="midnightblue" stroke="midnightblue" points="474.84,-223.25 465.68,-228.57 476.16,-230.13 474.84,-223.25"/>
</g>
<!-- Node10&#45;&gt;Node4 -->
<g id="edge12" class="edge">
<title>Node10&#45;&gt;Node4</title>
<path fill="none" stroke="midnightblue" d="M441.24,-165.7C405.38,-155.51 353.43,-140.74 320.97,-131.52"/>
<polygon fill="midnightblue" stroke="midnightblue" points="440.32,-169.08 450.89,-168.44 442.23,-162.34 440.32,-169.08"/>
</g>
<!-- Node10&#45;&gt;Node5 -->
<g id="edge26" class="edge">
<title>Node10&#45;&gt;Node5</title>
<path fill="none" stroke="midnightblue" d="M543.32,-166.04C570.1,-159.27 600.74,-148.58 625,-132 647.19,-116.83 664.59,-89.39 672.44,-75.52"/>
<polygon fill="midnightblue" stroke="midnightblue" points="542.17,-162.72 533.26,-168.46 543.81,-169.53 542.17,-162.72"/>
</g>
<!-- Node10&#45;&gt;Node11 -->
<g id="edge13" class="edge">
<title>Node10&#45;&gt;Node11</title>
<path fill="none" stroke="midnightblue" d="M448.86,-164.84C426.53,-156.18 396.18,-143.99 370,-132 352.29,-123.89 349.14,-119.09 331,-112 290.22,-96.07 241.61,-83.36 208.35,-75.56"/>
<polygon fill="midnightblue" stroke="midnightblue" points="447.63,-168.12 458.21,-168.44 450.14,-161.58 447.63,-168.12"/>
</g>
<!-- Node10&#45;&gt;Node12 -->
<g id="edge14" class="edge">
<title>Node10&#45;&gt;Node12</title>
<path fill="none" stroke="midnightblue" d="M505.06,-163.18C522.36,-153.24 545.15,-140.15 559.93,-131.65"/>
<polygon fill="midnightblue" stroke="midnightblue" points="503.03,-160.31 496.1,-168.32 506.52,-166.38 503.03,-160.31"/>
</g>
<!-- Node17 -->
<g id="node17" class="node">
<title>Node17</title>
<g id="a_node17"><a xlink:href="os__memory__strategies_8h.html" target="_top" xlink:title="Memory allocation library for the OS.">
<polygon fill="white" stroke="black" points="378.5,-112.5 378.5,-131.5 515.5,-131.5 515.5,-112.5 378.5,-112.5"/>
<text text-anchor="middle" x="447" y="-119.5" font-family="FreeSans" font-size="10.00">os_memory_strategies.h</text>
</a>
</g>
</g>
<!-- Node10&#45;&gt;Node17 -->
<g id="edge22" class="edge">
<title>Node10&#45;&gt;Node17</title>
<path fill="none" stroke="midnightblue" d="M470.02,-159.57C464.17,-150.27 457.23,-139.25 452.51,-131.75"/>
<polygon fill="midnightblue" stroke="midnightblue" points="467.1,-161.49 475.39,-168.08 473.02,-157.76 467.1,-161.49"/>
</g>
<!-- Node12&#45;&gt;Node5 -->
<g id="edge17" class="edge">
<title>Node12&#45;&gt;Node5</title>
<path fill="none" stroke="midnightblue" d="M600.33,-107.59C619.19,-97.61 644.38,-84.27 660.65,-75.65"/>
<polygon fill="midnightblue" stroke="midnightblue" points="598.59,-104.55 591.39,-112.32 601.86,-110.74 598.59,-104.55"/>
</g>
<!-- Node12&#45;&gt;Node6 -->
<g id="edge18" class="edge">
<title>Node12&#45;&gt;Node6</title>
<path fill="none" stroke="midnightblue" d="M558.11,-105C550.43,-96.93 541.79,-86.62 536,-76 525.87,-57.42 520.59,-32.83 518.35,-19.87"/>
<polygon fill="midnightblue" stroke="midnightblue" points="555.79,-107.63 565.33,-112.25 560.76,-102.69 555.79,-107.63"/>
</g>
<!-- Node13 -->
<g id="node13" class="node">
<title>Node13</title>
<g id="a_node13"><a xlink:href="os__memory_8c.html" target="_top" xlink:title=" ">
<polygon fill="white" stroke="black" points="252.5,-56.5 252.5,-75.5 333.5,-75.5 333.5,-56.5 252.5,-56.5"/>
<text text-anchor="middle" x="293" y="-63.5" font-family="FreeSans" font-size="10.00">os_memory.c</text>
</a>
</g>
</g>
<!-- Node12&#45;&gt;Node13 -->
<g id="edge15" class="edge">
<title>Node12&#45;&gt;Node13</title>
<path fill="none" stroke="midnightblue" d="M523.84,-111.2C469.22,-100.74 383.78,-84.38 333.6,-74.77"/>
<polygon fill="midnightblue" stroke="midnightblue" points="523.51,-114.7 533.99,-113.15 524.83,-107.83 523.51,-114.7"/>
</g>
<!-- Node14 -->
<g id="node14" class="node">
<title>Node14</title>
<g id="a_node14"><a xlink:href="os__memory__strategies_8c.html" target="_top" xlink:title=" ">
<polygon fill="white" stroke="black" points="351.5,-56.5 351.5,-75.5 488.5,-75.5 488.5,-56.5 351.5,-56.5"/>
<text text-anchor="middle" x="420" y="-63.5" font-family="FreeSans" font-size="10.00">os_memory_strategies.c</text>
</a>
</g>
</g>
<!-- Node12&#45;&gt;Node14 -->
<g id="edge16" class="edge">
<title>Node12&#45;&gt;Node14</title>
<path fill="none" stroke="midnightblue" d="M540.67,-109.04C511.5,-98.88 470.36,-84.55 444.45,-75.52"/>
<polygon fill="midnightblue" stroke="midnightblue" points="539.84,-112.46 550.44,-112.44 542.15,-105.85 539.84,-112.46"/>
</g>
<!-- Node12&#45;&gt;Node15 -->
<g id="edge19" class="edge">
<title>Node12&#45;&gt;Node15</title>
<path fill="none" stroke="midnightblue" d="M620.12,-110.02C662.06,-99.82 723.65,-84.84 761.99,-75.52"/>
<polygon fill="midnightblue" stroke="midnightblue" points="619.07,-106.68 610.18,-112.44 620.72,-113.48 619.07,-106.68"/>
</g>
<!-- Node16 -->
<g id="node16" class="node">
<title>Node16</title>
<g id="a_node16"><a xlink:href="tlcd__core_8h.html" target="_top" xlink:title="Core library for the touchpanel EA EDIPTFT43&#45;ATP.">
<polygon fill="white" stroke="black" points="545,-56.5 545,-75.5 615,-75.5 615,-56.5 545,-56.5"/>
<text text-anchor="middle" x="580" y="-63.5" font-family="FreeSans" font-size="10.00">tlcd_core.h</text>
</a>
</g>
</g>
<!-- Node12&#45;&gt;Node16 -->
<g id="edge21" class="edge">
<title>Node12&#45;&gt;Node16</title>
<path fill="none" stroke="midnightblue" d="M576.75,-102.1C577.58,-93.14 578.53,-82.86 579.19,-75.75"/>
<polygon fill="midnightblue" stroke="midnightblue" points="573.26,-101.8 575.83,-112.08 580.23,-102.45 573.26,-101.8"/>
</g>
<!-- Node15&#45;&gt;Node6 -->
<g id="edge20" class="edge">
<title>Node15&#45;&gt;Node6</title>
<path fill="none" stroke="midnightblue" d="M742.63,-54.51C689.05,-44.18 608.3,-28.61 559.33,-19.16"/>
<polygon fill="midnightblue" stroke="midnightblue" points="742.15,-57.99 752.63,-56.44 743.48,-51.11 742.15,-57.99"/>
</g>
<!-- Node17&#45;&gt;Node11 -->
<g id="edge23" class="edge">
<title>Node17&#45;&gt;Node11</title>
<path fill="none" stroke="midnightblue" d="M392.81,-110.47C340.27,-100.27 261.56,-84.98 212.84,-75.52"/>
<polygon fill="midnightblue" stroke="midnightblue" points="392.47,-113.97 402.95,-112.44 393.8,-107.1 392.47,-113.97"/>
</g>
<!-- Node17&#45;&gt;Node13 -->
<g id="edge24" class="edge">
<title>Node17&#45;&gt;Node13</title>
<path fill="none" stroke="midnightblue" d="M412.89,-109.04C383.91,-98.88 343.04,-84.55 317.29,-75.52"/>
<polygon fill="midnightblue" stroke="midnightblue" points="412,-112.44 422.6,-112.44 414.32,-105.83 412,-112.44"/>
</g>
<!-- Node17&#45;&gt;Node14 -->
<g id="edge25" class="edge">
<title>Node17&#45;&gt;Node14</title>
<path fill="none" stroke="midnightblue" d="M437.99,-102.98C433.41,-93.82 428.05,-83.09 424.38,-75.75"/>
<polygon fill="midnightblue" stroke="midnightblue" points="434.94,-104.7 442.54,-112.08 441.2,-101.57 434.94,-104.7"/>
</g>
<!-- Node18&#45;&gt;Node5 -->
<g id="edge32" class="edge">
<title>Node18&#45;&gt;Node5</title>
<path fill="none" stroke="midnightblue" d="M776.34,-161.21C751.48,-137.63 705.5,-94.03 686.06,-75.59"/>
<polygon fill="midnightblue" stroke="midnightblue" points="774.23,-164.03 783.9,-168.37 779.05,-158.95 774.23,-164.03"/>
</g>
<!-- Node18&#45;&gt;Node6 -->
<g id="edge36" class="edge">
<title>Node18&#45;&gt;Node6</title>
<path fill="none" stroke="midnightblue" d="M807.68,-160.59C832.66,-131.75 879.29,-73.4 864,-56 844.15,-33.41 647.43,-18.85 559.31,-13.4"/>
<polygon fill="midnightblue" stroke="midnightblue" points="804.97,-158.37 801,-168.2 810.23,-162.99 804.97,-158.37"/>
</g>
<!-- Node18&#45;&gt;Node12 -->
<g id="edge31" class="edge">
<title>Node18&#45;&gt;Node12</title>
<path fill="none" stroke="midnightblue" d="M748.69,-166.02C707.51,-155.82 647.03,-140.84 609.38,-131.52"/>
<polygon fill="midnightblue" stroke="midnightblue" points="747.91,-169.44 758.46,-168.44 749.59,-162.64 747.91,-169.44"/>
</g>
<!-- Node18&#45;&gt;Node15 -->
<g id="edge37" class="edge">
<title>Node18&#45;&gt;Node15</title>
<path fill="none" stroke="midnightblue" d="M793.68,-158.35C794.55,-134.25 796.04,-93.31 796.69,-75.59"/>
<polygon fill="midnightblue" stroke="midnightblue" points="790.18,-158.25 793.31,-168.37 797.18,-158.5 790.18,-158.25"/>
</g>
<!-- Node18&#45;&gt;Node19 -->
<g id="edge33" class="edge">
<title>Node18&#45;&gt;Node19</title>
<path fill="none" stroke="midnightblue" d="M824.7,-164.77C851,-154.63 887.72,-140.47 910.92,-131.52"/>
<polygon fill="midnightblue" stroke="midnightblue" points="823.25,-161.58 815.18,-168.44 825.77,-168.11 823.25,-161.58"/>
</g>
<!-- Node19&#45;&gt;Node5 -->
<g id="edge34" class="edge">
<title>Node19&#45;&gt;Node5</title>
<path fill="none" stroke="midnightblue" d="M882.49,-110.35C834.11,-100.14 762.05,-84.94 717.37,-75.52"/>
<polygon fill="midnightblue" stroke="midnightblue" points="881.93,-113.8 892.44,-112.44 883.37,-106.95 881.93,-113.8"/>
</g>
<!-- Node19&#45;&gt;Node20 -->
<g id="edge35" class="edge">
<title>Node19&#45;&gt;Node20</title>
<path fill="none" stroke="midnightblue" d="M953.9,-106.34C967.91,-96.52 985.88,-83.91 997.66,-75.65"/>
<polygon fill="midnightblue" stroke="midnightblue" points="951.55,-103.72 945.37,-112.32 955.57,-109.45 951.55,-103.72"/>
</g>
</g>
</svg>
