<?xml version="1.0" encoding="UTF-8" standalone="no"?>
<!DOCTYPE svg PUBLIC "-//W3C//DTD SVG 1.1//EN"
 "http://www.w3.org/Graphics/SVG/1.1/DTD/svg11.dtd">
<!-- Generated by graphviz version 2.43.0 (0)
 -->
<!-- Title: SPOS Pages: 1 -->
<svg width="116pt" height="183pt"
 viewBox="0.00 0.00 116.00 183.00" xmlns="http://www.w3.org/2000/svg" xmlns:xlink="http://www.w3.org/1999/xlink">
<g id="graph0" class="graph" transform="scale(1 1) rotate(0) translate(4 179)">
<title>SPOS</title>
<polygon fill="white" stroke="transparent" points="-4,4 -4,-179 112,-179 112,4 -4,4"/>
<g id="clust1" class="cluster">
<title>clusterdir_5d498f3dc8e5bb13eac88addae99cf43</title>
<g id="a_clust1"><a xlink:href="dir_5d498f3dc8e5bb13eac88addae99cf43.html" target="_top" xlink:title="SPOS">
<polygon fill="#ddddee" stroke="black" points="8,-8 8,-167 100,-167 100,-8 8,-8"/>
<text text-anchor="middle" x="54" y="-155" font-family="FreeSans" font-size="10.00">SPOS</text>
</a>
</g>
</g>
<g id="clust2" class="cluster">
<title>clusterdir_2c38872156a09129078e9be5a99a7ad7</title>
<g id="a_clust2"><a xlink:href="dir_2c38872156a09129078e9be5a99a7ad7.html" target="_top">
<polygon fill="#eeeeff" stroke="black" points="16,-16 16,-140 92,-140 92,-16 16,-16"/>
</a>
</g>
</g>
<!-- dir_2c38872156a09129078e9be5a99a7ad7 -->
<g id="node1" class="node">
<title>dir_2c38872156a09129078e9be5a99a7ad7</title>
<text text-anchor="middle" x="54" y="-111.5" font-family="FreeSans" font-size="10.00">SPOS</text>
</g>
<!-- dir_4940ed005f5c919fbf17ea7882f31758 -->
<g id="node2" class="node">
<title>dir_4940ed005f5c919fbf17ea7882f31758</title>
<g id="a_node2"><a xlink:href="dir_4940ed005f5c919fbf17ea7882f31758.html" target="_top" xlink:title="V6_TLCD">
<polygon fill="white" stroke="black" points="84,-60 24,-60 24,-24 84,-24 84,-60"/>
<text text-anchor="middle" x="54" y="-39.5" font-family="FreeSans" font-size="10.00">V6_TLCD</text>
</a>
</g>
</g>
<!-- dir_2c38872156a09129078e9be5a99a7ad7&#45;&gt;dir_4940ed005f5c919fbf17ea7882f31758 -->
<g id="edge1" class="edge">
<title>dir_2c38872156a09129078e9be5a99a7ad7&#45;&gt;dir_4940ed005f5c919fbf17ea7882f31758</title>
<path fill="none" stroke="black" d="M54,-95.7C54,-87.98 54,-78.71 54,-70.11"/>
<polygon fill="black" stroke="black" points="57.5,-70.1 54,-60.1 50.5,-70.1 57.5,-70.1"/>
<g id="a_edge1&#45;headlabel"><a xlink:href="dir_000003_000004.html" target="_top" xlink:title="3">
<text text-anchor="middle" x="60.34" y="-71.2" font-family="FreeSans" font-size="10.00">3</text>
</a>
</g>
</g>
</g>
</svg>
