<?xml version="1.0" encoding="UTF-8" standalone="no"?>
<!DOCTYPE svg PUBLIC "-//W3C//DTD SVG 1.1//EN"
 "http://www.w3.org/Graphics/SVG/1.1/DTD/svg11.dtd">
<!-- Generated by graphviz version 2.43.0 (0)
 -->
<!-- Title: lcd_drawBar Pages: 1 -->
<svg width="484pt" height="66pt"
 viewBox="0.00 0.00 484.00 66.00" xmlns="http://www.w3.org/2000/svg" xmlns:xlink="http://www.w3.org/1999/xlink">
<g id="graph0" class="graph" transform="scale(1 1) rotate(0) translate(4 62)">
<title>lcd_drawBar</title>
<polygon fill="white" stroke="transparent" points="-4,4 -4,-62 480,-62 480,4 -4,4"/>
<!-- Node1 -->
<g id="node1" class="node">
<title>Node1</title>
<g id="a_node1"><a xlink:title="Write a draw bar.">
<polygon fill="#bfbfbf" stroke="black" points="0,-19.5 0,-38.5 77,-38.5 77,-19.5 0,-19.5"/>
<text text-anchor="middle" x="38.5" y="-26.5" font-family="FreeSans" font-size="10.00">lcd_drawBar</text>
</a>
</g>
</g>
<!-- Node2 -->
<g id="node2" class="node">
<title>Node2</title>
<g id="a_node2"><a xlink:href="lcd_8c.html#ad235a86241458b1e7b8771688bfdaf9a" target="_top" xlink:title="Clear all data from display.">
<polygon fill="white" stroke="black" points="138.5,-38.5 138.5,-57.5 198.5,-57.5 198.5,-38.5 138.5,-38.5"/>
<text text-anchor="middle" x="168.5" y="-45.5" font-family="FreeSans" font-size="10.00">lcd_clear</text>
</a>
</g>
</g>
<!-- Node1&#45;&gt;Node2 -->
<g id="edge1" class="edge">
<title>Node1&#45;&gt;Node2</title>
<path fill="none" stroke="midnightblue" d="M77.21,-34.6C93.18,-36.97 111.8,-39.73 127.96,-42.13"/>
<polygon fill="midnightblue" stroke="midnightblue" points="127.77,-45.64 138.17,-43.65 128.8,-38.72 127.77,-45.64"/>
</g>
<!-- Node5 -->
<g id="node5" class="node">
<title>Node5</title>
<g id="a_node5"><a xlink:href="lcd_8c.html#a59cbc4640fd74a5321a52c0b574e864a" target="_top" xlink:title="Write char PROGMEM* string.">
<polygon fill="white" stroke="black" points="113,-0.5 113,-19.5 224,-19.5 224,-0.5 113,-0.5"/>
<text text-anchor="middle" x="168.5" y="-7.5" font-family="FreeSans" font-size="10.00">lcd_writeProgString</text>
</a>
</g>
</g>
<!-- Node1&#45;&gt;Node5 -->
<g id="edge4" class="edge">
<title>Node1&#45;&gt;Node5</title>
<path fill="none" stroke="midnightblue" d="M77.21,-23.4C85.36,-22.19 94.19,-20.88 103.03,-19.57"/>
<polygon fill="midnightblue" stroke="midnightblue" points="103.61,-23.02 112.98,-18.09 102.58,-16.1 103.61,-23.02"/>
</g>
<!-- Node3 -->
<g id="node3" class="node">
<title>Node3</title>
<g id="a_node3"><a xlink:href="lcd_8c.html#acb116d89c358367b8fd1164120d320e3" target="_top" xlink:title="Send command to LCD.">
<polygon fill="white" stroke="black" points="260,-38.5 260,-57.5 345,-57.5 345,-38.5 260,-38.5"/>
<text text-anchor="middle" x="302.5" y="-45.5" font-family="FreeSans" font-size="10.00">lcd_command</text>
</a>
</g>
</g>
<!-- Node2&#45;&gt;Node3 -->
<g id="edge2" class="edge">
<title>Node2&#45;&gt;Node3</title>
<path fill="none" stroke="midnightblue" d="M198.8,-48C213.64,-48 232.12,-48 249.29,-48"/>
<polygon fill="midnightblue" stroke="midnightblue" points="249.77,-51.5 259.77,-48 249.77,-44.5 249.77,-51.5"/>
</g>
<!-- Node4 -->
<g id="node4" class="node">
<title>Node4</title>
<g id="a_node4"><a xlink:href="lcd_8c.html#a26a89cb41bb1496462fda420cbe79a07" target="_top" xlink:title=" ">
<polygon fill="white" stroke="black" points="381,-38.5 381,-57.5 476,-57.5 476,-38.5 381,-38.5"/>
<text text-anchor="middle" x="428.5" y="-45.5" font-family="FreeSans" font-size="10.00">lcd_sendStream</text>
</a>
</g>
</g>
<!-- Node3&#45;&gt;Node4 -->
<g id="edge3" class="edge">
<title>Node3&#45;&gt;Node4</title>
<path fill="none" stroke="midnightblue" d="M345.14,-48C353.24,-48 361.86,-48 370.37,-48"/>
<polygon fill="midnightblue" stroke="midnightblue" points="370.63,-51.5 380.63,-48 370.63,-44.5 370.63,-51.5"/>
</g>
<!-- Node6 -->
<g id="node6" class="node">
<title>Node6</title>
<g id="a_node6"><a xlink:href="lcd_8c.html#a93cd5600fa3b27381a4cf57d21f27ebf" target="_top" xlink:title="Write one character.">
<polygon fill="white" stroke="black" points="261,-0.5 261,-19.5 344,-19.5 344,-0.5 261,-0.5"/>
<text text-anchor="middle" x="302.5" y="-7.5" font-family="FreeSans" font-size="10.00">lcd_writeChar</text>
</a>
</g>
</g>
<!-- Node5&#45;&gt;Node6 -->
<g id="edge5" class="edge">
<title>Node5&#45;&gt;Node6</title>
<path fill="none" stroke="midnightblue" d="M224.33,-10C232.99,-10 241.92,-10 250.49,-10"/>
<polygon fill="midnightblue" stroke="midnightblue" points="250.73,-13.5 260.73,-10 250.73,-6.5 250.73,-13.5"/>
</g>
</g>
</svg>
