<?xml version="1.0" encoding="UTF-8" standalone="no"?>
<!DOCTYPE svg PUBLIC "-//W3C//DTD SVG 1.1//EN"
 "http://www.w3.org/Graphics/SVG/1.1/DTD/svg11.dtd">
<!-- Generated by graphviz version 2.43.0 (0)
 -->
<!-- Title: lcd_erase Pages: 1 -->
<svg width="442pt" height="66pt"
 viewBox="0.00 0.00 442.00 66.00" xmlns="http://www.w3.org/2000/svg" xmlns:xlink="http://www.w3.org/1999/xlink">
<g id="graph0" class="graph" transform="scale(1 1) rotate(0) translate(4 62)">
<title>lcd_erase</title>
<polygon fill="white" stroke="transparent" points="-4,4 -4,-62 438,-62 438,4 -4,4"/>
<!-- Node1 -->
<g id="node1" class="node">
<title>Node1</title>
<g id="a_node1"><a xlink:title="Erases one line.">
<polygon fill="#bfbfbf" stroke="black" points="0,-19.5 0,-38.5 63,-38.5 63,-19.5 0,-19.5"/>
<text text-anchor="middle" x="31.5" y="-26.5" font-family="FreeSans" font-size="10.00">lcd_erase</text>
</a>
</g>
</g>
<!-- Node2 -->
<g id="node2" class="node">
<title>Node2</title>
<g id="a_node2"><a xlink:href="lcd_8c.html#a338e21c2a6ba1044313b26bf868e13b2" target="_top" xlink:title="Next output will be written at (row, column)">
<polygon fill="white" stroke="black" points="111.5,-38.5 111.5,-57.5 169.5,-57.5 169.5,-38.5 111.5,-38.5"/>
<text text-anchor="middle" x="140.5" y="-45.5" font-family="FreeSans" font-size="10.00">lcd_goto</text>
</a>
</g>
</g>
<!-- Node1&#45;&gt;Node2 -->
<g id="edge1" class="edge">
<title>Node1&#45;&gt;Node2</title>
<path fill="none" stroke="midnightblue" d="M63.16,-34.44C75.03,-36.55 88.74,-38.99 101.25,-41.21"/>
<polygon fill="midnightblue" stroke="midnightblue" points="100.94,-44.71 111.4,-43.01 102.16,-37.82 100.94,-44.71"/>
</g>
<!-- Node5 -->
<g id="node5" class="node">
<title>Node5</title>
<g id="a_node5"><a xlink:href="lcd_8c.html#a93cd5600fa3b27381a4cf57d21f27ebf" target="_top" xlink:title="Write one character.">
<polygon fill="white" stroke="black" points="99,-0.5 99,-19.5 182,-19.5 182,-0.5 99,-0.5"/>
<text text-anchor="middle" x="140.5" y="-7.5" font-family="FreeSans" font-size="10.00">lcd_writeChar</text>
</a>
</g>
</g>
<!-- Node1&#45;&gt;Node5 -->
<g id="edge4" class="edge">
<title>Node1&#45;&gt;Node5</title>
<path fill="none" stroke="midnightblue" d="M63.16,-23.56C71.24,-22.12 80.17,-20.54 88.99,-18.97"/>
<polygon fill="midnightblue" stroke="midnightblue" points="89.62,-22.41 98.85,-17.22 88.4,-15.52 89.62,-22.41"/>
</g>
<!-- Node3 -->
<g id="node3" class="node">
<title>Node3</title>
<g id="a_node3"><a xlink:href="lcd_8c.html#acb116d89c358367b8fd1164120d320e3" target="_top" xlink:title="Send command to LCD.">
<polygon fill="white" stroke="black" points="218,-38.5 218,-57.5 303,-57.5 303,-38.5 218,-38.5"/>
<text text-anchor="middle" x="260.5" y="-45.5" font-family="FreeSans" font-size="10.00">lcd_command</text>
</a>
</g>
</g>
<!-- Node2&#45;&gt;Node3 -->
<g id="edge2" class="edge">
<title>Node2&#45;&gt;Node3</title>
<path fill="none" stroke="midnightblue" d="M169.76,-48C181.06,-48 194.45,-48 207.38,-48"/>
<polygon fill="midnightblue" stroke="midnightblue" points="207.61,-51.5 217.61,-48 207.61,-44.5 207.61,-51.5"/>
</g>
<!-- Node4 -->
<g id="node4" class="node">
<title>Node4</title>
<g id="a_node4"><a xlink:href="lcd_8c.html#a26a89cb41bb1496462fda420cbe79a07" target="_top" xlink:title=" ">
<polygon fill="white" stroke="black" points="339,-38.5 339,-57.5 434,-57.5 434,-38.5 339,-38.5"/>
<text text-anchor="middle" x="386.5" y="-45.5" font-family="FreeSans" font-size="10.00">lcd_sendStream</text>
</a>
</g>
</g>
<!-- Node3&#45;&gt;Node4 -->
<g id="edge3" class="edge">
<title>Node3&#45;&gt;Node4</title>
<path fill="none" stroke="midnightblue" d="M303.14,-48C311.24,-48 319.86,-48 328.37,-48"/>
<polygon fill="midnightblue" stroke="midnightblue" points="328.63,-51.5 338.63,-48 328.63,-44.5 328.63,-51.5"/>
</g>
</g>
</svg>
