<?xml version="1.0" encoding="UTF-8" standalone="no"?>
<!DOCTYPE svg PUBLIC "-//W3C//DTD SVG 1.1//EN"
 "http://www.w3.org/Graphics/SVG/1.1/DTD/svg11.dtd">
<!-- Generated by graphviz version 2.43.0 (0)
 -->
<!-- Title: lcd_write32bitHex Pages: 1 -->
<svg width="660pt" height="83pt"
 viewBox="0.00 0.00 660.00 83.45" xmlns="http://www.w3.org/2000/svg" xmlns:xlink="http://www.w3.org/1999/xlink">
<g id="graph0" class="graph" transform="scale(1 1) rotate(0) translate(4 79.45)">
<title>lcd_write32bitHex</title>
<polygon fill="white" stroke="transparent" points="-4,4 -4,-79.45 656,-79.45 656,4 -4,4"/>
<!-- Node1 -->
<g id="node1" class="node">
<title>Node1</title>
<g id="a_node1"><a xlink:title="Write a 32 bit number.">
<polygon fill="#bfbfbf" stroke="black" points="0,-38.5 0,-57.5 105,-57.5 105,-38.5 0,-38.5"/>
<text text-anchor="middle" x="52.5" y="-45.5" font-family="FreeSans" font-size="10.00">lcd_write32bitHex</text>
</a>
</g>
</g>
<!-- Node2 -->
<g id="node2" class="node">
<title>Node2</title>
<g id="a_node2"><a xlink:href="lcd_8c.html#a93cd5600fa3b27381a4cf57d21f27ebf" target="_top" xlink:title="Write one character.">
<polygon fill="white" stroke="black" points="569,-38.5 569,-57.5 652,-57.5 652,-38.5 569,-38.5"/>
<text text-anchor="middle" x="610.5" y="-45.5" font-family="FreeSans" font-size="10.00">lcd_writeChar</text>
</a>
</g>
</g>
<!-- Node1&#45;&gt;Node2 -->
<g id="edge1" class="edge">
<title>Node1&#45;&gt;Node2</title>
<path fill="none" stroke="midnightblue" d="M105.18,-57.35C116.92,-59.17 129.36,-60.87 141,-62 314.4,-78.88 359.78,-80.67 533,-62 541.39,-61.1 550.25,-59.8 558.85,-58.35"/>
<polygon fill="midnightblue" stroke="midnightblue" points="559.53,-61.79 568.77,-56.6 558.31,-54.89 559.53,-61.79"/>
</g>
<!-- Node3 -->
<g id="node3" class="node">
<title>Node3</title>
<g id="a_node3"><a xlink:href="lcd_8c.html#a1415b995427583a289b6089b5e4785e5" target="_top" xlink:title="Write a byte as a decimal number without prefixes.">
<polygon fill="white" stroke="black" points="293.5,-38.5 293.5,-57.5 373.5,-57.5 373.5,-38.5 293.5,-38.5"/>
<text text-anchor="middle" x="333.5" y="-45.5" font-family="FreeSans" font-size="10.00">lcd_writeDec</text>
</a>
</g>
</g>
<!-- Node1&#45;&gt;Node3 -->
<g id="edge2" class="edge">
<title>Node1&#45;&gt;Node3</title>
<path fill="none" stroke="midnightblue" d="M105.32,-48C156.08,-48 232.88,-48 282.87,-48"/>
<polygon fill="midnightblue" stroke="midnightblue" points="283.11,-51.5 293.11,-48 283.11,-44.5 283.11,-51.5"/>
</g>
<!-- Node4 -->
<g id="node4" class="node">
<title>Node4</title>
<g id="a_node4"><a xlink:href="lcd_8c.html#a5e1c53d859a7570ae0f9b649cd89617d" target="_top" xlink:title="Write one hexadecimal word.">
<polygon fill="white" stroke="black" points="141,-0.5 141,-19.5 246,-19.5 246,-0.5 141,-0.5"/>
<text text-anchor="middle" x="193.5" y="-7.5" font-family="FreeSans" font-size="10.00">lcd_writeHexWord</text>
</a>
</g>
</g>
<!-- Node1&#45;&gt;Node4 -->
<g id="edge4" class="edge">
<title>Node1&#45;&gt;Node4</title>
<path fill="none" stroke="midnightblue" d="M88.58,-38.41C106.52,-33.51 128.56,-27.48 147.72,-22.24"/>
<polygon fill="midnightblue" stroke="midnightblue" points="148.71,-25.6 157.44,-19.59 146.87,-18.85 148.71,-25.6"/>
</g>
<!-- Node3&#45;&gt;Node2 -->
<g id="edge3" class="edge">
<title>Node3&#45;&gt;Node2</title>
<path fill="none" stroke="midnightblue" d="M373.61,-48C422.13,-48 504.97,-48 558.45,-48"/>
<polygon fill="midnightblue" stroke="midnightblue" points="558.73,-51.5 568.73,-48 558.73,-44.5 558.73,-51.5"/>
</g>
<!-- Node5 -->
<g id="node5" class="node">
<title>Node5</title>
<g id="a_node5"><a xlink:href="lcd_8c.html#ac474e7328f850a8b9af9de57df93e2f3" target="_top" xlink:title="Write one hexadecimal byte.">
<polygon fill="white" stroke="black" points="282,-0.5 282,-19.5 385,-19.5 385,-0.5 282,-0.5"/>
<text text-anchor="middle" x="333.5" y="-7.5" font-family="FreeSans" font-size="10.00">lcd_writeHexByte</text>
</a>
</g>
</g>
<!-- Node4&#45;&gt;Node5 -->
<g id="edge5" class="edge">
<title>Node4&#45;&gt;Node5</title>
<path fill="none" stroke="midnightblue" d="M246.28,-10C254.54,-10 263.16,-10 271.61,-10"/>
<polygon fill="midnightblue" stroke="midnightblue" points="271.81,-13.5 281.81,-10 271.81,-6.5 271.81,-13.5"/>
</g>
<!-- Node6 -->
<g id="node6" class="node">
<title>Node6</title>
<g id="a_node6"><a xlink:href="lcd_8c.html#a01b53b89b0c268d2324d86f3fe33405d" target="_top" xlink:title="Write a half&#45;byte (a nibble)">
<polygon fill="white" stroke="black" points="421,-0.5 421,-19.5 533,-19.5 533,-0.5 421,-0.5"/>
<text text-anchor="middle" x="477" y="-7.5" font-family="FreeSans" font-size="10.00">lcd_writeHexNibble</text>
</a>
</g>
</g>
<!-- Node5&#45;&gt;Node6 -->
<g id="edge6" class="edge">
<title>Node5&#45;&gt;Node6</title>
<path fill="none" stroke="midnightblue" d="M385.19,-10C393.51,-10 402.23,-10 410.85,-10"/>
<polygon fill="midnightblue" stroke="midnightblue" points="410.88,-13.5 420.88,-10 410.88,-6.5 410.88,-13.5"/>
</g>
<!-- Node6&#45;&gt;Node2 -->
<g id="edge7" class="edge">
<title>Node6&#45;&gt;Node2</title>
<path fill="none" stroke="midnightblue" d="M511.18,-19.59C528,-24.45 548.63,-30.41 566.63,-35.61"/>
<polygon fill="midnightblue" stroke="midnightblue" points="565.75,-39 576.33,-38.41 567.69,-32.28 565.75,-39"/>
</g>
</g>
</svg>
