<?xml version="1.0" encoding="UTF-8" standalone="no"?>
<!DOCTYPE svg PUBLIC "-//W3C//DTD SVG 1.1//EN"
 "http://www.w3.org/Graphics/SVG/1.1/DTD/svg11.dtd">
<!-- Generated by graphviz version 2.43.0 (0)
 -->
<!-- Title: os_memory_strategies.c Pages: 1 -->
<svg width="423pt" height="364pt"
 viewBox="0.00 0.00 422.50 364.00" xmlns="http://www.w3.org/2000/svg" xmlns:xlink="http://www.w3.org/1999/xlink">
<g id="graph0" class="graph" transform="scale(1 1) rotate(0) translate(4 360)">
<title>os_memory_strategies.c</title>
<polygon fill="white" stroke="transparent" points="-4,4 -4,-360 418.5,-360 418.5,4 -4,4"/>
<!-- Node1 -->
<g id="node1" class="node">
<title>Node1</title>
<g id="a_node1"><a xlink:title=" ">
<polygon fill="#bfbfbf" stroke="black" points="198.5,-336.5 198.5,-355.5 335.5,-355.5 335.5,-336.5 198.5,-336.5"/>
<text text-anchor="middle" x="267" y="-343.5" font-family="FreeSans" font-size="10.00">os_memory_strategies.c</text>
</a>
</g>
</g>
<!-- Node2 -->
<g id="node2" class="node">
<title>Node2</title>
<g id="a_node2"><a xlink:href="os__memory__strategies_8h.html" target="_top" xlink:title="Memory allocation library for the OS.">
<polygon fill="white" stroke="black" points="262.5,-280.5 262.5,-299.5 399.5,-299.5 399.5,-280.5 262.5,-280.5"/>
<text text-anchor="middle" x="331" y="-287.5" font-family="FreeSans" font-size="10.00">os_memory_strategies.h</text>
</a>
</g>
</g>
<!-- Node1&#45;&gt;Node2 -->
<g id="edge1" class="edge">
<title>Node1&#45;&gt;Node2</title>
<path fill="none" stroke="midnightblue" d="M277.28,-336.32C286.84,-328.26 301.28,-316.08 312.78,-306.37"/>
<polygon fill="midnightblue" stroke="midnightblue" points="315.14,-308.96 320.53,-299.83 310.63,-303.61 315.14,-308.96"/>
</g>
<!-- Node10 -->
<g id="node10" class="node">
<title>Node10</title>
<g id="a_node10"><a xlink:href="os__memory_8h.html" target="_top" xlink:title="Library for OS memory management.">
<polygon fill="white" stroke="black" points="162,-280.5 162,-299.5 244,-299.5 244,-280.5 162,-280.5"/>
<text text-anchor="middle" x="203" y="-287.5" font-family="FreeSans" font-size="10.00">os_memory.h</text>
</a>
</g>
</g>
<!-- Node1&#45;&gt;Node10 -->
<g id="edge10" class="edge">
<title>Node1&#45;&gt;Node10</title>
<path fill="none" stroke="midnightblue" d="M256.72,-336.32C247.16,-328.26 232.72,-316.08 221.22,-306.37"/>
<polygon fill="midnightblue" stroke="midnightblue" points="223.37,-303.61 213.47,-299.83 218.86,-308.96 223.37,-303.61"/>
</g>
<!-- Node3 -->
<g id="node3" class="node">
<title>Node3</title>
<g id="a_node3"><a xlink:href="os__memheap__drivers_8h.html" target="_top" xlink:title="Drivers for OS heap management.">
<polygon fill="white" stroke="black" points="201.5,-224.5 201.5,-243.5 332.5,-243.5 332.5,-224.5 201.5,-224.5"/>
<text text-anchor="middle" x="267" y="-231.5" font-family="FreeSans" font-size="10.00">os_memheap_drivers.h</text>
</a>
</g>
</g>
<!-- Node2&#45;&gt;Node3 -->
<g id="edge2" class="edge">
<title>Node2&#45;&gt;Node3</title>
<path fill="none" stroke="midnightblue" d="M320.72,-280.32C311.16,-272.26 296.72,-260.08 285.22,-250.37"/>
<polygon fill="midnightblue" stroke="midnightblue" points="287.37,-247.61 277.47,-243.83 282.86,-252.96 287.37,-247.61"/>
</g>
<!-- Node4 -->
<g id="node4" class="node">
<title>Node4</title>
<g id="a_node4"><a xlink:href="os__mem__drivers_8h.html" target="_top" xlink:title="Drivers for OS memory management.">
<polygon fill="white" stroke="black" points="307.5,-168.5 307.5,-187.5 414.5,-187.5 414.5,-168.5 307.5,-168.5"/>
<text text-anchor="middle" x="361" y="-175.5" font-family="FreeSans" font-size="10.00">os_mem_drivers.h</text>
</a>
</g>
</g>
<!-- Node3&#45;&gt;Node4 -->
<g id="edge3" class="edge">
<title>Node3&#45;&gt;Node4</title>
<path fill="none" stroke="midnightblue" d="M282.1,-224.32C296.9,-215.82 319.69,-202.73 336.98,-192.8"/>
<polygon fill="midnightblue" stroke="midnightblue" points="339.01,-195.67 345.93,-187.65 335.52,-189.6 339.01,-195.67"/>
</g>
<!-- Node6 -->
<g id="node6" class="node">
<title>Node6</title>
<g id="a_node6"><a xlink:href="defines_8h.html" target="_top" xlink:title="Simple definitions and assembler&#45;macros, mostly 8/16&#45;Bit values.">
<polygon fill="white" stroke="black" points="248.5,-112.5 248.5,-131.5 309.5,-131.5 309.5,-112.5 248.5,-112.5"/>
<text text-anchor="middle" x="279" y="-119.5" font-family="FreeSans" font-size="10.00">defines.h</text>
</a>
</g>
</g>
<!-- Node3&#45;&gt;Node6 -->
<g id="edge8" class="edge">
<title>Node3&#45;&gt;Node6</title>
<path fill="none" stroke="midnightblue" d="M267.94,-224.37C269.88,-206.62 274.35,-165.67 276.97,-141.6"/>
<polygon fill="midnightblue" stroke="midnightblue" points="280.46,-141.91 278.06,-131.59 273.5,-141.15 280.46,-141.91"/>
</g>
<!-- Node9 -->
<g id="node9" class="node">
<title>Node9</title>
<g id="a_node9"><a xlink:title=" ">
<polygon fill="white" stroke="#bfbfbf" points="195,-168.5 195,-187.5 251,-187.5 251,-168.5 195,-168.5"/>
<text text-anchor="middle" x="223" y="-175.5" font-family="FreeSans" font-size="10.00">stddef.h</text>
</a>
</g>
</g>
<!-- Node3&#45;&gt;Node9 -->
<g id="edge9" class="edge">
<title>Node3&#45;&gt;Node9</title>
<path fill="none" stroke="midnightblue" d="M259.73,-224.08C253.46,-216.38 244.21,-205.03 236.57,-195.65"/>
<polygon fill="midnightblue" stroke="midnightblue" points="239.16,-193.29 230.13,-187.75 233.73,-197.71 239.16,-193.29"/>
</g>
<!-- Node5 -->
<g id="node5" class="node">
<title>Node5</title>
<g id="a_node5"><a xlink:title=" ">
<polygon fill="white" stroke="#bfbfbf" points="328.5,-112.5 328.5,-131.5 393.5,-131.5 393.5,-112.5 328.5,-112.5"/>
<text text-anchor="middle" x="361" y="-119.5" font-family="FreeSans" font-size="10.00">inttypes.h</text>
</a>
</g>
</g>
<!-- Node4&#45;&gt;Node5 -->
<g id="edge4" class="edge">
<title>Node4&#45;&gt;Node5</title>
<path fill="none" stroke="midnightblue" d="M361,-168.08C361,-161.01 361,-150.86 361,-141.99"/>
<polygon fill="midnightblue" stroke="midnightblue" points="364.5,-141.75 361,-131.75 357.5,-141.75 364.5,-141.75"/>
</g>
<!-- Node4&#45;&gt;Node6 -->
<g id="edge5" class="edge">
<title>Node4&#45;&gt;Node6</title>
<path fill="none" stroke="midnightblue" d="M347.83,-168.32C335.15,-159.98 315.77,-147.21 300.79,-137.35"/>
<polygon fill="midnightblue" stroke="midnightblue" points="302.42,-134.23 292.14,-131.65 298.57,-140.08 302.42,-134.23"/>
</g>
<!-- Node7 -->
<g id="node7" class="node">
<title>Node7</title>
<g id="a_node7"><a xlink:href="atmega644constants_8h.html" target="_top" xlink:title="Constants for ATMega644 and EVA board. Defines several useful constants for the ATMega644.">
<polygon fill="white" stroke="black" points="215,-56.5 215,-75.5 343,-75.5 343,-56.5 215,-56.5"/>
<text text-anchor="middle" x="279" y="-63.5" font-family="FreeSans" font-size="10.00">atmega644constants.h</text>
</a>
</g>
</g>
<!-- Node6&#45;&gt;Node7 -->
<g id="edge6" class="edge">
<title>Node6&#45;&gt;Node7</title>
<path fill="none" stroke="midnightblue" d="M279,-112.08C279,-105.01 279,-94.86 279,-85.99"/>
<polygon fill="midnightblue" stroke="midnightblue" points="282.5,-85.75 279,-75.75 275.5,-85.75 282.5,-85.75"/>
</g>
<!-- Node8 -->
<g id="node8" class="node">
<title>Node8</title>
<g id="a_node8"><a xlink:title=" ">
<polygon fill="white" stroke="#bfbfbf" points="252.5,-0.5 252.5,-19.5 305.5,-19.5 305.5,-0.5 252.5,-0.5"/>
<text text-anchor="middle" x="279" y="-7.5" font-family="FreeSans" font-size="10.00">avr/io.h</text>
</a>
</g>
</g>
<!-- Node7&#45;&gt;Node8 -->
<g id="edge7" class="edge">
<title>Node7&#45;&gt;Node8</title>
<path fill="none" stroke="midnightblue" d="M279,-56.08C279,-49.01 279,-38.86 279,-29.99"/>
<polygon fill="midnightblue" stroke="midnightblue" points="282.5,-29.75 279,-19.75 275.5,-29.75 282.5,-29.75"/>
</g>
<!-- Node10&#45;&gt;Node3 -->
<g id="edge12" class="edge">
<title>Node10&#45;&gt;Node3</title>
<path fill="none" stroke="midnightblue" d="M213.28,-280.32C222.84,-272.26 237.28,-260.08 248.78,-250.37"/>
<polygon fill="midnightblue" stroke="midnightblue" points="251.14,-252.96 256.53,-243.83 246.63,-247.61 251.14,-252.96"/>
</g>
<!-- Node10&#45;&gt;Node4 -->
<g id="edge11" class="edge">
<title>Node10&#45;&gt;Node4</title>
<path fill="none" stroke="midnightblue" d="M243.06,-280.42C278.99,-271.97 328.12,-258.28 342,-244 353.9,-231.76 358.41,-212.49 360.09,-198.11"/>
<polygon fill="midnightblue" stroke="midnightblue" points="363.6,-198.1 360.91,-187.85 356.62,-197.54 363.6,-198.1"/>
</g>
<!-- Node11 -->
<g id="node11" class="node">
<title>Node11</title>
<g id="a_node11"><a xlink:href="os__scheduler_8h.html" target="_top" xlink:title="Scheduling module for the OS.">
<polygon fill="white" stroke="black" points="74.5,-224.5 74.5,-243.5 163.5,-243.5 163.5,-224.5 74.5,-224.5"/>
<text text-anchor="middle" x="119" y="-231.5" font-family="FreeSans" font-size="10.00">os_scheduler.h</text>
</a>
</g>
</g>
<!-- Node10&#45;&gt;Node11 -->
<g id="edge13" class="edge">
<title>Node10&#45;&gt;Node11</title>
<path fill="none" stroke="midnightblue" d="M189.5,-280.32C176.4,-271.9 156.29,-258.97 140.89,-249.07"/>
<polygon fill="midnightblue" stroke="midnightblue" points="142.77,-246.12 132.46,-243.65 138.98,-252.01 142.77,-246.12"/>
</g>
<!-- Node11&#45;&gt;Node6 -->
<g id="edge15" class="edge">
<title>Node11&#45;&gt;Node6</title>
<path fill="none" stroke="midnightblue" d="M126.5,-224.08C138.16,-210.63 161.83,-184.91 186,-168 205.02,-154.69 228.59,-143.34 247.23,-135.36"/>
<polygon fill="midnightblue" stroke="midnightblue" points="248.6,-138.58 256.49,-131.51 245.91,-132.12 248.6,-138.58"/>
</g>
<!-- Node12 -->
<g id="node12" class="node">
<title>Node12</title>
<g id="a_node12"><a xlink:title=" ">
<polygon fill="white" stroke="#bfbfbf" points="0,-112.5 0,-131.5 62,-131.5 62,-112.5 0,-112.5"/>
<text text-anchor="middle" x="31" y="-119.5" font-family="FreeSans" font-size="10.00">stdbool.h</text>
</a>
</g>
</g>
<!-- Node11&#45;&gt;Node12 -->
<g id="edge14" class="edge">
<title>Node11&#45;&gt;Node12</title>
<path fill="none" stroke="midnightblue" d="M98.3,-224.35C82.86,-216.88 62.36,-204.65 50,-188 40.03,-174.58 35.28,-156.01 33.02,-142.16"/>
<polygon fill="midnightblue" stroke="midnightblue" points="36.43,-141.3 31.65,-131.85 29.5,-142.22 36.43,-141.3"/>
</g>
<!-- Node13 -->
<g id="node13" class="node">
<title>Node13</title>
<g id="a_node13"><a xlink:href="os__process_8h.html" target="_top" xlink:title="Struct specifying a process.">
<polygon fill="white" stroke="black" points="59,-168.5 59,-187.5 139,-187.5 139,-168.5 59,-168.5"/>
<text text-anchor="middle" x="99" y="-175.5" font-family="FreeSans" font-size="10.00">os_process.h</text>
</a>
</g>
</g>
<!-- Node11&#45;&gt;Node13 -->
<g id="edge16" class="edge">
<title>Node11&#45;&gt;Node13</title>
<path fill="none" stroke="midnightblue" d="M115.7,-224.08C113.02,-216.85 109.15,-206.41 105.81,-197.4"/>
<polygon fill="midnightblue" stroke="midnightblue" points="109,-195.91 102.24,-187.75 102.43,-198.34 109,-195.91"/>
</g>
<!-- Node13&#45;&gt;Node12 -->
<g id="edge18" class="edge">
<title>Node13&#45;&gt;Node12</title>
<path fill="none" stroke="midnightblue" d="M88.07,-168.32C77.83,-160.18 62.28,-147.84 50,-138.09"/>
<polygon fill="midnightblue" stroke="midnightblue" points="52.13,-135.31 42.12,-131.83 47.78,-140.79 52.13,-135.31"/>
</g>
<!-- Node14 -->
<g id="node14" class="node">
<title>Node14</title>
<g id="a_node14"><a xlink:title=" ">
<polygon fill="white" stroke="#bfbfbf" points="80.5,-112.5 80.5,-131.5 133.5,-131.5 133.5,-112.5 80.5,-112.5"/>
<text text-anchor="middle" x="107" y="-119.5" font-family="FreeSans" font-size="10.00">stdint.h</text>
</a>
</g>
</g>
<!-- Node13&#45;&gt;Node14 -->
<g id="edge17" class="edge">
<title>Node13&#45;&gt;Node14</title>
<path fill="none" stroke="midnightblue" d="M100.32,-168.08C101.38,-160.93 102.91,-150.64 104.23,-141.69"/>
<polygon fill="midnightblue" stroke="midnightblue" points="107.7,-142.16 105.7,-131.75 100.78,-141.13 107.7,-142.16"/>
</g>
</g>
</svg>
