<?xml version="1.0" encoding="UTF-8" standalone="no"?>
<!DOCTYPE svg PUBLIC "-//W3C//DTD SVG 1.1//EN"
 "http://www.w3.org/Graphics/SVG/1.1/DTD/svg11.dtd">
<!-- Generated by graphviz version 2.43.0 (0)
 -->
<!-- Title: os_memory.h Pages: 1 -->
<svg width="611pt" height="140pt"
 viewBox="0.00 0.00 610.50 140.00" xmlns="http://www.w3.org/2000/svg" xmlns:xlink="http://www.w3.org/1999/xlink">
<g id="graph0" class="graph" transform="scale(1 1) rotate(0) translate(4 136)">
<title>os_memory.h</title>
<polygon fill="white" stroke="transparent" points="-4,4 -4,-136 606.5,-136 606.5,4 -4,4"/>
<!-- Node1 -->
<g id="node1" class="node">
<title>Node1</title>
<g id="a_node1"><a xlink:title="Library for OS memory management.">
<polygon fill="#bfbfbf" stroke="black" points="293.5,-112.5 293.5,-131.5 375.5,-131.5 375.5,-112.5 293.5,-112.5"/>
<text text-anchor="middle" x="334.5" y="-119.5" font-family="FreeSans" font-size="10.00">os_memory.h</text>
</a>
</g>
</g>
<!-- Node2 -->
<g id="node2" class="node">
<title>Node2</title>
<g id="a_node2"><a xlink:href="os__memory_8c.html" target="_top" xlink:title=" ">
<polygon fill="white" stroke="black" points="0,-56.5 0,-75.5 81,-75.5 81,-56.5 0,-56.5"/>
<text text-anchor="middle" x="40.5" y="-63.5" font-family="FreeSans" font-size="10.00">os_memory.c</text>
</a>
</g>
</g>
<!-- Node1&#45;&gt;Node2 -->
<g id="edge1" class="edge">
<title>Node1&#45;&gt;Node2</title>
<path fill="none" stroke="midnightblue" d="M283.37,-111.61C226.04,-101.08 134.2,-84.21 81.41,-74.51"/>
<polygon fill="midnightblue" stroke="midnightblue" points="282.84,-115.07 293.31,-113.43 284.11,-108.19 282.84,-115.07"/>
</g>
<!-- Node3 -->
<g id="node3" class="node">
<title>Node3</title>
<g id="a_node3"><a xlink:href="os__memory__strategies_8c.html" target="_top" xlink:title=" ">
<polygon fill="white" stroke="black" points="99,-56.5 99,-75.5 236,-75.5 236,-56.5 99,-56.5"/>
<text text-anchor="middle" x="167.5" y="-63.5" font-family="FreeSans" font-size="10.00">os_memory_strategies.c</text>
</a>
</g>
</g>
<!-- Node1&#45;&gt;Node3 -->
<g id="edge2" class="edge">
<title>Node1&#45;&gt;Node3</title>
<path fill="none" stroke="midnightblue" d="M298.33,-109.3C266.86,-99.13 222.01,-84.62 193.84,-75.52"/>
<polygon fill="midnightblue" stroke="midnightblue" points="297.45,-112.7 308.04,-112.44 299.6,-106.04 297.45,-112.7"/>
</g>
<!-- Node4 -->
<g id="node4" class="node">
<title>Node4</title>
<g id="a_node4"><a xlink:href="os__scheduler_8c.html" target="_top" xlink:title="Scheduling module for the OS.">
<polygon fill="white" stroke="black" points="254.5,-56.5 254.5,-75.5 342.5,-75.5 342.5,-56.5 254.5,-56.5"/>
<text text-anchor="middle" x="298.5" y="-63.5" font-family="FreeSans" font-size="10.00">os_scheduler.c</text>
</a>
</g>
</g>
<!-- Node1&#45;&gt;Node4 -->
<g id="edge3" class="edge">
<title>Node1&#45;&gt;Node4</title>
<path fill="none" stroke="midnightblue" d="M322.88,-103.57C316.68,-94.27 309.33,-83.25 304.33,-75.75"/>
<polygon fill="midnightblue" stroke="midnightblue" points="320.1,-105.7 328.56,-112.08 325.92,-101.82 320.1,-105.7"/>
</g>
<!-- Node5 -->
<g id="node5" class="node">
<title>Node5</title>
<g id="a_node5"><a xlink:href="os__taskman_8c.html" target="_top" xlink:title=" ">
<polygon fill="white" stroke="black" points="371.5,-0.5 371.5,-19.5 455.5,-19.5 455.5,-0.5 371.5,-0.5"/>
<text text-anchor="middle" x="413.5" y="-7.5" font-family="FreeSans" font-size="10.00">os_taskman.c</text>
</a>
</g>
</g>
<!-- Node1&#45;&gt;Node5 -->
<g id="edge4" class="edge">
<title>Node1&#45;&gt;Node5</title>
<path fill="none" stroke="midnightblue" d="M346.74,-103.96C363.86,-80.12 394.32,-37.71 407.33,-19.59"/>
<polygon fill="midnightblue" stroke="midnightblue" points="343.69,-102.2 340.7,-112.37 349.38,-106.29 343.69,-102.2"/>
</g>
<!-- Node6 -->
<g id="node6" class="node">
<title>Node6</title>
<g id="a_node6"><a xlink:href="os__user__privileges_8h.html" target="_top" xlink:title="User privileges specification used in part by the task manager.">
<polygon fill="white" stroke="black" points="398.5,-56.5 398.5,-75.5 514.5,-75.5 514.5,-56.5 398.5,-56.5"/>
<text text-anchor="middle" x="456.5" y="-63.5" font-family="FreeSans" font-size="10.00">os_user_privileges.h</text>
</a>
</g>
</g>
<!-- Node1&#45;&gt;Node6 -->
<g id="edge5" class="edge">
<title>Node1&#45;&gt;Node6</title>
<path fill="none" stroke="midnightblue" d="M363.04,-108.37C385.89,-98.26 417.31,-84.35 437.26,-75.52"/>
<polygon fill="midnightblue" stroke="midnightblue" points="361.56,-105.2 353.83,-112.44 364.39,-111.6 361.56,-105.2"/>
</g>
<!-- Node7 -->
<g id="node7" class="node">
<title>Node7</title>
<g id="a_node7"><a xlink:href="tlcd__core_8h.html" target="_top" xlink:title="Core library for the touchpanel EA EDIPTFT43&#45;ATP.">
<polygon fill="white" stroke="black" points="532.5,-56.5 532.5,-75.5 602.5,-75.5 602.5,-56.5 532.5,-56.5"/>
<text text-anchor="middle" x="567.5" y="-63.5" font-family="FreeSans" font-size="10.00">tlcd_core.h</text>
</a>
</g>
</g>
<!-- Node1&#45;&gt;Node7 -->
<g id="edge7" class="edge">
<title>Node1&#45;&gt;Node7</title>
<path fill="none" stroke="midnightblue" d="M381.42,-110.12C426,-99.79 492.04,-84.49 532.28,-75.16"/>
<polygon fill="midnightblue" stroke="midnightblue" points="380.37,-106.78 371.42,-112.44 381.95,-113.6 380.37,-106.78"/>
</g>
<!-- Node6&#45;&gt;Node5 -->
<g id="edge6" class="edge">
<title>Node6&#45;&gt;Node5</title>
<path fill="none" stroke="midnightblue" d="M443.08,-48.14C435.59,-38.74 426.56,-27.4 420.47,-19.75"/>
<polygon fill="midnightblue" stroke="midnightblue" points="440.43,-50.44 449.4,-56.08 445.91,-46.08 440.43,-50.44"/>
</g>
</g>
</svg>
