<?xml version="1.0" encoding="UTF-8" standalone="no"?>
<!DOCTYPE svg PUBLIC "-//W3C//DTD SVG 1.1//EN"
 "http://www.w3.org/Graphics/SVG/1.1/DTD/svg11.dtd">
<!-- Generated by graphviz version 2.43.0 (0)
 -->
<!-- Title: os_scheduler.h Pages: 1 -->
<svg width="790pt" height="196pt"
 viewBox="0.00 0.00 790.26 196.00" xmlns="http://www.w3.org/2000/svg" xmlns:xlink="http://www.w3.org/1999/xlink">
<g id="graph0" class="graph" transform="scale(1 1) rotate(0) translate(4 192)">
<title>os_scheduler.h</title>
<polygon fill="white" stroke="transparent" points="-4,4 -4,-192 786.26,-192 786.26,4 -4,4"/>
<!-- Node1 -->
<g id="node1" class="node">
<title>Node1</title>
<g id="a_node1"><a xlink:title="Scheduling module for the OS.">
<polygon fill="#bfbfbf" stroke="black" points="445.5,-168.5 445.5,-187.5 534.5,-187.5 534.5,-168.5 445.5,-168.5"/>
<text text-anchor="middle" x="490" y="-175.5" font-family="FreeSans" font-size="10.00">os_scheduler.h</text>
</a>
</g>
</g>
<!-- Node2 -->
<g id="node2" class="node">
<title>Node2</title>
<g id="a_node2"><a xlink:href="os__memory_8h.html" target="_top" xlink:title="Library for OS memory management.">
<polygon fill="white" stroke="black" points="449,-112.5 449,-131.5 531,-131.5 531,-112.5 449,-112.5"/>
<text text-anchor="middle" x="490" y="-119.5" font-family="FreeSans" font-size="10.00">os_memory.h</text>
</a>
</g>
</g>
<!-- Node1&#45;&gt;Node2 -->
<g id="edge1" class="edge">
<title>Node1&#45;&gt;Node2</title>
<path fill="none" stroke="midnightblue" d="M490,-157.8C490,-148.91 490,-138.78 490,-131.75"/>
<polygon fill="midnightblue" stroke="midnightblue" points="486.5,-158.08 490,-168.08 493.5,-158.08 486.5,-158.08"/>
</g>
<!-- Node5 -->
<g id="node5" class="node">
<title>Node5</title>
<g id="a_node5"><a xlink:href="os__scheduler_8c.html" target="_top" xlink:title="Scheduling module for the OS.">
<polygon fill="white" stroke="black" points="166,-56.5 166,-75.5 254,-75.5 254,-56.5 166,-56.5"/>
<text text-anchor="middle" x="210" y="-63.5" font-family="FreeSans" font-size="10.00">os_scheduler.c</text>
</a>
</g>
</g>
<!-- Node1&#45;&gt;Node5 -->
<g id="edge9" class="edge">
<title>Node1&#45;&gt;Node5</title>
<path fill="none" stroke="midnightblue" d="M458.4,-164.59C401.04,-142.05 281.15,-94.95 231.87,-75.59"/>
<polygon fill="midnightblue" stroke="midnightblue" points="457.44,-167.97 468.03,-168.37 460,-161.45 457.44,-167.97"/>
</g>
<!-- Node6 -->
<g id="node6" class="node">
<title>Node6</title>
<g id="a_node6"><a xlink:href="os__taskman_8c.html" target="_top" xlink:title=" ">
<polygon fill="white" stroke="black" points="669,-0.5 669,-19.5 753,-19.5 753,-0.5 669,-0.5"/>
<text text-anchor="middle" x="711" y="-7.5" font-family="FreeSans" font-size="10.00">os_taskman.c</text>
</a>
</g>
</g>
<!-- Node1&#45;&gt;Node6 -->
<g id="edge13" class="edge">
<title>Node1&#45;&gt;Node6</title>
<path fill="none" stroke="midnightblue" d="M544.62,-175.6C612.26,-170.58 725.02,-150.72 778,-76 794.31,-53 757.5,-31.23 732.24,-19.65"/>
<polygon fill="midnightblue" stroke="midnightblue" points="544.32,-172.12 534.57,-176.27 544.78,-179.1 544.32,-172.12"/>
</g>
<!-- Node7 -->
<g id="node7" class="node">
<title>Node7</title>
<g id="a_node7"><a xlink:href="os__user__privileges_8h.html" target="_top" xlink:title="User privileges specification used in part by the task manager.">
<polygon fill="white" stroke="black" points="653,-56.5 653,-75.5 769,-75.5 769,-56.5 653,-56.5"/>
<text text-anchor="middle" x="711" y="-63.5" font-family="FreeSans" font-size="10.00">os_user_privileges.h</text>
</a>
</g>
</g>
<!-- Node1&#45;&gt;Node7 -->
<g id="edge14" class="edge">
<title>Node1&#45;&gt;Node7</title>
<path fill="none" stroke="midnightblue" d="M516.36,-163.88C562.17,-141.08 655.25,-94.75 693.74,-75.59"/>
<polygon fill="midnightblue" stroke="midnightblue" points="514.73,-160.78 507.34,-168.37 517.85,-167.05 514.73,-160.78"/>
</g>
<!-- Node9 -->
<g id="node9" class="node">
<title>Node9</title>
<g id="a_node9"><a xlink:href="os__scheduling__strategies_8h.html" target="_top" xlink:title="Scheduling library for the OS.">
<polygon fill="white" stroke="black" points="135.5,-112.5 135.5,-131.5 284.5,-131.5 284.5,-112.5 135.5,-112.5"/>
<text text-anchor="middle" x="210" y="-119.5" font-family="FreeSans" font-size="10.00">os_scheduling_strategies.h</text>
</a>
</g>
</g>
<!-- Node1&#45;&gt;Node9 -->
<g id="edge10" class="edge">
<title>Node1&#45;&gt;Node9</title>
<path fill="none" stroke="midnightblue" d="M435.75,-166.54C382.83,-156.33 303.33,-141 254.16,-131.52"/>
<polygon fill="midnightblue" stroke="midnightblue" points="435.15,-169.99 445.63,-168.44 436.48,-163.11 435.15,-169.99"/>
</g>
<!-- Node3 -->
<g id="node3" class="node">
<title>Node3</title>
<g id="a_node3"><a xlink:href="os__memory_8c.html" target="_top" xlink:title=" ">
<polygon fill="white" stroke="black" points="272.5,-56.5 272.5,-75.5 353.5,-75.5 353.5,-56.5 272.5,-56.5"/>
<text text-anchor="middle" x="313" y="-63.5" font-family="FreeSans" font-size="10.00">os_memory.c</text>
</a>
</g>
</g>
<!-- Node2&#45;&gt;Node3 -->
<g id="edge2" class="edge">
<title>Node2&#45;&gt;Node3</title>
<path fill="none" stroke="midnightblue" d="M452.1,-109.44C418.72,-99.26 370.9,-84.66 340.91,-75.52"/>
<polygon fill="midnightblue" stroke="midnightblue" points="451.37,-112.87 461.95,-112.44 453.41,-106.18 451.37,-112.87"/>
</g>
<!-- Node4 -->
<g id="node4" class="node">
<title>Node4</title>
<g id="a_node4"><a xlink:href="os__memory__strategies_8c.html" target="_top" xlink:title=" ">
<polygon fill="white" stroke="black" points="371.5,-56.5 371.5,-75.5 508.5,-75.5 508.5,-56.5 371.5,-56.5"/>
<text text-anchor="middle" x="440" y="-63.5" font-family="FreeSans" font-size="10.00">os_memory_strategies.c</text>
</a>
</g>
</g>
<!-- Node2&#45;&gt;Node4 -->
<g id="edge3" class="edge">
<title>Node2&#45;&gt;Node4</title>
<path fill="none" stroke="midnightblue" d="M474.92,-104.72C466.11,-95.2 455.33,-83.56 448.1,-75.75"/>
<polygon fill="midnightblue" stroke="midnightblue" points="472.38,-107.12 481.74,-112.08 477.52,-102.37 472.38,-107.12"/>
</g>
<!-- Node2&#45;&gt;Node5 -->
<g id="edge4" class="edge">
<title>Node2&#45;&gt;Node5</title>
<path fill="none" stroke="midnightblue" d="M439.16,-111.19C386.37,-101.01 304.62,-85.25 254.36,-75.56"/>
<polygon fill="midnightblue" stroke="midnightblue" points="438.5,-114.63 448.99,-113.09 439.83,-107.76 438.5,-114.63"/>
</g>
<!-- Node2&#45;&gt;Node6 -->
<g id="edge5" class="edge">
<title>Node2&#45;&gt;Node6</title>
<path fill="none" stroke="midnightblue" d="M525.43,-109.17C548.78,-100.92 579.78,-89.06 606,-76 641.12,-58.51 679.68,-32.81 698.82,-19.57"/>
<polygon fill="midnightblue" stroke="midnightblue" points="524.22,-105.89 515.93,-112.49 526.52,-112.5 524.22,-105.89"/>
</g>
<!-- Node2&#45;&gt;Node7 -->
<g id="edge6" class="edge">
<title>Node2&#45;&gt;Node7</title>
<path fill="none" stroke="midnightblue" d="M534.92,-110.02C576.67,-99.82 637.98,-84.84 676.15,-75.52"/>
<polygon fill="midnightblue" stroke="midnightblue" points="533.9,-106.67 525.02,-112.44 535.56,-113.47 533.9,-106.67"/>
</g>
<!-- Node8 -->
<g id="node8" class="node">
<title>Node8</title>
<g id="a_node8"><a xlink:href="tlcd__core_8h.html" target="_top" xlink:title="Core library for the touchpanel EA EDIPTFT43&#45;ATP.">
<polygon fill="white" stroke="black" points="527,-56.5 527,-75.5 597,-75.5 597,-56.5 527,-56.5"/>
<text text-anchor="middle" x="562" y="-63.5" font-family="FreeSans" font-size="10.00">tlcd_core.h</text>
</a>
</g>
</g>
<!-- Node2&#45;&gt;Node8 -->
<g id="edge8" class="edge">
<title>Node2&#45;&gt;Node8</title>
<path fill="none" stroke="midnightblue" d="M509.87,-106.1C522.82,-96.38 539.3,-84.03 550.22,-75.83"/>
<polygon fill="midnightblue" stroke="midnightblue" points="507.47,-103.52 501.57,-112.32 511.67,-109.12 507.47,-103.52"/>
</g>
<!-- Node7&#45;&gt;Node6 -->
<g id="edge7" class="edge">
<title>Node7&#45;&gt;Node6</title>
<path fill="none" stroke="midnightblue" d="M711,-45.8C711,-36.91 711,-26.78 711,-19.75"/>
<polygon fill="midnightblue" stroke="midnightblue" points="707.5,-46.08 711,-56.08 714.5,-46.08 707.5,-46.08"/>
</g>
<!-- Node9&#45;&gt;Node5 -->
<g id="edge11" class="edge">
<title>Node9&#45;&gt;Node5</title>
<path fill="none" stroke="midnightblue" d="M210,-101.8C210,-92.91 210,-82.78 210,-75.75"/>
<polygon fill="midnightblue" stroke="midnightblue" points="206.5,-102.08 210,-112.08 213.5,-102.08 206.5,-102.08"/>
</g>
<!-- Node10 -->
<g id="node10" class="node">
<title>Node10</title>
<g id="a_node10"><a xlink:href="os__scheduling__strategies_8c.html" target="_top" xlink:title=" ">
<polygon fill="white" stroke="black" points="0,-56.5 0,-75.5 148,-75.5 148,-56.5 0,-56.5"/>
<text text-anchor="middle" x="74" y="-63.5" font-family="FreeSans" font-size="10.00">os_scheduling_strategies.c</text>
</a>
</g>
</g>
<!-- Node9&#45;&gt;Node10 -->
<g id="edge12" class="edge">
<title>Node9&#45;&gt;Node10</title>
<path fill="none" stroke="midnightblue" d="M178.87,-108.64C153.34,-98.5 117.89,-84.43 95.45,-75.52"/>
<polygon fill="midnightblue" stroke="midnightblue" points="177.86,-112.01 188.45,-112.44 180.45,-105.5 177.86,-112.01"/>
</g>
</g>
</svg>
