<?xml version="1.0" encoding="UTF-8" standalone="no"?>
<!DOCTYPE svg PUBLIC "-//W3C//DTD SVG 1.1//EN"
 "http://www.w3.org/Graphics/SVG/1.1/DTD/svg11.dtd">
<!-- Generated by graphviz version 2.43.0 (0)
 -->
<!-- Title: os_process.h Pages: 1 -->
<svg width="804pt" height="252pt"
 viewBox="0.00 0.00 804.21 252.00" xmlns="http://www.w3.org/2000/svg" xmlns:xlink="http://www.w3.org/1999/xlink">
<g id="graph0" class="graph" transform="scale(1 1) rotate(0) translate(4 248)">
<title>os_process.h</title>
<polygon fill="white" stroke="transparent" points="-4,4 -4,-248 800.21,-248 800.21,4 -4,4"/>
<!-- Node1 -->
<g id="node1" class="node">
<title>Node1</title>
<g id="a_node1"><a xlink:title="Struct specifying a process.">
<polygon fill="#bfbfbf" stroke="black" points="596,-224.5 596,-243.5 676,-243.5 676,-224.5 596,-224.5"/>
<text text-anchor="middle" x="636" y="-231.5" font-family="FreeSans" font-size="10.00">os_process.h</text>
</a>
</g>
</g>
<!-- Node2 -->
<g id="node2" class="node">
<title>Node2</title>
<g id="a_node2"><a xlink:href="os__scheduler_8h.html" target="_top" xlink:title="Scheduling module for the OS.">
<polygon fill="white" stroke="black" points="529.5,-168.5 529.5,-187.5 618.5,-187.5 618.5,-168.5 529.5,-168.5"/>
<text text-anchor="middle" x="574" y="-175.5" font-family="FreeSans" font-size="10.00">os_scheduler.h</text>
</a>
</g>
</g>
<!-- Node1&#45;&gt;Node2 -->
<g id="edge1" class="edge">
<title>Node1&#45;&gt;Node2</title>
<path fill="none" stroke="midnightblue" d="M618.25,-217.54C607.19,-207.91 593.37,-195.87 584.14,-187.83"/>
<polygon fill="midnightblue" stroke="midnightblue" points="616.2,-220.4 626.04,-224.32 620.8,-215.12 616.2,-220.4"/>
</g>
<!-- Node7 -->
<g id="node7" class="node">
<title>Node7</title>
<g id="a_node7"><a xlink:href="os__taskman_8c.html" target="_top" xlink:title=" ">
<polygon fill="white" stroke="black" points="712,-0.5 712,-19.5 796,-19.5 796,-0.5 712,-0.5"/>
<text text-anchor="middle" x="754" y="-7.5" font-family="FreeSans" font-size="10.00">os_taskman.c</text>
</a>
</g>
</g>
<!-- Node1&#45;&gt;Node7 -->
<g id="edge16" class="edge">
<title>Node1&#45;&gt;Node7</title>
<path fill="none" stroke="midnightblue" d="M659.73,-219.04C697.3,-195.3 768.8,-143.08 794,-76 802.2,-54.17 780.22,-31.63 765.68,-19.68"/>
<polygon fill="midnightblue" stroke="midnightblue" points="657.63,-216.22 650.96,-224.45 661.31,-222.18 657.63,-216.22"/>
</g>
<!-- Node3 -->
<g id="node3" class="node">
<title>Node3</title>
<g id="a_node3"><a xlink:href="os__memory_8h.html" target="_top" xlink:title="Library for OS memory management.">
<polygon fill="white" stroke="black" points="487,-112.5 487,-131.5 569,-131.5 569,-112.5 487,-112.5"/>
<text text-anchor="middle" x="528" y="-119.5" font-family="FreeSans" font-size="10.00">os_memory.h</text>
</a>
</g>
</g>
<!-- Node2&#45;&gt;Node3 -->
<g id="edge2" class="edge">
<title>Node2&#45;&gt;Node3</title>
<path fill="none" stroke="midnightblue" d="M559.89,-160.43C551.82,-150.97 542.04,-139.48 535.45,-131.75"/>
<polygon fill="midnightblue" stroke="midnightblue" points="557.25,-162.74 566.4,-168.08 562.58,-158.2 557.25,-162.74"/>
</g>
<!-- Node6 -->
<g id="node6" class="node">
<title>Node6</title>
<g id="a_node6"><a xlink:href="os__scheduler_8c.html" target="_top" xlink:title="Scheduling module for the OS.">
<polygon fill="white" stroke="black" points="166,-56.5 166,-75.5 254,-75.5 254,-56.5 166,-56.5"/>
<text text-anchor="middle" x="210" y="-63.5" font-family="FreeSans" font-size="10.00">os_scheduler.c</text>
</a>
</g>
</g>
<!-- Node2&#45;&gt;Node6 -->
<g id="edge10" class="edge">
<title>Node2&#45;&gt;Node6</title>
<path fill="none" stroke="midnightblue" d="M535.98,-165.51C462.62,-143.34 303.07,-95.13 238.24,-75.53"/>
<polygon fill="midnightblue" stroke="midnightblue" points="535.16,-168.92 545.74,-168.46 537.18,-162.22 535.16,-168.92"/>
</g>
<!-- Node2&#45;&gt;Node7 -->
<g id="edge14" class="edge">
<title>Node2&#45;&gt;Node7</title>
<path fill="none" stroke="midnightblue" d="M628.4,-166.73C677.05,-154.35 745.53,-128.3 778,-76 789.42,-57.6 772.92,-32.94 762.11,-19.92"/>
<polygon fill="midnightblue" stroke="midnightblue" points="627.54,-163.34 618.64,-169.1 629.19,-170.14 627.54,-163.34"/>
</g>
<!-- Node8 -->
<g id="node8" class="node">
<title>Node8</title>
<g id="a_node8"><a xlink:href="os__user__privileges_8h.html" target="_top" xlink:title="User privileges specification used in part by the task manager.">
<polygon fill="white" stroke="black" points="653,-56.5 653,-75.5 769,-75.5 769,-56.5 653,-56.5"/>
<text text-anchor="middle" x="711" y="-63.5" font-family="FreeSans" font-size="10.00">os_user_privileges.h</text>
</a>
</g>
</g>
<!-- Node2&#45;&gt;Node8 -->
<g id="edge15" class="edge">
<title>Node2&#45;&gt;Node8</title>
<path fill="none" stroke="midnightblue" d="M592.91,-161.82C622.09,-138.39 677.14,-94.19 700.3,-75.59"/>
<polygon fill="midnightblue" stroke="midnightblue" points="590.36,-159.38 584.75,-168.37 594.74,-164.84 590.36,-159.38"/>
</g>
<!-- Node10 -->
<g id="node10" class="node">
<title>Node10</title>
<g id="a_node10"><a xlink:href="os__scheduling__strategies_8h.html" target="_top" xlink:title="Scheduling library for the OS.">
<polygon fill="white" stroke="black" points="135.5,-112.5 135.5,-131.5 284.5,-131.5 284.5,-112.5 135.5,-112.5"/>
<text text-anchor="middle" x="210" y="-119.5" font-family="FreeSans" font-size="10.00">os_scheduling_strategies.h</text>
</a>
</g>
</g>
<!-- Node2&#45;&gt;Node10 -->
<g id="edge11" class="edge">
<title>Node2&#45;&gt;Node10</title>
<path fill="none" stroke="midnightblue" d="M519.32,-168.89C451.57,-158.84 336.67,-141.79 267.6,-131.55"/>
<polygon fill="midnightblue" stroke="midnightblue" points="518.96,-172.37 529.37,-170.38 519.99,-165.45 518.96,-172.37"/>
</g>
<!-- Node4 -->
<g id="node4" class="node">
<title>Node4</title>
<g id="a_node4"><a xlink:href="os__memory_8c.html" target="_top" xlink:title=" ">
<polygon fill="white" stroke="black" points="360.5,-56.5 360.5,-75.5 441.5,-75.5 441.5,-56.5 360.5,-56.5"/>
<text text-anchor="middle" x="401" y="-63.5" font-family="FreeSans" font-size="10.00">os_memory.c</text>
</a>
</g>
</g>
<!-- Node3&#45;&gt;Node4 -->
<g id="edge3" class="edge">
<title>Node3&#45;&gt;Node4</title>
<path fill="none" stroke="midnightblue" d="M498.61,-108.5C474.8,-98.38 441.89,-84.39 421.03,-75.52"/>
<polygon fill="midnightblue" stroke="midnightblue" points="497.3,-111.75 507.88,-112.44 500.04,-105.31 497.3,-111.75"/>
</g>
<!-- Node5 -->
<g id="node5" class="node">
<title>Node5</title>
<g id="a_node5"><a xlink:href="os__memory__strategies_8c.html" target="_top" xlink:title=" ">
<polygon fill="white" stroke="black" points="459.5,-56.5 459.5,-75.5 596.5,-75.5 596.5,-56.5 459.5,-56.5"/>
<text text-anchor="middle" x="528" y="-63.5" font-family="FreeSans" font-size="10.00">os_memory_strategies.c</text>
</a>
</g>
</g>
<!-- Node3&#45;&gt;Node5 -->
<g id="edge4" class="edge">
<title>Node3&#45;&gt;Node5</title>
<path fill="none" stroke="midnightblue" d="M528,-101.8C528,-92.91 528,-82.78 528,-75.75"/>
<polygon fill="midnightblue" stroke="midnightblue" points="524.5,-102.08 528,-112.08 531.5,-102.08 524.5,-102.08"/>
</g>
<!-- Node3&#45;&gt;Node6 -->
<g id="edge5" class="edge">
<title>Node3&#45;&gt;Node6</title>
<path fill="none" stroke="midnightblue" d="M476.85,-112.31C415.2,-101.85 312.63,-84.43 254.24,-74.51"/>
<polygon fill="midnightblue" stroke="midnightblue" points="476.31,-115.77 486.75,-114 477.48,-108.87 476.31,-115.77"/>
</g>
<!-- Node3&#45;&gt;Node7 -->
<g id="edge6" class="edge">
<title>Node3&#45;&gt;Node7</title>
<path fill="none" stroke="midnightblue" d="M550.69,-107.19C573.76,-93.42 610.74,-72.05 644,-56 673.36,-41.83 708.38,-28.01 730.89,-19.51"/>
<polygon fill="midnightblue" stroke="midnightblue" points="548.76,-104.27 541.99,-112.42 552.36,-110.27 548.76,-104.27"/>
</g>
<!-- Node3&#45;&gt;Node8 -->
<g id="edge7" class="edge">
<title>Node3&#45;&gt;Node8</title>
<path fill="none" stroke="midnightblue" d="M566.74,-109.57C601.26,-99.38 651.01,-84.7 682.14,-75.52"/>
<polygon fill="midnightblue" stroke="midnightblue" points="565.6,-106.26 557,-112.44 567.58,-112.97 565.6,-106.26"/>
</g>
<!-- Node9 -->
<g id="node9" class="node">
<title>Node9</title>
<g id="a_node9"><a xlink:href="tlcd__core_8h.html" target="_top" xlink:title="Core library for the touchpanel EA EDIPTFT43&#45;ATP.">
<polygon fill="white" stroke="black" points="272,-56.5 272,-75.5 342,-75.5 342,-56.5 272,-56.5"/>
<text text-anchor="middle" x="307" y="-63.5" font-family="FreeSans" font-size="10.00">tlcd_core.h</text>
</a>
</g>
</g>
<!-- Node3&#45;&gt;Node9 -->
<g id="edge9" class="edge">
<title>Node3&#45;&gt;Node9</title>
<path fill="none" stroke="midnightblue" d="M483.08,-110.02C441.33,-99.82 380.02,-84.84 341.85,-75.52"/>
<polygon fill="midnightblue" stroke="midnightblue" points="482.44,-113.47 492.98,-112.44 484.1,-106.67 482.44,-113.47"/>
</g>
<!-- Node8&#45;&gt;Node7 -->
<g id="edge8" class="edge">
<title>Node8&#45;&gt;Node7</title>
<path fill="none" stroke="midnightblue" d="M724.42,-48.14C731.91,-38.74 740.94,-27.4 747.03,-19.75"/>
<polygon fill="midnightblue" stroke="midnightblue" points="721.59,-46.08 718.1,-56.08 727.07,-50.44 721.59,-46.08"/>
</g>
<!-- Node10&#45;&gt;Node6 -->
<g id="edge12" class="edge">
<title>Node10&#45;&gt;Node6</title>
<path fill="none" stroke="midnightblue" d="M210,-101.8C210,-92.91 210,-82.78 210,-75.75"/>
<polygon fill="midnightblue" stroke="midnightblue" points="206.5,-102.08 210,-112.08 213.5,-102.08 206.5,-102.08"/>
</g>
<!-- Node11 -->
<g id="node11" class="node">
<title>Node11</title>
<g id="a_node11"><a xlink:href="os__scheduling__strategies_8c.html" target="_top" xlink:title=" ">
<polygon fill="white" stroke="black" points="0,-56.5 0,-75.5 148,-75.5 148,-56.5 0,-56.5"/>
<text text-anchor="middle" x="74" y="-63.5" font-family="FreeSans" font-size="10.00">os_scheduling_strategies.c</text>
</a>
</g>
</g>
<!-- Node10&#45;&gt;Node11 -->
<g id="edge13" class="edge">
<title>Node10&#45;&gt;Node11</title>
<path fill="none" stroke="midnightblue" d="M178.87,-108.64C153.34,-98.5 117.89,-84.43 95.45,-75.52"/>
<polygon fill="midnightblue" stroke="midnightblue" points="177.86,-112.01 188.45,-112.44 180.45,-105.5 177.86,-112.01"/>
</g>
</g>
</svg>
