<?xml version="1.0" encoding="UTF-8" standalone="no"?>
<!DOCTYPE svg PUBLIC "-//W3C//DTD SVG 1.1//EN"
 "http://www.w3.org/Graphics/SVG/1.1/DTD/svg11.dtd">
<!-- Generated by graphviz version 2.43.0 (0)
 -->
<!-- Title: os_memheap_drivers.h Pages: 1 -->
<svg width="759pt" height="196pt"
 viewBox="0.00 0.00 759.00 196.00" xmlns="http://www.w3.org/2000/svg" xmlns:xlink="http://www.w3.org/1999/xlink">
<g id="graph0" class="graph" transform="scale(1 1) rotate(0) translate(4 192)">
<title>os_memheap_drivers.h</title>
<polygon fill="white" stroke="transparent" points="-4,4 -4,-192 755,-192 755,4 -4,4"/>
<!-- Node1 -->
<g id="node1" class="node">
<title>Node1</title>
<g id="a_node1"><a xlink:title="Drivers for OS heap management.">
<polygon fill="#bfbfbf" stroke="black" points="167.5,-168.5 167.5,-187.5 298.5,-187.5 298.5,-168.5 167.5,-168.5"/>
<text text-anchor="middle" x="233" y="-175.5" font-family="FreeSans" font-size="10.00">os_memheap_drivers.h</text>
</a>
</g>
</g>
<!-- Node2 -->
<g id="node2" class="node">
<title>Node2</title>
<g id="a_node2"><a xlink:href="os__core_8c.html" target="_top" xlink:title=" ">
<polygon fill="white" stroke="black" points="46,-112.5 46,-131.5 108,-131.5 108,-112.5 46,-112.5"/>
<text text-anchor="middle" x="77" y="-119.5" font-family="FreeSans" font-size="10.00">os_core.c</text>
</a>
</g>
</g>
<!-- Node1&#45;&gt;Node2 -->
<g id="edge1" class="edge">
<title>Node1&#45;&gt;Node2</title>
<path fill="none" stroke="midnightblue" d="M198.83,-165.17C169.46,-155 127.8,-140.59 101.6,-131.52"/>
<polygon fill="midnightblue" stroke="midnightblue" points="197.69,-168.48 208.28,-168.44 199.98,-161.86 197.69,-168.48"/>
</g>
<!-- Node3 -->
<g id="node3" class="node">
<title>Node3</title>
<g id="a_node3"><a xlink:href="os__memheap__drivers_8c.html" target="_top" xlink:title=" ">
<polygon fill="white" stroke="black" points="0,-56.5 0,-75.5 130,-75.5 130,-56.5 0,-56.5"/>
<text text-anchor="middle" x="65" y="-63.5" font-family="FreeSans" font-size="10.00">os_memheap_drivers.c</text>
</a>
</g>
</g>
<!-- Node1&#45;&gt;Node3 -->
<g id="edge2" class="edge">
<title>Node1&#45;&gt;Node3</title>
<path fill="none" stroke="midnightblue" d="M208.2,-163.54C192.67,-154.91 172.39,-143.25 155,-132 125.71,-113.05 92.85,-88.4 76.11,-75.59"/>
<polygon fill="midnightblue" stroke="midnightblue" points="206.73,-166.73 217.18,-168.5 210.11,-160.6 206.73,-166.73"/>
</g>
<!-- Node4 -->
<g id="node4" class="node">
<title>Node4</title>
<g id="a_node4"><a xlink:href="os__memory_8h.html" target="_top" xlink:title="Library for OS memory management.">
<polygon fill="white" stroke="black" points="406,-112.5 406,-131.5 488,-131.5 488,-112.5 406,-112.5"/>
<text text-anchor="middle" x="447" y="-119.5" font-family="FreeSans" font-size="10.00">os_memory.h</text>
</a>
</g>
</g>
<!-- Node1&#45;&gt;Node4 -->
<g id="edge3" class="edge">
<title>Node1&#45;&gt;Node4</title>
<path fill="none" stroke="midnightblue" d="M276.76,-165.96C317.17,-155.76 376.37,-140.82 413.25,-131.52"/>
<polygon fill="midnightblue" stroke="midnightblue" points="275.75,-162.6 266.91,-168.44 277.46,-169.39 275.75,-162.6"/>
</g>
<!-- Node7 -->
<g id="node7" class="node">
<title>Node7</title>
<g id="a_node7"><a xlink:href="os__scheduler_8c.html" target="_top" xlink:title="Scheduling module for the OS.">
<polygon fill="white" stroke="black" points="403,-56.5 403,-75.5 491,-75.5 491,-56.5 403,-56.5"/>
<text text-anchor="middle" x="447" y="-63.5" font-family="FreeSans" font-size="10.00">os_scheduler.c</text>
</a>
</g>
</g>
<!-- Node1&#45;&gt;Node7 -->
<g id="edge15" class="edge">
<title>Node1&#45;&gt;Node7</title>
<path fill="none" stroke="midnightblue" d="M258.81,-163.73C303.26,-140.88 393.09,-94.71 430.29,-75.59"/>
<polygon fill="midnightblue" stroke="midnightblue" points="257.09,-160.68 249.79,-168.37 260.29,-166.91 257.09,-160.68"/>
</g>
<!-- Node11 -->
<g id="node11" class="node">
<title>Node11</title>
<g id="a_node11"><a xlink:href="os__memory__strategies_8h.html" target="_top" xlink:title="Memory allocation library for the OS.">
<polygon fill="white" stroke="black" points="164.5,-112.5 164.5,-131.5 301.5,-131.5 301.5,-112.5 164.5,-112.5"/>
<text text-anchor="middle" x="233" y="-119.5" font-family="FreeSans" font-size="10.00">os_memory_strategies.h</text>
</a>
</g>
</g>
<!-- Node1&#45;&gt;Node11 -->
<g id="edge11" class="edge">
<title>Node1&#45;&gt;Node11</title>
<path fill="none" stroke="midnightblue" d="M233,-157.8C233,-148.91 233,-138.78 233,-131.75"/>
<polygon fill="midnightblue" stroke="midnightblue" points="229.5,-158.08 233,-168.08 236.5,-158.08 229.5,-158.08"/>
</g>
<!-- Node5 -->
<g id="node5" class="node">
<title>Node5</title>
<g id="a_node5"><a xlink:href="os__memory_8c.html" target="_top" xlink:title=" ">
<polygon fill="white" stroke="black" points="303.5,-56.5 303.5,-75.5 384.5,-75.5 384.5,-56.5 303.5,-56.5"/>
<text text-anchor="middle" x="344" y="-63.5" font-family="FreeSans" font-size="10.00">os_memory.c</text>
</a>
</g>
</g>
<!-- Node4&#45;&gt;Node5 -->
<g id="edge4" class="edge">
<title>Node4&#45;&gt;Node5</title>
<path fill="none" stroke="midnightblue" d="M421.42,-107.59C402.38,-97.61 376.94,-84.27 360.51,-75.65"/>
<polygon fill="midnightblue" stroke="midnightblue" points="419.97,-110.78 430.45,-112.32 423.22,-104.58 419.97,-110.78"/>
</g>
<!-- Node6 -->
<g id="node6" class="node">
<title>Node6</title>
<g id="a_node6"><a xlink:href="os__memory__strategies_8c.html" target="_top" xlink:title=" ">
<polygon fill="white" stroke="black" points="148.5,-56.5 148.5,-75.5 285.5,-75.5 285.5,-56.5 148.5,-56.5"/>
<text text-anchor="middle" x="217" y="-63.5" font-family="FreeSans" font-size="10.00">os_memory_strategies.c</text>
</a>
</g>
</g>
<!-- Node4&#45;&gt;Node6 -->
<g id="edge5" class="edge">
<title>Node4&#45;&gt;Node6</title>
<path fill="none" stroke="midnightblue" d="M400.8,-110.15C357.34,-99.95 293.16,-84.88 253.27,-75.52"/>
<polygon fill="midnightblue" stroke="midnightblue" points="400.02,-113.57 410.56,-112.44 401.62,-106.75 400.02,-113.57"/>
</g>
<!-- Node4&#45;&gt;Node7 -->
<g id="edge6" class="edge">
<title>Node4&#45;&gt;Node7</title>
<path fill="none" stroke="midnightblue" d="M447,-101.8C447,-92.91 447,-82.78 447,-75.75"/>
<polygon fill="midnightblue" stroke="midnightblue" points="443.5,-102.08 447,-112.08 450.5,-102.08 443.5,-102.08"/>
</g>
<!-- Node8 -->
<g id="node8" class="node">
<title>Node8</title>
<g id="a_node8"><a xlink:href="os__taskman_8c.html" target="_top" xlink:title=" ">
<polygon fill="white" stroke="black" points="568,-0.5 568,-19.5 652,-19.5 652,-0.5 568,-0.5"/>
<text text-anchor="middle" x="610" y="-7.5" font-family="FreeSans" font-size="10.00">os_taskman.c</text>
</a>
</g>
</g>
<!-- Node4&#45;&gt;Node8 -->
<g id="edge7" class="edge">
<title>Node4&#45;&gt;Node8</title>
<path fill="none" stroke="midnightblue" d="M498.23,-115.74C547.65,-109.48 617.36,-97.12 634,-76 647.55,-58.8 629.7,-33.2 618.25,-19.84"/>
<polygon fill="midnightblue" stroke="midnightblue" points="497.52,-112.3 488.02,-116.98 498.37,-119.25 497.52,-112.3"/>
</g>
<!-- Node9 -->
<g id="node9" class="node">
<title>Node9</title>
<g id="a_node9"><a xlink:href="os__user__privileges_8h.html" target="_top" xlink:title="User privileges specification used in part by the task manager.">
<polygon fill="white" stroke="black" points="509,-56.5 509,-75.5 625,-75.5 625,-56.5 509,-56.5"/>
<text text-anchor="middle" x="567" y="-63.5" font-family="FreeSans" font-size="10.00">os_user_privileges.h</text>
</a>
</g>
</g>
<!-- Node4&#45;&gt;Node9 -->
<g id="edge8" class="edge">
<title>Node4&#45;&gt;Node9</title>
<path fill="none" stroke="midnightblue" d="M475.37,-108.23C497.82,-98.13 528.54,-84.31 548.07,-75.52"/>
<polygon fill="midnightblue" stroke="midnightblue" points="473.7,-105.15 466.01,-112.44 476.57,-111.53 473.7,-105.15"/>
</g>
<!-- Node10 -->
<g id="node10" class="node">
<title>Node10</title>
<g id="a_node10"><a xlink:href="tlcd__core_8h.html" target="_top" xlink:title="Core library for the touchpanel EA EDIPTFT43&#45;ATP.">
<polygon fill="white" stroke="black" points="681,-56.5 681,-75.5 751,-75.5 751,-56.5 681,-56.5"/>
<text text-anchor="middle" x="716" y="-63.5" font-family="FreeSans" font-size="10.00">tlcd_core.h</text>
</a>
</g>
</g>
<!-- Node4&#45;&gt;Node10 -->
<g id="edge10" class="edge">
<title>Node4&#45;&gt;Node10</title>
<path fill="none" stroke="midnightblue" d="M498.12,-110.74C551.64,-100 634.25,-83.41 680.86,-74.05"/>
<polygon fill="midnightblue" stroke="midnightblue" points="497.26,-107.34 488.15,-112.74 498.64,-114.2 497.26,-107.34"/>
</g>
<!-- Node9&#45;&gt;Node8 -->
<g id="edge9" class="edge">
<title>Node9&#45;&gt;Node8</title>
<path fill="none" stroke="midnightblue" d="M580.42,-48.14C587.91,-38.74 596.94,-27.4 603.03,-19.75"/>
<polygon fill="midnightblue" stroke="midnightblue" points="577.59,-46.08 574.1,-56.08 583.07,-50.44 577.59,-46.08"/>
</g>
<!-- Node11&#45;&gt;Node3 -->
<g id="edge12" class="edge">
<title>Node11&#45;&gt;Node3</title>
<path fill="none" stroke="midnightblue" d="M196.61,-109.3C164.96,-99.13 119.83,-84.62 91.5,-75.52"/>
<polygon fill="midnightblue" stroke="midnightblue" points="195.79,-112.72 206.38,-112.44 197.93,-106.05 195.79,-112.72"/>
</g>
<!-- Node11&#45;&gt;Node5 -->
<g id="edge13" class="edge">
<title>Node11&#45;&gt;Node5</title>
<path fill="none" stroke="midnightblue" d="M260.01,-107.86C280.59,-97.85 308.34,-84.35 326.21,-75.65"/>
<polygon fill="midnightblue" stroke="midnightblue" points="258.3,-104.8 250.83,-112.32 261.36,-111.1 258.3,-104.8"/>
</g>
<!-- Node11&#45;&gt;Node6 -->
<g id="edge14" class="edge">
<title>Node11&#45;&gt;Node6</title>
<path fill="none" stroke="midnightblue" d="M227.49,-102.4C224.81,-93.36 221.72,-82.94 219.59,-75.75"/>
<polygon fill="midnightblue" stroke="midnightblue" points="224.16,-103.49 230.36,-112.08 230.87,-101.5 224.16,-103.49"/>
</g>
</g>
</svg>
