<?xml version="1.0" encoding="UTF-8" standalone="no"?>
<!DOCTYPE svg PUBLIC "-//W3C//DTD SVG 1.1//EN"
 "http://www.w3.org/Graphics/SVG/1.1/DTD/svg11.dtd">
<!-- Generated by graphviz version 2.43.0 (0)
 -->
<!-- Title: os_checkResetSource Pages: 1 -->
<svg width="478pt" height="28pt"
 viewBox="0.00 0.00 478.00 28.00" xmlns="http://www.w3.org/2000/svg" xmlns:xlink="http://www.w3.org/1999/xlink">
<g id="graph0" class="graph" transform="scale(1 1) rotate(0) translate(4 24)">
<title>os_checkResetSource</title>
<polygon fill="white" stroke="transparent" points="-4,4 -4,-24 474,-24 474,4 -4,4"/>
<!-- Node1 -->
<g id="node1" class="node">
<title>Node1</title>
<g id="a_node1"><a xlink:title="Examines the saved MCU status register and possibly prints an error if the reset source is not allowe...">
<polygon fill="#bfbfbf" stroke="black" points="0,-0.5 0,-19.5 122,-19.5 122,-0.5 0,-0.5"/>
<text text-anchor="middle" x="61" y="-7.5" font-family="FreeSans" font-size="10.00">os_checkResetSource</text>
</a>
</g>
</g>
<!-- Node2 -->
<g id="node2" class="node">
<title>Node2</title>
<g id="a_node2"><a xlink:href="lcd_8c.html#ad9ccaf30ea478fef726c058ff4ee7dd1" target="_top" xlink:title="Next output will be written to line 2.">
<polygon fill="white" stroke="black" points="158,-0.5 158,-19.5 218,-19.5 218,-0.5 158,-0.5"/>
<text text-anchor="middle" x="188" y="-7.5" font-family="FreeSans" font-size="10.00">lcd_line2</text>
</a>
</g>
</g>
<!-- Node1&#45;&gt;Node2 -->
<g id="edge1" class="edge">
<title>Node1&#45;&gt;Node2</title>
<path fill="none" stroke="midnightblue" d="M122.3,-10C130.9,-10 139.55,-10 147.6,-10"/>
<polygon fill="midnightblue" stroke="midnightblue" points="147.79,-13.5 157.79,-10 147.79,-6.5 147.79,-13.5"/>
</g>
<!-- Node3 -->
<g id="node3" class="node">
<title>Node3</title>
<g id="a_node3"><a xlink:href="lcd_8c.html#acb116d89c358367b8fd1164120d320e3" target="_top" xlink:title="Send command to LCD.">
<polygon fill="white" stroke="black" points="254,-0.5 254,-19.5 339,-19.5 339,-0.5 254,-0.5"/>
<text text-anchor="middle" x="296.5" y="-7.5" font-family="FreeSans" font-size="10.00">lcd_command</text>
</a>
</g>
</g>
<!-- Node2&#45;&gt;Node3 -->
<g id="edge2" class="edge">
<title>Node2&#45;&gt;Node3</title>
<path fill="none" stroke="midnightblue" d="M218.1,-10C225.98,-10 234.76,-10 243.49,-10"/>
<polygon fill="midnightblue" stroke="midnightblue" points="243.66,-13.5 253.66,-10 243.66,-6.5 243.66,-13.5"/>
</g>
<!-- Node4 -->
<g id="node4" class="node">
<title>Node4</title>
<g id="a_node4"><a xlink:href="lcd_8c.html#a26a89cb41bb1496462fda420cbe79a07" target="_top" xlink:title=" ">
<polygon fill="white" stroke="black" points="375,-0.5 375,-19.5 470,-19.5 470,-0.5 375,-0.5"/>
<text text-anchor="middle" x="422.5" y="-7.5" font-family="FreeSans" font-size="10.00">lcd_sendStream</text>
</a>
</g>
</g>
<!-- Node3&#45;&gt;Node4 -->
<g id="edge3" class="edge">
<title>Node3&#45;&gt;Node4</title>
<path fill="none" stroke="midnightblue" d="M339.14,-10C347.24,-10 355.86,-10 364.37,-10"/>
<polygon fill="midnightblue" stroke="midnightblue" points="364.63,-13.5 374.63,-10 364.63,-6.5 364.63,-13.5"/>
</g>
</g>
</svg>
