<?xml version="1.0" encoding="UTF-8" standalone="no"?>
<!DOCTYPE svg PUBLIC "-//W3C//DTD SVG 1.1//EN"
 "http://www.w3.org/Graphics/SVG/1.1/DTD/svg11.dtd">
<!-- Generated by graphviz version 2.43.0 (0)
 -->
<!-- Title: os_mem_drivers.h Pages: 1 -->
<svg width="759pt" height="252pt"
 viewBox="0.00 0.00 759.00 252.00" xmlns="http://www.w3.org/2000/svg" xmlns:xlink="http://www.w3.org/1999/xlink">
<g id="graph0" class="graph" transform="scale(1 1) rotate(0) translate(4 248)">
<title>os_mem_drivers.h</title>
<polygon fill="white" stroke="transparent" points="-4,4 -4,-248 755,-248 755,4 -4,4"/>
<!-- Node1 -->
<g id="node1" class="node">
<title>Node1</title>
<g id="a_node1"><a xlink:title="Drivers for OS memory management.">
<polygon fill="#bfbfbf" stroke="black" points="245.5,-224.5 245.5,-243.5 352.5,-243.5 352.5,-224.5 245.5,-224.5"/>
<text text-anchor="middle" x="299" y="-231.5" font-family="FreeSans" font-size="10.00">os_mem_drivers.h</text>
</a>
</g>
</g>
<!-- Node2 -->
<g id="node2" class="node">
<title>Node2</title>
<g id="a_node2"><a xlink:href="os__mem__drivers_8c.html" target="_top" xlink:title=" ">
<polygon fill="white" stroke="black" points="109,-168.5 109,-187.5 215,-187.5 215,-168.5 109,-168.5"/>
<text text-anchor="middle" x="162" y="-175.5" font-family="FreeSans" font-size="10.00">os_mem_drivers.c</text>
</a>
</g>
</g>
<!-- Node1&#45;&gt;Node2 -->
<g id="edge1" class="edge">
<title>Node1&#45;&gt;Node2</title>
<path fill="none" stroke="midnightblue" d="M267.98,-220.77C242.24,-210.63 206.31,-196.47 183.61,-187.52"/>
<polygon fill="midnightblue" stroke="midnightblue" points="266.71,-224.03 277.29,-224.44 269.27,-217.52 266.71,-224.03"/>
</g>
<!-- Node3 -->
<g id="node3" class="node">
<title>Node3</title>
<g id="a_node3"><a xlink:href="os__memheap__drivers_8h.html" target="_top" xlink:title="Drivers for OS heap management.">
<polygon fill="white" stroke="black" points="233.5,-168.5 233.5,-187.5 364.5,-187.5 364.5,-168.5 233.5,-168.5"/>
<text text-anchor="middle" x="299" y="-175.5" font-family="FreeSans" font-size="10.00">os_memheap_drivers.h</text>
</a>
</g>
</g>
<!-- Node1&#45;&gt;Node3 -->
<g id="edge2" class="edge">
<title>Node1&#45;&gt;Node3</title>
<path fill="none" stroke="midnightblue" d="M299,-213.8C299,-204.91 299,-194.78 299,-187.75"/>
<polygon fill="midnightblue" stroke="midnightblue" points="295.5,-214.08 299,-224.08 302.5,-214.08 295.5,-214.08"/>
</g>
<!-- Node6 -->
<g id="node6" class="node">
<title>Node6</title>
<g id="a_node6"><a xlink:href="os__memory_8h.html" target="_top" xlink:title="Library for OS memory management.">
<polygon fill="white" stroke="black" points="406,-112.5 406,-131.5 488,-131.5 488,-112.5 406,-112.5"/>
<text text-anchor="middle" x="447" y="-119.5" font-family="FreeSans" font-size="10.00">os_memory.h</text>
</a>
</g>
</g>
<!-- Node1&#45;&gt;Node6 -->
<g id="edge18" class="edge">
<title>Node1&#45;&gt;Node6</title>
<path fill="none" stroke="midnightblue" d="M323.82,-219.36C338.52,-210.93 357.29,-199.54 373,-188 398.08,-169.58 424.9,-144.5 438.31,-131.54"/>
<polygon fill="midnightblue" stroke="midnightblue" points="321.8,-216.48 314.81,-224.45 325.24,-222.58 321.8,-216.48"/>
</g>
<!-- Node4 -->
<g id="node4" class="node">
<title>Node4</title>
<g id="a_node4"><a xlink:href="os__core_8c.html" target="_top" xlink:title=" ">
<polygon fill="white" stroke="black" points="132,-112.5 132,-131.5 194,-131.5 194,-112.5 132,-112.5"/>
<text text-anchor="middle" x="163" y="-119.5" font-family="FreeSans" font-size="10.00">os_core.c</text>
</a>
</g>
</g>
<!-- Node3&#45;&gt;Node4 -->
<g id="edge3" class="edge">
<title>Node3&#45;&gt;Node4</title>
<path fill="none" stroke="midnightblue" d="M267.87,-164.64C242.34,-154.5 206.89,-140.43 184.45,-131.52"/>
<polygon fill="midnightblue" stroke="midnightblue" points="266.86,-168.01 277.45,-168.44 269.45,-161.5 266.86,-168.01"/>
</g>
<!-- Node5 -->
<g id="node5" class="node">
<title>Node5</title>
<g id="a_node5"><a xlink:href="os__memheap__drivers_8c.html" target="_top" xlink:title=" ">
<polygon fill="white" stroke="black" points="0,-56.5 0,-75.5 130,-75.5 130,-56.5 0,-56.5"/>
<text text-anchor="middle" x="65" y="-63.5" font-family="FreeSans" font-size="10.00">os_memheap_drivers.c</text>
</a>
</g>
</g>
<!-- Node3&#45;&gt;Node5 -->
<g id="edge4" class="edge">
<title>Node3&#45;&gt;Node5</title>
<path fill="none" stroke="midnightblue" d="M223.17,-167.71C190.59,-161.24 153.16,-150.34 123,-132 98.96,-117.39 79.24,-89.69 70.25,-75.64"/>
<polygon fill="midnightblue" stroke="midnightblue" points="222.63,-171.17 233.11,-169.58 223.93,-164.29 222.63,-171.17"/>
</g>
<!-- Node3&#45;&gt;Node6 -->
<g id="edge5" class="edge">
<title>Node3&#45;&gt;Node6</title>
<path fill="none" stroke="midnightblue" d="M332.15,-164.91C359.97,-154.75 399.02,-140.51 423.66,-131.52"/>
<polygon fill="midnightblue" stroke="midnightblue" points="330.65,-161.73 322.45,-168.44 333.04,-168.3 330.65,-161.73"/>
</g>
<!-- Node9 -->
<g id="node9" class="node">
<title>Node9</title>
<g id="a_node9"><a xlink:href="os__scheduler_8c.html" target="_top" xlink:title="Scheduling module for the OS.">
<polygon fill="white" stroke="black" points="403,-56.5 403,-75.5 491,-75.5 491,-56.5 403,-56.5"/>
<text text-anchor="middle" x="447" y="-63.5" font-family="FreeSans" font-size="10.00">os_scheduler.c</text>
</a>
</g>
</g>
<!-- Node3&#45;&gt;Node9 -->
<g id="edge17" class="edge">
<title>Node3&#45;&gt;Node9</title>
<path fill="none" stroke="midnightblue" d="M319.02,-162.12C350.44,-138.77 410.31,-94.27 435.44,-75.59"/>
<polygon fill="midnightblue" stroke="midnightblue" points="316.55,-159.59 310.61,-168.37 320.73,-165.21 316.55,-159.59"/>
</g>
<!-- Node13 -->
<g id="node13" class="node">
<title>Node13</title>
<g id="a_node13"><a xlink:href="os__memory__strategies_8h.html" target="_top" xlink:title="Memory allocation library for the OS.">
<polygon fill="white" stroke="black" points="212.5,-112.5 212.5,-131.5 349.5,-131.5 349.5,-112.5 212.5,-112.5"/>
<text text-anchor="middle" x="281" y="-119.5" font-family="FreeSans" font-size="10.00">os_memory_strategies.h</text>
</a>
</g>
</g>
<!-- Node3&#45;&gt;Node13 -->
<g id="edge13" class="edge">
<title>Node3&#45;&gt;Node13</title>
<path fill="none" stroke="midnightblue" d="M292.8,-158.4C289.79,-149.36 286.31,-138.94 283.92,-131.75"/>
<polygon fill="midnightblue" stroke="midnightblue" points="289.54,-159.7 296.03,-168.08 296.19,-157.49 289.54,-159.7"/>
</g>
<!-- Node7 -->
<g id="node7" class="node">
<title>Node7</title>
<g id="a_node7"><a xlink:href="os__memory_8c.html" target="_top" xlink:title=" ">
<polygon fill="white" stroke="black" points="303.5,-56.5 303.5,-75.5 384.5,-75.5 384.5,-56.5 303.5,-56.5"/>
<text text-anchor="middle" x="344" y="-63.5" font-family="FreeSans" font-size="10.00">os_memory.c</text>
</a>
</g>
</g>
<!-- Node6&#45;&gt;Node7 -->
<g id="edge6" class="edge">
<title>Node6&#45;&gt;Node7</title>
<path fill="none" stroke="midnightblue" d="M421.42,-107.59C402.38,-97.61 376.94,-84.27 360.51,-75.65"/>
<polygon fill="midnightblue" stroke="midnightblue" points="419.97,-110.78 430.45,-112.32 423.22,-104.58 419.97,-110.78"/>
</g>
<!-- Node8 -->
<g id="node8" class="node">
<title>Node8</title>
<g id="a_node8"><a xlink:href="os__memory__strategies_8c.html" target="_top" xlink:title=" ">
<polygon fill="white" stroke="black" points="148.5,-56.5 148.5,-75.5 285.5,-75.5 285.5,-56.5 148.5,-56.5"/>
<text text-anchor="middle" x="217" y="-63.5" font-family="FreeSans" font-size="10.00">os_memory_strategies.c</text>
</a>
</g>
</g>
<!-- Node6&#45;&gt;Node8 -->
<g id="edge7" class="edge">
<title>Node6&#45;&gt;Node8</title>
<path fill="none" stroke="midnightblue" d="M400.8,-110.15C357.34,-99.95 293.16,-84.88 253.27,-75.52"/>
<polygon fill="midnightblue" stroke="midnightblue" points="400.02,-113.57 410.56,-112.44 401.62,-106.75 400.02,-113.57"/>
</g>
<!-- Node6&#45;&gt;Node9 -->
<g id="edge8" class="edge">
<title>Node6&#45;&gt;Node9</title>
<path fill="none" stroke="midnightblue" d="M447,-101.8C447,-92.91 447,-82.78 447,-75.75"/>
<polygon fill="midnightblue" stroke="midnightblue" points="443.5,-102.08 447,-112.08 450.5,-102.08 443.5,-102.08"/>
</g>
<!-- Node10 -->
<g id="node10" class="node">
<title>Node10</title>
<g id="a_node10"><a xlink:href="os__taskman_8c.html" target="_top" xlink:title=" ">
<polygon fill="white" stroke="black" points="568,-0.5 568,-19.5 652,-19.5 652,-0.5 568,-0.5"/>
<text text-anchor="middle" x="610" y="-7.5" font-family="FreeSans" font-size="10.00">os_taskman.c</text>
</a>
</g>
</g>
<!-- Node6&#45;&gt;Node10 -->
<g id="edge9" class="edge">
<title>Node6&#45;&gt;Node10</title>
<path fill="none" stroke="midnightblue" d="M498.23,-115.74C547.65,-109.48 617.36,-97.12 634,-76 647.55,-58.8 629.7,-33.2 618.25,-19.84"/>
<polygon fill="midnightblue" stroke="midnightblue" points="497.52,-112.3 488.02,-116.98 498.37,-119.25 497.52,-112.3"/>
</g>
<!-- Node11 -->
<g id="node11" class="node">
<title>Node11</title>
<g id="a_node11"><a xlink:href="os__user__privileges_8h.html" target="_top" xlink:title="User privileges specification used in part by the task manager.">
<polygon fill="white" stroke="black" points="509,-56.5 509,-75.5 625,-75.5 625,-56.5 509,-56.5"/>
<text text-anchor="middle" x="567" y="-63.5" font-family="FreeSans" font-size="10.00">os_user_privileges.h</text>
</a>
</g>
</g>
<!-- Node6&#45;&gt;Node11 -->
<g id="edge10" class="edge">
<title>Node6&#45;&gt;Node11</title>
<path fill="none" stroke="midnightblue" d="M475.37,-108.23C497.82,-98.13 528.54,-84.31 548.07,-75.52"/>
<polygon fill="midnightblue" stroke="midnightblue" points="473.7,-105.15 466.01,-112.44 476.57,-111.53 473.7,-105.15"/>
</g>
<!-- Node12 -->
<g id="node12" class="node">
<title>Node12</title>
<g id="a_node12"><a xlink:href="tlcd__core_8h.html" target="_top" xlink:title="Core library for the touchpanel EA EDIPTFT43&#45;ATP.">
<polygon fill="white" stroke="black" points="681,-56.5 681,-75.5 751,-75.5 751,-56.5 681,-56.5"/>
<text text-anchor="middle" x="716" y="-63.5" font-family="FreeSans" font-size="10.00">tlcd_core.h</text>
</a>
</g>
</g>
<!-- Node6&#45;&gt;Node12 -->
<g id="edge12" class="edge">
<title>Node6&#45;&gt;Node12</title>
<path fill="none" stroke="midnightblue" d="M498.12,-110.74C551.64,-100 634.25,-83.41 680.86,-74.05"/>
<polygon fill="midnightblue" stroke="midnightblue" points="497.26,-107.34 488.15,-112.74 498.64,-114.2 497.26,-107.34"/>
</g>
<!-- Node11&#45;&gt;Node10 -->
<g id="edge11" class="edge">
<title>Node11&#45;&gt;Node10</title>
<path fill="none" stroke="midnightblue" d="M580.42,-48.14C587.91,-38.74 596.94,-27.4 603.03,-19.75"/>
<polygon fill="midnightblue" stroke="midnightblue" points="577.59,-46.08 574.1,-56.08 583.07,-50.44 577.59,-46.08"/>
</g>
<!-- Node13&#45;&gt;Node5 -->
<g id="edge14" class="edge">
<title>Node13&#45;&gt;Node5</title>
<path fill="none" stroke="midnightblue" d="M236.84,-109.96C196.04,-99.76 136.29,-84.82 99.07,-75.52"/>
<polygon fill="midnightblue" stroke="midnightblue" points="236.22,-113.41 246.77,-112.44 237.92,-106.62 236.22,-113.41"/>
</g>
<!-- Node13&#45;&gt;Node7 -->
<g id="edge15" class="edge">
<title>Node13&#45;&gt;Node7</title>
<path fill="none" stroke="midnightblue" d="M299.04,-105.54C310.27,-95.91 324.32,-83.87 333.69,-75.83"/>
<polygon fill="midnightblue" stroke="midnightblue" points="296.44,-103.16 291.12,-112.32 300.99,-108.47 296.44,-103.16"/>
</g>
<!-- Node13&#45;&gt;Node8 -->
<g id="edge16" class="edge">
<title>Node13&#45;&gt;Node8</title>
<path fill="none" stroke="midnightblue" d="M263.01,-105.82C251.54,-96.15 237.09,-83.95 227.47,-75.83"/>
<polygon fill="midnightblue" stroke="midnightblue" points="260.82,-108.55 270.72,-112.32 265.33,-103.2 260.82,-108.55"/>
</g>
</g>
</svg>
