<?xml version="1.0" encoding="UTF-8" standalone="no"?>
<!DOCTYPE svg PUBLIC "-//W3C//DTD SVG 1.1//EN"
 "http://www.w3.org/Graphics/SVG/1.1/DTD/svg11.dtd">
<!-- Generated by graphviz version 2.43.0 (0)
 -->
<!-- Title: tlcd_readData Pages: 1 -->
<svg width="287pt" height="104pt"
 viewBox="0.00 0.00 287.00 104.00" xmlns="http://www.w3.org/2000/svg" xmlns:xlink="http://www.w3.org/1999/xlink">
<g id="graph0" class="graph" transform="scale(1 1) rotate(0) translate(4 100)">
<title>tlcd_readData</title>
<polygon fill="white" stroke="transparent" points="-4,4 -4,-100 283,-100 283,4 -4,4"/>
<!-- Node1 -->
<g id="node1" class="node">
<title>Node1</title>
<g id="a_node1"><a xlink:title="Reads the complete contenet of the TLCD sending buffer into the local input buffer.">
<polygon fill="#bfbfbf" stroke="black" points="0,-38.5 0,-57.5 85,-57.5 85,-38.5 0,-38.5"/>
<text text-anchor="middle" x="42.5" y="-45.5" font-family="FreeSans" font-size="10.00">tlcd_readData</text>
</a>
</g>
</g>
<!-- Node2 -->
<g id="node2" class="node">
<title>Node2</title>
<g id="a_node2"><a xlink:href="tlcd__core_8h.html#a9fdfeebbfe9ed030957579fdaac1d93a" target="_top" xlink:title="Tries to read a byte from the display.">
<polygon fill="white" stroke="black" points="158,-76.5 158,-95.5 242,-95.5 242,-76.5 158,-76.5"/>
<text text-anchor="middle" x="200" y="-83.5" font-family="FreeSans" font-size="10.00">tlcd_readByte</text>
</a>
</g>
</g>
<!-- Node1&#45;&gt;Node2 -->
<g id="edge1" class="edge">
<title>Node1&#45;&gt;Node2</title>
<path fill="none" stroke="midnightblue" d="M82.53,-57.58C94.83,-60.6 108.48,-63.94 121,-67 130.35,-69.28 140.32,-71.72 149.91,-74.05"/>
<polygon fill="midnightblue" stroke="midnightblue" points="149.17,-77.48 159.72,-76.44 150.83,-70.68 149.17,-77.48"/>
</g>
<!-- Node3 -->
<g id="node3" class="node">
<title>Node3</title>
<g id="a_node3"><a xlink:href="tlcd__core_8h.html#afb698d48de13c7c98bfe72f3f5d51b94" target="_top" xlink:title="Resets a given buffer.">
<polygon fill="white" stroke="black" points="153,-38.5 153,-57.5 247,-57.5 247,-38.5 153,-38.5"/>
<text text-anchor="middle" x="200" y="-45.5" font-family="FreeSans" font-size="10.00">tlcd_resetBuffer</text>
</a>
</g>
</g>
<!-- Node1&#45;&gt;Node3 -->
<g id="edge2" class="edge">
<title>Node1&#45;&gt;Node3</title>
<path fill="none" stroke="midnightblue" d="M85.17,-48C102.86,-48 123.76,-48 142.78,-48"/>
<polygon fill="midnightblue" stroke="midnightblue" points="142.83,-51.5 152.83,-48 142.83,-44.5 142.83,-51.5"/>
</g>
<!-- Node4 -->
<g id="node4" class="node">
<title>Node4</title>
<g id="a_node4"><a xlink:href="tlcd__core_8h.html#a50143fb97258911b41c0c076f9448a0f" target="_top" xlink:title="Writes the given byte into the specified buffer.">
<polygon fill="white" stroke="black" points="121,-0.5 121,-19.5 279,-19.5 279,-0.5 121,-0.5"/>
<text text-anchor="middle" x="200" y="-7.5" font-family="FreeSans" font-size="10.00">tlcd_writeNextBufferElement</text>
</a>
</g>
</g>
<!-- Node1&#45;&gt;Node4 -->
<g id="edge3" class="edge">
<title>Node1&#45;&gt;Node4</title>
<path fill="none" stroke="midnightblue" d="M82.53,-38.42C94.83,-35.4 108.48,-32.06 121,-29 130.35,-26.72 140.32,-24.28 149.91,-21.95"/>
<polygon fill="midnightblue" stroke="midnightblue" points="150.83,-25.32 159.72,-19.56 149.17,-18.52 150.83,-25.32"/>
</g>
</g>
</svg>
