<?xml version="1.0" encoding="UTF-8" standalone="no"?>
<!DOCTYPE svg PUBLIC "-//W3C//DTD SVG 1.1//EN"
 "http://www.w3.org/Graphics/SVG/1.1/DTD/svg11.dtd">
<!-- Generated by graphviz version 2.43.0 (0)
 -->
<!-- Title: tlcd_core.h Pages: 1 -->
<svg width="442pt" height="364pt"
 viewBox="0.00 0.00 442.00 364.00" xmlns="http://www.w3.org/2000/svg" xmlns:xlink="http://www.w3.org/1999/xlink">
<g id="graph0" class="graph" transform="scale(1 1) rotate(0) translate(4 360)">
<title>tlcd_core.h</title>
<polygon fill="white" stroke="transparent" points="-4,4 -4,-360 438,-360 438,4 -4,4"/>
<!-- Node1 -->
<g id="node1" class="node">
<title>Node1</title>
<g id="a_node1"><a xlink:title="Core library for the touchpanel EA EDIPTFT43&#45;ATP.">
<polygon fill="#bfbfbf" stroke="black" points="250.5,-336.5 250.5,-355.5 320.5,-355.5 320.5,-336.5 250.5,-336.5"/>
<text text-anchor="middle" x="285.5" y="-343.5" font-family="FreeSans" font-size="10.00">tlcd_core.h</text>
</a>
</g>
</g>
<!-- Node2 -->
<g id="node2" class="node">
<title>Node2</title>
<g id="a_node2"><a xlink:title=" ">
<polygon fill="white" stroke="#bfbfbf" points="381,-112.5 381,-131.5 434,-131.5 434,-112.5 381,-112.5"/>
<text text-anchor="middle" x="407.5" y="-119.5" font-family="FreeSans" font-size="10.00">stdint.h</text>
</a>
</g>
</g>
<!-- Node1&#45;&gt;Node2 -->
<g id="edge1" class="edge">
<title>Node1&#45;&gt;Node2</title>
<path fill="none" stroke="midnightblue" d="M295.01,-336.24C318.32,-314.08 378.16,-252.93 402.5,-188 408.03,-173.25 409.02,-155.32 408.78,-142.03"/>
<polygon fill="midnightblue" stroke="midnightblue" points="412.26,-141.58 408.33,-131.74 405.27,-141.88 412.26,-141.58"/>
</g>
<!-- Node3 -->
<g id="node3" class="node">
<title>Node3</title>
<g id="a_node3"><a xlink:href="os__memory_8h.html" target="_top" xlink:title="Library for OS memory management.">
<polygon fill="white" stroke="black" points="176.5,-280.5 176.5,-299.5 258.5,-299.5 258.5,-280.5 176.5,-280.5"/>
<text text-anchor="middle" x="217.5" y="-287.5" font-family="FreeSans" font-size="10.00">os_memory.h</text>
</a>
</g>
</g>
<!-- Node1&#45;&gt;Node3 -->
<g id="edge2" class="edge">
<title>Node1&#45;&gt;Node3</title>
<path fill="none" stroke="midnightblue" d="M274.57,-336.32C264.33,-328.18 248.78,-315.84 236.5,-306.09"/>
<polygon fill="midnightblue" stroke="midnightblue" points="238.63,-303.31 228.62,-299.83 234.28,-308.79 238.63,-303.31"/>
</g>
<!-- Node4 -->
<g id="node4" class="node">
<title>Node4</title>
<g id="a_node4"><a xlink:href="os__mem__drivers_8h.html" target="_top" xlink:title="Drivers for OS memory management.">
<polygon fill="white" stroke="black" points="0,-168.5 0,-187.5 107,-187.5 107,-168.5 0,-168.5"/>
<text text-anchor="middle" x="53.5" y="-175.5" font-family="FreeSans" font-size="10.00">os_mem_drivers.h</text>
</a>
</g>
</g>
<!-- Node3&#45;&gt;Node4 -->
<g id="edge3" class="edge">
<title>Node3&#45;&gt;Node4</title>
<path fill="none" stroke="midnightblue" d="M176.26,-284.89C146.06,-279.87 105.89,-268.72 79.5,-244 66.49,-231.82 59.86,-212.27 56.56,-197.78"/>
<polygon fill="midnightblue" stroke="midnightblue" points="59.98,-197.05 54.64,-187.9 53.11,-198.39 59.98,-197.05"/>
</g>
<!-- Node9 -->
<g id="node9" class="node">
<title>Node9</title>
<g id="a_node9"><a xlink:href="os__memheap__drivers_8h.html" target="_top" xlink:title="Drivers for OS heap management.">
<polygon fill="white" stroke="black" points="89,-224.5 89,-243.5 220,-243.5 220,-224.5 89,-224.5"/>
<text text-anchor="middle" x="154.5" y="-231.5" font-family="FreeSans" font-size="10.00">os_memheap_drivers.h</text>
</a>
</g>
</g>
<!-- Node3&#45;&gt;Node9 -->
<g id="edge8" class="edge">
<title>Node3&#45;&gt;Node9</title>
<path fill="none" stroke="midnightblue" d="M207.38,-280.32C197.97,-272.26 183.76,-260.08 172.43,-250.37"/>
<polygon fill="midnightblue" stroke="midnightblue" points="174.68,-247.68 164.81,-243.83 170.12,-253 174.68,-247.68"/>
</g>
<!-- Node11 -->
<g id="node11" class="node">
<title>Node11</title>
<g id="a_node11"><a xlink:href="os__scheduler_8h.html" target="_top" xlink:title="Scheduling module for the OS.">
<polygon fill="white" stroke="black" points="239,-224.5 239,-243.5 328,-243.5 328,-224.5 239,-224.5"/>
<text text-anchor="middle" x="283.5" y="-231.5" font-family="FreeSans" font-size="10.00">os_scheduler.h</text>
</a>
</g>
</g>
<!-- Node3&#45;&gt;Node11 -->
<g id="edge12" class="edge">
<title>Node3&#45;&gt;Node11</title>
<path fill="none" stroke="midnightblue" d="M228.1,-280.32C237.96,-272.26 252.85,-260.08 264.72,-250.37"/>
<polygon fill="midnightblue" stroke="midnightblue" points="267.18,-252.88 272.7,-243.83 262.75,-247.46 267.18,-252.88"/>
</g>
<!-- Node5 -->
<g id="node5" class="node">
<title>Node5</title>
<g id="a_node5"><a xlink:title=" ">
<polygon fill="white" stroke="#bfbfbf" points="21,-112.5 21,-131.5 86,-131.5 86,-112.5 21,-112.5"/>
<text text-anchor="middle" x="53.5" y="-119.5" font-family="FreeSans" font-size="10.00">inttypes.h</text>
</a>
</g>
</g>
<!-- Node4&#45;&gt;Node5 -->
<g id="edge4" class="edge">
<title>Node4&#45;&gt;Node5</title>
<path fill="none" stroke="midnightblue" d="M53.5,-168.08C53.5,-161.01 53.5,-150.86 53.5,-141.99"/>
<polygon fill="midnightblue" stroke="midnightblue" points="57,-141.75 53.5,-131.75 50,-141.75 57,-141.75"/>
</g>
<!-- Node6 -->
<g id="node6" class="node">
<title>Node6</title>
<g id="a_node6"><a xlink:href="defines_8h.html" target="_top" xlink:title="Simple definitions and assembler&#45;macros, mostly 8/16&#45;Bit values.">
<polygon fill="white" stroke="black" points="179,-112.5 179,-131.5 240,-131.5 240,-112.5 179,-112.5"/>
<text text-anchor="middle" x="209.5" y="-119.5" font-family="FreeSans" font-size="10.00">defines.h</text>
</a>
</g>
</g>
<!-- Node4&#45;&gt;Node6 -->
<g id="edge5" class="edge">
<title>Node4&#45;&gt;Node6</title>
<path fill="none" stroke="midnightblue" d="M78.22,-168.44C104.35,-159.4 145.76,-145.06 175.08,-134.92"/>
<polygon fill="midnightblue" stroke="midnightblue" points="176.59,-138.1 184.9,-131.52 174.3,-131.48 176.59,-138.1"/>
</g>
<!-- Node7 -->
<g id="node7" class="node">
<title>Node7</title>
<g id="a_node7"><a xlink:href="atmega644constants_8h.html" target="_top" xlink:title="Constants for ATMega644 and EVA board. Defines several useful constants for the ATMega644.">
<polygon fill="white" stroke="black" points="145.5,-56.5 145.5,-75.5 273.5,-75.5 273.5,-56.5 145.5,-56.5"/>
<text text-anchor="middle" x="209.5" y="-63.5" font-family="FreeSans" font-size="10.00">atmega644constants.h</text>
</a>
</g>
</g>
<!-- Node6&#45;&gt;Node7 -->
<g id="edge6" class="edge">
<title>Node6&#45;&gt;Node7</title>
<path fill="none" stroke="midnightblue" d="M209.5,-112.08C209.5,-105.01 209.5,-94.86 209.5,-85.99"/>
<polygon fill="midnightblue" stroke="midnightblue" points="213,-85.75 209.5,-75.75 206,-85.75 213,-85.75"/>
</g>
<!-- Node8 -->
<g id="node8" class="node">
<title>Node8</title>
<g id="a_node8"><a xlink:title=" ">
<polygon fill="white" stroke="#bfbfbf" points="183,-0.5 183,-19.5 236,-19.5 236,-0.5 183,-0.5"/>
<text text-anchor="middle" x="209.5" y="-7.5" font-family="FreeSans" font-size="10.00">avr/io.h</text>
</a>
</g>
</g>
<!-- Node7&#45;&gt;Node8 -->
<g id="edge7" class="edge">
<title>Node7&#45;&gt;Node8</title>
<path fill="none" stroke="midnightblue" d="M209.5,-56.08C209.5,-49.01 209.5,-38.86 209.5,-29.99"/>
<polygon fill="midnightblue" stroke="midnightblue" points="213,-29.75 209.5,-19.75 206,-29.75 213,-29.75"/>
</g>
<!-- Node9&#45;&gt;Node4 -->
<g id="edge9" class="edge">
<title>Node9&#45;&gt;Node4</title>
<path fill="none" stroke="midnightblue" d="M138.27,-224.32C122.15,-215.7 97.2,-202.36 78.54,-192.39"/>
<polygon fill="midnightblue" stroke="midnightblue" points="80.16,-189.28 69.69,-187.65 76.86,-195.46 80.16,-189.28"/>
</g>
<!-- Node9&#45;&gt;Node6 -->
<g id="edge10" class="edge">
<title>Node9&#45;&gt;Node6</title>
<path fill="none" stroke="midnightblue" d="M163.08,-224.43C171.2,-215.88 183.21,-202.02 190.5,-188 198.13,-173.33 203.11,-155.16 206.05,-141.77"/>
<polygon fill="midnightblue" stroke="midnightblue" points="209.51,-142.31 208.05,-131.82 202.65,-140.93 209.51,-142.31"/>
</g>
<!-- Node10 -->
<g id="node10" class="node">
<title>Node10</title>
<g id="a_node10"><a xlink:title=" ">
<polygon fill="white" stroke="#bfbfbf" points="125.5,-168.5 125.5,-187.5 181.5,-187.5 181.5,-168.5 125.5,-168.5"/>
<text text-anchor="middle" x="153.5" y="-175.5" font-family="FreeSans" font-size="10.00">stddef.h</text>
</a>
</g>
</g>
<!-- Node9&#45;&gt;Node10 -->
<g id="edge11" class="edge">
<title>Node9&#45;&gt;Node10</title>
<path fill="none" stroke="midnightblue" d="M154.33,-224.08C154.2,-217.01 154.02,-206.86 153.85,-197.99"/>
<polygon fill="midnightblue" stroke="midnightblue" points="157.35,-197.68 153.66,-187.75 150.35,-197.81 157.35,-197.68"/>
</g>
<!-- Node11&#45;&gt;Node6 -->
<g id="edge14" class="edge">
<title>Node11&#45;&gt;Node6</title>
<path fill="none" stroke="midnightblue" d="M277.69,-224.37C265.48,-206.22 236.95,-163.8 220.93,-139.99"/>
<polygon fill="midnightblue" stroke="midnightblue" points="223.77,-137.94 215.28,-131.59 217.96,-141.84 223.77,-137.94"/>
</g>
<!-- Node12 -->
<g id="node12" class="node">
<title>Node12</title>
<g id="a_node12"><a xlink:title=" ">
<polygon fill="white" stroke="#bfbfbf" points="286.5,-112.5 286.5,-131.5 348.5,-131.5 348.5,-112.5 286.5,-112.5"/>
<text text-anchor="middle" x="317.5" y="-119.5" font-family="FreeSans" font-size="10.00">stdbool.h</text>
</a>
</g>
</g>
<!-- Node11&#45;&gt;Node12 -->
<g id="edge13" class="edge">
<title>Node11&#45;&gt;Node12</title>
<path fill="none" stroke="midnightblue" d="M286.17,-224.37C291.68,-206.54 304.43,-165.3 311.85,-141.27"/>
<polygon fill="midnightblue" stroke="midnightblue" points="315.24,-142.18 314.84,-131.59 308.55,-140.11 315.24,-142.18"/>
</g>
<!-- Node13 -->
<g id="node13" class="node">
<title>Node13</title>
<g id="a_node13"><a xlink:href="os__process_8h.html" target="_top" xlink:title="Struct specifying a process.">
<polygon fill="white" stroke="black" points="313.5,-168.5 313.5,-187.5 393.5,-187.5 393.5,-168.5 313.5,-168.5"/>
<text text-anchor="middle" x="353.5" y="-175.5" font-family="FreeSans" font-size="10.00">os_process.h</text>
</a>
</g>
</g>
<!-- Node11&#45;&gt;Node13 -->
<g id="edge15" class="edge">
<title>Node11&#45;&gt;Node13</title>
<path fill="none" stroke="midnightblue" d="M294.75,-224.32C305.3,-216.18 321.3,-203.84 333.94,-194.09"/>
<polygon fill="midnightblue" stroke="midnightblue" points="336.27,-196.71 342.05,-187.83 331.99,-191.17 336.27,-196.71"/>
</g>
<!-- Node13&#45;&gt;Node2 -->
<g id="edge16" class="edge">
<title>Node13&#45;&gt;Node2</title>
<path fill="none" stroke="midnightblue" d="M362.42,-168.08C370.28,-160.22 381.93,-148.57 391.42,-139.08"/>
<polygon fill="midnightblue" stroke="midnightblue" points="394.15,-141.3 398.75,-131.75 389.2,-136.35 394.15,-141.3"/>
</g>
<!-- Node13&#45;&gt;Node12 -->
<g id="edge17" class="edge">
<title>Node13&#45;&gt;Node12</title>
<path fill="none" stroke="midnightblue" d="M347.56,-168.08C342.52,-160.53 335.16,-149.49 328.99,-140.23"/>
<polygon fill="midnightblue" stroke="midnightblue" points="331.79,-138.13 323.33,-131.75 325.97,-142.01 331.79,-138.13"/>
</g>
</g>
</svg>
