<?xml version="1.0" encoding="UTF-8" standalone="no"?>
<!DOCTYPE svg PUBLIC "-//W3C//DTD SVG 1.1//EN"
 "http://www.w3.org/Graphics/SVG/1.1/DTD/svg11.dtd">
<!-- Generated by graphviz version 2.43.0 (0)
 -->
<!-- Title: tlcd_initBuffer Pages: 1 -->
<svg width="502pt" height="66pt"
 viewBox="0.00 0.00 502.00 66.00" xmlns="http://www.w3.org/2000/svg" xmlns:xlink="http://www.w3.org/1999/xlink">
<g id="graph0" class="graph" transform="scale(1 1) rotate(0) translate(4 62)">
<title>tlcd_initBuffer</title>
<polygon fill="white" stroke="transparent" points="-4,4 -4,-62 498,-62 498,4 -4,4"/>
<!-- Node1 -->
<g id="node1" class="node">
<title>Node1</title>
<g id="a_node1"><a xlink:title="Initializes the command buffer.">
<polygon fill="#bfbfbf" stroke="black" points="0,-19.5 0,-38.5 85,-38.5 85,-19.5 0,-19.5"/>
<text text-anchor="middle" x="42.5" y="-26.5" font-family="FreeSans" font-size="10.00">tlcd_initBuffer</text>
</a>
</g>
</g>
<!-- Node2 -->
<g id="node2" class="node">
<title>Node2</title>
<g id="a_node2"><a xlink:href="os__memory_8c.html#a5644c571680a5c019c91c30bee4d5d7e" target="_top" xlink:title="Function used to allocate private memory.">
<polygon fill="white" stroke="black" points="121,-19.5 121,-38.5 187,-38.5 187,-19.5 121,-19.5"/>
<text text-anchor="middle" x="154" y="-26.5" font-family="FreeSans" font-size="10.00">os_malloc</text>
</a>
</g>
</g>
<!-- Node1&#45;&gt;Node2 -->
<g id="edge1" class="edge">
<title>Node1&#45;&gt;Node2</title>
<path fill="none" stroke="midnightblue" d="M85.21,-29C93.63,-29 102.49,-29 110.92,-29"/>
<polygon fill="midnightblue" stroke="midnightblue" points="110.94,-32.5 120.94,-29 110.94,-25.5 110.94,-32.5"/>
</g>
<!-- Node3 -->
<g id="node3" class="node">
<title>Node3</title>
<g id="a_node3"><a xlink:href="os__scheduler_8c.html#a917313bbbb324677f26dfdf2ad80de3d" target="_top" xlink:title="Returns the currently active process.">
<polygon fill="white" stroke="black" points="223,-38.5 223,-57.5 329,-57.5 329,-38.5 223,-38.5"/>
<text text-anchor="middle" x="276" y="-45.5" font-family="FreeSans" font-size="10.00">os_getCurrentProc</text>
</a>
</g>
</g>
<!-- Node2&#45;&gt;Node3 -->
<g id="edge2" class="edge">
<title>Node2&#45;&gt;Node3</title>
<path fill="none" stroke="midnightblue" d="M187.16,-34.09C195.13,-35.35 203.94,-36.75 212.82,-38.15"/>
<polygon fill="midnightblue" stroke="midnightblue" points="212.4,-41.63 222.82,-39.74 213.49,-34.72 212.4,-41.63"/>
</g>
<!-- Node4 -->
<g id="node4" class="node">
<title>Node4</title>
<g id="a_node4"><a xlink:href="os__memory_8c.html#a5898dee5872eb916998a582be5531506" target="_top" xlink:title=" ">
<polygon fill="white" stroke="black" points="227,-0.5 227,-19.5 325,-19.5 325,-0.5 227,-0.5"/>
<text text-anchor="middle" x="276" y="-7.5" font-family="FreeSans" font-size="10.00">os_mallocOwner</text>
</a>
</g>
</g>
<!-- Node2&#45;&gt;Node4 -->
<g id="edge3" class="edge">
<title>Node2&#45;&gt;Node4</title>
<path fill="none" stroke="midnightblue" d="M187.16,-23.91C196.32,-22.46 206.6,-20.83 216.81,-19.21"/>
<polygon fill="midnightblue" stroke="midnightblue" points="217.62,-22.63 226.95,-17.61 216.52,-15.72 217.62,-22.63"/>
</g>
<!-- Node5 -->
<g id="node5" class="node">
<title>Node5</title>
<g id="a_node5"><a xlink:href="os__scheduler_8c.html#a9d27b2dbf45ce6648916ed5ceb0a38df" target="_top" xlink:title="Enters a critical code section.">
<polygon fill="white" stroke="black" points="365,-0.5 365,-19.5 494,-19.5 494,-0.5 365,-0.5"/>
<text text-anchor="middle" x="429.5" y="-7.5" font-family="FreeSans" font-size="10.00">os_enterCriticalSection</text>
</a>
</g>
</g>
<!-- Node4&#45;&gt;Node5 -->
<g id="edge4" class="edge">
<title>Node4&#45;&gt;Node5</title>
<path fill="none" stroke="midnightblue" d="M325.35,-10C334.67,-10 344.63,-10 354.55,-10"/>
<polygon fill="midnightblue" stroke="midnightblue" points="354.84,-13.5 364.84,-10 354.84,-6.5 354.84,-13.5"/>
</g>
</g>
</svg>
