<?xml version="1.0" encoding="UTF-8" standalone="no"?>
<!DOCTYPE svg PUBLIC "-//W3C//DTD SVG 1.1//EN"
 "http://www.w3.org/Graphics/SVG/1.1/DTD/svg11.dtd">
<!-- Generated by graphviz version 2.43.0 (0)
 -->
<!-- Title: util.c Pages: 1 -->
<svg width="643pt" height="252pt"
 viewBox="0.00 0.00 642.50 252.00" xmlns="http://www.w3.org/2000/svg" xmlns:xlink="http://www.w3.org/1999/xlink">
<g id="graph0" class="graph" transform="scale(1 1) rotate(0) translate(4 248)">
<title>util.c</title>
<polygon fill="white" stroke="transparent" points="-4,4 -4,-248 638.5,-248 638.5,4 -4,4"/>
<!-- Node1 -->
<g id="node1" class="node">
<title>Node1</title>
<g id="a_node1"><a xlink:title=" ">
<polygon fill="#bfbfbf" stroke="black" points="347,-224.5 347,-243.5 388,-243.5 388,-224.5 347,-224.5"/>
<text text-anchor="middle" x="367.5" y="-231.5" font-family="FreeSans" font-size="10.00">util.c</text>
</a>
</g>
</g>
<!-- Node2 -->
<g id="node2" class="node">
<title>Node2</title>
<g id="a_node2"><a xlink:href="util_8h.html" target="_top" xlink:title="Little helpers that don&#39;t fit elsewhere.">
<polygon fill="white" stroke="black" points="230,-112.5 230,-131.5 271,-131.5 271,-112.5 230,-112.5"/>
<text text-anchor="middle" x="250.5" y="-119.5" font-family="FreeSans" font-size="10.00">util.h</text>
</a>
</g>
</g>
<!-- Node1&#45;&gt;Node2 -->
<g id="edge1" class="edge">
<title>Node1&#45;&gt;Node2</title>
<path fill="none" stroke="midnightblue" d="M350.13,-224.48C334.89,-216.45 312.69,-203.38 296.5,-188 281.82,-174.05 268.88,-154.79 260.5,-140.86"/>
<polygon fill="midnightblue" stroke="midnightblue" points="263.29,-138.69 255.24,-131.81 257.24,-142.21 263.29,-138.69"/>
</g>
<!-- Node6 -->
<g id="node6" class="node">
<title>Node6</title>
<g id="a_node6"><a xlink:href="atmega644constants_8h.html" target="_top" xlink:title="Constants for ATMega644 and EVA board. Defines several useful constants for the ATMega644.">
<polygon fill="white" stroke="black" points="364.5,-56.5 364.5,-75.5 492.5,-75.5 492.5,-56.5 364.5,-56.5"/>
<text text-anchor="middle" x="428.5" y="-63.5" font-family="FreeSans" font-size="10.00">atmega644constants.h</text>
</a>
</g>
</g>
<!-- Node1&#45;&gt;Node6 -->
<g id="edge5" class="edge">
<title>Node1&#45;&gt;Node6</title>
<path fill="none" stroke="midnightblue" d="M376.27,-224.27C392.01,-207.9 424.53,-170.75 436.5,-132 441.22,-116.72 438.34,-98.62 434.79,-85.4"/>
<polygon fill="midnightblue" stroke="midnightblue" points="438.07,-84.15 431.79,-75.61 431.37,-86.2 438.07,-84.15"/>
</g>
<!-- Node7 -->
<g id="node7" class="node">
<title>Node7</title>
<g id="a_node7"><a xlink:title=" ">
<polygon fill="white" stroke="#bfbfbf" points="448,-0.5 448,-19.5 501,-19.5 501,-0.5 448,-0.5"/>
<text text-anchor="middle" x="474.5" y="-7.5" font-family="FreeSans" font-size="10.00">avr/io.h</text>
</a>
</g>
</g>
<!-- Node1&#45;&gt;Node7 -->
<g id="edge20" class="edge">
<title>Node1&#45;&gt;Node7</title>
<path fill="none" stroke="midnightblue" d="M381.96,-224.44C395.09,-216.2 414.5,-202.84 428.5,-188 469.28,-144.79 484.58,-132.96 501.5,-76 506.49,-59.22 497.44,-40.87 488.5,-27.96"/>
<polygon fill="midnightblue" stroke="midnightblue" points="491.03,-25.5 482.22,-19.62 485.44,-29.71 491.03,-25.5"/>
</g>
<!-- Node8 -->
<g id="node8" class="node">
<title>Node8</title>
<g id="a_node8"><a xlink:href="defines_8h.html" target="_top" xlink:title="Simple definitions and assembler&#45;macros, mostly 8/16&#45;Bit values.">
<polygon fill="white" stroke="black" points="366,-112.5 366,-131.5 427,-131.5 427,-112.5 366,-112.5"/>
<text text-anchor="middle" x="396.5" y="-119.5" font-family="FreeSans" font-size="10.00">defines.h</text>
</a>
</g>
</g>
<!-- Node1&#45;&gt;Node8 -->
<g id="edge7" class="edge">
<title>Node1&#45;&gt;Node8</title>
<path fill="none" stroke="midnightblue" d="M369.78,-224.37C374.48,-206.54 385.35,-165.3 391.68,-141.27"/>
<polygon fill="midnightblue" stroke="midnightblue" points="395.07,-142.15 394.23,-131.59 388.3,-140.37 395.07,-142.15"/>
</g>
<!-- Node9 -->
<g id="node9" class="node">
<title>Node9</title>
<g id="a_node9"><a xlink:href="os__core_8h.html" target="_top" xlink:title="Core of the OS.">
<polygon fill="white" stroke="black" points="306,-168.5 306,-187.5 369,-187.5 369,-168.5 306,-168.5"/>
<text text-anchor="middle" x="337.5" y="-175.5" font-family="FreeSans" font-size="10.00">os_core.h</text>
</a>
</g>
</g>
<!-- Node1&#45;&gt;Node9 -->
<g id="edge9" class="edge">
<title>Node1&#45;&gt;Node9</title>
<path fill="none" stroke="midnightblue" d="M362.55,-224.08C358.4,-216.61 352.35,-205.72 347.23,-196.52"/>
<polygon fill="midnightblue" stroke="midnightblue" points="350.28,-194.79 342.36,-187.75 344.16,-198.19 350.28,-194.79"/>
</g>
<!-- Node10 -->
<g id="node10" class="node">
<title>Node10</title>
<g id="a_node10"><a xlink:href="os__input_8h.html" target="_top" xlink:title="Input library for the OS.">
<polygon fill="white" stroke="black" points="0,-112.5 0,-131.5 67,-131.5 67,-112.5 0,-112.5"/>
<text text-anchor="middle" x="33.5" y="-119.5" font-family="FreeSans" font-size="10.00">os_input.h</text>
</a>
</g>
</g>
<!-- Node1&#45;&gt;Node10 -->
<g id="edge11" class="edge">
<title>Node1&#45;&gt;Node10</title>
<path fill="none" stroke="midnightblue" d="M346.98,-228.23C315.27,-220.68 252.57,-205.09 200.5,-188 151.48,-171.91 95.88,-149.39 62.81,-135.52"/>
<polygon fill="midnightblue" stroke="midnightblue" points="63.87,-132.17 53.3,-131.51 61.15,-138.62 63.87,-132.17"/>
</g>
<!-- Node11 -->
<g id="node11" class="node">
<title>Node11</title>
<g id="a_node11"><a xlink:href="lcd_8h.html" target="_top" xlink:title="Library for LCD use.">
<polygon fill="white" stroke="black" points="209.5,-168.5 209.5,-187.5 249.5,-187.5 249.5,-168.5 209.5,-168.5"/>
<text text-anchor="middle" x="229.5" y="-175.5" font-family="FreeSans" font-size="10.00">lcd.h</text>
</a>
</g>
</g>
<!-- Node1&#45;&gt;Node11 -->
<g id="edge13" class="edge">
<title>Node1&#45;&gt;Node11</title>
<path fill="none" stroke="midnightblue" d="M346.84,-224.92C323.64,-215.84 285.78,-201.02 259.36,-190.69"/>
<polygon fill="midnightblue" stroke="midnightblue" points="260.44,-187.35 249.85,-186.96 257.89,-193.87 260.44,-187.35"/>
</g>
<!-- Node13 -->
<g id="node13" class="node">
<title>Node13</title>
<g id="a_node13"><a xlink:title=" ">
<polygon fill="white" stroke="#bfbfbf" points="548.5,-168.5 548.5,-187.5 634.5,-187.5 634.5,-168.5 548.5,-168.5"/>
<text text-anchor="middle" x="591.5" y="-175.5" font-family="FreeSans" font-size="10.00">avr/interrupt.h</text>
</a>
</g>
</g>
<!-- Node1&#45;&gt;Node13 -->
<g id="edge21" class="edge">
<title>Node1&#45;&gt;Node13</title>
<path fill="none" stroke="midnightblue" d="M388.17,-228.02C423.87,-219.41 497.85,-201.58 546.04,-189.96"/>
<polygon fill="midnightblue" stroke="midnightblue" points="547.01,-193.33 555.91,-187.58 545.37,-186.52 547.01,-193.33"/>
</g>
<!-- Node3 -->
<g id="node3" class="node">
<title>Node3</title>
<g id="a_node3"><a xlink:title=" ">
<polygon fill="white" stroke="#bfbfbf" points="69,-56.5 69,-75.5 122,-75.5 122,-56.5 69,-56.5"/>
<text text-anchor="middle" x="95.5" y="-63.5" font-family="FreeSans" font-size="10.00">stdint.h</text>
</a>
</g>
</g>
<!-- Node2&#45;&gt;Node3 -->
<g id="edge2" class="edge">
<title>Node2&#45;&gt;Node3</title>
<path fill="none" stroke="midnightblue" d="M229.92,-113.83C204.28,-104.9 160.13,-89.52 129.45,-78.83"/>
<polygon fill="midnightblue" stroke="midnightblue" points="130.6,-75.52 120,-75.54 128.3,-82.13 130.6,-75.52"/>
</g>
<!-- Node4 -->
<g id="node4" class="node">
<title>Node4</title>
<g id="a_node4"><a xlink:title=" ">
<polygon fill="white" stroke="#bfbfbf" points="170.5,-56.5 170.5,-75.5 232.5,-75.5 232.5,-56.5 170.5,-56.5"/>
<text text-anchor="middle" x="201.5" y="-63.5" font-family="FreeSans" font-size="10.00">stdbool.h</text>
</a>
</g>
</g>
<!-- Node2&#45;&gt;Node4 -->
<g id="edge3" class="edge">
<title>Node2&#45;&gt;Node4</title>
<path fill="none" stroke="midnightblue" d="M242.41,-112.08C235.34,-104.3 224.91,-92.8 216.35,-83.37"/>
<polygon fill="midnightblue" stroke="midnightblue" points="218.75,-80.8 209.44,-75.75 213.57,-85.51 218.75,-80.8"/>
</g>
<!-- Node5 -->
<g id="node5" class="node">
<title>Node5</title>
<g id="a_node5"><a xlink:title=" ">
<polygon fill="white" stroke="#bfbfbf" points="251,-56.5 251,-75.5 346,-75.5 346,-56.5 251,-56.5"/>
<text text-anchor="middle" x="298.5" y="-63.5" font-family="FreeSans" font-size="10.00">avr/pgmspace.h</text>
</a>
</g>
</g>
<!-- Node2&#45;&gt;Node5 -->
<g id="edge4" class="edge">
<title>Node2&#45;&gt;Node5</title>
<path fill="none" stroke="midnightblue" d="M258.43,-112.08C265.35,-104.3 275.57,-92.8 283.95,-83.37"/>
<polygon fill="midnightblue" stroke="midnightblue" points="286.69,-85.55 290.72,-75.75 281.46,-80.9 286.69,-85.55"/>
</g>
<!-- Node6&#45;&gt;Node7 -->
<g id="edge6" class="edge">
<title>Node6&#45;&gt;Node7</title>
<path fill="none" stroke="midnightblue" d="M436.1,-56.08C442.73,-48.3 452.52,-36.8 460.56,-27.37"/>
<polygon fill="midnightblue" stroke="midnightblue" points="463.23,-29.63 467.05,-19.75 457.9,-25.09 463.23,-29.63"/>
</g>
<!-- Node8&#45;&gt;Node6 -->
<g id="edge8" class="edge">
<title>Node8&#45;&gt;Node6</title>
<path fill="none" stroke="midnightblue" d="M401.78,-112.08C406.21,-104.61 412.66,-93.72 418.12,-84.52"/>
<polygon fill="midnightblue" stroke="midnightblue" points="421.23,-86.14 423.31,-75.75 415.21,-82.57 421.23,-86.14"/>
</g>
<!-- Node9&#45;&gt;Node5 -->
<g id="edge10" class="edge">
<title>Node9&#45;&gt;Node5</title>
<path fill="none" stroke="midnightblue" d="M334.44,-168.37C328.12,-150.54 313.5,-109.3 304.98,-85.27"/>
<polygon fill="midnightblue" stroke="midnightblue" points="308.19,-83.85 301.55,-75.59 301.59,-86.19 308.19,-83.85"/>
</g>
<!-- Node10&#45;&gt;Node3 -->
<g id="edge12" class="edge">
<title>Node10&#45;&gt;Node3</title>
<path fill="none" stroke="midnightblue" d="M43.46,-112.32C52.63,-104.34 66.44,-92.31 77.53,-82.65"/>
<polygon fill="midnightblue" stroke="midnightblue" points="80.12,-85.04 85.36,-75.83 75.52,-79.76 80.12,-85.04"/>
</g>
<!-- Node11&#45;&gt;Node2 -->
<g id="edge19" class="edge">
<title>Node11&#45;&gt;Node2</title>
<path fill="none" stroke="midnightblue" d="M232.97,-168.08C235.81,-160.77 239.93,-150.18 243.46,-141.1"/>
<polygon fill="midnightblue" stroke="midnightblue" points="246.73,-142.34 247.1,-131.75 240.21,-139.8 246.73,-142.34"/>
</g>
<!-- Node11&#45;&gt;Node3 -->
<g id="edge15" class="edge">
<title>Node11&#45;&gt;Node3</title>
<path fill="none" stroke="midnightblue" d="M209.41,-174.58C183.76,-170.42 139.68,-159.52 114.5,-132 102.98,-119.41 98.41,-100.19 96.62,-85.91"/>
<polygon fill="midnightblue" stroke="midnightblue" points="100.09,-85.39 95.7,-75.75 93.12,-86.02 100.09,-85.39"/>
</g>
<!-- Node11&#45;&gt;Node4 -->
<g id="edge14" class="edge">
<title>Node11&#45;&gt;Node4</title>
<path fill="none" stroke="midnightblue" d="M227.3,-168.37C222.78,-150.62 212.36,-109.67 206.23,-85.6"/>
<polygon fill="midnightblue" stroke="midnightblue" points="209.55,-84.42 203.69,-75.59 202.76,-86.15 209.55,-84.42"/>
</g>
<!-- Node11&#45;&gt;Node5 -->
<g id="edge17" class="edge">
<title>Node11&#45;&gt;Node5</title>
<path fill="none" stroke="midnightblue" d="M242.87,-168.19C254.2,-160.08 270.05,-147.03 279.5,-132 288.4,-117.85 293.27,-99.36 295.85,-85.73"/>
<polygon fill="midnightblue" stroke="midnightblue" points="299.34,-86.05 297.51,-75.61 292.43,-84.91 299.34,-86.05"/>
</g>
<!-- Node11&#45;&gt;Node8 -->
<g id="edge18" class="edge">
<title>Node11&#45;&gt;Node8</title>
<path fill="none" stroke="midnightblue" d="M249.64,-170.49C277.04,-161.63 326.52,-145.63 360.41,-134.67"/>
<polygon fill="midnightblue" stroke="midnightblue" points="361.52,-137.99 369.95,-131.58 359.36,-131.33 361.52,-137.99"/>
</g>
<!-- Node12 -->
<g id="node12" class="node">
<title>Node12</title>
<g id="a_node12"><a xlink:title=" ">
<polygon fill="white" stroke="#bfbfbf" points="123.5,-112.5 123.5,-131.5 173.5,-131.5 173.5,-112.5 123.5,-112.5"/>
<text text-anchor="middle" x="148.5" y="-119.5" font-family="FreeSans" font-size="10.00">stdio.h</text>
</a>
</g>
</g>
<!-- Node11&#45;&gt;Node12 -->
<g id="edge16" class="edge">
<title>Node11&#45;&gt;Node12</title>
<path fill="none" stroke="midnightblue" d="M216.49,-168.32C203.97,-159.98 184.82,-147.21 170.03,-137.35"/>
<polygon fill="midnightblue" stroke="midnightblue" points="171.74,-134.29 161.48,-131.65 167.86,-140.11 171.74,-134.29"/>
</g>
</g>
</svg>
