<?xml version="1.0" encoding="UTF-8" standalone="no"?>
<!DOCTYPE svg PUBLIC "-//W3C//DTD SVG 1.1//EN"
 "http://www.w3.org/Graphics/SVG/1.1/DTD/svg11.dtd">
<!-- Generated by graphviz version 2.43.0 (0)
 -->
<!-- Title: atmega644constants.h Pages: 1 -->
<svg width="1080pt" height="364pt"
 viewBox="0.00 0.00 1079.59 364.00" xmlns="http://www.w3.org/2000/svg" xmlns:xlink="http://www.w3.org/1999/xlink">
<g id="graph0" class="graph" transform="scale(1 1) rotate(0) translate(4 360)">
<title>atmega644constants.h</title>
<polygon fill="white" stroke="transparent" points="-4,4 -4,-360 1075.59,-360 1075.59,4 -4,4"/>
<!-- Node1 -->
<g id="node1" class="node">
<title>Node1</title>
<g id="a_node1"><a xlink:title="Constants for ATMega644 and EVA board. Defines several useful constants for the ATMega644.">
<polygon fill="#bfbfbf" stroke="black" points="750.09,-336.5 750.09,-355.5 878.09,-355.5 878.09,-336.5 750.09,-336.5"/>
<text text-anchor="middle" x="814.09" y="-343.5" font-family="FreeSans" font-size="10.00">atmega644constants.h</text>
</a>
</g>
</g>
<!-- Node2 -->
<g id="node2" class="node">
<title>Node2</title>
<g id="a_node2"><a xlink:href="defines_8h.html" target="_top" xlink:title="Simple definitions and assembler&#45;macros, mostly 8/16&#45;Bit values.">
<polygon fill="white" stroke="black" points="538.59,-280.5 538.59,-299.5 599.59,-299.5 599.59,-280.5 538.59,-280.5"/>
<text text-anchor="middle" x="569.09" y="-287.5" font-family="FreeSans" font-size="10.00">defines.h</text>
</a>
</g>
</g>
<!-- Node1&#45;&gt;Node2 -->
<g id="edge1" class="edge">
<title>Node1&#45;&gt;Node2</title>
<path fill="none" stroke="midnightblue" d="M765.45,-334.28C716.08,-323.4 641.17,-306.89 599.6,-297.73"/>
<polygon fill="midnightblue" stroke="midnightblue" points="764.75,-337.71 775.27,-336.44 766.25,-330.87 764.75,-337.71"/>
</g>
<!-- Node8 -->
<g id="node8" class="node">
<title>Node8</title>
<g id="a_node8"><a xlink:href="util_8c.html" target="_top" xlink:title=" ">
<polygon fill="white" stroke="black" points="1030.59,-168.5 1030.59,-187.5 1071.59,-187.5 1071.59,-168.5 1030.59,-168.5"/>
<text text-anchor="middle" x="1051.09" y="-175.5" font-family="FreeSans" font-size="10.00">util.c</text>
</a>
</g>
</g>
<!-- Node1&#45;&gt;Node8 -->
<g id="edge44" class="edge">
<title>Node1&#45;&gt;Node8</title>
<path fill="none" stroke="midnightblue" d="M848.32,-332.83C889.23,-317.05 958.16,-286.44 1006.09,-244 1024.99,-227.26 1039.97,-201 1046.9,-187.56"/>
<polygon fill="midnightblue" stroke="midnightblue" points="846.91,-329.62 838.8,-336.43 849.39,-336.17 846.91,-329.62"/>
</g>
<!-- Node3 -->
<g id="node3" class="node">
<title>Node3</title>
<g id="a_node3"><a xlink:href="lcd_8h.html" target="_top" xlink:title="Library for LCD use.">
<polygon fill="white" stroke="black" points="877.09,-224.5 877.09,-243.5 917.09,-243.5 917.09,-224.5 877.09,-224.5"/>
<text text-anchor="middle" x="897.09" y="-231.5" font-family="FreeSans" font-size="10.00">lcd.h</text>
</a>
</g>
</g>
<!-- Node2&#45;&gt;Node3 -->
<g id="edge2" class="edge">
<title>Node2&#45;&gt;Node3</title>
<path fill="none" stroke="midnightblue" d="M609.75,-282.42C663.43,-273.73 760.88,-257.87 844.09,-244 854.95,-242.19 867.06,-240.14 876.96,-238.45"/>
<polygon fill="midnightblue" stroke="midnightblue" points="608.93,-279.01 599.62,-284.07 610.05,-285.92 608.93,-279.01"/>
</g>
<!-- Node5 -->
<g id="node5" class="node">
<title>Node5</title>
<g id="a_node5"><a xlink:href="os__core_8c.html" target="_top" xlink:title=" ">
<polygon fill="white" stroke="black" points="422.09,-112.5 422.09,-131.5 484.09,-131.5 484.09,-112.5 422.09,-112.5"/>
<text text-anchor="middle" x="453.09" y="-119.5" font-family="FreeSans" font-size="10.00">os_core.c</text>
</a>
</g>
</g>
<!-- Node2&#45;&gt;Node5 -->
<g id="edge8" class="edge">
<title>Node2&#45;&gt;Node5</title>
<path fill="none" stroke="midnightblue" d="M547.84,-274.04C537.4,-265.97 525.15,-255.35 516.09,-244 486.1,-206.42 464.06,-152.35 456.21,-131.58"/>
<polygon fill="midnightblue" stroke="midnightblue" points="545.96,-277.01 556.07,-280.18 550.15,-271.4 545.96,-277.01"/>
</g>
<!-- Node7 -->
<g id="node7" class="node">
<title>Node7</title>
<g id="a_node7"><a xlink:href="os__taskman_8c.html" target="_top" xlink:title=" ">
<polygon fill="white" stroke="black" points="546.09,-0.5 546.09,-19.5 630.09,-19.5 630.09,-0.5 546.09,-0.5"/>
<text text-anchor="middle" x="588.09" y="-7.5" font-family="FreeSans" font-size="10.00">os_taskman.c</text>
</a>
</g>
</g>
<!-- Node2&#45;&gt;Node7 -->
<g id="edge41" class="edge">
<title>Node2&#45;&gt;Node7</title>
<path fill="none" stroke="midnightblue" d="M528.21,-289.77C397.94,-291.13 1.09,-286.47 1.09,-179 1.09,-179 1.09,-179 1.09,-121 1.09,-90.9 -3.26,-74.99 20.09,-56 60.62,-23.04 421.04,-13.83 545.8,-11.62"/>
<polygon fill="midnightblue" stroke="midnightblue" points="528.59,-293.26 538.55,-289.64 528.51,-286.26 528.59,-293.26"/>
</g>
<!-- Node2&#45;&gt;Node8 -->
<g id="edge43" class="edge">
<title>Node2&#45;&gt;Node8</title>
<path fill="none" stroke="midnightblue" d="M609.76,-287.65C699.73,-284.18 912.79,-273.04 978.09,-244 1007.24,-231.03 1032.94,-202.06 1044.54,-187.58"/>
<polygon fill="midnightblue" stroke="midnightblue" points="609.54,-284.16 599.67,-288.03 609.8,-291.16 609.54,-284.16"/>
</g>
<!-- Node9 -->
<g id="node9" class="node">
<title>Node9</title>
<g id="a_node9"><a xlink:href="os__mem__drivers_8c.html" target="_top" xlink:title=" ">
<polygon fill="white" stroke="black" points="302.09,-168.5 302.09,-187.5 408.09,-187.5 408.09,-168.5 302.09,-168.5"/>
<text text-anchor="middle" x="355.09" y="-175.5" font-family="FreeSans" font-size="10.00">os_mem_drivers.c</text>
</a>
</g>
</g>
<!-- Node2&#45;&gt;Node9 -->
<g id="edge9" class="edge">
<title>Node2&#45;&gt;Node9</title>
<path fill="none" stroke="midnightblue" d="M528.43,-281.95C497.67,-275.38 455.22,-263.58 422.09,-244 396.41,-228.83 373.03,-201.89 361.91,-187.93"/>
<polygon fill="midnightblue" stroke="midnightblue" points="527.88,-285.41 538.38,-283.98 529.28,-278.55 527.88,-285.41"/>
</g>
<!-- Node10 -->
<g id="node10" class="node">
<title>Node10</title>
<g id="a_node10"><a xlink:href="os__mem__drivers_8h.html" target="_top" xlink:title="Drivers for OS memory management.">
<polygon fill="white" stroke="black" points="230.59,-224.5 230.59,-243.5 337.59,-243.5 337.59,-224.5 230.59,-224.5"/>
<text text-anchor="middle" x="284.09" y="-231.5" font-family="FreeSans" font-size="10.00">os_mem_drivers.h</text>
</a>
</g>
</g>
<!-- Node2&#45;&gt;Node10 -->
<g id="edge10" class="edge">
<title>Node2&#45;&gt;Node10</title>
<path fill="none" stroke="midnightblue" d="M528.31,-281.27C475.57,-271.28 383.98,-253.93 329.21,-243.55"/>
<polygon fill="midnightblue" stroke="midnightblue" points="527.84,-284.75 538.32,-283.17 529.14,-277.87 527.84,-284.75"/>
</g>
<!-- Node11 -->
<g id="node11" class="node">
<title>Node11</title>
<g id="a_node11"><a xlink:href="os__memheap__drivers_8h.html" target="_top" xlink:title="Drivers for OS heap management.">
<polygon fill="white" stroke="black" points="114.59,-168.5 114.59,-187.5 245.59,-187.5 245.59,-168.5 114.59,-168.5"/>
<text text-anchor="middle" x="180.09" y="-175.5" font-family="FreeSans" font-size="10.00">os_memheap_drivers.h</text>
</a>
</g>
</g>
<!-- Node2&#45;&gt;Node11 -->
<g id="edge29" class="edge">
<title>Node2&#45;&gt;Node11</title>
<path fill="none" stroke="midnightblue" d="M528.05,-288.01C447.28,-285.37 271.21,-276.01 221.09,-244 200.17,-230.64 188.01,-202.38 182.92,-187.93"/>
<polygon fill="midnightblue" stroke="midnightblue" points="528.23,-291.51 538.33,-288.32 528.44,-284.52 528.23,-291.51"/>
</g>
<!-- Node12 -->
<g id="node12" class="node">
<title>Node12</title>
<g id="a_node12"><a xlink:href="os__memheap__drivers_8c.html" target="_top" xlink:title=" ">
<polygon fill="white" stroke="black" points="29.09,-56.5 29.09,-75.5 159.09,-75.5 159.09,-56.5 29.09,-56.5"/>
<text text-anchor="middle" x="94.09" y="-63.5" font-family="FreeSans" font-size="10.00">os_memheap_drivers.c</text>
</a>
</g>
</g>
<!-- Node2&#45;&gt;Node12 -->
<g id="edge28" class="edge">
<title>Node2&#45;&gt;Node12</title>
<path fill="none" stroke="midnightblue" d="M528.19,-289.56C458.48,-289.31 313.05,-283.55 198.09,-244 152.46,-228.3 130.71,-228.89 105.09,-188 82.35,-151.71 88.76,-96.89 92.38,-75.75"/>
<polygon fill="midnightblue" stroke="midnightblue" points="528.31,-293.06 538.31,-289.56 528.31,-286.06 528.31,-293.06"/>
</g>
<!-- Node16 -->
<g id="node16" class="node">
<title>Node16</title>
<g id="a_node16"><a xlink:href="os__user__privileges_8h.html" target="_top" xlink:title="User privileges specification used in part by the task manager.">
<polygon fill="white" stroke="black" points="616.09,-56.5 616.09,-75.5 732.09,-75.5 732.09,-56.5 616.09,-56.5"/>
<text text-anchor="middle" x="674.09" y="-63.5" font-family="FreeSans" font-size="10.00">os_user_privileges.h</text>
</a>
</g>
</g>
<!-- Node2&#45;&gt;Node16 -->
<g id="edge42" class="edge">
<title>Node2&#45;&gt;Node16</title>
<path fill="none" stroke="midnightblue" d="M609.85,-289.13C693.02,-288.57 878.46,-282.87 926.09,-244 946.45,-227.38 940.81,-213.93 945.09,-188 960.38,-95.35 816.55,-73.29 732.41,-68.27"/>
<polygon fill="midnightblue" stroke="midnightblue" points="609.74,-285.63 599.76,-289.18 609.78,-292.63 609.74,-285.63"/>
</g>
<!-- Node18 -->
<g id="node18" class="node">
<title>Node18</title>
<g id="a_node18"><a xlink:href="os__scheduler_8h.html" target="_top" xlink:title="Scheduling module for the OS.">
<polygon fill="white" stroke="black" points="524.59,-224.5 524.59,-243.5 613.59,-243.5 613.59,-224.5 524.59,-224.5"/>
<text text-anchor="middle" x="569.09" y="-231.5" font-family="FreeSans" font-size="10.00">os_scheduler.h</text>
</a>
</g>
</g>
<!-- Node2&#45;&gt;Node18 -->
<g id="edge30" class="edge">
<title>Node2&#45;&gt;Node18</title>
<path fill="none" stroke="midnightblue" d="M569.09,-269.8C569.09,-260.91 569.09,-250.78 569.09,-243.75"/>
<polygon fill="midnightblue" stroke="midnightblue" points="565.59,-270.08 569.09,-280.08 572.59,-270.08 565.59,-270.08"/>
</g>
<!-- Node19 -->
<g id="node19" class="node">
<title>Node19</title>
<g id="a_node19"><a xlink:href="os__scheduling__strategies_8h.html" target="_top" xlink:title="Scheduling library for the OS.">
<polygon fill="white" stroke="black" points="653.59,-168.5 653.59,-187.5 802.59,-187.5 802.59,-168.5 653.59,-168.5"/>
<text text-anchor="middle" x="728.09" y="-175.5" font-family="FreeSans" font-size="10.00">os_scheduling_strategies.h</text>
</a>
</g>
</g>
<!-- Node2&#45;&gt;Node19 -->
<g id="edge40" class="edge">
<title>Node2&#45;&gt;Node19</title>
<path fill="none" stroke="midnightblue" d="M590.17,-274.42C623.8,-251.15 688.55,-206.35 715.67,-187.59"/>
<polygon fill="midnightblue" stroke="midnightblue" points="587.8,-271.8 581.56,-280.37 591.78,-277.56 587.8,-271.8"/>
</g>
<!-- Node20 -->
<g id="node20" class="node">
<title>Node20</title>
<g id="a_node20"><a xlink:href="os__scheduling__strategies_8c.html" target="_top" xlink:title=" ">
<polygon fill="white" stroke="black" points="673.09,-112.5 673.09,-131.5 821.09,-131.5 821.09,-112.5 673.09,-112.5"/>
<text text-anchor="middle" x="747.09" y="-119.5" font-family="FreeSans" font-size="10.00">os_scheduling_strategies.c</text>
</a>
</g>
</g>
<!-- Node2&#45;&gt;Node20 -->
<g id="edge39" class="edge">
<title>Node2&#45;&gt;Node20</title>
<path fill="none" stroke="midnightblue" d="M609.62,-285.53C666.13,-278.27 766.73,-255.97 812.09,-188 827.5,-164.9 791.93,-143.17 767.57,-131.63"/>
<polygon fill="midnightblue" stroke="midnightblue" points="609.12,-282.06 599.61,-286.72 609.95,-289.02 609.12,-282.06"/>
</g>
<!-- Node4 -->
<g id="node4" class="node">
<title>Node4</title>
<g id="a_node4"><a xlink:href="lcd_8c.html" target="_top" xlink:title="Library for LCD use.">
<polygon fill="white" stroke="black" points="896.59,-168.5 896.59,-187.5 935.59,-187.5 935.59,-168.5 896.59,-168.5"/>
<text text-anchor="middle" x="916.09" y="-175.5" font-family="FreeSans" font-size="10.00">lcd.c</text>
</a>
</g>
</g>
<!-- Node3&#45;&gt;Node4 -->
<g id="edge3" class="edge">
<title>Node3&#45;&gt;Node4</title>
<path fill="none" stroke="midnightblue" d="M903.63,-214.4C906.81,-205.36 910.48,-194.94 913.01,-187.75"/>
<polygon fill="midnightblue" stroke="midnightblue" points="900.24,-213.49 900.23,-224.08 906.85,-215.81 900.24,-213.49"/>
</g>
<!-- Node3&#45;&gt;Node5 -->
<g id="edge4" class="edge">
<title>Node3&#45;&gt;Node5</title>
<path fill="none" stroke="midnightblue" d="M866.99,-229.11C819.42,-222.64 724.12,-208.31 645.09,-188 582.2,-171.84 510.23,-145.21 474.94,-131.6"/>
<polygon fill="midnightblue" stroke="midnightblue" points="866.57,-232.59 876.94,-230.45 867.5,-225.65 866.57,-232.59"/>
</g>
<!-- Node6 -->
<g id="node6" class="node">
<title>Node6</title>
<g id="a_node6"><a xlink:href="os__scheduler_8c.html" target="_top" xlink:title="Scheduling module for the OS.">
<polygon fill="white" stroke="black" points="470.09,-56.5 470.09,-75.5 558.09,-75.5 558.09,-56.5 470.09,-56.5"/>
<text text-anchor="middle" x="514.09" y="-63.5" font-family="FreeSans" font-size="10.00">os_scheduler.c</text>
</a>
</g>
</g>
<!-- Node3&#45;&gt;Node6 -->
<g id="edge5" class="edge">
<title>Node3&#45;&gt;Node6</title>
<path fill="none" stroke="midnightblue" d="M892.54,-214.7C884.74,-187.45 866.06,-136.79 830.09,-112 808.1,-96.85 640.08,-79 558.4,-71.11"/>
<polygon fill="midnightblue" stroke="midnightblue" points="889.2,-215.74 895.16,-224.5 895.96,-213.93 889.2,-215.74"/>
</g>
<!-- Node3&#45;&gt;Node7 -->
<g id="edge6" class="edge">
<title>Node3&#45;&gt;Node7</title>
<path fill="none" stroke="midnightblue" d="M920,-218.43C936.93,-205.71 955.4,-186.46 945.09,-168 881.18,-53.63 709.92,-22.46 630.11,-14.05"/>
<polygon fill="midnightblue" stroke="midnightblue" points="917.61,-215.83 911.44,-224.44 921.63,-221.56 917.61,-215.83"/>
</g>
<!-- Node3&#45;&gt;Node8 -->
<g id="edge7" class="edge">
<title>Node3&#45;&gt;Node8</title>
<path fill="none" stroke="midnightblue" d="M926.88,-222.55C957.34,-211.87 1003.84,-195.57 1030.46,-186.23"/>
<polygon fill="midnightblue" stroke="midnightblue" points="925.5,-219.33 917.22,-225.94 927.82,-225.93 925.5,-219.33"/>
</g>
<!-- Node10&#45;&gt;Node9 -->
<g id="edge11" class="edge">
<title>Node10&#45;&gt;Node9</title>
<path fill="none" stroke="midnightblue" d="M303.68,-218.1C316.46,-208.38 332.7,-196.03 343.47,-187.83"/>
<polygon fill="midnightblue" stroke="midnightblue" points="301.34,-215.48 295.5,-224.32 305.57,-221.06 301.34,-215.48"/>
</g>
<!-- Node10&#45;&gt;Node11 -->
<g id="edge12" class="edge">
<title>Node10&#45;&gt;Node11</title>
<path fill="none" stroke="midnightblue" d="M258.26,-219.59C239.03,-209.61 213.34,-196.27 196.76,-187.65"/>
<polygon fill="midnightblue" stroke="midnightblue" points="256.89,-222.82 267.38,-224.32 260.12,-216.61 256.89,-222.82"/>
</g>
<!-- Node13 -->
<g id="node13" class="node">
<title>Node13</title>
<g id="a_node13"><a xlink:href="os__memory_8h.html" target="_top" xlink:title="Library for OS memory management.">
<polygon fill="white" stroke="black" points="322.09,-112.5 322.09,-131.5 404.09,-131.5 404.09,-112.5 322.09,-112.5"/>
<text text-anchor="middle" x="363.09" y="-119.5" font-family="FreeSans" font-size="10.00">os_memory.h</text>
</a>
</g>
</g>
<!-- Node10&#45;&gt;Node13 -->
<g id="edge27" class="edge">
<title>Node10&#45;&gt;Node13</title>
<path fill="none" stroke="midnightblue" d="M282.67,-213.98C282.56,-200.19 284.37,-181.65 293.09,-168 304.13,-150.71 324.46,-138.76 340.38,-131.54"/>
<polygon fill="midnightblue" stroke="midnightblue" points="279.19,-214.39 283.11,-224.23 286.18,-214.09 279.19,-214.39"/>
</g>
<!-- Node11&#45;&gt;Node5 -->
<g id="edge13" class="edge">
<title>Node11&#45;&gt;Node5</title>
<path fill="none" stroke="midnightblue" d="M236.62,-166.58C283.87,-157.75 352.97,-144.56 413.09,-132 415.87,-131.42 418.77,-130.8 421.66,-130.17"/>
<polygon fill="midnightblue" stroke="midnightblue" points="235.78,-163.18 226.59,-168.45 237.06,-170.06 235.78,-163.18"/>
</g>
<!-- Node11&#45;&gt;Node6 -->
<g id="edge26" class="edge">
<title>Node11&#45;&gt;Node6</title>
<path fill="none" stroke="midnightblue" d="M207.7,-164.02C226.48,-155.14 251.86,-143.02 274.09,-132 291.54,-123.35 294.77,-118.63 313.09,-112 365.55,-93.03 428.71,-80.47 470.05,-73.55"/>
<polygon fill="midnightblue" stroke="midnightblue" points="206.08,-160.92 198.53,-168.35 209.07,-167.25 206.08,-160.92"/>
</g>
<!-- Node11&#45;&gt;Node12 -->
<g id="edge14" class="edge">
<title>Node11&#45;&gt;Node12</title>
<path fill="none" stroke="midnightblue" d="M154.94,-163.09C142.74,-155.29 128.69,-144.59 119.09,-132 105.75,-114.5 98.74,-89.03 95.8,-75.77"/>
<polygon fill="midnightblue" stroke="midnightblue" points="153.44,-166.28 163.8,-168.48 157.07,-160.29 153.44,-166.28"/>
</g>
<!-- Node11&#45;&gt;Node13 -->
<g id="edge15" class="edge">
<title>Node11&#45;&gt;Node13</title>
<path fill="none" stroke="midnightblue" d="M218.83,-165.57C253.35,-155.38 303.09,-140.7 334.23,-131.52"/>
<polygon fill="midnightblue" stroke="midnightblue" points="217.69,-162.26 209.08,-168.44 219.67,-168.97 217.69,-162.26"/>
</g>
<!-- Node17 -->
<g id="node17" class="node">
<title>Node17</title>
<g id="a_node17"><a xlink:href="os__memory__strategies_8h.html" target="_top" xlink:title="Memory allocation library for the OS.">
<polygon fill="white" stroke="black" points="128.59,-112.5 128.59,-131.5 265.59,-131.5 265.59,-112.5 128.59,-112.5"/>
<text text-anchor="middle" x="197.09" y="-119.5" font-family="FreeSans" font-size="10.00">os_memory_strategies.h</text>
</a>
</g>
</g>
<!-- Node11&#45;&gt;Node17 -->
<g id="edge22" class="edge">
<title>Node11&#45;&gt;Node17</title>
<path fill="none" stroke="midnightblue" d="M185.94,-158.4C188.79,-149.36 192.07,-138.94 194.33,-131.75"/>
<polygon fill="midnightblue" stroke="midnightblue" points="182.56,-157.49 182.9,-168.08 189.24,-159.6 182.56,-157.49"/>
</g>
<!-- Node13&#45;&gt;Node6 -->
<g id="edge18" class="edge">
<title>Node13&#45;&gt;Node6</title>
<path fill="none" stroke="midnightblue" d="M396.53,-109.04C424.95,-98.88 465.02,-84.55 490.27,-75.52"/>
<polygon fill="midnightblue" stroke="midnightblue" points="395.25,-105.78 387.01,-112.44 397.61,-112.37 395.25,-105.78"/>
</g>
<!-- Node13&#45;&gt;Node7 -->
<g id="edge19" class="edge">
<title>Node13&#45;&gt;Node7</title>
<path fill="none" stroke="midnightblue" d="M382.18,-106.28C401.34,-92.02 432.07,-70.49 461.09,-56 492.69,-40.22 531.2,-27.4 557.47,-19.54"/>
<polygon fill="midnightblue" stroke="midnightblue" points="379.88,-103.63 374.01,-112.45 384.1,-109.22 379.88,-103.63"/>
</g>
<!-- Node14 -->
<g id="node14" class="node">
<title>Node14</title>
<g id="a_node14"><a xlink:href="os__memory_8c.html" target="_top" xlink:title=" ">
<polygon fill="white" stroke="black" points="332.59,-56.5 332.59,-75.5 413.59,-75.5 413.59,-56.5 332.59,-56.5"/>
<text text-anchor="middle" x="373.09" y="-63.5" font-family="FreeSans" font-size="10.00">os_memory.c</text>
</a>
</g>
</g>
<!-- Node13&#45;&gt;Node14 -->
<g id="edge16" class="edge">
<title>Node13&#45;&gt;Node14</title>
<path fill="none" stroke="midnightblue" d="M366.59,-102.1C368.25,-93.14 370.15,-82.86 371.47,-75.75"/>
<polygon fill="midnightblue" stroke="midnightblue" points="363.12,-101.61 364.74,-112.08 370,-102.89 363.12,-101.61"/>
</g>
<!-- Node15 -->
<g id="node15" class="node">
<title>Node15</title>
<g id="a_node15"><a xlink:href="os__memory__strategies_8c.html" target="_top" xlink:title=" ">
<polygon fill="white" stroke="black" points="177.59,-56.5 177.59,-75.5 314.59,-75.5 314.59,-56.5 177.59,-56.5"/>
<text text-anchor="middle" x="246.09" y="-63.5" font-family="FreeSans" font-size="10.00">os_memory_strategies.c</text>
</a>
</g>
</g>
<!-- Node13&#45;&gt;Node15 -->
<g id="edge17" class="edge">
<title>Node13&#45;&gt;Node15</title>
<path fill="none" stroke="midnightblue" d="M335.42,-108.23C313.54,-98.13 283.59,-84.31 264.54,-75.52"/>
<polygon fill="midnightblue" stroke="midnightblue" points="334,-111.43 344.55,-112.44 336.94,-105.08 334,-111.43"/>
</g>
<!-- Node13&#45;&gt;Node16 -->
<g id="edge20" class="edge">
<title>Node13&#45;&gt;Node16</title>
<path fill="none" stroke="midnightblue" d="M414.41,-111.78C493.37,-97.89 573.63,-84.12 624.03,-75.52"/>
<polygon fill="midnightblue" stroke="midnightblue" points="413.53,-108.38 404.28,-113.56 414.74,-115.27 413.53,-108.38"/>
</g>
<!-- Node16&#45;&gt;Node7 -->
<g id="edge21" class="edge">
<title>Node16&#45;&gt;Node7</title>
<path fill="none" stroke="midnightblue" d="M651.63,-50.9C635.86,-41 615.27,-28.07 601.87,-19.65"/>
<polygon fill="midnightblue" stroke="midnightblue" points="649.94,-53.97 660.27,-56.32 653.66,-48.04 649.94,-53.97"/>
</g>
<!-- Node17&#45;&gt;Node12 -->
<g id="edge23" class="edge">
<title>Node17&#45;&gt;Node12</title>
<path fill="none" stroke="midnightblue" d="M171.51,-107.59C152.46,-97.61 127.02,-84.27 110.6,-75.65"/>
<polygon fill="midnightblue" stroke="midnightblue" points="170.06,-110.78 180.54,-112.32 173.31,-104.58 170.06,-110.78"/>
</g>
<!-- Node17&#45;&gt;Node14 -->
<g id="edge24" class="edge">
<title>Node17&#45;&gt;Node14</title>
<path fill="none" stroke="midnightblue" d="M234.78,-109.44C267.96,-99.26 315.52,-84.66 345.33,-75.52"/>
<polygon fill="midnightblue" stroke="midnightblue" points="233.51,-106.16 224.98,-112.44 235.56,-112.86 233.51,-106.16"/>
</g>
<!-- Node17&#45;&gt;Node15 -->
<g id="edge25" class="edge">
<title>Node17&#45;&gt;Node15</title>
<path fill="none" stroke="midnightblue" d="M212.12,-104.43C220.71,-94.97 231.13,-83.48 238.15,-75.75"/>
<polygon fill="midnightblue" stroke="midnightblue" points="209.31,-102.33 205.18,-112.08 214.49,-107.03 209.31,-102.33"/>
</g>
<!-- Node18&#45;&gt;Node6 -->
<g id="edge33" class="edge">
<title>Node18&#45;&gt;Node6</title>
<path fill="none" stroke="midnightblue" d="M562.92,-214.39C551.06,-178.59 525.47,-101.34 516.93,-75.57"/>
<polygon fill="midnightblue" stroke="midnightblue" points="559.66,-215.68 566.13,-224.08 566.31,-213.48 559.66,-215.68"/>
</g>
<!-- Node18&#45;&gt;Node7 -->
<g id="edge37" class="edge">
<title>Node18&#45;&gt;Node7</title>
<path fill="none" stroke="midnightblue" d="M570.69,-214.3C574.6,-168.64 584.51,-52.85 587.33,-19.88"/>
<polygon fill="midnightblue" stroke="midnightblue" points="567.2,-214.04 569.83,-224.3 574.17,-214.63 567.2,-214.04"/>
</g>
<!-- Node18&#45;&gt;Node9 -->
<g id="edge31" class="edge">
<title>Node18&#45;&gt;Node9</title>
<path fill="none" stroke="midnightblue" d="M525.33,-221.96C484.91,-211.76 425.71,-196.82 388.84,-187.52"/>
<polygon fill="midnightblue" stroke="midnightblue" points="524.63,-225.39 535.18,-224.44 526.34,-218.6 524.63,-225.39"/>
</g>
<!-- Node18&#45;&gt;Node13 -->
<g id="edge32" class="edge">
<title>Node18&#45;&gt;Node13</title>
<path fill="none" stroke="midnightblue" d="M543.98,-219.59C501.09,-196.69 414.91,-150.67 379.18,-131.59"/>
<polygon fill="midnightblue" stroke="midnightblue" points="542.45,-222.75 552.92,-224.37 545.75,-216.57 542.45,-222.75"/>
</g>
<!-- Node18&#45;&gt;Node16 -->
<g id="edge38" class="edge">
<title>Node18&#45;&gt;Node16</title>
<path fill="none" stroke="midnightblue" d="M582.1,-216.07C588.34,-207.75 595.8,-197.49 602.09,-188 629.21,-147.03 658.13,-95.8 669.3,-75.68"/>
<polygon fill="midnightblue" stroke="midnightblue" points="579.17,-214.13 575.92,-224.21 584.75,-218.36 579.17,-214.13"/>
</g>
<!-- Node18&#45;&gt;Node19 -->
<g id="edge34" class="edge">
<title>Node18&#45;&gt;Node19</title>
<path fill="none" stroke="midnightblue" d="M603.91,-221.17C633.85,-211 676.31,-196.59 703.01,-187.52"/>
<polygon fill="midnightblue" stroke="midnightblue" points="602.63,-217.91 594.28,-224.44 604.88,-224.54 602.63,-217.91"/>
</g>
<!-- Node19&#45;&gt;Node6 -->
<g id="edge35" class="edge">
<title>Node19&#45;&gt;Node6</title>
<path fill="none" stroke="midnightblue" d="M702.28,-163.73C657.83,-140.88 568,-94.71 530.8,-75.59"/>
<polygon fill="midnightblue" stroke="midnightblue" points="700.8,-166.91 711.3,-168.37 704,-160.68 700.8,-166.91"/>
</g>
<!-- Node19&#45;&gt;Node20 -->
<g id="edge36" class="edge">
<title>Node19&#45;&gt;Node20</title>
<path fill="none" stroke="midnightblue" d="M734.63,-158.4C737.81,-149.36 741.48,-138.94 744.01,-131.75"/>
<polygon fill="midnightblue" stroke="midnightblue" points="731.24,-157.49 731.23,-168.08 737.85,-159.81 731.24,-157.49"/>
</g>
</g>
</svg>
