<?xml version="1.0" encoding="UTF-8" standalone="no"?>
<!DOCTYPE svg PUBLIC "-//W3C//DTD SVG 1.1//EN"
 "http://www.w3.org/Graphics/SVG/1.1/DTD/svg11.dtd">
<!-- Generated by graphviz version 2.43.0 (0)
 -->
<!-- Title: defines.h Pages: 1 -->
<svg width="1013pt" height="308pt"
 viewBox="0.00 0.00 1012.74 308.00" xmlns="http://www.w3.org/2000/svg" xmlns:xlink="http://www.w3.org/1999/xlink">
<g id="graph0" class="graph" transform="scale(1 1) rotate(0) translate(4 304)">
<title>defines.h</title>
<polygon fill="white" stroke="transparent" points="-4,4 -4,-304 1008.74,-304 1008.74,4 -4,4"/>
<!-- Node1 -->
<g id="node1" class="node">
<title>Node1</title>
<g id="a_node1"><a xlink:title="Simple definitions and assembler&#45;macros, mostly 8/16&#45;Bit values.">
<polygon fill="#bfbfbf" stroke="black" points="403.5,-280.5 403.5,-299.5 464.5,-299.5 464.5,-280.5 403.5,-280.5"/>
<text text-anchor="middle" x="434" y="-287.5" font-family="FreeSans" font-size="10.00">defines.h</text>
</a>
</g>
</g>
<!-- Node2 -->
<g id="node2" class="node">
<title>Node2</title>
<g id="a_node2"><a xlink:href="lcd_8h.html" target="_top" xlink:title="Library for LCD use.">
<polygon fill="white" stroke="black" points="188,-168.5 188,-187.5 228,-187.5 228,-168.5 188,-168.5"/>
<text text-anchor="middle" x="208" y="-175.5" font-family="FreeSans" font-size="10.00">lcd.h</text>
</a>
</g>
</g>
<!-- Node1&#45;&gt;Node2 -->
<g id="edge1" class="edge">
<title>Node1&#45;&gt;Node2</title>
<path fill="none" stroke="midnightblue" d="M393.09,-283.85C358.62,-278.12 308.99,-266.52 271,-244 245.86,-229.09 223.99,-201.53 213.92,-187.58"/>
<polygon fill="midnightblue" stroke="midnightblue" points="392.85,-287.35 403.27,-285.44 393.93,-280.43 392.85,-287.35"/>
</g>
<!-- Node4 -->
<g id="node4" class="node">
<title>Node4</title>
<g id="a_node4"><a xlink:href="os__core_8c.html" target="_top" xlink:title=" ">
<polygon fill="white" stroke="black" points="221,-112.5 221,-131.5 283,-131.5 283,-112.5 221,-112.5"/>
<text text-anchor="middle" x="252" y="-119.5" font-family="FreeSans" font-size="10.00">os_core.c</text>
</a>
</g>
</g>
<!-- Node1&#45;&gt;Node4 -->
<g id="edge7" class="edge">
<title>Node1&#45;&gt;Node4</title>
<path fill="none" stroke="midnightblue" d="M414.48,-273.91C390.03,-254.75 347.21,-220.28 313,-188 292.74,-168.88 270.81,-144.51 259.58,-131.73"/>
<polygon fill="midnightblue" stroke="midnightblue" points="412.56,-276.86 422.6,-280.25 416.87,-271.34 412.56,-276.86"/>
</g>
<!-- Node6 -->
<g id="node6" class="node">
<title>Node6</title>
<g id="a_node6"><a xlink:href="os__taskman_8c.html" target="_top" xlink:title=" ">
<polygon fill="white" stroke="black" points="642,-0.5 642,-19.5 726,-19.5 726,-0.5 642,-0.5"/>
<text text-anchor="middle" x="684" y="-7.5" font-family="FreeSans" font-size="10.00">os_taskman.c</text>
</a>
</g>
</g>
<!-- Node1&#45;&gt;Node6 -->
<g id="edge40" class="edge">
<title>Node1&#45;&gt;Node6</title>
<path fill="none" stroke="midnightblue" d="M393.31,-287.34C285.37,-281.84 0,-259.68 0,-179 0,-179 0,-179 0,-121 0,-49.16 78.37,-73.69 148,-56 241.34,-32.29 532.19,-17.57 641.71,-12.75"/>
<polygon fill="midnightblue" stroke="midnightblue" points="393.32,-290.85 403.48,-287.84 393.66,-283.86 393.32,-290.85"/>
</g>
<!-- Node7 -->
<g id="node7" class="node">
<title>Node7</title>
<g id="a_node7"><a xlink:href="util_8c.html" target="_top" xlink:title=" ">
<polygon fill="white" stroke="black" points="66.5,-112.5 66.5,-131.5 107.5,-131.5 107.5,-112.5 66.5,-112.5"/>
<text text-anchor="middle" x="87" y="-119.5" font-family="FreeSans" font-size="10.00">util.c</text>
</a>
</g>
</g>
<!-- Node1&#45;&gt;Node7 -->
<g id="edge42" class="edge">
<title>Node1&#45;&gt;Node7</title>
<path fill="none" stroke="midnightblue" d="M393.22,-284.72C352.94,-279.32 290.36,-267.69 241,-244 177.85,-213.69 116.62,-153.81 95.1,-131.58"/>
<polygon fill="midnightblue" stroke="midnightblue" points="392.85,-288.21 403.21,-286 393.74,-281.26 392.85,-288.21"/>
</g>
<!-- Node8 -->
<g id="node8" class="node">
<title>Node8</title>
<g id="a_node8"><a xlink:href="os__mem__drivers_8c.html" target="_top" xlink:title=" ">
<polygon fill="white" stroke="black" points="509,-168.5 509,-187.5 615,-187.5 615,-168.5 509,-168.5"/>
<text text-anchor="middle" x="562" y="-175.5" font-family="FreeSans" font-size="10.00">os_mem_drivers.c</text>
</a>
</g>
</g>
<!-- Node1&#45;&gt;Node8 -->
<g id="edge8" class="edge">
<title>Node1&#45;&gt;Node8</title>
<path fill="none" stroke="midnightblue" d="M474.6,-278.71C494.94,-271.78 518.65,-260.77 535,-244 550.7,-227.9 557.78,-201.36 560.52,-187.71"/>
<polygon fill="midnightblue" stroke="midnightblue" points="473.39,-275.42 464.93,-281.79 475.52,-282.09 473.39,-275.42"/>
</g>
<!-- Node9 -->
<g id="node9" class="node">
<title>Node9</title>
<g id="a_node9"><a xlink:href="os__mem__drivers_8h.html" target="_top" xlink:title="Drivers for OS memory management.">
<polygon fill="white" stroke="black" points="418.5,-224.5 418.5,-243.5 525.5,-243.5 525.5,-224.5 418.5,-224.5"/>
<text text-anchor="middle" x="472" y="-231.5" font-family="FreeSans" font-size="10.00">os_mem_drivers.h</text>
</a>
</g>
</g>
<!-- Node1&#45;&gt;Node9 -->
<g id="edge9" class="edge">
<title>Node1&#45;&gt;Node9</title>
<path fill="none" stroke="midnightblue" d="M446.06,-271.86C452.64,-262.5 460.51,-251.33 465.84,-243.75"/>
<polygon fill="midnightblue" stroke="midnightblue" points="443.17,-269.89 440.27,-280.08 448.89,-273.92 443.17,-269.89"/>
</g>
<!-- Node10 -->
<g id="node10" class="node">
<title>Node10</title>
<g id="a_node10"><a xlink:href="os__memheap__drivers_8h.html" target="_top" xlink:title="Drivers for OS heap management.">
<polygon fill="white" stroke="black" points="321.5,-168.5 321.5,-187.5 452.5,-187.5 452.5,-168.5 321.5,-168.5"/>
<text text-anchor="middle" x="387" y="-175.5" font-family="FreeSans" font-size="10.00">os_memheap_drivers.h</text>
</a>
</g>
</g>
<!-- Node1&#45;&gt;Node10 -->
<g id="edge28" class="edge">
<title>Node1&#45;&gt;Node10</title>
<path fill="none" stroke="midnightblue" d="M423.77,-271.3C419.25,-263.13 414.06,-253.22 410,-244 401.31,-224.28 393.47,-200.16 389.58,-187.57"/>
<polygon fill="midnightblue" stroke="midnightblue" points="420.85,-273.25 428.82,-280.23 426.94,-269.8 420.85,-273.25"/>
</g>
<!-- Node11 -->
<g id="node11" class="node">
<title>Node11</title>
<g id="a_node11"><a xlink:href="os__memheap__drivers_8c.html" target="_top" xlink:title=" ">
<polygon fill="white" stroke="black" points="165,-56.5 165,-75.5 295,-75.5 295,-56.5 165,-56.5"/>
<text text-anchor="middle" x="230" y="-63.5" font-family="FreeSans" font-size="10.00">os_memheap_drivers.c</text>
</a>
</g>
</g>
<!-- Node1&#45;&gt;Node11 -->
<g id="edge27" class="edge">
<title>Node1&#45;&gt;Node11</title>
<path fill="none" stroke="midnightblue" d="M393.09,-287.79C308.87,-282.73 118.81,-257.31 57,-132 34.4,-86.18 106.86,-72.21 164.86,-68.2"/>
<polygon fill="midnightblue" stroke="midnightblue" points="393.13,-291.3 403.3,-288.34 393.5,-284.31 393.13,-291.3"/>
</g>
<!-- Node15 -->
<g id="node15" class="node">
<title>Node15</title>
<g id="a_node15"><a xlink:href="os__user__privileges_8h.html" target="_top" xlink:title="User privileges specification used in part by the task manager.">
<polygon fill="white" stroke="black" points="712,-56.5 712,-75.5 828,-75.5 828,-56.5 712,-56.5"/>
<text text-anchor="middle" x="770" y="-63.5" font-family="FreeSans" font-size="10.00">os_user_privileges.h</text>
</a>
</g>
</g>
<!-- Node1&#45;&gt;Node15 -->
<g id="edge41" class="edge">
<title>Node1&#45;&gt;Node15</title>
<path fill="none" stroke="midnightblue" d="M474.78,-287.47C572.09,-283.43 815.44,-270.87 892,-244 935.04,-228.89 950.91,-224.69 978,-188 998.5,-160.23 1015.87,-138.7 994,-112 973.39,-86.84 887.26,-75.45 828.01,-70.51"/>
<polygon fill="midnightblue" stroke="midnightblue" points="474.59,-283.98 464.74,-287.88 474.88,-290.97 474.59,-283.98"/>
</g>
<!-- Node17 -->
<g id="node17" class="node">
<title>Node17</title>
<g id="a_node17"><a xlink:href="os__scheduler_8h.html" target="_top" xlink:title="Scheduling module for the OS.">
<polygon fill="white" stroke="black" points="636.5,-224.5 636.5,-243.5 725.5,-243.5 725.5,-224.5 636.5,-224.5"/>
<text text-anchor="middle" x="681" y="-231.5" font-family="FreeSans" font-size="10.00">os_scheduler.h</text>
</a>
</g>
</g>
<!-- Node1&#45;&gt;Node17 -->
<g id="edge29" class="edge">
<title>Node1&#45;&gt;Node17</title>
<path fill="none" stroke="midnightblue" d="M474.79,-280.08C521.21,-269.93 596.47,-253.48 642.09,-243.51"/>
<polygon fill="midnightblue" stroke="midnightblue" points="473.81,-276.71 464.78,-282.27 475.3,-283.55 473.81,-276.71"/>
</g>
<!-- Node18 -->
<g id="node18" class="node">
<title>Node18</title>
<g id="a_node18"><a xlink:href="os__scheduling__strategies_8h.html" target="_top" xlink:title="Scheduling library for the OS.">
<polygon fill="white" stroke="black" points="803.5,-168.5 803.5,-187.5 952.5,-187.5 952.5,-168.5 803.5,-168.5"/>
<text text-anchor="middle" x="878" y="-175.5" font-family="FreeSans" font-size="10.00">os_scheduling_strategies.h</text>
</a>
</g>
</g>
<!-- Node1&#45;&gt;Node18 -->
<g id="edge39" class="edge">
<title>Node1&#45;&gt;Node18</title>
<path fill="none" stroke="midnightblue" d="M474.83,-286.51C533.44,-282.12 644.37,-270.8 735,-244 783.64,-229.62 837.09,-201.82 862.68,-187.7"/>
<polygon fill="midnightblue" stroke="midnightblue" points="474.23,-283.04 464.51,-287.25 474.73,-290.02 474.23,-283.04"/>
</g>
<!-- Node19 -->
<g id="node19" class="node">
<title>Node19</title>
<g id="a_node19"><a xlink:href="os__scheduling__strategies_8c.html" target="_top" xlink:title=" ">
<polygon fill="white" stroke="black" points="837,-112.5 837,-131.5 985,-131.5 985,-112.5 837,-112.5"/>
<text text-anchor="middle" x="911" y="-119.5" font-family="FreeSans" font-size="10.00">os_scheduling_strategies.c</text>
</a>
</g>
</g>
<!-- Node1&#45;&gt;Node19 -->
<g id="edge38" class="edge">
<title>Node1&#45;&gt;Node19</title>
<path fill="none" stroke="midnightblue" d="M474.61,-287.96C588.03,-284.08 903.7,-266.31 962,-188 977.33,-167.4 946.29,-143.83 926.23,-131.51"/>
<polygon fill="midnightblue" stroke="midnightblue" points="474.48,-284.46 464.59,-288.28 474.7,-291.46 474.48,-284.46"/>
</g>
<!-- Node3 -->
<g id="node3" class="node">
<title>Node3</title>
<g id="a_node3"><a xlink:href="lcd_8c.html" target="_top" xlink:title="Library for LCD use.">
<polygon fill="white" stroke="black" points="125.5,-112.5 125.5,-131.5 164.5,-131.5 164.5,-112.5 125.5,-112.5"/>
<text text-anchor="middle" x="145" y="-119.5" font-family="FreeSans" font-size="10.00">lcd.c</text>
</a>
</g>
</g>
<!-- Node2&#45;&gt;Node3 -->
<g id="edge2" class="edge">
<title>Node2&#45;&gt;Node3</title>
<path fill="none" stroke="midnightblue" d="M189.96,-161.54C178.73,-151.91 164.68,-139.87 155.31,-131.83"/>
<polygon fill="midnightblue" stroke="midnightblue" points="188.01,-164.47 197.88,-168.32 192.56,-159.16 188.01,-164.47"/>
</g>
<!-- Node2&#45;&gt;Node4 -->
<g id="edge3" class="edge">
<title>Node2&#45;&gt;Node4</title>
<path fill="none" stroke="midnightblue" d="M221.73,-160.14C229.4,-150.74 238.63,-139.4 244.87,-131.75"/>
<polygon fill="midnightblue" stroke="midnightblue" points="218.87,-158.12 215.27,-168.08 224.3,-162.54 218.87,-158.12"/>
</g>
<!-- Node5 -->
<g id="node5" class="node">
<title>Node5</title>
<g id="a_node5"><a xlink:href="os__scheduler_8c.html" target="_top" xlink:title="Scheduling module for the OS.">
<polygon fill="white" stroke="black" points="568,-56.5 568,-75.5 656,-75.5 656,-56.5 568,-56.5"/>
<text text-anchor="middle" x="612" y="-63.5" font-family="FreeSans" font-size="10.00">os_scheduler.c</text>
</a>
</g>
</g>
<!-- Node2&#45;&gt;Node5 -->
<g id="edge4" class="edge">
<title>Node2&#45;&gt;Node5</title>
<path fill="none" stroke="midnightblue" d="M238.2,-173.59C300.4,-166.33 440.78,-148.64 486,-132 502.09,-126.08 503.93,-120.19 519,-112 544.06,-98.38 573.87,-84.32 592.86,-75.62"/>
<polygon fill="midnightblue" stroke="midnightblue" points="237.75,-170.12 228.22,-174.75 238.56,-177.07 237.75,-170.12"/>
</g>
<!-- Node2&#45;&gt;Node6 -->
<g id="edge5" class="edge">
<title>Node2&#45;&gt;Node6</title>
<path fill="none" stroke="midnightblue" d="M198.81,-159.41C184.03,-131.08 156.54,-78.24 156,-76 153.91,-67.36 149.99,-62.55 156,-56 188.63,-20.47 522.24,-12.95 641.72,-11.4"/>
<polygon fill="midnightblue" stroke="midnightblue" points="195.72,-161.05 203.45,-168.29 201.92,-157.81 195.72,-161.05"/>
</g>
<!-- Node2&#45;&gt;Node7 -->
<g id="edge6" class="edge">
<title>Node2&#45;&gt;Node7</title>
<path fill="none" stroke="midnightblue" d="M179.69,-164.37C157.03,-154.26 125.87,-140.35 106.08,-131.52"/>
<polygon fill="midnightblue" stroke="midnightblue" points="178.27,-167.56 188.83,-168.44 181.12,-161.17 178.27,-167.56"/>
</g>
<!-- Node9&#45;&gt;Node8 -->
<g id="edge10" class="edge">
<title>Node9&#45;&gt;Node8</title>
<path fill="none" stroke="midnightblue" d="M495.04,-219.18C511.6,-209.24 533.42,-196.15 547.58,-187.65"/>
<polygon fill="midnightblue" stroke="midnightblue" points="493.23,-216.18 486.46,-224.32 496.84,-222.18 493.23,-216.18"/>
</g>
<!-- Node9&#45;&gt;Node10 -->
<g id="edge11" class="edge">
<title>Node9&#45;&gt;Node10</title>
<path fill="none" stroke="midnightblue" d="M449.81,-218.9C434.22,-209 413.87,-196.07 400.62,-187.65"/>
<polygon fill="midnightblue" stroke="midnightblue" points="448.03,-221.92 458.34,-224.32 451.78,-216.01 448.03,-221.92"/>
</g>
<!-- Node12 -->
<g id="node12" class="node">
<title>Node12</title>
<g id="a_node12"><a xlink:href="os__memory_8h.html" target="_top" xlink:title="Library for OS memory management.">
<polygon fill="white" stroke="black" points="571,-112.5 571,-131.5 653,-131.5 653,-112.5 571,-112.5"/>
<text text-anchor="middle" x="612" y="-119.5" font-family="FreeSans" font-size="10.00">os_memory.h</text>
</a>
</g>
</g>
<!-- Node9&#45;&gt;Node12 -->
<g id="edge26" class="edge">
<title>Node9&#45;&gt;Node12</title>
<path fill="none" stroke="midnightblue" d="M475.9,-214.43C479.8,-200.07 487.1,-180.58 500,-168 519.35,-149.12 547.64,-137.84 570.94,-131.3"/>
<polygon fill="midnightblue" stroke="midnightblue" points="472.49,-213.67 473.56,-224.21 479.29,-215.31 472.49,-213.67"/>
</g>
<!-- Node10&#45;&gt;Node4 -->
<g id="edge12" class="edge">
<title>Node10&#45;&gt;Node4</title>
<path fill="none" stroke="midnightblue" d="M356.09,-164.64C330.76,-154.5 295.57,-140.43 273.29,-131.52"/>
<polygon fill="midnightblue" stroke="midnightblue" points="355.02,-167.98 365.61,-168.44 357.62,-161.48 355.02,-167.98"/>
</g>
<!-- Node10&#45;&gt;Node5 -->
<g id="edge25" class="edge">
<title>Node10&#45;&gt;Node5</title>
<path fill="none" stroke="midnightblue" d="M430.04,-165.67C456.46,-157.91 490.57,-146.42 519,-132 551.33,-115.61 585.23,-89.2 601.74,-75.64"/>
<polygon fill="midnightblue" stroke="midnightblue" points="428.96,-162.34 420.32,-168.46 430.89,-169.07 428.96,-162.34"/>
</g>
<!-- Node10&#45;&gt;Node11 -->
<g id="edge13" class="edge">
<title>Node10&#45;&gt;Node11</title>
<path fill="none" stroke="midnightblue" d="M366.19,-162.42C332.98,-139.15 269.04,-94.35 242.26,-75.59"/>
<polygon fill="midnightblue" stroke="midnightblue" points="364.48,-165.5 374.68,-168.37 368.5,-159.76 364.48,-165.5"/>
</g>
<!-- Node10&#45;&gt;Node12 -->
<g id="edge14" class="edge">
<title>Node10&#45;&gt;Node12</title>
<path fill="none" stroke="midnightblue" d="M432.47,-166.09C474.97,-155.89 537.58,-140.86 576.51,-131.52"/>
<polygon fill="midnightblue" stroke="midnightblue" points="431.56,-162.71 422.65,-168.44 433.19,-169.51 431.56,-162.71"/>
</g>
<!-- Node16 -->
<g id="node16" class="node">
<title>Node16</title>
<g id="a_node16"><a xlink:href="os__memory__strategies_8h.html" target="_top" xlink:title="Memory allocation library for the OS.">
<polygon fill="white" stroke="black" points="339.5,-112.5 339.5,-131.5 476.5,-131.5 476.5,-112.5 339.5,-112.5"/>
<text text-anchor="middle" x="408" y="-119.5" font-family="FreeSans" font-size="10.00">os_memory_strategies.h</text>
</a>
</g>
</g>
<!-- Node10&#45;&gt;Node16 -->
<g id="edge21" class="edge">
<title>Node10&#45;&gt;Node16</title>
<path fill="none" stroke="midnightblue" d="M394.12,-158.69C397.66,-149.59 401.77,-139.01 404.6,-131.75"/>
<polygon fill="midnightblue" stroke="midnightblue" points="390.83,-157.49 390.47,-168.08 397.35,-160.03 390.83,-157.49"/>
</g>
<!-- Node12&#45;&gt;Node5 -->
<g id="edge17" class="edge">
<title>Node12&#45;&gt;Node5</title>
<path fill="none" stroke="midnightblue" d="M612,-101.8C612,-92.91 612,-82.78 612,-75.75"/>
<polygon fill="midnightblue" stroke="midnightblue" points="608.5,-102.08 612,-112.08 615.5,-102.08 608.5,-102.08"/>
</g>
<!-- Node12&#45;&gt;Node6 -->
<g id="edge18" class="edge">
<title>Node12&#45;&gt;Node6</title>
<path fill="none" stroke="midnightblue" d="M634.64,-106.43C645.23,-98.58 657.2,-88.02 665,-76 676.65,-58.05 681.34,-32.77 683.07,-19.65"/>
<polygon fill="midnightblue" stroke="midnightblue" points="632.36,-103.76 626.19,-112.37 636.38,-109.49 632.36,-103.76"/>
</g>
<!-- Node13 -->
<g id="node13" class="node">
<title>Node13</title>
<g id="a_node13"><a xlink:href="os__memory_8c.html" target="_top" xlink:title=" ">
<polygon fill="white" stroke="black" points="313.5,-56.5 313.5,-75.5 394.5,-75.5 394.5,-56.5 313.5,-56.5"/>
<text text-anchor="middle" x="354" y="-63.5" font-family="FreeSans" font-size="10.00">os_memory.c</text>
</a>
</g>
</g>
<!-- Node12&#45;&gt;Node13 -->
<g id="edge15" class="edge">
<title>Node12&#45;&gt;Node13</title>
<path fill="none" stroke="midnightblue" d="M561.1,-110.35C512.34,-100.14 439.71,-84.94 394.69,-75.52"/>
<polygon fill="midnightblue" stroke="midnightblue" points="560.61,-113.82 571.12,-112.44 562.05,-106.97 560.61,-113.82"/>
</g>
<!-- Node14 -->
<g id="node14" class="node">
<title>Node14</title>
<g id="a_node14"><a xlink:href="os__memory__strategies_8c.html" target="_top" xlink:title=" ">
<polygon fill="white" stroke="black" points="412.5,-56.5 412.5,-75.5 549.5,-75.5 549.5,-56.5 412.5,-56.5"/>
<text text-anchor="middle" x="481" y="-63.5" font-family="FreeSans" font-size="10.00">os_memory_strategies.c</text>
</a>
</g>
</g>
<!-- Node12&#45;&gt;Node14 -->
<g id="edge16" class="edge">
<title>Node12&#45;&gt;Node14</title>
<path fill="none" stroke="midnightblue" d="M581.68,-108.5C557.12,-98.38 523.18,-84.39 501.66,-75.52"/>
<polygon fill="midnightblue" stroke="midnightblue" points="580.66,-111.87 591.24,-112.44 583.33,-105.4 580.66,-111.87"/>
</g>
<!-- Node12&#45;&gt;Node15 -->
<g id="edge19" class="edge">
<title>Node12&#45;&gt;Node15</title>
<path fill="none" stroke="midnightblue" d="M646.61,-109.17C676.36,-99 718.55,-84.59 745.08,-75.52"/>
<polygon fill="midnightblue" stroke="midnightblue" points="645.37,-105.9 637.04,-112.44 647.63,-112.52 645.37,-105.9"/>
</g>
<!-- Node15&#45;&gt;Node6 -->
<g id="edge20" class="edge">
<title>Node15&#45;&gt;Node6</title>
<path fill="none" stroke="midnightblue" d="M747.55,-50.9C731.78,-41 711.19,-28.07 697.78,-19.65"/>
<polygon fill="midnightblue" stroke="midnightblue" points="745.85,-53.97 756.18,-56.32 749.57,-48.04 745.85,-53.97"/>
</g>
<!-- Node16&#45;&gt;Node11 -->
<g id="edge22" class="edge">
<title>Node16&#45;&gt;Node11</title>
<path fill="none" stroke="midnightblue" d="M369.88,-109.44C336.32,-99.26 288.23,-84.66 258.07,-75.52"/>
<polygon fill="midnightblue" stroke="midnightblue" points="369.21,-112.89 379.8,-112.44 371.24,-106.19 369.21,-112.89"/>
</g>
<!-- Node16&#45;&gt;Node13 -->
<g id="edge23" class="edge">
<title>Node16&#45;&gt;Node13</title>
<path fill="none" stroke="midnightblue" d="M392,-105C382.43,-95.43 370.64,-83.64 362.75,-75.75"/>
<polygon fill="midnightblue" stroke="midnightblue" points="389.54,-107.49 399.08,-112.08 394.49,-102.54 389.54,-107.49"/>
</g>
<!-- Node16&#45;&gt;Node14 -->
<g id="edge24" class="edge">
<title>Node16&#45;&gt;Node14</title>
<path fill="none" stroke="midnightblue" d="M428.14,-106.1C441.28,-96.38 457.98,-84.03 469.06,-75.83"/>
<polygon fill="midnightblue" stroke="midnightblue" points="425.69,-103.56 419.73,-112.32 429.85,-109.19 425.69,-103.56"/>
</g>
<!-- Node17&#45;&gt;Node5 -->
<g id="edge32" class="edge">
<title>Node17&#45;&gt;Node5</title>
<path fill="none" stroke="midnightblue" d="M681.82,-214.25C682.11,-189.37 679.76,-144.76 662,-112 653.54,-96.4 637.5,-83.46 625.86,-75.52"/>
<polygon fill="midnightblue" stroke="midnightblue" points="678.32,-214.37 681.54,-224.47 685.32,-214.57 678.32,-214.37"/>
</g>
<!-- Node17&#45;&gt;Node6 -->
<g id="edge36" class="edge">
<title>Node17&#45;&gt;Node6</title>
<path fill="none" stroke="midnightblue" d="M700.59,-218.35C747.79,-182.25 862.07,-89.5 837,-56 823.65,-38.15 766.57,-24.96 726.05,-17.62"/>
<polygon fill="midnightblue" stroke="midnightblue" points="698.46,-215.57 692.61,-224.41 702.69,-221.15 698.46,-215.57"/>
</g>
<!-- Node17&#45;&gt;Node8 -->
<g id="edge30" class="edge">
<title>Node17&#45;&gt;Node8</title>
<path fill="none" stroke="midnightblue" d="M652.86,-220.23C630.6,-210.13 600.14,-196.31 580.77,-187.52"/>
<polygon fill="midnightblue" stroke="midnightblue" points="651.59,-223.5 662.14,-224.44 654.48,-217.12 651.59,-223.5"/>
</g>
<!-- Node17&#45;&gt;Node12 -->
<g id="edge31" class="edge">
<title>Node17&#45;&gt;Node12</title>
<path fill="none" stroke="midnightblue" d="M670.11,-215.64C655.12,-191.74 628.7,-149.63 617.39,-131.59"/>
<polygon fill="midnightblue" stroke="midnightblue" points="667.31,-217.76 675.59,-224.37 673.24,-214.04 667.31,-217.76"/>
</g>
<!-- Node17&#45;&gt;Node15 -->
<g id="edge37" class="edge">
<title>Node17&#45;&gt;Node15</title>
<path fill="none" stroke="midnightblue" d="M690.73,-214.86C709.82,-179.25 751.53,-101.45 765.41,-75.57"/>
<polygon fill="midnightblue" stroke="midnightblue" points="687.43,-213.61 685.79,-224.08 693.59,-216.92 687.43,-213.61"/>
</g>
<!-- Node17&#45;&gt;Node18 -->
<g id="edge33" class="edge">
<title>Node17&#45;&gt;Node18</title>
<path fill="none" stroke="midnightblue" d="M722.23,-221.7C759.41,-211.51 813.27,-196.74 846.93,-187.52"/>
<polygon fill="midnightblue" stroke="midnightblue" points="720.93,-218.42 712.22,-224.44 722.78,-225.18 720.93,-218.42"/>
</g>
<!-- Node18&#45;&gt;Node5 -->
<g id="edge34" class="edge">
<title>Node18&#45;&gt;Node5</title>
<path fill="none" stroke="midnightblue" d="M847.64,-164.45C793.01,-141.86 679.49,-94.91 632.78,-75.59"/>
<polygon fill="midnightblue" stroke="midnightblue" points="846.55,-167.78 857.13,-168.37 849.22,-161.31 846.55,-167.78"/>
</g>
<!-- Node18&#45;&gt;Node19 -->
<g id="edge35" class="edge">
<title>Node18&#45;&gt;Node19</title>
<path fill="none" stroke="midnightblue" d="M888.83,-159.27C894.47,-150.05 901.12,-139.17 905.65,-131.75"/>
<polygon fill="midnightblue" stroke="midnightblue" points="885.68,-157.73 883.45,-168.08 891.65,-161.38 885.68,-157.73"/>
</g>
</g>
</svg>
