<?xml version="1.0" encoding="UTF-8" standalone="no"?>
<!DOCTYPE svg PUBLIC "-//W3C//DTD SVG 1.1//EN"
 "http://www.w3.org/Graphics/SVG/1.1/DTD/svg11.dtd">
<!-- Generated by graphviz version 2.43.0 (0)
 -->
<!-- Title: lcd.h Pages: 1 -->
<svg width="395pt" height="84pt"
 viewBox="0.00 0.00 395.00 84.00" xmlns="http://www.w3.org/2000/svg" xmlns:xlink="http://www.w3.org/1999/xlink">
<g id="graph0" class="graph" transform="scale(1 1) rotate(0) translate(4 80)">
<title>lcd.h</title>
<polygon fill="white" stroke="transparent" points="-4,4 -4,-80 391,-80 391,4 -4,4"/>
<!-- Node1 -->
<g id="node1" class="node">
<title>Node1</title>
<g id="a_node1"><a xlink:title="Library for LCD use.">
<polygon fill="#bfbfbf" stroke="black" points="161.5,-56.5 161.5,-75.5 201.5,-75.5 201.5,-56.5 161.5,-56.5"/>
<text text-anchor="middle" x="181.5" y="-63.5" font-family="FreeSans" font-size="10.00">lcd.h</text>
</a>
</g>
</g>
<!-- Node2 -->
<g id="node2" class="node">
<title>Node2</title>
<g id="a_node2"><a xlink:href="lcd_8c.html" target="_top" xlink:title="Library for LCD use.">
<polygon fill="white" stroke="black" points="0,-0.5 0,-19.5 39,-19.5 39,-0.5 0,-0.5"/>
<text text-anchor="middle" x="19.5" y="-7.5" font-family="FreeSans" font-size="10.00">lcd.c</text>
</a>
</g>
</g>
<!-- Node1&#45;&gt;Node2 -->
<g id="edge1" class="edge">
<title>Node1&#45;&gt;Node2</title>
<path fill="none" stroke="midnightblue" d="M151.41,-54.97C118.73,-44.08 67.46,-26.99 39.44,-17.65"/>
<polygon fill="midnightblue" stroke="midnightblue" points="150.72,-58.43 161.31,-58.27 152.93,-51.79 150.72,-58.43"/>
</g>
<!-- Node3 -->
<g id="node3" class="node">
<title>Node3</title>
<g id="a_node3"><a xlink:href="os__core_8c.html" target="_top" xlink:title=" ">
<polygon fill="white" stroke="black" points="57.5,-0.5 57.5,-19.5 119.5,-19.5 119.5,-0.5 57.5,-0.5"/>
<text text-anchor="middle" x="88.5" y="-7.5" font-family="FreeSans" font-size="10.00">os_core.c</text>
</a>
</g>
</g>
<!-- Node1&#45;&gt;Node3 -->
<g id="edge2" class="edge">
<title>Node1&#45;&gt;Node3</title>
<path fill="none" stroke="midnightblue" d="M157.69,-51.18C140.58,-41.24 118.03,-28.15 103.4,-19.65"/>
<polygon fill="midnightblue" stroke="midnightblue" points="156.15,-54.33 166.56,-56.32 159.67,-48.28 156.15,-54.33"/>
</g>
<!-- Node4 -->
<g id="node4" class="node">
<title>Node4</title>
<g id="a_node4"><a xlink:href="os__scheduler_8c.html" target="_top" xlink:title="Scheduling module for the OS.">
<polygon fill="white" stroke="black" points="137.5,-0.5 137.5,-19.5 225.5,-19.5 225.5,-0.5 137.5,-0.5"/>
<text text-anchor="middle" x="181.5" y="-7.5" font-family="FreeSans" font-size="10.00">os_scheduler.c</text>
</a>
</g>
</g>
<!-- Node1&#45;&gt;Node4 -->
<g id="edge3" class="edge">
<title>Node1&#45;&gt;Node4</title>
<path fill="none" stroke="midnightblue" d="M181.5,-45.8C181.5,-36.91 181.5,-26.78 181.5,-19.75"/>
<polygon fill="midnightblue" stroke="midnightblue" points="178,-46.08 181.5,-56.08 185,-46.08 178,-46.08"/>
</g>
<!-- Node5 -->
<g id="node5" class="node">
<title>Node5</title>
<g id="a_node5"><a xlink:href="os__taskman_8c.html" target="_top" xlink:title=" ">
<polygon fill="white" stroke="black" points="243.5,-0.5 243.5,-19.5 327.5,-19.5 327.5,-0.5 243.5,-0.5"/>
<text text-anchor="middle" x="285.5" y="-7.5" font-family="FreeSans" font-size="10.00">os_taskman.c</text>
</a>
</g>
</g>
<!-- Node1&#45;&gt;Node5 -->
<g id="edge4" class="edge">
<title>Node1&#45;&gt;Node5</title>
<path fill="none" stroke="midnightblue" d="M207.33,-51.59C226.56,-41.61 252.24,-28.27 268.83,-19.65"/>
<polygon fill="midnightblue" stroke="midnightblue" points="205.47,-48.61 198.21,-56.32 208.7,-54.82 205.47,-48.61"/>
</g>
<!-- Node6 -->
<g id="node6" class="node">
<title>Node6</title>
<g id="a_node6"><a xlink:href="util_8c.html" target="_top" xlink:title=" ">
<polygon fill="white" stroke="black" points="346,-0.5 346,-19.5 387,-19.5 387,-0.5 346,-0.5"/>
<text text-anchor="middle" x="366.5" y="-7.5" font-family="FreeSans" font-size="10.00">util.c</text>
</a>
</g>
</g>
<!-- Node1&#45;&gt;Node6 -->
<g id="edge5" class="edge">
<title>Node1&#45;&gt;Node6</title>
<path fill="none" stroke="midnightblue" d="M211.4,-56.4C242.63,-47.41 293.04,-32.83 336.5,-20 339.52,-19.11 342.72,-18.16 345.85,-17.22"/>
<polygon fill="midnightblue" stroke="midnightblue" points="210.22,-53.1 201.58,-59.23 212.16,-59.83 210.22,-53.1"/>
</g>
</g>
</svg>
