<?xml version="1.0" encoding="UTF-8" standalone="no"?>
<!DOCTYPE svg PUBLIC "-//W3C//DTD SVG 1.1//EN"
 "http://www.w3.org/Graphics/SVG/1.1/DTD/svg11.dtd">
<!-- Generated by graphviz version 2.43.0 (0)
 -->
<!-- Title: lcd.h Pages: 1 -->
<svg width="401pt" height="196pt"
 viewBox="0.00 0.00 401.00 196.00" xmlns="http://www.w3.org/2000/svg" xmlns:xlink="http://www.w3.org/1999/xlink">
<g id="graph0" class="graph" transform="scale(1 1) rotate(0) translate(4 192)">
<title>lcd.h</title>
<polygon fill="white" stroke="transparent" points="-4,4 -4,-192 397,-192 397,4 -4,4"/>
<!-- Node1 -->
<g id="node1" class="node">
<title>Node1</title>
<g id="a_node1"><a xlink:title="Library for LCD use.">
<polygon fill="#bfbfbf" stroke="black" points="155,-168.5 155,-187.5 195,-187.5 195,-168.5 155,-168.5"/>
<text text-anchor="middle" x="175" y="-175.5" font-family="FreeSans" font-size="10.00">lcd.h</text>
</a>
</g>
</g>
<!-- Node2 -->
<g id="node2" class="node">
<title>Node2</title>
<g id="a_node2"><a xlink:title=" ">
<polygon fill="white" stroke="#bfbfbf" points="0,-56.5 0,-75.5 62,-75.5 62,-56.5 0,-56.5"/>
<text text-anchor="middle" x="31" y="-63.5" font-family="FreeSans" font-size="10.00">stdbool.h</text>
</a>
</g>
</g>
<!-- Node1&#45;&gt;Node2 -->
<g id="edge1" class="edge">
<title>Node1&#45;&gt;Node2</title>
<path fill="none" stroke="midnightblue" d="M154.89,-171.21C133.79,-164.4 100.48,-151.49 77,-132 61.1,-118.8 48.08,-98.85 40,-84.54"/>
<polygon fill="midnightblue" stroke="midnightblue" points="43.05,-82.82 35.22,-75.68 36.89,-86.14 43.05,-82.82"/>
</g>
<!-- Node3 -->
<g id="node3" class="node">
<title>Node3</title>
<g id="a_node3"><a xlink:title=" ">
<polygon fill="white" stroke="#bfbfbf" points="80.5,-56.5 80.5,-75.5 133.5,-75.5 133.5,-56.5 80.5,-56.5"/>
<text text-anchor="middle" x="107" y="-63.5" font-family="FreeSans" font-size="10.00">stdint.h</text>
</a>
</g>
</g>
<!-- Node1&#45;&gt;Node3 -->
<g id="edge2" class="edge">
<title>Node1&#45;&gt;Node3</title>
<path fill="none" stroke="midnightblue" d="M169.79,-168.11C162.39,-155.55 148.37,-131.89 136,-112 130.22,-102.71 123.63,-92.45 118.19,-84.08"/>
<polygon fill="midnightblue" stroke="midnightblue" points="121.04,-82.04 112.64,-75.57 115.17,-85.86 121.04,-82.04"/>
</g>
<!-- Node4 -->
<g id="node4" class="node">
<title>Node4</title>
<g id="a_node4"><a xlink:title=" ">
<polygon fill="white" stroke="#bfbfbf" points="222,-112.5 222,-131.5 272,-131.5 272,-112.5 222,-112.5"/>
<text text-anchor="middle" x="247" y="-119.5" font-family="FreeSans" font-size="10.00">stdio.h</text>
</a>
</g>
</g>
<!-- Node1&#45;&gt;Node4 -->
<g id="edge3" class="edge">
<title>Node1&#45;&gt;Node4</title>
<path fill="none" stroke="midnightblue" d="M186.57,-168.32C197.42,-160.18 213.88,-147.84 226.88,-138.09"/>
<polygon fill="midnightblue" stroke="midnightblue" points="229.32,-140.63 235.22,-131.83 225.12,-135.03 229.32,-140.63"/>
</g>
<!-- Node5 -->
<g id="node5" class="node">
<title>Node5</title>
<g id="a_node5"><a xlink:title=" ">
<polygon fill="white" stroke="#bfbfbf" points="151.5,-56.5 151.5,-75.5 246.5,-75.5 246.5,-56.5 151.5,-56.5"/>
<text text-anchor="middle" x="199" y="-63.5" font-family="FreeSans" font-size="10.00">avr/pgmspace.h</text>
</a>
</g>
</g>
<!-- Node1&#45;&gt;Node5 -->
<g id="edge4" class="edge">
<title>Node1&#45;&gt;Node5</title>
<path fill="none" stroke="midnightblue" d="M176.88,-168.37C180.76,-150.62 189.69,-109.67 194.94,-85.6"/>
<polygon fill="midnightblue" stroke="midnightblue" points="198.41,-86.11 197.13,-75.59 191.57,-84.62 198.41,-86.11"/>
</g>
<!-- Node6 -->
<g id="node6" class="node">
<title>Node6</title>
<g id="a_node6"><a xlink:href="defines_8h.html" target="_top" xlink:title="Simple definitions and assembler&#45;macros, mostly 8/16&#45;Bit values.">
<polygon fill="white" stroke="black" points="294.5,-112.5 294.5,-131.5 355.5,-131.5 355.5,-112.5 294.5,-112.5"/>
<text text-anchor="middle" x="325" y="-119.5" font-family="FreeSans" font-size="10.00">defines.h</text>
</a>
</g>
</g>
<!-- Node1&#45;&gt;Node6 -->
<g id="edge5" class="edge">
<title>Node1&#45;&gt;Node6</title>
<path fill="none" stroke="midnightblue" d="M195.23,-169.72C219.94,-160.82 262.11,-145.64 291.65,-135.01"/>
<polygon fill="midnightblue" stroke="midnightblue" points="292.92,-138.27 301.14,-131.59 290.54,-131.68 292.92,-138.27"/>
</g>
<!-- Node9 -->
<g id="node9" class="node">
<title>Node9</title>
<g id="a_node9"><a xlink:href="util_8h.html" target="_top" xlink:title="Little helpers that don&#39;t fit elsewhere.">
<polygon fill="white" stroke="black" points="86.5,-112.5 86.5,-131.5 127.5,-131.5 127.5,-112.5 86.5,-112.5"/>
<text text-anchor="middle" x="107" y="-119.5" font-family="FreeSans" font-size="10.00">util.h</text>
</a>
</g>
</g>
<!-- Node1&#45;&gt;Node9 -->
<g id="edge8" class="edge">
<title>Node1&#45;&gt;Node9</title>
<path fill="none" stroke="midnightblue" d="M164.07,-168.32C153.83,-160.18 138.28,-147.84 126,-138.09"/>
<polygon fill="midnightblue" stroke="midnightblue" points="128.13,-135.31 118.12,-131.83 123.78,-140.79 128.13,-135.31"/>
</g>
<!-- Node7 -->
<g id="node7" class="node">
<title>Node7</title>
<g id="a_node7"><a xlink:href="atmega644constants_8h.html" target="_top" xlink:title="Constants for ATMega644 and EVA board. Defines several useful constants for the ATMega644.">
<polygon fill="white" stroke="black" points="265,-56.5 265,-75.5 393,-75.5 393,-56.5 265,-56.5"/>
<text text-anchor="middle" x="329" y="-63.5" font-family="FreeSans" font-size="10.00">atmega644constants.h</text>
</a>
</g>
</g>
<!-- Node6&#45;&gt;Node7 -->
<g id="edge6" class="edge">
<title>Node6&#45;&gt;Node7</title>
<path fill="none" stroke="midnightblue" d="M325.66,-112.08C326.18,-105.01 326.94,-94.86 327.59,-85.99"/>
<polygon fill="midnightblue" stroke="midnightblue" points="331.1,-85.98 328.35,-75.75 324.12,-85.47 331.1,-85.98"/>
</g>
<!-- Node8 -->
<g id="node8" class="node">
<title>Node8</title>
<g id="a_node8"><a xlink:title=" ">
<polygon fill="white" stroke="#bfbfbf" points="302.5,-0.5 302.5,-19.5 355.5,-19.5 355.5,-0.5 302.5,-0.5"/>
<text text-anchor="middle" x="329" y="-7.5" font-family="FreeSans" font-size="10.00">avr/io.h</text>
</a>
</g>
</g>
<!-- Node7&#45;&gt;Node8 -->
<g id="edge7" class="edge">
<title>Node7&#45;&gt;Node8</title>
<path fill="none" stroke="midnightblue" d="M329,-56.08C329,-49.01 329,-38.86 329,-29.99"/>
<polygon fill="midnightblue" stroke="midnightblue" points="332.5,-29.75 329,-19.75 325.5,-29.75 332.5,-29.75"/>
</g>
<!-- Node9&#45;&gt;Node2 -->
<g id="edge10" class="edge">
<title>Node9&#45;&gt;Node2</title>
<path fill="none" stroke="midnightblue" d="M94.79,-112.32C83.22,-104.11 65.62,-91.6 51.84,-81.81"/>
<polygon fill="midnightblue" stroke="midnightblue" points="53.61,-78.77 43.43,-75.83 49.56,-84.48 53.61,-78.77"/>
</g>
<!-- Node9&#45;&gt;Node3 -->
<g id="edge9" class="edge">
<title>Node9&#45;&gt;Node3</title>
<path fill="none" stroke="midnightblue" d="M107,-112.08C107,-105.01 107,-94.86 107,-85.99"/>
<polygon fill="midnightblue" stroke="midnightblue" points="110.5,-85.75 107,-75.75 103.5,-85.75 110.5,-85.75"/>
</g>
<!-- Node9&#45;&gt;Node5 -->
<g id="edge11" class="edge">
<title>Node9&#45;&gt;Node5</title>
<path fill="none" stroke="midnightblue" d="M121.78,-112.32C136.27,-103.82 158.57,-90.73 175.49,-80.8"/>
<polygon fill="midnightblue" stroke="midnightblue" points="177.4,-83.74 184.26,-75.65 173.86,-77.7 177.4,-83.74"/>
</g>
</g>
</svg>
