<?xml version="1.0" encoding="UTF-8" standalone="no"?>
<!DOCTYPE svg PUBLIC "-//W3C//DTD SVG 1.1//EN"
 "http://www.w3.org/Graphics/SVG/1.1/DTD/svg11.dtd">
<!-- Generated by graphviz version 2.43.0 (0)
 -->
<!-- Title: lcd_goto Pages: 1 -->
<svg width="318pt" height="28pt"
 viewBox="0.00 0.00 318.00 28.00" xmlns="http://www.w3.org/2000/svg" xmlns:xlink="http://www.w3.org/1999/xlink">
<g id="graph0" class="graph" transform="scale(1 1) rotate(0) translate(4 24)">
<title>lcd_goto</title>
<polygon fill="white" stroke="transparent" points="-4,4 -4,-24 314,-24 314,4 -4,4"/>
<!-- Node1 -->
<g id="node1" class="node">
<title>Node1</title>
<g id="a_node1"><a xlink:title="Next output will be written at (row, column)">
<polygon fill="#bfbfbf" stroke="black" points="0,-0.5 0,-19.5 58,-19.5 58,-0.5 0,-0.5"/>
<text text-anchor="middle" x="29" y="-7.5" font-family="FreeSans" font-size="10.00">lcd_goto</text>
</a>
</g>
</g>
<!-- Node2 -->
<g id="node2" class="node">
<title>Node2</title>
<g id="a_node2"><a xlink:href="lcd_8c.html#acb116d89c358367b8fd1164120d320e3" target="_top" xlink:title="Send command to LCD.">
<polygon fill="white" stroke="black" points="94,-0.5 94,-19.5 179,-19.5 179,-0.5 94,-0.5"/>
<text text-anchor="middle" x="136.5" y="-7.5" font-family="FreeSans" font-size="10.00">lcd_command</text>
</a>
</g>
</g>
<!-- Node1&#45;&gt;Node2 -->
<g id="edge1" class="edge">
<title>Node1&#45;&gt;Node2</title>
<path fill="none" stroke="midnightblue" d="M58.27,-10C66.08,-10 74.81,-10 83.51,-10"/>
<polygon fill="midnightblue" stroke="midnightblue" points="83.65,-13.5 93.65,-10 83.65,-6.5 83.65,-13.5"/>
</g>
<!-- Node3 -->
<g id="node3" class="node">
<title>Node3</title>
<g id="a_node3"><a xlink:href="lcd_8c.html#a26a89cb41bb1496462fda420cbe79a07" target="_top" xlink:title=" ">
<polygon fill="white" stroke="black" points="215,-0.5 215,-19.5 310,-19.5 310,-0.5 215,-0.5"/>
<text text-anchor="middle" x="262.5" y="-7.5" font-family="FreeSans" font-size="10.00">lcd_sendStream</text>
</a>
</g>
</g>
<!-- Node2&#45;&gt;Node3 -->
<g id="edge2" class="edge">
<title>Node2&#45;&gt;Node3</title>
<path fill="none" stroke="midnightblue" d="M179.14,-10C187.24,-10 195.86,-10 204.37,-10"/>
<polygon fill="midnightblue" stroke="midnightblue" points="204.63,-13.5 214.63,-10 204.63,-6.5 204.63,-13.5"/>
</g>
</g>
</svg>
