<?xml version="1.0" encoding="UTF-8" standalone="no"?>
<!DOCTYPE svg PUBLIC "-//W3C//DTD SVG 1.1//EN"
 "http://www.w3.org/Graphics/SVG/1.1/DTD/svg11.dtd">
<!-- Generated by graphviz version 2.43.0 (0)
 -->
<!-- Title: os_realloc Pages: 1 -->
<svg width="664pt" height="351pt"
 viewBox="0.00 0.00 664.00 351.00" xmlns="http://www.w3.org/2000/svg" xmlns:xlink="http://www.w3.org/1999/xlink">
<g id="graph0" class="graph" transform="scale(1 1) rotate(0) translate(4 347)">
<title>os_realloc</title>
<polygon fill="white" stroke="transparent" points="-4,4 -4,-347 660,-347 660,4 -4,4"/>
<!-- Node1 -->
<g id="node1" class="node">
<title>Node1</title>
<g id="a_node1"><a xlink:title="Function to efficiently reallocate memory.">
<polygon fill="#bfbfbf" stroke="black" points="0,-152.5 0,-171.5 66,-171.5 66,-152.5 0,-152.5"/>
<text text-anchor="middle" x="33" y="-159.5" font-family="FreeSans" font-size="10.00">os_realloc</text>
</a>
</g>
</g>
<!-- Node2 -->
<g id="node2" class="node">
<title>Node2</title>
<g id="a_node2"><a xlink:href="os__memory_8c.html#a1c8691648bd2d5114b97de7cc2550bc2" target="_top" xlink:title=" ">
<polygon fill="white" stroke="black" points="130,-266.5 130,-285.5 205,-285.5 205,-266.5 130,-266.5"/>
<text text-anchor="middle" x="167.5" y="-273.5" font-family="FreeSans" font-size="10.00">moveChunk</text>
</a>
</g>
</g>
<!-- Node1&#45;&gt;Node2 -->
<g id="edge1" class="edge">
<title>Node1&#45;&gt;Node2</title>
<path fill="none" stroke="midnightblue" d="M38.82,-171.57C48.43,-189.74 71.68,-229.43 102,-252 107.54,-256.12 113.86,-259.61 120.33,-262.53"/>
<polygon fill="midnightblue" stroke="midnightblue" points="119.27,-265.88 129.85,-266.42 121.92,-259.4 119.27,-265.88"/>
</g>
<!-- Node3 -->
<g id="node3" class="node">
<title>Node3</title>
<g id="a_node3"><a xlink:href="os__memory_8c.html#a29ccc3e0a668c0be4b285bc74ef6d920" target="_top" xlink:title="Function used to get the value of a single map entry, this is made public so the allocation strategie...">
<polygon fill="white" stroke="black" points="439,-209.5 439,-228.5 534,-228.5 534,-209.5 439,-209.5"/>
<text text-anchor="middle" x="486.5" y="-216.5" font-family="FreeSans" font-size="10.00">os_getMapEntry</text>
</a>
</g>
</g>
<!-- Node1&#45;&gt;Node3 -->
<g id="edge15" class="edge">
<title>Node1&#45;&gt;Node3</title>
<path fill="none" stroke="midnightblue" d="M41.95,-171.93C53.51,-185.5 76.37,-209.24 102,-219 213.43,-261.42 356.62,-244.49 432.61,-230.49"/>
<polygon fill="midnightblue" stroke="midnightblue" points="433.71,-233.85 442.88,-228.54 432.4,-226.97 433.71,-233.85"/>
</g>
<!-- Node6 -->
<g id="node6" class="node">
<title>Node6</title>
<g id="a_node6"><a xlink:href="os__memory_8c.html#aa0082364f445ac8cfacf8d0e873bcfb5" target="_top" xlink:title="This function is used to set a heap map entry on a specific heap.">
<polygon fill="white" stroke="black" points="297,-304.5 297,-323.5 375,-323.5 375,-304.5 297,-304.5"/>
<text text-anchor="middle" x="336" y="-311.5" font-family="FreeSans" font-size="10.00">setMapEntry</text>
</a>
</g>
</g>
<!-- Node1&#45;&gt;Node6 -->
<g id="edge19" class="edge">
<title>Node1&#45;&gt;Node6</title>
<path fill="none" stroke="midnightblue" d="M35.69,-171.84C40.63,-197.27 57.6,-265.29 102,-295 156.91,-331.74 236.2,-329.44 286.66,-322.89"/>
<polygon fill="midnightblue" stroke="midnightblue" points="287.24,-326.34 296.66,-321.49 286.27,-319.41 287.24,-326.34"/>
</g>
<!-- Node9 -->
<g id="node9" class="node">
<title>Node9</title>
<g id="a_node9"><a xlink:href="os__scheduler_8c.html#a9d27b2dbf45ce6648916ed5ceb0a38df" target="_top" xlink:title="Enters a critical code section.">
<polygon fill="white" stroke="black" points="271.5,-57.5 271.5,-76.5 400.5,-76.5 400.5,-57.5 271.5,-57.5"/>
<text text-anchor="middle" x="336" y="-64.5" font-family="FreeSans" font-size="10.00">os_enterCriticalSection</text>
</a>
</g>
</g>
<!-- Node1&#45;&gt;Node9 -->
<g id="edge8" class="edge">
<title>Node1&#45;&gt;Node9</title>
<path fill="none" stroke="midnightblue" d="M66.29,-153.58C105.85,-143.07 174.79,-124.15 233,-105 256.03,-97.42 281.61,-87.89 301.38,-80.27"/>
<polygon fill="midnightblue" stroke="midnightblue" points="302.81,-83.47 310.87,-76.59 300.28,-76.95 302.81,-83.47"/>
</g>
<!-- Node10 -->
<g id="node10" class="node">
<title>Node10</title>
<g id="a_node10"><a xlink:href="os__memory_8c.html#af4b11f1dd58f3cec9668a6be98101be4" target="_top" xlink:title="Get the size of a chunk on a given address.">
<polygon fill="white" stroke="black" points="117.5,-190.5 117.5,-209.5 217.5,-209.5 217.5,-190.5 117.5,-190.5"/>
<text text-anchor="middle" x="167.5" y="-197.5" font-family="FreeSans" font-size="10.00">os_getChunkSize</text>
</a>
</g>
</g>
<!-- Node1&#45;&gt;Node10 -->
<g id="edge9" class="edge">
<title>Node1&#45;&gt;Node10</title>
<path fill="none" stroke="midnightblue" d="M66.07,-171.2C83.34,-176.15 104.88,-182.33 123.57,-187.69"/>
<polygon fill="midnightblue" stroke="midnightblue" points="122.76,-191.1 133.34,-190.49 124.69,-184.37 122.76,-191.1"/>
</g>
<!-- Node11 -->
<g id="node11" class="node">
<title>Node11</title>
<g id="a_node11"><a xlink:href="os__memory_8c.html#a292385f9ee19516237f51ab76c76405e" target="_top" xlink:title="Get the address of the first byte of chunk.">
<polygon fill="white" stroke="black" points="269,-152.5 269,-171.5 403,-171.5 403,-152.5 269,-152.5"/>
<text text-anchor="middle" x="336" y="-159.5" font-family="FreeSans" font-size="10.00">os_getFirstByteOfChunk</text>
</a>
</g>
</g>
<!-- Node1&#45;&gt;Node11 -->
<g id="edge14" class="edge">
<title>Node1&#45;&gt;Node11</title>
<path fill="none" stroke="midnightblue" d="M66.21,-162C111.82,-162 196.6,-162 258.78,-162"/>
<polygon fill="midnightblue" stroke="midnightblue" points="258.95,-165.5 268.95,-162 258.95,-158.5 258.95,-165.5"/>
</g>
<!-- Node12 -->
<g id="node12" class="node">
<title>Node12</title>
<g id="a_node12"><a xlink:href="os__scheduler_8c.html#a917313bbbb324677f26dfdf2ad80de3d" target="_top" xlink:title="Returns the currently active process.">
<polygon fill="white" stroke="black" points="114.5,-76.5 114.5,-95.5 220.5,-95.5 220.5,-76.5 114.5,-76.5"/>
<text text-anchor="middle" x="167.5" y="-83.5" font-family="FreeSans" font-size="10.00">os_getCurrentProc</text>
</a>
</g>
</g>
<!-- Node1&#45;&gt;Node12 -->
<g id="edge13" class="edge">
<title>Node1&#45;&gt;Node12</title>
<path fill="none" stroke="midnightblue" d="M44.38,-152.47C57.15,-141.14 79.88,-122.21 102,-110 109.36,-105.93 117.55,-102.29 125.56,-99.14"/>
<polygon fill="midnightblue" stroke="midnightblue" points="127.02,-102.33 135.16,-95.56 124.57,-95.78 127.02,-102.33"/>
</g>
<!-- Node13 -->
<g id="node13" class="node">
<title>Node13</title>
<g id="a_node13"><a xlink:href="os__scheduler_8c.html#a21546fdd22e5e6818e50856a119d98e0" target="_top" xlink:title="Leaves a critical code section.">
<polygon fill="white" stroke="black" points="102,-38.5 102,-57.5 233,-57.5 233,-38.5 102,-38.5"/>
<text text-anchor="middle" x="167.5" y="-45.5" font-family="FreeSans" font-size="10.00">os_leaveCriticalSection</text>
</a>
</g>
</g>
<!-- Node1&#45;&gt;Node13 -->
<g id="edge16" class="edge">
<title>Node1&#45;&gt;Node13</title>
<path fill="none" stroke="midnightblue" d="M38.25,-152.29C47.18,-133.04 69.76,-89.92 102,-67 104.71,-65.07 107.62,-63.34 110.64,-61.78"/>
<polygon fill="midnightblue" stroke="midnightblue" points="112.29,-64.88 120,-57.6 109.44,-58.48 112.29,-64.88"/>
</g>
<!-- Node14 -->
<g id="node14" class="node">
<title>Node14</title>
<g id="a_node14"><a xlink:href="os__memory_8c.html#a5644c571680a5c019c91c30bee4d5d7e" target="_top" xlink:title="Function used to allocate private memory.">
<polygon fill="white" stroke="black" points="134.5,-0.5 134.5,-19.5 200.5,-19.5 200.5,-0.5 134.5,-0.5"/>
<text text-anchor="middle" x="167.5" y="-7.5" font-family="FreeSans" font-size="10.00">os_malloc</text>
</a>
</g>
</g>
<!-- Node1&#45;&gt;Node14 -->
<g id="edge17" class="edge">
<title>Node1&#45;&gt;Node14</title>
<path fill="none" stroke="midnightblue" d="M36.15,-152.31C42.09,-127.81 61.08,-62.94 102,-29 108.45,-23.65 116.36,-19.81 124.4,-17.04"/>
<polygon fill="midnightblue" stroke="midnightblue" points="125.56,-20.35 134.18,-14.18 123.6,-13.63 125.56,-20.35"/>
</g>
<!-- Node2&#45;&gt;Node3 -->
<g id="edge2" class="edge">
<title>Node2&#45;&gt;Node3</title>
<path fill="none" stroke="midnightblue" d="M205.19,-275.39C251.81,-273.9 334.45,-268.87 403,-252 421.31,-247.5 440.94,-239.77 456.46,-232.93"/>
<polygon fill="midnightblue" stroke="midnightblue" points="458.34,-235.91 466.01,-228.6 455.45,-229.54 458.34,-235.91"/>
</g>
<!-- Node2&#45;&gt;Node6 -->
<g id="edge5" class="edge">
<title>Node2&#45;&gt;Node6</title>
<path fill="none" stroke="midnightblue" d="M205.04,-284.34C229.04,-289.82 260.7,-297.04 286.76,-302.99"/>
<polygon fill="midnightblue" stroke="midnightblue" points="286.28,-306.47 296.81,-305.28 287.84,-299.65 286.28,-306.47"/>
</g>
<!-- Node4 -->
<g id="node4" class="node">
<title>Node4</title>
<g id="a_node4"><a xlink:href="os__memory_8c.html#ae420976ba4abbd069aff795935b9636c" target="_top" xlink:title="Reads the value of the higher nibble of the given address.">
<polygon fill="white" stroke="black" points="570,-228.5 570,-247.5 656,-247.5 656,-228.5 570,-228.5"/>
<text text-anchor="middle" x="613" y="-235.5" font-family="FreeSans" font-size="10.00">getHighNibble</text>
</a>
</g>
</g>
<!-- Node3&#45;&gt;Node4 -->
<g id="edge3" class="edge">
<title>Node3&#45;&gt;Node4</title>
<path fill="none" stroke="midnightblue" d="M534.21,-226.13C542.64,-227.42 551.48,-228.76 560.05,-230.07"/>
<polygon fill="midnightblue" stroke="midnightblue" points="559.53,-233.53 569.95,-231.58 560.59,-226.61 559.53,-233.53"/>
</g>
<!-- Node5 -->
<g id="node5" class="node">
<title>Node5</title>
<g id="a_node5"><a xlink:href="os__memory_8c.html#a01bd9b56dbbeb0af404043ceca5c8818" target="_top" xlink:title="Reads the value of the lower nibble of the given address.">
<polygon fill="white" stroke="black" points="571.5,-190.5 571.5,-209.5 654.5,-209.5 654.5,-190.5 571.5,-190.5"/>
<text text-anchor="middle" x="613" y="-197.5" font-family="FreeSans" font-size="10.00">getLowNibble</text>
</a>
</g>
</g>
<!-- Node3&#45;&gt;Node5 -->
<g id="edge4" class="edge">
<title>Node3&#45;&gt;Node5</title>
<path fill="none" stroke="midnightblue" d="M534.21,-211.87C543.04,-210.52 552.3,-209.11 561.25,-207.75"/>
<polygon fill="midnightblue" stroke="midnightblue" points="561.8,-211.2 571.16,-206.23 560.75,-204.28 561.8,-211.2"/>
</g>
<!-- Node7 -->
<g id="node7" class="node">
<title>Node7</title>
<g id="a_node7"><a xlink:href="os__memory_8c.html#a211f98b56ba22e7ec073c1b09b35d0ff" target="_top" xlink:title="Writes a value from 0x0 to 0xF to the higher nibble of the given address.">
<polygon fill="white" stroke="black" points="443.5,-285.5 443.5,-304.5 529.5,-304.5 529.5,-285.5 443.5,-285.5"/>
<text text-anchor="middle" x="486.5" y="-292.5" font-family="FreeSans" font-size="10.00">setHighNibble</text>
</a>
</g>
</g>
<!-- Node6&#45;&gt;Node7 -->
<g id="edge6" class="edge">
<title>Node6&#45;&gt;Node7</title>
<path fill="none" stroke="midnightblue" d="M375.24,-309.11C392.94,-306.84 414.25,-304.12 433.39,-301.67"/>
<polygon fill="midnightblue" stroke="midnightblue" points="433.99,-305.12 443.47,-300.38 433.11,-298.18 433.99,-305.12"/>
</g>
<!-- Node8 -->
<g id="node8" class="node">
<title>Node8</title>
<g id="a_node8"><a xlink:href="os__memory_8c.html#a79edcf2881c1b78d097495d05e7cec4f" target="_top" xlink:title="Writes a value from 0x0 to 0xF to the lower nibble of the given address.">
<polygon fill="white" stroke="black" points="445,-323.5 445,-342.5 528,-342.5 528,-323.5 445,-323.5"/>
<text text-anchor="middle" x="486.5" y="-330.5" font-family="FreeSans" font-size="10.00">setLowNibble</text>
</a>
</g>
</g>
<!-- Node6&#45;&gt;Node8 -->
<g id="edge7" class="edge">
<title>Node6&#45;&gt;Node8</title>
<path fill="none" stroke="midnightblue" d="M375.24,-318.89C393.39,-321.22 415.33,-324.02 434.84,-326.52"/>
<polygon fill="midnightblue" stroke="midnightblue" points="434.42,-329.99 444.79,-327.79 435.31,-323.05 434.42,-329.99"/>
</g>
<!-- Node10&#45;&gt;Node3 -->
<g id="edge12" class="edge">
<title>Node10&#45;&gt;Node3</title>
<path fill="none" stroke="midnightblue" d="M217.68,-202.95C274.73,-206.37 368.61,-211.99 428.71,-215.6"/>
<polygon fill="midnightblue" stroke="midnightblue" points="428.59,-219.1 438.79,-216.2 429.01,-212.11 428.59,-219.1"/>
</g>
<!-- Node10&#45;&gt;Node11 -->
<g id="edge10" class="edge">
<title>Node10&#45;&gt;Node11</title>
<path fill="none" stroke="midnightblue" d="M210.51,-190.41C232.68,-185.35 260.07,-179.1 283.51,-173.75"/>
<polygon fill="midnightblue" stroke="midnightblue" points="284.32,-177.16 293.29,-171.52 282.76,-170.33 284.32,-177.16"/>
</g>
<!-- Node11&#45;&gt;Node3 -->
<g id="edge11" class="edge">
<title>Node11&#45;&gt;Node3</title>
<path fill="none" stroke="midnightblue" d="M363.73,-171.5C375.76,-175.83 390.13,-181.09 403,-186 419.43,-192.27 437.59,-199.5 452.68,-205.6"/>
<polygon fill="midnightblue" stroke="midnightblue" points="451.52,-208.9 462.11,-209.41 454.15,-202.41 451.52,-208.9"/>
</g>
<!-- Node14&#45;&gt;Node9 -->
<g id="edge18" class="edge">
<title>Node14&#45;&gt;Node9</title>
<path fill="none" stroke="midnightblue" d="M200.79,-19.03C211.13,-22.05 222.59,-25.53 233,-29 256.01,-36.66 281.58,-46.19 301.36,-53.79"/>
<polygon fill="midnightblue" stroke="midnightblue" points="300.26,-57.12 310.85,-57.46 302.79,-50.59 300.26,-57.12"/>
</g>
</g>
</svg>
