<?xml version="1.0" encoding="UTF-8" standalone="no"?>
<!DOCTYPE svg PUBLIC "-//W3C//DTD SVG 1.1//EN"
 "http://www.w3.org/Graphics/SVG/1.1/DTD/svg11.dtd">
<!-- Generated by graphviz version 2.43.0 (0)
 -->
<!-- Title: priorityConstText Pages: 1 -->
<svg width="507pt" height="142pt"
 viewBox="0.00 0.00 507.00 142.00" xmlns="http://www.w3.org/2000/svg" xmlns:xlink="http://www.w3.org/1999/xlink">
<g id="graph0" class="graph" transform="scale(1 1) rotate(0) translate(4 138)">
<title>priorityConstText</title>
<polygon fill="white" stroke="transparent" points="-4,4 -4,-138 503,-138 503,4 -4,4"/>
<!-- Node1 -->
<g id="node1" class="node">
<title>Node1</title>
<g id="a_node1"><a xlink:title=" ">
<polygon fill="#bfbfbf" stroke="black" points="0,-57.5 0,-76.5 100,-76.5 100,-57.5 0,-57.5"/>
<text text-anchor="middle" x="50" y="-64.5" font-family="FreeSans" font-size="10.00">priorityConstText</text>
</a>
</g>
</g>
<!-- Node2 -->
<g id="node2" class="node">
<title>Node2</title>
<g id="a_node2"><a xlink:href="lcd_8c.html#ad9ccaf30ea478fef726c058ff4ee7dd1" target="_top" xlink:title="Next output will be written to line 2.">
<polygon fill="white" stroke="black" points="161.5,-114.5 161.5,-133.5 221.5,-133.5 221.5,-114.5 161.5,-114.5"/>
<text text-anchor="middle" x="191.5" y="-121.5" font-family="FreeSans" font-size="10.00">lcd_line2</text>
</a>
</g>
</g>
<!-- Node1&#45;&gt;Node2 -->
<g id="edge1" class="edge">
<title>Node1&#45;&gt;Node2</title>
<path fill="none" stroke="midnightblue" d="M74.35,-76.54C97.18,-85.87 132.16,-100.16 157.76,-110.62"/>
<polygon fill="midnightblue" stroke="midnightblue" points="156.49,-113.89 167.07,-114.43 159.14,-107.41 156.49,-113.89"/>
</g>
<!-- Node5 -->
<g id="node5" class="node">
<title>Node5</title>
<g id="a_node5"><a xlink:href="lcd_8c.html#a93cd5600fa3b27381a4cf57d21f27ebf" target="_top" xlink:title="Write one character.">
<polygon fill="white" stroke="black" points="284,-38.5 284,-57.5 367,-57.5 367,-38.5 284,-38.5"/>
<text text-anchor="middle" x="325.5" y="-45.5" font-family="FreeSans" font-size="10.00">lcd_writeChar</text>
</a>
</g>
</g>
<!-- Node1&#45;&gt;Node5 -->
<g id="edge4" class="edge">
<title>Node1&#45;&gt;Node5</title>
<path fill="none" stroke="midnightblue" d="M100.33,-70.26C140.09,-72.11 197.34,-73 247,-67 258.91,-65.56 271.64,-62.92 283.26,-60.06"/>
<polygon fill="midnightblue" stroke="midnightblue" points="284.34,-63.39 293.14,-57.51 282.59,-56.62 284.34,-63.39"/>
</g>
<!-- Node6 -->
<g id="node6" class="node">
<title>Node6</title>
<g id="a_node6"><a xlink:href="lcd_8c.html#a1415b995427583a289b6089b5e4785e5" target="_top" xlink:title="Write a byte as a decimal number without prefixes.">
<polygon fill="white" stroke="black" points="151.5,-38.5 151.5,-57.5 231.5,-57.5 231.5,-38.5 151.5,-38.5"/>
<text text-anchor="middle" x="191.5" y="-45.5" font-family="FreeSans" font-size="10.00">lcd_writeDec</text>
</a>
</g>
</g>
<!-- Node1&#45;&gt;Node6 -->
<g id="edge5" class="edge">
<title>Node1&#45;&gt;Node6</title>
<path fill="none" stroke="midnightblue" d="M100.18,-60.3C113.56,-58.48 128.04,-56.51 141.42,-54.69"/>
<polygon fill="midnightblue" stroke="midnightblue" points="141.95,-58.14 151.39,-53.33 141.01,-51.21 141.95,-58.14"/>
</g>
<!-- Node7 -->
<g id="node7" class="node">
<title>Node7</title>
<g id="a_node7"><a xlink:href="lcd_8c.html#a59cbc4640fd74a5321a52c0b574e864a" target="_top" xlink:title="Write char PROGMEM* string.">
<polygon fill="white" stroke="black" points="136,-0.5 136,-19.5 247,-19.5 247,-0.5 136,-0.5"/>
<text text-anchor="middle" x="191.5" y="-7.5" font-family="FreeSans" font-size="10.00">lcd_writeProgString</text>
</a>
</g>
</g>
<!-- Node1&#45;&gt;Node7 -->
<g id="edge7" class="edge">
<title>Node1&#45;&gt;Node7</title>
<path fill="none" stroke="midnightblue" d="M71.06,-57.45C88.16,-49.46 113.46,-37.95 136,-29 141.18,-26.94 146.68,-24.88 152.12,-22.92"/>
<polygon fill="midnightblue" stroke="midnightblue" points="153.5,-26.14 161.76,-19.51 151.17,-19.54 153.5,-26.14"/>
</g>
<!-- Node3 -->
<g id="node3" class="node">
<title>Node3</title>
<g id="a_node3"><a xlink:href="lcd_8c.html#acb116d89c358367b8fd1164120d320e3" target="_top" xlink:title="Send command to LCD.">
<polygon fill="white" stroke="black" points="283,-114.5 283,-133.5 368,-133.5 368,-114.5 283,-114.5"/>
<text text-anchor="middle" x="325.5" y="-121.5" font-family="FreeSans" font-size="10.00">lcd_command</text>
</a>
</g>
</g>
<!-- Node2&#45;&gt;Node3 -->
<g id="edge2" class="edge">
<title>Node2&#45;&gt;Node3</title>
<path fill="none" stroke="midnightblue" d="M221.8,-124C236.64,-124 255.12,-124 272.29,-124"/>
<polygon fill="midnightblue" stroke="midnightblue" points="272.77,-127.5 282.77,-124 272.77,-120.5 272.77,-127.5"/>
</g>
<!-- Node4 -->
<g id="node4" class="node">
<title>Node4</title>
<g id="a_node4"><a xlink:href="lcd_8c.html#a26a89cb41bb1496462fda420cbe79a07" target="_top" xlink:title=" ">
<polygon fill="white" stroke="black" points="404,-114.5 404,-133.5 499,-133.5 499,-114.5 404,-114.5"/>
<text text-anchor="middle" x="451.5" y="-121.5" font-family="FreeSans" font-size="10.00">lcd_sendStream</text>
</a>
</g>
</g>
<!-- Node3&#45;&gt;Node4 -->
<g id="edge3" class="edge">
<title>Node3&#45;&gt;Node4</title>
<path fill="none" stroke="midnightblue" d="M368.14,-124C376.24,-124 384.86,-124 393.37,-124"/>
<polygon fill="midnightblue" stroke="midnightblue" points="393.63,-127.5 403.63,-124 393.63,-120.5 393.63,-127.5"/>
</g>
<!-- Node6&#45;&gt;Node5 -->
<g id="edge6" class="edge">
<title>Node6&#45;&gt;Node5</title>
<path fill="none" stroke="midnightblue" d="M231.75,-48C244.83,-48 259.6,-48 273.44,-48"/>
<polygon fill="midnightblue" stroke="midnightblue" points="273.8,-51.5 283.8,-48 273.8,-44.5 273.8,-51.5"/>
</g>
<!-- Node7&#45;&gt;Node5 -->
<g id="edge8" class="edge">
<title>Node7&#45;&gt;Node5</title>
<path fill="none" stroke="midnightblue" d="M225.81,-19.59C242.69,-24.45 263.39,-30.41 281.47,-35.61"/>
<polygon fill="midnightblue" stroke="midnightblue" points="280.62,-39.01 291.2,-38.41 282.56,-32.28 280.62,-39.01"/>
</g>
</g>
</svg>
