<?xml version="1.0" encoding="UTF-8" standalone="no"?>
<!DOCTYPE svg PUBLIC "-//W3C//DTD SVG 1.1//EN"
 "http://www.w3.org/Graphics/SVG/1.1/DTD/svg11.dtd">
<!-- Generated by graphviz version 2.43.0 (0)
 -->
<!-- Title: os_taskman.c Pages: 1 -->
<svg width="938pt" height="420pt"
 viewBox="0.00 0.00 938.24 420.00" xmlns="http://www.w3.org/2000/svg" xmlns:xlink="http://www.w3.org/1999/xlink">
<g id="graph0" class="graph" transform="scale(1 1) rotate(0) translate(4 416)">
<title>os_taskman.c</title>
<polygon fill="white" stroke="transparent" points="-4,4 -4,-416 934.24,-416 934.24,4 -4,4"/>
<!-- Node1 -->
<g id="node1" class="node">
<title>Node1</title>
<g id="a_node1"><a xlink:title=" ">
<polygon fill="#bfbfbf" stroke="black" points="370.5,-392.5 370.5,-411.5 454.5,-411.5 454.5,-392.5 370.5,-392.5"/>
<text text-anchor="middle" x="412.5" y="-399.5" font-family="FreeSans" font-size="10.00">os_taskman.c</text>
</a>
</g>
</g>
<!-- Node2 -->
<g id="node2" class="node">
<title>Node2</title>
<g id="a_node2"><a xlink:href="os__taskman_8h.html" target="_top" xlink:title="TaskManager library for the OS.">
<polygon fill="white" stroke="black" points="43,-280.5 43,-299.5 128,-299.5 128,-280.5 43,-280.5"/>
<text text-anchor="middle" x="85.5" y="-287.5" font-family="FreeSans" font-size="10.00">os_taskman.h</text>
</a>
</g>
</g>
<!-- Node1&#45;&gt;Node2 -->
<g id="edge1" class="edge">
<title>Node1&#45;&gt;Node2</title>
<path fill="none" stroke="midnightblue" d="M370.31,-397.45C304.47,-391.32 180.85,-377.35 142.5,-356 122.3,-344.75 105.77,-323.51 95.81,-308.37"/>
<polygon fill="midnightblue" stroke="midnightblue" points="98.76,-306.49 90.48,-299.88 92.83,-310.21 98.76,-306.49"/>
</g>
<!-- Node4 -->
<g id="node4" class="node">
<title>Node4</title>
<g id="a_node4"><a xlink:href="defines_8h.html" target="_top" xlink:title="Simple definitions and assembler&#45;macros, mostly 8/16&#45;Bit values.">
<polygon fill="white" stroke="black" points="679,-112.5 679,-131.5 740,-131.5 740,-112.5 679,-112.5"/>
<text text-anchor="middle" x="709.5" y="-119.5" font-family="FreeSans" font-size="10.00">defines.h</text>
</a>
</g>
</g>
<!-- Node1&#45;&gt;Node4 -->
<g id="edge3" class="edge">
<title>Node1&#45;&gt;Node4</title>
<path fill="none" stroke="midnightblue" d="M454.81,-400.97C578.28,-399.76 929.5,-387.81 929.5,-291 929.5,-291 929.5,-291 929.5,-233 929.5,-202.9 932.45,-188.59 910.5,-168 887.68,-146.6 802.18,-133.43 750.33,-127.24"/>
<polygon fill="midnightblue" stroke="midnightblue" points="750.46,-123.73 740.12,-126.06 749.65,-130.69 750.46,-123.73"/>
</g>
<!-- Node7 -->
<g id="node7" class="node">
<title>Node7</title>
<g id="a_node7"><a xlink:href="util_8h.html" target="_top" xlink:title="Little helpers that don&#39;t fit elsewhere.">
<polygon fill="white" stroke="black" points="220,-168.5 220,-187.5 261,-187.5 261,-168.5 220,-168.5"/>
<text text-anchor="middle" x="240.5" y="-175.5" font-family="FreeSans" font-size="10.00">util.h</text>
</a>
</g>
</g>
<!-- Node1&#45;&gt;Node7 -->
<g id="edge6" class="edge">
<title>Node1&#45;&gt;Node7</title>
<path fill="none" stroke="midnightblue" d="M389.84,-392.48C372.42,-385.01 348.68,-372.72 332.5,-356 286.22,-308.16 257.57,-232.39 246.17,-197.59"/>
<polygon fill="midnightblue" stroke="midnightblue" points="249.43,-196.29 243.07,-187.82 242.76,-198.41 249.43,-196.29"/>
</g>
<!-- Node8 -->
<g id="node8" class="node">
<title>Node8</title>
<g id="a_node8"><a xlink:title=" ">
<polygon fill="white" stroke="#bfbfbf" points="441,-112.5 441,-131.5 494,-131.5 494,-112.5 441,-112.5"/>
<text text-anchor="middle" x="467.5" y="-119.5" font-family="FreeSans" font-size="10.00">stdint.h</text>
</a>
</g>
</g>
<!-- Node1&#45;&gt;Node8 -->
<g id="edge17" class="edge">
<title>Node1&#45;&gt;Node8</title>
<path fill="none" stroke="midnightblue" d="M454.85,-395.6C502.66,-388.67 576.42,-375.21 596.5,-356 618.25,-335.2 615.5,-321.1 615.5,-291 615.5,-291 615.5,-291 615.5,-233 615.5,-177.61 547.89,-146.84 504.07,-132.72"/>
<polygon fill="midnightblue" stroke="midnightblue" points="504.89,-129.31 494.3,-129.72 502.83,-136 504.89,-129.31"/>
</g>
<!-- Node10 -->
<g id="node10" class="node">
<title>Node10</title>
<g id="a_node10"><a xlink:href="lcd_8h.html" target="_top" xlink:title="Library for LCD use.">
<polygon fill="white" stroke="black" points="171.5,-224.5 171.5,-243.5 211.5,-243.5 211.5,-224.5 171.5,-224.5"/>
<text text-anchor="middle" x="191.5" y="-231.5" font-family="FreeSans" font-size="10.00">lcd.h</text>
</a>
</g>
</g>
<!-- Node1&#45;&gt;Node10 -->
<g id="edge10" class="edge">
<title>Node1&#45;&gt;Node10</title>
<path fill="none" stroke="midnightblue" d="M370.35,-399.22C334.01,-395.61 282.08,-385.23 247.5,-356 215.64,-329.06 200.88,-280.07 194.94,-253.44"/>
<polygon fill="midnightblue" stroke="midnightblue" points="198.34,-252.62 192.91,-243.52 191.48,-254.02 198.34,-252.62"/>
</g>
<!-- Node12 -->
<g id="node12" class="node">
<title>Node12</title>
<g id="a_node12"><a xlink:href="os__process_8h.html" target="_top" xlink:title="Struct specifying a process.">
<polygon fill="white" stroke="black" points="393.5,-168.5 393.5,-187.5 473.5,-187.5 473.5,-168.5 393.5,-168.5"/>
<text text-anchor="middle" x="433.5" y="-175.5" font-family="FreeSans" font-size="10.00">os_process.h</text>
</a>
</g>
</g>
<!-- Node1&#45;&gt;Node12 -->
<g id="edge18" class="edge">
<title>Node1&#45;&gt;Node12</title>
<path fill="none" stroke="midnightblue" d="M386.29,-392.41C369.65,-385.44 349.44,-373.81 339.5,-356 335.17,-348.24 337.98,-344.76 339.5,-336 348.52,-283.92 349.24,-267.34 379.5,-224 387.88,-212 400.26,-201.37 411.05,-193.45"/>
<polygon fill="midnightblue" stroke="midnightblue" points="413.07,-196.31 419.26,-187.72 409.06,-190.58 413.07,-196.31"/>
</g>
<!-- Node13 -->
<g id="node13" class="node">
<title>Node13</title>
<g id="a_node13"><a xlink:href="os__scheduler_8h.html" target="_top" xlink:title="Scheduling module for the OS.">
<polygon fill="white" stroke="black" points="422,-224.5 422,-243.5 511,-243.5 511,-224.5 422,-224.5"/>
<text text-anchor="middle" x="466.5" y="-231.5" font-family="FreeSans" font-size="10.00">os_scheduler.h</text>
</a>
</g>
</g>
<!-- Node1&#45;&gt;Node13 -->
<g id="edge21" class="edge">
<title>Node1&#45;&gt;Node13</title>
<path fill="none" stroke="midnightblue" d="M415.4,-392.08C423.94,-365.83 449.08,-288.55 460.61,-253.12"/>
<polygon fill="midnightblue" stroke="midnightblue" points="463.95,-254.16 463.71,-243.57 457.29,-251.99 463.95,-254.16"/>
</g>
<!-- Node14 -->
<g id="node14" class="node">
<title>Node14</title>
<g id="a_node14"><a xlink:href="os__input_8h.html" target="_top" xlink:title="Input library for the OS.">
<polygon fill="white" stroke="black" points="348,-336.5 348,-355.5 415,-355.5 415,-336.5 348,-336.5"/>
<text text-anchor="middle" x="381.5" y="-343.5" font-family="FreeSans" font-size="10.00">os_input.h</text>
</a>
</g>
</g>
<!-- Node1&#45;&gt;Node14 -->
<g id="edge25" class="edge">
<title>Node1&#45;&gt;Node14</title>
<path fill="none" stroke="midnightblue" d="M407.38,-392.08C403.09,-384.61 396.84,-373.72 391.56,-364.52"/>
<polygon fill="midnightblue" stroke="midnightblue" points="394.54,-362.68 386.52,-355.75 388.47,-366.17 394.54,-362.68"/>
</g>
<!-- Node15 -->
<g id="node15" class="node">
<title>Node15</title>
<g id="a_node15"><a xlink:href="os__user__privileges_8h.html" target="_top" xlink:title="User privileges specification used in part by the task manager.">
<polygon fill="white" stroke="black" points="471.5,-336.5 471.5,-355.5 587.5,-355.5 587.5,-336.5 471.5,-336.5"/>
<text text-anchor="middle" x="529.5" y="-343.5" font-family="FreeSans" font-size="10.00">os_user_privileges.h</text>
</a>
</g>
</g>
<!-- Node1&#45;&gt;Node15 -->
<g id="edge27" class="edge">
<title>Node1&#45;&gt;Node15</title>
<path fill="none" stroke="midnightblue" d="M431.04,-392.44C450.12,-383.64 480.07,-369.81 501.94,-359.72"/>
<polygon fill="midnightblue" stroke="midnightblue" points="503.43,-362.88 511.05,-355.52 500.5,-356.53 503.43,-362.88"/>
</g>
<!-- Node16 -->
<g id="node16" class="node">
<title>Node16</title>
<g id="a_node16"><a xlink:href="os__memory_8h.html" target="_top" xlink:title="Library for OS memory management.">
<polygon fill="white" stroke="black" points="681.5,-280.5 681.5,-299.5 763.5,-299.5 763.5,-280.5 681.5,-280.5"/>
<text text-anchor="middle" x="722.5" y="-287.5" font-family="FreeSans" font-size="10.00">os_memory.h</text>
</a>
</g>
</g>
<!-- Node1&#45;&gt;Node16 -->
<g id="edge41" class="edge">
<title>Node1&#45;&gt;Node16</title>
<path fill="none" stroke="midnightblue" d="M454.81,-397.33C499.69,-392.29 571.91,-380.84 629.5,-356 658.41,-343.53 687.48,-321.29 705.23,-306.34"/>
<polygon fill="midnightblue" stroke="midnightblue" points="707.69,-308.84 712.99,-299.67 703.13,-303.54 707.69,-308.84"/>
</g>
<!-- Node3 -->
<g id="node3" class="node">
<title>Node3</title>
<g id="a_node3"><a xlink:title=" ">
<polygon fill="white" stroke="#bfbfbf" points="209.5,-112.5 209.5,-131.5 271.5,-131.5 271.5,-112.5 209.5,-112.5"/>
<text text-anchor="middle" x="240.5" y="-119.5" font-family="FreeSans" font-size="10.00">stdbool.h</text>
</a>
</g>
</g>
<!-- Node2&#45;&gt;Node3 -->
<g id="edge2" class="edge">
<title>Node2&#45;&gt;Node3</title>
<path fill="none" stroke="midnightblue" d="M84.1,-280.46C81.08,-258.84 76.3,-201.24 104.5,-168 127.92,-140.4 168.67,-129.63 199.47,-125.49"/>
<polygon fill="midnightblue" stroke="midnightblue" points="199.97,-128.95 209.5,-124.32 199.16,-122 199.97,-128.95"/>
</g>
<!-- Node5 -->
<g id="node5" class="node">
<title>Node5</title>
<g id="a_node5"><a xlink:href="atmega644constants_8h.html" target="_top" xlink:title="Constants for ATMega644 and EVA board. Defines several useful constants for the ATMega644.">
<polygon fill="white" stroke="black" points="645.5,-56.5 645.5,-75.5 773.5,-75.5 773.5,-56.5 645.5,-56.5"/>
<text text-anchor="middle" x="709.5" y="-63.5" font-family="FreeSans" font-size="10.00">atmega644constants.h</text>
</a>
</g>
</g>
<!-- Node4&#45;&gt;Node5 -->
<g id="edge4" class="edge">
<title>Node4&#45;&gt;Node5</title>
<path fill="none" stroke="midnightblue" d="M709.5,-112.08C709.5,-105.01 709.5,-94.86 709.5,-85.99"/>
<polygon fill="midnightblue" stroke="midnightblue" points="713,-85.75 709.5,-75.75 706,-85.75 713,-85.75"/>
</g>
<!-- Node6 -->
<g id="node6" class="node">
<title>Node6</title>
<g id="a_node6"><a xlink:title=" ">
<polygon fill="white" stroke="#bfbfbf" points="683,-0.5 683,-19.5 736,-19.5 736,-0.5 683,-0.5"/>
<text text-anchor="middle" x="709.5" y="-7.5" font-family="FreeSans" font-size="10.00">avr/io.h</text>
</a>
</g>
</g>
<!-- Node5&#45;&gt;Node6 -->
<g id="edge5" class="edge">
<title>Node5&#45;&gt;Node6</title>
<path fill="none" stroke="midnightblue" d="M709.5,-56.08C709.5,-49.01 709.5,-38.86 709.5,-29.99"/>
<polygon fill="midnightblue" stroke="midnightblue" points="713,-29.75 709.5,-19.75 706,-29.75 713,-29.75"/>
</g>
<!-- Node7&#45;&gt;Node3 -->
<g id="edge8" class="edge">
<title>Node7&#45;&gt;Node3</title>
<path fill="none" stroke="midnightblue" d="M240.5,-168.08C240.5,-161.01 240.5,-150.86 240.5,-141.99"/>
<polygon fill="midnightblue" stroke="midnightblue" points="244,-141.75 240.5,-131.75 237,-141.75 244,-141.75"/>
</g>
<!-- Node7&#45;&gt;Node8 -->
<g id="edge7" class="edge">
<title>Node7&#45;&gt;Node8</title>
<path fill="none" stroke="midnightblue" d="M261.05,-172.11C299.48,-162.97 382.71,-143.17 430.94,-131.7"/>
<polygon fill="midnightblue" stroke="midnightblue" points="432.04,-135.03 440.95,-129.31 430.42,-128.22 432.04,-135.03"/>
</g>
<!-- Node9 -->
<g id="node9" class="node">
<title>Node9</title>
<g id="a_node9"><a xlink:title=" ">
<polygon fill="white" stroke="#bfbfbf" points="0,-112.5 0,-131.5 95,-131.5 95,-112.5 0,-112.5"/>
<text text-anchor="middle" x="47.5" y="-119.5" font-family="FreeSans" font-size="10.00">avr/pgmspace.h</text>
</a>
</g>
</g>
<!-- Node7&#45;&gt;Node9 -->
<g id="edge9" class="edge">
<title>Node7&#45;&gt;Node9</title>
<path fill="none" stroke="midnightblue" d="M219.85,-171.22C188.47,-162.44 128.19,-145.58 87.9,-134.3"/>
<polygon fill="midnightblue" stroke="midnightblue" points="88.69,-130.89 78.12,-131.57 86.81,-137.63 88.69,-130.89"/>
</g>
<!-- Node10&#45;&gt;Node3 -->
<g id="edge11" class="edge">
<title>Node10&#45;&gt;Node3</title>
<path fill="none" stroke="midnightblue" d="M193.17,-224.29C195.8,-211.52 201.56,-187.18 210.5,-168 215.05,-158.23 221.56,-148.17 227.34,-140.05"/>
<polygon fill="midnightblue" stroke="midnightblue" points="230.3,-141.94 233.43,-131.82 224.67,-137.78 230.3,-141.94"/>
</g>
<!-- Node10&#45;&gt;Node4 -->
<g id="edge15" class="edge">
<title>Node10&#45;&gt;Node4</title>
<path fill="none" stroke="midnightblue" d="M211.54,-227.86C240.42,-220.25 295.23,-205.04 340.5,-188 360.6,-180.43 363.87,-173.98 384.5,-168 484.06,-139.14 606.29,-128.57 668.66,-124.87"/>
<polygon fill="midnightblue" stroke="midnightblue" points="669.08,-128.36 678.87,-124.3 668.69,-121.37 669.08,-128.36"/>
</g>
<!-- Node10&#45;&gt;Node7 -->
<g id="edge16" class="edge">
<title>Node10&#45;&gt;Node7</title>
<path fill="none" stroke="midnightblue" d="M199.59,-224.08C206.66,-216.3 217.09,-204.8 225.65,-195.37"/>
<polygon fill="midnightblue" stroke="midnightblue" points="228.43,-197.51 232.56,-187.75 223.25,-192.8 228.43,-197.51"/>
</g>
<!-- Node10&#45;&gt;Node8 -->
<g id="edge12" class="edge">
<title>Node10&#45;&gt;Node8</title>
<path fill="none" stroke="midnightblue" d="M211.66,-224.69C241.96,-212.23 301.06,-188.03 351.5,-168 379.96,-156.7 412.47,-144.12 435.81,-135.14"/>
<polygon fill="midnightblue" stroke="midnightblue" points="437.14,-138.38 445.22,-131.52 434.63,-131.84 437.14,-138.38"/>
</g>
<!-- Node10&#45;&gt;Node9 -->
<g id="edge14" class="edge">
<title>Node10&#45;&gt;Node9</title>
<path fill="none" stroke="midnightblue" d="M171.25,-225.1C152.77,-217.32 125.26,-204.25 104.5,-188 86.85,-174.19 70.4,-154.38 59.76,-140.27"/>
<polygon fill="midnightblue" stroke="midnightblue" points="62.38,-137.93 53.64,-131.93 56.74,-142.07 62.38,-137.93"/>
</g>
<!-- Node11 -->
<g id="node11" class="node">
<title>Node11</title>
<g id="a_node11"><a xlink:title=" ">
<polygon fill="white" stroke="#bfbfbf" points="113.5,-168.5 113.5,-187.5 163.5,-187.5 163.5,-168.5 113.5,-168.5"/>
<text text-anchor="middle" x="138.5" y="-175.5" font-family="FreeSans" font-size="10.00">stdio.h</text>
</a>
</g>
</g>
<!-- Node10&#45;&gt;Node11 -->
<g id="edge13" class="edge">
<title>Node10&#45;&gt;Node11</title>
<path fill="none" stroke="midnightblue" d="M182.75,-224.08C175.03,-216.22 163.6,-204.57 154.28,-195.08"/>
<polygon fill="midnightblue" stroke="midnightblue" points="156.59,-192.44 147.09,-187.75 151.6,-197.34 156.59,-192.44"/>
</g>
<!-- Node12&#45;&gt;Node3 -->
<g id="edge20" class="edge">
<title>Node12&#45;&gt;Node3</title>
<path fill="none" stroke="midnightblue" d="M402.92,-168.44C369.89,-159.2 317.11,-144.44 280.73,-134.26"/>
<polygon fill="midnightblue" stroke="midnightblue" points="281.51,-130.84 270.94,-131.52 279.63,-137.58 281.51,-130.84"/>
</g>
<!-- Node12&#45;&gt;Node8 -->
<g id="edge19" class="edge">
<title>Node12&#45;&gt;Node8</title>
<path fill="none" stroke="midnightblue" d="M439.11,-168.08C443.87,-160.53 450.82,-149.49 456.65,-140.23"/>
<polygon fill="midnightblue" stroke="midnightblue" points="459.62,-142.08 461.99,-131.75 453.7,-138.35 459.62,-142.08"/>
</g>
<!-- Node13&#45;&gt;Node3 -->
<g id="edge22" class="edge">
<title>Node13&#45;&gt;Node3</title>
<path fill="none" stroke="midnightblue" d="M448.77,-224.37C409.32,-205.17 314.14,-158.84 267.36,-136.07"/>
<polygon fill="midnightblue" stroke="midnightblue" points="268.67,-132.82 258.15,-131.59 265.61,-139.11 268.67,-132.82"/>
</g>
<!-- Node13&#45;&gt;Node4 -->
<g id="edge23" class="edge">
<title>Node13&#45;&gt;Node4</title>
<path fill="none" stroke="midnightblue" d="M485.57,-224.37C528.15,-205.09 631.18,-158.45 681.25,-135.79"/>
<polygon fill="midnightblue" stroke="midnightblue" points="682.85,-138.9 690.52,-131.59 679.97,-132.53 682.85,-138.9"/>
</g>
<!-- Node13&#45;&gt;Node12 -->
<g id="edge24" class="edge">
<title>Node13&#45;&gt;Node12</title>
<path fill="none" stroke="midnightblue" d="M461.05,-224.08C456.49,-216.61 449.83,-205.72 444.21,-196.52"/>
<polygon fill="midnightblue" stroke="midnightblue" points="447.05,-194.46 438.85,-187.75 441.08,-198.11 447.05,-194.46"/>
</g>
<!-- Node14&#45;&gt;Node8 -->
<g id="edge26" class="edge">
<title>Node14&#45;&gt;Node8</title>
<path fill="none" stroke="midnightblue" d="M381.5,-336.34C381.94,-314.9 385.83,-258.63 413.5,-224 435.09,-196.98 464.57,-217.58 482.5,-188 491.29,-173.5 485.12,-154.31 478.22,-140.55"/>
<polygon fill="midnightblue" stroke="midnightblue" points="481.18,-138.68 473.27,-131.64 475.06,-142.08 481.18,-138.68"/>
</g>
<!-- Node15&#45;&gt;Node4 -->
<g id="edge31" class="edge">
<title>Node15&#45;&gt;Node4</title>
<path fill="none" stroke="midnightblue" d="M536.62,-336.14C557.44,-310.22 620.09,-232.31 672.5,-168 680.26,-158.47 688.99,-147.85 696.02,-139.32"/>
<polygon fill="midnightblue" stroke="midnightblue" points="698.72,-141.55 702.38,-131.61 693.32,-137.1 698.72,-141.55"/>
</g>
<!-- Node15&#45;&gt;Node8 -->
<g id="edge28" class="edge">
<title>Node15&#45;&gt;Node8</title>
<path fill="none" stroke="midnightblue" d="M530.94,-336.32C534.94,-309.58 544.12,-226.75 515.5,-168 509.62,-155.93 499.02,-145.45 489.27,-137.65"/>
<polygon fill="midnightblue" stroke="midnightblue" points="491.17,-134.7 481.06,-131.52 486.98,-140.31 491.17,-134.7"/>
</g>
<!-- Node15&#45;&gt;Node9 -->
<g id="edge29" class="edge">
<title>Node15&#45;&gt;Node9</title>
<path fill="none" stroke="midnightblue" d="M478.39,-336.47C405.73,-323.13 269.53,-293.59 162.5,-244 122.46,-225.45 109.62,-221.16 80.5,-188 68.39,-174.21 59.41,-155.18 53.9,-141.28"/>
<polygon fill="midnightblue" stroke="midnightblue" points="57.14,-139.96 50.37,-131.82 50.58,-142.41 57.14,-139.96"/>
</g>
<!-- Node15&#45;&gt;Node13 -->
<g id="edge30" class="edge">
<title>Node15&#45;&gt;Node13</title>
<path fill="none" stroke="midnightblue" d="M524.56,-336.37C514.21,-318.3 490.08,-276.18 476.41,-252.31"/>
<polygon fill="midnightblue" stroke="midnightblue" points="479.43,-250.53 471.42,-243.59 473.35,-254.01 479.43,-250.53"/>
</g>
<!-- Node15&#45;&gt;Node16 -->
<g id="edge32" class="edge">
<title>Node15&#45;&gt;Node16</title>
<path fill="none" stroke="midnightblue" d="M560.08,-336.44C593.11,-327.2 645.89,-312.44 682.27,-302.26"/>
<polygon fill="midnightblue" stroke="midnightblue" points="683.37,-305.58 692.06,-299.52 681.49,-298.84 683.37,-305.58"/>
</g>
<!-- Node16&#45;&gt;Node13 -->
<g id="edge40" class="edge">
<title>Node16&#45;&gt;Node13</title>
<path fill="none" stroke="midnightblue" d="M681.94,-280.44C637.18,-271 565.12,-255.8 516.8,-245.61"/>
<polygon fill="midnightblue" stroke="midnightblue" points="517.38,-242.16 506.87,-243.52 515.94,-249.01 517.38,-242.16"/>
</g>
<!-- Node17 -->
<g id="node17" class="node">
<title>Node17</title>
<g id="a_node17"><a xlink:href="os__mem__drivers_8h.html" target="_top" xlink:title="Drivers for OS memory management.">
<polygon fill="white" stroke="black" points="794,-168.5 794,-187.5 901,-187.5 901,-168.5 794,-168.5"/>
<text text-anchor="middle" x="847.5" y="-175.5" font-family="FreeSans" font-size="10.00">os_mem_drivers.h</text>
</a>
</g>
</g>
<!-- Node16&#45;&gt;Node17 -->
<g id="edge33" class="edge">
<title>Node16&#45;&gt;Node17</title>
<path fill="none" stroke="midnightblue" d="M759.87,-280.44C781.36,-273.77 807.39,-262.45 824.5,-244 836.32,-231.26 842.13,-212.06 844.94,-197.83"/>
<polygon fill="midnightblue" stroke="midnightblue" points="848.44,-198.14 846.62,-187.7 841.54,-197 848.44,-198.14"/>
</g>
<!-- Node19 -->
<g id="node19" class="node">
<title>Node19</title>
<g id="a_node19"><a xlink:href="os__memheap__drivers_8h.html" target="_top" xlink:title="Drivers for OS heap management.">
<polygon fill="white" stroke="black" points="684,-224.5 684,-243.5 815,-243.5 815,-224.5 684,-224.5"/>
<text text-anchor="middle" x="749.5" y="-231.5" font-family="FreeSans" font-size="10.00">os_memheap_drivers.h</text>
</a>
</g>
</g>
<!-- Node16&#45;&gt;Node19 -->
<g id="edge36" class="edge">
<title>Node16&#45;&gt;Node19</title>
<path fill="none" stroke="midnightblue" d="M726.96,-280.08C730.65,-272.69 736.02,-261.95 740.59,-252.81"/>
<polygon fill="midnightblue" stroke="midnightblue" points="743.78,-254.26 745.12,-243.75 737.52,-251.13 743.78,-254.26"/>
</g>
<!-- Node17&#45;&gt;Node4 -->
<g id="edge35" class="edge">
<title>Node17&#45;&gt;Node4</title>
<path fill="none" stroke="midnightblue" d="M825.63,-168.44C802.72,-159.48 766.52,-145.31 740.63,-135.18"/>
<polygon fill="midnightblue" stroke="midnightblue" points="741.85,-131.9 731.26,-131.52 739.3,-138.42 741.85,-131.9"/>
</g>
<!-- Node18 -->
<g id="node18" class="node">
<title>Node18</title>
<g id="a_node18"><a xlink:title=" ">
<polygon fill="white" stroke="#bfbfbf" points="815,-112.5 815,-131.5 880,-131.5 880,-112.5 815,-112.5"/>
<text text-anchor="middle" x="847.5" y="-119.5" font-family="FreeSans" font-size="10.00">inttypes.h</text>
</a>
</g>
</g>
<!-- Node17&#45;&gt;Node18 -->
<g id="edge34" class="edge">
<title>Node17&#45;&gt;Node18</title>
<path fill="none" stroke="midnightblue" d="M847.5,-168.08C847.5,-161.01 847.5,-150.86 847.5,-141.99"/>
<polygon fill="midnightblue" stroke="midnightblue" points="851,-141.75 847.5,-131.75 844,-141.75 851,-141.75"/>
</g>
<!-- Node19&#45;&gt;Node4 -->
<g id="edge38" class="edge">
<title>Node19&#45;&gt;Node4</title>
<path fill="none" stroke="midnightblue" d="M750.79,-224.23C752.32,-211.4 753.8,-186.98 746.5,-168 742.31,-157.1 734.37,-146.87 726.91,-138.93"/>
<polygon fill="midnightblue" stroke="midnightblue" points="729.33,-136.4 719.78,-131.82 724.39,-141.36 729.33,-136.4"/>
</g>
<!-- Node19&#45;&gt;Node17 -->
<g id="edge37" class="edge">
<title>Node19&#45;&gt;Node17</title>
<path fill="none" stroke="midnightblue" d="M765.25,-224.32C780.82,-215.74 804.88,-202.49 822.96,-192.52"/>
<polygon fill="midnightblue" stroke="midnightblue" points="824.72,-195.55 831.79,-187.65 821.35,-189.42 824.72,-195.55"/>
</g>
<!-- Node20 -->
<g id="node20" class="node">
<title>Node20</title>
<g id="a_node20"><a xlink:title=" ">
<polygon fill="white" stroke="#bfbfbf" points="681.5,-168.5 681.5,-187.5 737.5,-187.5 737.5,-168.5 681.5,-168.5"/>
<text text-anchor="middle" x="709.5" y="-175.5" font-family="FreeSans" font-size="10.00">stddef.h</text>
</a>
</g>
</g>
<!-- Node19&#45;&gt;Node20 -->
<g id="edge39" class="edge">
<title>Node19&#45;&gt;Node20</title>
<path fill="none" stroke="midnightblue" d="M742.89,-224.08C737.24,-216.46 728.96,-205.26 722.05,-195.94"/>
<polygon fill="midnightblue" stroke="midnightblue" points="724.75,-193.7 715.98,-187.75 719.12,-197.87 724.75,-193.7"/>
</g>
</g>
</svg>
