<?xml version="1.0" encoding="UTF-8" standalone="no"?>
<!DOCTYPE svg PUBLIC "-//W3C//DTD SVG 1.1//EN"
 "http://www.w3.org/Graphics/SVG/1.1/DTD/svg11.dtd">
<!-- Generated by graphviz version 2.43.0 (0)
 -->
<!-- Title: util.h Pages: 1 -->
<svg width="594pt" height="140pt"
 viewBox="0.00 0.00 593.50 140.00" xmlns="http://www.w3.org/2000/svg" xmlns:xlink="http://www.w3.org/1999/xlink">
<g id="graph0" class="graph" transform="scale(1 1) rotate(0) translate(4 136)">
<title>util.h</title>
<polygon fill="white" stroke="transparent" points="-4,4 -4,-136 589.5,-136 589.5,4 -4,4"/>
<!-- Node1 -->
<g id="node1" class="node">
<title>Node1</title>
<g id="a_node1"><a xlink:title="Little helpers that don&#39;t fit elsewhere.">
<polygon fill="#bfbfbf" stroke="black" points="265,-112.5 265,-131.5 306,-131.5 306,-112.5 265,-112.5"/>
<text text-anchor="middle" x="285.5" y="-119.5" font-family="FreeSans" font-size="10.00">util.h</text>
</a>
</g>
</g>
<!-- Node2 -->
<g id="node2" class="node">
<title>Node2</title>
<g id="a_node2"><a xlink:href="lcd_8c.html" target="_top" xlink:title="Library for LCD use.">
<polygon fill="white" stroke="black" points="0,-0.5 0,-19.5 39,-19.5 39,-0.5 0,-0.5"/>
<text text-anchor="middle" x="19.5" y="-7.5" font-family="FreeSans" font-size="10.00">lcd.c</text>
</a>
</g>
</g>
<!-- Node1&#45;&gt;Node2 -->
<g id="edge1" class="edge">
<title>Node1&#45;&gt;Node2</title>
<path fill="none" stroke="midnightblue" d="M255.22,-111.72C228.42,-103.24 188.42,-89.94 154.5,-76 110.71,-58.01 60.95,-32.75 35.84,-19.64"/>
<polygon fill="midnightblue" stroke="midnightblue" points="254.21,-115.07 264.8,-114.72 256.31,-108.39 254.21,-115.07"/>
</g>
<!-- Node3 -->
<g id="node3" class="node">
<title>Node3</title>
<g id="a_node3"><a xlink:href="lcd_8h.html" target="_top" xlink:title="Library for LCD use.">
<polygon fill="white" stroke="black" points="213.5,-56.5 213.5,-75.5 253.5,-75.5 253.5,-56.5 213.5,-56.5"/>
<text text-anchor="middle" x="233.5" y="-63.5" font-family="FreeSans" font-size="10.00">lcd.h</text>
</a>
</g>
</g>
<!-- Node1&#45;&gt;Node3 -->
<g id="edge2" class="edge">
<title>Node1&#45;&gt;Node3</title>
<path fill="none" stroke="midnightblue" d="M269.82,-104.72C260.66,-95.2 249.45,-83.56 241.93,-75.75"/>
<polygon fill="midnightblue" stroke="midnightblue" points="267.46,-107.31 276.91,-112.08 272.5,-102.45 267.46,-107.31"/>
</g>
<!-- Node4 -->
<g id="node4" class="node">
<title>Node4</title>
<g id="a_node4"><a xlink:href="os__core_8c.html" target="_top" xlink:title=" ">
<polygon fill="white" stroke="black" points="57.5,-0.5 57.5,-19.5 119.5,-19.5 119.5,-0.5 57.5,-0.5"/>
<text text-anchor="middle" x="88.5" y="-7.5" font-family="FreeSans" font-size="10.00">os_core.c</text>
</a>
</g>
</g>
<!-- Node1&#45;&gt;Node4 -->
<g id="edge8" class="edge">
<title>Node1&#45;&gt;Node4</title>
<path fill="none" stroke="midnightblue" d="M256.08,-108.43C236.82,-99.91 211.27,-88.04 189.5,-76 156.29,-57.64 119.25,-32.53 100.61,-19.55"/>
<polygon fill="midnightblue" stroke="midnightblue" points="254.69,-111.65 265.26,-112.45 257.5,-105.23 254.69,-111.65"/>
</g>
<!-- Node5 -->
<g id="node5" class="node">
<title>Node5</title>
<g id="a_node5"><a xlink:href="os__scheduler_8c.html" target="_top" xlink:title="Scheduling module for the OS.">
<polygon fill="white" stroke="black" points="137.5,-0.5 137.5,-19.5 225.5,-19.5 225.5,-0.5 137.5,-0.5"/>
<text text-anchor="middle" x="181.5" y="-7.5" font-family="FreeSans" font-size="10.00">os_scheduler.c</text>
</a>
</g>
</g>
<!-- Node1&#45;&gt;Node5 -->
<g id="edge11" class="edge">
<title>Node1&#45;&gt;Node5</title>
<path fill="none" stroke="midnightblue" d="M255.26,-110.42C238.28,-103.1 217.87,-91.81 204.5,-76 190.28,-59.18 184.62,-32.96 182.56,-19.54"/>
<polygon fill="midnightblue" stroke="midnightblue" points="254.21,-113.77 264.79,-114.27 256.83,-107.28 254.21,-113.77"/>
</g>
<!-- Node6 -->
<g id="node6" class="node">
<title>Node6</title>
<g id="a_node6"><a xlink:href="os__taskman_8c.html" target="_top" xlink:title=" ">
<polygon fill="white" stroke="black" points="243.5,-0.5 243.5,-19.5 327.5,-19.5 327.5,-0.5 243.5,-0.5"/>
<text text-anchor="middle" x="285.5" y="-7.5" font-family="FreeSans" font-size="10.00">os_taskman.c</text>
</a>
</g>
</g>
<!-- Node1&#45;&gt;Node6 -->
<g id="edge15" class="edge">
<title>Node1&#45;&gt;Node6</title>
<path fill="none" stroke="midnightblue" d="M285.5,-102.35C285.5,-78.25 285.5,-37.31 285.5,-19.59"/>
<polygon fill="midnightblue" stroke="midnightblue" points="282,-102.37 285.5,-112.37 289,-102.37 282,-102.37"/>
</g>
<!-- Node7 -->
<g id="node7" class="node">
<title>Node7</title>
<g id="a_node7"><a xlink:href="util_8c.html" target="_top" xlink:title=" ">
<polygon fill="white" stroke="black" points="346,-0.5 346,-19.5 387,-19.5 387,-0.5 346,-0.5"/>
<text text-anchor="middle" x="366.5" y="-7.5" font-family="FreeSans" font-size="10.00">util.c</text>
</a>
</g>
</g>
<!-- Node1&#45;&gt;Node7 -->
<g id="edge16" class="edge">
<title>Node1&#45;&gt;Node7</title>
<path fill="none" stroke="midnightblue" d="M297.82,-104.27C315.33,-80.49 346.77,-37.79 360.17,-19.59"/>
<polygon fill="midnightblue" stroke="midnightblue" points="294.97,-102.24 291.86,-112.37 300.6,-106.39 294.97,-102.24"/>
</g>
<!-- Node8 -->
<g id="node8" class="node">
<title>Node8</title>
<g id="a_node8"><a xlink:href="os__mem__drivers_8c.html" target="_top" xlink:title=" ">
<polygon fill="white" stroke="black" points="405.5,-0.5 405.5,-19.5 511.5,-19.5 511.5,-0.5 405.5,-0.5"/>
<text text-anchor="middle" x="458.5" y="-7.5" font-family="FreeSans" font-size="10.00">os_mem_drivers.c</text>
</a>
</g>
</g>
<!-- Node1&#45;&gt;Node8 -->
<g id="edge9" class="edge">
<title>Node1&#45;&gt;Node8</title>
<path fill="none" stroke="midnightblue" d="M307.97,-106.71C344.42,-83.53 415.36,-38.43 444.99,-19.59"/>
<polygon fill="midnightblue" stroke="midnightblue" points="305.64,-104.05 299.08,-112.37 309.39,-109.96 305.64,-104.05"/>
</g>
<!-- Node9 -->
<g id="node9" class="node">
<title>Node9</title>
<g id="a_node9"><a xlink:href="os__memory_8c.html" target="_top" xlink:title=" ">
<polygon fill="white" stroke="black" points="499,-56.5 499,-75.5 580,-75.5 580,-56.5 499,-56.5"/>
<text text-anchor="middle" x="539.5" y="-63.5" font-family="FreeSans" font-size="10.00">os_memory.c</text>
</a>
</g>
</g>
<!-- Node1&#45;&gt;Node9 -->
<g id="edge10" class="edge">
<title>Node1&#45;&gt;Node9</title>
<path fill="none" stroke="midnightblue" d="M316.24,-114.46C362.16,-104.7 448.7,-86.3 499.49,-75.51"/>
<polygon fill="midnightblue" stroke="midnightblue" points="315.34,-111.08 306.29,-116.58 316.8,-117.92 315.34,-111.08"/>
</g>
<!-- Node10 -->
<g id="node10" class="node">
<title>Node10</title>
<g id="a_node10"><a xlink:href="os__spi_8h.html" target="_top" xlink:title="Driver for AVRs SPI module.">
<polygon fill="white" stroke="black" points="424.5,-56.5 424.5,-75.5 480.5,-75.5 480.5,-56.5 424.5,-56.5"/>
<text text-anchor="middle" x="452.5" y="-63.5" font-family="FreeSans" font-size="10.00">os_spi.h</text>
</a>
</g>
</g>
<!-- Node1&#45;&gt;Node10 -->
<g id="edge12" class="edge">
<title>Node1&#45;&gt;Node10</title>
<path fill="none" stroke="midnightblue" d="M315.9,-111.17C347.44,-100.97 396.26,-85.19 426.19,-75.51"/>
<polygon fill="midnightblue" stroke="midnightblue" points="314.75,-107.86 306.31,-114.27 316.9,-114.52 314.75,-107.86"/>
</g>
<!-- Node3&#45;&gt;Node2 -->
<g id="edge3" class="edge">
<title>Node3&#45;&gt;Node2</title>
<path fill="none" stroke="midnightblue" d="M203.36,-58.28C166.62,-49.94 102.72,-34.99 48.5,-20 45.45,-19.16 42.24,-18.21 39.11,-17.27"/>
<polygon fill="midnightblue" stroke="midnightblue" points="202.88,-61.76 213.41,-60.55 204.43,-54.93 202.88,-61.76"/>
</g>
<!-- Node3&#45;&gt;Node4 -->
<g id="edge4" class="edge">
<title>Node3&#45;&gt;Node4</title>
<path fill="none" stroke="midnightblue" d="M203.87,-53.97C176.48,-43.77 136.35,-28.82 111.36,-19.51"/>
<polygon fill="midnightblue" stroke="midnightblue" points="202.75,-57.28 213.34,-57.49 205.19,-50.72 202.75,-57.28"/>
</g>
<!-- Node3&#45;&gt;Node5 -->
<g id="edge5" class="edge">
<title>Node3&#45;&gt;Node5</title>
<path fill="none" stroke="midnightblue" d="M217.82,-48.72C208.66,-39.2 197.45,-27.56 189.93,-19.75"/>
<polygon fill="midnightblue" stroke="midnightblue" points="215.46,-51.31 224.91,-56.08 220.5,-46.45 215.46,-51.31"/>
</g>
<!-- Node3&#45;&gt;Node6 -->
<g id="edge6" class="edge">
<title>Node3&#45;&gt;Node6</title>
<path fill="none" stroke="midnightblue" d="M249.18,-48.72C258.34,-39.2 269.55,-27.56 277.07,-19.75"/>
<polygon fill="midnightblue" stroke="midnightblue" points="246.5,-46.45 242.09,-56.08 251.54,-51.31 246.5,-46.45"/>
</g>
<!-- Node3&#45;&gt;Node7 -->
<g id="edge7" class="edge">
<title>Node3&#45;&gt;Node7</title>
<path fill="none" stroke="midnightblue" d="M263.09,-52.99C288.16,-42.81 323.48,-28.47 345.67,-19.46"/>
<polygon fill="midnightblue" stroke="midnightblue" points="261.65,-49.79 253.7,-56.8 264.28,-56.28 261.65,-49.79"/>
</g>
<!-- Node10&#45;&gt;Node8 -->
<g id="edge13" class="edge">
<title>Node10&#45;&gt;Node8</title>
<path fill="none" stroke="midnightblue" d="M454.6,-46.1C455.6,-37.14 456.74,-26.86 457.53,-19.75"/>
<polygon fill="midnightblue" stroke="midnightblue" points="451.12,-45.76 453.49,-56.08 458.07,-46.53 451.12,-45.76"/>
</g>
<!-- Node11 -->
<g id="node11" class="node">
<title>Node11</title>
<g id="a_node11"><a xlink:href="os__spi_8c.html" target="_top" xlink:title="Driver for AVRs SPI module.">
<polygon fill="white" stroke="black" points="529.5,-0.5 529.5,-19.5 585.5,-19.5 585.5,-0.5 529.5,-0.5"/>
<text text-anchor="middle" x="557.5" y="-7.5" font-family="FreeSans" font-size="10.00">os_spi.c</text>
</a>
</g>
</g>
<!-- Node10&#45;&gt;Node11 -->
<g id="edge14" class="edge">
<title>Node10&#45;&gt;Node11</title>
<path fill="none" stroke="midnightblue" d="M478.31,-51.73C497.75,-41.73 523.85,-28.31 540.67,-19.65"/>
<polygon fill="midnightblue" stroke="midnightblue" points="476.66,-48.64 469.37,-56.32 479.86,-54.86 476.66,-48.64"/>
</g>
</g>
</svg>
