<?xml version="1.0" encoding="UTF-8" standalone="no"?>
<!DOCTYPE svg PUBLIC "-//W3C//DTD SVG 1.1//EN"
 "http://www.w3.org/Graphics/SVG/1.1/DTD/svg11.dtd">
<!-- Generated by graphviz version 2.43.0 (0)
 -->
<!-- Title: lcd_registerCustomChar Pages: 1 -->
<svg width="394pt" height="47pt"
 viewBox="0.00 0.00 394.00 47.00" xmlns="http://www.w3.org/2000/svg" xmlns:xlink="http://www.w3.org/1999/xlink">
<g id="graph0" class="graph" transform="scale(1 1) rotate(0) translate(4 43)">
<title>lcd_registerCustomChar</title>
<polygon fill="white" stroke="transparent" points="-4,4 -4,-43 390,-43 390,4 -4,4"/>
<!-- Node1 -->
<g id="node1" class="node">
<title>Node1</title>
<g id="a_node1"><a xlink:title="Register a custom designed character with the LCD.">
<polygon fill="#bfbfbf" stroke="black" points="0,-0.5 0,-19.5 134,-19.5 134,-0.5 0,-0.5"/>
<text text-anchor="middle" x="67" y="-7.5" font-family="FreeSans" font-size="10.00">lcd_registerCustomChar</text>
</a>
</g>
</g>
<!-- Node2 -->
<g id="node2" class="node">
<title>Node2</title>
<g id="a_node2"><a xlink:href="lcd_8c.html#acb116d89c358367b8fd1164120d320e3" target="_top" xlink:title="Send command to LCD.">
<polygon fill="white" stroke="black" points="170,-19.5 170,-38.5 255,-38.5 255,-19.5 170,-19.5"/>
<text text-anchor="middle" x="212.5" y="-26.5" font-family="FreeSans" font-size="10.00">lcd_command</text>
</a>
</g>
</g>
<!-- Node1&#45;&gt;Node2 -->
<g id="edge1" class="edge">
<title>Node1&#45;&gt;Node2</title>
<path fill="none" stroke="midnightblue" d="M134.29,-18.78C142.76,-19.9 151.33,-21.03 159.52,-22.12"/>
<polygon fill="midnightblue" stroke="midnightblue" points="159.3,-25.62 169.67,-23.46 160.22,-18.68 159.3,-25.62"/>
</g>
<!-- Node3 -->
<g id="node3" class="node">
<title>Node3</title>
<g id="a_node3"><a xlink:href="lcd_8c.html#a26a89cb41bb1496462fda420cbe79a07" target="_top" xlink:title=" ">
<polygon fill="white" stroke="black" points="291,-0.5 291,-19.5 386,-19.5 386,-0.5 291,-0.5"/>
<text text-anchor="middle" x="338.5" y="-7.5" font-family="FreeSans" font-size="10.00">lcd_sendStream</text>
</a>
</g>
</g>
<!-- Node1&#45;&gt;Node3 -->
<g id="edge3" class="edge">
<title>Node1&#45;&gt;Node3</title>
<path fill="none" stroke="midnightblue" d="M134.27,-10C179.19,-10 237.95,-10 280.72,-10"/>
<polygon fill="midnightblue" stroke="midnightblue" points="280.96,-13.5 290.96,-10 280.96,-6.5 280.96,-13.5"/>
</g>
<!-- Node2&#45;&gt;Node3 -->
<g id="edge2" class="edge">
<title>Node2&#45;&gt;Node3</title>
<path fill="none" stroke="midnightblue" d="M255.14,-22.62C263.33,-21.37 272.05,-20.03 280.65,-18.71"/>
<polygon fill="midnightblue" stroke="midnightblue" points="281.28,-22.16 290.63,-17.18 280.22,-15.24 281.28,-22.16"/>
</g>
</g>
</svg>
