<?xml version="1.0" encoding="UTF-8" standalone="no"?>
<!DOCTYPE svg PUBLIC "-//W3C//DTD SVG 1.1//EN"
 "http://www.w3.org/Graphics/SVG/1.1/DTD/svg11.dtd">
<!-- Generated by graphviz version 2.43.0 (0)
 -->
<!-- Title: lcd_writeVoltage Pages: 1 -->
<svg width="341pt" height="47pt"
 viewBox="0.00 0.00 341.00 47.00" xmlns="http://www.w3.org/2000/svg" xmlns:xlink="http://www.w3.org/1999/xlink">
<g id="graph0" class="graph" transform="scale(1 1) rotate(0) translate(4 43)">
<title>lcd_writeVoltage</title>
<polygon fill="white" stroke="transparent" points="-4,4 -4,-43 337,-43 337,4 -4,4"/>
<!-- Node1 -->
<g id="node1" class="node">
<title>Node1</title>
<g id="a_node1"><a xlink:title="Prints the passed voltage onto the display (three float places).">
<polygon fill="#bfbfbf" stroke="black" points="0,-19.5 0,-38.5 98,-38.5 98,-19.5 0,-19.5"/>
<text text-anchor="middle" x="49" y="-26.5" font-family="FreeSans" font-size="10.00">lcd_writeVoltage</text>
</a>
</g>
</g>
<!-- Node2 -->
<g id="node2" class="node">
<title>Node2</title>
<g id="a_node2"><a xlink:href="lcd_8c.html#a93cd5600fa3b27381a4cf57d21f27ebf" target="_top" xlink:title="Write one character.">
<polygon fill="white" stroke="black" points="250,-19.5 250,-38.5 333,-38.5 333,-19.5 250,-19.5"/>
<text text-anchor="middle" x="291.5" y="-26.5" font-family="FreeSans" font-size="10.00">lcd_writeChar</text>
</a>
</g>
</g>
<!-- Node1&#45;&gt;Node2 -->
<g id="edge1" class="edge">
<title>Node1&#45;&gt;Node2</title>
<path fill="none" stroke="midnightblue" d="M98.09,-29C139.03,-29 197.69,-29 239.46,-29"/>
<polygon fill="midnightblue" stroke="midnightblue" points="239.69,-32.5 249.69,-29 239.69,-25.5 239.69,-32.5"/>
</g>
<!-- Node3 -->
<g id="node3" class="node">
<title>Node3</title>
<g id="a_node3"><a xlink:href="lcd_8c.html#a1415b995427583a289b6089b5e4785e5" target="_top" xlink:title="Write a byte as a decimal number without prefixes.">
<polygon fill="white" stroke="black" points="134,-0.5 134,-19.5 214,-19.5 214,-0.5 134,-0.5"/>
<text text-anchor="middle" x="174" y="-7.5" font-family="FreeSans" font-size="10.00">lcd_writeDec</text>
</a>
</g>
</g>
<!-- Node1&#45;&gt;Node3 -->
<g id="edge2" class="edge">
<title>Node1&#45;&gt;Node3</title>
<path fill="none" stroke="midnightblue" d="M98.26,-21.55C106.68,-20.24 115.45,-18.89 123.89,-17.59"/>
<polygon fill="midnightblue" stroke="midnightblue" points="124.64,-21.01 133.99,-16.03 123.57,-14.09 124.64,-21.01"/>
</g>
<!-- Node3&#45;&gt;Node2 -->
<g id="edge3" class="edge">
<title>Node3&#45;&gt;Node2</title>
<path fill="none" stroke="midnightblue" d="M214.1,-16.43C222.38,-17.79 231.23,-19.25 239.87,-20.67"/>
<polygon fill="midnightblue" stroke="midnightblue" points="239.42,-24.14 249.86,-22.31 240.56,-17.24 239.42,-24.14"/>
</g>
</g>
</svg>
