<?xml version="1.0" encoding="UTF-8" standalone="no"?>
<!DOCTYPE svg PUBLIC "-//W3C//DTD SVG 1.1//EN"
 "http://www.w3.org/Graphics/SVG/1.1/DTD/svg11.dtd">
<!-- Generated by graphviz version 2.43.0 (0)
 -->
<!-- Title: os_core.h Pages: 1 -->
<svg width="502pt" height="84pt"
 viewBox="0.00 0.00 501.50 84.00" xmlns="http://www.w3.org/2000/svg" xmlns:xlink="http://www.w3.org/1999/xlink">
<g id="graph0" class="graph" transform="scale(1 1) rotate(0) translate(4 80)">
<title>os_core.h</title>
<polygon fill="white" stroke="transparent" points="-4,4 -4,-80 497.5,-80 497.5,4 -4,4"/>
<!-- Node1 -->
<g id="node1" class="node">
<title>Node1</title>
<g id="a_node1"><a xlink:title="Core of the OS.">
<polygon fill="#bfbfbf" stroke="black" points="192.5,-56.5 192.5,-75.5 255.5,-75.5 255.5,-56.5 192.5,-56.5"/>
<text text-anchor="middle" x="224" y="-63.5" font-family="FreeSans" font-size="10.00">os_core.h</text>
</a>
</g>
</g>
<!-- Node2 -->
<g id="node2" class="node">
<title>Node2</title>
<g id="a_node2"><a xlink:href="os__core_8c.html" target="_top" xlink:title=" ">
<polygon fill="white" stroke="black" points="0,-0.5 0,-19.5 62,-19.5 62,-0.5 0,-0.5"/>
<text text-anchor="middle" x="31" y="-7.5" font-family="FreeSans" font-size="10.00">os_core.c</text>
</a>
</g>
</g>
<!-- Node1&#45;&gt;Node2 -->
<g id="edge1" class="edge">
<title>Node1&#45;&gt;Node2</title>
<path fill="none" stroke="midnightblue" d="M183.61,-53.7C147.18,-43.51 94.41,-28.74 61.44,-19.52"/>
<polygon fill="midnightblue" stroke="midnightblue" points="182.85,-57.12 193.42,-56.44 184.73,-50.38 182.85,-57.12"/>
</g>
<!-- Node3 -->
<g id="node3" class="node">
<title>Node3</title>
<g id="a_node3"><a xlink:href="os__memory_8c.html" target="_top" xlink:title=" ">
<polygon fill="white" stroke="black" points="80.5,-0.5 80.5,-19.5 161.5,-19.5 161.5,-0.5 80.5,-0.5"/>
<text text-anchor="middle" x="121" y="-7.5" font-family="FreeSans" font-size="10.00">os_memory.c</text>
</a>
</g>
</g>
<!-- Node1&#45;&gt;Node3 -->
<g id="edge2" class="edge">
<title>Node1&#45;&gt;Node3</title>
<path fill="none" stroke="midnightblue" d="M198.42,-51.59C179.38,-41.61 153.94,-28.27 137.51,-19.65"/>
<polygon fill="midnightblue" stroke="midnightblue" points="196.97,-54.78 207.45,-56.32 200.22,-48.58 196.97,-54.78"/>
</g>
<!-- Node4 -->
<g id="node4" class="node">
<title>Node4</title>
<g id="a_node4"><a xlink:href="os__scheduler_8c.html" target="_top" xlink:title="Scheduling module for the OS.">
<polygon fill="white" stroke="black" points="180,-0.5 180,-19.5 268,-19.5 268,-0.5 180,-0.5"/>
<text text-anchor="middle" x="224" y="-7.5" font-family="FreeSans" font-size="10.00">os_scheduler.c</text>
</a>
</g>
</g>
<!-- Node1&#45;&gt;Node4 -->
<g id="edge3" class="edge">
<title>Node1&#45;&gt;Node4</title>
<path fill="none" stroke="midnightblue" d="M224,-45.8C224,-36.91 224,-26.78 224,-19.75"/>
<polygon fill="midnightblue" stroke="midnightblue" points="220.5,-46.08 224,-56.08 227.5,-46.08 220.5,-46.08"/>
</g>
<!-- Node5 -->
<g id="node5" class="node">
<title>Node5</title>
<g id="a_node5"><a xlink:href="os__scheduling__strategies_8c.html" target="_top" xlink:title=" ">
<polygon fill="white" stroke="black" points="286,-0.5 286,-19.5 434,-19.5 434,-0.5 286,-0.5"/>
<text text-anchor="middle" x="360" y="-7.5" font-family="FreeSans" font-size="10.00">os_scheduling_strategies.c</text>
</a>
</g>
</g>
<!-- Node1&#45;&gt;Node5 -->
<g id="edge4" class="edge">
<title>Node1&#45;&gt;Node5</title>
<path fill="none" stroke="midnightblue" d="M255.13,-52.64C280.66,-42.5 316.11,-28.43 338.55,-19.52"/>
<polygon fill="midnightblue" stroke="midnightblue" points="253.55,-49.5 245.55,-56.44 256.14,-56.01 253.55,-49.5"/>
</g>
<!-- Node6 -->
<g id="node6" class="node">
<title>Node6</title>
<g id="a_node6"><a xlink:href="util_8c.html" target="_top" xlink:title=" ">
<polygon fill="white" stroke="black" points="452.5,-0.5 452.5,-19.5 493.5,-19.5 493.5,-0.5 452.5,-0.5"/>
<text text-anchor="middle" x="473" y="-7.5" font-family="FreeSans" font-size="10.00">util.c</text>
</a>
</g>
</g>
<!-- Node1&#45;&gt;Node6 -->
<g id="edge5" class="edge">
<title>Node1&#45;&gt;Node6</title>
<path fill="none" stroke="midnightblue" d="M265.85,-57.55C310.11,-49.39 381.85,-35.42 443,-20 446.06,-19.23 449.27,-18.34 452.41,-17.44"/>
<polygon fill="midnightblue" stroke="midnightblue" points="264.96,-54.15 255.75,-59.39 266.22,-61.04 264.96,-54.15"/>
</g>
</g>
</svg>
