<?xml version="1.0" encoding="UTF-8" standalone="no"?>
<!DOCTYPE svg PUBLIC "-//W3C//DTD SVG 1.1//EN"
 "http://www.w3.org/Graphics/SVG/1.1/DTD/svg11.dtd">
<!-- Generated by graphviz version 2.43.0 (0)
 -->
<!-- Title: os_errorPStr Pages: 1 -->
<svg width="506pt" height="142pt"
 viewBox="0.00 0.00 506.00 142.00" xmlns="http://www.w3.org/2000/svg" xmlns:xlink="http://www.w3.org/1999/xlink">
<g id="graph0" class="graph" transform="scale(1 1) rotate(0) translate(4 138)">
<title>os_errorPStr</title>
<polygon fill="white" stroke="transparent" points="-4,4 -4,-138 502,-138 502,4 -4,4"/>
<!-- Node1 -->
<g id="node1" class="node">
<title>Node1</title>
<g id="a_node1"><a xlink:title="Shows error on display and terminates program.">
<polygon fill="#bfbfbf" stroke="black" points="0,-57.5 0,-76.5 76,-76.5 76,-57.5 0,-57.5"/>
<text text-anchor="middle" x="38" y="-64.5" font-family="FreeSans" font-size="10.00">os_errorPStr</text>
</a>
</g>
</g>
<!-- Node2 -->
<g id="node2" class="node">
<title>Node2</title>
<g id="a_node2"><a xlink:href="lcd_8c.html#ad235a86241458b1e7b8771688bfdaf9a" target="_top" xlink:title="Clear all data from display.">
<polygon fill="white" stroke="black" points="149,-114.5 149,-133.5 209,-133.5 209,-114.5 149,-114.5"/>
<text text-anchor="middle" x="179" y="-121.5" font-family="FreeSans" font-size="10.00">lcd_clear</text>
</a>
</g>
</g>
<!-- Node1&#45;&gt;Node2 -->
<g id="edge1" class="edge">
<title>Node1&#45;&gt;Node2</title>
<path fill="none" stroke="midnightblue" d="M55.08,-76.57C69.59,-84.9 91.7,-96.89 112,-105 120.61,-108.44 130.07,-111.54 139.08,-114.2"/>
<polygon fill="midnightblue" stroke="midnightblue" points="138.42,-117.64 148.99,-116.99 140.32,-110.91 138.42,-117.64"/>
</g>
<!-- Node5 -->
<g id="node5" class="node">
<title>Node5</title>
<g id="a_node5"><a xlink:href="lcd_8c.html#a5acdac414852308dc8428424ed098769" target="_top" xlink:title="Write char PROGMEM* string as an error.">
<polygon fill="white" stroke="black" points="112,-76.5 112,-95.5 246,-95.5 246,-76.5 112,-76.5"/>
<text text-anchor="middle" x="179" y="-83.5" font-family="FreeSans" font-size="10.00">lcd_writeErrorProgString</text>
</a>
</g>
</g>
<!-- Node1&#45;&gt;Node5 -->
<g id="edge4" class="edge">
<title>Node1&#45;&gt;Node5</title>
<path fill="none" stroke="midnightblue" d="M76.25,-72.09C84.25,-73.19 92.99,-74.38 101.88,-75.59"/>
<polygon fill="midnightblue" stroke="midnightblue" points="101.55,-79.08 111.94,-76.97 102.5,-72.15 101.55,-79.08"/>
</g>
<!-- Node6 -->
<g id="node6" class="node">
<title>Node6</title>
<g id="a_node6"><a xlink:href="os__input_8c.html#a137e8a89b9524ec791fffccedb04fef0" target="_top" xlink:title="Refreshes the button states.">
<polygon fill="white" stroke="black" points="287.5,-19.5 287.5,-38.5 361.5,-38.5 361.5,-19.5 287.5,-19.5"/>
<text text-anchor="middle" x="324.5" y="-26.5" font-family="FreeSans" font-size="10.00">os_getInput</text>
</a>
</g>
</g>
<!-- Node1&#45;&gt;Node6 -->
<g id="edge5" class="edge">
<title>Node1&#45;&gt;Node6</title>
<path fill="none" stroke="midnightblue" d="M76.19,-62.03C127.81,-55.14 221.11,-42.68 277.18,-35.19"/>
<polygon fill="midnightblue" stroke="midnightblue" points="277.75,-38.64 287.2,-33.85 276.82,-31.7 277.75,-38.64"/>
</g>
<!-- Node7 -->
<g id="node7" class="node">
<title>Node7</title>
<g id="a_node7"><a xlink:href="os__input_8c.html#ad2eb8a84abf9fcfe88654e1118b351f5" target="_top" xlink:title="Waits for all buttons to be released.">
<polygon fill="white" stroke="black" points="125.5,-0.5 125.5,-19.5 232.5,-19.5 232.5,-0.5 125.5,-0.5"/>
<text text-anchor="middle" x="179" y="-7.5" font-family="FreeSans" font-size="10.00">os_waitForNoInput</text>
</a>
</g>
</g>
<!-- Node1&#45;&gt;Node7 -->
<g id="edge6" class="edge">
<title>Node1&#45;&gt;Node7</title>
<path fill="none" stroke="midnightblue" d="M58.96,-57.48C73.54,-50.66 93.84,-41.4 112,-34 121.22,-30.25 131.27,-26.45 140.69,-23.01"/>
<polygon fill="midnightblue" stroke="midnightblue" points="141.98,-26.26 150.21,-19.58 139.61,-19.68 141.98,-26.26"/>
</g>
<!-- Node3 -->
<g id="node3" class="node">
<title>Node3</title>
<g id="a_node3"><a xlink:href="lcd_8c.html#acb116d89c358367b8fd1164120d320e3" target="_top" xlink:title="Send command to LCD.">
<polygon fill="white" stroke="black" points="282,-114.5 282,-133.5 367,-133.5 367,-114.5 282,-114.5"/>
<text text-anchor="middle" x="324.5" y="-121.5" font-family="FreeSans" font-size="10.00">lcd_command</text>
</a>
</g>
</g>
<!-- Node2&#45;&gt;Node3 -->
<g id="edge2" class="edge">
<title>Node2&#45;&gt;Node3</title>
<path fill="none" stroke="midnightblue" d="M209.04,-124C227.06,-124 250.72,-124 271.86,-124"/>
<polygon fill="midnightblue" stroke="midnightblue" points="271.99,-127.5 281.99,-124 271.99,-120.5 271.99,-127.5"/>
</g>
<!-- Node4 -->
<g id="node4" class="node">
<title>Node4</title>
<g id="a_node4"><a xlink:href="lcd_8c.html#a26a89cb41bb1496462fda420cbe79a07" target="_top" xlink:title=" ">
<polygon fill="white" stroke="black" points="403,-114.5 403,-133.5 498,-133.5 498,-114.5 403,-114.5"/>
<text text-anchor="middle" x="450.5" y="-121.5" font-family="FreeSans" font-size="10.00">lcd_sendStream</text>
</a>
</g>
</g>
<!-- Node3&#45;&gt;Node4 -->
<g id="edge3" class="edge">
<title>Node3&#45;&gt;Node4</title>
<path fill="none" stroke="midnightblue" d="M367.14,-124C375.24,-124 383.86,-124 392.37,-124"/>
<polygon fill="midnightblue" stroke="midnightblue" points="392.63,-127.5 402.63,-124 392.63,-120.5 392.63,-127.5"/>
</g>
<!-- Node7&#45;&gt;Node6 -->
<g id="edge7" class="edge">
<title>Node7&#45;&gt;Node6</title>
<path fill="none" stroke="midnightblue" d="M232.62,-16.97C247.29,-18.91 263.12,-21.01 277.39,-22.9"/>
<polygon fill="midnightblue" stroke="midnightblue" points="277.1,-26.39 287.47,-24.23 278.01,-19.45 277.1,-26.39"/>
</g>
</g>
</svg>
