<?xml version="1.0" encoding="UTF-8" standalone="no"?>
<!DOCTYPE svg PUBLIC "-//W3C//DTD SVG 1.1//EN"
 "http://www.w3.org/Graphics/SVG/1.1/DTD/svg11.dtd">
<!-- Generated by graphviz version 2.43.0 (0)
 -->
<!-- Title: os_memory.h Pages: 1 -->
<svg width="402pt" height="308pt"
 viewBox="0.00 0.00 401.50 308.00" xmlns="http://www.w3.org/2000/svg" xmlns:xlink="http://www.w3.org/1999/xlink">
<g id="graph0" class="graph" transform="scale(1 1) rotate(0) translate(4 304)">
<title>os_memory.h</title>
<polygon fill="white" stroke="transparent" points="-4,4 -4,-304 397.5,-304 397.5,4 -4,4"/>
<!-- Node1 -->
<g id="node1" class="node">
<title>Node1</title>
<g id="a_node1"><a xlink:title="Library for OS memory management.">
<polygon fill="#bfbfbf" stroke="black" points="106.5,-280.5 106.5,-299.5 188.5,-299.5 188.5,-280.5 106.5,-280.5"/>
<text text-anchor="middle" x="147.5" y="-287.5" font-family="FreeSans" font-size="10.00">os_memory.h</text>
</a>
</g>
</g>
<!-- Node2 -->
<g id="node2" class="node">
<title>Node2</title>
<g id="a_node2"><a xlink:href="os__mem__drivers_8h.html" target="_top" xlink:title="Drivers for OS memory management.">
<polygon fill="white" stroke="black" points="0,-168.5 0,-187.5 107,-187.5 107,-168.5 0,-168.5"/>
<text text-anchor="middle" x="53.5" y="-175.5" font-family="FreeSans" font-size="10.00">os_mem_drivers.h</text>
</a>
</g>
</g>
<!-- Node1&#45;&gt;Node2 -->
<g id="edge1" class="edge">
<title>Node1&#45;&gt;Node2</title>
<path fill="none" stroke="midnightblue" d="M124.32,-280.48C107.62,-273.22 85.77,-261.19 72.5,-244 62.18,-230.63 57.46,-211.81 55.31,-197.86"/>
<polygon fill="midnightblue" stroke="midnightblue" points="58.78,-197.4 54.07,-187.91 51.83,-198.26 58.78,-197.4"/>
</g>
<!-- Node7 -->
<g id="node7" class="node">
<title>Node7</title>
<g id="a_node7"><a xlink:href="os__memheap__drivers_8h.html" target="_top" xlink:title="Drivers for OS heap management.">
<polygon fill="white" stroke="black" points="82,-224.5 82,-243.5 213,-243.5 213,-224.5 82,-224.5"/>
<text text-anchor="middle" x="147.5" y="-231.5" font-family="FreeSans" font-size="10.00">os_memheap_drivers.h</text>
</a>
</g>
</g>
<!-- Node1&#45;&gt;Node7 -->
<g id="edge6" class="edge">
<title>Node1&#45;&gt;Node7</title>
<path fill="none" stroke="midnightblue" d="M147.5,-280.08C147.5,-273.01 147.5,-262.86 147.5,-253.99"/>
<polygon fill="midnightblue" stroke="midnightblue" points="151,-253.75 147.5,-243.75 144,-253.75 151,-253.75"/>
</g>
<!-- Node9 -->
<g id="node9" class="node">
<title>Node9</title>
<g id="a_node9"><a xlink:href="os__scheduler_8h.html" target="_top" xlink:title="Scheduling module for the OS.">
<polygon fill="white" stroke="black" points="236,-224.5 236,-243.5 325,-243.5 325,-224.5 236,-224.5"/>
<text text-anchor="middle" x="280.5" y="-231.5" font-family="FreeSans" font-size="10.00">os_scheduler.h</text>
</a>
</g>
</g>
<!-- Node1&#45;&gt;Node9 -->
<g id="edge10" class="edge">
<title>Node1&#45;&gt;Node9</title>
<path fill="none" stroke="midnightblue" d="M168.57,-280.44C190.56,-271.52 225.23,-257.44 250.16,-247.32"/>
<polygon fill="midnightblue" stroke="midnightblue" points="251.58,-250.52 259.52,-243.52 248.94,-244.04 251.58,-250.52"/>
</g>
<!-- Node3 -->
<g id="node3" class="node">
<title>Node3</title>
<g id="a_node3"><a xlink:title=" ">
<polygon fill="white" stroke="#bfbfbf" points="21,-112.5 21,-131.5 86,-131.5 86,-112.5 21,-112.5"/>
<text text-anchor="middle" x="53.5" y="-119.5" font-family="FreeSans" font-size="10.00">inttypes.h</text>
</a>
</g>
</g>
<!-- Node2&#45;&gt;Node3 -->
<g id="edge2" class="edge">
<title>Node2&#45;&gt;Node3</title>
<path fill="none" stroke="midnightblue" d="M53.5,-168.08C53.5,-161.01 53.5,-150.86 53.5,-141.99"/>
<polygon fill="midnightblue" stroke="midnightblue" points="57,-141.75 53.5,-131.75 50,-141.75 57,-141.75"/>
</g>
<!-- Node4 -->
<g id="node4" class="node">
<title>Node4</title>
<g id="a_node4"><a xlink:href="defines_8h.html" target="_top" xlink:title="Simple definitions and assembler&#45;macros, mostly 8/16&#45;Bit values.">
<polygon fill="white" stroke="black" points="105,-112.5 105,-131.5 166,-131.5 166,-112.5 105,-112.5"/>
<text text-anchor="middle" x="135.5" y="-119.5" font-family="FreeSans" font-size="10.00">defines.h</text>
</a>
</g>
</g>
<!-- Node2&#45;&gt;Node4 -->
<g id="edge3" class="edge">
<title>Node2&#45;&gt;Node4</title>
<path fill="none" stroke="midnightblue" d="M66.67,-168.32C79.35,-159.98 98.73,-147.21 113.71,-137.35"/>
<polygon fill="midnightblue" stroke="midnightblue" points="115.93,-140.08 122.36,-131.65 112.08,-134.23 115.93,-140.08"/>
</g>
<!-- Node5 -->
<g id="node5" class="node">
<title>Node5</title>
<g id="a_node5"><a xlink:href="atmega644constants_8h.html" target="_top" xlink:title="Constants for ATMega644 and EVA board. Defines several useful constants for the ATMega644.">
<polygon fill="white" stroke="black" points="71.5,-56.5 71.5,-75.5 199.5,-75.5 199.5,-56.5 71.5,-56.5"/>
<text text-anchor="middle" x="135.5" y="-63.5" font-family="FreeSans" font-size="10.00">atmega644constants.h</text>
</a>
</g>
</g>
<!-- Node4&#45;&gt;Node5 -->
<g id="edge4" class="edge">
<title>Node4&#45;&gt;Node5</title>
<path fill="none" stroke="midnightblue" d="M135.5,-112.08C135.5,-105.01 135.5,-94.86 135.5,-85.99"/>
<polygon fill="midnightblue" stroke="midnightblue" points="139,-85.75 135.5,-75.75 132,-85.75 139,-85.75"/>
</g>
<!-- Node6 -->
<g id="node6" class="node">
<title>Node6</title>
<g id="a_node6"><a xlink:title=" ">
<polygon fill="white" stroke="#bfbfbf" points="109,-0.5 109,-19.5 162,-19.5 162,-0.5 109,-0.5"/>
<text text-anchor="middle" x="135.5" y="-7.5" font-family="FreeSans" font-size="10.00">avr/io.h</text>
</a>
</g>
</g>
<!-- Node5&#45;&gt;Node6 -->
<g id="edge5" class="edge">
<title>Node5&#45;&gt;Node6</title>
<path fill="none" stroke="midnightblue" d="M135.5,-56.08C135.5,-49.01 135.5,-38.86 135.5,-29.99"/>
<polygon fill="midnightblue" stroke="midnightblue" points="139,-29.75 135.5,-19.75 132,-29.75 139,-29.75"/>
</g>
<!-- Node7&#45;&gt;Node2 -->
<g id="edge7" class="edge">
<title>Node7&#45;&gt;Node2</title>
<path fill="none" stroke="midnightblue" d="M132.4,-224.32C117.6,-215.82 94.81,-202.73 77.52,-192.8"/>
<polygon fill="midnightblue" stroke="midnightblue" points="78.98,-189.6 68.57,-187.65 75.49,-195.67 78.98,-189.6"/>
</g>
<!-- Node7&#45;&gt;Node4 -->
<g id="edge8" class="edge">
<title>Node7&#45;&gt;Node4</title>
<path fill="none" stroke="midnightblue" d="M146.56,-224.37C144.62,-206.62 140.15,-165.67 137.53,-141.6"/>
<polygon fill="midnightblue" stroke="midnightblue" points="141,-141.15 136.44,-131.59 134.04,-141.91 141,-141.15"/>
</g>
<!-- Node8 -->
<g id="node8" class="node">
<title>Node8</title>
<g id="a_node8"><a xlink:title=" ">
<polygon fill="white" stroke="#bfbfbf" points="163.5,-168.5 163.5,-187.5 219.5,-187.5 219.5,-168.5 163.5,-168.5"/>
<text text-anchor="middle" x="191.5" y="-175.5" font-family="FreeSans" font-size="10.00">stddef.h</text>
</a>
</g>
</g>
<!-- Node7&#45;&gt;Node8 -->
<g id="edge9" class="edge">
<title>Node7&#45;&gt;Node8</title>
<path fill="none" stroke="midnightblue" d="M154.77,-224.08C161.04,-216.38 170.29,-205.03 177.93,-195.65"/>
<polygon fill="midnightblue" stroke="midnightblue" points="180.77,-197.71 184.37,-187.75 175.34,-193.29 180.77,-197.71"/>
</g>
<!-- Node9&#45;&gt;Node4 -->
<g id="edge12" class="edge">
<title>Node9&#45;&gt;Node4</title>
<path fill="none" stroke="midnightblue" d="M275.41,-224.4C267.06,-210.91 249.29,-184.58 228.5,-168 211.03,-154.06 188.53,-143.03 170.04,-135.38"/>
<polygon fill="midnightblue" stroke="midnightblue" points="171.1,-132.03 160.51,-131.58 168.51,-138.54 171.1,-132.03"/>
</g>
<!-- Node10 -->
<g id="node10" class="node">
<title>Node10</title>
<g id="a_node10"><a xlink:title=" ">
<polygon fill="white" stroke="#bfbfbf" points="254.5,-112.5 254.5,-131.5 316.5,-131.5 316.5,-112.5 254.5,-112.5"/>
<text text-anchor="middle" x="285.5" y="-119.5" font-family="FreeSans" font-size="10.00">stdbool.h</text>
</a>
</g>
</g>
<!-- Node9&#45;&gt;Node10 -->
<g id="edge11" class="edge">
<title>Node9&#45;&gt;Node10</title>
<path fill="none" stroke="midnightblue" d="M280.89,-224.37C281.7,-206.62 283.56,-165.67 284.65,-141.6"/>
<polygon fill="midnightblue" stroke="midnightblue" points="288.15,-141.74 285.11,-131.59 281.16,-141.42 288.15,-141.74"/>
</g>
<!-- Node11 -->
<g id="node11" class="node">
<title>Node11</title>
<g id="a_node11"><a xlink:href="os__process_8h.html" target="_top" xlink:title="Struct specifying a process.">
<polygon fill="white" stroke="black" points="313.5,-168.5 313.5,-187.5 393.5,-187.5 393.5,-168.5 313.5,-168.5"/>
<text text-anchor="middle" x="353.5" y="-175.5" font-family="FreeSans" font-size="10.00">os_process.h</text>
</a>
</g>
</g>
<!-- Node9&#45;&gt;Node11 -->
<g id="edge13" class="edge">
<title>Node9&#45;&gt;Node11</title>
<path fill="none" stroke="midnightblue" d="M292.23,-224.32C303.34,-216.11 320.24,-203.6 333.48,-193.81"/>
<polygon fill="midnightblue" stroke="midnightblue" points="335.6,-196.59 341.56,-187.83 331.44,-190.97 335.6,-196.59"/>
</g>
<!-- Node11&#45;&gt;Node10 -->
<g id="edge15" class="edge">
<title>Node11&#45;&gt;Node10</title>
<path fill="none" stroke="midnightblue" d="M342.57,-168.32C332.33,-160.18 316.78,-147.84 304.5,-138.09"/>
<polygon fill="midnightblue" stroke="midnightblue" points="306.63,-135.31 296.62,-131.83 302.28,-140.79 306.63,-135.31"/>
</g>
<!-- Node12 -->
<g id="node12" class="node">
<title>Node12</title>
<g id="a_node12"><a xlink:title=" ">
<polygon fill="white" stroke="#bfbfbf" points="335,-112.5 335,-131.5 388,-131.5 388,-112.5 335,-112.5"/>
<text text-anchor="middle" x="361.5" y="-119.5" font-family="FreeSans" font-size="10.00">stdint.h</text>
</a>
</g>
</g>
<!-- Node11&#45;&gt;Node12 -->
<g id="edge14" class="edge">
<title>Node11&#45;&gt;Node12</title>
<path fill="none" stroke="midnightblue" d="M354.82,-168.08C355.88,-160.93 357.41,-150.64 358.73,-141.69"/>
<polygon fill="midnightblue" stroke="midnightblue" points="362.2,-142.16 360.2,-131.75 355.28,-141.13 362.2,-142.16"/>
</g>
</g>
</svg>
