<?xml version="1.0" encoding="UTF-8" standalone="no"?>
<!DOCTYPE svg PUBLIC "-//W3C//DTD SVG 1.1//EN"
 "http://www.w3.org/Graphics/SVG/1.1/DTD/svg11.dtd">
<!-- Generated by graphviz version 2.43.0 (0)
 -->
<!-- Title: os_core.c Pages: 1 -->
<svg width="762pt" height="308pt"
 viewBox="0.00 0.00 761.50 308.00" xmlns="http://www.w3.org/2000/svg" xmlns:xlink="http://www.w3.org/1999/xlink">
<g id="graph0" class="graph" transform="scale(1 1) rotate(0) translate(4 304)">
<title>os_core.c</title>
<polygon fill="white" stroke="transparent" points="-4,4 -4,-304 757.5,-304 757.5,4 -4,4"/>
<!-- Node1 -->
<g id="node1" class="node">
<title>Node1</title>
<g id="a_node1"><a xlink:title=" ">
<polygon fill="#bfbfbf" stroke="black" points="325.5,-280.5 325.5,-299.5 387.5,-299.5 387.5,-280.5 325.5,-280.5"/>
<text text-anchor="middle" x="356.5" y="-287.5" font-family="FreeSans" font-size="10.00">os_core.c</text>
</a>
</g>
</g>
<!-- Node2 -->
<g id="node2" class="node">
<title>Node2</title>
<g id="a_node2"><a xlink:href="os__core_8h.html" target="_top" xlink:title="Core of the OS.">
<polygon fill="white" stroke="black" points="0,-168.5 0,-187.5 63,-187.5 63,-168.5 0,-168.5"/>
<text text-anchor="middle" x="31.5" y="-175.5" font-family="FreeSans" font-size="10.00">os_core.h</text>
</a>
</g>
</g>
<!-- Node1&#45;&gt;Node2 -->
<g id="edge1" class="edge">
<title>Node1&#45;&gt;Node2</title>
<path fill="none" stroke="midnightblue" d="M325.08,-286.33C263.54,-280.67 129.62,-266.16 89.5,-244 69.11,-232.74 52.26,-211.5 42.07,-196.36"/>
<polygon fill="midnightblue" stroke="midnightblue" points="44.96,-194.39 36.61,-187.87 39.08,-198.18 44.96,-194.39"/>
</g>
<!-- Node4 -->
<g id="node4" class="node">
<title>Node4</title>
<g id="a_node4"><a xlink:href="defines_8h.html" target="_top" xlink:title="Simple definitions and assembler&#45;macros, mostly 8/16&#45;Bit values.">
<polygon fill="white" stroke="black" points="398,-112.5 398,-131.5 459,-131.5 459,-112.5 398,-112.5"/>
<text text-anchor="middle" x="428.5" y="-119.5" font-family="FreeSans" font-size="10.00">defines.h</text>
</a>
</g>
</g>
<!-- Node1&#45;&gt;Node4 -->
<g id="edge3" class="edge">
<title>Node1&#45;&gt;Node4</title>
<path fill="none" stroke="midnightblue" d="M360.37,-280.08C371.75,-253.83 405.28,-176.55 420.64,-141.12"/>
<polygon fill="midnightblue" stroke="midnightblue" points="424.02,-142.14 424.78,-131.57 417.59,-139.35 424.02,-142.14"/>
</g>
<!-- Node7 -->
<g id="node7" class="node">
<title>Node7</title>
<g id="a_node7"><a xlink:href="util_8h.html" target="_top" xlink:title="Little helpers that don&#39;t fit elsewhere.">
<polygon fill="white" stroke="black" points="158,-168.5 158,-187.5 199,-187.5 199,-168.5 158,-168.5"/>
<text text-anchor="middle" x="178.5" y="-175.5" font-family="FreeSans" font-size="10.00">util.h</text>
</a>
</g>
</g>
<!-- Node1&#45;&gt;Node7 -->
<g id="edge6" class="edge">
<title>Node1&#45;&gt;Node7</title>
<path fill="none" stroke="midnightblue" d="M325.47,-281.81C300.02,-274.9 263.85,-262.73 236.5,-244 217.67,-231.1 200.88,-210.82 190.27,-196.34"/>
<polygon fill="midnightblue" stroke="midnightblue" points="192.87,-193.95 184.23,-187.8 187.15,-197.99 192.87,-193.95"/>
</g>
<!-- Node10 -->
<g id="node10" class="node">
<title>Node10</title>
<g id="a_node10"><a xlink:href="lcd_8h.html" target="_top" xlink:title="Library for LCD use.">
<polygon fill="white" stroke="black" points="245.5,-224.5 245.5,-243.5 285.5,-243.5 285.5,-224.5 245.5,-224.5"/>
<text text-anchor="middle" x="265.5" y="-231.5" font-family="FreeSans" font-size="10.00">lcd.h</text>
</a>
</g>
</g>
<!-- Node1&#45;&gt;Node10 -->
<g id="edge10" class="edge">
<title>Node1&#45;&gt;Node10</title>
<path fill="none" stroke="midnightblue" d="M341.88,-280.32C327.55,-271.82 305.49,-258.73 288.75,-248.8"/>
<polygon fill="midnightblue" stroke="midnightblue" points="290.47,-245.75 280.08,-243.65 286.9,-251.77 290.47,-245.75"/>
</g>
<!-- Node11 -->
<g id="node11" class="node">
<title>Node11</title>
<g id="a_node11"><a xlink:title=" ">
<polygon fill="white" stroke="#bfbfbf" points="331.5,-168.5 331.5,-187.5 381.5,-187.5 381.5,-168.5 331.5,-168.5"/>
<text text-anchor="middle" x="356.5" y="-175.5" font-family="FreeSans" font-size="10.00">stdio.h</text>
</a>
</g>
</g>
<!-- Node1&#45;&gt;Node11 -->
<g id="edge25" class="edge">
<title>Node1&#45;&gt;Node11</title>
<path fill="none" stroke="midnightblue" d="M356.5,-280.37C356.5,-262.62 356.5,-221.67 356.5,-197.6"/>
<polygon fill="midnightblue" stroke="midnightblue" points="360,-197.59 356.5,-187.59 353,-197.59 360,-197.59"/>
</g>
<!-- Node12 -->
<g id="node12" class="node">
<title>Node12</title>
<g id="a_node12"><a xlink:href="os__input_8h.html" target="_top" xlink:title="Input library for the OS.">
<polygon fill="white" stroke="black" points="99,-224.5 99,-243.5 166,-243.5 166,-224.5 99,-224.5"/>
<text text-anchor="middle" x="132.5" y="-231.5" font-family="FreeSans" font-size="10.00">os_input.h</text>
</a>
</g>
</g>
<!-- Node1&#45;&gt;Node12 -->
<g id="edge17" class="edge">
<title>Node1&#45;&gt;Node12</title>
<path fill="none" stroke="midnightblue" d="M325.35,-281.49C286.54,-272.14 220,-256.09 176.12,-245.52"/>
<polygon fill="midnightblue" stroke="midnightblue" points="176.85,-242.09 166.31,-243.15 175.21,-248.9 176.85,-242.09"/>
</g>
<!-- Node13 -->
<g id="node13" class="node">
<title>Node13</title>
<g id="a_node13"><a xlink:href="os__memheap__drivers_8h.html" target="_top" xlink:title="Drivers for OS heap management.">
<polygon fill="white" stroke="black" points="438,-224.5 438,-243.5 569,-243.5 569,-224.5 438,-224.5"/>
<text text-anchor="middle" x="503.5" y="-231.5" font-family="FreeSans" font-size="10.00">os_memheap_drivers.h</text>
</a>
</g>
</g>
<!-- Node1&#45;&gt;Node13 -->
<g id="edge19" class="edge">
<title>Node1&#45;&gt;Node13</title>
<path fill="none" stroke="midnightblue" d="M379.79,-280.44C404.31,-271.44 443.1,-257.19 470.7,-247.05"/>
<polygon fill="midnightblue" stroke="midnightblue" points="472.14,-250.25 480.32,-243.52 469.72,-243.68 472.14,-250.25"/>
</g>
<!-- Node17 -->
<g id="node17" class="node">
<title>Node17</title>
<g id="a_node17"><a xlink:title=" ">
<polygon fill="white" stroke="#bfbfbf" points="587.5,-224.5 587.5,-243.5 673.5,-243.5 673.5,-224.5 587.5,-224.5"/>
<text text-anchor="middle" x="630.5" y="-231.5" font-family="FreeSans" font-size="10.00">avr/interrupt.h</text>
</a>
</g>
</g>
<!-- Node1&#45;&gt;Node17 -->
<g id="edge26" class="edge">
<title>Node1&#45;&gt;Node17</title>
<path fill="none" stroke="midnightblue" d="M387.66,-282.86C433.75,-273.78 520.68,-256.64 577.06,-245.53"/>
<polygon fill="midnightblue" stroke="midnightblue" points="578.08,-248.9 587.22,-243.53 576.73,-242.03 578.08,-248.9"/>
</g>
<!-- Node18 -->
<g id="node18" class="node">
<title>Node18</title>
<g id="a_node18"><a xlink:title=" ">
<polygon fill="white" stroke="#bfbfbf" points="691.5,-224.5 691.5,-243.5 753.5,-243.5 753.5,-224.5 691.5,-224.5"/>
<text text-anchor="middle" x="722.5" y="-231.5" font-family="FreeSans" font-size="10.00">avr/wdt.h</text>
</a>
</g>
</g>
<!-- Node1&#45;&gt;Node18 -->
<g id="edge27" class="edge">
<title>Node1&#45;&gt;Node18</title>
<path fill="none" stroke="midnightblue" d="M387.65,-285.58C444.18,-279.2 567.59,-264.38 681.2,-244.11"/>
<polygon fill="midnightblue" stroke="midnightblue" points="681.89,-247.54 691.11,-242.33 680.65,-240.65 681.89,-247.54"/>
</g>
<!-- Node3 -->
<g id="node3" class="node">
<title>Node3</title>
<g id="a_node3"><a xlink:title=" ">
<polygon fill="white" stroke="#bfbfbf" points="42,-112.5 42,-131.5 137,-131.5 137,-112.5 42,-112.5"/>
<text text-anchor="middle" x="89.5" y="-119.5" font-family="FreeSans" font-size="10.00">avr/pgmspace.h</text>
</a>
</g>
</g>
<!-- Node2&#45;&gt;Node3 -->
<g id="edge2" class="edge">
<title>Node2&#45;&gt;Node3</title>
<path fill="none" stroke="midnightblue" d="M40.82,-168.32C49.39,-160.34 62.31,-148.31 72.69,-138.65"/>
<polygon fill="midnightblue" stroke="midnightblue" points="75.08,-141.21 80.01,-131.83 70.31,-136.09 75.08,-141.21"/>
</g>
<!-- Node5 -->
<g id="node5" class="node">
<title>Node5</title>
<g id="a_node5"><a xlink:href="atmega644constants_8h.html" target="_top" xlink:title="Constants for ATMega644 and EVA board. Defines several useful constants for the ATMega644.">
<polygon fill="white" stroke="black" points="364.5,-56.5 364.5,-75.5 492.5,-75.5 492.5,-56.5 364.5,-56.5"/>
<text text-anchor="middle" x="428.5" y="-63.5" font-family="FreeSans" font-size="10.00">atmega644constants.h</text>
</a>
</g>
</g>
<!-- Node4&#45;&gt;Node5 -->
<g id="edge4" class="edge">
<title>Node4&#45;&gt;Node5</title>
<path fill="none" stroke="midnightblue" d="M428.5,-112.08C428.5,-105.01 428.5,-94.86 428.5,-85.99"/>
<polygon fill="midnightblue" stroke="midnightblue" points="432,-85.75 428.5,-75.75 425,-85.75 432,-85.75"/>
</g>
<!-- Node6 -->
<g id="node6" class="node">
<title>Node6</title>
<g id="a_node6"><a xlink:title=" ">
<polygon fill="white" stroke="#bfbfbf" points="402,-0.5 402,-19.5 455,-19.5 455,-0.5 402,-0.5"/>
<text text-anchor="middle" x="428.5" y="-7.5" font-family="FreeSans" font-size="10.00">avr/io.h</text>
</a>
</g>
</g>
<!-- Node5&#45;&gt;Node6 -->
<g id="edge5" class="edge">
<title>Node5&#45;&gt;Node6</title>
<path fill="none" stroke="midnightblue" d="M428.5,-56.08C428.5,-49.01 428.5,-38.86 428.5,-29.99"/>
<polygon fill="midnightblue" stroke="midnightblue" points="432,-29.75 428.5,-19.75 425,-29.75 432,-29.75"/>
</g>
<!-- Node7&#45;&gt;Node3 -->
<g id="edge9" class="edge">
<title>Node7&#45;&gt;Node3</title>
<path fill="none" stroke="midnightblue" d="M164.2,-168.32C150.32,-159.9 129.01,-146.97 112.7,-137.07"/>
<polygon fill="midnightblue" stroke="midnightblue" points="114.13,-133.85 103.76,-131.65 110.5,-139.83 114.13,-133.85"/>
</g>
<!-- Node8 -->
<g id="node8" class="node">
<title>Node8</title>
<g id="a_node8"><a xlink:title=" ">
<polygon fill="white" stroke="#bfbfbf" points="155,-112.5 155,-131.5 208,-131.5 208,-112.5 155,-112.5"/>
<text text-anchor="middle" x="181.5" y="-119.5" font-family="FreeSans" font-size="10.00">stdint.h</text>
</a>
</g>
</g>
<!-- Node7&#45;&gt;Node8 -->
<g id="edge7" class="edge">
<title>Node7&#45;&gt;Node8</title>
<path fill="none" stroke="midnightblue" d="M179,-168.08C179.39,-161.01 179.95,-150.86 180.45,-141.99"/>
<polygon fill="midnightblue" stroke="midnightblue" points="183.95,-141.93 181.01,-131.75 176.96,-141.54 183.95,-141.93"/>
</g>
<!-- Node9 -->
<g id="node9" class="node">
<title>Node9</title>
<g id="a_node9"><a xlink:title=" ">
<polygon fill="white" stroke="#bfbfbf" points="229.5,-112.5 229.5,-131.5 291.5,-131.5 291.5,-112.5 229.5,-112.5"/>
<text text-anchor="middle" x="260.5" y="-119.5" font-family="FreeSans" font-size="10.00">stdbool.h</text>
</a>
</g>
</g>
<!-- Node7&#45;&gt;Node9 -->
<g id="edge8" class="edge">
<title>Node7&#45;&gt;Node9</title>
<path fill="none" stroke="midnightblue" d="M191.67,-168.32C204.35,-159.98 223.73,-147.21 238.71,-137.35"/>
<polygon fill="midnightblue" stroke="midnightblue" points="240.93,-140.08 247.36,-131.65 237.08,-134.23 240.93,-140.08"/>
</g>
<!-- Node10&#45;&gt;Node3 -->
<g id="edge14" class="edge">
<title>Node10&#45;&gt;Node3</title>
<path fill="none" stroke="midnightblue" d="M245.3,-228.17C221.05,-221.73 179.86,-208.67 149.5,-188 130.16,-174.83 112.58,-154.31 101.53,-139.86"/>
<polygon fill="midnightblue" stroke="midnightblue" points="104.29,-137.71 95.53,-131.76 98.67,-141.88 104.29,-137.71"/>
</g>
<!-- Node10&#45;&gt;Node4 -->
<g id="edge15" class="edge">
<title>Node10&#45;&gt;Node4</title>
<path fill="none" stroke="midnightblue" d="M271.18,-224.31C280.47,-210.68 300.12,-184.18 322.5,-168 342.64,-153.43 368.21,-142.4 389.2,-134.91"/>
<polygon fill="midnightblue" stroke="midnightblue" points="390.46,-138.18 398.78,-131.62 388.19,-131.56 390.46,-138.18"/>
</g>
<!-- Node10&#45;&gt;Node7 -->
<g id="edge16" class="edge">
<title>Node10&#45;&gt;Node7</title>
<path fill="none" stroke="midnightblue" d="M251.52,-224.32C237.95,-215.9 217.12,-202.97 201.18,-193.07"/>
<polygon fill="midnightblue" stroke="midnightblue" points="202.79,-189.95 192.44,-187.65 199.09,-195.9 202.79,-189.95"/>
</g>
<!-- Node10&#45;&gt;Node8 -->
<g id="edge12" class="edge">
<title>Node10&#45;&gt;Node8</title>
<path fill="none" stroke="midnightblue" d="M258.91,-224.37C244.98,-206.14 212.37,-163.43 194.23,-139.68"/>
<polygon fill="midnightblue" stroke="midnightblue" points="196.91,-137.41 188.06,-131.59 191.35,-141.66 196.91,-137.41"/>
</g>
<!-- Node10&#45;&gt;Node9 -->
<g id="edge11" class="edge">
<title>Node10&#45;&gt;Node9</title>
<path fill="none" stroke="midnightblue" d="M265.11,-224.37C264.3,-206.62 262.44,-165.67 261.35,-141.6"/>
<polygon fill="midnightblue" stroke="midnightblue" points="264.84,-141.42 260.89,-131.59 257.85,-141.74 264.84,-141.42"/>
</g>
<!-- Node10&#45;&gt;Node11 -->
<g id="edge13" class="edge">
<title>Node10&#45;&gt;Node11</title>
<path fill="none" stroke="midnightblue" d="M280.12,-224.32C294.45,-215.82 316.51,-202.73 333.25,-192.8"/>
<polygon fill="midnightblue" stroke="midnightblue" points="335.1,-195.77 341.92,-187.65 331.53,-189.75 335.1,-195.77"/>
</g>
<!-- Node12&#45;&gt;Node8 -->
<g id="edge18" class="edge">
<title>Node12&#45;&gt;Node8</title>
<path fill="none" stroke="midnightblue" d="M133.76,-224.24C135.82,-211.43 140.61,-187.02 149.5,-168 154.21,-157.92 161.22,-147.74 167.48,-139.61"/>
<polygon fill="midnightblue" stroke="midnightblue" points="170.3,-141.69 173.84,-131.7 164.85,-137.3 170.3,-141.69"/>
</g>
<!-- Node13&#45;&gt;Node4 -->
<g id="edge23" class="edge">
<title>Node13&#45;&gt;Node4</title>
<path fill="none" stroke="midnightblue" d="M495.96,-224.31C488.42,-215.44 476.64,-201.14 467.5,-188 456.72,-172.5 445.78,-153.96 438.24,-140.66"/>
<polygon fill="midnightblue" stroke="midnightblue" points="441.13,-138.66 433.2,-131.64 435.02,-142.08 441.13,-138.66"/>
</g>
<!-- Node14 -->
<g id="node14" class="node">
<title>Node14</title>
<g id="a_node14"><a xlink:href="os__mem__drivers_8h.html" target="_top" xlink:title="Drivers for OS memory management.">
<polygon fill="white" stroke="black" points="476,-168.5 476,-187.5 583,-187.5 583,-168.5 476,-168.5"/>
<text text-anchor="middle" x="529.5" y="-175.5" font-family="FreeSans" font-size="10.00">os_mem_drivers.h</text>
</a>
</g>
</g>
<!-- Node13&#45;&gt;Node14 -->
<g id="edge20" class="edge">
<title>Node13&#45;&gt;Node14</title>
<path fill="none" stroke="midnightblue" d="M507.79,-224.08C511.35,-216.69 516.52,-205.95 520.92,-196.81"/>
<polygon fill="midnightblue" stroke="midnightblue" points="524.1,-198.28 525.29,-187.75 517.79,-195.24 524.1,-198.28"/>
</g>
<!-- Node16 -->
<g id="node16" class="node">
<title>Node16</title>
<g id="a_node16"><a xlink:title=" ">
<polygon fill="white" stroke="#bfbfbf" points="601.5,-168.5 601.5,-187.5 657.5,-187.5 657.5,-168.5 601.5,-168.5"/>
<text text-anchor="middle" x="629.5" y="-175.5" font-family="FreeSans" font-size="10.00">stddef.h</text>
</a>
</g>
</g>
<!-- Node13&#45;&gt;Node16 -->
<g id="edge24" class="edge">
<title>Node13&#45;&gt;Node16</title>
<path fill="none" stroke="midnightblue" d="M523.47,-224.44C544.11,-215.6 576.56,-201.69 600.13,-191.59"/>
<polygon fill="midnightblue" stroke="midnightblue" points="601.82,-194.67 609.63,-187.52 599.06,-188.24 601.82,-194.67"/>
</g>
<!-- Node14&#45;&gt;Node4 -->
<g id="edge22" class="edge">
<title>Node14&#45;&gt;Node4</title>
<path fill="none" stroke="midnightblue" d="M513.27,-168.32C497.15,-159.7 472.2,-146.36 453.54,-136.39"/>
<polygon fill="midnightblue" stroke="midnightblue" points="455.16,-133.28 444.69,-131.65 451.86,-139.46 455.16,-133.28"/>
</g>
<!-- Node15 -->
<g id="node15" class="node">
<title>Node15</title>
<g id="a_node15"><a xlink:title=" ">
<polygon fill="white" stroke="#bfbfbf" points="497,-112.5 497,-131.5 562,-131.5 562,-112.5 497,-112.5"/>
<text text-anchor="middle" x="529.5" y="-119.5" font-family="FreeSans" font-size="10.00">inttypes.h</text>
</a>
</g>
</g>
<!-- Node14&#45;&gt;Node15 -->
<g id="edge21" class="edge">
<title>Node14&#45;&gt;Node15</title>
<path fill="none" stroke="midnightblue" d="M529.5,-168.08C529.5,-161.01 529.5,-150.86 529.5,-141.99"/>
<polygon fill="midnightblue" stroke="midnightblue" points="533,-141.75 529.5,-131.75 526,-141.75 533,-141.75"/>
</g>
</g>
</svg>
