<?xml version="1.0" encoding="UTF-8" standalone="no"?>
<!DOCTYPE svg PUBLIC "-//W3C//DTD SVG 1.1//EN"
 "http://www.w3.org/Graphics/SVG/1.1/DTD/svg11.dtd">
<!-- Generated by graphviz version 2.43.0 (0)
 -->
<!-- Title: os_mem_drivers.c Pages: 1 -->
<svg width="642pt" height="252pt"
 viewBox="0.00 0.00 641.57 252.00" xmlns="http://www.w3.org/2000/svg" xmlns:xlink="http://www.w3.org/1999/xlink">
<g id="graph0" class="graph" transform="scale(1 1) rotate(0) translate(4 248)">
<title>os_mem_drivers.c</title>
<polygon fill="white" stroke="transparent" points="-4,4 -4,-248 637.57,-248 637.57,4 -4,4"/>
<!-- Node1 -->
<g id="node1" class="node">
<title>Node1</title>
<g id="a_node1"><a xlink:title=" ">
<polygon fill="#bfbfbf" stroke="black" points="187.57,-224.5 187.57,-243.5 293.57,-243.5 293.57,-224.5 187.57,-224.5"/>
<text text-anchor="middle" x="240.57" y="-231.5" font-family="FreeSans" font-size="10.00">os_mem_drivers.c</text>
</a>
</g>
</g>
<!-- Node2 -->
<g id="node2" class="node">
<title>Node2</title>
<g id="a_node2"><a xlink:href="os__mem__drivers_8h.html" target="_top" xlink:title="Drivers for OS memory management.">
<polygon fill="white" stroke="black" points="32.07,-168.5 32.07,-187.5 139.07,-187.5 139.07,-168.5 32.07,-168.5"/>
<text text-anchor="middle" x="85.57" y="-175.5" font-family="FreeSans" font-size="10.00">os_mem_drivers.h</text>
</a>
</g>
</g>
<!-- Node1&#45;&gt;Node2 -->
<g id="edge1" class="edge">
<title>Node1&#45;&gt;Node2</title>
<path fill="none" stroke="midnightblue" d="M216.01,-224.44C190.05,-215.4 148.9,-201.06 119.77,-190.92"/>
<polygon fill="midnightblue" stroke="midnightblue" points="120.61,-187.5 110.01,-187.52 118.31,-194.11 120.61,-187.5"/>
</g>
<!-- Node4 -->
<g id="node4" class="node">
<title>Node4</title>
<g id="a_node4"><a xlink:href="defines_8h.html" target="_top" xlink:title="Simple definitions and assembler&#45;macros, mostly 8/16&#45;Bit values.">
<polygon fill="white" stroke="black" points="100.07,-112.5 100.07,-131.5 161.07,-131.5 161.07,-112.5 100.07,-112.5"/>
<text text-anchor="middle" x="130.57" y="-119.5" font-family="FreeSans" font-size="10.00">defines.h</text>
</a>
</g>
</g>
<!-- Node1&#45;&gt;Node4 -->
<g id="edge6" class="edge">
<title>Node1&#45;&gt;Node4</title>
<path fill="none" stroke="midnightblue" d="M228.93,-224.21C217.66,-215.49 200.32,-201.52 186.57,-188 170.89,-172.58 154.67,-153.32 143.75,-139.78"/>
<polygon fill="midnightblue" stroke="midnightblue" points="146.36,-137.45 137.39,-131.81 140.89,-141.81 146.36,-137.45"/>
</g>
<!-- Node6 -->
<g id="node6" class="node">
<title>Node6</title>
<g id="a_node6"><a xlink:title=" ">
<polygon fill="white" stroke="#bfbfbf" points="104.07,-0.5 104.07,-19.5 157.07,-19.5 157.07,-0.5 104.07,-0.5"/>
<text text-anchor="middle" x="130.57" y="-7.5" font-family="FreeSans" font-size="10.00">avr/io.h</text>
</a>
</g>
</g>
<!-- Node1&#45;&gt;Node6 -->
<g id="edge23" class="edge">
<title>Node1&#45;&gt;Node6</title>
<path fill="none" stroke="midnightblue" d="M187.33,-228.39C130.64,-222.4 45.9,-210.01 22.57,-188 -2.47,-164.37 -4.7,-144.17 7.57,-112 23.81,-69.42 70.18,-39.78 101.12,-24.08"/>
<polygon fill="midnightblue" stroke="midnightblue" points="102.72,-27.2 110.17,-19.66 99.65,-20.91 102.72,-27.2"/>
</g>
<!-- Node7 -->
<g id="node7" class="node">
<title>Node7</title>
<g id="a_node7"><a xlink:href="os__scheduler_8h.html" target="_top" xlink:title="Scheduling module for the OS.">
<polygon fill="white" stroke="black" points="196.07,-168.5 196.07,-187.5 285.07,-187.5 285.07,-168.5 196.07,-168.5"/>
<text text-anchor="middle" x="240.57" y="-175.5" font-family="FreeSans" font-size="10.00">os_scheduler.h</text>
</a>
</g>
</g>
<!-- Node1&#45;&gt;Node7 -->
<g id="edge7" class="edge">
<title>Node1&#45;&gt;Node7</title>
<path fill="none" stroke="midnightblue" d="M240.57,-224.08C240.57,-217.01 240.57,-206.86 240.57,-197.99"/>
<polygon fill="midnightblue" stroke="midnightblue" points="244.07,-197.75 240.57,-187.75 237.07,-197.75 244.07,-197.75"/>
</g>
<!-- Node11 -->
<g id="node11" class="node">
<title>Node11</title>
<g id="a_node11"><a xlink:href="os__spi_8h.html" target="_top" xlink:title="Driver for AVRs SPI module.">
<polygon fill="white" stroke="black" points="364.57,-168.5 364.57,-187.5 420.57,-187.5 420.57,-168.5 364.57,-168.5"/>
<text text-anchor="middle" x="392.57" y="-175.5" font-family="FreeSans" font-size="10.00">os_spi.h</text>
</a>
</g>
</g>
<!-- Node1&#45;&gt;Node11 -->
<g id="edge13" class="edge">
<title>Node1&#45;&gt;Node11</title>
<path fill="none" stroke="midnightblue" d="M264.65,-224.44C290.11,-215.4 330.46,-201.06 359.03,-190.92"/>
<polygon fill="midnightblue" stroke="midnightblue" points="360.35,-194.16 368.6,-187.52 358,-187.57 360.35,-194.16"/>
</g>
<!-- Node12 -->
<g id="node12" class="node">
<title>Node12</title>
<g id="a_node12"><a xlink:title=" ">
<polygon fill="white" stroke="#bfbfbf" points="547.57,-112.5 547.57,-131.5 633.57,-131.5 633.57,-112.5 547.57,-112.5"/>
<text text-anchor="middle" x="590.57" y="-119.5" font-family="FreeSans" font-size="10.00">avr/interrupt.h</text>
</a>
</g>
</g>
<!-- Node1&#45;&gt;Node12 -->
<g id="edge24" class="edge">
<title>Node1&#45;&gt;Node12</title>
<path fill="none" stroke="midnightblue" d="M284.62,-224.47C323.25,-216.52 380.72,-203.58 429.57,-188 477.25,-172.79 530.81,-149.97 562.56,-135.81"/>
<polygon fill="midnightblue" stroke="midnightblue" points="564.38,-138.83 572.07,-131.53 561.51,-132.44 564.38,-138.83"/>
</g>
<!-- Node14 -->
<g id="node14" class="node">
<title>Node14</title>
<g id="a_node14"><a xlink:href="util_8h.html" target="_top" xlink:title="Little helpers that don&#39;t fit elsewhere.">
<polygon fill="white" stroke="black" points="316.07,-112.5 316.07,-131.5 357.07,-131.5 357.07,-112.5 316.07,-112.5"/>
<text text-anchor="middle" x="336.57" y="-119.5" font-family="FreeSans" font-size="10.00">util.h</text>
</a>
</g>
</g>
<!-- Node1&#45;&gt;Node14 -->
<g id="edge22" class="edge">
<title>Node1&#45;&gt;Node14</title>
<path fill="none" stroke="midnightblue" d="M252.79,-224.21C264.13,-215.72 281.07,-202.09 293.57,-188 306.72,-173.18 318.9,-154.04 326.91,-140.38"/>
<polygon fill="midnightblue" stroke="midnightblue" points="330.04,-141.95 331.96,-131.54 323.96,-138.48 330.04,-141.95"/>
</g>
<!-- Node3 -->
<g id="node3" class="node">
<title>Node3</title>
<g id="a_node3"><a xlink:title=" ">
<polygon fill="white" stroke="#bfbfbf" points="17.07,-112.5 17.07,-131.5 82.07,-131.5 82.07,-112.5 17.07,-112.5"/>
<text text-anchor="middle" x="49.57" y="-119.5" font-family="FreeSans" font-size="10.00">inttypes.h</text>
</a>
</g>
</g>
<!-- Node2&#45;&gt;Node3 -->
<g id="edge2" class="edge">
<title>Node2&#45;&gt;Node3</title>
<path fill="none" stroke="midnightblue" d="M79.62,-168.08C74.59,-160.53 67.23,-149.49 61.06,-140.23"/>
<polygon fill="midnightblue" stroke="midnightblue" points="63.86,-138.13 55.4,-131.75 58.04,-142.01 63.86,-138.13"/>
</g>
<!-- Node2&#45;&gt;Node4 -->
<g id="edge3" class="edge">
<title>Node2&#45;&gt;Node4</title>
<path fill="none" stroke="midnightblue" d="M93,-168.08C99.42,-160.38 108.88,-149.03 116.69,-139.65"/>
<polygon fill="midnightblue" stroke="midnightblue" points="119.56,-141.67 123.28,-131.75 114.19,-137.19 119.56,-141.67"/>
</g>
<!-- Node5 -->
<g id="node5" class="node">
<title>Node5</title>
<g id="a_node5"><a xlink:href="atmega644constants_8h.html" target="_top" xlink:title="Constants for ATMega644 and EVA board. Defines several useful constants for the ATMega644.">
<polygon fill="white" stroke="black" points="66.57,-56.5 66.57,-75.5 194.57,-75.5 194.57,-56.5 66.57,-56.5"/>
<text text-anchor="middle" x="130.57" y="-63.5" font-family="FreeSans" font-size="10.00">atmega644constants.h</text>
</a>
</g>
</g>
<!-- Node4&#45;&gt;Node5 -->
<g id="edge4" class="edge">
<title>Node4&#45;&gt;Node5</title>
<path fill="none" stroke="midnightblue" d="M130.57,-112.08C130.57,-105.01 130.57,-94.86 130.57,-85.99"/>
<polygon fill="midnightblue" stroke="midnightblue" points="134.07,-85.75 130.57,-75.75 127.07,-85.75 134.07,-85.75"/>
</g>
<!-- Node5&#45;&gt;Node6 -->
<g id="edge5" class="edge">
<title>Node5&#45;&gt;Node6</title>
<path fill="none" stroke="midnightblue" d="M130.57,-56.08C130.57,-49.01 130.57,-38.86 130.57,-29.99"/>
<polygon fill="midnightblue" stroke="midnightblue" points="134.07,-29.75 130.57,-19.75 127.07,-29.75 134.07,-29.75"/>
</g>
<!-- Node7&#45;&gt;Node4 -->
<g id="edge9" class="edge">
<title>Node7&#45;&gt;Node4</title>
<path fill="none" stroke="midnightblue" d="M222.9,-168.32C205.18,-159.62 177.67,-146.12 157.28,-136.11"/>
<polygon fill="midnightblue" stroke="midnightblue" points="158.72,-132.92 148.2,-131.65 155.63,-139.2 158.72,-132.92"/>
</g>
<!-- Node8 -->
<g id="node8" class="node">
<title>Node8</title>
<g id="a_node8"><a xlink:title=" ">
<polygon fill="white" stroke="#bfbfbf" points="226.57,-56.5 226.57,-75.5 288.57,-75.5 288.57,-56.5 226.57,-56.5"/>
<text text-anchor="middle" x="257.57" y="-63.5" font-family="FreeSans" font-size="10.00">stdbool.h</text>
</a>
</g>
</g>
<!-- Node7&#45;&gt;Node8 -->
<g id="edge8" class="edge">
<title>Node7&#45;&gt;Node8</title>
<path fill="none" stroke="midnightblue" d="M230.96,-168.28C218.55,-155.92 199.56,-132.5 208.57,-112 213.96,-99.73 224.53,-89.34 234.47,-81.65"/>
<polygon fill="midnightblue" stroke="midnightblue" points="236.82,-84.27 242.91,-75.6 232.74,-78.58 236.82,-84.27"/>
</g>
<!-- Node9 -->
<g id="node9" class="node">
<title>Node9</title>
<g id="a_node9"><a xlink:href="os__process_8h.html" target="_top" xlink:title="Struct specifying a process.">
<polygon fill="white" stroke="black" points="217.57,-112.5 217.57,-131.5 297.57,-131.5 297.57,-112.5 217.57,-112.5"/>
<text text-anchor="middle" x="257.57" y="-119.5" font-family="FreeSans" font-size="10.00">os_process.h</text>
</a>
</g>
</g>
<!-- Node7&#45;&gt;Node9 -->
<g id="edge10" class="edge">
<title>Node7&#45;&gt;Node9</title>
<path fill="none" stroke="midnightblue" d="M243.38,-168.08C245.65,-160.85 248.94,-150.41 251.78,-141.4"/>
<polygon fill="midnightblue" stroke="midnightblue" points="255.15,-142.34 254.81,-131.75 248.47,-140.24 255.15,-142.34"/>
</g>
<!-- Node9&#45;&gt;Node8 -->
<g id="edge12" class="edge">
<title>Node9&#45;&gt;Node8</title>
<path fill="none" stroke="midnightblue" d="M257.57,-112.08C257.57,-105.01 257.57,-94.86 257.57,-85.99"/>
<polygon fill="midnightblue" stroke="midnightblue" points="261.07,-85.75 257.57,-75.75 254.07,-85.75 261.07,-85.75"/>
</g>
<!-- Node10 -->
<g id="node10" class="node">
<title>Node10</title>
<g id="a_node10"><a xlink:title=" ">
<polygon fill="white" stroke="#bfbfbf" points="309.07,-56.5 309.07,-75.5 362.07,-75.5 362.07,-56.5 309.07,-56.5"/>
<text text-anchor="middle" x="335.57" y="-63.5" font-family="FreeSans" font-size="10.00">stdint.h</text>
</a>
</g>
</g>
<!-- Node9&#45;&gt;Node10 -->
<g id="edge11" class="edge">
<title>Node9&#45;&gt;Node10</title>
<path fill="none" stroke="midnightblue" d="M270.1,-112.32C282.16,-103.98 300.6,-91.21 314.84,-81.35"/>
<polygon fill="midnightblue" stroke="midnightblue" points="316.84,-84.22 323.07,-75.65 312.85,-78.47 316.84,-84.22"/>
</g>
<!-- Node11&#45;&gt;Node6 -->
<g id="edge15" class="edge">
<title>Node11&#45;&gt;Node6</title>
<path fill="none" stroke="midnightblue" d="M420.81,-169.11C449.61,-160.43 491.33,-145.86 500.57,-132 513.71,-112.29 499.05,-68.43 484.57,-56 437.62,-15.69 248.36,-10.89 167.5,-10.72"/>
<polygon fill="midnightblue" stroke="midnightblue" points="167.28,-7.22 157.28,-10.73 167.28,-14.22 167.28,-7.22"/>
</g>
<!-- Node11&#45;&gt;Node10 -->
<g id="edge14" class="edge">
<title>Node11&#45;&gt;Node10</title>
<path fill="none" stroke="midnightblue" d="M389.58,-168.34C385.07,-155.65 375.94,-131.4 365.57,-112 360.42,-102.37 353.77,-92.21 348.03,-83.98"/>
<polygon fill="midnightblue" stroke="midnightblue" points="350.74,-81.75 342.07,-75.65 345.04,-85.82 350.74,-81.75"/>
</g>
<!-- Node11&#45;&gt;Node12 -->
<g id="edge16" class="edge">
<title>Node11&#45;&gt;Node12</title>
<path fill="none" stroke="midnightblue" d="M420.94,-169.26C454.61,-160.08 511.02,-144.7 549.47,-134.21"/>
<polygon fill="midnightblue" stroke="midnightblue" points="550.59,-137.53 559.31,-131.52 548.74,-130.78 550.59,-137.53"/>
</g>
<!-- Node13 -->
<g id="node13" class="node">
<title>Node13</title>
<g id="a_node13"><a xlink:title=" ">
<polygon fill="white" stroke="#bfbfbf" points="413.57,-112.5 413.57,-131.5 491.57,-131.5 491.57,-112.5 413.57,-112.5"/>
<text text-anchor="middle" x="452.57" y="-119.5" font-family="FreeSans" font-size="10.00">util/atomic.h</text>
</a>
</g>
</g>
<!-- Node11&#45;&gt;Node13 -->
<g id="edge17" class="edge">
<title>Node11&#45;&gt;Node13</title>
<path fill="none" stroke="midnightblue" d="M402.21,-168.32C411.08,-160.34 424.44,-148.31 435.18,-138.65"/>
<polygon fill="midnightblue" stroke="midnightblue" points="437.66,-141.13 442.75,-131.83 432.98,-135.92 437.66,-141.13"/>
</g>
<!-- Node11&#45;&gt;Node14 -->
<g id="edge18" class="edge">
<title>Node11&#45;&gt;Node14</title>
<path fill="none" stroke="midnightblue" d="M383.57,-168.32C375.38,-160.42 363.06,-148.55 353.1,-138.94"/>
<polygon fill="midnightblue" stroke="midnightblue" points="355.36,-136.26 345.73,-131.83 350.5,-141.29 355.36,-136.26"/>
</g>
<!-- Node14&#45;&gt;Node8 -->
<g id="edge20" class="edge">
<title>Node14&#45;&gt;Node8</title>
<path fill="none" stroke="midnightblue" d="M323.88,-112.32C311.67,-103.98 292.99,-91.21 278.57,-81.35"/>
<polygon fill="midnightblue" stroke="midnightblue" points="280.46,-78.41 270.23,-75.65 276.51,-84.19 280.46,-78.41"/>
</g>
<!-- Node14&#45;&gt;Node10 -->
<g id="edge19" class="edge">
<title>Node14&#45;&gt;Node10</title>
<path fill="none" stroke="midnightblue" d="M336.4,-112.08C336.27,-105.01 336.09,-94.86 335.92,-85.99"/>
<polygon fill="midnightblue" stroke="midnightblue" points="339.42,-85.68 335.73,-75.75 332.42,-85.81 339.42,-85.68"/>
</g>
<!-- Node15 -->
<g id="node15" class="node">
<title>Node15</title>
<g id="a_node15"><a xlink:title=" ">
<polygon fill="white" stroke="#bfbfbf" points="380.07,-56.5 380.07,-75.5 475.07,-75.5 475.07,-56.5 380.07,-56.5"/>
<text text-anchor="middle" x="427.57" y="-63.5" font-family="FreeSans" font-size="10.00">avr/pgmspace.h</text>
</a>
</g>
</g>
<!-- Node14&#45;&gt;Node15 -->
<g id="edge21" class="edge">
<title>Node14&#45;&gt;Node15</title>
<path fill="none" stroke="midnightblue" d="M351.19,-112.32C365.52,-103.82 387.58,-90.73 404.32,-80.8"/>
<polygon fill="midnightblue" stroke="midnightblue" points="406.17,-83.77 412.99,-75.65 402.6,-77.75 406.17,-83.77"/>
</g>
</g>
</svg>
