<?xml version="1.0" encoding="UTF-8" standalone="no"?>
<!DOCTYPE svg PUBLIC "-//W3C//DTD SVG 1.1//EN"
 "http://www.w3.org/Graphics/SVG/1.1/DTD/svg11.dtd">
<!-- Generated by graphviz version 2.43.0 (0)
 -->
<!-- Title: assertPstr Pages: 1 -->
<svg width="607pt" height="142pt"
 viewBox="0.00 0.00 607.00 142.00" xmlns="http://www.w3.org/2000/svg" xmlns:xlink="http://www.w3.org/1999/xlink">
<g id="graph0" class="graph" transform="scale(1 1) rotate(0) translate(4 138)">
<title>assertPstr</title>
<polygon fill="white" stroke="transparent" points="-4,4 -4,-138 603,-138 603,4 -4,4"/>
<!-- Node1 -->
<g id="node1" class="node">
<title>Node1</title>
<g id="a_node1"><a xlink:title="Simple assertion function that calls os_error if given expression is not true.">
<polygon fill="#bfbfbf" stroke="black" points="0,-57.5 0,-76.5 65,-76.5 65,-57.5 0,-57.5"/>
<text text-anchor="middle" x="32.5" y="-64.5" font-family="FreeSans" font-size="10.00">assertPstr</text>
</a>
</g>
</g>
<!-- Node2 -->
<g id="node2" class="node">
<title>Node2</title>
<g id="a_node2"><a xlink:href="os__core_8c.html#a1ed51c8da9054e49d1f14175945cc563" target="_top" xlink:title="Shows error on display and terminates program.">
<polygon fill="white" stroke="black" points="101,-57.5 101,-76.5 177,-76.5 177,-57.5 101,-57.5"/>
<text text-anchor="middle" x="139" y="-64.5" font-family="FreeSans" font-size="10.00">os_errorPStr</text>
</a>
</g>
</g>
<!-- Node1&#45;&gt;Node2 -->
<g id="edge1" class="edge">
<title>Node1&#45;&gt;Node2</title>
<path fill="none" stroke="midnightblue" d="M65.14,-67C73.25,-67 82.16,-67 90.88,-67"/>
<polygon fill="midnightblue" stroke="midnightblue" points="90.96,-70.5 100.96,-67 90.96,-63.5 90.96,-70.5"/>
</g>
<!-- Node3 -->
<g id="node3" class="node">
<title>Node3</title>
<g id="a_node3"><a xlink:href="lcd_8c.html#ad235a86241458b1e7b8771688bfdaf9a" target="_top" xlink:title="Clear all data from display.">
<polygon fill="white" stroke="black" points="250,-114.5 250,-133.5 310,-133.5 310,-114.5 250,-114.5"/>
<text text-anchor="middle" x="280" y="-121.5" font-family="FreeSans" font-size="10.00">lcd_clear</text>
</a>
</g>
</g>
<!-- Node2&#45;&gt;Node3 -->
<g id="edge2" class="edge">
<title>Node2&#45;&gt;Node3</title>
<path fill="none" stroke="midnightblue" d="M156.08,-76.57C170.59,-84.9 192.7,-96.89 213,-105 221.61,-108.44 231.07,-111.54 240.08,-114.2"/>
<polygon fill="midnightblue" stroke="midnightblue" points="239.42,-117.64 249.99,-116.99 241.32,-110.91 239.42,-117.64"/>
</g>
<!-- Node6 -->
<g id="node6" class="node">
<title>Node6</title>
<g id="a_node6"><a xlink:href="lcd_8c.html#a5acdac414852308dc8428424ed098769" target="_top" xlink:title="Write char PROGMEM* string as an error.">
<polygon fill="white" stroke="black" points="213,-76.5 213,-95.5 347,-95.5 347,-76.5 213,-76.5"/>
<text text-anchor="middle" x="280" y="-83.5" font-family="FreeSans" font-size="10.00">lcd_writeErrorProgString</text>
</a>
</g>
</g>
<!-- Node2&#45;&gt;Node6 -->
<g id="edge5" class="edge">
<title>Node2&#45;&gt;Node6</title>
<path fill="none" stroke="midnightblue" d="M177.25,-72.09C185.25,-73.19 193.99,-74.38 202.88,-75.59"/>
<polygon fill="midnightblue" stroke="midnightblue" points="202.55,-79.08 212.94,-76.97 203.5,-72.15 202.55,-79.08"/>
</g>
<!-- Node7 -->
<g id="node7" class="node">
<title>Node7</title>
<g id="a_node7"><a xlink:href="os__input_8c.html#a137e8a89b9524ec791fffccedb04fef0" target="_top" xlink:title="Refreshes the button states.">
<polygon fill="white" stroke="black" points="388.5,-19.5 388.5,-38.5 462.5,-38.5 462.5,-19.5 388.5,-19.5"/>
<text text-anchor="middle" x="425.5" y="-26.5" font-family="FreeSans" font-size="10.00">os_getInput</text>
</a>
</g>
</g>
<!-- Node2&#45;&gt;Node7 -->
<g id="edge6" class="edge">
<title>Node2&#45;&gt;Node7</title>
<path fill="none" stroke="midnightblue" d="M177.19,-62.03C228.81,-55.14 322.11,-42.68 378.18,-35.19"/>
<polygon fill="midnightblue" stroke="midnightblue" points="378.75,-38.64 388.2,-33.85 377.82,-31.7 378.75,-38.64"/>
</g>
<!-- Node8 -->
<g id="node8" class="node">
<title>Node8</title>
<g id="a_node8"><a xlink:href="os__input_8c.html#ad2eb8a84abf9fcfe88654e1118b351f5" target="_top" xlink:title="Waits for all buttons to be released.">
<polygon fill="white" stroke="black" points="226.5,-0.5 226.5,-19.5 333.5,-19.5 333.5,-0.5 226.5,-0.5"/>
<text text-anchor="middle" x="280" y="-7.5" font-family="FreeSans" font-size="10.00">os_waitForNoInput</text>
</a>
</g>
</g>
<!-- Node2&#45;&gt;Node8 -->
<g id="edge7" class="edge">
<title>Node2&#45;&gt;Node8</title>
<path fill="none" stroke="midnightblue" d="M159.96,-57.48C174.54,-50.66 194.84,-41.4 213,-34 222.22,-30.25 232.27,-26.45 241.69,-23.01"/>
<polygon fill="midnightblue" stroke="midnightblue" points="242.98,-26.26 251.21,-19.58 240.61,-19.68 242.98,-26.26"/>
</g>
<!-- Node4 -->
<g id="node4" class="node">
<title>Node4</title>
<g id="a_node4"><a xlink:href="lcd_8c.html#acb116d89c358367b8fd1164120d320e3" target="_top" xlink:title="Send command to LCD.">
<polygon fill="white" stroke="black" points="383,-114.5 383,-133.5 468,-133.5 468,-114.5 383,-114.5"/>
<text text-anchor="middle" x="425.5" y="-121.5" font-family="FreeSans" font-size="10.00">lcd_command</text>
</a>
</g>
</g>
<!-- Node3&#45;&gt;Node4 -->
<g id="edge3" class="edge">
<title>Node3&#45;&gt;Node4</title>
<path fill="none" stroke="midnightblue" d="M310.04,-124C328.06,-124 351.72,-124 372.86,-124"/>
<polygon fill="midnightblue" stroke="midnightblue" points="372.99,-127.5 382.99,-124 372.99,-120.5 372.99,-127.5"/>
</g>
<!-- Node5 -->
<g id="node5" class="node">
<title>Node5</title>
<g id="a_node5"><a xlink:href="lcd_8c.html#a26a89cb41bb1496462fda420cbe79a07" target="_top" xlink:title=" ">
<polygon fill="white" stroke="black" points="504,-114.5 504,-133.5 599,-133.5 599,-114.5 504,-114.5"/>
<text text-anchor="middle" x="551.5" y="-121.5" font-family="FreeSans" font-size="10.00">lcd_sendStream</text>
</a>
</g>
</g>
<!-- Node4&#45;&gt;Node5 -->
<g id="edge4" class="edge">
<title>Node4&#45;&gt;Node5</title>
<path fill="none" stroke="midnightblue" d="M468.14,-124C476.24,-124 484.86,-124 493.37,-124"/>
<polygon fill="midnightblue" stroke="midnightblue" points="493.63,-127.5 503.63,-124 493.63,-120.5 493.63,-127.5"/>
</g>
<!-- Node8&#45;&gt;Node7 -->
<g id="edge8" class="edge">
<title>Node8&#45;&gt;Node7</title>
<path fill="none" stroke="midnightblue" d="M333.62,-16.97C348.29,-18.91 364.12,-21.01 378.39,-22.9"/>
<polygon fill="midnightblue" stroke="midnightblue" points="378.1,-26.39 388.47,-24.23 379.01,-19.45 378.1,-26.39"/>
</g>
</g>
</svg>
