<?xml version="1.0" encoding="UTF-8" standalone="no"?>
<!DOCTYPE svg PUBLIC "-//W3C//DTD SVG 1.1//EN"
 "http://www.w3.org/Graphics/SVG/1.1/DTD/svg11.dtd">
<!-- Generated by graphviz version 2.43.0 (0)
 -->
<!-- Title: atmega644constants.h Pages: 1 -->
<svg width="1078pt" height="364pt"
 viewBox="0.00 0.00 1078.07 364.00" xmlns="http://www.w3.org/2000/svg" xmlns:xlink="http://www.w3.org/1999/xlink">
<g id="graph0" class="graph" transform="scale(1 1) rotate(0) translate(4 360)">
<title>atmega644constants.h</title>
<polygon fill="white" stroke="transparent" points="-4,4 -4,-360 1074.07,-360 1074.07,4 -4,4"/>
<!-- Node1 -->
<g id="node1" class="node">
<title>Node1</title>
<g id="a_node1"><a xlink:title="Constants for ATMega644 and EVA board. Defines several useful constants for the ATMega644.">
<polygon fill="#bfbfbf" stroke="black" points="697.07,-336.5 697.07,-355.5 825.07,-355.5 825.07,-336.5 697.07,-336.5"/>
<text text-anchor="middle" x="761.07" y="-343.5" font-family="FreeSans" font-size="10.00">atmega644constants.h</text>
</a>
</g>
</g>
<!-- Node2 -->
<g id="node2" class="node">
<title>Node2</title>
<g id="a_node2"><a xlink:href="defines_8h.html" target="_top" xlink:title="Simple definitions and assembler&#45;macros, mostly 8/16&#45;Bit values.">
<polygon fill="white" stroke="black" points="483.57,-280.5 483.57,-299.5 544.57,-299.5 544.57,-280.5 483.57,-280.5"/>
<text text-anchor="middle" x="514.07" y="-287.5" font-family="FreeSans" font-size="10.00">defines.h</text>
</a>
</g>
</g>
<!-- Node1&#45;&gt;Node2 -->
<g id="edge1" class="edge">
<title>Node1&#45;&gt;Node2</title>
<path fill="none" stroke="midnightblue" d="M712.03,-334.28C662.26,-323.4 586.74,-306.89 544.83,-297.73"/>
<polygon fill="midnightblue" stroke="midnightblue" points="711.41,-337.73 721.93,-336.44 712.91,-330.89 711.41,-337.73"/>
</g>
<!-- Node8 -->
<g id="node8" class="node">
<title>Node8</title>
<g id="a_node8"><a xlink:href="util_8c.html" target="_top" xlink:title=" ">
<polygon fill="white" stroke="black" points="960.57,-168.5 960.57,-187.5 1001.57,-187.5 1001.57,-168.5 960.57,-168.5"/>
<text text-anchor="middle" x="981.07" y="-175.5" font-family="FreeSans" font-size="10.00">util.c</text>
</a>
</g>
</g>
<!-- Node1&#45;&gt;Node8 -->
<g id="edge43" class="edge">
<title>Node1&#45;&gt;Node8</title>
<path fill="none" stroke="midnightblue" d="M812.08,-333.86C859.86,-320.7 929.53,-293.95 968.07,-244 981,-227.23 982.06,-200.99 981.63,-187.55"/>
<polygon fill="midnightblue" stroke="midnightblue" points="811.01,-330.53 802.24,-336.47 812.8,-337.3 811.01,-330.53"/>
</g>
<!-- Node3 -->
<g id="node3" class="node">
<title>Node3</title>
<g id="a_node3"><a xlink:href="lcd_8h.html" target="_top" xlink:title="Library for LCD use.">
<polygon fill="white" stroke="black" points="694.07,-224.5 694.07,-243.5 734.07,-243.5 734.07,-224.5 694.07,-224.5"/>
<text text-anchor="middle" x="714.07" y="-231.5" font-family="FreeSans" font-size="10.00">lcd.h</text>
</a>
</g>
</g>
<!-- Node2&#45;&gt;Node3 -->
<g id="edge2" class="edge">
<title>Node2&#45;&gt;Node3</title>
<path fill="none" stroke="midnightblue" d="M554.58,-278.06C596.85,-266.65 661.38,-249.23 693.88,-240.45"/>
<polygon fill="midnightblue" stroke="midnightblue" points="553.62,-274.7 544.88,-280.68 555.44,-281.45 553.62,-274.7"/>
</g>
<!-- Node5 -->
<g id="node5" class="node">
<title>Node5</title>
<g id="a_node5"><a xlink:href="os__core_8c.html" target="_top" xlink:title=" ">
<polygon fill="white" stroke="black" points="116.07,-112.5 116.07,-131.5 178.07,-131.5 178.07,-112.5 116.07,-112.5"/>
<text text-anchor="middle" x="147.07" y="-119.5" font-family="FreeSans" font-size="10.00">os_core.c</text>
</a>
</g>
</g>
<!-- Node2&#45;&gt;Node5 -->
<g id="edge8" class="edge">
<title>Node2&#45;&gt;Node5</title>
<path fill="none" stroke="midnightblue" d="M473.3,-284.45C385.15,-273.65 181.77,-243.12 145.07,-188 133.68,-170.9 139.49,-145.26 143.81,-131.87"/>
<polygon fill="midnightblue" stroke="midnightblue" points="473.12,-287.96 483.46,-285.67 473.95,-281.01 473.12,-287.96"/>
</g>
<!-- Node7 -->
<g id="node7" class="node">
<title>Node7</title>
<g id="a_node7"><a xlink:href="os__taskman_8c.html" target="_top" xlink:title=" ">
<polygon fill="white" stroke="black" points="486.07,-0.5 486.07,-19.5 570.07,-19.5 570.07,-0.5 486.07,-0.5"/>
<text text-anchor="middle" x="528.07" y="-7.5" font-family="FreeSans" font-size="10.00">os_taskman.c</text>
</a>
</g>
</g>
<!-- Node2&#45;&gt;Node7 -->
<g id="edge40" class="edge">
<title>Node2&#45;&gt;Node7</title>
<path fill="none" stroke="midnightblue" d="M473.15,-288.92C351.59,-287.58 1.07,-275.38 1.07,-179 1.07,-179 1.07,-179 1.07,-121 1.07,-90.9 -3.2,-75.1 20.07,-56 55.74,-26.72 370.28,-15.28 485.77,-12.05"/>
<polygon fill="midnightblue" stroke="midnightblue" points="473.48,-292.42 483.51,-289.01 473.54,-285.42 473.48,-292.42"/>
</g>
<!-- Node2&#45;&gt;Node8 -->
<g id="edge42" class="edge">
<title>Node2&#45;&gt;Node8</title>
<path fill="none" stroke="midnightblue" d="M554.93,-289.5C650.01,-289.91 882.74,-286.43 946.07,-244 965.87,-230.73 975.37,-202.43 979.09,-187.95"/>
<polygon fill="midnightblue" stroke="midnightblue" points="554.86,-286 544.84,-289.43 554.82,-293 554.86,-286"/>
</g>
<!-- Node9 -->
<g id="node9" class="node">
<title>Node9</title>
<g id="a_node9"><a xlink:href="os__mem__drivers_8c.html" target="_top" xlink:title=" ">
<polygon fill="white" stroke="black" points="154.07,-168.5 154.07,-187.5 260.07,-187.5 260.07,-168.5 154.07,-168.5"/>
<text text-anchor="middle" x="207.07" y="-175.5" font-family="FreeSans" font-size="10.00">os_mem_drivers.c</text>
</a>
</g>
</g>
<!-- Node2&#45;&gt;Node9 -->
<g id="edge9" class="edge">
<title>Node2&#45;&gt;Node9</title>
<path fill="none" stroke="midnightblue" d="M473.27,-282.9C433.7,-276.19 372.42,-263.67 322.07,-244 282.55,-228.57 240.09,-201.49 219.58,-187.66"/>
<polygon fill="midnightblue" stroke="midnightblue" points="472.9,-286.39 483.33,-284.56 474.04,-279.48 472.9,-286.39"/>
</g>
<!-- Node10 -->
<g id="node10" class="node">
<title>Node10</title>
<g id="a_node10"><a xlink:href="os__mem__drivers_8h.html" target="_top" xlink:title="Drivers for OS memory management.">
<polygon fill="white" stroke="black" points="331.57,-224.5 331.57,-243.5 438.57,-243.5 438.57,-224.5 331.57,-224.5"/>
<text text-anchor="middle" x="385.07" y="-231.5" font-family="FreeSans" font-size="10.00">os_mem_drivers.h</text>
</a>
</g>
</g>
<!-- Node2&#45;&gt;Node10 -->
<g id="edge10" class="edge">
<title>Node2&#45;&gt;Node10</title>
<path fill="none" stroke="midnightblue" d="M484.21,-276.5C460.03,-266.38 426.6,-252.39 405.41,-243.52"/>
<polygon fill="midnightblue" stroke="midnightblue" points="483.05,-279.81 493.63,-280.44 485.75,-273.35 483.05,-279.81"/>
</g>
<!-- Node11 -->
<g id="node11" class="node">
<title>Node11</title>
<g id="a_node11"><a xlink:href="os__memheap__drivers_8h.html" target="_top" xlink:title="Drivers for OS heap management.">
<polygon fill="white" stroke="black" points="316.57,-168.5 316.57,-187.5 447.57,-187.5 447.57,-168.5 316.57,-168.5"/>
<text text-anchor="middle" x="382.07" y="-175.5" font-family="FreeSans" font-size="10.00">os_memheap_drivers.h</text>
</a>
</g>
</g>
<!-- Node2&#45;&gt;Node11 -->
<g id="edge29" class="edge">
<title>Node2&#45;&gt;Node11</title>
<path fill="none" stroke="midnightblue" d="M498.9,-272.86C485.75,-259.22 465.91,-239.48 447.07,-224 430.21,-210.14 409.21,-196.14 395.73,-187.52"/>
<polygon fill="midnightblue" stroke="midnightblue" points="496.38,-275.29 505.82,-280.11 501.45,-270.46 496.38,-275.29"/>
</g>
<!-- Node12 -->
<g id="node12" class="node">
<title>Node12</title>
<g id="a_node12"><a xlink:href="os__memheap__drivers_8c.html" target="_top" xlink:title=" ">
<polygon fill="white" stroke="black" points="29.07,-56.5 29.07,-75.5 159.07,-75.5 159.07,-56.5 29.07,-56.5"/>
<text text-anchor="middle" x="94.07" y="-63.5" font-family="FreeSans" font-size="10.00">os_memheap_drivers.c</text>
</a>
</g>
</g>
<!-- Node2&#45;&gt;Node12 -->
<g id="edge28" class="edge">
<title>Node2&#45;&gt;Node12</title>
<path fill="none" stroke="midnightblue" d="M472.98,-286.1C398.89,-280.4 246.16,-266.3 198.07,-244 139.88,-217.03 127.88,-192.67 107.07,-132 100.34,-112.41 96.65,-88.23 95.05,-75.6"/>
<polygon fill="midnightblue" stroke="midnightblue" points="473.08,-289.62 483.31,-286.89 473.61,-282.64 473.08,-289.62"/>
</g>
<!-- Node16 -->
<g id="node16" class="node">
<title>Node16</title>
<g id="a_node16"><a xlink:href="os__user__privileges_8h.html" target="_top" xlink:title="User privileges specification used in part by the task manager.">
<polygon fill="white" stroke="black" points="470.07,-56.5 470.07,-75.5 586.07,-75.5 586.07,-56.5 470.07,-56.5"/>
<text text-anchor="middle" x="528.07" y="-63.5" font-family="FreeSans" font-size="10.00">os_user_privileges.h</text>
</a>
</g>
</g>
<!-- Node2&#45;&gt;Node16 -->
<g id="edge41" class="edge">
<title>Node2&#45;&gt;Node16</title>
<path fill="none" stroke="midnightblue" d="M515.25,-270.3C518.12,-224.64 525.43,-108.85 527.51,-75.88"/>
<polygon fill="midnightblue" stroke="midnightblue" points="511.75,-270.1 514.61,-280.3 518.74,-270.54 511.75,-270.1"/>
</g>
<!-- Node18 -->
<g id="node18" class="node">
<title>Node18</title>
<g id="a_node18"><a xlink:href="os__scheduler_8h.html" target="_top" xlink:title="Scheduling module for the OS.">
<polygon fill="white" stroke="black" points="556.57,-168.5 556.57,-187.5 645.57,-187.5 645.57,-168.5 556.57,-168.5"/>
<text text-anchor="middle" x="601.07" y="-175.5" font-family="FreeSans" font-size="10.00">os_scheduler.h</text>
</a>
</g>
</g>
<!-- Node2&#45;&gt;Node18 -->
<g id="edge30" class="edge">
<title>Node2&#45;&gt;Node18</title>
<path fill="none" stroke="midnightblue" d="M527.3,-272.27C546.1,-248.49 579.88,-205.79 594.27,-187.59"/>
<polygon fill="midnightblue" stroke="midnightblue" points="524.35,-270.35 520.89,-280.37 529.84,-274.7 524.35,-270.35"/>
</g>
<!-- Node19 -->
<g id="node19" class="node">
<title>Node19</title>
<g id="a_node19"><a xlink:href="os__scheduling__strategies_8h.html" target="_top" xlink:title="Scheduling library for the OS.">
<polygon fill="white" stroke="black" points="717.57,-112.5 717.57,-131.5 866.57,-131.5 866.57,-112.5 717.57,-112.5"/>
<text text-anchor="middle" x="792.07" y="-119.5" font-family="FreeSans" font-size="10.00">os_scheduling_strategies.h</text>
</a>
</g>
</g>
<!-- Node2&#45;&gt;Node19 -->
<g id="edge39" class="edge">
<title>Node2&#45;&gt;Node19</title>
<path fill="none" stroke="midnightblue" d="M554.86,-285.55C612.7,-279.9 714.67,-266.96 743.07,-244 779.37,-214.64 788.98,-154.18 791.34,-131.68"/>
<polygon fill="midnightblue" stroke="midnightblue" points="554.23,-282.09 544.61,-286.52 554.89,-289.06 554.23,-282.09"/>
</g>
<!-- Node20 -->
<g id="node20" class="node">
<title>Node20</title>
<g id="a_node20"><a xlink:href="os__scheduling__strategies_8c.html" target="_top" xlink:title=" ">
<polygon fill="white" stroke="black" points="922.07,-56.5 922.07,-75.5 1070.07,-75.5 1070.07,-56.5 922.07,-56.5"/>
<text text-anchor="middle" x="996.07" y="-63.5" font-family="FreeSans" font-size="10.00">os_scheduling_strategies.c</text>
</a>
</g>
</g>
<!-- Node2&#45;&gt;Node20 -->
<g id="edge38" class="edge">
<title>Node2&#45;&gt;Node20</title>
<path fill="none" stroke="midnightblue" d="M554.78,-287.58C605.9,-284.51 695.34,-274.77 765.07,-244 864.44,-200.14 959.83,-105.11 987.84,-75.79"/>
<polygon fill="midnightblue" stroke="midnightblue" points="554.57,-284.09 544.78,-288.13 554.95,-291.08 554.57,-284.09"/>
</g>
<!-- Node4 -->
<g id="node4" class="node">
<title>Node4</title>
<g id="a_node4"><a xlink:href="lcd_8c.html" target="_top" xlink:title="Library for LCD use.">
<polygon fill="white" stroke="black" points="718.57,-168.5 718.57,-187.5 757.57,-187.5 757.57,-168.5 718.57,-168.5"/>
<text text-anchor="middle" x="738.07" y="-175.5" font-family="FreeSans" font-size="10.00">lcd.c</text>
</a>
</g>
</g>
<!-- Node3&#45;&gt;Node4 -->
<g id="edge3" class="edge">
<title>Node3&#45;&gt;Node4</title>
<path fill="none" stroke="midnightblue" d="M722.2,-214.69C726.25,-205.59 730.95,-195.01 734.18,-187.75"/>
<polygon fill="midnightblue" stroke="midnightblue" points="718.89,-213.52 718.03,-224.08 725.29,-216.37 718.89,-213.52"/>
</g>
<!-- Node3&#45;&gt;Node5 -->
<g id="edge4" class="edge">
<title>Node3&#45;&gt;Node5</title>
<path fill="none" stroke="midnightblue" d="M683.97,-233.46C615.44,-233.7 443.2,-229.71 307.07,-188 288.82,-182.41 286.5,-175.76 269.07,-168 236.69,-153.58 198.14,-139.92 173.16,-131.52"/>
<polygon fill="midnightblue" stroke="midnightblue" points="684.08,-236.96 694.05,-233.39 684.03,-229.96 684.08,-236.96"/>
</g>
<!-- Node6 -->
<g id="node6" class="node">
<title>Node6</title>
<g id="a_node6"><a xlink:href="os__scheduler_8c.html" target="_top" xlink:title="Scheduling module for the OS.">
<polygon fill="white" stroke="black" points="642.07,-56.5 642.07,-75.5 730.07,-75.5 730.07,-56.5 642.07,-56.5"/>
<text text-anchor="middle" x="686.07" y="-63.5" font-family="FreeSans" font-size="10.00">os_scheduler.c</text>
</a>
</g>
</g>
<!-- Node3&#45;&gt;Node6 -->
<g id="edge5" class="edge">
<title>Node3&#45;&gt;Node6</title>
<path fill="none" stroke="midnightblue" d="M710.85,-213.93C704.78,-177.92 691.84,-101.23 687.51,-75.57"/>
<polygon fill="midnightblue" stroke="midnightblue" points="707.45,-214.8 712.56,-224.08 714.35,-213.63 707.45,-214.8"/>
</g>
<!-- Node3&#45;&gt;Node7 -->
<g id="edge6" class="edge">
<title>Node3&#45;&gt;Node7</title>
<path fill="none" stroke="midnightblue" d="M744.3,-225.19C800.96,-209.04 914.11,-168.65 876.07,-112 841.61,-60.69 655.01,-28.64 570.14,-16.52"/>
<polygon fill="midnightblue" stroke="midnightblue" points="743.13,-221.89 734.43,-227.93 745,-228.63 743.13,-221.89"/>
</g>
<!-- Node3&#45;&gt;Node8 -->
<g id="edge7" class="edge">
<title>Node3&#45;&gt;Node8</title>
<path fill="none" stroke="midnightblue" d="M744.26,-226.89C799.06,-215.81 913.54,-192.66 960.4,-183.18"/>
<polygon fill="midnightblue" stroke="midnightblue" points="743.24,-223.53 734.13,-228.94 744.63,-230.39 743.24,-223.53"/>
</g>
<!-- Node10&#45;&gt;Node9 -->
<g id="edge11" class="edge">
<title>Node10&#45;&gt;Node9</title>
<path fill="none" stroke="midnightblue" d="M346.95,-221.44C313.39,-211.26 265.29,-196.66 235.14,-187.52"/>
<polygon fill="midnightblue" stroke="midnightblue" points="346.28,-224.89 356.86,-224.44 348.31,-218.19 346.28,-224.89"/>
</g>
<!-- Node10&#45;&gt;Node11 -->
<g id="edge12" class="edge">
<title>Node10&#45;&gt;Node11</title>
<path fill="none" stroke="midnightblue" d="M384,-213.8C383.51,-204.91 382.94,-194.78 382.55,-187.75"/>
<polygon fill="midnightblue" stroke="midnightblue" points="380.52,-214.29 384.57,-224.08 387.51,-213.9 380.52,-214.29"/>
</g>
<!-- Node13 -->
<g id="node13" class="node">
<title>Node13</title>
<g id="a_node13"><a xlink:href="os__memory_8h.html" target="_top" xlink:title="Library for OS memory management.">
<polygon fill="white" stroke="black" points="390.07,-112.5 390.07,-131.5 472.07,-131.5 472.07,-112.5 390.07,-112.5"/>
<text text-anchor="middle" x="431.07" y="-119.5" font-family="FreeSans" font-size="10.00">os_memory.h</text>
</a>
</g>
</g>
<!-- Node10&#45;&gt;Node13 -->
<g id="edge27" class="edge">
<title>Node10&#45;&gt;Node13</title>
<path fill="none" stroke="midnightblue" d="M419.66,-219.92C433.58,-212.75 448.18,-202.34 456.07,-188 466.56,-168.93 449.93,-144.54 439.14,-131.74"/>
<polygon fill="midnightblue" stroke="midnightblue" points="417.77,-216.94 410.23,-224.38 420.76,-223.27 417.77,-216.94"/>
</g>
<!-- Node11&#45;&gt;Node5 -->
<g id="edge13" class="edge">
<title>Node11&#45;&gt;Node5</title>
<path fill="none" stroke="midnightblue" d="M334.96,-166.18C288.31,-155.46 218.2,-139.35 178.12,-130.14"/>
<polygon fill="midnightblue" stroke="midnightblue" points="334.3,-169.62 344.83,-168.44 335.87,-162.79 334.3,-169.62"/>
</g>
<!-- Node11&#45;&gt;Node6 -->
<g id="edge26" class="edge">
<title>Node11&#45;&gt;Node6</title>
<path fill="none" stroke="midnightblue" d="M415.32,-164.97C477.16,-142.59 608.43,-95.09 662.27,-75.61"/>
<polygon fill="midnightblue" stroke="midnightblue" points="413.88,-161.77 405.67,-168.46 416.26,-168.35 413.88,-161.77"/>
</g>
<!-- Node11&#45;&gt;Node12 -->
<g id="edge14" class="edge">
<title>Node11&#45;&gt;Node12</title>
<path fill="none" stroke="midnightblue" d="M334.37,-166.04C302.8,-158.14 260.8,-146.35 225.07,-132 207.35,-124.89 204.1,-120.6 187.07,-112 161.29,-98.98 131.15,-84.54 112.33,-75.61"/>
<polygon fill="midnightblue" stroke="midnightblue" points="333.68,-169.48 344.23,-168.47 335.35,-162.68 333.68,-169.48"/>
</g>
<!-- Node11&#45;&gt;Node13 -->
<g id="edge15" class="edge">
<title>Node11&#45;&gt;Node13</title>
<path fill="none" stroke="midnightblue" d="M397.1,-160.43C405.69,-150.97 416.11,-139.48 423.12,-131.75"/>
<polygon fill="midnightblue" stroke="midnightblue" points="394.29,-158.33 390.16,-168.08 399.47,-163.03 394.29,-158.33"/>
</g>
<!-- Node17 -->
<g id="node17" class="node">
<title>Node17</title>
<g id="a_node17"><a xlink:href="os__memory__strategies_8h.html" target="_top" xlink:title="Memory allocation library for the OS.">
<polygon fill="white" stroke="black" points="234.57,-112.5 234.57,-131.5 371.57,-131.5 371.57,-112.5 234.57,-112.5"/>
<text text-anchor="middle" x="303.07" y="-119.5" font-family="FreeSans" font-size="10.00">os_memory_strategies.h</text>
</a>
</g>
</g>
<!-- Node11&#45;&gt;Node17 -->
<g id="edge22" class="edge">
<title>Node11&#45;&gt;Node17</title>
<path fill="none" stroke="midnightblue" d="M361.03,-162.62C346.6,-152.76 327.92,-139.99 315.73,-131.65"/>
<polygon fill="midnightblue" stroke="midnightblue" points="359.14,-165.57 369.37,-168.32 363.09,-159.79 359.14,-165.57"/>
</g>
<!-- Node13&#45;&gt;Node6 -->
<g id="edge18" class="edge">
<title>Node13&#45;&gt;Node6</title>
<path fill="none" stroke="midnightblue" d="M481.38,-110.35C529.57,-100.14 601.35,-84.94 645.85,-75.52"/>
<polygon fill="midnightblue" stroke="midnightblue" points="480.53,-106.95 471.47,-112.44 481.98,-113.8 480.53,-106.95"/>
</g>
<!-- Node13&#45;&gt;Node7 -->
<g id="edge19" class="edge">
<title>Node13&#45;&gt;Node7</title>
<path fill="none" stroke="midnightblue" d="M436.64,-102.27C441.46,-88.38 449.49,-69.58 461.07,-56 474.7,-40 495.36,-27.3 510.13,-19.53"/>
<polygon fill="midnightblue" stroke="midnightblue" points="433.19,-101.57 433.46,-112.16 439.85,-103.71 433.19,-101.57"/>
</g>
<!-- Node14 -->
<g id="node14" class="node">
<title>Node14</title>
<g id="a_node14"><a xlink:href="os__memory_8c.html" target="_top" xlink:title=" ">
<polygon fill="white" stroke="black" points="332.57,-56.5 332.57,-75.5 413.57,-75.5 413.57,-56.5 332.57,-56.5"/>
<text text-anchor="middle" x="373.07" y="-63.5" font-family="FreeSans" font-size="10.00">os_memory.c</text>
</a>
</g>
</g>
<!-- Node13&#45;&gt;Node14 -->
<g id="edge16" class="edge">
<title>Node13&#45;&gt;Node14</title>
<path fill="none" stroke="midnightblue" d="M414.15,-105.25C403.86,-95.67 391.1,-83.79 382.55,-75.83"/>
<polygon fill="midnightblue" stroke="midnightblue" points="412.04,-108.07 421.75,-112.32 416.81,-102.95 412.04,-108.07"/>
</g>
<!-- Node15 -->
<g id="node15" class="node">
<title>Node15</title>
<g id="a_node15"><a xlink:href="os__memory__strategies_8c.html" target="_top" xlink:title=" ">
<polygon fill="white" stroke="black" points="177.57,-56.5 177.57,-75.5 314.57,-75.5 314.57,-56.5 177.57,-56.5"/>
<text text-anchor="middle" x="246.07" y="-63.5" font-family="FreeSans" font-size="10.00">os_memory_strategies.c</text>
</a>
</g>
</g>
<!-- Node13&#45;&gt;Node15 -->
<g id="edge17" class="edge">
<title>Node13&#45;&gt;Node15</title>
<path fill="none" stroke="midnightblue" d="M391.9,-109.57C357,-99.38 306.72,-84.7 275.24,-75.52"/>
<polygon fill="midnightblue" stroke="midnightblue" points="391.17,-113 401.75,-112.44 393.13,-106.28 391.17,-113"/>
</g>
<!-- Node13&#45;&gt;Node16 -->
<g id="edge20" class="edge">
<title>Node13&#45;&gt;Node16</title>
<path fill="none" stroke="midnightblue" d="M455.4,-107.45C473.31,-97.48 497.12,-84.23 512.52,-75.65"/>
<polygon fill="midnightblue" stroke="midnightblue" points="453.69,-104.4 446.65,-112.32 457.09,-110.52 453.69,-104.4"/>
</g>
<!-- Node16&#45;&gt;Node7 -->
<g id="edge21" class="edge">
<title>Node16&#45;&gt;Node7</title>
<path fill="none" stroke="midnightblue" d="M528.07,-45.8C528.07,-36.91 528.07,-26.78 528.07,-19.75"/>
<polygon fill="midnightblue" stroke="midnightblue" points="524.57,-46.08 528.07,-56.08 531.57,-46.08 524.57,-46.08"/>
</g>
<!-- Node17&#45;&gt;Node12 -->
<g id="edge23" class="edge">
<title>Node17&#45;&gt;Node12</title>
<path fill="none" stroke="midnightblue" d="M260.08,-109.89C220.61,-99.7 162.97,-84.8 127.03,-75.52"/>
<polygon fill="midnightblue" stroke="midnightblue" points="259.39,-113.33 269.95,-112.44 261.14,-106.55 259.39,-113.33"/>
</g>
<!-- Node17&#45;&gt;Node14 -->
<g id="edge24" class="edge">
<title>Node17&#45;&gt;Node14</title>
<path fill="none" stroke="midnightblue" d="M322.38,-106.1C334.98,-96.38 350.99,-84.03 361.61,-75.83"/>
<polygon fill="midnightblue" stroke="midnightblue" points="320.09,-103.44 314.31,-112.32 324.37,-108.99 320.09,-103.44"/>
</g>
<!-- Node17&#45;&gt;Node15 -->
<g id="edge25" class="edge">
<title>Node17&#45;&gt;Node15</title>
<path fill="none" stroke="midnightblue" d="M286.44,-105.25C276.33,-95.67 263.79,-83.79 255.39,-75.83"/>
<polygon fill="midnightblue" stroke="midnightblue" points="284.24,-107.99 293.91,-112.32 289.06,-102.91 284.24,-107.99"/>
</g>
<!-- Node18&#45;&gt;Node6 -->
<g id="edge32" class="edge">
<title>Node18&#45;&gt;Node6</title>
<path fill="none" stroke="midnightblue" d="M613.99,-160.27C632.37,-136.49 665.37,-93.79 679.43,-75.59"/>
<polygon fill="midnightblue" stroke="midnightblue" points="611.08,-158.32 607.74,-168.37 616.62,-162.6 611.08,-158.32"/>
</g>
<!-- Node18&#45;&gt;Node7 -->
<g id="edge36" class="edge">
<title>Node18&#45;&gt;Node7</title>
<path fill="none" stroke="midnightblue" d="M605.01,-158.39C609.28,-133.35 613.28,-88.23 595.07,-56 585.28,-38.68 565.73,-26.73 550.27,-19.52"/>
<polygon fill="midnightblue" stroke="midnightblue" points="601.54,-157.89 603.1,-168.37 608.42,-159.2 601.54,-157.89"/>
</g>
<!-- Node18&#45;&gt;Node13 -->
<g id="edge31" class="edge">
<title>Node18&#45;&gt;Node13</title>
<path fill="none" stroke="midnightblue" d="M564.25,-165.3C532.21,-155.13 486.55,-140.62 457.88,-131.52"/>
<polygon fill="midnightblue" stroke="midnightblue" points="563.54,-168.75 574.13,-168.44 565.66,-162.08 563.54,-168.75"/>
</g>
<!-- Node18&#45;&gt;Node16 -->
<g id="edge37" class="edge">
<title>Node18&#45;&gt;Node16</title>
<path fill="none" stroke="midnightblue" d="M589.76,-159.96C573.94,-136.12 545.79,-93.71 533.77,-75.59"/>
<polygon fill="midnightblue" stroke="midnightblue" points="586.89,-161.97 595.34,-168.37 592.72,-158.1 586.89,-161.97"/>
</g>
<!-- Node18&#45;&gt;Node19 -->
<g id="edge33" class="edge">
<title>Node18&#45;&gt;Node19</title>
<path fill="none" stroke="midnightblue" d="M641.04,-165.7C677.09,-155.51 729.31,-140.74 761.94,-131.52"/>
<polygon fill="midnightblue" stroke="midnightblue" points="640,-162.35 631.33,-168.44 641.91,-169.09 640,-162.35"/>
</g>
<!-- Node19&#45;&gt;Node6 -->
<g id="edge34" class="edge">
<title>Node19&#45;&gt;Node6</title>
<path fill="none" stroke="midnightblue" d="M766.01,-107.73C746.38,-97.73 720.04,-84.31 703.05,-75.65"/>
<polygon fill="midnightblue" stroke="midnightblue" points="764.54,-110.9 775.03,-112.32 767.71,-104.67 764.54,-110.9"/>
</g>
<!-- Node19&#45;&gt;Node20 -->
<g id="edge35" class="edge">
<title>Node19&#45;&gt;Node20</title>
<path fill="none" stroke="midnightblue" d="M834.27,-109.83C872.78,-99.63 928.89,-84.78 963.89,-75.52"/>
<polygon fill="midnightblue" stroke="midnightblue" points="833.16,-106.5 824.39,-112.44 834.95,-113.27 833.16,-106.5"/>
</g>
</g>
</svg>
