<?xml version="1.0" encoding="UTF-8" standalone="no"?>
<!DOCTYPE svg PUBLIC "-//W3C//DTD SVG 1.1//EN"
 "http://www.w3.org/Graphics/SVG/1.1/DTD/svg11.dtd">
<!-- Generated by graphviz version 2.43.0 (0)
 -->
<!-- Title: defines.h Pages: 1 -->
<svg width="1059pt" height="308pt"
 viewBox="0.00 0.00 1059.00 308.00" xmlns="http://www.w3.org/2000/svg" xmlns:xlink="http://www.w3.org/1999/xlink">
<g id="graph0" class="graph" transform="scale(1 1) rotate(0) translate(4 304)">
<title>defines.h</title>
<polygon fill="white" stroke="transparent" points="-4,4 -4,-304 1055,-304 1055,4 -4,4"/>
<!-- Node1 -->
<g id="node1" class="node">
<title>Node1</title>
<g id="a_node1"><a xlink:title="Simple definitions and assembler&#45;macros, mostly 8/16&#45;Bit values.">
<polygon fill="#bfbfbf" stroke="black" points="368.5,-280.5 368.5,-299.5 429.5,-299.5 429.5,-280.5 368.5,-280.5"/>
<text text-anchor="middle" x="399" y="-287.5" font-family="FreeSans" font-size="10.00">defines.h</text>
</a>
</g>
</g>
<!-- Node2 -->
<g id="node2" class="node">
<title>Node2</title>
<g id="a_node2"><a xlink:href="lcd_8h.html" target="_top" xlink:title="Library for LCD use.">
<polygon fill="white" stroke="black" points="152,-168.5 152,-187.5 192,-187.5 192,-168.5 152,-168.5"/>
<text text-anchor="middle" x="172" y="-175.5" font-family="FreeSans" font-size="10.00">lcd.h</text>
</a>
</g>
</g>
<!-- Node1&#45;&gt;Node2 -->
<g id="edge1" class="edge">
<title>Node1&#45;&gt;Node2</title>
<path fill="none" stroke="midnightblue" d="M358.17,-286.06C320.44,-281.69 264.17,-270.85 223,-244 200.65,-229.43 183.86,-201.72 176.34,-187.65"/>
<polygon fill="midnightblue" stroke="midnightblue" points="357.98,-289.55 368.29,-287.12 358.71,-282.59 357.98,-289.55"/>
</g>
<!-- Node4 -->
<g id="node4" class="node">
<title>Node4</title>
<g id="a_node4"><a xlink:href="os__core_8c.html" target="_top" xlink:title=" ">
<polygon fill="white" stroke="black" points="260,-112.5 260,-131.5 322,-131.5 322,-112.5 260,-112.5"/>
<text text-anchor="middle" x="291" y="-119.5" font-family="FreeSans" font-size="10.00">os_core.c</text>
</a>
</g>
</g>
<!-- Node1&#45;&gt;Node4 -->
<g id="edge7" class="edge">
<title>Node1&#45;&gt;Node4</title>
<path fill="none" stroke="midnightblue" d="M381.35,-273.55C361.3,-255.09 328.92,-222.37 310,-188 299.79,-169.46 294.55,-144.86 292.33,-131.88"/>
<polygon fill="midnightblue" stroke="midnightblue" points="379.1,-276.23 388.87,-280.34 383.79,-271.04 379.1,-276.23"/>
</g>
<!-- Node6 -->
<g id="node6" class="node">
<title>Node6</title>
<g id="a_node6"><a xlink:href="os__taskman_8c.html" target="_top" xlink:title=" ">
<polygon fill="white" stroke="black" points="533,-0.5 533,-19.5 617,-19.5 617,-0.5 533,-0.5"/>
<text text-anchor="middle" x="575" y="-7.5" font-family="FreeSans" font-size="10.00">os_taskman.c</text>
</a>
</g>
</g>
<!-- Node1&#45;&gt;Node6 -->
<g id="edge39" class="edge">
<title>Node1&#45;&gt;Node6</title>
<path fill="none" stroke="midnightblue" d="M358.16,-286.44C256.45,-278.94 0,-252.74 0,-179 0,-179 0,-179 0,-121 0,-52.8 73.27,-74.2 139,-56 279.62,-17.06 454.2,-11.21 532.97,-10.72"/>
<polygon fill="midnightblue" stroke="midnightblue" points="358.13,-289.94 368.35,-287.16 358.63,-282.96 358.13,-289.94"/>
</g>
<!-- Node7 -->
<g id="node7" class="node">
<title>Node7</title>
<g id="a_node7"><a xlink:href="util_8c.html" target="_top" xlink:title=" ">
<polygon fill="white" stroke="black" points="200.5,-112.5 200.5,-131.5 241.5,-131.5 241.5,-112.5 200.5,-112.5"/>
<text text-anchor="middle" x="221" y="-119.5" font-family="FreeSans" font-size="10.00">util.c</text>
</a>
</g>
</g>
<!-- Node1&#45;&gt;Node7 -->
<g id="edge41" class="edge">
<title>Node1&#45;&gt;Node7</title>
<path fill="none" stroke="midnightblue" d="M374.92,-275.1C361.42,-266.83 344.62,-255.68 331,-244 287.25,-206.49 243.72,-152.38 227.57,-131.59"/>
<polygon fill="midnightblue" stroke="midnightblue" points="373.28,-278.2 383.65,-280.35 376.88,-272.2 373.28,-278.2"/>
</g>
<!-- Node8 -->
<g id="node8" class="node">
<title>Node8</title>
<g id="a_node8"><a xlink:href="os__mem__drivers_8c.html" target="_top" xlink:title=" ">
<polygon fill="white" stroke="black" points="319,-168.5 319,-187.5 425,-187.5 425,-168.5 319,-168.5"/>
<text text-anchor="middle" x="372" y="-175.5" font-family="FreeSans" font-size="10.00">os_mem_drivers.c</text>
</a>
</g>
</g>
<!-- Node1&#45;&gt;Node8 -->
<g id="edge8" class="edge">
<title>Node1&#45;&gt;Node8</title>
<path fill="none" stroke="midnightblue" d="M389.13,-271.53C384.99,-263.4 380.56,-253.47 378,-244 372.67,-224.31 371.87,-200.17 371.86,-187.58"/>
<polygon fill="midnightblue" stroke="midnightblue" points="386.06,-273.22 393.88,-280.38 392.23,-269.91 386.06,-273.22"/>
</g>
<!-- Node9 -->
<g id="node9" class="node">
<title>Node9</title>
<g id="a_node9"><a xlink:href="os__mem__drivers_8h.html" target="_top" xlink:title="Drivers for OS memory management.">
<polygon fill="white" stroke="black" points="386.5,-224.5 386.5,-243.5 493.5,-243.5 493.5,-224.5 386.5,-224.5"/>
<text text-anchor="middle" x="440" y="-231.5" font-family="FreeSans" font-size="10.00">os_mem_drivers.h</text>
</a>
</g>
</g>
<!-- Node1&#45;&gt;Node9 -->
<g id="edge9" class="edge">
<title>Node1&#45;&gt;Node9</title>
<path fill="none" stroke="midnightblue" d="M412.02,-271.86C419.12,-262.5 427.6,-251.33 433.36,-243.75"/>
<polygon fill="midnightblue" stroke="midnightblue" points="409.03,-270 405.77,-280.08 414.61,-274.24 409.03,-270"/>
</g>
<!-- Node10 -->
<g id="node10" class="node">
<title>Node10</title>
<g id="a_node10"><a xlink:href="os__memheap__drivers_8h.html" target="_top" xlink:title="Drivers for OS heap management.">
<polygon fill="white" stroke="black" points="443.5,-168.5 443.5,-187.5 574.5,-187.5 574.5,-168.5 443.5,-168.5"/>
<text text-anchor="middle" x="509" y="-175.5" font-family="FreeSans" font-size="10.00">os_memheap_drivers.h</text>
</a>
</g>
</g>
<!-- Node1&#45;&gt;Node10 -->
<g id="edge28" class="edge">
<title>Node1&#45;&gt;Node10</title>
<path fill="none" stroke="midnightblue" d="M439.74,-281.84C462.08,-275.7 488.18,-264.44 503,-244 515.24,-227.12 512.98,-200.92 510.75,-187.53"/>
<polygon fill="midnightblue" stroke="midnightblue" points="438.65,-278.51 429.79,-284.32 440.34,-285.3 438.65,-278.51"/>
</g>
<!-- Node11 -->
<g id="node11" class="node">
<title>Node11</title>
<g id="a_node11"><a xlink:href="os__memheap__drivers_8c.html" target="_top" xlink:title=" ">
<polygon fill="white" stroke="black" points="162,-56.5 162,-75.5 292,-75.5 292,-56.5 162,-56.5"/>
<text text-anchor="middle" x="227" y="-63.5" font-family="FreeSans" font-size="10.00">os_memheap_drivers.c</text>
</a>
</g>
</g>
<!-- Node1&#45;&gt;Node11 -->
<g id="edge27" class="edge">
<title>Node1&#45;&gt;Node11</title>
<path fill="none" stroke="midnightblue" d="M358.28,-285.92C280.16,-277.46 112.11,-246.16 57,-132 35.3,-87.04 105.14,-72.82 161.79,-68.52"/>
<polygon fill="midnightblue" stroke="midnightblue" points="357.94,-289.41 368.24,-286.93 358.64,-282.44 357.94,-289.41"/>
</g>
<!-- Node15 -->
<g id="node15" class="node">
<title>Node15</title>
<g id="a_node15"><a xlink:href="os__user__privileges_8h.html" target="_top" xlink:title="User privileges specification used in part by the task manager.">
<polygon fill="white" stroke="black" points="709,-56.5 709,-75.5 825,-75.5 825,-56.5 709,-56.5"/>
<text text-anchor="middle" x="767" y="-63.5" font-family="FreeSans" font-size="10.00">os_user_privileges.h</text>
</a>
</g>
</g>
<!-- Node1&#45;&gt;Node15 -->
<g id="edge40" class="edge">
<title>Node1&#45;&gt;Node15</title>
<path fill="none" stroke="midnightblue" d="M439.77,-283.77C555.95,-267.93 884.23,-216.33 944,-132 976.04,-86.8 888.35,-72.95 825.24,-68.76"/>
<polygon fill="midnightblue" stroke="midnightblue" points="438.96,-280.35 429.52,-285.15 439.9,-287.29 438.96,-280.35"/>
</g>
<!-- Node17 -->
<g id="node17" class="node">
<title>Node17</title>
<g id="a_node17"><a xlink:href="os__scheduler_8h.html" target="_top" xlink:title="Scheduling module for the OS.">
<polygon fill="white" stroke="black" points="640.5,-168.5 640.5,-187.5 729.5,-187.5 729.5,-168.5 640.5,-168.5"/>
<text text-anchor="middle" x="685" y="-175.5" font-family="FreeSans" font-size="10.00">os_scheduler.h</text>
</a>
</g>
</g>
<!-- Node1&#45;&gt;Node17 -->
<g id="edge29" class="edge">
<title>Node1&#45;&gt;Node17</title>
<path fill="none" stroke="midnightblue" d="M432.19,-276.85C456.54,-267.89 490.38,-255.34 520,-244 571.76,-224.18 632.3,-200.1 663.69,-187.55"/>
<polygon fill="midnightblue" stroke="midnightblue" points="430.88,-273.6 422.7,-280.34 433.29,-280.18 430.88,-273.6"/>
</g>
<!-- Node18 -->
<g id="node18" class="node">
<title>Node18</title>
<g id="a_node18"><a xlink:href="os__scheduling__strategies_8h.html" target="_top" xlink:title="Scheduling library for the OS.">
<polygon fill="white" stroke="black" points="785.5,-112.5 785.5,-131.5 934.5,-131.5 934.5,-112.5 785.5,-112.5"/>
<text text-anchor="middle" x="860" y="-119.5" font-family="FreeSans" font-size="10.00">os_scheduling_strategies.h</text>
</a>
</g>
</g>
<!-- Node1&#45;&gt;Node18 -->
<g id="edge38" class="edge">
<title>Node1&#45;&gt;Node18</title>
<path fill="none" stroke="midnightblue" d="M439.61,-279.97C504.38,-264.89 634.44,-231.87 739,-188 779.46,-171.02 824.27,-144.87 846.27,-131.5"/>
<polygon fill="midnightblue" stroke="midnightblue" points="438.74,-276.57 429.78,-282.23 440.32,-283.39 438.74,-276.57"/>
</g>
<!-- Node19 -->
<g id="node19" class="node">
<title>Node19</title>
<g id="a_node19"><a xlink:href="os__scheduling__strategies_8c.html" target="_top" xlink:title=" ">
<polygon fill="white" stroke="black" points="903,-56.5 903,-75.5 1051,-75.5 1051,-56.5 903,-56.5"/>
<text text-anchor="middle" x="977" y="-63.5" font-family="FreeSans" font-size="10.00">os_scheduling_strategies.c</text>
</a>
</g>
</g>
<!-- Node1&#45;&gt;Node19 -->
<g id="edge37" class="edge">
<title>Node1&#45;&gt;Node19</title>
<path fill="none" stroke="midnightblue" d="M439.69,-288.47C527.48,-285.71 739.04,-270.32 891,-188 926.03,-169.02 939.54,-165.57 961,-132 972.39,-114.18 975.67,-88.84 976.62,-75.69"/>
<polygon fill="midnightblue" stroke="midnightblue" points="439.51,-284.97 429.61,-288.75 439.7,-291.97 439.51,-284.97"/>
</g>
<!-- Node3 -->
<g id="node3" class="node">
<title>Node3</title>
<g id="a_node3"><a xlink:href="lcd_8c.html" target="_top" xlink:title="Library for LCD use.">
<polygon fill="white" stroke="black" points="66.5,-112.5 66.5,-131.5 105.5,-131.5 105.5,-112.5 66.5,-112.5"/>
<text text-anchor="middle" x="86" y="-119.5" font-family="FreeSans" font-size="10.00">lcd.c</text>
</a>
</g>
</g>
<!-- Node2&#45;&gt;Node3 -->
<g id="edge2" class="edge">
<title>Node2&#45;&gt;Node3</title>
<path fill="none" stroke="midnightblue" d="M149.55,-162.9C133.78,-153 113.19,-140.07 99.78,-131.65"/>
<polygon fill="midnightblue" stroke="midnightblue" points="147.85,-165.97 158.18,-168.32 151.57,-160.04 147.85,-165.97"/>
</g>
<!-- Node2&#45;&gt;Node4 -->
<g id="edge3" class="edge">
<title>Node2&#45;&gt;Node4</title>
<path fill="none" stroke="midnightblue" d="M200.14,-164.23C222.4,-154.13 252.86,-140.31 272.23,-131.52"/>
<polygon fill="midnightblue" stroke="midnightblue" points="198.52,-161.12 190.86,-168.44 201.41,-167.5 198.52,-161.12"/>
</g>
<!-- Node5 -->
<g id="node5" class="node">
<title>Node5</title>
<g id="a_node5"><a xlink:href="os__scheduler_8c.html" target="_top" xlink:title="Scheduling module for the OS.">
<polygon fill="white" stroke="black" points="603,-56.5 603,-75.5 691,-75.5 691,-56.5 603,-56.5"/>
<text text-anchor="middle" x="647" y="-63.5" font-family="FreeSans" font-size="10.00">os_scheduler.c</text>
</a>
</g>
</g>
<!-- Node2&#45;&gt;Node5 -->
<g id="edge4" class="edge">
<title>Node2&#45;&gt;Node5</title>
<path fill="none" stroke="midnightblue" d="M172.13,-158.05C173.34,-143.16 177.59,-123.12 191,-112 253.74,-59.97 474.89,-84.01 556,-76 571.17,-74.5 587.76,-72.86 602.57,-71.4"/>
<polygon fill="midnightblue" stroke="midnightblue" points="168.63,-158.07 171.71,-168.21 175.62,-158.36 168.63,-158.07"/>
</g>
<!-- Node2&#45;&gt;Node6 -->
<g id="edge5" class="edge">
<title>Node2&#45;&gt;Node6</title>
<path fill="none" stroke="midnightblue" d="M161.62,-159.63C147.59,-133.68 127.16,-84.74 153,-56 178.12,-28.06 431.18,-16.07 532.95,-12.36"/>
<polygon fill="midnightblue" stroke="midnightblue" points="158.59,-161.39 166.57,-168.37 164.68,-157.94 158.59,-161.39"/>
</g>
<!-- Node2&#45;&gt;Node7 -->
<g id="edge6" class="edge">
<title>Node2&#45;&gt;Node7</title>
<path fill="none" stroke="midnightblue" d="M187.03,-160.43C195.62,-150.97 206.04,-139.48 213.06,-131.75"/>
<polygon fill="midnightblue" stroke="midnightblue" points="184.22,-158.33 180.09,-168.08 189.4,-163.03 184.22,-158.33"/>
</g>
<!-- Node9&#45;&gt;Node8 -->
<g id="edge10" class="edge">
<title>Node9&#45;&gt;Node8</title>
<path fill="none" stroke="midnightblue" d="M421.24,-218.1C409,-208.38 393.44,-196.03 383.12,-187.83"/>
<polygon fill="midnightblue" stroke="midnightblue" points="419.07,-220.85 429.07,-224.32 423.42,-215.36 419.07,-220.85"/>
</g>
<!-- Node9&#45;&gt;Node10 -->
<g id="edge11" class="edge">
<title>Node9&#45;&gt;Node10</title>
<path fill="none" stroke="midnightblue" d="M459.04,-218.1C471.46,-208.38 487.24,-196.03 497.71,-187.83"/>
<polygon fill="midnightblue" stroke="midnightblue" points="456.8,-215.4 451.09,-224.32 461.12,-220.92 456.8,-215.4"/>
</g>
<!-- Node12 -->
<g id="node12" class="node">
<title>Node12</title>
<g id="a_node12"><a xlink:href="os__memory_8h.html" target="_top" xlink:title="Library for OS memory management.">
<polygon fill="white" stroke="black" points="572,-112.5 572,-131.5 654,-131.5 654,-112.5 572,-112.5"/>
<text text-anchor="middle" x="613" y="-119.5" font-family="FreeSans" font-size="10.00">os_memory.h</text>
</a>
</g>
</g>
<!-- Node9&#45;&gt;Node12 -->
<g id="edge26" class="edge">
<title>Node9&#45;&gt;Node12</title>
<path fill="none" stroke="midnightblue" d="M503.5,-225.07C530.94,-218.85 561.78,-207.77 584,-188 600.99,-172.89 608.54,-145.92 611.44,-131.95"/>
<polygon fill="midnightblue" stroke="midnightblue" points="502.63,-221.67 493.56,-227.15 504.07,-228.52 502.63,-221.67"/>
</g>
<!-- Node10&#45;&gt;Node4 -->
<g id="edge12" class="edge">
<title>Node10&#45;&gt;Node4</title>
<path fill="none" stroke="midnightblue" d="M464.69,-166.02C422.33,-155.53 359.54,-139.98 322.2,-130.73"/>
<polygon fill="midnightblue" stroke="midnightblue" points="463.91,-169.44 474.46,-168.44 465.59,-162.64 463.91,-169.44"/>
</g>
<!-- Node10&#45;&gt;Node5 -->
<g id="edge25" class="edge">
<title>Node10&#45;&gt;Node5</title>
<path fill="none" stroke="midnightblue" d="M520.48,-159.76C530.49,-145.65 546.03,-125.85 563,-112 582.35,-96.2 608.1,-83.38 625.96,-75.53"/>
<polygon fill="midnightblue" stroke="midnightblue" points="517.54,-157.86 514.74,-168.08 523.3,-161.83 517.54,-157.86"/>
</g>
<!-- Node10&#45;&gt;Node11 -->
<g id="edge13" class="edge">
<title>Node10&#45;&gt;Node11</title>
<path fill="none" stroke="midnightblue" d="M467.99,-165.61C439.98,-157.38 402.24,-145.38 370,-132 352.01,-124.53 348.62,-120.32 331,-112 302.54,-98.56 269.03,-84.34 247.9,-75.57"/>
<polygon fill="midnightblue" stroke="midnightblue" points="467.26,-169.05 477.84,-168.47 469.22,-162.32 467.26,-169.05"/>
</g>
<!-- Node10&#45;&gt;Node12 -->
<g id="edge14" class="edge">
<title>Node10&#45;&gt;Node12</title>
<path fill="none" stroke="midnightblue" d="M534.83,-163.59C554.06,-153.61 579.74,-140.27 596.33,-131.65"/>
<polygon fill="midnightblue" stroke="midnightblue" points="532.97,-160.61 525.71,-168.32 536.2,-166.82 532.97,-160.61"/>
</g>
<!-- Node16 -->
<g id="node16" class="node">
<title>Node16</title>
<g id="a_node16"><a xlink:href="os__memory__strategies_8h.html" target="_top" xlink:title="Memory allocation library for the OS.">
<polygon fill="white" stroke="black" points="378.5,-112.5 378.5,-131.5 515.5,-131.5 515.5,-112.5 378.5,-112.5"/>
<text text-anchor="middle" x="447" y="-119.5" font-family="FreeSans" font-size="10.00">os_memory_strategies.h</text>
</a>
</g>
</g>
<!-- Node10&#45;&gt;Node16 -->
<g id="edge21" class="edge">
<title>Node10&#45;&gt;Node16</title>
<path fill="none" stroke="midnightblue" d="M491.25,-161.54C480.19,-151.91 466.37,-139.87 457.14,-131.83"/>
<polygon fill="midnightblue" stroke="midnightblue" points="489.2,-164.4 499.04,-168.32 493.8,-159.12 489.2,-164.4"/>
</g>
<!-- Node12&#45;&gt;Node5 -->
<g id="edge17" class="edge">
<title>Node12&#45;&gt;Node5</title>
<path fill="none" stroke="midnightblue" d="M623.98,-103.57C629.83,-94.27 636.77,-83.25 641.49,-75.75"/>
<polygon fill="midnightblue" stroke="midnightblue" points="620.98,-101.76 618.61,-112.08 626.9,-105.49 620.98,-101.76"/>
</g>
<!-- Node12&#45;&gt;Node6 -->
<g id="edge18" class="edge">
<title>Node12&#45;&gt;Node6</title>
<path fill="none" stroke="midnightblue" d="M604.93,-103.21C601.36,-95.01 597.24,-85.1 594,-76 586.9,-56.06 580.39,-32.03 577.15,-19.51"/>
<polygon fill="midnightblue" stroke="midnightblue" points="601.8,-104.78 609.06,-112.49 608.19,-101.93 601.8,-104.78"/>
</g>
<!-- Node13 -->
<g id="node13" class="node">
<title>Node13</title>
<g id="a_node13"><a xlink:href="os__memory_8c.html" target="_top" xlink:title=" ">
<polygon fill="white" stroke="black" points="310.5,-56.5 310.5,-75.5 391.5,-75.5 391.5,-56.5 310.5,-56.5"/>
<text text-anchor="middle" x="351" y="-63.5" font-family="FreeSans" font-size="10.00">os_memory.c</text>
</a>
</g>
</g>
<!-- Node12&#45;&gt;Node13 -->
<g id="edge15" class="edge">
<title>Node12&#45;&gt;Node13</title>
<path fill="none" stroke="midnightblue" d="M561.86,-110.46C512.06,-100.2 437.38,-84.8 391.55,-75.36"/>
<polygon fill="midnightblue" stroke="midnightblue" points="561.27,-113.91 571.77,-112.5 562.69,-107.06 561.27,-113.91"/>
</g>
<!-- Node14 -->
<g id="node14" class="node">
<title>Node14</title>
<g id="a_node14"><a xlink:href="os__memory__strategies_8c.html" target="_top" xlink:title=" ">
<polygon fill="white" stroke="black" points="409.5,-56.5 409.5,-75.5 546.5,-75.5 546.5,-56.5 409.5,-56.5"/>
<text text-anchor="middle" x="478" y="-63.5" font-family="FreeSans" font-size="10.00">os_memory_strategies.c</text>
</a>
</g>
</g>
<!-- Node12&#45;&gt;Node14 -->
<g id="edge16" class="edge">
<title>Node12&#45;&gt;Node14</title>
<path fill="none" stroke="midnightblue" d="M582.09,-108.64C556.76,-98.5 521.57,-84.43 499.29,-75.52"/>
<polygon fill="midnightblue" stroke="midnightblue" points="581.02,-111.98 591.61,-112.44 583.62,-105.48 581.02,-111.98"/>
</g>
<!-- Node12&#45;&gt;Node15 -->
<g id="edge19" class="edge">
<title>Node12&#45;&gt;Node15</title>
<path fill="none" stroke="midnightblue" d="M647.11,-109.04C676.09,-98.88 716.96,-84.55 742.71,-75.52"/>
<polygon fill="midnightblue" stroke="midnightblue" points="645.68,-105.83 637.4,-112.44 648,-112.44 645.68,-105.83"/>
</g>
<!-- Node15&#45;&gt;Node6 -->
<g id="edge20" class="edge">
<title>Node15&#45;&gt;Node6</title>
<path fill="none" stroke="midnightblue" d="M726.82,-53.7C690.58,-43.51 638.09,-28.74 605.28,-19.52"/>
<polygon fill="midnightblue" stroke="midnightblue" points="726,-57.11 736.58,-56.44 727.9,-50.37 726,-57.11"/>
</g>
<!-- Node16&#45;&gt;Node11 -->
<g id="edge22" class="edge">
<title>Node16&#45;&gt;Node11</title>
<path fill="none" stroke="midnightblue" d="M402.28,-110.02C360.72,-99.82 299.69,-84.84 261.7,-75.52"/>
<polygon fill="midnightblue" stroke="midnightblue" points="401.59,-113.46 412.14,-112.44 403.26,-106.66 401.59,-113.46"/>
</g>
<!-- Node16&#45;&gt;Node13 -->
<g id="edge23" class="edge">
<title>Node16&#45;&gt;Node13</title>
<path fill="none" stroke="midnightblue" d="M422.43,-107.18C404.76,-97.24 381.49,-84.15 366.39,-75.65"/>
<polygon fill="midnightblue" stroke="midnightblue" points="421.14,-110.47 431.58,-112.32 424.58,-104.37 421.14,-110.47"/>
</g>
<!-- Node16&#45;&gt;Node14 -->
<g id="edge24" class="edge">
<title>Node16&#45;&gt;Node14</title>
<path fill="none" stroke="midnightblue" d="M457.18,-103.27C462.47,-94.05 468.72,-83.17 472.98,-75.75"/>
<polygon fill="midnightblue" stroke="midnightblue" points="454.06,-101.67 452.12,-112.08 460.13,-105.15 454.06,-101.67"/>
</g>
<!-- Node17&#45;&gt;Node5 -->
<g id="edge31" class="edge">
<title>Node17&#45;&gt;Node5</title>
<path fill="none" stroke="midnightblue" d="M678.82,-158.5C674.45,-145.48 668.43,-127.65 663,-112 658.6,-99.31 653.36,-84.66 650.11,-75.61"/>
<polygon fill="midnightblue" stroke="midnightblue" points="675.56,-159.78 682.05,-168.15 682.2,-157.56 675.56,-159.78"/>
</g>
<!-- Node17&#45;&gt;Node6 -->
<g id="edge35" class="edge">
<title>Node17&#45;&gt;Node6</title>
<path fill="none" stroke="midnightblue" d="M705.01,-162.42C723.5,-149.04 751.85,-128.81 777,-112 801.91,-95.35 819.54,-102.24 834,-76 838.29,-68.22 839.72,-62.8 834,-56 806.79,-23.65 683.33,-14.56 617.18,-12"/>
<polygon fill="midnightblue" stroke="midnightblue" points="702.81,-159.68 696.77,-168.39 706.92,-165.35 702.81,-159.68"/>
</g>
<!-- Node17&#45;&gt;Node12 -->
<g id="edge30" class="edge">
<title>Node17&#45;&gt;Node12</title>
<path fill="none" stroke="midnightblue" d="M665.13,-162.1C652.18,-152.38 635.7,-140.03 624.78,-131.83"/>
<polygon fill="midnightblue" stroke="midnightblue" points="663.33,-165.12 673.43,-168.32 667.53,-159.52 663.33,-165.12"/>
</g>
<!-- Node17&#45;&gt;Node15 -->
<g id="edge36" class="edge">
<title>Node17&#45;&gt;Node15</title>
<path fill="none" stroke="midnightblue" d="M697.47,-160.27C715.2,-136.49 747.03,-93.79 760.6,-75.59"/>
<polygon fill="midnightblue" stroke="midnightblue" points="694.6,-158.26 691.43,-168.37 700.22,-162.44 694.6,-158.26"/>
</g>
<!-- Node17&#45;&gt;Node18 -->
<g id="edge32" class="edge">
<title>Node17&#45;&gt;Node18</title>
<path fill="none" stroke="midnightblue" d="M722.47,-165.44C755.47,-155.26 802.76,-140.66 832.4,-131.52"/>
<polygon fill="midnightblue" stroke="midnightblue" points="721.25,-162.15 712.73,-168.44 723.32,-168.84 721.25,-162.15"/>
</g>
<!-- Node18&#45;&gt;Node5 -->
<g id="edge33" class="edge">
<title>Node18&#45;&gt;Node5</title>
<path fill="none" stroke="midnightblue" d="M816.45,-109.96C776.22,-99.76 717.3,-84.82 680.59,-75.52"/>
<polygon fill="midnightblue" stroke="midnightblue" points="815.7,-113.38 826.25,-112.44 817.42,-106.59 815.7,-113.38"/>
</g>
<!-- Node18&#45;&gt;Node19 -->
<g id="edge34" class="edge">
<title>Node18&#45;&gt;Node19</title>
<path fill="none" stroke="midnightblue" d="M887.66,-108.23C909.55,-98.13 939.5,-84.31 958.55,-75.52"/>
<polygon fill="midnightblue" stroke="midnightblue" points="886.15,-105.08 878.54,-112.44 889.09,-111.43 886.15,-105.08"/>
</g>
</g>
</svg>
