<?xml version="1.0" encoding="UTF-8" standalone="no"?>
<!DOCTYPE svg PUBLIC "-//W3C//DTD SVG 1.1//EN"
 "http://www.w3.org/Graphics/SVG/1.1/DTD/svg11.dtd">
<!-- Generated by graphviz version 2.43.0 (0)
 -->
<!-- Title: keyb_input_process Pages: 1 -->
<svg width="321pt" height="66pt"
 viewBox="0.00 0.00 321.00 66.00" xmlns="http://www.w3.org/2000/svg" xmlns:xlink="http://www.w3.org/1999/xlink">
<g id="graph0" class="graph" transform="scale(1 1) rotate(0) translate(4 62)">
<title>keyb_input_process</title>
<polygon fill="white" stroke="transparent" points="-4,4 -4,-62 317,-62 317,4 -4,4"/>
<!-- Node1 -->
<g id="node1" class="node">
<title>Node1</title>
<g id="a_node1"><a xlink:title="Execute the processor for layer 2 received input.">
<polygon fill="#bfbfbf" stroke="black" points="0,-19.5 0,-38.5 113,-38.5 113,-19.5 0,-19.5"/>
<text text-anchor="middle" x="56.5" y="-26.5" font-family="FreeSans" font-size="10.00">keyb_input_process</text>
</a>
</g>
</g>
<!-- Node2 -->
<g id="node2" class="node">
<title>Node2</title>
<g id="a_node2"><a xlink:href="keyb__scancode_8h.html#a652e66c51e41e9cdc9e1314532fc5cea" target="_top" xlink:title="Translate a byte from the keyboard to an actual character.">
<polygon fill="white" stroke="black" points="160,-38.5 160,-57.5 302,-57.5 302,-38.5 160,-38.5"/>
<text text-anchor="middle" x="231" y="-45.5" font-family="FreeSans" font-size="10.00">keyb_translateInputToKey</text>
</a>
</g>
</g>
<!-- Node1&#45;&gt;Node2 -->
<g id="edge1" class="edge">
<title>Node1&#45;&gt;Node2</title>
<path fill="none" stroke="midnightblue" d="M113.03,-35.12C124.65,-36.4 137.12,-37.77 149.44,-39.13"/>
<polygon fill="midnightblue" stroke="midnightblue" points="149.41,-42.64 159.73,-40.26 150.17,-35.69 149.41,-42.64"/>
</g>
<!-- Node3 -->
<g id="node3" class="node">
<title>Node3</title>
<g id="a_node3"><a xlink:href="keyb__scancode_8h.html#a4bfb3273017df20ae0b77fe5c803f52d" target="_top" xlink:title="Translate a byte from the keyboard to the respective key type.">
<polygon fill="white" stroke="black" points="149,-0.5 149,-19.5 313,-19.5 313,-0.5 149,-0.5"/>
<text text-anchor="middle" x="231" y="-7.5" font-family="FreeSans" font-size="10.00">keyb_translateInputToKeyType</text>
</a>
</g>
</g>
<!-- Node1&#45;&gt;Node3 -->
<g id="edge2" class="edge">
<title>Node1&#45;&gt;Node3</title>
<path fill="none" stroke="midnightblue" d="M113.03,-22.88C121.33,-21.97 130.07,-21.01 138.87,-20.04"/>
<polygon fill="midnightblue" stroke="midnightblue" points="139.27,-23.51 148.82,-18.94 138.5,-16.56 139.27,-23.51"/>
</g>
</g>
</svg>
