<?xml version="1.0" encoding="UTF-8" standalone="no"?>
<!DOCTYPE svg PUBLIC "-//W3C//DTD SVG 1.1//EN"
 "http://www.w3.org/Graphics/SVG/1.1/DTD/svg11.dtd">
<!-- Generated by graphviz version 2.43.0 (0)
 -->
<!-- Title: lcd.c Pages: 1 -->
<svg width="516pt" height="252pt"
 viewBox="0.00 0.00 515.56 252.00" xmlns="http://www.w3.org/2000/svg" xmlns:xlink="http://www.w3.org/1999/xlink">
<g id="graph0" class="graph" transform="scale(1 1) rotate(0) translate(4 248)">
<title>lcd.c</title>
<polygon fill="white" stroke="transparent" points="-4,4 -4,-248 511.56,-248 511.56,4 -4,4"/>
<!-- Node1 -->
<g id="node1" class="node">
<title>Node1</title>
<g id="a_node1"><a xlink:title="Library for LCD use.">
<polygon fill="#bfbfbf" stroke="black" points="190.06,-224.5 190.06,-243.5 229.06,-243.5 229.06,-224.5 190.06,-224.5"/>
<text text-anchor="middle" x="209.56" y="-231.5" font-family="FreeSans" font-size="10.00">lcd.c</text>
</a>
</g>
</g>
<!-- Node2 -->
<g id="node2" class="node">
<title>Node2</title>
<g id="a_node2"><a xlink:href="lcd_8h.html" target="_top" xlink:title="Library for LCD use.">
<polygon fill="white" stroke="black" points="141.56,-168.5 141.56,-187.5 181.56,-187.5 181.56,-168.5 141.56,-168.5"/>
<text text-anchor="middle" x="161.56" y="-175.5" font-family="FreeSans" font-size="10.00">lcd.h</text>
</a>
</g>
</g>
<!-- Node1&#45;&gt;Node2 -->
<g id="edge1" class="edge">
<title>Node1&#45;&gt;Node2</title>
<path fill="none" stroke="midnightblue" d="M201.63,-224.08C194.71,-216.3 184.49,-204.8 176.11,-195.37"/>
<polygon fill="midnightblue" stroke="midnightblue" points="178.6,-192.9 169.34,-187.75 173.37,-197.55 178.6,-192.9"/>
</g>
<!-- Node5 -->
<g id="node5" class="node">
<title>Node5</title>
<g id="a_node5"><a xlink:title=" ">
<polygon fill="white" stroke="#bfbfbf" points="307.56,-112.5 307.56,-131.5 357.56,-131.5 357.56,-112.5 307.56,-112.5"/>
<text text-anchor="middle" x="332.56" y="-119.5" font-family="FreeSans" font-size="10.00">stdio.h</text>
</a>
</g>
</g>
<!-- Node1&#45;&gt;Node5 -->
<g id="edge14" class="edge">
<title>Node1&#45;&gt;Node5</title>
<path fill="none" stroke="midnightblue" d="M209.82,-224.32C210.69,-210.7 214.24,-184.21 228.56,-168 238.2,-157.08 271.49,-143.74 297.84,-134.43"/>
<polygon fill="midnightblue" stroke="midnightblue" points="299.23,-137.65 307.53,-131.07 296.94,-131.04 299.23,-137.65"/>
</g>
<!-- Node9 -->
<g id="node9" class="node">
<title>Node9</title>
<g id="a_node9"><a xlink:title=" ">
<polygon fill="white" stroke="#bfbfbf" points="136.06,-0.5 136.06,-19.5 189.06,-19.5 189.06,-0.5 136.06,-0.5"/>
<text text-anchor="middle" x="162.56" y="-7.5" font-family="FreeSans" font-size="10.00">avr/io.h</text>
</a>
</g>
</g>
<!-- Node1&#45;&gt;Node9 -->
<g id="edge16" class="edge">
<title>Node1&#45;&gt;Node9</title>
<path fill="none" stroke="midnightblue" d="M189.98,-225.9C145.65,-208.57 38.7,-159.27 3.56,-76 -17.64,-25.77 72.52,-14.13 125.81,-11.58"/>
<polygon fill="midnightblue" stroke="midnightblue" points="126.07,-15.08 135.93,-11.19 125.8,-8.08 126.07,-15.08"/>
</g>
<!-- Node10 -->
<g id="node10" class="node">
<title>Node10</title>
<g id="a_node10"><a xlink:href="util_8h.html" target="_top" xlink:title="Little helpers that don&#39;t fit elsewhere.">
<polygon fill="white" stroke="black" points="92.06,-112.5 92.06,-131.5 133.06,-131.5 133.06,-112.5 92.06,-112.5"/>
<text text-anchor="middle" x="112.56" y="-119.5" font-family="FreeSans" font-size="10.00">util.h</text>
</a>
</g>
</g>
<!-- Node1&#45;&gt;Node10 -->
<g id="edge13" class="edge">
<title>Node1&#45;&gt;Node10</title>
<path fill="none" stroke="midnightblue" d="M190.02,-226.3C172.55,-219.34 147.47,-206.81 132.56,-188 122.03,-174.71 117.02,-155.88 114.65,-141.9"/>
<polygon fill="midnightblue" stroke="midnightblue" points="118.11,-141.35 113.26,-131.93 111.17,-142.32 118.11,-141.35"/>
</g>
<!-- Node11 -->
<g id="node11" class="node">
<title>Node11</title>
<g id="a_node11"><a xlink:title=" ">
<polygon fill="white" stroke="#bfbfbf" points="237.56,-168.5 237.56,-187.5 323.56,-187.5 323.56,-168.5 237.56,-168.5"/>
<text text-anchor="middle" x="280.56" y="-175.5" font-family="FreeSans" font-size="10.00">avr/interrupt.h</text>
</a>
</g>
</g>
<!-- Node1&#45;&gt;Node11 -->
<g id="edge15" class="edge">
<title>Node1&#45;&gt;Node11</title>
<path fill="none" stroke="midnightblue" d="M220.97,-224.32C231.67,-216.18 247.9,-203.84 260.72,-194.09"/>
<polygon fill="midnightblue" stroke="midnightblue" points="263.1,-196.67 268.94,-187.83 258.87,-191.1 263.1,-196.67"/>
</g>
<!-- Node12 -->
<g id="node12" class="node">
<title>Node12</title>
<g id="a_node12"><a xlink:title=" ">
<polygon fill="white" stroke="#bfbfbf" points="341.56,-168.5 341.56,-187.5 419.56,-187.5 419.56,-168.5 341.56,-168.5"/>
<text text-anchor="middle" x="380.56" y="-175.5" font-family="FreeSans" font-size="10.00">util/atomic.h</text>
</a>
</g>
</g>
<!-- Node1&#45;&gt;Node12 -->
<g id="edge17" class="edge">
<title>Node1&#45;&gt;Node12</title>
<path fill="none" stroke="midnightblue" d="M229.17,-226.81C257.04,-218.01 308.6,-201.72 343.72,-190.63"/>
<polygon fill="midnightblue" stroke="midnightblue" points="345.13,-193.86 353.61,-187.51 343.02,-187.18 345.13,-193.86"/>
</g>
<!-- Node13 -->
<g id="node13" class="node">
<title>Node13</title>
<g id="a_node13"><a xlink:title=" ">
<polygon fill="white" stroke="#bfbfbf" points="437.56,-168.5 437.56,-187.5 507.56,-187.5 507.56,-168.5 437.56,-168.5"/>
<text text-anchor="middle" x="472.56" y="-175.5" font-family="FreeSans" font-size="10.00">util/delay.h</text>
</a>
</g>
</g>
<!-- Node1&#45;&gt;Node13 -->
<g id="edge18" class="edge">
<title>Node1&#45;&gt;Node13</title>
<path fill="none" stroke="midnightblue" d="M229.33,-228.94C271.14,-220.36 369.44,-200.17 427.47,-188.26"/>
<polygon fill="midnightblue" stroke="midnightblue" points="428.37,-191.65 437.46,-186.21 426.96,-184.79 428.37,-191.65"/>
</g>
<!-- Node3 -->
<g id="node3" class="node">
<title>Node3</title>
<g id="a_node3"><a xlink:title=" ">
<polygon fill="white" stroke="#bfbfbf" points="12.56,-56.5 12.56,-75.5 74.56,-75.5 74.56,-56.5 12.56,-56.5"/>
<text text-anchor="middle" x="43.56" y="-63.5" font-family="FreeSans" font-size="10.00">stdbool.h</text>
</a>
</g>
</g>
<!-- Node2&#45;&gt;Node3 -->
<g id="edge2" class="edge">
<title>Node2&#45;&gt;Node3</title>
<path fill="none" stroke="midnightblue" d="M141.53,-169.06C124.35,-161.49 99.71,-148.77 82.56,-132 68.63,-118.38 57.76,-98.77 51.08,-84.66"/>
<polygon fill="midnightblue" stroke="midnightblue" points="54.26,-83.2 46.97,-75.52 47.88,-86.07 54.26,-83.2"/>
</g>
<!-- Node4 -->
<g id="node4" class="node">
<title>Node4</title>
<g id="a_node4"><a xlink:title=" ">
<polygon fill="white" stroke="#bfbfbf" points="93.06,-56.5 93.06,-75.5 146.06,-75.5 146.06,-56.5 93.06,-56.5"/>
<text text-anchor="middle" x="119.56" y="-63.5" font-family="FreeSans" font-size="10.00">stdint.h</text>
</a>
</g>
</g>
<!-- Node2&#45;&gt;Node4 -->
<g id="edge3" class="edge">
<title>Node2&#45;&gt;Node4</title>
<path fill="none" stroke="midnightblue" d="M159.38,-168.44C156.09,-155.87 149.37,-131.76 141.56,-112 137.92,-102.8 133.17,-92.89 129.02,-84.72"/>
<polygon fill="midnightblue" stroke="midnightblue" points="132.08,-83.03 124.36,-75.78 125.88,-86.27 132.08,-83.03"/>
</g>
<!-- Node2&#45;&gt;Node5 -->
<g id="edge4" class="edge">
<title>Node2&#45;&gt;Node5</title>
<path fill="none" stroke="midnightblue" d="M181.85,-170.59C210.35,-161.59 262.66,-145.07 297.53,-134.06"/>
<polygon fill="midnightblue" stroke="midnightblue" points="298.83,-137.32 307.31,-130.97 296.72,-130.65 298.83,-137.32"/>
</g>
<!-- Node6 -->
<g id="node6" class="node">
<title>Node6</title>
<g id="a_node6"><a xlink:title=" ">
<polygon fill="white" stroke="#bfbfbf" points="164.06,-56.5 164.06,-75.5 259.06,-75.5 259.06,-56.5 164.06,-56.5"/>
<text text-anchor="middle" x="211.56" y="-63.5" font-family="FreeSans" font-size="10.00">avr/pgmspace.h</text>
</a>
</g>
</g>
<!-- Node2&#45;&gt;Node6 -->
<g id="edge5" class="edge">
<title>Node2&#45;&gt;Node6</title>
<path fill="none" stroke="midnightblue" d="M165.48,-168.37C173.62,-150.46 192.5,-108.92 203.4,-84.95"/>
<polygon fill="midnightblue" stroke="midnightblue" points="206.7,-86.14 207.65,-75.59 200.33,-83.25 206.7,-86.14"/>
</g>
<!-- Node7 -->
<g id="node7" class="node">
<title>Node7</title>
<g id="a_node7"><a xlink:href="defines_8h.html" target="_top" xlink:title="Simple definitions and assembler&#45;macros, mostly 8/16&#45;Bit values.">
<polygon fill="white" stroke="black" points="228.06,-112.5 228.06,-131.5 289.06,-131.5 289.06,-112.5 228.06,-112.5"/>
<text text-anchor="middle" x="258.56" y="-119.5" font-family="FreeSans" font-size="10.00">defines.h</text>
</a>
</g>
</g>
<!-- Node2&#45;&gt;Node7 -->
<g id="edge6" class="edge">
<title>Node2&#45;&gt;Node7</title>
<path fill="none" stroke="midnightblue" d="M177.14,-168.32C192.56,-159.74 216.37,-146.49 234.27,-136.52"/>
<polygon fill="midnightblue" stroke="midnightblue" points="235.98,-139.58 243.01,-131.65 232.57,-133.46 235.98,-139.58"/>
</g>
<!-- Node2&#45;&gt;Node10 -->
<g id="edge9" class="edge">
<title>Node2&#45;&gt;Node10</title>
<path fill="none" stroke="midnightblue" d="M153.47,-168.08C146.4,-160.3 135.97,-148.8 127.41,-139.37"/>
<polygon fill="midnightblue" stroke="midnightblue" points="129.81,-136.8 120.5,-131.75 124.63,-141.51 129.81,-136.8"/>
</g>
<!-- Node8 -->
<g id="node8" class="node">
<title>Node8</title>
<g id="a_node8"><a xlink:href="atmega644constants_8h.html" target="_top" xlink:title="Constants for ATMega644 and EVA board. Defines several useful constants for the ATMega644.">
<polygon fill="white" stroke="black" points="277.56,-56.5 277.56,-75.5 405.56,-75.5 405.56,-56.5 277.56,-56.5"/>
<text text-anchor="middle" x="341.56" y="-63.5" font-family="FreeSans" font-size="10.00">atmega644constants.h</text>
</a>
</g>
</g>
<!-- Node7&#45;&gt;Node8 -->
<g id="edge7" class="edge">
<title>Node7&#45;&gt;Node8</title>
<path fill="none" stroke="midnightblue" d="M271.89,-112.32C284.72,-103.98 304.34,-91.21 319.5,-81.35"/>
<polygon fill="midnightblue" stroke="midnightblue" points="321.78,-84.04 328.26,-75.65 317.97,-78.17 321.78,-84.04"/>
</g>
<!-- Node8&#45;&gt;Node9 -->
<g id="edge8" class="edge">
<title>Node8&#45;&gt;Node9</title>
<path fill="none" stroke="midnightblue" d="M313.2,-56.44C282.37,-47.15 233.02,-32.26 199.27,-22.07"/>
<polygon fill="midnightblue" stroke="midnightblue" points="199.91,-18.61 189.33,-19.08 197.89,-25.31 199.91,-18.61"/>
</g>
<!-- Node10&#45;&gt;Node3 -->
<g id="edge11" class="edge">
<title>Node10&#45;&gt;Node3</title>
<path fill="none" stroke="midnightblue" d="M101.47,-112.32C91.07,-104.18 75.3,-91.84 62.84,-82.09"/>
<polygon fill="midnightblue" stroke="midnightblue" points="64.88,-79.24 54.85,-75.83 60.56,-84.75 64.88,-79.24"/>
</g>
<!-- Node10&#45;&gt;Node4 -->
<g id="edge10" class="edge">
<title>Node10&#45;&gt;Node4</title>
<path fill="none" stroke="midnightblue" d="M113.71,-112.08C114.64,-104.93 115.98,-94.64 117.14,-85.69"/>
<polygon fill="midnightblue" stroke="midnightblue" points="120.61,-86.12 118.42,-75.75 113.67,-85.22 120.61,-86.12"/>
</g>
<!-- Node10&#45;&gt;Node6 -->
<g id="edge12" class="edge">
<title>Node10&#45;&gt;Node6</title>
<path fill="none" stroke="midnightblue" d="M128.47,-112.32C144.2,-103.74 168.5,-90.49 186.77,-80.52"/>
<polygon fill="midnightblue" stroke="midnightblue" points="188.59,-83.52 195.69,-75.65 185.24,-77.37 188.59,-83.52"/>
</g>
</g>
</svg>
