<?xml version="1.0" encoding="UTF-8" standalone="no"?>
<!DOCTYPE svg PUBLIC "-//W3C//DTD SVG 1.1//EN"
 "http://www.w3.org/Graphics/SVG/1.1/DTD/svg11.dtd">
<!-- Generated by graphviz version 2.43.0 (0)
 -->
<!-- Title: lcd_writeHex Pages: 1 -->
<svg width="355pt" height="47pt"
 viewBox="0.00 0.00 355.00 47.00" xmlns="http://www.w3.org/2000/svg" xmlns:xlink="http://www.w3.org/1999/xlink">
<g id="graph0" class="graph" transform="scale(1 1) rotate(0) translate(4 43)">
<title>lcd_writeHex</title>
<polygon fill="white" stroke="transparent" points="-4,4 -4,-43 351,-43 351,4 -4,4"/>
<!-- Node1 -->
<g id="node1" class="node">
<title>Node1</title>
<g id="a_node1"><a xlink:title="Write one hexadecimal word without prefixes.">
<polygon fill="#bfbfbf" stroke="black" points="0,-19.5 0,-38.5 80,-38.5 80,-19.5 0,-19.5"/>
<text text-anchor="middle" x="40" y="-26.5" font-family="FreeSans" font-size="10.00">lcd_writeHex</text>
</a>
</g>
</g>
<!-- Node2 -->
<g id="node2" class="node">
<title>Node2</title>
<g id="a_node2"><a xlink:href="lcd_8c.html#a93cd5600fa3b27381a4cf57d21f27ebf" target="_top" xlink:title="Write one character.">
<polygon fill="white" stroke="black" points="264,-19.5 264,-38.5 347,-38.5 347,-19.5 264,-19.5"/>
<text text-anchor="middle" x="305.5" y="-26.5" font-family="FreeSans" font-size="10.00">lcd_writeChar</text>
</a>
</g>
</g>
<!-- Node1&#45;&gt;Node2 -->
<g id="edge1" class="edge">
<title>Node1&#45;&gt;Node2</title>
<path fill="none" stroke="midnightblue" d="M80.16,-29C126.3,-29 203.07,-29 253.74,-29"/>
<polygon fill="midnightblue" stroke="midnightblue" points="253.82,-32.5 263.82,-29 253.82,-25.5 253.82,-32.5"/>
</g>
<!-- Node3 -->
<g id="node3" class="node">
<title>Node3</title>
<g id="a_node3"><a xlink:href="lcd_8c.html#a01b53b89b0c268d2324d86f3fe33405d" target="_top" xlink:title="Write a half&#45;byte (a nibble)">
<polygon fill="white" stroke="black" points="116,-0.5 116,-19.5 228,-19.5 228,-0.5 116,-0.5"/>
<text text-anchor="middle" x="172" y="-7.5" font-family="FreeSans" font-size="10.00">lcd_writeHexNibble</text>
</a>
</g>
</g>
<!-- Node1&#45;&gt;Node3 -->
<g id="edge2" class="edge">
<title>Node1&#45;&gt;Node3</title>
<path fill="none" stroke="midnightblue" d="M80,-23.3C88.16,-22.11 96.96,-20.82 105.77,-19.53"/>
<polygon fill="midnightblue" stroke="midnightblue" points="106.29,-22.99 115.68,-18.08 105.28,-16.07 106.29,-22.99"/>
</g>
<!-- Node3&#45;&gt;Node2 -->
<g id="edge3" class="edge">
<title>Node3&#45;&gt;Node2</title>
<path fill="none" stroke="midnightblue" d="M228.01,-17.95C236.51,-19.18 245.26,-20.44 253.67,-21.66"/>
<polygon fill="midnightblue" stroke="midnightblue" points="253.32,-25.14 263.72,-23.11 254.32,-18.21 253.32,-25.14"/>
</g>
</g>
</svg>
