<?xml version="1.0" encoding="UTF-8" standalone="no"?>
<!DOCTYPE svg PUBLIC "-//W3C//DTD SVG 1.1//EN"
 "http://www.w3.org/Graphics/SVG/1.1/DTD/svg11.dtd">
<!-- Generated by graphviz version 2.43.0 (0)
 -->
<!-- Title: os_scheduler.c Pages: 1 -->
<svg width="937pt" height="364pt"
 viewBox="0.00 0.00 937.00 364.00" xmlns="http://www.w3.org/2000/svg" xmlns:xlink="http://www.w3.org/1999/xlink">
<g id="graph0" class="graph" transform="scale(1 1) rotate(0) translate(4 360)">
<title>os_scheduler.c</title>
<polygon fill="white" stroke="transparent" points="-4,4 -4,-360 933,-360 933,4 -4,4"/>
<!-- Node1 -->
<g id="node1" class="node">
<title>Node1</title>
<g id="a_node1"><a xlink:title="Scheduling module for the OS.">
<polygon fill="#bfbfbf" stroke="black" points="418.5,-336.5 418.5,-355.5 506.5,-355.5 506.5,-336.5 418.5,-336.5"/>
<text text-anchor="middle" x="462.5" y="-343.5" font-family="FreeSans" font-size="10.00">os_scheduler.c</text>
</a>
</g>
</g>
<!-- Node2 -->
<g id="node2" class="node">
<title>Node2</title>
<g id="a_node2"><a xlink:href="os__scheduler_8h.html" target="_top" xlink:title="Scheduling module for the OS.">
<polygon fill="white" stroke="black" points="380,-224.5 380,-243.5 469,-243.5 469,-224.5 380,-224.5"/>
<text text-anchor="middle" x="424.5" y="-231.5" font-family="FreeSans" font-size="10.00">os_scheduler.h</text>
</a>
</g>
</g>
<!-- Node1&#45;&gt;Node2 -->
<g id="edge1" class="edge">
<title>Node1&#45;&gt;Node2</title>
<path fill="none" stroke="midnightblue" d="M459.52,-336.37C453.36,-318.54 439.11,-277.3 430.81,-253.27"/>
<polygon fill="midnightblue" stroke="midnightblue" points="434.04,-251.9 427.47,-243.59 427.43,-254.19 434.04,-251.9"/>
</g>
<!-- Node3 -->
<g id="node3" class="node">
<title>Node3</title>
<g id="a_node3"><a xlink:title=" ">
<polygon fill="white" stroke="#bfbfbf" points="154.5,-112.5 154.5,-131.5 216.5,-131.5 216.5,-112.5 154.5,-112.5"/>
<text text-anchor="middle" x="185.5" y="-119.5" font-family="FreeSans" font-size="10.00">stdbool.h</text>
</a>
</g>
</g>
<!-- Node1&#45;&gt;Node3 -->
<g id="edge40" class="edge">
<title>Node1&#45;&gt;Node3</title>
<path fill="none" stroke="midnightblue" d="M418.3,-338.17C347.2,-324.44 210.38,-285.94 160.5,-188 152.48,-172.24 161.78,-153.28 171.23,-139.91"/>
<polygon fill="midnightblue" stroke="midnightblue" points="174.26,-141.72 177.59,-131.66 168.71,-137.44 174.26,-141.72"/>
</g>
<!-- Node9 -->
<g id="node9" class="node">
<title>Node9</title>
<g id="a_node9"><a xlink:href="util_8h.html" target="_top" xlink:title="Little helpers that don&#39;t fit elsewhere.">
<polygon fill="white" stroke="black" points="354,-168.5 354,-187.5 395,-187.5 395,-168.5 354,-168.5"/>
<text text-anchor="middle" x="374.5" y="-175.5" font-family="FreeSans" font-size="10.00">util.h</text>
</a>
</g>
</g>
<!-- Node1&#45;&gt;Node9 -->
<g id="edge9" class="edge">
<title>Node1&#45;&gt;Node9</title>
<path fill="none" stroke="midnightblue" d="M450.35,-336.42C429.47,-320.85 387.49,-285.64 371.5,-244 365.8,-229.17 367.27,-211.02 369.75,-197.67"/>
<polygon fill="midnightblue" stroke="midnightblue" points="373.2,-198.29 371.94,-187.77 366.36,-196.78 373.2,-198.29"/>
</g>
<!-- Node11 -->
<g id="node11" class="node">
<title>Node11</title>
<g id="a_node11"><a xlink:href="os__input_8h.html" target="_top" xlink:title="Input library for the OS.">
<polygon fill="white" stroke="black" points="256,-224.5 256,-243.5 323,-243.5 323,-224.5 256,-224.5"/>
<text text-anchor="middle" x="289.5" y="-231.5" font-family="FreeSans" font-size="10.00">os_input.h</text>
</a>
</g>
</g>
<!-- Node1&#45;&gt;Node11 -->
<g id="edge13" class="edge">
<title>Node1&#45;&gt;Node11</title>
<path fill="none" stroke="midnightblue" d="M420.41,-336.43C394.63,-329.67 362.01,-318.25 337.5,-300 320.68,-287.47 307.14,-267.41 298.78,-252.88"/>
<polygon fill="midnightblue" stroke="midnightblue" points="301.72,-250.96 293.84,-243.87 295.58,-254.33 301.72,-250.96"/>
</g>
<!-- Node12 -->
<g id="node12" class="node">
<title>Node12</title>
<g id="a_node12"><a xlink:href="os__scheduling__strategies_8h.html" target="_top" xlink:title="Scheduling library for the OS.">
<polygon fill="white" stroke="black" points="528,-280.5 528,-299.5 677,-299.5 677,-280.5 528,-280.5"/>
<text text-anchor="middle" x="602.5" y="-287.5" font-family="FreeSans" font-size="10.00">os_scheduling_strategies.h</text>
</a>
</g>
</g>
<!-- Node1&#45;&gt;Node12 -->
<g id="edge15" class="edge">
<title>Node1&#45;&gt;Node12</title>
<path fill="none" stroke="midnightblue" d="M484.68,-336.44C507.93,-327.48 544.65,-313.31 570.92,-303.18"/>
<polygon fill="midnightblue" stroke="midnightblue" points="572.35,-306.38 580.42,-299.52 569.83,-299.85 572.35,-306.38"/>
</g>
<!-- Node13 -->
<g id="node13" class="node">
<title>Node13</title>
<g id="a_node13"><a xlink:href="os__taskman_8h.html" target="_top" xlink:title="TaskManager library for the OS.">
<polygon fill="white" stroke="black" points="0,-280.5 0,-299.5 85,-299.5 85,-280.5 0,-280.5"/>
<text text-anchor="middle" x="42.5" y="-287.5" font-family="FreeSans" font-size="10.00">os_taskman.h</text>
</a>
</g>
</g>
<!-- Node1&#45;&gt;Node13 -->
<g id="edge18" class="edge">
<title>Node1&#45;&gt;Node13</title>
<path fill="none" stroke="midnightblue" d="M418.29,-340C349.88,-332.15 214.26,-316.17 99.5,-300 98.04,-299.79 96.57,-299.58 95.07,-299.37"/>
<polygon fill="midnightblue" stroke="midnightblue" points="95.52,-295.9 85.12,-297.89 94.5,-302.82 95.52,-295.9"/>
</g>
<!-- Node14 -->
<g id="node14" class="node">
<title>Node14</title>
<g id="a_node14"><a xlink:href="os__core_8h.html" target="_top" xlink:title="Core of the OS.">
<polygon fill="white" stroke="black" points="568,-224.5 568,-243.5 631,-243.5 631,-224.5 568,-224.5"/>
<text text-anchor="middle" x="599.5" y="-231.5" font-family="FreeSans" font-size="10.00">os_core.h</text>
</a>
</g>
</g>
<!-- Node1&#45;&gt;Node14 -->
<g id="edge20" class="edge">
<title>Node1&#45;&gt;Node14</title>
<path fill="none" stroke="midnightblue" d="M468.72,-336.16C478.43,-322.8 498.29,-297.21 519.5,-280 535.18,-267.28 554.93,-256.13 570.89,-248.11"/>
<polygon fill="midnightblue" stroke="midnightblue" points="572.81,-251.06 580.26,-243.53 569.74,-244.77 572.81,-251.06"/>
</g>
<!-- Node15 -->
<g id="node15" class="node">
<title>Node15</title>
<g id="a_node15"><a xlink:href="lcd_8h.html" target="_top" xlink:title="Library for LCD use.">
<polygon fill="white" stroke="black" points="487.5,-224.5 487.5,-243.5 527.5,-243.5 527.5,-224.5 487.5,-224.5"/>
<text text-anchor="middle" x="507.5" y="-231.5" font-family="FreeSans" font-size="10.00">lcd.h</text>
</a>
</g>
</g>
<!-- Node1&#45;&gt;Node15 -->
<g id="edge22" class="edge">
<title>Node1&#45;&gt;Node15</title>
<path fill="none" stroke="midnightblue" d="M465.39,-336.5C469.69,-324 478.16,-299.98 486.5,-280 490.32,-270.84 494.96,-260.81 498.9,-252.55"/>
<polygon fill="midnightblue" stroke="midnightblue" points="502.06,-254.06 503.26,-243.53 495.75,-251.01 502.06,-254.06"/>
</g>
<!-- Node17 -->
<g id="node17" class="node">
<title>Node17</title>
<g id="a_node17"><a xlink:href="os__memheap__drivers_8h.html" target="_top" xlink:title="Drivers for OS heap management.">
<polygon fill="white" stroke="black" points="710,-224.5 710,-243.5 841,-243.5 841,-224.5 710,-224.5"/>
<text text-anchor="middle" x="775.5" y="-231.5" font-family="FreeSans" font-size="10.00">os_memheap_drivers.h</text>
</a>
</g>
</g>
<!-- Node1&#45;&gt;Node17 -->
<g id="edge29" class="edge">
<title>Node1&#45;&gt;Node17</title>
<path fill="none" stroke="midnightblue" d="M506.7,-341.77C553.15,-337.1 627.5,-325.96 686.5,-300 714.24,-287.79 741.72,-265.81 758.65,-250.82"/>
<polygon fill="midnightblue" stroke="midnightblue" points="761.43,-253.02 766.48,-243.71 756.73,-247.84 761.43,-253.02"/>
</g>
<!-- Node21 -->
<g id="node21" class="node">
<title>Node21</title>
<g id="a_node21"><a xlink:href="os__memory_8h.html" target="_top" xlink:title="Library for OS memory management.">
<polygon fill="white" stroke="black" points="732.5,-280.5 732.5,-299.5 814.5,-299.5 814.5,-280.5 732.5,-280.5"/>
<text text-anchor="middle" x="773.5" y="-287.5" font-family="FreeSans" font-size="10.00">os_memory.h</text>
</a>
</g>
</g>
<!-- Node1&#45;&gt;Node21 -->
<g id="edge35" class="edge">
<title>Node1&#45;&gt;Node21</title>
<path fill="none" stroke="midnightblue" d="M506.73,-337.32C563.64,-327.44 662.31,-310.31 722.38,-299.88"/>
<polygon fill="midnightblue" stroke="midnightblue" points="723.15,-303.3 732.4,-298.14 721.95,-296.4 723.15,-303.3"/>
</g>
<!-- Node22 -->
<g id="node22" class="node">
<title>Node22</title>
<g id="a_node22"><a xlink:title=" ">
<polygon fill="white" stroke="#bfbfbf" points="832.5,-280.5 832.5,-299.5 918.5,-299.5 918.5,-280.5 832.5,-280.5"/>
<text text-anchor="middle" x="875.5" y="-287.5" font-family="FreeSans" font-size="10.00">avr/interrupt.h</text>
</a>
</g>
</g>
<!-- Node1&#45;&gt;Node22 -->
<g id="edge39" class="edge">
<title>Node1&#45;&gt;Node22</title>
<path fill="none" stroke="midnightblue" d="M506.77,-340.17C573.07,-332.77 702.33,-317.79 822.3,-300.12"/>
<polygon fill="midnightblue" stroke="midnightblue" points="823.02,-303.55 832.4,-298.62 821.99,-296.63 823.02,-303.55"/>
</g>
<!-- Node2&#45;&gt;Node3 -->
<g id="edge2" class="edge">
<title>Node2&#45;&gt;Node3</title>
<path fill="none" stroke="midnightblue" d="M379.8,-228.2C310.53,-220.3 183.81,-203.87 170.5,-188 159.38,-174.73 166.36,-154.79 174.1,-140.5"/>
<polygon fill="midnightblue" stroke="midnightblue" points="177.25,-142.04 179.36,-131.66 171.24,-138.46 177.25,-142.04"/>
</g>
<!-- Node4 -->
<g id="node4" class="node">
<title>Node4</title>
<g id="a_node4"><a xlink:href="defines_8h.html" target="_top" xlink:title="Simple definitions and assembler&#45;macros, mostly 8/16&#45;Bit values.">
<polygon fill="white" stroke="black" points="651,-112.5 651,-131.5 712,-131.5 712,-112.5 651,-112.5"/>
<text text-anchor="middle" x="681.5" y="-119.5" font-family="FreeSans" font-size="10.00">defines.h</text>
</a>
</g>
</g>
<!-- Node2&#45;&gt;Node4 -->
<g id="edge3" class="edge">
<title>Node2&#45;&gt;Node4</title>
<path fill="none" stroke="midnightblue" d="M434.51,-224.36C450.96,-210.57 485.25,-183.54 518.5,-168 558.27,-149.41 607.19,-137.19 641.01,-130.23"/>
<polygon fill="midnightblue" stroke="midnightblue" points="641.87,-133.63 650.99,-128.24 640.5,-126.76 641.87,-133.63"/>
</g>
<!-- Node7 -->
<g id="node7" class="node">
<title>Node7</title>
<g id="a_node7"><a xlink:href="os__process_8h.html" target="_top" xlink:title="Struct specifying a process.">
<polygon fill="white" stroke="black" points="179.5,-168.5 179.5,-187.5 259.5,-187.5 259.5,-168.5 179.5,-168.5"/>
<text text-anchor="middle" x="219.5" y="-175.5" font-family="FreeSans" font-size="10.00">os_process.h</text>
</a>
</g>
</g>
<!-- Node2&#45;&gt;Node7 -->
<g id="edge6" class="edge">
<title>Node2&#45;&gt;Node7</title>
<path fill="none" stroke="midnightblue" d="M392.02,-224.44C356.78,-215.16 300.4,-200.31 261.74,-190.13"/>
<polygon fill="midnightblue" stroke="midnightblue" points="262.39,-186.68 251.83,-187.52 260.61,-193.45 262.39,-186.68"/>
</g>
<!-- Node5 -->
<g id="node5" class="node">
<title>Node5</title>
<g id="a_node5"><a xlink:href="atmega644constants_8h.html" target="_top" xlink:title="Constants for ATMega644 and EVA board. Defines several useful constants for the ATMega644.">
<polygon fill="white" stroke="black" points="617.5,-56.5 617.5,-75.5 745.5,-75.5 745.5,-56.5 617.5,-56.5"/>
<text text-anchor="middle" x="681.5" y="-63.5" font-family="FreeSans" font-size="10.00">atmega644constants.h</text>
</a>
</g>
</g>
<!-- Node4&#45;&gt;Node5 -->
<g id="edge4" class="edge">
<title>Node4&#45;&gt;Node5</title>
<path fill="none" stroke="midnightblue" d="M681.5,-112.08C681.5,-105.01 681.5,-94.86 681.5,-85.99"/>
<polygon fill="midnightblue" stroke="midnightblue" points="685,-85.75 681.5,-75.75 678,-85.75 685,-85.75"/>
</g>
<!-- Node6 -->
<g id="node6" class="node">
<title>Node6</title>
<g id="a_node6"><a xlink:title=" ">
<polygon fill="white" stroke="#bfbfbf" points="655,-0.5 655,-19.5 708,-19.5 708,-0.5 655,-0.5"/>
<text text-anchor="middle" x="681.5" y="-7.5" font-family="FreeSans" font-size="10.00">avr/io.h</text>
</a>
</g>
</g>
<!-- Node5&#45;&gt;Node6 -->
<g id="edge5" class="edge">
<title>Node5&#45;&gt;Node6</title>
<path fill="none" stroke="midnightblue" d="M681.5,-56.08C681.5,-49.01 681.5,-38.86 681.5,-29.99"/>
<polygon fill="midnightblue" stroke="midnightblue" points="685,-29.75 681.5,-19.75 678,-29.75 685,-29.75"/>
</g>
<!-- Node7&#45;&gt;Node3 -->
<g id="edge8" class="edge">
<title>Node7&#45;&gt;Node3</title>
<path fill="none" stroke="midnightblue" d="M213.89,-168.08C209.13,-160.53 202.18,-149.49 196.35,-140.23"/>
<polygon fill="midnightblue" stroke="midnightblue" points="199.3,-138.35 191.01,-131.75 193.38,-142.08 199.3,-138.35"/>
</g>
<!-- Node8 -->
<g id="node8" class="node">
<title>Node8</title>
<g id="a_node8"><a xlink:title=" ">
<polygon fill="white" stroke="#bfbfbf" points="323,-112.5 323,-131.5 376,-131.5 376,-112.5 323,-112.5"/>
<text text-anchor="middle" x="349.5" y="-119.5" font-family="FreeSans" font-size="10.00">stdint.h</text>
</a>
</g>
</g>
<!-- Node7&#45;&gt;Node8 -->
<g id="edge7" class="edge">
<title>Node7&#45;&gt;Node8</title>
<path fill="none" stroke="midnightblue" d="M240.1,-168.44C261.49,-159.56 295.18,-145.56 319.52,-135.45"/>
<polygon fill="midnightblue" stroke="midnightblue" points="321.11,-138.58 329,-131.52 318.42,-132.12 321.11,-138.58"/>
</g>
<!-- Node9&#45;&gt;Node3 -->
<g id="edge11" class="edge">
<title>Node9&#45;&gt;Node3</title>
<path fill="none" stroke="midnightblue" d="M353.91,-171.12C323.11,-162.32 264.45,-145.56 225.15,-134.33"/>
<polygon fill="midnightblue" stroke="midnightblue" points="225.93,-130.91 215.35,-131.53 224.01,-137.64 225.93,-130.91"/>
</g>
<!-- Node9&#45;&gt;Node8 -->
<g id="edge10" class="edge">
<title>Node9&#45;&gt;Node8</title>
<path fill="none" stroke="midnightblue" d="M370.37,-168.08C366.99,-160.77 362.08,-150.18 357.88,-141.1"/>
<polygon fill="midnightblue" stroke="midnightblue" points="360.93,-139.36 353.55,-131.75 354.58,-142.3 360.93,-139.36"/>
</g>
<!-- Node10 -->
<g id="node10" class="node">
<title>Node10</title>
<g id="a_node10"><a xlink:title=" ">
<polygon fill="white" stroke="#bfbfbf" points="452,-112.5 452,-131.5 547,-131.5 547,-112.5 452,-112.5"/>
<text text-anchor="middle" x="499.5" y="-119.5" font-family="FreeSans" font-size="10.00">avr/pgmspace.h</text>
</a>
</g>
</g>
<!-- Node9&#45;&gt;Node10 -->
<g id="edge12" class="edge">
<title>Node9&#45;&gt;Node10</title>
<path fill="none" stroke="midnightblue" d="M394.31,-168.44C414.79,-159.6 446.98,-145.69 470.36,-135.59"/>
<polygon fill="midnightblue" stroke="midnightblue" points="471.99,-138.7 479.79,-131.52 469.22,-132.27 471.99,-138.7"/>
</g>
<!-- Node11&#45;&gt;Node8 -->
<g id="edge14" class="edge">
<title>Node11&#45;&gt;Node8</title>
<path fill="none" stroke="midnightblue" d="M294.21,-224.37C304.02,-206.38 326.84,-164.55 339.89,-140.63"/>
<polygon fill="midnightblue" stroke="midnightblue" points="343.1,-142.05 344.81,-131.59 336.95,-138.69 343.1,-142.05"/>
</g>
<!-- Node12&#45;&gt;Node2 -->
<g id="edge16" class="edge">
<title>Node12&#45;&gt;Node2</title>
<path fill="none" stroke="midnightblue" d="M574.3,-280.44C544.09,-271.28 495.99,-256.69 462.47,-246.52"/>
<polygon fill="midnightblue" stroke="midnightblue" points="463.16,-243.07 452.57,-243.52 461.13,-249.77 463.16,-243.07"/>
</g>
<!-- Node12&#45;&gt;Node4 -->
<g id="edge17" class="edge">
<title>Node12&#45;&gt;Node4</title>
<path fill="none" stroke="midnightblue" d="M611.45,-280.45C619.94,-271.91 632.56,-258.07 640.5,-244 659.6,-210.17 671.76,-165.98 677.53,-141.45"/>
<polygon fill="midnightblue" stroke="midnightblue" points="680.95,-142.2 679.74,-131.67 674.12,-140.66 680.95,-142.2"/>
</g>
<!-- Node13&#45;&gt;Node3 -->
<g id="edge19" class="edge">
<title>Node13&#45;&gt;Node3</title>
<path fill="none" stroke="midnightblue" d="M44.54,-280.28C49.98,-258.73 66.71,-202.19 99.5,-168 113.35,-153.56 132.84,-142.84 149.77,-135.49"/>
<polygon fill="midnightblue" stroke="midnightblue" points="151.46,-138.58 159.38,-131.55 148.8,-132.1 151.46,-138.58"/>
</g>
<!-- Node14&#45;&gt;Node10 -->
<g id="edge21" class="edge">
<title>Node14&#45;&gt;Node10</title>
<path fill="none" stroke="midnightblue" d="M600.02,-224.48C600.38,-211.09 599.24,-184.92 586.5,-168 575.04,-152.78 556.95,-142.27 540.23,-135.25"/>
<polygon fill="midnightblue" stroke="midnightblue" points="541.19,-131.87 530.6,-131.52 538.66,-138.4 541.19,-131.87"/>
</g>
<!-- Node15&#45;&gt;Node3 -->
<g id="edge23" class="edge">
<title>Node15&#45;&gt;Node3</title>
<path fill="none" stroke="midnightblue" d="M487.25,-226.61C484.32,-225.72 481.33,-224.82 478.5,-224 419.69,-206.92 403.53,-207.56 345.5,-188 298.58,-172.19 245.62,-149.73 213.93,-135.78"/>
<polygon fill="midnightblue" stroke="midnightblue" points="214.99,-132.42 204.43,-131.57 212.15,-138.82 214.99,-132.42"/>
</g>
<!-- Node15&#45;&gt;Node4 -->
<g id="edge27" class="edge">
<title>Node15&#45;&gt;Node4</title>
<path fill="none" stroke="midnightblue" d="M523.46,-224.41C539.58,-215.62 565.09,-201.39 586.5,-188 612.97,-171.44 642.52,-150.88 661.53,-137.37"/>
<polygon fill="midnightblue" stroke="midnightblue" points="663.61,-140.19 669.71,-131.53 659.54,-134.49 663.61,-140.19"/>
</g>
<!-- Node15&#45;&gt;Node8 -->
<g id="edge24" class="edge">
<title>Node15&#45;&gt;Node8</title>
<path fill="none" stroke="midnightblue" d="M495.1,-224.37C468.1,-205.57 403.75,-160.77 370.38,-137.53"/>
<polygon fill="midnightblue" stroke="midnightblue" points="372.05,-134.43 361.84,-131.59 368.05,-140.18 372.05,-134.43"/>
</g>
<!-- Node15&#45;&gt;Node9 -->
<g id="edge28" class="edge">
<title>Node15&#45;&gt;Node9</title>
<path fill="none" stroke="midnightblue" d="M487.3,-224.8C465.36,-215.89 430.07,-201.56 404.81,-191.3"/>
<polygon fill="midnightblue" stroke="midnightblue" points="405.91,-187.98 395.33,-187.46 403.28,-194.46 405.91,-187.98"/>
</g>
<!-- Node15&#45;&gt;Node10 -->
<g id="edge26" class="edge">
<title>Node15&#45;&gt;Node10</title>
<path fill="none" stroke="midnightblue" d="M506.87,-224.37C505.58,-206.62 502.6,-165.67 500.85,-141.6"/>
<polygon fill="midnightblue" stroke="midnightblue" points="504.34,-141.31 500.12,-131.59 497.36,-141.82 504.34,-141.31"/>
</g>
<!-- Node16 -->
<g id="node16" class="node">
<title>Node16</title>
<g id="a_node16"><a xlink:title=" ">
<polygon fill="white" stroke="#bfbfbf" points="527.5,-168.5 527.5,-187.5 577.5,-187.5 577.5,-168.5 527.5,-168.5"/>
<text text-anchor="middle" x="552.5" y="-175.5" font-family="FreeSans" font-size="10.00">stdio.h</text>
</a>
</g>
</g>
<!-- Node15&#45;&gt;Node16 -->
<g id="edge25" class="edge">
<title>Node15&#45;&gt;Node16</title>
<path fill="none" stroke="midnightblue" d="M514.93,-224.08C521.35,-216.38 530.81,-205.03 538.62,-195.65"/>
<polygon fill="midnightblue" stroke="midnightblue" points="541.49,-197.67 545.21,-187.75 536.12,-193.19 541.49,-197.67"/>
</g>
<!-- Node17&#45;&gt;Node4 -->
<g id="edge33" class="edge">
<title>Node17&#45;&gt;Node4</title>
<path fill="none" stroke="midnightblue" d="M768.12,-224.37C752.47,-206.05 715.72,-163.05 695.48,-139.36"/>
<polygon fill="midnightblue" stroke="midnightblue" points="698,-136.92 688.84,-131.59 692.68,-141.47 698,-136.92"/>
</g>
<!-- Node18 -->
<g id="node18" class="node">
<title>Node18</title>
<g id="a_node18"><a xlink:href="os__mem__drivers_8h.html" target="_top" xlink:title="Drivers for OS memory management.">
<polygon fill="white" stroke="black" points="822,-168.5 822,-187.5 929,-187.5 929,-168.5 822,-168.5"/>
<text text-anchor="middle" x="875.5" y="-175.5" font-family="FreeSans" font-size="10.00">os_mem_drivers.h</text>
</a>
</g>
</g>
<!-- Node17&#45;&gt;Node18 -->
<g id="edge30" class="edge">
<title>Node17&#45;&gt;Node18</title>
<path fill="none" stroke="midnightblue" d="M791.57,-224.32C807.46,-215.74 832.01,-202.49 850.46,-192.52"/>
<polygon fill="midnightblue" stroke="midnightblue" points="852.34,-195.49 859.47,-187.65 849.01,-189.33 852.34,-195.49"/>
</g>
<!-- Node20 -->
<g id="node20" class="node">
<title>Node20</title>
<g id="a_node20"><a xlink:title=" ">
<polygon fill="white" stroke="#bfbfbf" points="747.5,-168.5 747.5,-187.5 803.5,-187.5 803.5,-168.5 747.5,-168.5"/>
<text text-anchor="middle" x="775.5" y="-175.5" font-family="FreeSans" font-size="10.00">stddef.h</text>
</a>
</g>
</g>
<!-- Node17&#45;&gt;Node20 -->
<g id="edge34" class="edge">
<title>Node17&#45;&gt;Node20</title>
<path fill="none" stroke="midnightblue" d="M775.5,-224.08C775.5,-217.01 775.5,-206.86 775.5,-197.99"/>
<polygon fill="midnightblue" stroke="midnightblue" points="779,-197.75 775.5,-187.75 772,-197.75 779,-197.75"/>
</g>
<!-- Node18&#45;&gt;Node4 -->
<g id="edge32" class="edge">
<title>Node18&#45;&gt;Node4</title>
<path fill="none" stroke="midnightblue" d="M844.76,-168.44C811.56,-159.2 758.51,-144.44 721.94,-134.26"/>
<polygon fill="midnightblue" stroke="midnightblue" points="722.67,-130.83 712.1,-131.52 720.79,-137.57 722.67,-130.83"/>
</g>
<!-- Node19 -->
<g id="node19" class="node">
<title>Node19</title>
<g id="a_node19"><a xlink:title=" ">
<polygon fill="white" stroke="#bfbfbf" points="843,-112.5 843,-131.5 908,-131.5 908,-112.5 843,-112.5"/>
<text text-anchor="middle" x="875.5" y="-119.5" font-family="FreeSans" font-size="10.00">inttypes.h</text>
</a>
</g>
</g>
<!-- Node18&#45;&gt;Node19 -->
<g id="edge31" class="edge">
<title>Node18&#45;&gt;Node19</title>
<path fill="none" stroke="midnightblue" d="M875.5,-168.08C875.5,-161.01 875.5,-150.86 875.5,-141.99"/>
<polygon fill="midnightblue" stroke="midnightblue" points="879,-141.75 875.5,-131.75 872,-141.75 879,-141.75"/>
</g>
<!-- Node21&#45;&gt;Node2 -->
<g id="edge38" class="edge">
<title>Node21&#45;&gt;Node2</title>
<path fill="none" stroke="midnightblue" d="M732.43,-282.92C677.3,-274.71 576.06,-259.5 479.24,-244.1"/>
<polygon fill="midnightblue" stroke="midnightblue" points="479.71,-240.63 469.28,-242.51 478.61,-247.54 479.71,-240.63"/>
</g>
<!-- Node21&#45;&gt;Node17 -->
<g id="edge37" class="edge">
<title>Node21&#45;&gt;Node17</title>
<path fill="none" stroke="midnightblue" d="M773.83,-280.08C774.09,-273.01 774.47,-262.86 774.8,-253.99"/>
<polygon fill="midnightblue" stroke="midnightblue" points="778.3,-253.87 775.18,-243.75 771.31,-253.61 778.3,-253.87"/>
</g>
<!-- Node21&#45;&gt;Node18 -->
<g id="edge36" class="edge">
<title>Node21&#45;&gt;Node18</title>
<path fill="none" stroke="midnightblue" d="M796.53,-280.45C813.5,-273.1 836.06,-260.99 850.5,-244 861.87,-230.63 868.38,-211.51 871.89,-197.48"/>
<polygon fill="midnightblue" stroke="midnightblue" points="875.36,-198.03 874.1,-187.51 868.52,-196.52 875.36,-198.03"/>
</g>
</g>
</svg>
