<?xml version="1.0" encoding="UTF-8" standalone="no"?>
<!DOCTYPE svg PUBLIC "-//W3C//DTD SVG 1.1//EN"
 "http://www.w3.org/Graphics/SVG/1.1/DTD/svg11.dtd">
<!-- Generated by graphviz version 2.43.0 (0)
 -->
<!-- Title: os_memheap_drivers.c Pages: 1 -->
<svg width="379pt" height="364pt"
 viewBox="0.00 0.00 379.00 364.00" xmlns="http://www.w3.org/2000/svg" xmlns:xlink="http://www.w3.org/1999/xlink">
<g id="graph0" class="graph" transform="scale(1 1) rotate(0) translate(4 360)">
<title>os_memheap_drivers.c</title>
<polygon fill="white" stroke="transparent" points="-4,4 -4,-360 375,-360 375,4 -4,4"/>
<!-- Node1 -->
<g id="node1" class="node">
<title>Node1</title>
<g id="a_node1"><a xlink:title=" ">
<polygon fill="#bfbfbf" stroke="black" points="133.5,-336.5 133.5,-355.5 263.5,-355.5 263.5,-336.5 133.5,-336.5"/>
<text text-anchor="middle" x="198.5" y="-343.5" font-family="FreeSans" font-size="10.00">os_memheap_drivers.c</text>
</a>
</g>
</g>
<!-- Node2 -->
<g id="node2" class="node">
<title>Node2</title>
<g id="a_node2"><a xlink:href="os__memheap__drivers_8h.html" target="_top" xlink:title="Drivers for OS heap management.">
<polygon fill="white" stroke="black" points="70,-224.5 70,-243.5 201,-243.5 201,-224.5 70,-224.5"/>
<text text-anchor="middle" x="135.5" y="-231.5" font-family="FreeSans" font-size="10.00">os_memheap_drivers.h</text>
</a>
</g>
</g>
<!-- Node1&#45;&gt;Node2 -->
<g id="edge1" class="edge">
<title>Node1&#45;&gt;Node2</title>
<path fill="none" stroke="midnightblue" d="M133.37,-337.31C110.27,-331.09 86.55,-319.94 72.5,-300 58.58,-280.24 84.13,-260.76 106.74,-248.36"/>
<polygon fill="midnightblue" stroke="midnightblue" points="108.55,-251.36 115.81,-243.65 105.32,-245.15 108.55,-251.36"/>
</g>
<!-- Node5 -->
<g id="node5" class="node">
<title>Node5</title>
<g id="a_node5"><a xlink:href="defines_8h.html" target="_top" xlink:title="Simple definitions and assembler&#45;macros, mostly 8/16&#45;Bit values.">
<polygon fill="white" stroke="black" points="105,-112.5 105,-131.5 166,-131.5 166,-112.5 105,-112.5"/>
<text text-anchor="middle" x="135.5" y="-119.5" font-family="FreeSans" font-size="10.00">defines.h</text>
</a>
</g>
</g>
<!-- Node1&#45;&gt;Node5 -->
<g id="edge9" class="edge">
<title>Node1&#45;&gt;Node5</title>
<path fill="none" stroke="midnightblue" d="M206.71,-336.18C214.04,-327.66 224.26,-314.02 228.5,-300 245.5,-243.85 259.67,-217.7 228.5,-168 216.92,-149.54 195.39,-138.47 175.96,-131.93"/>
<polygon fill="midnightblue" stroke="midnightblue" points="176.94,-128.56 166.35,-128.99 174.89,-135.26 176.94,-128.56"/>
</g>
<!-- Node9 -->
<g id="node9" class="node">
<title>Node9</title>
<g id="a_node9"><a xlink:href="os__memory__strategies_8h.html" target="_top" xlink:title="Memory allocation library for the OS.">
<polygon fill="white" stroke="black" points="82,-280.5 82,-299.5 219,-299.5 219,-280.5 82,-280.5"/>
<text text-anchor="middle" x="150.5" y="-287.5" font-family="FreeSans" font-size="10.00">os_memory_strategies.h</text>
</a>
</g>
</g>
<!-- Node1&#45;&gt;Node9 -->
<g id="edge10" class="edge">
<title>Node1&#45;&gt;Node9</title>
<path fill="none" stroke="midnightblue" d="M190.57,-336.08C183.65,-328.3 173.43,-316.8 165.05,-307.37"/>
<polygon fill="midnightblue" stroke="midnightblue" points="167.54,-304.9 158.28,-299.75 162.31,-309.55 167.54,-304.9"/>
</g>
<!-- Node10 -->
<g id="node10" class="node">
<title>Node10</title>
<g id="a_node10"><a xlink:title=" ">
<polygon fill="white" stroke="#bfbfbf" points="276,-280.5 276,-299.5 371,-299.5 371,-280.5 276,-280.5"/>
<text text-anchor="middle" x="323.5" y="-287.5" font-family="FreeSans" font-size="10.00">avr/pgmspace.h</text>
</a>
</g>
</g>
<!-- Node1&#45;&gt;Node10 -->
<g id="edge12" class="edge">
<title>Node1&#45;&gt;Node10</title>
<path fill="none" stroke="midnightblue" d="M218.31,-336.44C238.79,-327.6 270.98,-313.69 294.36,-303.59"/>
<polygon fill="midnightblue" stroke="midnightblue" points="295.99,-306.7 303.79,-299.52 293.22,-300.27 295.99,-306.7"/>
</g>
<!-- Node3 -->
<g id="node3" class="node">
<title>Node3</title>
<g id="a_node3"><a xlink:href="os__mem__drivers_8h.html" target="_top" xlink:title="Drivers for OS memory management.">
<polygon fill="white" stroke="black" points="0,-168.5 0,-187.5 107,-187.5 107,-168.5 0,-168.5"/>
<text text-anchor="middle" x="53.5" y="-175.5" font-family="FreeSans" font-size="10.00">os_mem_drivers.h</text>
</a>
</g>
</g>
<!-- Node2&#45;&gt;Node3 -->
<g id="edge2" class="edge">
<title>Node2&#45;&gt;Node3</title>
<path fill="none" stroke="midnightblue" d="M122.33,-224.32C109.65,-215.98 90.27,-203.21 75.29,-193.35"/>
<polygon fill="midnightblue" stroke="midnightblue" points="76.92,-190.23 66.64,-187.65 73.07,-196.08 76.92,-190.23"/>
</g>
<!-- Node2&#45;&gt;Node5 -->
<g id="edge7" class="edge">
<title>Node2&#45;&gt;Node5</title>
<path fill="none" stroke="midnightblue" d="M135.5,-224.37C135.5,-206.62 135.5,-165.67 135.5,-141.6"/>
<polygon fill="midnightblue" stroke="midnightblue" points="139,-141.59 135.5,-131.59 132,-141.59 139,-141.59"/>
</g>
<!-- Node8 -->
<g id="node8" class="node">
<title>Node8</title>
<g id="a_node8"><a xlink:title=" ">
<polygon fill="white" stroke="#bfbfbf" points="163.5,-168.5 163.5,-187.5 219.5,-187.5 219.5,-168.5 163.5,-168.5"/>
<text text-anchor="middle" x="191.5" y="-175.5" font-family="FreeSans" font-size="10.00">stddef.h</text>
</a>
</g>
</g>
<!-- Node2&#45;&gt;Node8 -->
<g id="edge8" class="edge">
<title>Node2&#45;&gt;Node8</title>
<path fill="none" stroke="midnightblue" d="M144.5,-224.32C152.69,-216.42 165.01,-204.55 174.97,-194.94"/>
<polygon fill="midnightblue" stroke="midnightblue" points="177.57,-197.29 182.34,-187.83 172.71,-192.26 177.57,-197.29"/>
</g>
<!-- Node4 -->
<g id="node4" class="node">
<title>Node4</title>
<g id="a_node4"><a xlink:title=" ">
<polygon fill="white" stroke="#bfbfbf" points="21,-112.5 21,-131.5 86,-131.5 86,-112.5 21,-112.5"/>
<text text-anchor="middle" x="53.5" y="-119.5" font-family="FreeSans" font-size="10.00">inttypes.h</text>
</a>
</g>
</g>
<!-- Node3&#45;&gt;Node4 -->
<g id="edge3" class="edge">
<title>Node3&#45;&gt;Node4</title>
<path fill="none" stroke="midnightblue" d="M53.5,-168.08C53.5,-161.01 53.5,-150.86 53.5,-141.99"/>
<polygon fill="midnightblue" stroke="midnightblue" points="57,-141.75 53.5,-131.75 50,-141.75 57,-141.75"/>
</g>
<!-- Node3&#45;&gt;Node5 -->
<g id="edge4" class="edge">
<title>Node3&#45;&gt;Node5</title>
<path fill="none" stroke="midnightblue" d="M66.67,-168.32C79.35,-159.98 98.73,-147.21 113.71,-137.35"/>
<polygon fill="midnightblue" stroke="midnightblue" points="115.93,-140.08 122.36,-131.65 112.08,-134.23 115.93,-140.08"/>
</g>
<!-- Node6 -->
<g id="node6" class="node">
<title>Node6</title>
<g id="a_node6"><a xlink:href="atmega644constants_8h.html" target="_top" xlink:title="Constants for ATMega644 and EVA board. Defines several useful constants for the ATMega644.">
<polygon fill="white" stroke="black" points="71.5,-56.5 71.5,-75.5 199.5,-75.5 199.5,-56.5 71.5,-56.5"/>
<text text-anchor="middle" x="135.5" y="-63.5" font-family="FreeSans" font-size="10.00">atmega644constants.h</text>
</a>
</g>
</g>
<!-- Node5&#45;&gt;Node6 -->
<g id="edge5" class="edge">
<title>Node5&#45;&gt;Node6</title>
<path fill="none" stroke="midnightblue" d="M135.5,-112.08C135.5,-105.01 135.5,-94.86 135.5,-85.99"/>
<polygon fill="midnightblue" stroke="midnightblue" points="139,-85.75 135.5,-75.75 132,-85.75 139,-85.75"/>
</g>
<!-- Node7 -->
<g id="node7" class="node">
<title>Node7</title>
<g id="a_node7"><a xlink:title=" ">
<polygon fill="white" stroke="#bfbfbf" points="109,-0.5 109,-19.5 162,-19.5 162,-0.5 109,-0.5"/>
<text text-anchor="middle" x="135.5" y="-7.5" font-family="FreeSans" font-size="10.00">avr/io.h</text>
</a>
</g>
</g>
<!-- Node6&#45;&gt;Node7 -->
<g id="edge6" class="edge">
<title>Node6&#45;&gt;Node7</title>
<path fill="none" stroke="midnightblue" d="M135.5,-56.08C135.5,-49.01 135.5,-38.86 135.5,-29.99"/>
<polygon fill="midnightblue" stroke="midnightblue" points="139,-29.75 135.5,-19.75 132,-29.75 139,-29.75"/>
</g>
<!-- Node9&#45;&gt;Node2 -->
<g id="edge11" class="edge">
<title>Node9&#45;&gt;Node2</title>
<path fill="none" stroke="midnightblue" d="M148.02,-280.08C146.01,-272.85 143.11,-262.41 140.61,-253.4"/>
<polygon fill="midnightblue" stroke="midnightblue" points="143.98,-252.45 137.93,-243.75 137.24,-254.32 143.98,-252.45"/>
</g>
</g>
</svg>
