<?xml version="1.0" encoding="UTF-8" standalone="no"?>
<!DOCTYPE svg PUBLIC "-//W3C//DTD SVG 1.1//EN"
 "http://www.w3.org/Graphics/SVG/1.1/DTD/svg11.dtd">
<!-- Generated by graphviz version 2.43.0 (0)
 -->
<!-- Title: os_user_privileges.h Pages: 1 -->
<svg width="471pt" height="364pt"
 viewBox="0.00 0.00 471.00 364.00" xmlns="http://www.w3.org/2000/svg" xmlns:xlink="http://www.w3.org/1999/xlink">
<g id="graph0" class="graph" transform="scale(1 1) rotate(0) translate(4 360)">
<title>os_user_privileges.h</title>
<polygon fill="white" stroke="transparent" points="-4,4 -4,-360 467,-360 467,4 -4,4"/>
<!-- Node1 -->
<g id="node1" class="node">
<title>Node1</title>
<g id="a_node1"><a xlink:title="User privileges specification used in part by the task manager.">
<polygon fill="#bfbfbf" stroke="black" points="157.5,-336.5 157.5,-355.5 273.5,-355.5 273.5,-336.5 157.5,-336.5"/>
<text text-anchor="middle" x="215.5" y="-343.5" font-family="FreeSans" font-size="10.00">os_user_privileges.h</text>
</a>
</g>
</g>
<!-- Node2 -->
<g id="node2" class="node">
<title>Node2</title>
<g id="a_node2"><a xlink:title=" ">
<polygon fill="white" stroke="#bfbfbf" points="0,-112.5 0,-131.5 53,-131.5 53,-112.5 0,-112.5"/>
<text text-anchor="middle" x="26.5" y="-119.5" font-family="FreeSans" font-size="10.00">stdint.h</text>
</a>
</g>
</g>
<!-- Node1&#45;&gt;Node2 -->
<g id="edge1" class="edge">
<title>Node1&#45;&gt;Node2</title>
<path fill="none" stroke="midnightblue" d="M195.8,-336.43C154.23,-317.08 58.43,-265.61 22.5,-188 15.82,-173.57 17.69,-155.38 20.72,-141.92"/>
<polygon fill="midnightblue" stroke="midnightblue" points="24.2,-142.47 23.39,-131.9 17.44,-140.66 24.2,-142.47"/>
</g>
<!-- Node3 -->
<g id="node3" class="node">
<title>Node3</title>
<g id="a_node3"><a xlink:title=" ">
<polygon fill="white" stroke="#bfbfbf" points="344,-280.5 344,-299.5 439,-299.5 439,-280.5 344,-280.5"/>
<text text-anchor="middle" x="391.5" y="-287.5" font-family="FreeSans" font-size="10.00">avr/pgmspace.h</text>
</a>
</g>
</g>
<!-- Node1&#45;&gt;Node3 -->
<g id="edge2" class="edge">
<title>Node1&#45;&gt;Node3</title>
<path fill="none" stroke="midnightblue" d="M243.39,-336.44C273.25,-327.28 320.81,-312.69 353.96,-302.52"/>
<polygon fill="midnightblue" stroke="midnightblue" points="355.21,-305.8 363.74,-299.52 353.16,-299.1 355.21,-305.8"/>
</g>
<!-- Node4 -->
<g id="node4" class="node">
<title>Node4</title>
<g id="a_node4"><a xlink:href="os__scheduler_8h.html" target="_top" xlink:title="Scheduling module for the OS.">
<polygon fill="white" stroke="black" points="98,-224.5 98,-243.5 187,-243.5 187,-224.5 98,-224.5"/>
<text text-anchor="middle" x="142.5" y="-231.5" font-family="FreeSans" font-size="10.00">os_scheduler.h</text>
</a>
</g>
</g>
<!-- Node1&#45;&gt;Node4 -->
<g id="edge3" class="edge">
<title>Node1&#45;&gt;Node4</title>
<path fill="none" stroke="midnightblue" d="M209.77,-336.37C197.72,-318.22 169.58,-275.8 153.78,-251.99"/>
<polygon fill="midnightblue" stroke="midnightblue" points="156.65,-249.99 148.2,-243.59 150.81,-253.86 156.65,-249.99"/>
</g>
<!-- Node6 -->
<g id="node6" class="node">
<title>Node6</title>
<g id="a_node6"><a xlink:href="defines_8h.html" target="_top" xlink:title="Simple definitions and assembler&#45;macros, mostly 8/16&#45;Bit values.">
<polygon fill="white" stroke="black" points="194,-112.5 194,-131.5 255,-131.5 255,-112.5 194,-112.5"/>
<text text-anchor="middle" x="224.5" y="-119.5" font-family="FreeSans" font-size="10.00">defines.h</text>
</a>
</g>
</g>
<!-- Node1&#45;&gt;Node6 -->
<g id="edge11" class="edge">
<title>Node1&#45;&gt;Node6</title>
<path fill="none" stroke="midnightblue" d="M215.85,-336.3C217.18,-303.63 221.87,-187.87 223.73,-141.96"/>
<polygon fill="midnightblue" stroke="midnightblue" points="227.23,-142.02 224.14,-131.88 220.24,-141.73 227.23,-142.02"/>
</g>
<!-- Node10 -->
<g id="node10" class="node">
<title>Node10</title>
<g id="a_node10"><a xlink:href="os__memory_8h.html" target="_top" xlink:title="Library for OS memory management.">
<polygon fill="white" stroke="black" points="243.5,-280.5 243.5,-299.5 325.5,-299.5 325.5,-280.5 243.5,-280.5"/>
<text text-anchor="middle" x="284.5" y="-287.5" font-family="FreeSans" font-size="10.00">os_memory.h</text>
</a>
</g>
</g>
<!-- Node1&#45;&gt;Node10 -->
<g id="edge12" class="edge">
<title>Node1&#45;&gt;Node10</title>
<path fill="none" stroke="midnightblue" d="M226.59,-336.32C236.99,-328.18 252.76,-315.84 265.22,-306.09"/>
<polygon fill="midnightblue" stroke="midnightblue" points="267.49,-308.75 273.21,-299.83 263.18,-303.24 267.49,-308.75"/>
</g>
<!-- Node5 -->
<g id="node5" class="node">
<title>Node5</title>
<g id="a_node5"><a xlink:title=" ">
<polygon fill="white" stroke="#bfbfbf" points="99.5,-112.5 99.5,-131.5 161.5,-131.5 161.5,-112.5 99.5,-112.5"/>
<text text-anchor="middle" x="130.5" y="-119.5" font-family="FreeSans" font-size="10.00">stdbool.h</text>
</a>
</g>
</g>
<!-- Node4&#45;&gt;Node5 -->
<g id="edge4" class="edge">
<title>Node4&#45;&gt;Node5</title>
<path fill="none" stroke="midnightblue" d="M141.56,-224.37C139.62,-206.62 135.15,-165.67 132.53,-141.6"/>
<polygon fill="midnightblue" stroke="midnightblue" points="136,-141.15 131.44,-131.59 129.04,-141.91 136,-141.15"/>
</g>
<!-- Node4&#45;&gt;Node6 -->
<g id="edge5" class="edge">
<title>Node4&#45;&gt;Node6</title>
<path fill="none" stroke="midnightblue" d="M148.93,-224.37C162.53,-206.14 194.36,-163.43 212.07,-139.68"/>
<polygon fill="midnightblue" stroke="midnightblue" points="214.92,-141.7 218.1,-131.59 209.31,-137.52 214.92,-141.7"/>
</g>
<!-- Node9 -->
<g id="node9" class="node">
<title>Node9</title>
<g id="a_node9"><a xlink:href="os__process_8h.html" target="_top" xlink:title="Struct specifying a process.">
<polygon fill="white" stroke="black" points="31.5,-168.5 31.5,-187.5 111.5,-187.5 111.5,-168.5 31.5,-168.5"/>
<text text-anchor="middle" x="71.5" y="-175.5" font-family="FreeSans" font-size="10.00">os_process.h</text>
</a>
</g>
</g>
<!-- Node4&#45;&gt;Node9 -->
<g id="edge8" class="edge">
<title>Node4&#45;&gt;Node9</title>
<path fill="none" stroke="midnightblue" d="M131.09,-224.32C120.39,-216.18 104.16,-203.84 91.34,-194.09"/>
<polygon fill="midnightblue" stroke="midnightblue" points="93.19,-191.1 83.11,-187.83 88.96,-196.67 93.19,-191.1"/>
</g>
<!-- Node7 -->
<g id="node7" class="node">
<title>Node7</title>
<g id="a_node7"><a xlink:href="atmega644constants_8h.html" target="_top" xlink:title="Constants for ATMega644 and EVA board. Defines several useful constants for the ATMega644.">
<polygon fill="white" stroke="black" points="160.5,-56.5 160.5,-75.5 288.5,-75.5 288.5,-56.5 160.5,-56.5"/>
<text text-anchor="middle" x="224.5" y="-63.5" font-family="FreeSans" font-size="10.00">atmega644constants.h</text>
</a>
</g>
</g>
<!-- Node6&#45;&gt;Node7 -->
<g id="edge6" class="edge">
<title>Node6&#45;&gt;Node7</title>
<path fill="none" stroke="midnightblue" d="M224.5,-112.08C224.5,-105.01 224.5,-94.86 224.5,-85.99"/>
<polygon fill="midnightblue" stroke="midnightblue" points="228,-85.75 224.5,-75.75 221,-85.75 228,-85.75"/>
</g>
<!-- Node8 -->
<g id="node8" class="node">
<title>Node8</title>
<g id="a_node8"><a xlink:title=" ">
<polygon fill="white" stroke="#bfbfbf" points="198,-0.5 198,-19.5 251,-19.5 251,-0.5 198,-0.5"/>
<text text-anchor="middle" x="224.5" y="-7.5" font-family="FreeSans" font-size="10.00">avr/io.h</text>
</a>
</g>
</g>
<!-- Node7&#45;&gt;Node8 -->
<g id="edge7" class="edge">
<title>Node7&#45;&gt;Node8</title>
<path fill="none" stroke="midnightblue" d="M224.5,-56.08C224.5,-49.01 224.5,-38.86 224.5,-29.99"/>
<polygon fill="midnightblue" stroke="midnightblue" points="228,-29.75 224.5,-19.75 221,-29.75 228,-29.75"/>
</g>
<!-- Node9&#45;&gt;Node2 -->
<g id="edge9" class="edge">
<title>Node9&#45;&gt;Node2</title>
<path fill="none" stroke="midnightblue" d="M64.07,-168.08C57.65,-160.38 48.19,-149.03 40.38,-139.65"/>
<polygon fill="midnightblue" stroke="midnightblue" points="42.88,-137.19 33.79,-131.75 37.51,-141.67 42.88,-137.19"/>
</g>
<!-- Node9&#45;&gt;Node5 -->
<g id="edge10" class="edge">
<title>Node9&#45;&gt;Node5</title>
<path fill="none" stroke="midnightblue" d="M80.98,-168.32C89.7,-160.34 102.84,-148.31 113.4,-138.65"/>
<polygon fill="midnightblue" stroke="midnightblue" points="115.83,-141.17 120.85,-131.83 111.11,-136 115.83,-141.17"/>
</g>
<!-- Node10&#45;&gt;Node4 -->
<g id="edge20" class="edge">
<title>Node10&#45;&gt;Node4</title>
<path fill="none" stroke="midnightblue" d="M262,-280.44C238.42,-271.48 201.18,-257.31 174.54,-247.18"/>
<polygon fill="midnightblue" stroke="midnightblue" points="175.49,-243.8 164.9,-243.52 173,-250.34 175.49,-243.8"/>
</g>
<!-- Node11 -->
<g id="node11" class="node">
<title>Node11</title>
<g id="a_node11"><a xlink:href="os__mem__drivers_8h.html" target="_top" xlink:title="Drivers for OS memory management.">
<polygon fill="white" stroke="black" points="356,-168.5 356,-187.5 463,-187.5 463,-168.5 356,-168.5"/>
<text text-anchor="middle" x="409.5" y="-175.5" font-family="FreeSans" font-size="10.00">os_mem_drivers.h</text>
</a>
</g>
</g>
<!-- Node10&#45;&gt;Node11 -->
<g id="edge13" class="edge">
<title>Node10&#45;&gt;Node11</title>
<path fill="none" stroke="midnightblue" d="M320,-280.4C341.18,-273.65 367.23,-262.26 384.5,-244 396.56,-231.25 402.98,-212.05 406.28,-197.82"/>
<polygon fill="midnightblue" stroke="midnightblue" points="409.78,-198.19 408.31,-187.7 402.91,-196.82 409.78,-198.19"/>
</g>
<!-- Node13 -->
<g id="node13" class="node">
<title>Node13</title>
<g id="a_node13"><a xlink:href="os__memheap__drivers_8h.html" target="_top" xlink:title="Drivers for OS heap management.">
<polygon fill="white" stroke="black" points="244,-224.5 244,-243.5 375,-243.5 375,-224.5 244,-224.5"/>
<text text-anchor="middle" x="309.5" y="-231.5" font-family="FreeSans" font-size="10.00">os_memheap_drivers.h</text>
</a>
</g>
</g>
<!-- Node10&#45;&gt;Node13 -->
<g id="edge16" class="edge">
<title>Node10&#45;&gt;Node13</title>
<path fill="none" stroke="midnightblue" d="M288.63,-280.08C292.01,-272.77 296.92,-262.18 301.12,-253.1"/>
<polygon fill="midnightblue" stroke="midnightblue" points="304.42,-254.3 305.45,-243.75 298.07,-251.36 304.42,-254.3"/>
</g>
<!-- Node11&#45;&gt;Node6 -->
<g id="edge15" class="edge">
<title>Node11&#45;&gt;Node6</title>
<path fill="none" stroke="midnightblue" d="M380.19,-168.44C348.66,-159.24 298.37,-144.56 263.51,-134.39"/>
<polygon fill="midnightblue" stroke="midnightblue" points="264.26,-130.96 253.68,-131.52 262.3,-137.68 264.26,-130.96"/>
</g>
<!-- Node12 -->
<g id="node12" class="node">
<title>Node12</title>
<g id="a_node12"><a xlink:title=" ">
<polygon fill="white" stroke="#bfbfbf" points="377,-112.5 377,-131.5 442,-131.5 442,-112.5 377,-112.5"/>
<text text-anchor="middle" x="409.5" y="-119.5" font-family="FreeSans" font-size="10.00">inttypes.h</text>
</a>
</g>
</g>
<!-- Node11&#45;&gt;Node12 -->
<g id="edge14" class="edge">
<title>Node11&#45;&gt;Node12</title>
<path fill="none" stroke="midnightblue" d="M409.5,-168.08C409.5,-161.01 409.5,-150.86 409.5,-141.99"/>
<polygon fill="midnightblue" stroke="midnightblue" points="413,-141.75 409.5,-131.75 406,-141.75 413,-141.75"/>
</g>
<!-- Node13&#45;&gt;Node6 -->
<g id="edge18" class="edge">
<title>Node13&#45;&gt;Node6</title>
<path fill="none" stroke="midnightblue" d="M302.27,-224.48C294.71,-215.51 282.57,-200.92 272.5,-188 259.89,-171.82 246.02,-152.91 236.45,-139.67"/>
<polygon fill="midnightblue" stroke="midnightblue" points="239.26,-137.59 230.58,-131.52 233.58,-141.68 239.26,-137.59"/>
</g>
<!-- Node13&#45;&gt;Node11 -->
<g id="edge17" class="edge">
<title>Node13&#45;&gt;Node11</title>
<path fill="none" stroke="midnightblue" d="M325.57,-224.32C341.46,-215.74 366.01,-202.49 384.46,-192.52"/>
<polygon fill="midnightblue" stroke="midnightblue" points="386.34,-195.49 393.47,-187.65 383.01,-189.33 386.34,-195.49"/>
</g>
<!-- Node14 -->
<g id="node14" class="node">
<title>Node14</title>
<g id="a_node14"><a xlink:title=" ">
<polygon fill="white" stroke="#bfbfbf" points="281.5,-168.5 281.5,-187.5 337.5,-187.5 337.5,-168.5 281.5,-168.5"/>
<text text-anchor="middle" x="309.5" y="-175.5" font-family="FreeSans" font-size="10.00">stddef.h</text>
</a>
</g>
</g>
<!-- Node13&#45;&gt;Node14 -->
<g id="edge19" class="edge">
<title>Node13&#45;&gt;Node14</title>
<path fill="none" stroke="midnightblue" d="M309.5,-224.08C309.5,-217.01 309.5,-206.86 309.5,-197.99"/>
<polygon fill="midnightblue" stroke="midnightblue" points="313,-197.75 309.5,-187.75 306,-197.75 313,-197.75"/>
</g>
</g>
</svg>
