<?xml version="1.0" encoding="UTF-8" standalone="no"?>
<!DOCTYPE svg PUBLIC "-//W3C//DTD SVG 1.1//EN"
 "http://www.w3.org/Graphics/SVG/1.1/DTD/svg11.dtd">
<!-- Generated by graphviz version 2.43.0 (0)
 -->
<!-- Title: os_memory.c Pages: 1 -->
<svg width="592pt" height="364pt"
 viewBox="0.00 0.00 591.50 364.00" xmlns="http://www.w3.org/2000/svg" xmlns:xlink="http://www.w3.org/1999/xlink">
<g id="graph0" class="graph" transform="scale(1 1) rotate(0) translate(4 360)">
<title>os_memory.c</title>
<polygon fill="white" stroke="transparent" points="-4,4 -4,-360 587.5,-360 587.5,4 -4,4"/>
<!-- Node1 -->
<g id="node1" class="node">
<title>Node1</title>
<g id="a_node1"><a xlink:title=" ">
<polygon fill="#bfbfbf" stroke="black" points="303.5,-336.5 303.5,-355.5 384.5,-355.5 384.5,-336.5 303.5,-336.5"/>
<text text-anchor="middle" x="344" y="-343.5" font-family="FreeSans" font-size="10.00">os_memory.c</text>
</a>
</g>
</g>
<!-- Node2 -->
<g id="node2" class="node">
<title>Node2</title>
<g id="a_node2"><a xlink:href="os__memory_8h.html" target="_top" xlink:title="Library for OS memory management.">
<polygon fill="white" stroke="black" points="226,-280.5 226,-299.5 308,-299.5 308,-280.5 226,-280.5"/>
<text text-anchor="middle" x="267" y="-287.5" font-family="FreeSans" font-size="10.00">os_memory.h</text>
</a>
</g>
</g>
<!-- Node1&#45;&gt;Node2 -->
<g id="edge1" class="edge">
<title>Node1&#45;&gt;Node2</title>
<path fill="none" stroke="midnightblue" d="M331.63,-336.32C319.84,-328.06 301.87,-315.45 287.86,-305.63"/>
<polygon fill="midnightblue" stroke="midnightblue" points="289.54,-302.53 279.34,-299.65 285.52,-308.26 289.54,-302.53"/>
</g>
<!-- Node14 -->
<g id="node14" class="node">
<title>Node14</title>
<g id="a_node14"><a xlink:href="os__memory__strategies_8h.html" target="_top" xlink:title="Memory allocation library for the OS.">
<polygon fill="white" stroke="black" points="60.5,-280.5 60.5,-299.5 197.5,-299.5 197.5,-280.5 60.5,-280.5"/>
<text text-anchor="middle" x="129" y="-287.5" font-family="FreeSans" font-size="10.00">os_memory_strategies.h</text>
</a>
</g>
</g>
<!-- Node1&#45;&gt;Node14 -->
<g id="edge17" class="edge">
<title>Node1&#45;&gt;Node14</title>
<path fill="none" stroke="midnightblue" d="M309.93,-336.44C272.82,-327.12 213.34,-312.18 172.79,-302"/>
<polygon fill="midnightblue" stroke="midnightblue" points="173.46,-298.56 162.91,-299.52 171.75,-305.35 173.46,-298.56"/>
</g>
<!-- Node15 -->
<g id="node15" class="node">
<title>Node15</title>
<g id="a_node15"><a xlink:href="util_8h.html" target="_top" xlink:title="Little helpers that don&#39;t fit elsewhere.">
<polygon fill="white" stroke="black" points="412.5,-280.5 412.5,-299.5 453.5,-299.5 453.5,-280.5 412.5,-280.5"/>
<text text-anchor="middle" x="433" y="-287.5" font-family="FreeSans" font-size="10.00">util.h</text>
</a>
</g>
</g>
<!-- Node1&#45;&gt;Node15 -->
<g id="edge19" class="edge">
<title>Node1&#45;&gt;Node15</title>
<path fill="none" stroke="midnightblue" d="M358.3,-336.32C372.18,-327.9 393.49,-314.97 409.8,-305.07"/>
<polygon fill="midnightblue" stroke="midnightblue" points="412,-307.83 418.74,-299.65 408.37,-301.85 412,-307.83"/>
</g>
<!-- Node17 -->
<g id="node17" class="node">
<title>Node17</title>
<g id="a_node17"><a xlink:href="os__core_8h.html" target="_top" xlink:title="Core of the OS.">
<polygon fill="white" stroke="black" points="493.5,-280.5 493.5,-299.5 556.5,-299.5 556.5,-280.5 493.5,-280.5"/>
<text text-anchor="middle" x="525" y="-287.5" font-family="FreeSans" font-size="10.00">os_core.h</text>
</a>
</g>
</g>
<!-- Node1&#45;&gt;Node17 -->
<g id="edge23" class="edge">
<title>Node1&#45;&gt;Node17</title>
<path fill="none" stroke="midnightblue" d="M372.68,-336.44C403.53,-327.24 452.73,-312.56 486.83,-302.39"/>
<polygon fill="midnightblue" stroke="midnightblue" points="487.87,-305.73 496.45,-299.52 485.87,-299.02 487.87,-305.73"/>
</g>
<!-- Node3 -->
<g id="node3" class="node">
<title>Node3</title>
<g id="a_node3"><a xlink:href="os__mem__drivers_8h.html" target="_top" xlink:title="Drivers for OS memory management.">
<polygon fill="white" stroke="black" points="112.5,-168.5 112.5,-187.5 219.5,-187.5 219.5,-168.5 112.5,-168.5"/>
<text text-anchor="middle" x="166" y="-175.5" font-family="FreeSans" font-size="10.00">os_mem_drivers.h</text>
</a>
</g>
</g>
<!-- Node2&#45;&gt;Node3 -->
<g id="edge2" class="edge">
<title>Node2&#45;&gt;Node3</title>
<path fill="none" stroke="midnightblue" d="M259.07,-280.37C242.19,-261.97 202.43,-218.67 180.74,-195.05"/>
<polygon fill="midnightblue" stroke="midnightblue" points="183.23,-192.59 173.89,-187.59 178.07,-197.32 183.23,-192.59"/>
</g>
<!-- Node8 -->
<g id="node8" class="node">
<title>Node8</title>
<g id="a_node8"><a xlink:href="os__memheap__drivers_8h.html" target="_top" xlink:title="Drivers for OS heap management.">
<polygon fill="white" stroke="black" points="53.5,-224.5 53.5,-243.5 184.5,-243.5 184.5,-224.5 53.5,-224.5"/>
<text text-anchor="middle" x="119" y="-231.5" font-family="FreeSans" font-size="10.00">os_memheap_drivers.h</text>
</a>
</g>
</g>
<!-- Node2&#45;&gt;Node8 -->
<g id="edge7" class="edge">
<title>Node2&#45;&gt;Node8</title>
<path fill="none" stroke="midnightblue" d="M243.55,-280.44C218.87,-271.44 179.81,-257.19 152.02,-247.05"/>
<polygon fill="midnightblue" stroke="midnightblue" points="152.94,-243.66 142.34,-243.52 150.54,-250.23 152.94,-243.66"/>
</g>
<!-- Node10 -->
<g id="node10" class="node">
<title>Node10</title>
<g id="a_node10"><a xlink:href="os__scheduler_8h.html" target="_top" xlink:title="Scheduling module for the OS.">
<polygon fill="white" stroke="black" points="241.5,-224.5 241.5,-243.5 330.5,-243.5 330.5,-224.5 241.5,-224.5"/>
<text text-anchor="middle" x="286" y="-231.5" font-family="FreeSans" font-size="10.00">os_scheduler.h</text>
</a>
</g>
</g>
<!-- Node2&#45;&gt;Node10 -->
<g id="edge11" class="edge">
<title>Node2&#45;&gt;Node10</title>
<path fill="none" stroke="midnightblue" d="M270.14,-280.08C272.68,-272.85 276.36,-262.41 279.53,-253.4"/>
<polygon fill="midnightblue" stroke="midnightblue" points="282.9,-254.35 282.92,-243.75 276.3,-252.02 282.9,-254.35"/>
</g>
<!-- Node4 -->
<g id="node4" class="node">
<title>Node4</title>
<g id="a_node4"><a xlink:title=" ">
<polygon fill="white" stroke="#bfbfbf" points="173.5,-112.5 173.5,-131.5 238.5,-131.5 238.5,-112.5 173.5,-112.5"/>
<text text-anchor="middle" x="206" y="-119.5" font-family="FreeSans" font-size="10.00">inttypes.h</text>
</a>
</g>
</g>
<!-- Node3&#45;&gt;Node4 -->
<g id="edge3" class="edge">
<title>Node3&#45;&gt;Node4</title>
<path fill="none" stroke="midnightblue" d="M172.61,-168.08C178.26,-160.46 186.54,-149.26 193.45,-139.94"/>
<polygon fill="midnightblue" stroke="midnightblue" points="196.38,-141.87 199.52,-131.75 190.75,-137.7 196.38,-141.87"/>
</g>
<!-- Node5 -->
<g id="node5" class="node">
<title>Node5</title>
<g id="a_node5"><a xlink:href="defines_8h.html" target="_top" xlink:title="Simple definitions and assembler&#45;macros, mostly 8/16&#45;Bit values.">
<polygon fill="white" stroke="black" points="94.5,-112.5 94.5,-131.5 155.5,-131.5 155.5,-112.5 94.5,-112.5"/>
<text text-anchor="middle" x="125" y="-119.5" font-family="FreeSans" font-size="10.00">defines.h</text>
</a>
</g>
</g>
<!-- Node3&#45;&gt;Node5 -->
<g id="edge4" class="edge">
<title>Node3&#45;&gt;Node5</title>
<path fill="none" stroke="midnightblue" d="M159.23,-168.08C153.44,-160.46 144.94,-149.26 137.86,-139.94"/>
<polygon fill="midnightblue" stroke="midnightblue" points="140.48,-137.6 131.64,-131.75 134.9,-141.83 140.48,-137.6"/>
</g>
<!-- Node6 -->
<g id="node6" class="node">
<title>Node6</title>
<g id="a_node6"><a xlink:href="atmega644constants_8h.html" target="_top" xlink:title="Constants for ATMega644 and EVA board. Defines several useful constants for the ATMega644.">
<polygon fill="white" stroke="black" points="61,-56.5 61,-75.5 189,-75.5 189,-56.5 61,-56.5"/>
<text text-anchor="middle" x="125" y="-63.5" font-family="FreeSans" font-size="10.00">atmega644constants.h</text>
</a>
</g>
</g>
<!-- Node5&#45;&gt;Node6 -->
<g id="edge5" class="edge">
<title>Node5&#45;&gt;Node6</title>
<path fill="none" stroke="midnightblue" d="M125,-112.08C125,-105.01 125,-94.86 125,-85.99"/>
<polygon fill="midnightblue" stroke="midnightblue" points="128.5,-85.75 125,-75.75 121.5,-85.75 128.5,-85.75"/>
</g>
<!-- Node7 -->
<g id="node7" class="node">
<title>Node7</title>
<g id="a_node7"><a xlink:title=" ">
<polygon fill="white" stroke="#bfbfbf" points="98.5,-0.5 98.5,-19.5 151.5,-19.5 151.5,-0.5 98.5,-0.5"/>
<text text-anchor="middle" x="125" y="-7.5" font-family="FreeSans" font-size="10.00">avr/io.h</text>
</a>
</g>
</g>
<!-- Node6&#45;&gt;Node7 -->
<g id="edge6" class="edge">
<title>Node6&#45;&gt;Node7</title>
<path fill="none" stroke="midnightblue" d="M125,-56.08C125,-49.01 125,-38.86 125,-29.99"/>
<polygon fill="midnightblue" stroke="midnightblue" points="128.5,-29.75 125,-19.75 121.5,-29.75 128.5,-29.75"/>
</g>
<!-- Node8&#45;&gt;Node3 -->
<g id="edge8" class="edge">
<title>Node8&#45;&gt;Node3</title>
<path fill="none" stroke="midnightblue" d="M126.76,-224.08C133.54,-216.3 143.54,-204.8 151.76,-195.37"/>
<polygon fill="midnightblue" stroke="midnightblue" points="154.46,-197.59 158.38,-187.75 149.18,-193 154.46,-197.59"/>
</g>
<!-- Node8&#45;&gt;Node5 -->
<g id="edge9" class="edge">
<title>Node8&#45;&gt;Node5</title>
<path fill="none" stroke="midnightblue" d="M114.15,-224.19C107.89,-211.71 98.34,-188.15 103,-168 105.23,-158.36 109.82,-148.41 114.24,-140.31"/>
<polygon fill="midnightblue" stroke="midnightblue" points="117.35,-141.92 119.36,-131.52 111.3,-138.4 117.35,-141.92"/>
</g>
<!-- Node9 -->
<g id="node9" class="node">
<title>Node9</title>
<g id="a_node9"><a xlink:title=" ">
<polygon fill="white" stroke="#bfbfbf" points="0,-168.5 0,-187.5 56,-187.5 56,-168.5 0,-168.5"/>
<text text-anchor="middle" x="28" y="-175.5" font-family="FreeSans" font-size="10.00">stddef.h</text>
</a>
</g>
</g>
<!-- Node8&#45;&gt;Node9 -->
<g id="edge10" class="edge">
<title>Node8&#45;&gt;Node9</title>
<path fill="none" stroke="midnightblue" d="M104.38,-224.32C90.05,-215.82 67.99,-202.73 51.25,-192.8"/>
<polygon fill="midnightblue" stroke="midnightblue" points="52.97,-189.75 42.58,-187.65 49.4,-195.77 52.97,-189.75"/>
</g>
<!-- Node10&#45;&gt;Node5 -->
<g id="edge13" class="edge">
<title>Node10&#45;&gt;Node5</title>
<path fill="none" stroke="midnightblue" d="M280.16,-224.34C270.64,-210.76 250.53,-184.33 228,-168 208.17,-153.63 183.04,-142.54 162.56,-134.96"/>
<polygon fill="midnightblue" stroke="midnightblue" points="163.52,-131.59 152.93,-131.53 161.17,-138.18 163.52,-131.59"/>
</g>
<!-- Node11 -->
<g id="node11" class="node">
<title>Node11</title>
<g id="a_node11"><a xlink:title=" ">
<polygon fill="white" stroke="#bfbfbf" points="323,-112.5 323,-131.5 385,-131.5 385,-112.5 323,-112.5"/>
<text text-anchor="middle" x="354" y="-119.5" font-family="FreeSans" font-size="10.00">stdbool.h</text>
</a>
</g>
</g>
<!-- Node10&#45;&gt;Node11 -->
<g id="edge12" class="edge">
<title>Node10&#45;&gt;Node11</title>
<path fill="none" stroke="midnightblue" d="M287.01,-224.4C288.87,-211.36 293.7,-186.17 305,-168 312.26,-156.32 323.37,-145.76 333.18,-137.82"/>
<polygon fill="midnightblue" stroke="midnightblue" points="335.54,-140.42 341.33,-131.54 331.27,-134.87 335.54,-140.42"/>
</g>
<!-- Node12 -->
<g id="node12" class="node">
<title>Node12</title>
<g id="a_node12"><a xlink:href="os__process_8h.html" target="_top" xlink:title="Struct specifying a process.">
<polygon fill="white" stroke="black" points="314,-168.5 314,-187.5 394,-187.5 394,-168.5 314,-168.5"/>
<text text-anchor="middle" x="354" y="-175.5" font-family="FreeSans" font-size="10.00">os_process.h</text>
</a>
</g>
</g>
<!-- Node10&#45;&gt;Node12 -->
<g id="edge14" class="edge">
<title>Node10&#45;&gt;Node12</title>
<path fill="none" stroke="midnightblue" d="M296.93,-224.32C307.17,-216.18 322.72,-203.84 335,-194.09"/>
<polygon fill="midnightblue" stroke="midnightblue" points="337.22,-196.79 342.88,-187.83 332.87,-191.31 337.22,-196.79"/>
</g>
<!-- Node12&#45;&gt;Node11 -->
<g id="edge16" class="edge">
<title>Node12&#45;&gt;Node11</title>
<path fill="none" stroke="midnightblue" d="M354,-168.08C354,-161.01 354,-150.86 354,-141.99"/>
<polygon fill="midnightblue" stroke="midnightblue" points="357.5,-141.75 354,-131.75 350.5,-141.75 357.5,-141.75"/>
</g>
<!-- Node13 -->
<g id="node13" class="node">
<title>Node13</title>
<g id="a_node13"><a xlink:title=" ">
<polygon fill="white" stroke="#bfbfbf" points="418.5,-112.5 418.5,-131.5 471.5,-131.5 471.5,-112.5 418.5,-112.5"/>
<text text-anchor="middle" x="445" y="-119.5" font-family="FreeSans" font-size="10.00">stdint.h</text>
</a>
</g>
</g>
<!-- Node12&#45;&gt;Node13 -->
<g id="edge15" class="edge">
<title>Node12&#45;&gt;Node13</title>
<path fill="none" stroke="midnightblue" d="M368.62,-168.32C382.95,-159.82 405.01,-146.73 421.75,-136.8"/>
<polygon fill="midnightblue" stroke="midnightblue" points="423.6,-139.77 430.42,-131.65 420.03,-133.75 423.6,-139.77"/>
</g>
<!-- Node14&#45;&gt;Node8 -->
<g id="edge18" class="edge">
<title>Node14&#45;&gt;Node8</title>
<path fill="none" stroke="midnightblue" d="M127.35,-280.08C126.02,-272.93 124.12,-262.64 122.46,-253.69"/>
<polygon fill="midnightblue" stroke="midnightblue" points="125.88,-252.95 120.62,-243.75 119,-254.22 125.88,-252.95"/>
</g>
<!-- Node15&#45;&gt;Node11 -->
<g id="edge21" class="edge">
<title>Node15&#45;&gt;Node11</title>
<path fill="none" stroke="midnightblue" d="M432.56,-280.45C431.15,-259.73 425.42,-205.79 403,-168 396.07,-156.32 385.17,-145.88 375.41,-138"/>
<polygon fill="midnightblue" stroke="midnightblue" points="377.33,-135.06 367.25,-131.77 373.08,-140.62 377.33,-135.06"/>
</g>
<!-- Node15&#45;&gt;Node13 -->
<g id="edge20" class="edge">
<title>Node15&#45;&gt;Node13</title>
<path fill="none" stroke="midnightblue" d="M433.65,-280.08C435.53,-253.95 441.08,-177.21 443.66,-141.58"/>
<polygon fill="midnightblue" stroke="midnightblue" points="447.15,-141.79 444.38,-131.57 440.17,-141.29 447.15,-141.79"/>
</g>
<!-- Node16 -->
<g id="node16" class="node">
<title>Node16</title>
<g id="a_node16"><a xlink:title=" ">
<polygon fill="white" stroke="#bfbfbf" points="488.5,-224.5 488.5,-243.5 583.5,-243.5 583.5,-224.5 488.5,-224.5"/>
<text text-anchor="middle" x="536" y="-231.5" font-family="FreeSans" font-size="10.00">avr/pgmspace.h</text>
</a>
</g>
</g>
<!-- Node15&#45;&gt;Node16 -->
<g id="edge22" class="edge">
<title>Node15&#45;&gt;Node16</title>
<path fill="none" stroke="midnightblue" d="M449.55,-280.32C465.99,-271.7 491.43,-258.36 510.47,-248.39"/>
<polygon fill="midnightblue" stroke="midnightblue" points="512.26,-251.4 519.49,-243.65 509.01,-245.2 512.26,-251.4"/>
</g>
<!-- Node17&#45;&gt;Node16 -->
<g id="edge24" class="edge">
<title>Node17&#45;&gt;Node16</title>
<path fill="none" stroke="midnightblue" d="M526.82,-280.08C528.27,-272.93 530.37,-262.64 532.19,-253.69"/>
<polygon fill="midnightblue" stroke="midnightblue" points="535.65,-254.25 534.22,-243.75 528.79,-252.85 535.65,-254.25"/>
</g>
</g>
</svg>
