<?xml version="1.0" encoding="UTF-8" standalone="no"?>
<!DOCTYPE svg PUBLIC "-//W3C//DTD SVG 1.1//EN"
 "http://www.w3.org/Graphics/SVG/1.1/DTD/svg11.dtd">
<!-- Generated by graphviz version 2.43.0 (0)
 -->
<!-- Title: os_mem_drivers.c Pages: 1 -->
<svg width="207pt" height="252pt"
 viewBox="0.00 0.00 206.50 252.00" xmlns="http://www.w3.org/2000/svg" xmlns:xlink="http://www.w3.org/1999/xlink">
<g id="graph0" class="graph" transform="scale(1 1) rotate(0) translate(4 248)">
<title>os_mem_drivers.c</title>
<polygon fill="white" stroke="transparent" points="-4,4 -4,-248 202.5,-248 202.5,4 -4,4"/>
<!-- Node1 -->
<g id="node1" class="node">
<title>Node1</title>
<g id="a_node1"><a xlink:title=" ">
<polygon fill="#bfbfbf" stroke="black" points="41.5,-224.5 41.5,-243.5 147.5,-243.5 147.5,-224.5 41.5,-224.5"/>
<text text-anchor="middle" x="94.5" y="-231.5" font-family="FreeSans" font-size="10.00">os_mem_drivers.c</text>
</a>
</g>
</g>
<!-- Node2 -->
<g id="node2" class="node">
<title>Node2</title>
<g id="a_node2"><a xlink:href="os__mem__drivers_8h.html" target="_top" xlink:title="Drivers for OS memory management.">
<polygon fill="white" stroke="black" points="0,-168.5 0,-187.5 107,-187.5 107,-168.5 0,-168.5"/>
<text text-anchor="middle" x="53.5" y="-175.5" font-family="FreeSans" font-size="10.00">os_mem_drivers.h</text>
</a>
</g>
</g>
<!-- Node1&#45;&gt;Node2 -->
<g id="edge1" class="edge">
<title>Node1&#45;&gt;Node2</title>
<path fill="none" stroke="midnightblue" d="M87.73,-224.08C81.94,-216.46 73.44,-205.26 66.36,-195.94"/>
<polygon fill="midnightblue" stroke="midnightblue" points="68.98,-193.6 60.14,-187.75 63.4,-197.83 68.98,-193.6"/>
</g>
<!-- Node4 -->
<g id="node4" class="node">
<title>Node4</title>
<g id="a_node4"><a xlink:href="defines_8h.html" target="_top" xlink:title="Simple definitions and assembler&#45;macros, mostly 8/16&#45;Bit values.">
<polygon fill="white" stroke="black" points="104,-112.5 104,-131.5 165,-131.5 165,-112.5 104,-112.5"/>
<text text-anchor="middle" x="134.5" y="-119.5" font-family="FreeSans" font-size="10.00">defines.h</text>
</a>
</g>
</g>
<!-- Node1&#45;&gt;Node4 -->
<g id="edge6" class="edge">
<title>Node1&#45;&gt;Node4</title>
<path fill="none" stroke="midnightblue" d="M99.09,-224.21C103.65,-215.26 110.63,-200.91 115.5,-188 121.33,-172.53 126.49,-154.44 129.95,-141.28"/>
<polygon fill="midnightblue" stroke="midnightblue" points="133.36,-142.1 132.44,-131.55 126.57,-140.37 133.36,-142.1"/>
</g>
<!-- Node3 -->
<g id="node3" class="node">
<title>Node3</title>
<g id="a_node3"><a xlink:title=" ">
<polygon fill="white" stroke="#bfbfbf" points="21,-112.5 21,-131.5 86,-131.5 86,-112.5 21,-112.5"/>
<text text-anchor="middle" x="53.5" y="-119.5" font-family="FreeSans" font-size="10.00">inttypes.h</text>
</a>
</g>
</g>
<!-- Node2&#45;&gt;Node3 -->
<g id="edge2" class="edge">
<title>Node2&#45;&gt;Node3</title>
<path fill="none" stroke="midnightblue" d="M53.5,-168.08C53.5,-161.01 53.5,-150.86 53.5,-141.99"/>
<polygon fill="midnightblue" stroke="midnightblue" points="57,-141.75 53.5,-131.75 50,-141.75 57,-141.75"/>
</g>
<!-- Node2&#45;&gt;Node4 -->
<g id="edge3" class="edge">
<title>Node2&#45;&gt;Node4</title>
<path fill="none" stroke="midnightblue" d="M66.51,-168.32C79.03,-159.98 98.18,-147.21 112.97,-137.35"/>
<polygon fill="midnightblue" stroke="midnightblue" points="115.14,-140.11 121.52,-131.65 111.26,-134.29 115.14,-140.11"/>
</g>
<!-- Node5 -->
<g id="node5" class="node">
<title>Node5</title>
<g id="a_node5"><a xlink:href="atmega644constants_8h.html" target="_top" xlink:title="Constants for ATMega644 and EVA board. Defines several useful constants for the ATMega644.">
<polygon fill="white" stroke="black" points="70.5,-56.5 70.5,-75.5 198.5,-75.5 198.5,-56.5 70.5,-56.5"/>
<text text-anchor="middle" x="134.5" y="-63.5" font-family="FreeSans" font-size="10.00">atmega644constants.h</text>
</a>
</g>
</g>
<!-- Node4&#45;&gt;Node5 -->
<g id="edge4" class="edge">
<title>Node4&#45;&gt;Node5</title>
<path fill="none" stroke="midnightblue" d="M134.5,-112.08C134.5,-105.01 134.5,-94.86 134.5,-85.99"/>
<polygon fill="midnightblue" stroke="midnightblue" points="138,-85.75 134.5,-75.75 131,-85.75 138,-85.75"/>
</g>
<!-- Node6 -->
<g id="node6" class="node">
<title>Node6</title>
<g id="a_node6"><a xlink:title=" ">
<polygon fill="white" stroke="#bfbfbf" points="108,-0.5 108,-19.5 161,-19.5 161,-0.5 108,-0.5"/>
<text text-anchor="middle" x="134.5" y="-7.5" font-family="FreeSans" font-size="10.00">avr/io.h</text>
</a>
</g>
</g>
<!-- Node5&#45;&gt;Node6 -->
<g id="edge5" class="edge">
<title>Node5&#45;&gt;Node6</title>
<path fill="none" stroke="midnightblue" d="M134.5,-56.08C134.5,-49.01 134.5,-38.86 134.5,-29.99"/>
<polygon fill="midnightblue" stroke="midnightblue" points="138,-29.75 134.5,-19.75 131,-29.75 138,-29.75"/>
</g>
</g>
</svg>
