<?xml version="1.0" encoding="UTF-8" standalone="no"?>
<!DOCTYPE svg PUBLIC "-//W3C//DTD SVG 1.1//EN"
 "http://www.w3.org/Graphics/SVG/1.1/DTD/svg11.dtd">
<!-- Generated by graphviz version 2.43.0 (0)
 -->
<!-- Title: os_realloc Pages: 1 -->
<svg width="698pt" height="341pt"
 viewBox="0.00 0.00 698.00 341.00" xmlns="http://www.w3.org/2000/svg" xmlns:xlink="http://www.w3.org/1999/xlink">
<g id="graph0" class="graph" transform="scale(1 1) rotate(0) translate(4 337)">
<title>os_realloc</title>
<polygon fill="white" stroke="transparent" points="-4,4 -4,-337 694,-337 694,4 -4,4"/>
<!-- Node1 -->
<g id="node1" class="node">
<title>Node1</title>
<g id="a_node1"><a xlink:title="Function to efficiently reallocate memory.">
<polygon fill="#bfbfbf" stroke="black" points="0,-152.5 0,-171.5 66,-171.5 66,-152.5 0,-152.5"/>
<text text-anchor="middle" x="33" y="-159.5" font-family="FreeSans" font-size="10.00">os_realloc</text>
</a>
</g>
</g>
<!-- Node2 -->
<g id="node2" class="node">
<title>Node2</title>
<g id="a_node2"><a xlink:href="os__memory_8c.html#a1c8691648bd2d5114b97de7cc2550bc2" target="_top" xlink:title=" ">
<polygon fill="white" stroke="black" points="130,-266.5 130,-285.5 205,-285.5 205,-266.5 130,-266.5"/>
<text text-anchor="middle" x="167.5" y="-273.5" font-family="FreeSans" font-size="10.00">moveChunk</text>
</a>
</g>
</g>
<!-- Node1&#45;&gt;Node2 -->
<g id="edge1" class="edge">
<title>Node1&#45;&gt;Node2</title>
<path fill="none" stroke="midnightblue" d="M38.82,-171.57C48.43,-189.74 71.68,-229.43 102,-252 107.54,-256.12 113.86,-259.61 120.33,-262.53"/>
<polygon fill="midnightblue" stroke="midnightblue" points="119.27,-265.88 129.85,-266.42 121.92,-259.4 119.27,-265.88"/>
</g>
<!-- Node3 -->
<g id="node3" class="node">
<title>Node3</title>
<g id="a_node3"><a xlink:href="os__memory_8c.html#a29ccc3e0a668c0be4b285bc74ef6d920" target="_top" xlink:title="Function used to get the value of a single map entry, this is made public so the allocation strategie...">
<polygon fill="white" stroke="black" points="456,-218.5 456,-237.5 551,-237.5 551,-218.5 456,-218.5"/>
<text text-anchor="middle" x="503.5" y="-225.5" font-family="FreeSans" font-size="10.00">os_getMapEntry</text>
</a>
</g>
</g>
<!-- Node1&#45;&gt;Node3 -->
<g id="edge15" class="edge">
<title>Node1&#45;&gt;Node3</title>
<path fill="none" stroke="midnightblue" d="M41.95,-171.93C53.51,-185.5 76.37,-209.24 102,-219 217.55,-262.99 365.74,-250.23 445.53,-238.32"/>
<polygon fill="midnightblue" stroke="midnightblue" points="446.5,-241.71 455.85,-236.72 445.43,-234.79 446.5,-241.71"/>
</g>
<!-- Node6 -->
<g id="node6" class="node">
<title>Node6</title>
<g id="a_node6"><a xlink:href="os__memory_8c.html#aa0082364f445ac8cfacf8d0e873bcfb5" target="_top" xlink:title="This function is used to set a heap map entry on a specific heap.">
<polygon fill="white" stroke="black" points="297,-304.5 297,-323.5 375,-323.5 375,-304.5 297,-304.5"/>
<text text-anchor="middle" x="336" y="-311.5" font-family="FreeSans" font-size="10.00">setMapEntry</text>
</a>
</g>
</g>
<!-- Node1&#45;&gt;Node6 -->
<g id="edge21" class="edge">
<title>Node1&#45;&gt;Node6</title>
<path fill="none" stroke="midnightblue" d="M35.69,-171.84C40.63,-197.27 57.6,-265.29 102,-295 156.91,-331.74 236.2,-329.44 286.66,-322.89"/>
<polygon fill="midnightblue" stroke="midnightblue" points="287.24,-326.34 296.66,-321.49 286.27,-319.41 287.24,-326.34"/>
</g>
<!-- Node9 -->
<g id="node9" class="node">
<title>Node9</title>
<g id="a_node9"><a xlink:href="os__scheduler_8c.html#a9d27b2dbf45ce6648916ed5ceb0a38df" target="_top" xlink:title="Enters a critical code section.">
<polygon fill="white" stroke="black" points="439,-62.5 439,-81.5 568,-81.5 568,-62.5 439,-62.5"/>
<text text-anchor="middle" x="503.5" y="-69.5" font-family="FreeSans" font-size="10.00">os_enterCriticalSection</text>
</a>
</g>
</g>
<!-- Node1&#45;&gt;Node9 -->
<g id="edge8" class="edge">
<title>Node1&#45;&gt;Node9</title>
<path fill="none" stroke="midnightblue" d="M66.18,-156.69C130.41,-145.97 278.97,-120.58 403,-95 419.24,-91.65 436.89,-87.68 452.76,-83.99"/>
<polygon fill="midnightblue" stroke="midnightblue" points="453.96,-87.3 462.89,-81.61 452.36,-80.49 453.96,-87.3"/>
</g>
<!-- Node10 -->
<g id="node10" class="node">
<title>Node10</title>
<g id="a_node10"><a xlink:href="os__memory_8c.html#af4b11f1dd58f3cec9668a6be98101be4" target="_top" xlink:title="Get the size of a chunk on a given address.">
<polygon fill="white" stroke="black" points="117.5,-190.5 117.5,-209.5 217.5,-209.5 217.5,-190.5 117.5,-190.5"/>
<text text-anchor="middle" x="167.5" y="-197.5" font-family="FreeSans" font-size="10.00">os_getChunkSize</text>
</a>
</g>
</g>
<!-- Node1&#45;&gt;Node10 -->
<g id="edge9" class="edge">
<title>Node1&#45;&gt;Node10</title>
<path fill="none" stroke="midnightblue" d="M66.07,-171.2C83.34,-176.15 104.88,-182.33 123.57,-187.69"/>
<polygon fill="midnightblue" stroke="midnightblue" points="122.76,-191.1 133.34,-190.49 124.69,-184.37 122.76,-191.1"/>
</g>
<!-- Node11 -->
<g id="node11" class="node">
<title>Node11</title>
<g id="a_node11"><a xlink:href="os__memory_8c.html#a292385f9ee19516237f51ab76c76405e" target="_top" xlink:title="Get the address of the first byte of chunk.">
<polygon fill="white" stroke="black" points="269,-152.5 269,-171.5 403,-171.5 403,-152.5 269,-152.5"/>
<text text-anchor="middle" x="336" y="-159.5" font-family="FreeSans" font-size="10.00">os_getFirstByteOfChunk</text>
</a>
</g>
</g>
<!-- Node1&#45;&gt;Node11 -->
<g id="edge14" class="edge">
<title>Node1&#45;&gt;Node11</title>
<path fill="none" stroke="midnightblue" d="M66.21,-162C111.82,-162 196.6,-162 258.78,-162"/>
<polygon fill="midnightblue" stroke="midnightblue" points="258.95,-165.5 268.95,-162 258.95,-158.5 258.95,-165.5"/>
</g>
<!-- Node12 -->
<g id="node12" class="node">
<title>Node12</title>
<g id="a_node12"><a xlink:href="os__scheduler_8c.html#a917313bbbb324677f26dfdf2ad80de3d" target="_top" xlink:title="Returns the currently active process.">
<polygon fill="white" stroke="black" points="283,-66.5 283,-85.5 389,-85.5 389,-66.5 283,-66.5"/>
<text text-anchor="middle" x="336" y="-73.5" font-family="FreeSans" font-size="10.00">os_getCurrentProc</text>
</a>
</g>
</g>
<!-- Node1&#45;&gt;Node12 -->
<g id="edge13" class="edge">
<title>Node1&#45;&gt;Node12</title>
<path fill="none" stroke="midnightblue" d="M43.55,-152.08C55.85,-139.99 78.44,-119.93 102,-110 156.69,-86.95 224.28,-79.11 272.55,-76.64"/>
<polygon fill="midnightblue" stroke="midnightblue" points="272.72,-80.14 282.55,-76.19 272.4,-73.14 272.72,-80.14"/>
</g>
<!-- Node13 -->
<g id="node13" class="node">
<title>Node13</title>
<g id="a_node13"><a xlink:href="os__scheduler_8c.html#a21546fdd22e5e6818e50856a119d98e0" target="_top" xlink:title="Leaves a critical code section.">
<polygon fill="white" stroke="black" points="102,-38.5 102,-57.5 233,-57.5 233,-38.5 102,-38.5"/>
<text text-anchor="middle" x="167.5" y="-45.5" font-family="FreeSans" font-size="10.00">os_leaveCriticalSection</text>
</a>
</g>
</g>
<!-- Node1&#45;&gt;Node13 -->
<g id="edge16" class="edge">
<title>Node1&#45;&gt;Node13</title>
<path fill="none" stroke="midnightblue" d="M38.82,-152.43C48.43,-134.26 71.68,-94.57 102,-72 107.54,-67.88 113.86,-64.39 120.33,-61.47"/>
<polygon fill="midnightblue" stroke="midnightblue" points="121.92,-64.6 129.85,-57.58 119.27,-58.12 121.92,-64.6"/>
</g>
<!-- Node14 -->
<g id="node14" class="node">
<title>Node14</title>
<g id="a_node14"><a xlink:href="os__memory_8c.html#a5644c571680a5c019c91c30bee4d5d7e" target="_top" xlink:title="Function used to allocate private memory.">
<polygon fill="white" stroke="black" points="134.5,-0.5 134.5,-19.5 200.5,-19.5 200.5,-0.5 134.5,-0.5"/>
<text text-anchor="middle" x="167.5" y="-7.5" font-family="FreeSans" font-size="10.00">os_malloc</text>
</a>
</g>
</g>
<!-- Node1&#45;&gt;Node14 -->
<g id="edge17" class="edge">
<title>Node1&#45;&gt;Node14</title>
<path fill="none" stroke="midnightblue" d="M36.15,-152.31C42.09,-127.81 61.08,-62.94 102,-29 108.45,-23.65 116.36,-19.81 124.4,-17.04"/>
<polygon fill="midnightblue" stroke="midnightblue" points="125.56,-20.35 134.18,-14.18 123.6,-13.63 125.56,-20.35"/>
</g>
<!-- Node2&#45;&gt;Node3 -->
<g id="edge2" class="edge">
<title>Node2&#45;&gt;Node3</title>
<path fill="none" stroke="midnightblue" d="M205.26,-273.78C251.61,-270.62 333.62,-263.86 403,-252 421.16,-248.9 440.92,-244.37 458.02,-240.08"/>
<polygon fill="midnightblue" stroke="midnightblue" points="458.92,-243.47 467.74,-237.6 457.19,-236.68 458.92,-243.47"/>
</g>
<!-- Node2&#45;&gt;Node6 -->
<g id="edge5" class="edge">
<title>Node2&#45;&gt;Node6</title>
<path fill="none" stroke="midnightblue" d="M205.04,-284.34C229.04,-289.82 260.7,-297.04 286.76,-302.99"/>
<polygon fill="midnightblue" stroke="midnightblue" points="286.28,-306.47 296.81,-305.28 287.84,-299.65 286.28,-306.47"/>
</g>
<!-- Node4 -->
<g id="node4" class="node">
<title>Node4</title>
<g id="a_node4"><a xlink:href="os__memory_8c.html#ae420976ba4abbd069aff795935b9636c" target="_top" xlink:title="Reads the value of the higher nibble of the given address.">
<polygon fill="white" stroke="black" points="604,-237.5 604,-256.5 690,-256.5 690,-237.5 604,-237.5"/>
<text text-anchor="middle" x="647" y="-244.5" font-family="FreeSans" font-size="10.00">getHighNibble</text>
</a>
</g>
</g>
<!-- Node3&#45;&gt;Node4 -->
<g id="edge3" class="edge">
<title>Node3&#45;&gt;Node4</title>
<path fill="none" stroke="midnightblue" d="M551.22,-234.27C564.83,-236.1 579.78,-238.11 593.7,-239.98"/>
<polygon fill="midnightblue" stroke="midnightblue" points="593.24,-243.45 603.62,-241.31 594.18,-236.51 593.24,-243.45"/>
</g>
<!-- Node5 -->
<g id="node5" class="node">
<title>Node5</title>
<g id="a_node5"><a xlink:href="os__memory_8c.html#a01bd9b56dbbeb0af404043ceca5c8818" target="_top" xlink:title="Reads the value of the lower nibble of the given address.">
<polygon fill="white" stroke="black" points="605.5,-199.5 605.5,-218.5 688.5,-218.5 688.5,-199.5 605.5,-199.5"/>
<text text-anchor="middle" x="647" y="-206.5" font-family="FreeSans" font-size="10.00">getLowNibble</text>
</a>
</g>
</g>
<!-- Node3&#45;&gt;Node5 -->
<g id="edge4" class="edge">
<title>Node3&#45;&gt;Node5</title>
<path fill="none" stroke="midnightblue" d="M551.22,-221.73C565.35,-219.83 580.92,-217.74 595.29,-215.81"/>
<polygon fill="midnightblue" stroke="midnightblue" points="596.05,-219.24 605.5,-214.44 595.12,-212.3 596.05,-219.24"/>
</g>
<!-- Node7 -->
<g id="node7" class="node">
<title>Node7</title>
<g id="a_node7"><a xlink:href="os__memory_8c.html#a211f98b56ba22e7ec073c1b09b35d0ff" target="_top" xlink:title="Writes a value from 0x0 to 0xF to the higher nibble of the given address.">
<polygon fill="white" stroke="black" points="460.5,-313.5 460.5,-332.5 546.5,-332.5 546.5,-313.5 460.5,-313.5"/>
<text text-anchor="middle" x="503.5" y="-320.5" font-family="FreeSans" font-size="10.00">setHighNibble</text>
</a>
</g>
</g>
<!-- Node6&#45;&gt;Node7 -->
<g id="edge6" class="edge">
<title>Node6&#45;&gt;Node7</title>
<path fill="none" stroke="midnightblue" d="M375.39,-316.09C397.61,-317.3 425.9,-318.83 450.14,-320.15"/>
<polygon fill="midnightblue" stroke="midnightblue" points="450.08,-323.65 460.26,-320.7 450.46,-316.66 450.08,-323.65"/>
</g>
<!-- Node8 -->
<g id="node8" class="node">
<title>Node8</title>
<g id="a_node8"><a xlink:href="os__memory_8c.html#a79edcf2881c1b78d097495d05e7cec4f" target="_top" xlink:title="Writes a value from 0x0 to 0xF to the lower nibble of the given address.">
<polygon fill="white" stroke="black" points="462,-275.5 462,-294.5 545,-294.5 545,-275.5 462,-275.5"/>
<text text-anchor="middle" x="503.5" y="-282.5" font-family="FreeSans" font-size="10.00">setLowNibble</text>
</a>
</g>
</g>
<!-- Node6&#45;&gt;Node8 -->
<g id="edge7" class="edge">
<title>Node6&#45;&gt;Node8</title>
<path fill="none" stroke="midnightblue" d="M375.39,-307.27C398.13,-303.29 427.22,-298.19 451.83,-293.88"/>
<polygon fill="midnightblue" stroke="midnightblue" points="452.48,-297.32 461.72,-292.15 451.27,-290.42 452.48,-297.32"/>
</g>
<!-- Node10&#45;&gt;Node3 -->
<g id="edge12" class="edge">
<title>Node10&#45;&gt;Node3</title>
<path fill="none" stroke="midnightblue" d="M217.78,-204.13C278.55,-209.23 381.61,-217.87 445.66,-223.23"/>
<polygon fill="midnightblue" stroke="midnightblue" points="445.72,-226.75 455.98,-224.1 446.31,-219.78 445.72,-226.75"/>
</g>
<!-- Node10&#45;&gt;Node11 -->
<g id="edge10" class="edge">
<title>Node10&#45;&gt;Node11</title>
<path fill="none" stroke="midnightblue" d="M210.51,-190.41C232.68,-185.35 260.07,-179.1 283.51,-173.75"/>
<polygon fill="midnightblue" stroke="midnightblue" points="284.32,-177.16 293.29,-171.52 282.76,-170.33 284.32,-177.16"/>
</g>
<!-- Node11&#45;&gt;Node3 -->
<g id="edge11" class="edge">
<title>Node11&#45;&gt;Node3</title>
<path fill="none" stroke="midnightblue" d="M364.09,-171.5C376.07,-175.79 390.29,-181.01 403,-186 425.99,-195.03 451.67,-205.89 471.18,-214.3"/>
<polygon fill="midnightblue" stroke="midnightblue" points="469.93,-217.57 480.5,-218.34 472.72,-211.15 469.93,-217.57"/>
</g>
<!-- Node14&#45;&gt;Node12 -->
<g id="edge18" class="edge">
<title>Node14&#45;&gt;Node12</title>
<path fill="none" stroke="midnightblue" d="M200.63,-18.47C211.06,-21.48 222.62,-25.1 233,-29 258.69,-38.64 286.95,-51.89 307.2,-61.86"/>
<polygon fill="midnightblue" stroke="midnightblue" points="305.66,-65 316.18,-66.32 308.78,-58.73 305.66,-65"/>
</g>
<!-- Node15 -->
<g id="node15" class="node">
<title>Node15</title>
<g id="a_node15"><a xlink:href="os__memory_8c.html#a5898dee5872eb916998a582be5531506" target="_top" xlink:title=" ">
<polygon fill="white" stroke="black" points="287,-9.5 287,-28.5 385,-28.5 385,-9.5 287,-9.5"/>
<text text-anchor="middle" x="336" y="-16.5" font-family="FreeSans" font-size="10.00">os_mallocOwner</text>
</a>
</g>
</g>
<!-- Node14&#45;&gt;Node15 -->
<g id="edge19" class="edge">
<title>Node14&#45;&gt;Node15</title>
<path fill="none" stroke="midnightblue" d="M200.6,-11.74C222.11,-12.9 251.06,-14.46 276.59,-15.84"/>
<polygon fill="midnightblue" stroke="midnightblue" points="276.74,-19.36 286.91,-16.4 277.11,-12.37 276.74,-19.36"/>
</g>
<!-- Node15&#45;&gt;Node9 -->
<g id="edge20" class="edge">
<title>Node15&#45;&gt;Node9</title>
<path fill="none" stroke="midnightblue" d="M366.97,-28.6C393.92,-37.23 433.68,-49.96 463.18,-59.41"/>
<polygon fill="midnightblue" stroke="midnightblue" points="462.16,-62.76 472.75,-62.47 464.3,-56.09 462.16,-62.76"/>
</g>
</g>
</svg>
