<?xml version="1.0" encoding="UTF-8" standalone="no"?>
<!DOCTYPE svg PUBLIC "-//W3C//DTD SVG 1.1//EN"
 "http://www.w3.org/Graphics/SVG/1.1/DTD/svg11.dtd">
<!-- Generated by graphviz version 2.43.0 (0)
 -->
<!-- Title: os_dispatcher Pages: 1 -->
<svg width="341pt" height="28pt"
 viewBox="0.00 0.00 341.00 28.00" xmlns="http://www.w3.org/2000/svg" xmlns:xlink="http://www.w3.org/1999/xlink">
<g id="graph0" class="graph" transform="scale(1 1) rotate(0) translate(4 24)">
<title>os_dispatcher</title>
<polygon fill="white" stroke="transparent" points="-4,4 -4,-24 337,-24 337,4 -4,4"/>
<!-- Node1 -->
<g id="node1" class="node">
<title>Node1</title>
<g id="a_node1"><a xlink:title=" ">
<polygon fill="#bfbfbf" stroke="black" points="0,-0.5 0,-19.5 84,-19.5 84,-0.5 0,-0.5"/>
<text text-anchor="middle" x="42" y="-7.5" font-family="FreeSans" font-size="10.00">os_dispatcher</text>
</a>
</g>
</g>
<!-- Node2 -->
<g id="node2" class="node">
<title>Node2</title>
<g id="a_node2"><a xlink:href="os__scheduler_8c.html#ac495981d4e6fbcbc04d381dd69bf62d6" target="_top" xlink:title="Used to kill a running process and clear the corresponding process slot.">
<polygon fill="white" stroke="black" points="120,-0.5 120,-19.5 168,-19.5 168,-0.5 120,-0.5"/>
<text text-anchor="middle" x="144" y="-7.5" font-family="FreeSans" font-size="10.00">os_kill</text>
</a>
</g>
</g>
<!-- Node1&#45;&gt;Node2 -->
<g id="edge1" class="edge">
<title>Node1&#45;&gt;Node2</title>
<path fill="none" stroke="midnightblue" d="M84.25,-10C92.71,-10 101.5,-10 109.64,-10"/>
<polygon fill="midnightblue" stroke="midnightblue" points="109.87,-13.5 119.87,-10 109.87,-6.5 109.87,-13.5"/>
</g>
<!-- Node3 -->
<g id="node3" class="node">
<title>Node3</title>
<g id="a_node3"><a xlink:href="os__scheduler_8c.html#a9d27b2dbf45ce6648916ed5ceb0a38df" target="_top" xlink:title="Enters a critical code section.">
<polygon fill="white" stroke="black" points="204,-0.5 204,-19.5 333,-19.5 333,-0.5 204,-0.5"/>
<text text-anchor="middle" x="268.5" y="-7.5" font-family="FreeSans" font-size="10.00">os_enterCriticalSection</text>
</a>
</g>
</g>
<!-- Node2&#45;&gt;Node3 -->
<g id="edge2" class="edge">
<title>Node2&#45;&gt;Node3</title>
<path fill="none" stroke="midnightblue" d="M168.04,-10C175.63,-10 184.51,-10 193.79,-10"/>
<polygon fill="midnightblue" stroke="midnightblue" points="193.98,-13.5 203.98,-10 193.98,-6.5 193.98,-13.5"/>
</g>
</g>
</svg>
