<?xml version="1.0" encoding="UTF-8" standalone="no"?>
<!DOCTYPE svg PUBLIC "-//W3C//DTD SVG 1.1//EN"
 "http://www.w3.org/Graphics/SVG/1.1/DTD/svg11.dtd">
<!-- Generated by graphviz version 2.43.0 (0)
 -->
<!-- Title: os_init Pages: 1 -->
<svg width="736pt" height="436pt"
 viewBox="0.00 0.00 736.00 436.00" xmlns="http://www.w3.org/2000/svg" xmlns:xlink="http://www.w3.org/1999/xlink">
<g id="graph0" class="graph" transform="scale(1 1) rotate(0) translate(4 432)">
<title>os_init</title>
<polygon fill="white" stroke="transparent" points="-4,4 -4,-432 732,-432 732,4 -4,4"/>
<!-- Node1 -->
<g id="node1" class="node">
<title>Node1</title>
<g id="a_node1"><a xlink:title="Initializes OS.">
<polygon fill="#bfbfbf" stroke="black" points="0,-171.5 0,-190.5 49,-190.5 49,-171.5 0,-171.5"/>
<text text-anchor="middle" x="24.5" y="-178.5" font-family="FreeSans" font-size="10.00">os_init</text>
</a>
</g>
</g>
<!-- Node2 -->
<g id="node2" class="node">
<title>Node2</title>
<g id="a_node2"><a xlink:href="util_8c.html#a6203c4722e9cbe1542b6ccbe98362dd2" target="_top" xlink:title="Waits for some milliseconds.">
<polygon fill="white" stroke="black" points="283,-408.5 283,-427.5 341,-427.5 341,-408.5 283,-408.5"/>
<text text-anchor="middle" x="312" y="-415.5" font-family="FreeSans" font-size="10.00">delayMs</text>
</a>
</g>
</g>
<!-- Node1&#45;&gt;Node2 -->
<g id="edge1" class="edge">
<title>Node1&#45;&gt;Node2</title>
<path fill="none" stroke="midnightblue" d="M26.3,-190.86C29.08,-218.62 40.7,-298.22 85,-342 136.54,-392.94 223.26,-409.75 272.96,-415.29"/>
<polygon fill="midnightblue" stroke="midnightblue" points="272.67,-418.78 282.97,-416.31 273.38,-411.81 272.67,-418.78"/>
</g>
<!-- Node5 -->
<g id="node5" class="node">
<title>Node5</title>
<g id="a_node5"><a xlink:href="os__mem__drivers_8c.html#a7b4035516f05b473e63dcccfdcbb5ca3" target="_top" xlink:title="Function that needs to be called once in order to initialise all used memories such as the internal S...">
<polygon fill="white" stroke="black" points="91,-228.5 91,-247.5 203,-247.5 203,-228.5 91,-228.5"/>
<text text-anchor="middle" x="147" y="-235.5" font-family="FreeSans" font-size="10.00">initMemoryDevices</text>
</a>
</g>
</g>
<!-- Node1&#45;&gt;Node5 -->
<g id="edge4" class="edge">
<title>Node1&#45;&gt;Node5</title>
<path fill="none" stroke="midnightblue" d="M38.16,-190.5C49.83,-198.91 67.88,-211.04 85,-219 89.72,-221.19 94.76,-223.22 99.84,-225.07"/>
<polygon fill="midnightblue" stroke="midnightblue" points="99,-228.48 109.6,-228.4 101.26,-221.86 99,-228.48"/>
</g>
<!-- Node6 -->
<g id="node6" class="node">
<title>Node6</title>
<g id="a_node6"><a xlink:href="lcd_8c.html#a6842775ba83d166f02b8fef8bb63b1e6" target="_top" xlink:title="Initialize LCD.">
<polygon fill="white" stroke="black" points="121,-313.5 121,-332.5 173,-332.5 173,-313.5 121,-313.5"/>
<text text-anchor="middle" x="147" y="-320.5" font-family="FreeSans" font-size="10.00">lcd_init</text>
</a>
</g>
</g>
<!-- Node1&#45;&gt;Node6 -->
<g id="edge5" class="edge">
<title>Node1&#45;&gt;Node6</title>
<path fill="none" stroke="midnightblue" d="M28.15,-190.56C34.53,-211.96 52.64,-264.24 85,-295 92.46,-302.09 102.03,-307.62 111.37,-311.82"/>
<polygon fill="midnightblue" stroke="midnightblue" points="110.34,-315.18 120.92,-315.73 112.99,-308.71 110.34,-315.18"/>
</g>
<!-- Node12 -->
<g id="node12" class="node">
<title>Node12</title>
<g id="a_node12"><a xlink:href="lcd_8c.html#a59cbc4640fd74a5321a52c0b574e864a" target="_top" xlink:title="Write char PROGMEM* string.">
<polygon fill="white" stroke="black" points="91.5,-190.5 91.5,-209.5 202.5,-209.5 202.5,-190.5 91.5,-190.5"/>
<text text-anchor="middle" x="147" y="-197.5" font-family="FreeSans" font-size="10.00">lcd_writeProgString</text>
</a>
</g>
</g>
<!-- Node1&#45;&gt;Node12 -->
<g id="edge15" class="edge">
<title>Node1&#45;&gt;Node12</title>
<path fill="none" stroke="midnightblue" d="M49.02,-184.71C58.4,-186.19 69.69,-187.97 81.21,-189.78"/>
<polygon fill="midnightblue" stroke="midnightblue" points="80.92,-193.28 91.35,-191.38 82.01,-186.37 80.92,-193.28"/>
</g>
<!-- Node14 -->
<g id="node14" class="node">
<title>Node14</title>
<g id="a_node14"><a xlink:href="os__core_8c.html#a4005609655750d34e92fce6c062f9f1c" target="_top" xlink:title="Examines the saved MCU status register and possibly prints an error if the reset source is not allowe...">
<polygon fill="white" stroke="black" points="86,-266.5 86,-285.5 208,-285.5 208,-266.5 86,-266.5"/>
<text text-anchor="middle" x="147" y="-273.5" font-family="FreeSans" font-size="10.00">os_checkResetSource</text>
</a>
</g>
</g>
<!-- Node1&#45;&gt;Node14 -->
<g id="edge17" class="edge">
<title>Node1&#45;&gt;Node14</title>
<path fill="none" stroke="midnightblue" d="M30.52,-190.71C39.35,-206.85 59.21,-239.2 85,-257 87.87,-258.98 90.96,-260.76 94.16,-262.37"/>
<polygon fill="midnightblue" stroke="midnightblue" points="92.87,-265.62 103.43,-266.41 95.67,-259.2 92.87,-265.62"/>
</g>
<!-- Node16 -->
<g id="node16" class="node">
<title>Node16</title>
<g id="a_node16"><a xlink:href="os__core_8c.html#a6e2cb65995e0266255572244baf860f3" target="_top" xlink:title="Initializes timers.">
<polygon fill="white" stroke="black" points="107,-152.5 107,-171.5 187,-171.5 187,-152.5 107,-152.5"/>
<text text-anchor="middle" x="147" y="-159.5" font-family="FreeSans" font-size="10.00">os_init_timer</text>
</a>
</g>
</g>
<!-- Node1&#45;&gt;Node16 -->
<g id="edge20" class="edge">
<title>Node1&#45;&gt;Node16</title>
<path fill="none" stroke="midnightblue" d="M49.02,-177.29C62.63,-175.15 80.29,-172.36 96.8,-169.76"/>
<polygon fill="midnightblue" stroke="midnightblue" points="97.55,-173.18 106.89,-168.17 96.46,-166.27 97.55,-173.18"/>
</g>
<!-- Node17 -->
<g id="node17" class="node">
<title>Node17</title>
<g id="a_node17"><a xlink:href="os__memheap__drivers_8c.html#a1735427417a3f887402129714eadcba0" target="_top" xlink:title="Initialises all Heaps.">
<polygon fill="white" stroke="black" points="107,-114.5 107,-133.5 187,-133.5 187,-114.5 107,-114.5"/>
<text text-anchor="middle" x="147" y="-121.5" font-family="FreeSans" font-size="10.00">os_initHeaps</text>
</a>
</g>
</g>
<!-- Node1&#45;&gt;Node17 -->
<g id="edge21" class="edge">
<title>Node1&#45;&gt;Node17</title>
<path fill="none" stroke="midnightblue" d="M38.16,-171.5C49.83,-163.09 67.88,-150.96 85,-143 89.72,-140.81 94.76,-138.78 99.84,-136.93"/>
<polygon fill="midnightblue" stroke="midnightblue" points="101.26,-140.14 109.6,-133.6 99,-133.52 101.26,-140.14"/>
</g>
<!-- Node18 -->
<g id="node18" class="node">
<title>Node18</title>
<g id="a_node18"><a xlink:href="os__input_8c.html#a47d043a57e87cffbb40be4e33609175a" target="_top" xlink:title="Initializes DDR and PORT for input.">
<polygon fill="white" stroke="black" points="110,-76.5 110,-95.5 184,-95.5 184,-76.5 110,-76.5"/>
<text text-anchor="middle" x="147" y="-83.5" font-family="FreeSans" font-size="10.00">os_initInput</text>
</a>
</g>
</g>
<!-- Node1&#45;&gt;Node18 -->
<g id="edge22" class="edge">
<title>Node1&#45;&gt;Node18</title>
<path fill="none" stroke="midnightblue" d="M30.52,-171.29C39.35,-155.15 59.21,-122.8 85,-105 89.62,-101.81 94.8,-99.14 100.14,-96.9"/>
<polygon fill="midnightblue" stroke="midnightblue" points="101.64,-100.08 109.82,-93.34 99.23,-93.51 101.64,-100.08"/>
</g>
<!-- Node19 -->
<g id="node19" class="node">
<title>Node19</title>
<g id="a_node19"><a xlink:href="os__core_8c.html#afcd3b8ded93499847533d52c2b08772a" target="_top" xlink:title=" ">
<polygon fill="white" stroke="black" points="98.5,-38.5 98.5,-57.5 195.5,-57.5 195.5,-38.5 98.5,-38.5"/>
<text text-anchor="middle" x="147" y="-45.5" font-family="FreeSans" font-size="10.00">os_initScheduler</text>
</a>
</g>
</g>
<!-- Node1&#45;&gt;Node19 -->
<g id="edge23" class="edge">
<title>Node1&#45;&gt;Node19</title>
<path fill="none" stroke="midnightblue" d="M27.79,-171.46C33.52,-149.64 50.56,-95.77 85,-67 87.05,-65.29 89.25,-63.73 91.56,-62.31"/>
<polygon fill="midnightblue" stroke="midnightblue" points="93.6,-65.2 100.9,-57.51 90.4,-58.97 93.6,-65.2"/>
</g>
<!-- Node20 -->
<g id="node20" class="node">
<title>Node20</title>
<g id="a_node20"><a xlink:href="util_8c.html#a6370606c3e897e0d3064a0f154a536a2" target="_top" xlink:title="Resets system time back to 0.">
<polygon fill="white" stroke="black" points="85,-0.5 85,-19.5 209,-19.5 209,-0.5 85,-0.5"/>
<text text-anchor="middle" x="147" y="-7.5" font-family="FreeSans" font-size="10.00">os_systemTime_reset</text>
</a>
</g>
</g>
<!-- Node1&#45;&gt;Node20 -->
<g id="edge24" class="edge">
<title>Node1&#45;&gt;Node20</title>
<path fill="none" stroke="midnightblue" d="M26.44,-171.21C29.54,-144.41 41.86,-69.17 85,-29 86.68,-27.43 88.49,-26 90.4,-24.68"/>
<polygon fill="midnightblue" stroke="midnightblue" points="92.31,-27.62 99.26,-19.62 88.84,-21.54 92.31,-27.62"/>
</g>
<!-- Node3 -->
<g id="node3" class="node">
<title>Node3</title>
<g id="a_node3"><a xlink:href="util_8c.html#a0ed4ceac216999d297c20ed56cd2f2e0" target="_top" xlink:title="Precise system time in ms.">
<polygon fill="white" stroke="black" points="415,-408.5 415,-427.5 549,-427.5 549,-408.5 415,-408.5"/>
<text text-anchor="middle" x="482" y="-415.5" font-family="FreeSans" font-size="10.00">os_systemTime_precise</text>
</a>
</g>
</g>
<!-- Node2&#45;&gt;Node3 -->
<g id="edge2" class="edge">
<title>Node2&#45;&gt;Node3</title>
<path fill="none" stroke="midnightblue" d="M341.12,-418C358.54,-418 381.82,-418 404.38,-418"/>
<polygon fill="midnightblue" stroke="midnightblue" points="404.67,-421.5 414.67,-418 404.67,-414.5 404.67,-421.5"/>
</g>
<!-- Node4 -->
<g id="node4" class="node">
<title>Node4</title>
<g id="a_node4"><a xlink:href="util_8c.html#aa7568de3711b151bbc57bb3517a5cb0a" target="_top" xlink:title=" ">
<polygon fill="white" stroke="black" points="585,-408.5 585,-427.5 728,-427.5 728,-408.5 585,-408.5"/>
<text text-anchor="middle" x="656.5" y="-415.5" font-family="FreeSans" font-size="10.00">os_systemTime_augment</text>
</a>
</g>
</g>
<!-- Node3&#45;&gt;Node4 -->
<g id="edge3" class="edge">
<title>Node3&#45;&gt;Node4</title>
<path fill="none" stroke="midnightblue" d="M549.2,-418C557.6,-418 566.27,-418 574.86,-418"/>
<polygon fill="midnightblue" stroke="midnightblue" points="574.89,-421.5 584.89,-418 574.89,-414.5 574.89,-421.5"/>
</g>
<!-- Node6&#45;&gt;Node2 -->
<g id="edge6" class="edge">
<title>Node6&#45;&gt;Node2</title>
<path fill="none" stroke="midnightblue" d="M159.06,-332.55C180.34,-350.78 226.52,-389.56 245,-399 253.65,-403.42 263.49,-406.96 272.88,-409.72"/>
<polygon fill="midnightblue" stroke="midnightblue" points="272.24,-413.17 282.81,-412.42 274.07,-406.42 272.24,-413.17"/>
</g>
<!-- Node7 -->
<g id="node7" class="node">
<title>Node7</title>
<g id="a_node7"><a xlink:href="lcd_8c.html#ad235a86241458b1e7b8771688bfdaf9a" target="_top" xlink:title="Clear all data from display.">
<polygon fill="white" stroke="black" points="282,-332.5 282,-351.5 342,-351.5 342,-332.5 282,-332.5"/>
<text text-anchor="middle" x="312" y="-339.5" font-family="FreeSans" font-size="10.00">lcd_clear</text>
</a>
</g>
</g>
<!-- Node6&#45;&gt;Node7 -->
<g id="edge7" class="edge">
<title>Node6&#45;&gt;Node7</title>
<path fill="none" stroke="midnightblue" d="M173.11,-325.93C199.43,-328.99 241.13,-333.86 271.79,-337.43"/>
<polygon fill="midnightblue" stroke="midnightblue" points="271.39,-340.91 281.72,-338.59 272.2,-333.95 271.39,-340.91"/>
</g>
<!-- Node8 -->
<g id="node8" class="node">
<title>Node8</title>
<g id="a_node8"><a xlink:href="lcd_8c.html#acb116d89c358367b8fd1164120d320e3" target="_top" xlink:title="Send command to LCD.">
<polygon fill="white" stroke="black" points="439.5,-332.5 439.5,-351.5 524.5,-351.5 524.5,-332.5 439.5,-332.5"/>
<text text-anchor="middle" x="482" y="-339.5" font-family="FreeSans" font-size="10.00">lcd_command</text>
</a>
</g>
</g>
<!-- Node6&#45;&gt;Node8 -->
<g id="edge10" class="edge">
<title>Node6&#45;&gt;Node8</title>
<path fill="none" stroke="midnightblue" d="M166.34,-313.42C185.4,-304.04 216.39,-290.4 245,-285 303.52,-273.95 321.37,-269.99 379,-285 409.64,-292.98 440.84,-312.42 460.52,-326.38"/>
<polygon fill="midnightblue" stroke="midnightblue" points="458.57,-329.29 468.71,-332.35 462.69,-323.63 458.57,-329.29"/>
</g>
<!-- Node10 -->
<g id="node10" class="node">
<title>Node10</title>
<g id="a_node10"><a xlink:href="lcd_8c.html#aca4a9d0155c7c7ec0c5ce4c2f5347847" target="_top" xlink:title=" ">
<polygon fill="white" stroke="black" points="277.5,-294.5 277.5,-313.5 346.5,-313.5 346.5,-294.5 277.5,-294.5"/>
<text text-anchor="middle" x="312" y="-301.5" font-family="FreeSans" font-size="10.00">lcd_enable</text>
</a>
</g>
</g>
<!-- Node6&#45;&gt;Node10 -->
<g id="edge11" class="edge">
<title>Node6&#45;&gt;Node10</title>
<path fill="none" stroke="midnightblue" d="M173.11,-320.07C198.12,-317.16 237.01,-312.62 267.12,-309.11"/>
<polygon fill="midnightblue" stroke="midnightblue" points="267.84,-312.55 277.37,-307.92 267.03,-305.6 267.84,-312.55"/>
</g>
<!-- Node11 -->
<g id="node11" class="node">
<title>Node11</title>
<g id="a_node11"><a xlink:href="lcd_8c.html#a9145ad7b7dd6a45f9a84cf3d424c5cf2" target="_top" xlink:title="Register a custom designed character with the LCD.">
<polygon fill="white" stroke="black" points="245,-370.5 245,-389.5 379,-389.5 379,-370.5 245,-370.5"/>
<text text-anchor="middle" x="312" y="-377.5" font-family="FreeSans" font-size="10.00">lcd_registerCustomChar</text>
</a>
</g>
</g>
<!-- Node6&#45;&gt;Node11 -->
<g id="edge12" class="edge">
<title>Node6&#45;&gt;Node11</title>
<path fill="none" stroke="midnightblue" d="M170.51,-332.51C190.04,-340.59 219.14,-352.23 245,-361 251.6,-363.24 258.63,-365.44 265.54,-367.52"/>
<polygon fill="midnightblue" stroke="midnightblue" points="264.95,-370.99 275.53,-370.45 266.92,-364.27 264.95,-370.99"/>
</g>
<!-- Node7&#45;&gt;Node8 -->
<g id="edge8" class="edge">
<title>Node7&#45;&gt;Node8</title>
<path fill="none" stroke="midnightblue" d="M342.26,-342C366.21,-342 400.67,-342 429.25,-342"/>
<polygon fill="midnightblue" stroke="midnightblue" points="429.49,-345.5 439.49,-342 429.49,-338.5 429.49,-345.5"/>
</g>
<!-- Node9 -->
<g id="node9" class="node">
<title>Node9</title>
<g id="a_node9"><a xlink:href="lcd_8c.html#a26a89cb41bb1496462fda420cbe79a07" target="_top" xlink:title=" ">
<polygon fill="white" stroke="black" points="609,-351.5 609,-370.5 704,-370.5 704,-351.5 609,-351.5"/>
<text text-anchor="middle" x="656.5" y="-358.5" font-family="FreeSans" font-size="10.00">lcd_sendStream</text>
</a>
</g>
</g>
<!-- Node8&#45;&gt;Node9 -->
<g id="edge9" class="edge">
<title>Node8&#45;&gt;Node9</title>
<path fill="none" stroke="midnightblue" d="M524.76,-346.6C547.01,-349.05 574.69,-352.1 598.85,-354.76"/>
<polygon fill="midnightblue" stroke="midnightblue" points="598.64,-358.26 608.96,-355.87 599.41,-351.3 598.64,-358.26"/>
</g>
<!-- Node11&#45;&gt;Node8 -->
<g id="edge13" class="edge">
<title>Node11&#45;&gt;Node8</title>
<path fill="none" stroke="midnightblue" d="M355.39,-370.41C377.93,-365.31 405.82,-359.01 429.59,-353.63"/>
<polygon fill="midnightblue" stroke="midnightblue" points="430.51,-357.01 439.49,-351.39 428.97,-350.18 430.51,-357.01"/>
</g>
<!-- Node11&#45;&gt;Node9 -->
<g id="edge14" class="edge">
<title>Node11&#45;&gt;Node9</title>
<path fill="none" stroke="midnightblue" d="M379.04,-376.34C442.8,-372.8 538.34,-367.5 598.76,-364.15"/>
<polygon fill="midnightblue" stroke="midnightblue" points="599.09,-367.63 608.89,-363.59 598.71,-360.65 599.09,-367.63"/>
</g>
<!-- Node13 -->
<g id="node13" class="node">
<title>Node13</title>
<g id="a_node13"><a xlink:href="lcd_8c.html#a93cd5600fa3b27381a4cf57d21f27ebf" target="_top" xlink:title="Write one character.">
<polygon fill="white" stroke="black" points="270.5,-180.5 270.5,-199.5 353.5,-199.5 353.5,-180.5 270.5,-180.5"/>
<text text-anchor="middle" x="312" y="-187.5" font-family="FreeSans" font-size="10.00">lcd_writeChar</text>
</a>
</g>
</g>
<!-- Node12&#45;&gt;Node13 -->
<g id="edge16" class="edge">
<title>Node12&#45;&gt;Node13</title>
<path fill="none" stroke="midnightblue" d="M202.73,-196.64C221.29,-195.5 241.94,-194.24 260.19,-193.12"/>
<polygon fill="midnightblue" stroke="midnightblue" points="260.57,-196.6 270.33,-192.49 260.14,-189.61 260.57,-196.6"/>
</g>
<!-- Node15 -->
<g id="node15" class="node">
<title>Node15</title>
<g id="a_node15"><a xlink:href="lcd_8c.html#ad9ccaf30ea478fef726c058ff4ee7dd1" target="_top" xlink:title="Next output will be written to line 2.">
<polygon fill="white" stroke="black" points="282,-218.5 282,-237.5 342,-237.5 342,-218.5 282,-218.5"/>
<text text-anchor="middle" x="312" y="-225.5" font-family="FreeSans" font-size="10.00">lcd_line2</text>
</a>
</g>
</g>
<!-- Node14&#45;&gt;Node15 -->
<g id="edge18" class="edge">
<title>Node14&#45;&gt;Node15</title>
<path fill="none" stroke="midnightblue" d="M180.59,-266.4C206.91,-258.65 244.01,-247.73 271.92,-239.51"/>
<polygon fill="midnightblue" stroke="midnightblue" points="273.14,-242.8 281.75,-236.61 271.16,-236.08 273.14,-242.8"/>
</g>
<!-- Node15&#45;&gt;Node8 -->
<g id="edge19" class="edge">
<title>Node15&#45;&gt;Node8</title>
<path fill="none" stroke="midnightblue" d="M342.32,-236.05C354.16,-239.95 367.68,-245.28 379,-252 413.27,-272.35 446.68,-304.98 465.47,-324.85"/>
<polygon fill="midnightblue" stroke="midnightblue" points="463,-327.34 472.37,-332.28 468.13,-322.57 463,-327.34"/>
</g>
</g>
</svg>
