<?xml version="1.0" encoding="UTF-8" standalone="no"?>
<!DOCTYPE svg PUBLIC "-//W3C//DTD SVG 1.1//EN"
 "http://www.w3.org/Graphics/SVG/1.1/DTD/svg11.dtd">
<!-- Generated by graphviz version 2.43.0 (0)
 -->
<!-- Title: util.h Pages: 1 -->
<svg width="484pt" height="140pt"
 viewBox="0.00 0.00 483.50 140.00" xmlns="http://www.w3.org/2000/svg" xmlns:xlink="http://www.w3.org/1999/xlink">
<g id="graph0" class="graph" transform="scale(1 1) rotate(0) translate(4 136)">
<title>util.h</title>
<polygon fill="white" stroke="transparent" points="-4,4 -4,-136 479.5,-136 479.5,4 -4,4"/>
<!-- Node1 -->
<g id="node1" class="node">
<title>Node1</title>
<g id="a_node1"><a xlink:title="Little helpers that don&#39;t fit elsewhere.">
<polygon fill="#bfbfbf" stroke="black" points="214,-112.5 214,-131.5 255,-131.5 255,-112.5 214,-112.5"/>
<text text-anchor="middle" x="234.5" y="-119.5" font-family="FreeSans" font-size="10.00">util.h</text>
</a>
</g>
</g>
<!-- Node2 -->
<g id="node2" class="node">
<title>Node2</title>
<g id="a_node2"><a xlink:href="lcd_8c.html" target="_top" xlink:title="Library for LCD use.">
<polygon fill="white" stroke="black" points="0,-0.5 0,-19.5 39,-19.5 39,-0.5 0,-0.5"/>
<text text-anchor="middle" x="19.5" y="-7.5" font-family="FreeSans" font-size="10.00">lcd.c</text>
</a>
</g>
</g>
<!-- Node1&#45;&gt;Node2 -->
<g id="edge1" class="edge">
<title>Node1&#45;&gt;Node2</title>
<path fill="none" stroke="midnightblue" d="M203.83,-111.6C179.28,-103.57 144.32,-90.95 115.5,-76 82.8,-59.04 47.8,-33.12 30.49,-19.71"/>
<polygon fill="midnightblue" stroke="midnightblue" points="203.07,-115.03 213.66,-114.76 205.21,-108.37 203.07,-115.03"/>
</g>
<!-- Node3 -->
<g id="node3" class="node">
<title>Node3</title>
<g id="a_node3"><a xlink:href="lcd_8h.html" target="_top" xlink:title="Library for LCD use.">
<polygon fill="white" stroke="black" points="147.5,-56.5 147.5,-75.5 187.5,-75.5 187.5,-56.5 147.5,-56.5"/>
<text text-anchor="middle" x="167.5" y="-63.5" font-family="FreeSans" font-size="10.00">lcd.h</text>
</a>
</g>
</g>
<!-- Node1&#45;&gt;Node3 -->
<g id="edge2" class="edge">
<title>Node1&#45;&gt;Node3</title>
<path fill="none" stroke="midnightblue" d="M215.67,-105.82C203.66,-96.15 188.53,-83.95 178.46,-75.83"/>
<polygon fill="midnightblue" stroke="midnightblue" points="213.75,-108.77 223.74,-112.32 218.15,-103.32 213.75,-108.77"/>
</g>
<!-- Node4 -->
<g id="node4" class="node">
<title>Node4</title>
<g id="a_node4"><a xlink:href="os__core_8c.html" target="_top" xlink:title=" ">
<polygon fill="white" stroke="black" points="57.5,-0.5 57.5,-19.5 119.5,-19.5 119.5,-0.5 57.5,-0.5"/>
<text text-anchor="middle" x="88.5" y="-7.5" font-family="FreeSans" font-size="10.00">os_core.c</text>
</a>
</g>
</g>
<!-- Node1&#45;&gt;Node4 -->
<g id="edge8" class="edge">
<title>Node1&#45;&gt;Node4</title>
<path fill="none" stroke="midnightblue" d="M204.24,-111.09C184.22,-103.55 158.14,-91.78 138.5,-76 118.08,-59.59 101.18,-33.19 93.29,-19.64"/>
<polygon fill="midnightblue" stroke="midnightblue" points="203.22,-114.44 213.81,-114.54 205.6,-107.85 203.22,-114.44"/>
</g>
<!-- Node5 -->
<g id="node5" class="node">
<title>Node5</title>
<g id="a_node5"><a xlink:href="os__scheduler_8c.html" target="_top" xlink:title="Scheduling module for the OS.">
<polygon fill="white" stroke="black" points="137.5,-0.5 137.5,-19.5 225.5,-19.5 225.5,-0.5 137.5,-0.5"/>
<text text-anchor="middle" x="181.5" y="-7.5" font-family="FreeSans" font-size="10.00">os_scheduler.c</text>
</a>
</g>
</g>
<!-- Node1&#45;&gt;Node5 -->
<g id="edge10" class="edge">
<title>Node1&#45;&gt;Node5</title>
<path fill="none" stroke="midnightblue" d="M225.98,-103.32C214.44,-79.37 194.29,-37.55 185.64,-19.59"/>
<polygon fill="midnightblue" stroke="midnightblue" points="222.85,-104.88 230.34,-112.37 229.15,-101.84 222.85,-104.88"/>
</g>
<!-- Node6 -->
<g id="node6" class="node">
<title>Node6</title>
<g id="a_node6"><a xlink:href="os__taskman_8c.html" target="_top" xlink:title=" ">
<polygon fill="white" stroke="black" points="243.5,-0.5 243.5,-19.5 327.5,-19.5 327.5,-0.5 243.5,-0.5"/>
<text text-anchor="middle" x="285.5" y="-7.5" font-family="FreeSans" font-size="10.00">os_taskman.c</text>
</a>
</g>
</g>
<!-- Node1&#45;&gt;Node6 -->
<g id="edge13" class="edge">
<title>Node1&#45;&gt;Node6</title>
<path fill="none" stroke="midnightblue" d="M242.85,-103C253.97,-79 273.23,-37.47 281.52,-19.59"/>
<polygon fill="midnightblue" stroke="midnightblue" points="239.53,-101.82 238.5,-112.37 245.88,-104.77 239.53,-101.82"/>
</g>
<!-- Node7 -->
<g id="node7" class="node">
<title>Node7</title>
<g id="a_node7"><a xlink:href="util_8c.html" target="_top" xlink:title=" ">
<polygon fill="white" stroke="black" points="346,-0.5 346,-19.5 387,-19.5 387,-0.5 346,-0.5"/>
<text text-anchor="middle" x="366.5" y="-7.5" font-family="FreeSans" font-size="10.00">util.c</text>
</a>
</g>
</g>
<!-- Node1&#45;&gt;Node7 -->
<g id="edge14" class="edge">
<title>Node1&#45;&gt;Node7</title>
<path fill="none" stroke="midnightblue" d="M252.73,-105.47C268.29,-92.25 291.29,-72.79 311.5,-56 326.87,-43.23 344.81,-28.6 355.92,-19.58"/>
<polygon fill="midnightblue" stroke="midnightblue" points="250.27,-102.97 244.92,-112.12 254.8,-108.31 250.27,-102.97"/>
</g>
<!-- Node8 -->
<g id="node8" class="node">
<title>Node8</title>
<g id="a_node8"><a xlink:href="os__memory_8c.html" target="_top" xlink:title=" ">
<polygon fill="white" stroke="black" points="320,-56.5 320,-75.5 401,-75.5 401,-56.5 320,-56.5"/>
<text text-anchor="middle" x="360.5" y="-63.5" font-family="FreeSans" font-size="10.00">os_memory.c</text>
</a>
</g>
</g>
<!-- Node1&#45;&gt;Node8 -->
<g id="edge9" class="edge">
<title>Node1&#45;&gt;Node8</title>
<path fill="none" stroke="midnightblue" d="M263.66,-108.5C287.28,-98.38 319.93,-84.39 340.63,-75.52"/>
<polygon fill="midnightblue" stroke="midnightblue" points="262.28,-105.29 254.47,-112.44 265.04,-111.72 262.28,-105.29"/>
</g>
<!-- Node9 -->
<g id="node9" class="node">
<title>Node9</title>
<g id="a_node9"><a xlink:href="os__spi_8h.html" target="_top" xlink:title="Driver for AVRs SPI module.">
<polygon fill="white" stroke="black" points="419.5,-56.5 419.5,-75.5 475.5,-75.5 475.5,-56.5 419.5,-56.5"/>
<text text-anchor="middle" x="447.5" y="-63.5" font-family="FreeSans" font-size="10.00">os_spi.h</text>
</a>
</g>
</g>
<!-- Node1&#45;&gt;Node9 -->
<g id="edge11" class="edge">
<title>Node1&#45;&gt;Node9</title>
<path fill="none" stroke="midnightblue" d="M265.08,-113.25C306.32,-102.79 379.21,-84.31 419.23,-74.17"/>
<polygon fill="midnightblue" stroke="midnightblue" points="264.14,-109.87 255.31,-115.72 265.86,-116.66 264.14,-109.87"/>
</g>
<!-- Node3&#45;&gt;Node2 -->
<g id="edge3" class="edge">
<title>Node3&#45;&gt;Node2</title>
<path fill="none" stroke="midnightblue" d="M137.5,-54.05C108.11,-43.33 64.2,-27.31 39.05,-18.13"/>
<polygon fill="midnightblue" stroke="midnightblue" points="136.64,-57.47 147.23,-57.6 139.04,-50.89 136.64,-57.47"/>
</g>
<!-- Node3&#45;&gt;Node4 -->
<g id="edge4" class="edge">
<title>Node3&#45;&gt;Node4</title>
<path fill="none" stroke="midnightblue" d="M146.47,-50.62C132.03,-40.76 113.36,-27.99 101.16,-19.65"/>
<polygon fill="midnightblue" stroke="midnightblue" points="144.58,-53.57 154.81,-56.32 148.53,-47.79 144.58,-53.57"/>
</g>
<!-- Node3&#45;&gt;Node5 -->
<g id="edge5" class="edge">
<title>Node3&#45;&gt;Node5</title>
<path fill="none" stroke="midnightblue" d="M172.32,-46.4C174.67,-37.36 177.37,-26.94 179.23,-19.75"/>
<polygon fill="midnightblue" stroke="midnightblue" points="168.93,-45.52 169.81,-56.08 175.71,-47.28 168.93,-45.52"/>
</g>
<!-- Node3&#45;&gt;Node6 -->
<g id="edge6" class="edge">
<title>Node3&#45;&gt;Node6</title>
<path fill="none" stroke="midnightblue" d="M195.4,-52.23C217.47,-42.13 247.68,-28.31 266.89,-19.52"/>
<polygon fill="midnightblue" stroke="midnightblue" points="193.83,-49.1 186.2,-56.44 196.75,-55.46 193.83,-49.1"/>
</g>
<!-- Node3&#45;&gt;Node7 -->
<g id="edge7" class="edge">
<title>Node3&#45;&gt;Node7</title>
<path fill="none" stroke="midnightblue" d="M197.31,-57.36C231.14,-48.63 287.92,-33.75 336.5,-20 339.53,-19.14 342.73,-18.21 345.87,-17.28"/>
<polygon fill="midnightblue" stroke="midnightblue" points="196.4,-53.98 187.59,-59.87 198.14,-60.76 196.4,-53.98"/>
</g>
<!-- Node10 -->
<g id="node10" class="node">
<title>Node10</title>
<g id="a_node10"><a xlink:href="os__spi_8c.html" target="_top" xlink:title="Driver for AVRs SPI module.">
<polygon fill="white" stroke="black" points="419.5,-0.5 419.5,-19.5 475.5,-19.5 475.5,-0.5 419.5,-0.5"/>
<text text-anchor="middle" x="447.5" y="-7.5" font-family="FreeSans" font-size="10.00">os_spi.c</text>
</a>
</g>
</g>
<!-- Node9&#45;&gt;Node10 -->
<g id="edge12" class="edge">
<title>Node9&#45;&gt;Node10</title>
<path fill="none" stroke="midnightblue" d="M447.5,-45.8C447.5,-36.91 447.5,-26.78 447.5,-19.75"/>
<polygon fill="midnightblue" stroke="midnightblue" points="444,-46.08 447.5,-56.08 451,-46.08 444,-46.08"/>
</g>
</g>
</svg>
