<?xml version="1.0" encoding="UTF-8" standalone="no"?>
<!DOCTYPE svg PUBLIC "-//W3C//DTD SVG 1.1//EN"
 "http://www.w3.org/Graphics/SVG/1.1/DTD/svg11.dtd">
<!-- Generated by graphviz version 2.43.0 (0)
 -->
<!-- Title: atmega644constants.h Pages: 1 -->
<svg width="992pt" height="364pt"
 viewBox="0.00 0.00 992.07 364.00" xmlns="http://www.w3.org/2000/svg" xmlns:xlink="http://www.w3.org/1999/xlink">
<g id="graph0" class="graph" transform="scale(1 1) rotate(0) translate(4 360)">
<title>atmega644constants.h</title>
<polygon fill="white" stroke="transparent" points="-4,4 -4,-360 988.07,-360 988.07,4 -4,4"/>
<!-- Node1 -->
<g id="node1" class="node">
<title>Node1</title>
<g id="a_node1"><a xlink:title="Constants for ATMega644 and EVA board. Defines several useful constants for the ATMega644.">
<polygon fill="#bfbfbf" stroke="black" points="631.07,-336.5 631.07,-355.5 759.07,-355.5 759.07,-336.5 631.07,-336.5"/>
<text text-anchor="middle" x="695.07" y="-343.5" font-family="FreeSans" font-size="10.00">atmega644constants.h</text>
</a>
</g>
</g>
<!-- Node2 -->
<g id="node2" class="node">
<title>Node2</title>
<g id="a_node2"><a xlink:href="defines_8h.html" target="_top" xlink:title="Simple definitions and assembler&#45;macros, mostly 8/16&#45;Bit values.">
<polygon fill="white" stroke="black" points="504.57,-280.5 504.57,-299.5 565.57,-299.5 565.57,-280.5 504.57,-280.5"/>
<text text-anchor="middle" x="535.07" y="-287.5" font-family="FreeSans" font-size="10.00">defines.h</text>
</a>
</g>
</g>
<!-- Node1&#45;&gt;Node2 -->
<g id="edge1" class="edge">
<title>Node1&#45;&gt;Node2</title>
<path fill="none" stroke="midnightblue" d="M660.02,-333.17C629.89,-323 587.17,-308.59 560.3,-299.52"/>
<polygon fill="midnightblue" stroke="midnightblue" points="659.12,-336.56 669.71,-336.44 661.36,-329.93 659.12,-336.56"/>
</g>
<!-- Node8 -->
<g id="node8" class="node">
<title>Node8</title>
<g id="a_node8"><a xlink:href="util_8c.html" target="_top" xlink:title=" ">
<polygon fill="white" stroke="black" points="941.57,-168.5 941.57,-187.5 982.57,-187.5 982.57,-168.5 941.57,-168.5"/>
<text text-anchor="middle" x="962.07" y="-175.5" font-family="FreeSans" font-size="10.00">util.c</text>
</a>
</g>
</g>
<!-- Node1&#45;&gt;Node8 -->
<g id="edge42" class="edge">
<title>Node1&#45;&gt;Node8</title>
<path fill="none" stroke="midnightblue" d="M769.23,-334.9C826.86,-323.07 904.28,-297.73 949.07,-244 962.62,-227.73 963.41,-201.27 962.78,-187.67"/>
<polygon fill="midnightblue" stroke="midnightblue" points="768.22,-331.53 759.08,-336.89 769.57,-338.4 768.22,-331.53"/>
</g>
<!-- Node3 -->
<g id="node3" class="node">
<title>Node3</title>
<g id="a_node3"><a xlink:href="lcd_8h.html" target="_top" xlink:title="Library for LCD use.">
<polygon fill="white" stroke="black" points="665.07,-224.5 665.07,-243.5 705.07,-243.5 705.07,-224.5 665.07,-224.5"/>
<text text-anchor="middle" x="685.07" y="-231.5" font-family="FreeSans" font-size="10.00">lcd.h</text>
</a>
</g>
</g>
<!-- Node2&#45;&gt;Node3 -->
<g id="edge2" class="edge">
<title>Node2&#45;&gt;Node3</title>
<path fill="none" stroke="midnightblue" d="M568.32,-277.03C597.84,-266.4 640.02,-251.21 664.78,-242.3"/>
<polygon fill="midnightblue" stroke="midnightblue" points="567.06,-273.76 558.83,-280.44 569.43,-280.35 567.06,-273.76"/>
</g>
<!-- Node5 -->
<g id="node5" class="node">
<title>Node5</title>
<g id="a_node5"><a xlink:href="os__core_8c.html" target="_top" xlink:title=" ">
<polygon fill="white" stroke="black" points="116.07,-112.5 116.07,-131.5 178.07,-131.5 178.07,-112.5 116.07,-112.5"/>
<text text-anchor="middle" x="147.07" y="-119.5" font-family="FreeSans" font-size="10.00">os_core.c</text>
</a>
</g>
</g>
<!-- Node2&#45;&gt;Node5 -->
<g id="edge8" class="edge">
<title>Node2&#45;&gt;Node5</title>
<path fill="none" stroke="midnightblue" d="M494.34,-285.02C402.69,-275.1 185.08,-245.79 145.07,-188 133.37,-171.11 139.31,-145.38 143.73,-131.92"/>
<polygon fill="midnightblue" stroke="midnightblue" points="494.05,-288.51 504.36,-286.08 494.78,-281.55 494.05,-288.51"/>
</g>
<!-- Node7 -->
<g id="node7" class="node">
<title>Node7</title>
<g id="a_node7"><a xlink:href="os__taskman_8c.html" target="_top" xlink:title=" ">
<polygon fill="white" stroke="black" points="486.07,-0.5 486.07,-19.5 570.07,-19.5 570.07,-0.5 486.07,-0.5"/>
<text text-anchor="middle" x="528.07" y="-7.5" font-family="FreeSans" font-size="10.00">os_taskman.c</text>
</a>
</g>
</g>
<!-- Node2&#45;&gt;Node7 -->
<g id="edge39" class="edge">
<title>Node2&#45;&gt;Node7</title>
<path fill="none" stroke="midnightblue" d="M494.15,-289.26C369.2,-288.98 1.07,-279.6 1.07,-179 1.07,-179 1.07,-179 1.07,-121 1.07,-90.9 -3.2,-75.1 20.07,-56 55.74,-26.72 370.28,-15.28 485.77,-12.05"/>
<polygon fill="midnightblue" stroke="midnightblue" points="494.44,-292.76 504.44,-289.27 494.44,-285.76 494.44,-292.76"/>
</g>
<!-- Node2&#45;&gt;Node8 -->
<g id="edge41" class="edge">
<title>Node2&#45;&gt;Node8</title>
<path fill="none" stroke="midnightblue" d="M575.79,-288.99C664.25,-288.24 870.53,-282.31 927.07,-244 946.8,-230.63 956.33,-202.37 960.07,-187.92"/>
<polygon fill="midnightblue" stroke="midnightblue" points="575.59,-285.49 565.61,-289.06 575.63,-292.49 575.59,-285.49"/>
</g>
<!-- Node9 -->
<g id="node9" class="node">
<title>Node9</title>
<g id="a_node9"><a xlink:href="os__mem__drivers_8c.html" target="_top" xlink:title=" ">
<polygon fill="white" stroke="black" points="154.07,-168.5 154.07,-187.5 260.07,-187.5 260.07,-168.5 154.07,-168.5"/>
<text text-anchor="middle" x="207.07" y="-175.5" font-family="FreeSans" font-size="10.00">os_mem_drivers.c</text>
</a>
</g>
</g>
<!-- Node2&#45;&gt;Node9 -->
<g id="edge9" class="edge">
<title>Node2&#45;&gt;Node9</title>
<path fill="none" stroke="midnightblue" d="M494.43,-282.02C455.27,-274.68 394.68,-261.74 344.07,-244 298.11,-227.89 247.03,-201.12 222.23,-187.51"/>
<polygon fill="midnightblue" stroke="midnightblue" points="493.93,-285.48 504.4,-283.85 495.19,-278.6 493.93,-285.48"/>
</g>
<!-- Node10 -->
<g id="node10" class="node">
<title>Node10</title>
<g id="a_node10"><a xlink:href="os__mem__drivers_8h.html" target="_top" xlink:title="Drivers for OS memory management.">
<polygon fill="white" stroke="black" points="353.57,-224.5 353.57,-243.5 460.57,-243.5 460.57,-224.5 353.57,-224.5"/>
<text text-anchor="middle" x="407.07" y="-231.5" font-family="FreeSans" font-size="10.00">os_mem_drivers.h</text>
</a>
</g>
</g>
<!-- Node2&#45;&gt;Node10 -->
<g id="edge10" class="edge">
<title>Node2&#45;&gt;Node10</title>
<path fill="none" stroke="midnightblue" d="M505.44,-276.5C481.45,-266.38 448.28,-252.39 427.25,-243.52"/>
<polygon fill="midnightblue" stroke="midnightblue" points="504.21,-279.78 514.78,-280.44 506.93,-273.33 504.21,-279.78"/>
</g>
<!-- Node12 -->
<g id="node12" class="node">
<title>Node12</title>
<g id="a_node12"><a xlink:href="os__memheap__drivers_8c.html" target="_top" xlink:title=" ">
<polygon fill="white" stroke="black" points="29.07,-56.5 29.07,-75.5 159.07,-75.5 159.07,-56.5 29.07,-56.5"/>
<text text-anchor="middle" x="94.07" y="-63.5" font-family="FreeSans" font-size="10.00">os_memheap_drivers.c</text>
</a>
</g>
</g>
<!-- Node2&#45;&gt;Node12 -->
<g id="edge28" class="edge">
<title>Node2&#45;&gt;Node12</title>
<path fill="none" stroke="midnightblue" d="M494.08,-286.64C415.81,-281.64 248.2,-268.38 196.07,-244 138.47,-217.07 127.7,-192.14 107.07,-132 100.34,-112.41 96.65,-88.23 95.05,-75.6"/>
<polygon fill="midnightblue" stroke="midnightblue" points="494.31,-290.16 504.51,-287.29 494.75,-283.18 494.31,-290.16"/>
</g>
<!-- Node16 -->
<g id="node16" class="node">
<title>Node16</title>
<g id="a_node16"><a xlink:href="os__user__privileges_8h.html" target="_top" xlink:title="User privileges specification used in part by the task manager.">
<polygon fill="white" stroke="black" points="470.07,-56.5 470.07,-75.5 586.07,-75.5 586.07,-56.5 470.07,-56.5"/>
<text text-anchor="middle" x="528.07" y="-63.5" font-family="FreeSans" font-size="10.00">os_user_privileges.h</text>
</a>
</g>
</g>
<!-- Node2&#45;&gt;Node16 -->
<g id="edge40" class="edge">
<title>Node2&#45;&gt;Node16</title>
<path fill="none" stroke="midnightblue" d="M534.48,-270.3C533.04,-224.64 529.39,-108.85 528.35,-75.88"/>
<polygon fill="midnightblue" stroke="midnightblue" points="530.98,-270.41 534.79,-280.3 537.97,-270.19 530.98,-270.41"/>
</g>
<!-- Node18 -->
<g id="node18" class="node">
<title>Node18</title>
<g id="a_node18"><a xlink:href="os__scheduler_8h.html" target="_top" xlink:title="Scheduling module for the OS.">
<polygon fill="white" stroke="black" points="543.57,-168.5 543.57,-187.5 632.57,-187.5 632.57,-168.5 543.57,-168.5"/>
<text text-anchor="middle" x="588.07" y="-175.5" font-family="FreeSans" font-size="10.00">os_scheduler.h</text>
</a>
</g>
</g>
<!-- Node2&#45;&gt;Node18 -->
<g id="edge29" class="edge">
<title>Node2&#45;&gt;Node18</title>
<path fill="none" stroke="midnightblue" d="M543.58,-271.32C555.12,-247.37 575.27,-205.55 583.93,-187.59"/>
<polygon fill="midnightblue" stroke="midnightblue" points="540.41,-269.84 539.22,-280.37 546.72,-272.88 540.41,-269.84"/>
</g>
<!-- Node19 -->
<g id="node19" class="node">
<title>Node19</title>
<g id="a_node19"><a xlink:href="os__scheduling__strategies_8h.html" target="_top" xlink:title="Scheduling library for the OS.">
<polygon fill="white" stroke="black" points="784.57,-112.5 784.57,-131.5 933.57,-131.5 933.57,-112.5 784.57,-112.5"/>
<text text-anchor="middle" x="859.07" y="-119.5" font-family="FreeSans" font-size="10.00">os_scheduling_strategies.h</text>
</a>
</g>
</g>
<!-- Node2&#45;&gt;Node19 -->
<g id="edge38" class="edge">
<title>Node2&#45;&gt;Node19</title>
<path fill="none" stroke="midnightblue" d="M575.72,-284.08C613.24,-278.33 669.69,-266.59 714.07,-244 774.26,-213.36 831.47,-153.68 851.52,-131.54"/>
<polygon fill="midnightblue" stroke="midnightblue" points="575.05,-280.64 565.66,-285.54 576.06,-287.56 575.05,-280.64"/>
</g>
<!-- Node20 -->
<g id="node20" class="node">
<title>Node20</title>
<g id="a_node20"><a xlink:href="os__scheduling__strategies_8c.html" target="_top" xlink:title=" ">
<polygon fill="white" stroke="black" points="836.07,-56.5 836.07,-75.5 984.07,-75.5 984.07,-56.5 836.07,-56.5"/>
<text text-anchor="middle" x="910.07" y="-63.5" font-family="FreeSans" font-size="10.00">os_scheduling_strategies.c</text>
</a>
</g>
</g>
<!-- Node2&#45;&gt;Node20 -->
<g id="edge37" class="edge">
<title>Node2&#45;&gt;Node20</title>
<path fill="none" stroke="midnightblue" d="M575.86,-283.84C618.55,-277.6 687.04,-265.2 743.07,-244 838.35,-207.94 891.55,-219.89 943.07,-132 954.58,-112.35 933.59,-88.2 920.11,-75.59"/>
<polygon fill="midnightblue" stroke="midnightblue" points="575.25,-280.39 565.84,-285.26 576.24,-287.32 575.25,-280.39"/>
</g>
<!-- Node4 -->
<g id="node4" class="node">
<title>Node4</title>
<g id="a_node4"><a xlink:href="lcd_8c.html" target="_top" xlink:title="Library for LCD use.">
<polygon fill="white" stroke="black" points="689.57,-168.5 689.57,-187.5 728.57,-187.5 728.57,-168.5 689.57,-168.5"/>
<text text-anchor="middle" x="709.07" y="-175.5" font-family="FreeSans" font-size="10.00">lcd.c</text>
</a>
</g>
</g>
<!-- Node3&#45;&gt;Node4 -->
<g id="edge3" class="edge">
<title>Node3&#45;&gt;Node4</title>
<path fill="none" stroke="midnightblue" d="M693.2,-214.69C697.25,-205.59 701.95,-195.01 705.18,-187.75"/>
<polygon fill="midnightblue" stroke="midnightblue" points="689.89,-213.52 689.03,-224.08 696.29,-216.37 689.89,-213.52"/>
</g>
<!-- Node3&#45;&gt;Node5 -->
<g id="edge4" class="edge">
<title>Node3&#45;&gt;Node5</title>
<path fill="none" stroke="midnightblue" d="M654.47,-233.1C589.12,-232.5 431.75,-226.77 307.07,-188 288.84,-182.33 286.5,-175.76 269.07,-168 236.69,-153.58 198.14,-139.92 173.16,-131.52"/>
<polygon fill="midnightblue" stroke="midnightblue" points="654.84,-236.6 664.86,-233.15 654.88,-229.6 654.84,-236.6"/>
</g>
<!-- Node6 -->
<g id="node6" class="node">
<title>Node6</title>
<g id="a_node6"><a xlink:href="os__scheduler_8c.html" target="_top" xlink:title="Scheduling module for the OS.">
<polygon fill="white" stroke="black" points="642.07,-56.5 642.07,-75.5 730.07,-75.5 730.07,-56.5 642.07,-56.5"/>
<text text-anchor="middle" x="686.07" y="-63.5" font-family="FreeSans" font-size="10.00">os_scheduler.c</text>
</a>
</g>
</g>
<!-- Node3&#45;&gt;Node6 -->
<g id="edge5" class="edge">
<title>Node3&#45;&gt;Node6</title>
<path fill="none" stroke="midnightblue" d="M683.02,-214.22C682.24,-206.16 681.45,-196.63 681.07,-188 679.19,-145.78 683.34,-95.27 685.21,-75.51"/>
<polygon fill="midnightblue" stroke="midnightblue" points="679.56,-214.8 684.07,-224.39 686.53,-214.08 679.56,-214.8"/>
</g>
<!-- Node3&#45;&gt;Node7 -->
<g id="edge6" class="edge">
<title>Node3&#45;&gt;Node7</title>
<path fill="none" stroke="midnightblue" d="M709.74,-218.88C720.54,-211.25 732.09,-200.77 738.07,-188 762.94,-134.87 775.97,-101.61 739.07,-56 718.27,-30.3 625.85,-18.65 570.46,-13.89"/>
<polygon fill="midnightblue" stroke="midnightblue" points="707.8,-215.96 701.36,-224.37 711.64,-221.81 707.8,-215.96"/>
</g>
<!-- Node3&#45;&gt;Node8 -->
<g id="edge7" class="edge">
<title>Node3&#45;&gt;Node8</title>
<path fill="none" stroke="midnightblue" d="M715.58,-227.05C772.37,-215.98 892.88,-192.49 941.29,-183.05"/>
<polygon fill="midnightblue" stroke="midnightblue" points="714.58,-223.68 705.43,-229.03 715.92,-230.55 714.58,-223.68"/>
</g>
<!-- Node10&#45;&gt;Node9 -->
<g id="edge11" class="edge">
<title>Node10&#45;&gt;Node9</title>
<path fill="none" stroke="midnightblue" d="M365.69,-221.83C327.93,-211.63 272.93,-196.78 238.61,-187.52"/>
<polygon fill="midnightblue" stroke="midnightblue" points="364.81,-225.22 375.38,-224.44 366.63,-218.46 364.81,-225.22"/>
</g>
<!-- Node11 -->
<g id="node11" class="node">
<title>Node11</title>
<g id="a_node11"><a xlink:href="os__memheap__drivers_8h.html" target="_top" xlink:title="Drivers for OS heap management.">
<polygon fill="white" stroke="black" points="316.57,-168.5 316.57,-187.5 447.57,-187.5 447.57,-168.5 316.57,-168.5"/>
<text text-anchor="middle" x="382.07" y="-175.5" font-family="FreeSans" font-size="10.00">os_memheap_drivers.h</text>
</a>
</g>
</g>
<!-- Node10&#45;&gt;Node11 -->
<g id="edge12" class="edge">
<title>Node10&#45;&gt;Node11</title>
<path fill="none" stroke="midnightblue" d="M398.72,-214.98C394.48,-205.82 389.52,-195.09 386.12,-187.75"/>
<polygon fill="midnightblue" stroke="midnightblue" points="395.56,-216.48 402.94,-224.08 401.91,-213.54 395.56,-216.48"/>
</g>
<!-- Node13 -->
<g id="node13" class="node">
<title>Node13</title>
<g id="a_node13"><a xlink:href="os__memory_8h.html" target="_top" xlink:title="Library for OS memory management.">
<polygon fill="white" stroke="black" points="390.07,-112.5 390.07,-131.5 472.07,-131.5 472.07,-112.5 390.07,-112.5"/>
<text text-anchor="middle" x="431.07" y="-119.5" font-family="FreeSans" font-size="10.00">os_memory.h</text>
</a>
</g>
</g>
<!-- Node10&#45;&gt;Node13 -->
<g id="edge27" class="edge">
<title>Node10&#45;&gt;Node13</title>
<path fill="none" stroke="midnightblue" d="M430.16,-218.35C440.11,-210.66 450.68,-200.27 456.07,-188 464.82,-168.08 448.9,-144.03 438.68,-131.52"/>
<polygon fill="midnightblue" stroke="midnightblue" points="427.81,-215.73 421.73,-224.4 431.89,-221.42 427.81,-215.73"/>
</g>
<!-- Node11&#45;&gt;Node5 -->
<g id="edge13" class="edge">
<title>Node11&#45;&gt;Node5</title>
<path fill="none" stroke="midnightblue" d="M334.96,-166.18C288.31,-155.46 218.2,-139.35 178.12,-130.14"/>
<polygon fill="midnightblue" stroke="midnightblue" points="334.3,-169.62 344.83,-168.44 335.87,-162.79 334.3,-169.62"/>
</g>
<!-- Node11&#45;&gt;Node6 -->
<g id="edge26" class="edge">
<title>Node11&#45;&gt;Node6</title>
<path fill="none" stroke="midnightblue" d="M415.32,-164.97C477.16,-142.59 608.43,-95.09 662.27,-75.61"/>
<polygon fill="midnightblue" stroke="midnightblue" points="413.88,-161.77 405.67,-168.46 416.26,-168.35 413.88,-161.77"/>
</g>
<!-- Node11&#45;&gt;Node12 -->
<g id="edge14" class="edge">
<title>Node11&#45;&gt;Node12</title>
<path fill="none" stroke="midnightblue" d="M334.37,-166.04C302.8,-158.14 260.8,-146.35 225.07,-132 207.35,-124.89 204.1,-120.6 187.07,-112 161.29,-98.98 131.15,-84.54 112.33,-75.61"/>
<polygon fill="midnightblue" stroke="midnightblue" points="333.68,-169.48 344.23,-168.47 335.35,-162.68 333.68,-169.48"/>
</g>
<!-- Node11&#45;&gt;Node13 -->
<g id="edge15" class="edge">
<title>Node11&#45;&gt;Node13</title>
<path fill="none" stroke="midnightblue" d="M397.1,-160.43C405.69,-150.97 416.11,-139.48 423.12,-131.75"/>
<polygon fill="midnightblue" stroke="midnightblue" points="394.29,-158.33 390.16,-168.08 399.47,-163.03 394.29,-158.33"/>
</g>
<!-- Node17 -->
<g id="node17" class="node">
<title>Node17</title>
<g id="a_node17"><a xlink:href="os__memory__strategies_8h.html" target="_top" xlink:title="Memory allocation library for the OS.">
<polygon fill="white" stroke="black" points="234.57,-112.5 234.57,-131.5 371.57,-131.5 371.57,-112.5 234.57,-112.5"/>
<text text-anchor="middle" x="303.07" y="-119.5" font-family="FreeSans" font-size="10.00">os_memory_strategies.h</text>
</a>
</g>
</g>
<!-- Node11&#45;&gt;Node17 -->
<g id="edge22" class="edge">
<title>Node11&#45;&gt;Node17</title>
<path fill="none" stroke="midnightblue" d="M361.03,-162.62C346.6,-152.76 327.92,-139.99 315.73,-131.65"/>
<polygon fill="midnightblue" stroke="midnightblue" points="359.14,-165.57 369.37,-168.32 363.09,-159.79 359.14,-165.57"/>
</g>
<!-- Node13&#45;&gt;Node6 -->
<g id="edge18" class="edge">
<title>Node13&#45;&gt;Node6</title>
<path fill="none" stroke="midnightblue" d="M481.38,-110.35C529.57,-100.14 601.35,-84.94 645.85,-75.52"/>
<polygon fill="midnightblue" stroke="midnightblue" points="480.53,-106.95 471.47,-112.44 481.98,-113.8 480.53,-106.95"/>
</g>
<!-- Node13&#45;&gt;Node7 -->
<g id="edge19" class="edge">
<title>Node13&#45;&gt;Node7</title>
<path fill="none" stroke="midnightblue" d="M436.64,-102.27C441.46,-88.38 449.49,-69.58 461.07,-56 474.7,-40 495.36,-27.3 510.13,-19.53"/>
<polygon fill="midnightblue" stroke="midnightblue" points="433.19,-101.57 433.46,-112.16 439.85,-103.71 433.19,-101.57"/>
</g>
<!-- Node14 -->
<g id="node14" class="node">
<title>Node14</title>
<g id="a_node14"><a xlink:href="os__memory_8c.html" target="_top" xlink:title=" ">
<polygon fill="white" stroke="black" points="177.57,-56.5 177.57,-75.5 258.57,-75.5 258.57,-56.5 177.57,-56.5"/>
<text text-anchor="middle" x="218.07" y="-63.5" font-family="FreeSans" font-size="10.00">os_memory.c</text>
</a>
</g>
</g>
<!-- Node13&#45;&gt;Node14 -->
<g id="edge16" class="edge">
<title>Node13&#45;&gt;Node14</title>
<path fill="none" stroke="midnightblue" d="M387.51,-109.96C347.29,-99.76 288.36,-84.82 251.66,-75.52"/>
<polygon fill="midnightblue" stroke="midnightblue" points="386.76,-113.38 397.32,-112.44 388.48,-106.59 386.76,-113.38"/>
</g>
<!-- Node15 -->
<g id="node15" class="node">
<title>Node15</title>
<g id="a_node15"><a xlink:href="os__memory__strategies_8c.html" target="_top" xlink:title=" ">
<polygon fill="white" stroke="black" points="276.57,-56.5 276.57,-75.5 413.57,-75.5 413.57,-56.5 276.57,-56.5"/>
<text text-anchor="middle" x="345.07" y="-63.5" font-family="FreeSans" font-size="10.00">os_memory_strategies.c</text>
</a>
</g>
</g>
<!-- Node13&#45;&gt;Node15 -->
<g id="edge17" class="edge">
<title>Node13&#45;&gt;Node15</title>
<path fill="none" stroke="midnightblue" d="M408.61,-106.9C392.84,-97 372.25,-84.07 358.85,-75.65"/>
<polygon fill="midnightblue" stroke="midnightblue" points="406.92,-109.97 417.25,-112.32 410.64,-104.04 406.92,-109.97"/>
</g>
<!-- Node13&#45;&gt;Node16 -->
<g id="edge20" class="edge">
<title>Node13&#45;&gt;Node16</title>
<path fill="none" stroke="midnightblue" d="M455.4,-107.45C473.31,-97.48 497.12,-84.23 512.52,-75.65"/>
<polygon fill="midnightblue" stroke="midnightblue" points="453.69,-104.4 446.65,-112.32 457.09,-110.52 453.69,-104.4"/>
</g>
<!-- Node16&#45;&gt;Node7 -->
<g id="edge21" class="edge">
<title>Node16&#45;&gt;Node7</title>
<path fill="none" stroke="midnightblue" d="M528.07,-45.8C528.07,-36.91 528.07,-26.78 528.07,-19.75"/>
<polygon fill="midnightblue" stroke="midnightblue" points="524.57,-46.08 528.07,-56.08 531.57,-46.08 524.57,-46.08"/>
</g>
<!-- Node17&#45;&gt;Node12 -->
<g id="edge23" class="edge">
<title>Node17&#45;&gt;Node12</title>
<path fill="none" stroke="midnightblue" d="M260.08,-109.89C220.61,-99.7 162.97,-84.8 127.03,-75.52"/>
<polygon fill="midnightblue" stroke="midnightblue" points="259.39,-113.33 269.95,-112.44 261.14,-106.55 259.39,-113.33"/>
</g>
<!-- Node17&#45;&gt;Node14 -->
<g id="edge24" class="edge">
<title>Node17&#45;&gt;Node14</title>
<path fill="none" stroke="midnightblue" d="M280.87,-106.9C265.29,-97 244.94,-84.07 231.69,-75.65"/>
<polygon fill="midnightblue" stroke="midnightblue" points="279.09,-109.92 289.41,-112.32 282.85,-104.01 279.09,-109.92"/>
</g>
<!-- Node17&#45;&gt;Node15 -->
<g id="edge25" class="edge">
<title>Node17&#45;&gt;Node15</title>
<path fill="none" stroke="midnightblue" d="M316.18,-104.14C323.49,-94.74 332.31,-83.4 338.26,-75.75"/>
<polygon fill="midnightblue" stroke="midnightblue" points="313.38,-102.04 310,-112.08 318.9,-106.34 313.38,-102.04"/>
</g>
<!-- Node18&#45;&gt;Node6 -->
<g id="edge31" class="edge">
<title>Node18&#45;&gt;Node6</title>
<path fill="none" stroke="midnightblue" d="M602.41,-160.9C623.48,-137.25 662.06,-93.95 678.41,-75.59"/>
<polygon fill="midnightblue" stroke="midnightblue" points="599.79,-158.57 595.76,-168.37 605.02,-163.23 599.79,-158.57"/>
</g>
<!-- Node18&#45;&gt;Node7 -->
<g id="edge35" class="edge">
<title>Node18&#45;&gt;Node7</title>
<path fill="none" stroke="midnightblue" d="M594.68,-158.86C602.55,-134.04 612.57,-88.84 595.07,-56 585.77,-38.56 566.39,-26.68 550.85,-19.53"/>
<polygon fill="midnightblue" stroke="midnightblue" points="591.33,-157.84 591.42,-168.44 597.96,-160.1 591.33,-157.84"/>
</g>
<!-- Node18&#45;&gt;Node13 -->
<g id="edge30" class="edge">
<title>Node18&#45;&gt;Node13</title>
<path fill="none" stroke="midnightblue" d="M553.68,-165.17C524.11,-155 482.19,-140.59 455.83,-131.52"/>
<polygon fill="midnightblue" stroke="midnightblue" points="552.59,-168.5 563.19,-168.44 554.87,-161.88 552.59,-168.5"/>
</g>
<!-- Node18&#45;&gt;Node16 -->
<g id="edge36" class="edge">
<title>Node18&#45;&gt;Node16</title>
<path fill="none" stroke="midnightblue" d="M578.42,-159.32C565.36,-135.37 542.55,-93.55 532.75,-75.59"/>
<polygon fill="midnightblue" stroke="midnightblue" points="575.5,-161.27 583.36,-168.37 581.64,-157.91 575.5,-161.27"/>
</g>
<!-- Node18&#45;&gt;Node19 -->
<g id="edge32" class="edge">
<title>Node18&#45;&gt;Node19</title>
<path fill="none" stroke="midnightblue" d="M640.89,-166.47C692.11,-156.27 768.84,-140.98 816.33,-131.52"/>
<polygon fill="midnightblue" stroke="midnightblue" points="640.13,-163.06 631.01,-168.44 641.5,-169.92 640.13,-163.06"/>
</g>
<!-- Node19&#45;&gt;Node6 -->
<g id="edge33" class="edge">
<title>Node19&#45;&gt;Node6</title>
<path fill="none" stroke="midnightblue" d="M822.02,-109.44C789.4,-99.26 742.66,-84.66 713.35,-75.52"/>
<polygon fill="midnightblue" stroke="midnightblue" points="821.06,-112.8 831.65,-112.44 823.15,-106.12 821.06,-112.8"/>
</g>
<!-- Node19&#45;&gt;Node20 -->
<g id="edge34" class="edge">
<title>Node19&#45;&gt;Node20</title>
<path fill="none" stroke="midnightblue" d="M874.44,-104.72C883.43,-95.2 894.42,-83.56 901.8,-75.75"/>
<polygon fill="midnightblue" stroke="midnightblue" points="871.81,-102.41 867.49,-112.08 876.9,-107.22 871.81,-102.41"/>
</g>
</g>
</svg>
