<?xml version="1.0" encoding="UTF-8" standalone="no"?>
<!DOCTYPE svg PUBLIC "-//W3C//DTD SVG 1.1//EN"
 "http://www.w3.org/Graphics/SVG/1.1/DTD/svg11.dtd">
<!-- Generated by graphviz version 2.43.0 (0)
 -->
<!-- Title: defines.h Pages: 1 -->
<svg width="1060pt" height="308pt"
 viewBox="0.00 0.00 1060.00 308.00" xmlns="http://www.w3.org/2000/svg" xmlns:xlink="http://www.w3.org/1999/xlink">
<g id="graph0" class="graph" transform="scale(1 1) rotate(0) translate(4 304)">
<title>defines.h</title>
<polygon fill="white" stroke="transparent" points="-4,4 -4,-304 1056,-304 1056,4 -4,4"/>
<!-- Node1 -->
<g id="node1" class="node">
<title>Node1</title>
<g id="a_node1"><a xlink:title="Simple definitions and assembler&#45;macros, mostly 8/16&#45;Bit values.">
<polygon fill="#bfbfbf" stroke="black" points="313.5,-280.5 313.5,-299.5 374.5,-299.5 374.5,-280.5 313.5,-280.5"/>
<text text-anchor="middle" x="344" y="-287.5" font-family="FreeSans" font-size="10.00">defines.h</text>
</a>
</g>
</g>
<!-- Node2 -->
<g id="node2" class="node">
<title>Node2</title>
<g id="a_node2"><a xlink:href="lcd_8h.html" target="_top" xlink:title="Library for LCD use.">
<polygon fill="white" stroke="black" points="174,-168.5 174,-187.5 214,-187.5 214,-168.5 174,-168.5"/>
<text text-anchor="middle" x="194" y="-175.5" font-family="FreeSans" font-size="10.00">lcd.h</text>
</a>
</g>
</g>
<!-- Node1&#45;&gt;Node2 -->
<g id="edge1" class="edge">
<title>Node1&#45;&gt;Node2</title>
<path fill="none" stroke="midnightblue" d="M309.12,-276.67C290.22,-268.99 267.11,-257.92 249,-244 227.44,-227.42 208.46,-201.1 199.49,-187.6"/>
<polygon fill="midnightblue" stroke="midnightblue" points="307.98,-279.98 318.57,-280.37 310.53,-273.46 307.98,-279.98"/>
</g>
<!-- Node4 -->
<g id="node4" class="node">
<title>Node4</title>
<g id="a_node4"><a xlink:href="os__core_8c.html" target="_top" xlink:title=" ">
<polygon fill="white" stroke="black" points="260,-112.5 260,-131.5 322,-131.5 322,-112.5 260,-112.5"/>
<text text-anchor="middle" x="291" y="-119.5" font-family="FreeSans" font-size="10.00">os_core.c</text>
</a>
</g>
</g>
<!-- Node1&#45;&gt;Node4 -->
<g id="edge7" class="edge">
<title>Node1&#45;&gt;Node4</title>
<path fill="none" stroke="midnightblue" d="M329.77,-272.43C314.53,-253.48 291.27,-220.82 282,-188 276.43,-168.27 283.14,-144.15 287.62,-131.57"/>
<polygon fill="midnightblue" stroke="midnightblue" points="327.25,-274.87 336.33,-280.35 332.65,-270.41 327.25,-274.87"/>
</g>
<!-- Node6 -->
<g id="node6" class="node">
<title>Node6</title>
<g id="a_node6"><a xlink:href="os__taskman_8c.html" target="_top" xlink:title=" ">
<polygon fill="white" stroke="black" points="534,-0.5 534,-19.5 618,-19.5 618,-0.5 534,-0.5"/>
<text text-anchor="middle" x="576" y="-7.5" font-family="FreeSans" font-size="10.00">os_taskman.c</text>
</a>
</g>
</g>
<!-- Node1&#45;&gt;Node6 -->
<g id="edge38" class="edge">
<title>Node1&#45;&gt;Node6</title>
<path fill="none" stroke="midnightblue" d="M303.52,-284.71C212.58,-273.97 0,-242.09 0,-179 0,-179 0,-179 0,-121 0,-53.2 72.68,-74.17 138,-56 279.22,-16.72 454.62,-11.04 533.77,-10.66"/>
<polygon fill="midnightblue" stroke="midnightblue" points="303.14,-288.19 313.47,-285.86 303.94,-281.24 303.14,-288.19"/>
</g>
<!-- Node7 -->
<g id="node7" class="node">
<title>Node7</title>
<g id="a_node7"><a xlink:href="util_8c.html" target="_top" xlink:title=" ">
<polygon fill="white" stroke="black" points="66.5,-112.5 66.5,-131.5 107.5,-131.5 107.5,-112.5 66.5,-112.5"/>
<text text-anchor="middle" x="87" y="-119.5" font-family="FreeSans" font-size="10.00">util.c</text>
</a>
</g>
</g>
<!-- Node1&#45;&gt;Node7 -->
<g id="edge40" class="edge">
<title>Node1&#45;&gt;Node7</title>
<path fill="none" stroke="midnightblue" d="M303.39,-277.84C279.32,-270.26 248.78,-258.89 224,-244 168.24,-210.49 113.93,-153.06 94.51,-131.5"/>
<polygon fill="midnightblue" stroke="midnightblue" points="302.69,-281.29 313.27,-280.86 304.73,-274.59 302.69,-281.29"/>
</g>
<!-- Node8 -->
<g id="node8" class="node">
<title>Node8</title>
<g id="a_node8"><a xlink:href="os__mem__drivers_8c.html" target="_top" xlink:title=" ">
<polygon fill="white" stroke="black" points="291,-168.5 291,-187.5 397,-187.5 397,-168.5 291,-168.5"/>
<text text-anchor="middle" x="344" y="-175.5" font-family="FreeSans" font-size="10.00">os_mem_drivers.c</text>
</a>
</g>
</g>
<!-- Node1&#45;&gt;Node8 -->
<g id="edge8" class="edge">
<title>Node1&#45;&gt;Node8</title>
<path fill="none" stroke="midnightblue" d="M344,-270.35C344,-246.25 344,-205.31 344,-187.59"/>
<polygon fill="midnightblue" stroke="midnightblue" points="340.5,-270.37 344,-280.37 347.5,-270.37 340.5,-270.37"/>
</g>
<!-- Node9 -->
<g id="node9" class="node">
<title>Node9</title>
<g id="a_node9"><a xlink:href="os__mem__drivers_8h.html" target="_top" xlink:title="Drivers for OS memory management.">
<polygon fill="white" stroke="black" points="400.5,-224.5 400.5,-243.5 507.5,-243.5 507.5,-224.5 400.5,-224.5"/>
<text text-anchor="middle" x="454" y="-231.5" font-family="FreeSans" font-size="10.00">os_mem_drivers.h</text>
</a>
</g>
</g>
<!-- Node1&#45;&gt;Node9 -->
<g id="edge9" class="edge">
<title>Node1&#45;&gt;Node9</title>
<path fill="none" stroke="midnightblue" d="M370.76,-275.86C391.16,-265.85 418.67,-252.35 436.37,-243.65"/>
<polygon fill="midnightblue" stroke="midnightblue" points="369.11,-272.78 361.67,-280.32 372.19,-279.06 369.11,-272.78"/>
</g>
<!-- Node11 -->
<g id="node11" class="node">
<title>Node11</title>
<g id="a_node11"><a xlink:href="os__memheap__drivers_8c.html" target="_top" xlink:title=" ">
<polygon fill="white" stroke="black" points="163,-56.5 163,-75.5 293,-75.5 293,-56.5 163,-56.5"/>
<text text-anchor="middle" x="228" y="-63.5" font-family="FreeSans" font-size="10.00">os_memheap_drivers.c</text>
</a>
</g>
</g>
<!-- Node1&#45;&gt;Node11 -->
<g id="edge27" class="edge">
<title>Node1&#45;&gt;Node11</title>
<path fill="none" stroke="midnightblue" d="M303.19,-281.2C236.74,-265.98 107.59,-225.29 58,-132 34.45,-87.71 105.48,-73.35 162.85,-68.84"/>
<polygon fill="midnightblue" stroke="midnightblue" points="302.78,-284.69 313.3,-283.43 304.29,-277.85 302.78,-284.69"/>
</g>
<!-- Node15 -->
<g id="node15" class="node">
<title>Node15</title>
<g id="a_node15"><a xlink:href="os__user__privileges_8h.html" target="_top" xlink:title="User privileges specification used in part by the task manager.">
<polygon fill="white" stroke="black" points="748,-56.5 748,-75.5 864,-75.5 864,-56.5 748,-56.5"/>
<text text-anchor="middle" x="806" y="-63.5" font-family="FreeSans" font-size="10.00">os_user_privileges.h</text>
</a>
</g>
</g>
<!-- Node1&#45;&gt;Node15 -->
<g id="edge39" class="edge">
<title>Node1&#45;&gt;Node15</title>
<path fill="none" stroke="midnightblue" d="M384.73,-285.02C508.93,-271.94 878.43,-225.62 944,-132 967.63,-98.27 911.63,-81.53 864.03,-73.59"/>
<polygon fill="midnightblue" stroke="midnightblue" points="384.09,-281.57 374.51,-286.08 384.82,-288.53 384.09,-281.57"/>
</g>
<!-- Node17 -->
<g id="node17" class="node">
<title>Node17</title>
<g id="a_node17"><a xlink:href="os__scheduler_8h.html" target="_top" xlink:title="Scheduling module for the OS.">
<polygon fill="white" stroke="black" points="656.5,-168.5 656.5,-187.5 745.5,-187.5 745.5,-168.5 656.5,-168.5"/>
<text text-anchor="middle" x="701" y="-175.5" font-family="FreeSans" font-size="10.00">os_scheduler.h</text>
</a>
</g>
</g>
<!-- Node1&#45;&gt;Node17 -->
<g id="edge28" class="edge">
<title>Node1&#45;&gt;Node17</title>
<path fill="none" stroke="midnightblue" d="M384.44,-279.51C419.68,-271 472.03,-257.76 517,-244 576.12,-225.9 644.46,-200.58 678.83,-187.52"/>
<polygon fill="midnightblue" stroke="midnightblue" points="383.44,-276.15 374.53,-281.89 385.07,-282.96 383.44,-276.15"/>
</g>
<!-- Node18 -->
<g id="node18" class="node">
<title>Node18</title>
<g id="a_node18"><a xlink:href="os__scheduling__strategies_8h.html" target="_top" xlink:title="Scheduling library for the OS.">
<polygon fill="white" stroke="black" points="785.5,-112.5 785.5,-131.5 934.5,-131.5 934.5,-112.5 785.5,-112.5"/>
<text text-anchor="middle" x="860" y="-119.5" font-family="FreeSans" font-size="10.00">os_scheduling_strategies.h</text>
</a>
</g>
</g>
<!-- Node1&#45;&gt;Node18 -->
<g id="edge37" class="edge">
<title>Node1&#45;&gt;Node18</title>
<path fill="none" stroke="midnightblue" d="M384.64,-283.86C460.22,-273.28 626.39,-245.07 755,-188 791.25,-171.91 829.94,-145.13 848.62,-131.51"/>
<polygon fill="midnightblue" stroke="midnightblue" points="384.02,-280.42 374.59,-285.24 384.97,-287.35 384.02,-280.42"/>
</g>
<!-- Node19 -->
<g id="node19" class="node">
<title>Node19</title>
<g id="a_node19"><a xlink:href="os__scheduling__strategies_8c.html" target="_top" xlink:title=" ">
<polygon fill="white" stroke="black" points="904,-56.5 904,-75.5 1052,-75.5 1052,-56.5 904,-56.5"/>
<text text-anchor="middle" x="978" y="-63.5" font-family="FreeSans" font-size="10.00">os_scheduling_strategies.c</text>
</a>
</g>
</g>
<!-- Node1&#45;&gt;Node19 -->
<g id="edge36" class="edge">
<title>Node1&#45;&gt;Node19</title>
<path fill="none" stroke="midnightblue" d="M384.69,-286.52C453.54,-281.78 597.13,-269.56 716,-244 797.5,-226.48 822.14,-228.49 895,-188 928.33,-169.48 939.59,-164.21 960,-132 971.41,-114 975.69,-88.74 977.22,-75.64"/>
<polygon fill="midnightblue" stroke="midnightblue" points="384.43,-283.03 374.69,-287.19 384.9,-290.01 384.43,-283.03"/>
</g>
<!-- Node3 -->
<g id="node3" class="node">
<title>Node3</title>
<g id="a_node3"><a xlink:href="lcd_8c.html" target="_top" xlink:title="Library for LCD use.">
<polygon fill="white" stroke="black" points="164.5,-112.5 164.5,-131.5 203.5,-131.5 203.5,-112.5 164.5,-112.5"/>
<text text-anchor="middle" x="184" y="-119.5" font-family="FreeSans" font-size="10.00">lcd.c</text>
</a>
</g>
</g>
<!-- Node2&#45;&gt;Node3 -->
<g id="edge2" class="edge">
<title>Node2&#45;&gt;Node3</title>
<path fill="none" stroke="midnightblue" d="M190.5,-158.1C188.84,-149.14 186.94,-138.86 185.62,-131.75"/>
<polygon fill="midnightblue" stroke="midnightblue" points="187.09,-158.89 192.35,-168.08 193.97,-157.61 187.09,-158.89"/>
</g>
<!-- Node2&#45;&gt;Node4 -->
<g id="edge3" class="edge">
<title>Node2&#45;&gt;Node4</title>
<path fill="none" stroke="midnightblue" d="M218.34,-163.45C236.24,-153.48 260.05,-140.23 275.45,-131.65"/>
<polygon fill="midnightblue" stroke="midnightblue" points="216.62,-160.4 209.58,-168.32 220.02,-166.52 216.62,-160.4"/>
</g>
<!-- Node5 -->
<g id="node5" class="node">
<title>Node5</title>
<g id="a_node5"><a xlink:href="os__scheduler_8c.html" target="_top" xlink:title="Scheduling module for the OS.">
<polygon fill="white" stroke="black" points="604,-56.5 604,-75.5 692,-75.5 692,-56.5 604,-56.5"/>
<text text-anchor="middle" x="648" y="-63.5" font-family="FreeSans" font-size="10.00">os_scheduler.c</text>
</a>
</g>
</g>
<!-- Node2&#45;&gt;Node5 -->
<g id="edge4" class="edge">
<title>Node2&#45;&gt;Node5</title>
<path fill="none" stroke="midnightblue" d="M203.86,-159.87C213.69,-144.53 230.29,-122.83 251,-112 258.77,-107.94 502.05,-82.21 603.87,-71.58"/>
<polygon fill="midnightblue" stroke="midnightblue" points="200.85,-158.08 198.64,-168.45 206.83,-161.73 200.85,-158.08"/>
</g>
<!-- Node2&#45;&gt;Node6 -->
<g id="edge5" class="edge">
<title>Node2&#45;&gt;Node6</title>
<path fill="none" stroke="midnightblue" d="M176.07,-161.17C168.4,-153.25 160.25,-143.02 156,-132 143.83,-100.48 131.41,-81.13 154,-56 179.12,-28.06 432.18,-16.07 533.95,-12.36"/>
<polygon fill="midnightblue" stroke="midnightblue" points="173.79,-163.83 183.41,-168.26 178.65,-158.79 173.79,-163.83"/>
</g>
<!-- Node2&#45;&gt;Node7 -->
<g id="edge6" class="edge">
<title>Node2&#45;&gt;Node7</title>
<path fill="none" stroke="midnightblue" d="M167.7,-163.73C147.89,-153.73 121.29,-140.31 104.15,-131.65"/>
<polygon fill="midnightblue" stroke="midnightblue" points="166.3,-166.94 176.81,-168.32 169.46,-160.69 166.3,-166.94"/>
</g>
<!-- Node9&#45;&gt;Node8 -->
<g id="edge10" class="edge">
<title>Node9&#45;&gt;Node8</title>
<path fill="none" stroke="midnightblue" d="M427.24,-219.86C406.84,-209.85 379.33,-196.35 361.63,-187.65"/>
<polygon fill="midnightblue" stroke="midnightblue" points="425.81,-223.06 436.33,-224.32 428.89,-216.78 425.81,-223.06"/>
</g>
<!-- Node10 -->
<g id="node10" class="node">
<title>Node10</title>
<g id="a_node10"><a xlink:href="os__memheap__drivers_8h.html" target="_top" xlink:title="Drivers for OS heap management.">
<polygon fill="white" stroke="black" points="415.5,-168.5 415.5,-187.5 546.5,-187.5 546.5,-168.5 415.5,-168.5"/>
<text text-anchor="middle" x="481" y="-175.5" font-family="FreeSans" font-size="10.00">os_memheap_drivers.h</text>
</a>
</g>
</g>
<!-- Node9&#45;&gt;Node10 -->
<g id="edge11" class="edge">
<title>Node9&#45;&gt;Node10</title>
<path fill="none" stroke="midnightblue" d="M463.01,-214.98C467.59,-205.82 472.95,-195.09 476.62,-187.75"/>
<polygon fill="midnightblue" stroke="midnightblue" points="459.8,-213.57 458.46,-224.08 466.06,-216.7 459.8,-213.57"/>
</g>
<!-- Node12 -->
<g id="node12" class="node">
<title>Node12</title>
<g id="a_node12"><a xlink:href="os__memory_8h.html" target="_top" xlink:title="Library for OS memory management.">
<polygon fill="white" stroke="black" points="534,-112.5 534,-131.5 616,-131.5 616,-112.5 534,-112.5"/>
<text text-anchor="middle" x="575" y="-119.5" font-family="FreeSans" font-size="10.00">os_memory.h</text>
</a>
</g>
</g>
<!-- Node9&#45;&gt;Node12 -->
<g id="edge26" class="edge">
<title>Node9&#45;&gt;Node12</title>
<path fill="none" stroke="midnightblue" d="M502.25,-221.31C521.35,-214.47 542.03,-203.94 556,-188 570.26,-171.73 573.84,-145.27 574.72,-131.67"/>
<polygon fill="midnightblue" stroke="midnightblue" points="501.14,-218 492.75,-224.47 503.34,-224.64 501.14,-218"/>
</g>
<!-- Node10&#45;&gt;Node4 -->
<g id="edge12" class="edge">
<title>Node10&#45;&gt;Node4</title>
<path fill="none" stroke="midnightblue" d="M441.24,-165.7C405.38,-155.51 353.43,-140.74 320.97,-131.52"/>
<polygon fill="midnightblue" stroke="midnightblue" points="440.32,-169.08 450.89,-168.44 442.23,-162.34 440.32,-169.08"/>
</g>
<!-- Node10&#45;&gt;Node5 -->
<g id="edge25" class="edge">
<title>Node10&#45;&gt;Node5</title>
<path fill="none" stroke="midnightblue" d="M556.73,-167.09C581.08,-160.58 606.52,-149.81 625,-132 640.86,-116.72 645.8,-89.82 647.33,-75.91"/>
<polygon fill="midnightblue" stroke="midnightblue" points="555.62,-163.75 546.74,-169.54 557.29,-170.55 555.62,-163.75"/>
</g>
<!-- Node10&#45;&gt;Node11 -->
<g id="edge13" class="edge">
<title>Node10&#45;&gt;Node11</title>
<path fill="none" stroke="midnightblue" d="M448.86,-164.84C426.53,-156.18 396.18,-143.99 370,-132 352.29,-123.89 348.6,-120.35 331,-112 302.79,-98.62 269.61,-84.39 248.69,-75.59"/>
<polygon fill="midnightblue" stroke="midnightblue" points="447.63,-168.12 458.21,-168.44 450.14,-161.58 447.63,-168.12"/>
</g>
<!-- Node10&#45;&gt;Node12 -->
<g id="edge14" class="edge">
<title>Node10&#45;&gt;Node12</title>
<path fill="none" stroke="midnightblue" d="M505.06,-163.18C522.36,-153.24 545.15,-140.15 559.93,-131.65"/>
<polygon fill="midnightblue" stroke="midnightblue" points="503.03,-160.31 496.1,-168.32 506.52,-166.38 503.03,-160.31"/>
</g>
<!-- Node16 -->
<g id="node16" class="node">
<title>Node16</title>
<g id="a_node16"><a xlink:href="os__memory__strategies_8h.html" target="_top" xlink:title="Memory allocation library for the OS.">
<polygon fill="white" stroke="black" points="378.5,-112.5 378.5,-131.5 515.5,-131.5 515.5,-112.5 378.5,-112.5"/>
<text text-anchor="middle" x="447" y="-119.5" font-family="FreeSans" font-size="10.00">os_memory_strategies.h</text>
</a>
</g>
</g>
<!-- Node10&#45;&gt;Node16 -->
<g id="edge21" class="edge">
<title>Node10&#45;&gt;Node16</title>
<path fill="none" stroke="midnightblue" d="M470.02,-159.57C464.17,-150.27 457.23,-139.25 452.51,-131.75"/>
<polygon fill="midnightblue" stroke="midnightblue" points="467.1,-161.49 475.39,-168.08 473.02,-157.76 467.1,-161.49"/>
</g>
<!-- Node12&#45;&gt;Node5 -->
<g id="edge17" class="edge">
<title>Node12&#45;&gt;Node5</title>
<path fill="none" stroke="midnightblue" d="M595.14,-106.1C608.28,-96.38 624.98,-84.03 636.06,-75.83"/>
<polygon fill="midnightblue" stroke="midnightblue" points="592.69,-103.56 586.73,-112.32 596.85,-109.19 592.69,-103.56"/>
</g>
<!-- Node12&#45;&gt;Node6 -->
<g id="edge18" class="edge">
<title>Node12&#45;&gt;Node6</title>
<path fill="none" stroke="midnightblue" d="M575.17,-102.35C575.39,-78.25 575.76,-37.31 575.92,-19.59"/>
<polygon fill="midnightblue" stroke="midnightblue" points="571.67,-102.34 575.08,-112.37 578.67,-102.4 571.67,-102.34"/>
</g>
<!-- Node13 -->
<g id="node13" class="node">
<title>Node13</title>
<g id="a_node13"><a xlink:href="os__memory_8c.html" target="_top" xlink:title=" ">
<polygon fill="white" stroke="black" points="311.5,-56.5 311.5,-75.5 392.5,-75.5 392.5,-56.5 311.5,-56.5"/>
<text text-anchor="middle" x="352" y="-63.5" font-family="FreeSans" font-size="10.00">os_memory.c</text>
</a>
</g>
</g>
<!-- Node12&#45;&gt;Node13 -->
<g id="edge15" class="edge">
<title>Node12&#45;&gt;Node13</title>
<path fill="none" stroke="midnightblue" d="M529.94,-110.09C487.81,-99.89 425.76,-84.86 387.17,-75.52"/>
<polygon fill="midnightblue" stroke="midnightblue" points="529.12,-113.49 539.66,-112.44 530.77,-106.69 529.12,-113.49"/>
</g>
<!-- Node14 -->
<g id="node14" class="node">
<title>Node14</title>
<g id="a_node14"><a xlink:href="os__memory__strategies_8c.html" target="_top" xlink:title=" ">
<polygon fill="white" stroke="black" points="410.5,-56.5 410.5,-75.5 547.5,-75.5 547.5,-56.5 410.5,-56.5"/>
<text text-anchor="middle" x="479" y="-63.5" font-family="FreeSans" font-size="10.00">os_memory_strategies.c</text>
</a>
</g>
</g>
<!-- Node12&#45;&gt;Node14 -->
<g id="edge16" class="edge">
<title>Node12&#45;&gt;Node14</title>
<path fill="none" stroke="midnightblue" d="M550.43,-107.18C532.76,-97.24 509.49,-84.15 494.39,-75.65"/>
<polygon fill="midnightblue" stroke="midnightblue" points="549.14,-110.47 559.58,-112.32 552.58,-104.37 549.14,-110.47"/>
</g>
<!-- Node12&#45;&gt;Node15 -->
<g id="edge19" class="edge">
<title>Node12&#45;&gt;Node15</title>
<path fill="none" stroke="midnightblue" d="M621.4,-110.15C665.05,-99.95 729.51,-84.88 769.57,-75.52"/>
<polygon fill="midnightblue" stroke="midnightblue" points="620.54,-106.76 611.6,-112.44 622.14,-113.58 620.54,-106.76"/>
</g>
<!-- Node15&#45;&gt;Node6 -->
<g id="edge20" class="edge">
<title>Node15&#45;&gt;Node6</title>
<path fill="none" stroke="midnightblue" d="M759.8,-54.15C716.34,-43.95 652.16,-28.88 612.27,-19.52"/>
<polygon fill="midnightblue" stroke="midnightblue" points="759.02,-57.57 769.56,-56.44 760.62,-50.75 759.02,-57.57"/>
</g>
<!-- Node16&#45;&gt;Node11 -->
<g id="edge22" class="edge">
<title>Node16&#45;&gt;Node11</title>
<path fill="none" stroke="midnightblue" d="M402.49,-110.02C361.12,-99.82 300.36,-84.84 262.54,-75.52"/>
<polygon fill="midnightblue" stroke="midnightblue" points="401.75,-113.45 412.3,-112.44 403.43,-106.65 401.75,-113.45"/>
</g>
<!-- Node16&#45;&gt;Node13 -->
<g id="edge23" class="edge">
<title>Node16&#45;&gt;Node13</title>
<path fill="none" stroke="midnightblue" d="M422.68,-107.18C405.2,-97.24 382.17,-84.15 367.23,-75.65"/>
<polygon fill="midnightblue" stroke="midnightblue" points="421.31,-110.43 431.74,-112.32 424.77,-104.34 421.31,-110.43"/>
</g>
<!-- Node16&#45;&gt;Node14 -->
<g id="edge24" class="edge">
<title>Node16&#45;&gt;Node14</title>
<path fill="none" stroke="midnightblue" d="M457.5,-103.27C462.97,-94.05 469.42,-83.17 473.81,-75.75"/>
<polygon fill="midnightblue" stroke="midnightblue" points="454.37,-101.7 452.28,-112.08 460.39,-105.26 454.37,-101.7"/>
</g>
<!-- Node17&#45;&gt;Node5 -->
<g id="edge30" class="edge">
<title>Node17&#45;&gt;Node5</title>
<path fill="none" stroke="midnightblue" d="M692.48,-159.32C680.94,-135.37 660.79,-93.55 652.14,-75.59"/>
<polygon fill="midnightblue" stroke="midnightblue" points="689.35,-160.88 696.84,-168.37 695.65,-157.84 689.35,-160.88"/>
</g>
<!-- Node17&#45;&gt;Node6 -->
<g id="edge34" class="edge">
<title>Node17&#45;&gt;Node6</title>
<path fill="none" stroke="midnightblue" d="M707.02,-158.54C714.13,-132.99 722.47,-86.54 701,-56 682.43,-29.58 646.79,-18.6 618.3,-14.07"/>
<polygon fill="midnightblue" stroke="midnightblue" points="703.59,-157.81 704.05,-168.39 710.29,-159.83 703.59,-157.81"/>
</g>
<!-- Node17&#45;&gt;Node12 -->
<g id="edge29" class="edge">
<title>Node17&#45;&gt;Node12</title>
<path fill="none" stroke="midnightblue" d="M671.84,-164.5C648.22,-154.38 615.57,-140.39 594.87,-131.52"/>
<polygon fill="midnightblue" stroke="midnightblue" points="670.46,-167.72 681.03,-168.44 673.22,-161.29 670.46,-167.72"/>
</g>
<!-- Node17&#45;&gt;Node15 -->
<g id="edge35" class="edge">
<title>Node17&#45;&gt;Node15</title>
<path fill="none" stroke="midnightblue" d="M716.37,-160.9C738.94,-137.25 780.28,-93.95 797.8,-75.59"/>
<polygon fill="midnightblue" stroke="midnightblue" points="713.61,-158.72 709.24,-168.37 718.68,-163.55 713.61,-158.72"/>
</g>
<!-- Node17&#45;&gt;Node18 -->
<g id="edge31" class="edge">
<title>Node17&#45;&gt;Node18</title>
<path fill="none" stroke="midnightblue" d="M735.83,-165.17C765.77,-155 808.22,-140.59 834.92,-131.52"/>
<polygon fill="midnightblue" stroke="midnightblue" points="734.54,-161.91 726.19,-168.44 736.79,-168.54 734.54,-161.91"/>
</g>
<!-- Node18&#45;&gt;Node5 -->
<g id="edge32" class="edge">
<title>Node18&#45;&gt;Node5</title>
<path fill="none" stroke="midnightblue" d="M816.65,-109.96C776.61,-99.76 717.97,-84.82 681.43,-75.52"/>
<polygon fill="midnightblue" stroke="midnightblue" points="815.85,-113.37 826.41,-112.44 817.58,-106.58 815.85,-113.37"/>
</g>
<!-- Node18&#45;&gt;Node19 -->
<g id="edge33" class="edge">
<title>Node18&#45;&gt;Node19</title>
<path fill="none" stroke="midnightblue" d="M887.9,-108.23C909.97,-98.13 940.18,-84.31 959.39,-75.52"/>
<polygon fill="midnightblue" stroke="midnightblue" points="886.33,-105.1 878.7,-112.44 889.25,-111.46 886.33,-105.1"/>
</g>
</g>
</svg>
