<?xml version="1.0" encoding="UTF-8" standalone="no"?>
<!DOCTYPE svg PUBLIC "-//W3C//DTD SVG 1.1//EN"
 "http://www.w3.org/Graphics/SVG/1.1/DTD/svg11.dtd">
<!-- Generated by graphviz version 2.43.0 (0)
 -->
<!-- Title: lcd_writeHexWord Pages: 1 -->
<svg width="519pt" height="28pt"
 viewBox="0.00 0.00 519.00 28.00" xmlns="http://www.w3.org/2000/svg" xmlns:xlink="http://www.w3.org/1999/xlink">
<g id="graph0" class="graph" transform="scale(1 1) rotate(0) translate(4 24)">
<title>lcd_writeHexWord</title>
<polygon fill="white" stroke="transparent" points="-4,4 -4,-24 515,-24 515,4 -4,4"/>
<!-- Node1 -->
<g id="node1" class="node">
<title>Node1</title>
<g id="a_node1"><a xlink:title="Write one hexadecimal word.">
<polygon fill="#bfbfbf" stroke="black" points="0,-0.5 0,-19.5 105,-19.5 105,-0.5 0,-0.5"/>
<text text-anchor="middle" x="52.5" y="-7.5" font-family="FreeSans" font-size="10.00">lcd_writeHexWord</text>
</a>
</g>
</g>
<!-- Node2 -->
<g id="node2" class="node">
<title>Node2</title>
<g id="a_node2"><a xlink:href="lcd_8c.html#ac474e7328f850a8b9af9de57df93e2f3" target="_top" xlink:title="Write one hexadecimal byte.">
<polygon fill="white" stroke="black" points="141,-0.5 141,-19.5 244,-19.5 244,-0.5 141,-0.5"/>
<text text-anchor="middle" x="192.5" y="-7.5" font-family="FreeSans" font-size="10.00">lcd_writeHexByte</text>
</a>
</g>
</g>
<!-- Node1&#45;&gt;Node2 -->
<g id="edge1" class="edge">
<title>Node1&#45;&gt;Node2</title>
<path fill="none" stroke="midnightblue" d="M105.28,-10C113.54,-10 122.16,-10 130.61,-10"/>
<polygon fill="midnightblue" stroke="midnightblue" points="130.81,-13.5 140.81,-10 130.81,-6.5 130.81,-13.5"/>
</g>
<!-- Node3 -->
<g id="node3" class="node">
<title>Node3</title>
<g id="a_node3"><a xlink:href="lcd_8c.html#a01b53b89b0c268d2324d86f3fe33405d" target="_top" xlink:title="Write a half&#45;byte (a nibble)">
<polygon fill="white" stroke="black" points="280,-0.5 280,-19.5 392,-19.5 392,-0.5 280,-0.5"/>
<text text-anchor="middle" x="336" y="-7.5" font-family="FreeSans" font-size="10.00">lcd_writeHexNibble</text>
</a>
</g>
</g>
<!-- Node2&#45;&gt;Node3 -->
<g id="edge2" class="edge">
<title>Node2&#45;&gt;Node3</title>
<path fill="none" stroke="midnightblue" d="M244.19,-10C252.51,-10 261.23,-10 269.85,-10"/>
<polygon fill="midnightblue" stroke="midnightblue" points="269.88,-13.5 279.88,-10 269.88,-6.5 269.88,-13.5"/>
</g>
<!-- Node4 -->
<g id="node4" class="node">
<title>Node4</title>
<g id="a_node4"><a xlink:href="lcd_8c.html#a93cd5600fa3b27381a4cf57d21f27ebf" target="_top" xlink:title="Write one character.">
<polygon fill="white" stroke="black" points="428,-0.5 428,-19.5 511,-19.5 511,-0.5 428,-0.5"/>
<text text-anchor="middle" x="469.5" y="-7.5" font-family="FreeSans" font-size="10.00">lcd_writeChar</text>
</a>
</g>
</g>
<!-- Node3&#45;&gt;Node4 -->
<g id="edge3" class="edge">
<title>Node3&#45;&gt;Node4</title>
<path fill="none" stroke="midnightblue" d="M392.01,-10C400.51,-10 409.26,-10 417.67,-10"/>
<polygon fill="midnightblue" stroke="midnightblue" points="417.72,-13.5 427.72,-10 417.72,-6.5 417.72,-13.5"/>
</g>
</g>
</svg>
