<?xml version="1.0" encoding="UTF-8" standalone="no"?>
<!DOCTYPE svg PUBLIC "-//W3C//DTD SVG 1.1//EN"
 "http://www.w3.org/Graphics/SVG/1.1/DTD/svg11.dtd">
<!-- Generated by graphviz version 2.43.0 (0)
 -->
<!-- Title: lcd_forward Pages: 1 -->
<svg width="428pt" height="28pt"
 viewBox="0.00 0.00 428.00 28.00" xmlns="http://www.w3.org/2000/svg" xmlns:xlink="http://www.w3.org/1999/xlink">
<g id="graph0" class="graph" transform="scale(1 1) rotate(0) translate(4 24)">
<title>lcd_forward</title>
<polygon fill="white" stroke="transparent" points="-4,4 -4,-24 424,-24 424,4 -4,4"/>
<!-- Node1 -->
<g id="node1" class="node">
<title>Node1</title>
<g id="a_node1"><a xlink:title="Go one character right (does not remove the character)">
<polygon fill="#bfbfbf" stroke="black" points="0,-0.5 0,-19.5 74,-19.5 74,-0.5 0,-0.5"/>
<text text-anchor="middle" x="37" y="-7.5" font-family="FreeSans" font-size="10.00">lcd_forward</text>
</a>
</g>
</g>
<!-- Node2 -->
<g id="node2" class="node">
<title>Node2</title>
<g id="a_node2"><a xlink:href="lcd_8c.html#a338e21c2a6ba1044313b26bf868e13b2" target="_top" xlink:title="Next output will be written at (row, column)">
<polygon fill="white" stroke="black" points="110,-0.5 110,-19.5 168,-19.5 168,-0.5 110,-0.5"/>
<text text-anchor="middle" x="139" y="-7.5" font-family="FreeSans" font-size="10.00">lcd_goto</text>
</a>
</g>
</g>
<!-- Node1&#45;&gt;Node2 -->
<g id="edge1" class="edge">
<title>Node1&#45;&gt;Node2</title>
<path fill="none" stroke="midnightblue" d="M74.1,-10C82.36,-10 91.17,-10 99.53,-10"/>
<polygon fill="midnightblue" stroke="midnightblue" points="99.8,-13.5 109.8,-10 99.79,-6.5 99.8,-13.5"/>
</g>
<!-- Node3 -->
<g id="node3" class="node">
<title>Node3</title>
<g id="a_node3"><a xlink:href="lcd_8c.html#acb116d89c358367b8fd1164120d320e3" target="_top" xlink:title="Send command to LCD.">
<polygon fill="white" stroke="black" points="204,-0.5 204,-19.5 289,-19.5 289,-0.5 204,-0.5"/>
<text text-anchor="middle" x="246.5" y="-7.5" font-family="FreeSans" font-size="10.00">lcd_command</text>
</a>
</g>
</g>
<!-- Node2&#45;&gt;Node3 -->
<g id="edge2" class="edge">
<title>Node2&#45;&gt;Node3</title>
<path fill="none" stroke="midnightblue" d="M168.27,-10C176.08,-10 184.81,-10 193.51,-10"/>
<polygon fill="midnightblue" stroke="midnightblue" points="193.65,-13.5 203.65,-10 193.65,-6.5 193.65,-13.5"/>
</g>
<!-- Node4 -->
<g id="node4" class="node">
<title>Node4</title>
<g id="a_node4"><a xlink:href="lcd_8c.html#a26a89cb41bb1496462fda420cbe79a07" target="_top" xlink:title=" ">
<polygon fill="white" stroke="black" points="325,-0.5 325,-19.5 420,-19.5 420,-0.5 325,-0.5"/>
<text text-anchor="middle" x="372.5" y="-7.5" font-family="FreeSans" font-size="10.00">lcd_sendStream</text>
</a>
</g>
</g>
<!-- Node3&#45;&gt;Node4 -->
<g id="edge3" class="edge">
<title>Node3&#45;&gt;Node4</title>
<path fill="none" stroke="midnightblue" d="M289.14,-10C297.24,-10 305.86,-10 314.37,-10"/>
<polygon fill="midnightblue" stroke="midnightblue" points="314.63,-13.5 324.63,-10 314.63,-6.5 314.63,-13.5"/>
</g>
</g>
</svg>
