<?xml version="1.0" encoding="UTF-8" standalone="no"?>
<!DOCTYPE svg PUBLIC "-//W3C//DTD SVG 1.1//EN"
 "http://www.w3.org/Graphics/SVG/1.1/DTD/svg11.dtd">
<!-- Generated by graphviz version 2.43.0 (0)
 -->
<!-- Title: os_taskman.c Pages: 1 -->
<svg width="900pt" height="420pt"
 viewBox="0.00 0.00 900.28 420.00" xmlns="http://www.w3.org/2000/svg" xmlns:xlink="http://www.w3.org/1999/xlink">
<g id="graph0" class="graph" transform="scale(1 1) rotate(0) translate(4 416)">
<title>os_taskman.c</title>
<polygon fill="white" stroke="transparent" points="-4,4 -4,-416 896.28,-416 896.28,4 -4,4"/>
<!-- Node1 -->
<g id="node1" class="node">
<title>Node1</title>
<g id="a_node1"><a xlink:title=" ">
<polygon fill="#bfbfbf" stroke="black" points="373.5,-392.5 373.5,-411.5 457.5,-411.5 457.5,-392.5 373.5,-392.5"/>
<text text-anchor="middle" x="415.5" y="-399.5" font-family="FreeSans" font-size="10.00">os_taskman.c</text>
</a>
</g>
</g>
<!-- Node2 -->
<g id="node2" class="node">
<title>Node2</title>
<g id="a_node2"><a xlink:href="os__taskman_8h.html" target="_top" xlink:title="TaskManager library for the OS.">
<polygon fill="white" stroke="black" points="209,-280.5 209,-299.5 294,-299.5 294,-280.5 209,-280.5"/>
<text text-anchor="middle" x="251.5" y="-287.5" font-family="FreeSans" font-size="10.00">os_taskman.h</text>
</a>
</g>
</g>
<!-- Node1&#45;&gt;Node2 -->
<g id="edge1" class="edge">
<title>Node1&#45;&gt;Node2</title>
<path fill="none" stroke="midnightblue" d="M385.5,-392.44C362.95,-385.08 332.04,-372.97 308.5,-356 290.12,-342.75 273.6,-322.53 263.13,-308.16"/>
<polygon fill="midnightblue" stroke="midnightblue" points="265.79,-305.86 257.17,-299.7 260.07,-309.89 265.79,-305.86"/>
</g>
<!-- Node4 -->
<g id="node4" class="node">
<title>Node4</title>
<g id="a_node4"><a xlink:href="defines_8h.html" target="_top" xlink:title="Simple definitions and assembler&#45;macros, mostly 8/16&#45;Bit values.">
<polygon fill="white" stroke="black" points="623,-112.5 623,-131.5 684,-131.5 684,-112.5 623,-112.5"/>
<text text-anchor="middle" x="653.5" y="-119.5" font-family="FreeSans" font-size="10.00">defines.h</text>
</a>
</g>
</g>
<!-- Node1&#45;&gt;Node4 -->
<g id="edge3" class="edge">
<title>Node1&#45;&gt;Node4</title>
<path fill="none" stroke="midnightblue" d="M457.74,-400.2C574.24,-396.86 891.5,-379.63 891.5,-291 891.5,-291 891.5,-291 891.5,-233 891.5,-202.9 894.63,-188.4 872.5,-168 847.02,-144.53 750.61,-131.91 694.56,-126.42"/>
<polygon fill="midnightblue" stroke="midnightblue" points="694.54,-122.9 684.26,-125.45 693.88,-129.87 694.54,-122.9"/>
</g>
<!-- Node7 -->
<g id="node7" class="node">
<title>Node7</title>
<g id="a_node7"><a xlink:href="util_8h.html" target="_top" xlink:title="Little helpers that don&#39;t fit elsewhere.">
<polygon fill="white" stroke="black" points="76,-168.5 76,-187.5 117,-187.5 117,-168.5 76,-168.5"/>
<text text-anchor="middle" x="96.5" y="-175.5" font-family="FreeSans" font-size="10.00">util.h</text>
</a>
</g>
</g>
<!-- Node1&#45;&gt;Node7 -->
<g id="edge6" class="edge">
<title>Node1&#45;&gt;Node7</title>
<path fill="none" stroke="midnightblue" d="M373.24,-395.78C336.87,-389.98 283.88,-378.32 242.5,-356 180.81,-322.74 171.44,-301.59 131.5,-244 121.02,-228.89 111.3,-210.31 104.77,-196.89"/>
<polygon fill="midnightblue" stroke="midnightblue" points="107.9,-195.31 100.45,-187.77 101.57,-198.31 107.9,-195.31"/>
</g>
<!-- Node8 -->
<g id="node8" class="node">
<title>Node8</title>
<g id="a_node8"><a xlink:title=" ">
<polygon fill="white" stroke="#bfbfbf" points="441,-112.5 441,-131.5 494,-131.5 494,-112.5 441,-112.5"/>
<text text-anchor="middle" x="467.5" y="-119.5" font-family="FreeSans" font-size="10.00">stdint.h</text>
</a>
</g>
</g>
<!-- Node1&#45;&gt;Node8 -->
<g id="edge17" class="edge">
<title>Node1&#45;&gt;Node8</title>
<path fill="none" stroke="midnightblue" d="M457.57,-396.67C506.32,-390.69 582.19,-378.05 599.5,-356 618.06,-332.35 655.38,-320.79 533.5,-168 523.03,-154.88 507.7,-144.1 494.45,-136.39"/>
<polygon fill="midnightblue" stroke="midnightblue" points="496.14,-133.32 485.7,-131.55 492.76,-139.45 496.14,-133.32"/>
</g>
<!-- Node10 -->
<g id="node10" class="node">
<title>Node10</title>
<g id="a_node10"><a xlink:href="lcd_8h.html" target="_top" xlink:title="Library for LCD use.">
<polygon fill="white" stroke="black" points="140.5,-224.5 140.5,-243.5 180.5,-243.5 180.5,-224.5 140.5,-224.5"/>
<text text-anchor="middle" x="160.5" y="-231.5" font-family="FreeSans" font-size="10.00">lcd.h</text>
</a>
</g>
</g>
<!-- Node1&#45;&gt;Node10 -->
<g id="edge10" class="edge">
<title>Node1&#45;&gt;Node10</title>
<path fill="none" stroke="midnightblue" d="M378.29,-392.43C331.08,-379.77 249.88,-351.78 200.5,-300 187.11,-285.96 175.95,-266.71 168.85,-252.81"/>
<polygon fill="midnightblue" stroke="midnightblue" points="171.97,-251.22 164.42,-243.78 165.68,-254.3 171.97,-251.22"/>
</g>
<!-- Node12 -->
<g id="node12" class="node">
<title>Node12</title>
<g id="a_node12"><a xlink:href="os__process_8h.html" target="_top" xlink:title="Struct specifying a process.">
<polygon fill="white" stroke="black" points="393.5,-168.5 393.5,-187.5 473.5,-187.5 473.5,-168.5 393.5,-168.5"/>
<text text-anchor="middle" x="433.5" y="-175.5" font-family="FreeSans" font-size="10.00">os_process.h</text>
</a>
</g>
</g>
<!-- Node1&#45;&gt;Node12 -->
<g id="edge18" class="edge">
<title>Node1&#45;&gt;Node12</title>
<path fill="none" stroke="midnightblue" d="M389.29,-392.41C372.65,-385.44 352.44,-373.81 342.5,-356 338.17,-348.24 341.09,-344.78 342.5,-336 350.83,-284.24 350,-267.34 379.5,-224 387.73,-211.9 400.11,-201.26 410.93,-193.37"/>
<polygon fill="midnightblue" stroke="midnightblue" points="412.95,-196.23 419.17,-187.65 408.96,-190.48 412.95,-196.23"/>
</g>
<!-- Node13 -->
<g id="node13" class="node">
<title>Node13</title>
<g id="a_node13"><a xlink:href="os__scheduler_8h.html" target="_top" xlink:title="Scheduling module for the OS.">
<polygon fill="white" stroke="black" points="422,-224.5 422,-243.5 511,-243.5 511,-224.5 422,-224.5"/>
<text text-anchor="middle" x="466.5" y="-231.5" font-family="FreeSans" font-size="10.00">os_scheduler.h</text>
</a>
</g>
</g>
<!-- Node1&#45;&gt;Node13 -->
<g id="edge21" class="edge">
<title>Node1&#45;&gt;Node13</title>
<path fill="none" stroke="midnightblue" d="M418.24,-392.08C426.27,-365.95 449.84,-289.21 460.79,-253.58"/>
<polygon fill="midnightblue" stroke="midnightblue" points="464.28,-254.16 463.87,-243.57 457.59,-252.1 464.28,-254.16"/>
</g>
<!-- Node14 -->
<g id="node14" class="node">
<title>Node14</title>
<g id="a_node14"><a xlink:href="os__input_8h.html" target="_top" xlink:title="Input library for the OS.">
<polygon fill="white" stroke="black" points="351,-336.5 351,-355.5 418,-355.5 418,-336.5 351,-336.5"/>
<text text-anchor="middle" x="384.5" y="-343.5" font-family="FreeSans" font-size="10.00">os_input.h</text>
</a>
</g>
</g>
<!-- Node1&#45;&gt;Node14 -->
<g id="edge25" class="edge">
<title>Node1&#45;&gt;Node14</title>
<path fill="none" stroke="midnightblue" d="M410.38,-392.08C406.09,-384.61 399.84,-373.72 394.56,-364.52"/>
<polygon fill="midnightblue" stroke="midnightblue" points="397.54,-362.68 389.52,-355.75 391.47,-366.17 397.54,-362.68"/>
</g>
<!-- Node15 -->
<g id="node15" class="node">
<title>Node15</title>
<g id="a_node15"><a xlink:href="os__user__privileges_8h.html" target="_top" xlink:title="User privileges specification used in part by the task manager.">
<polygon fill="white" stroke="black" points="474.5,-336.5 474.5,-355.5 590.5,-355.5 590.5,-336.5 474.5,-336.5"/>
<text text-anchor="middle" x="532.5" y="-343.5" font-family="FreeSans" font-size="10.00">os_user_privileges.h</text>
</a>
</g>
</g>
<!-- Node1&#45;&gt;Node15 -->
<g id="edge27" class="edge">
<title>Node1&#45;&gt;Node15</title>
<path fill="none" stroke="midnightblue" d="M434.04,-392.44C453.12,-383.64 483.07,-369.81 504.94,-359.72"/>
<polygon fill="midnightblue" stroke="midnightblue" points="506.43,-362.88 514.05,-355.52 503.5,-356.53 506.43,-362.88"/>
</g>
<!-- Node16 -->
<g id="node16" class="node">
<title>Node16</title>
<g id="a_node16"><a xlink:href="os__memory_8h.html" target="_top" xlink:title="Library for OS memory management.">
<polygon fill="white" stroke="black" points="681.5,-280.5 681.5,-299.5 763.5,-299.5 763.5,-280.5 681.5,-280.5"/>
<text text-anchor="middle" x="722.5" y="-287.5" font-family="FreeSans" font-size="10.00">os_memory.h</text>
</a>
</g>
</g>
<!-- Node1&#45;&gt;Node16 -->
<g id="edge40" class="edge">
<title>Node1&#45;&gt;Node16</title>
<path fill="none" stroke="midnightblue" d="M457.88,-397.51C502.83,-392.61 575.11,-381.28 632.5,-356 660.69,-343.58 688.77,-321.33 705.88,-306.37"/>
<polygon fill="midnightblue" stroke="midnightblue" points="708.23,-308.96 713.35,-299.68 703.56,-303.74 708.23,-308.96"/>
</g>
<!-- Node3 -->
<g id="node3" class="node">
<title>Node3</title>
<g id="a_node3"><a xlink:title=" ">
<polygon fill="white" stroke="#bfbfbf" points="220.5,-112.5 220.5,-131.5 282.5,-131.5 282.5,-112.5 220.5,-112.5"/>
<text text-anchor="middle" x="251.5" y="-119.5" font-family="FreeSans" font-size="10.00">stdbool.h</text>
</a>
</g>
</g>
<!-- Node2&#45;&gt;Node3 -->
<g id="edge2" class="edge">
<title>Node2&#45;&gt;Node3</title>
<path fill="none" stroke="midnightblue" d="M251.5,-280.08C251.5,-253.95 251.5,-177.21 251.5,-141.58"/>
<polygon fill="midnightblue" stroke="midnightblue" points="255,-141.57 251.5,-131.57 248,-141.57 255,-141.57"/>
</g>
<!-- Node5 -->
<g id="node5" class="node">
<title>Node5</title>
<g id="a_node5"><a xlink:href="atmega644constants_8h.html" target="_top" xlink:title="Constants for ATMega644 and EVA board. Defines several useful constants for the ATMega644.">
<polygon fill="white" stroke="black" points="589.5,-56.5 589.5,-75.5 717.5,-75.5 717.5,-56.5 589.5,-56.5"/>
<text text-anchor="middle" x="653.5" y="-63.5" font-family="FreeSans" font-size="10.00">atmega644constants.h</text>
</a>
</g>
</g>
<!-- Node4&#45;&gt;Node5 -->
<g id="edge4" class="edge">
<title>Node4&#45;&gt;Node5</title>
<path fill="none" stroke="midnightblue" d="M653.5,-112.08C653.5,-105.01 653.5,-94.86 653.5,-85.99"/>
<polygon fill="midnightblue" stroke="midnightblue" points="657,-85.75 653.5,-75.75 650,-85.75 657,-85.75"/>
</g>
<!-- Node6 -->
<g id="node6" class="node">
<title>Node6</title>
<g id="a_node6"><a xlink:title=" ">
<polygon fill="white" stroke="#bfbfbf" points="627,-0.5 627,-19.5 680,-19.5 680,-0.5 627,-0.5"/>
<text text-anchor="middle" x="653.5" y="-7.5" font-family="FreeSans" font-size="10.00">avr/io.h</text>
</a>
</g>
</g>
<!-- Node5&#45;&gt;Node6 -->
<g id="edge5" class="edge">
<title>Node5&#45;&gt;Node6</title>
<path fill="none" stroke="midnightblue" d="M653.5,-56.08C653.5,-49.01 653.5,-38.86 653.5,-29.99"/>
<polygon fill="midnightblue" stroke="midnightblue" points="657,-29.75 653.5,-19.75 650,-29.75 657,-29.75"/>
</g>
<!-- Node7&#45;&gt;Node3 -->
<g id="edge8" class="edge">
<title>Node7&#45;&gt;Node3</title>
<path fill="none" stroke="midnightblue" d="M117.08,-169.83C142.72,-160.9 186.87,-145.52 217.55,-134.83"/>
<polygon fill="midnightblue" stroke="midnightblue" points="218.7,-138.13 227,-131.54 216.4,-131.52 218.7,-138.13"/>
</g>
<!-- Node7&#45;&gt;Node8 -->
<g id="edge7" class="edge">
<title>Node7&#45;&gt;Node8</title>
<path fill="none" stroke="midnightblue" d="M117.04,-170.36C120.19,-169.49 123.42,-168.66 126.5,-168 235.78,-144.56 367.55,-131.34 430.5,-125.93"/>
<polygon fill="midnightblue" stroke="midnightblue" points="431.05,-129.39 440.72,-125.06 430.46,-122.42 431.05,-129.39"/>
</g>
<!-- Node9 -->
<g id="node9" class="node">
<title>Node9</title>
<g id="a_node9"><a xlink:title=" ">
<polygon fill="white" stroke="#bfbfbf" points="0,-112.5 0,-131.5 95,-131.5 95,-112.5 0,-112.5"/>
<text text-anchor="middle" x="47.5" y="-119.5" font-family="FreeSans" font-size="10.00">avr/pgmspace.h</text>
</a>
</g>
</g>
<!-- Node7&#45;&gt;Node9 -->
<g id="edge9" class="edge">
<title>Node7&#45;&gt;Node9</title>
<path fill="none" stroke="midnightblue" d="M88.41,-168.08C81.34,-160.3 70.91,-148.8 62.35,-139.37"/>
<polygon fill="midnightblue" stroke="midnightblue" points="64.75,-136.8 55.44,-131.75 59.57,-141.51 64.75,-136.8"/>
</g>
<!-- Node10&#45;&gt;Node3 -->
<g id="edge11" class="edge">
<title>Node10&#45;&gt;Node3</title>
<path fill="none" stroke="midnightblue" d="M167.64,-224.37C182.79,-206.05 218.37,-163.05 237.96,-139.36"/>
<polygon fill="midnightblue" stroke="midnightblue" points="240.72,-141.53 244.39,-131.59 235.32,-137.07 240.72,-141.53"/>
</g>
<!-- Node10&#45;&gt;Node4 -->
<g id="edge15" class="edge">
<title>Node10&#45;&gt;Node4</title>
<path fill="none" stroke="midnightblue" d="M180.69,-228.08C212.23,-220.27 275.01,-204.26 327.5,-188 353.15,-180.06 358.5,-174.68 384.5,-168 464.25,-147.5 559.79,-134.09 612.86,-127.59"/>
<polygon fill="midnightblue" stroke="midnightblue" points="613.38,-131.05 622.89,-126.38 612.54,-124.1 613.38,-131.05"/>
</g>
<!-- Node10&#45;&gt;Node7 -->
<g id="edge16" class="edge">
<title>Node10&#45;&gt;Node7</title>
<path fill="none" stroke="midnightblue" d="M150.22,-224.32C140.66,-216.26 126.22,-204.08 114.72,-194.37"/>
<polygon fill="midnightblue" stroke="midnightblue" points="116.87,-191.61 106.97,-187.83 112.36,-196.96 116.87,-191.61"/>
</g>
<!-- Node10&#45;&gt;Node8 -->
<g id="edge12" class="edge">
<title>Node10&#45;&gt;Node8</title>
<path fill="none" stroke="midnightblue" d="M180.64,-225.78C232.31,-207.27 369.94,-157.96 433.93,-135.03"/>
<polygon fill="midnightblue" stroke="midnightblue" points="435.3,-138.25 443.54,-131.59 432.94,-131.66 435.3,-138.25"/>
</g>
<!-- Node10&#45;&gt;Node9 -->
<g id="edge14" class="edge">
<title>Node10&#45;&gt;Node9</title>
<path fill="none" stroke="midnightblue" d="M140.25,-228.5C118.89,-222.72 85.71,-210.61 66.5,-188 55.45,-174.99 50.82,-155.83 48.88,-141.68"/>
<polygon fill="midnightblue" stroke="midnightblue" points="52.35,-141.21 47.84,-131.62 45.39,-141.93 52.35,-141.21"/>
</g>
<!-- Node11 -->
<g id="node11" class="node">
<title>Node11</title>
<g id="a_node11"><a xlink:title=" ">
<polygon fill="white" stroke="#bfbfbf" points="135.5,-168.5 135.5,-187.5 185.5,-187.5 185.5,-168.5 135.5,-168.5"/>
<text text-anchor="middle" x="160.5" y="-175.5" font-family="FreeSans" font-size="10.00">stdio.h</text>
</a>
</g>
</g>
<!-- Node10&#45;&gt;Node11 -->
<g id="edge13" class="edge">
<title>Node10&#45;&gt;Node11</title>
<path fill="none" stroke="midnightblue" d="M160.5,-224.08C160.5,-217.01 160.5,-206.86 160.5,-197.99"/>
<polygon fill="midnightblue" stroke="midnightblue" points="164,-197.75 160.5,-187.75 157,-197.75 164,-197.75"/>
</g>
<!-- Node12&#45;&gt;Node3 -->
<g id="edge20" class="edge">
<title>Node12&#45;&gt;Node3</title>
<path fill="none" stroke="midnightblue" d="M404.66,-168.44C373.64,-159.24 324.17,-144.56 289.88,-134.39"/>
<polygon fill="midnightblue" stroke="midnightblue" points="290.79,-131.01 280.2,-131.52 288.79,-137.72 290.79,-131.01"/>
</g>
<!-- Node12&#45;&gt;Node8 -->
<g id="edge19" class="edge">
<title>Node12&#45;&gt;Node8</title>
<path fill="none" stroke="midnightblue" d="M439.11,-168.08C443.87,-160.53 450.82,-149.49 456.65,-140.23"/>
<polygon fill="midnightblue" stroke="midnightblue" points="459.62,-142.08 461.99,-131.75 453.7,-138.35 459.62,-142.08"/>
</g>
<!-- Node13&#45;&gt;Node3 -->
<g id="edge22" class="edge">
<title>Node13&#45;&gt;Node3</title>
<path fill="none" stroke="midnightblue" d="M449.63,-224.37C412.19,-205.21 321.93,-159.04 277.33,-136.22"/>
<polygon fill="midnightblue" stroke="midnightblue" points="278.79,-133.03 268.29,-131.59 275.6,-139.26 278.79,-133.03"/>
</g>
<!-- Node13&#45;&gt;Node4 -->
<g id="edge23" class="edge">
<title>Node13&#45;&gt;Node4</title>
<path fill="none" stroke="midnightblue" d="M481.17,-224.37C513.4,-205.41 590.6,-160 629.8,-136.94"/>
<polygon fill="midnightblue" stroke="midnightblue" points="632.05,-139.68 638.89,-131.59 628.5,-133.64 632.05,-139.68"/>
</g>
<!-- Node13&#45;&gt;Node12 -->
<g id="edge24" class="edge">
<title>Node13&#45;&gt;Node12</title>
<path fill="none" stroke="midnightblue" d="M461.05,-224.08C456.49,-216.61 449.83,-205.72 444.21,-196.52"/>
<polygon fill="midnightblue" stroke="midnightblue" points="447.05,-194.46 438.85,-187.75 441.08,-198.11 447.05,-194.46"/>
</g>
<!-- Node14&#45;&gt;Node8 -->
<g id="edge26" class="edge">
<title>Node14&#45;&gt;Node8</title>
<path fill="none" stroke="midnightblue" d="M384.25,-336.35C384.07,-314.95 386.39,-258.74 413.5,-224 434.78,-196.73 464.57,-217.58 482.5,-188 491.29,-173.5 485.12,-154.31 478.22,-140.55"/>
<polygon fill="midnightblue" stroke="midnightblue" points="481.18,-138.68 473.27,-131.64 475.06,-142.08 481.18,-138.68"/>
</g>
<!-- Node15&#45;&gt;Node4 -->
<g id="edge31" class="edge">
<title>Node15&#45;&gt;Node4</title>
<path fill="none" stroke="midnightblue" d="M538.61,-336.5C554.95,-313.47 600.44,-247.62 629.5,-188 636.91,-172.79 643.42,-154.68 647.79,-141.44"/>
<polygon fill="midnightblue" stroke="midnightblue" points="651.21,-142.23 650.92,-131.64 644.54,-140.1 651.21,-142.23"/>
</g>
<!-- Node15&#45;&gt;Node8 -->
<g id="edge28" class="edge">
<title>Node15&#45;&gt;Node8</title>
<path fill="none" stroke="midnightblue" d="M533.72,-336.32C537.08,-309.58 544.36,-226.74 515.5,-168 509.58,-155.95 498.97,-145.47 489.23,-137.67"/>
<polygon fill="midnightblue" stroke="midnightblue" points="491.14,-134.73 481.04,-131.53 486.94,-140.33 491.14,-134.73"/>
</g>
<!-- Node15&#45;&gt;Node9 -->
<g id="edge29" class="edge">
<title>Node15&#45;&gt;Node9</title>
<path fill="none" stroke="midnightblue" d="M474.36,-338.74C385.92,-328.99 225.23,-310.2 200.5,-300 124.24,-268.54 92.04,-260.4 52.5,-188 44.79,-173.88 44.1,-155.39 45.01,-141.74"/>
<polygon fill="midnightblue" stroke="midnightblue" points="48.51,-141.92 46.04,-131.62 41.55,-141.22 48.51,-141.92"/>
</g>
<!-- Node15&#45;&gt;Node13 -->
<g id="edge30" class="edge">
<title>Node15&#45;&gt;Node13</title>
<path fill="none" stroke="midnightblue" d="M527.32,-336.37C516.48,-318.3 491.21,-276.18 476.88,-252.31"/>
<polygon fill="midnightblue" stroke="midnightblue" points="479.8,-250.37 471.65,-243.59 473.8,-253.97 479.8,-250.37"/>
</g>
<!-- Node15&#45;&gt;Node16 -->
<g id="edge32" class="edge">
<title>Node15&#45;&gt;Node16</title>
<path fill="none" stroke="midnightblue" d="M562.61,-336.44C595.13,-327.2 647.08,-312.44 682.89,-302.26"/>
<polygon fill="midnightblue" stroke="midnightblue" points="683.87,-305.62 692.53,-299.52 681.96,-298.88 683.87,-305.62"/>
</g>
<!-- Node16&#45;&gt;Node13 -->
<g id="edge39" class="edge">
<title>Node16&#45;&gt;Node13</title>
<path fill="none" stroke="midnightblue" d="M681.94,-280.44C637.18,-271 565.12,-255.8 516.8,-245.61"/>
<polygon fill="midnightblue" stroke="midnightblue" points="517.38,-242.16 506.87,-243.52 515.94,-249.01 517.38,-242.16"/>
</g>
<!-- Node17 -->
<g id="node17" class="node">
<title>Node17</title>
<g id="a_node17"><a xlink:href="os__mem__drivers_8h.html" target="_top" xlink:title="Drivers for OS memory management.">
<polygon fill="white" stroke="black" points="756,-168.5 756,-187.5 863,-187.5 863,-168.5 756,-168.5"/>
<text text-anchor="middle" x="809.5" y="-175.5" font-family="FreeSans" font-size="10.00">os_mem_drivers.h</text>
</a>
</g>
</g>
<!-- Node16&#45;&gt;Node17 -->
<g id="edge33" class="edge">
<title>Node16&#45;&gt;Node17</title>
<path fill="none" stroke="midnightblue" d="M763.6,-281.56C785.05,-275.36 809.48,-264.14 822.5,-244 831.65,-229.85 826.08,-210.61 819.63,-196.75"/>
<polygon fill="midnightblue" stroke="midnightblue" points="822.68,-195.02 814.98,-187.74 816.46,-198.24 822.68,-195.02"/>
</g>
<!-- Node19 -->
<g id="node19" class="node">
<title>Node19</title>
<g id="a_node19"><a xlink:href="os__memheap__drivers_8h.html" target="_top" xlink:title="Drivers for OS heap management.">
<polygon fill="white" stroke="black" points="682,-224.5 682,-243.5 813,-243.5 813,-224.5 682,-224.5"/>
<text text-anchor="middle" x="747.5" y="-231.5" font-family="FreeSans" font-size="10.00">os_memheap_drivers.h</text>
</a>
</g>
</g>
<!-- Node16&#45;&gt;Node19 -->
<g id="edge36" class="edge">
<title>Node16&#45;&gt;Node19</title>
<path fill="none" stroke="midnightblue" d="M726.63,-280.08C730.01,-272.77 734.92,-262.18 739.12,-253.1"/>
<polygon fill="midnightblue" stroke="midnightblue" points="742.42,-254.3 743.45,-243.75 736.07,-251.36 742.42,-254.3"/>
</g>
<!-- Node17&#45;&gt;Node4 -->
<g id="edge35" class="edge">
<title>Node17&#45;&gt;Node4</title>
<path fill="none" stroke="midnightblue" d="M784.78,-168.44C758.65,-159.4 717.24,-145.06 687.92,-134.92"/>
<polygon fill="midnightblue" stroke="midnightblue" points="688.7,-131.48 678.1,-131.52 686.41,-138.1 688.7,-131.48"/>
</g>
<!-- Node18 -->
<g id="node18" class="node">
<title>Node18</title>
<g id="a_node18"><a xlink:title=" ">
<polygon fill="white" stroke="#bfbfbf" points="777,-112.5 777,-131.5 842,-131.5 842,-112.5 777,-112.5"/>
<text text-anchor="middle" x="809.5" y="-119.5" font-family="FreeSans" font-size="10.00">inttypes.h</text>
</a>
</g>
</g>
<!-- Node17&#45;&gt;Node18 -->
<g id="edge34" class="edge">
<title>Node17&#45;&gt;Node18</title>
<path fill="none" stroke="midnightblue" d="M809.5,-168.08C809.5,-161.01 809.5,-150.86 809.5,-141.99"/>
<polygon fill="midnightblue" stroke="midnightblue" points="813,-141.75 809.5,-131.75 806,-141.75 813,-141.75"/>
</g>
<!-- Node19&#45;&gt;Node17 -->
<g id="edge37" class="edge">
<title>Node19&#45;&gt;Node17</title>
<path fill="none" stroke="midnightblue" d="M757.46,-224.32C766.63,-216.34 780.44,-204.31 791.53,-194.65"/>
<polygon fill="midnightblue" stroke="midnightblue" points="794.12,-197.04 799.36,-187.83 789.52,-191.76 794.12,-197.04"/>
</g>
<!-- Node20 -->
<g id="node20" class="node">
<title>Node20</title>
<g id="a_node20"><a xlink:title=" ">
<polygon fill="white" stroke="#bfbfbf" points="681.5,-168.5 681.5,-187.5 737.5,-187.5 737.5,-168.5 681.5,-168.5"/>
<text text-anchor="middle" x="709.5" y="-175.5" font-family="FreeSans" font-size="10.00">stddef.h</text>
</a>
</g>
</g>
<!-- Node19&#45;&gt;Node20 -->
<g id="edge38" class="edge">
<title>Node19&#45;&gt;Node20</title>
<path fill="none" stroke="midnightblue" d="M741.23,-224.08C735.86,-216.46 727.98,-205.26 721.42,-195.94"/>
<polygon fill="midnightblue" stroke="midnightblue" points="724.28,-193.91 715.66,-187.75 718.55,-197.94 724.28,-193.91"/>
</g>
</g>
</svg>
