<?xml version="1.0" encoding="UTF-8" standalone="no"?>
<!DOCTYPE svg PUBLIC "-//W3C//DTD SVG 1.1//EN"
 "http://www.w3.org/Graphics/SVG/1.1/DTD/svg11.dtd">
<!-- Generated by graphviz version 2.43.0 (0)
 -->
<!-- Title: os_memory_strategies.h Pages: 1 -->
<svg width="209pt" height="308pt"
 viewBox="0.00 0.00 208.50 308.00" xmlns="http://www.w3.org/2000/svg" xmlns:xlink="http://www.w3.org/1999/xlink">
<g id="graph0" class="graph" transform="scale(1 1) rotate(0) translate(4 304)">
<title>os_memory_strategies.h</title>
<polygon fill="white" stroke="transparent" points="-4,4 -4,-304 204.5,-304 204.5,4 -4,4"/>
<!-- Node1 -->
<g id="node1" class="node">
<title>Node1</title>
<g id="a_node1"><a xlink:title="Memory allocation library for the OS.">
<polygon fill="#bfbfbf" stroke="black" points="54,-280.5 54,-299.5 191,-299.5 191,-280.5 54,-280.5"/>
<text text-anchor="middle" x="122.5" y="-287.5" font-family="FreeSans" font-size="10.00">os_memory_strategies.h</text>
</a>
</g>
</g>
<!-- Node2 -->
<g id="node2" class="node">
<title>Node2</title>
<g id="a_node2"><a xlink:href="os__memheap__drivers_8h.html" target="_top" xlink:title="Drivers for OS heap management.">
<polygon fill="white" stroke="black" points="57,-224.5 57,-243.5 188,-243.5 188,-224.5 57,-224.5"/>
<text text-anchor="middle" x="122.5" y="-231.5" font-family="FreeSans" font-size="10.00">os_memheap_drivers.h</text>
</a>
</g>
</g>
<!-- Node1&#45;&gt;Node2 -->
<g id="edge1" class="edge">
<title>Node1&#45;&gt;Node2</title>
<path fill="none" stroke="midnightblue" d="M122.5,-280.08C122.5,-273.01 122.5,-262.86 122.5,-253.99"/>
<polygon fill="midnightblue" stroke="midnightblue" points="126,-253.75 122.5,-243.75 119,-253.75 126,-253.75"/>
</g>
<!-- Node3 -->
<g id="node3" class="node">
<title>Node3</title>
<g id="a_node3"><a xlink:href="os__mem__drivers_8h.html" target="_top" xlink:title="Drivers for OS memory management.">
<polygon fill="white" stroke="black" points="19,-168.5 19,-187.5 126,-187.5 126,-168.5 19,-168.5"/>
<text text-anchor="middle" x="72.5" y="-175.5" font-family="FreeSans" font-size="10.00">os_mem_drivers.h</text>
</a>
</g>
</g>
<!-- Node2&#45;&gt;Node3 -->
<g id="edge2" class="edge">
<title>Node2&#45;&gt;Node3</title>
<path fill="none" stroke="midnightblue" d="M114.24,-224.08C107.04,-216.3 96.39,-204.8 87.65,-195.37"/>
<polygon fill="midnightblue" stroke="midnightblue" points="89.97,-192.71 80.6,-187.75 84.83,-197.47 89.97,-192.71"/>
</g>
<!-- Node8 -->
<g id="node8" class="node">
<title>Node8</title>
<g id="a_node8"><a xlink:title=" ">
<polygon fill="white" stroke="#bfbfbf" points="144.5,-168.5 144.5,-187.5 200.5,-187.5 200.5,-168.5 144.5,-168.5"/>
<text text-anchor="middle" x="172.5" y="-175.5" font-family="FreeSans" font-size="10.00">stddef.h</text>
</a>
</g>
</g>
<!-- Node2&#45;&gt;Node8 -->
<g id="edge7" class="edge">
<title>Node2&#45;&gt;Node8</title>
<path fill="none" stroke="midnightblue" d="M130.76,-224.08C137.96,-216.3 148.61,-204.8 157.35,-195.37"/>
<polygon fill="midnightblue" stroke="midnightblue" points="160.17,-197.47 164.4,-187.75 155.03,-192.71 160.17,-197.47"/>
</g>
<!-- Node4 -->
<g id="node4" class="node">
<title>Node4</title>
<g id="a_node4"><a xlink:title=" ">
<polygon fill="white" stroke="#bfbfbf" points="0,-112.5 0,-131.5 65,-131.5 65,-112.5 0,-112.5"/>
<text text-anchor="middle" x="32.5" y="-119.5" font-family="FreeSans" font-size="10.00">inttypes.h</text>
</a>
</g>
</g>
<!-- Node3&#45;&gt;Node4 -->
<g id="edge3" class="edge">
<title>Node3&#45;&gt;Node4</title>
<path fill="none" stroke="midnightblue" d="M65.89,-168.08C60.24,-160.46 51.96,-149.26 45.05,-139.94"/>
<polygon fill="midnightblue" stroke="midnightblue" points="47.75,-137.7 38.98,-131.75 42.12,-141.87 47.75,-137.7"/>
</g>
<!-- Node5 -->
<g id="node5" class="node">
<title>Node5</title>
<g id="a_node5"><a xlink:href="defines_8h.html" target="_top" xlink:title="Simple definitions and assembler&#45;macros, mostly 8/16&#45;Bit values.">
<polygon fill="white" stroke="black" points="83,-112.5 83,-131.5 144,-131.5 144,-112.5 83,-112.5"/>
<text text-anchor="middle" x="113.5" y="-119.5" font-family="FreeSans" font-size="10.00">defines.h</text>
</a>
</g>
</g>
<!-- Node3&#45;&gt;Node5 -->
<g id="edge4" class="edge">
<title>Node3&#45;&gt;Node5</title>
<path fill="none" stroke="midnightblue" d="M79.27,-168.08C85.06,-160.46 93.56,-149.26 100.64,-139.94"/>
<polygon fill="midnightblue" stroke="midnightblue" points="103.6,-141.83 106.86,-131.75 98.02,-137.6 103.6,-141.83"/>
</g>
<!-- Node6 -->
<g id="node6" class="node">
<title>Node6</title>
<g id="a_node6"><a xlink:href="atmega644constants_8h.html" target="_top" xlink:title="Constants for ATMega644 and EVA board. Defines several useful constants for the ATMega644.">
<polygon fill="white" stroke="black" points="49.5,-56.5 49.5,-75.5 177.5,-75.5 177.5,-56.5 49.5,-56.5"/>
<text text-anchor="middle" x="113.5" y="-63.5" font-family="FreeSans" font-size="10.00">atmega644constants.h</text>
</a>
</g>
</g>
<!-- Node5&#45;&gt;Node6 -->
<g id="edge5" class="edge">
<title>Node5&#45;&gt;Node6</title>
<path fill="none" stroke="midnightblue" d="M113.5,-112.08C113.5,-105.01 113.5,-94.86 113.5,-85.99"/>
<polygon fill="midnightblue" stroke="midnightblue" points="117,-85.75 113.5,-75.75 110,-85.75 117,-85.75"/>
</g>
<!-- Node7 -->
<g id="node7" class="node">
<title>Node7</title>
<g id="a_node7"><a xlink:title=" ">
<polygon fill="white" stroke="#bfbfbf" points="87,-0.5 87,-19.5 140,-19.5 140,-0.5 87,-0.5"/>
<text text-anchor="middle" x="113.5" y="-7.5" font-family="FreeSans" font-size="10.00">avr/io.h</text>
</a>
</g>
</g>
<!-- Node6&#45;&gt;Node7 -->
<g id="edge6" class="edge">
<title>Node6&#45;&gt;Node7</title>
<path fill="none" stroke="midnightblue" d="M113.5,-56.08C113.5,-49.01 113.5,-38.86 113.5,-29.99"/>
<polygon fill="midnightblue" stroke="midnightblue" points="117,-29.75 113.5,-19.75 110,-29.75 117,-29.75"/>
</g>
</g>
</svg>
