<?xml version="1.0" encoding="UTF-8" standalone="no"?>
<!DOCTYPE svg PUBLIC "-//W3C//DTD SVG 1.1//EN"
 "http://www.w3.org/Graphics/SVG/1.1/DTD/svg11.dtd">
<!-- Generated by graphviz version 2.43.0 (0)
 -->
<!-- Title: os_memory.h Pages: 1 -->
<svg width="374pt" height="308pt"
 viewBox="0.00 0.00 373.50 308.00" xmlns="http://www.w3.org/2000/svg" xmlns:xlink="http://www.w3.org/1999/xlink">
<g id="graph0" class="graph" transform="scale(1 1) rotate(0) translate(4 304)">
<title>os_memory.h</title>
<polygon fill="white" stroke="transparent" points="-4,4 -4,-304 369.5,-304 369.5,4 -4,4"/>
<!-- Node1 -->
<g id="node1" class="node">
<title>Node1</title>
<g id="a_node1"><a xlink:title="Library for OS memory management.">
<polygon fill="#bfbfbf" stroke="black" points="92.5,-280.5 92.5,-299.5 174.5,-299.5 174.5,-280.5 92.5,-280.5"/>
<text text-anchor="middle" x="133.5" y="-287.5" font-family="FreeSans" font-size="10.00">os_memory.h</text>
</a>
</g>
</g>
<!-- Node2 -->
<g id="node2" class="node">
<title>Node2</title>
<g id="a_node2"><a xlink:href="os__mem__drivers_8h.html" target="_top" xlink:title="Drivers for OS memory management.">
<polygon fill="white" stroke="black" points="0,-168.5 0,-187.5 107,-187.5 107,-168.5 0,-168.5"/>
<text text-anchor="middle" x="53.5" y="-175.5" font-family="FreeSans" font-size="10.00">os_mem_drivers.h</text>
</a>
</g>
</g>
<!-- Node1&#45;&gt;Node2 -->
<g id="edge1" class="edge">
<title>Node1&#45;&gt;Node2</title>
<path fill="none" stroke="midnightblue" d="M107.83,-280.35C91.14,-273.3 70.49,-261.6 59.5,-244 50.96,-230.33 50.06,-211.8 50.94,-198.01"/>
<polygon fill="midnightblue" stroke="midnightblue" points="54.45,-198.07 51.98,-187.77 47.49,-197.37 54.45,-198.07"/>
</g>
<!-- Node7 -->
<g id="node7" class="node">
<title>Node7</title>
<g id="a_node7"><a xlink:href="os__memheap__drivers_8h.html" target="_top" xlink:title="Drivers for OS heap management.">
<polygon fill="white" stroke="black" points="68,-224.5 68,-243.5 199,-243.5 199,-224.5 68,-224.5"/>
<text text-anchor="middle" x="133.5" y="-231.5" font-family="FreeSans" font-size="10.00">os_memheap_drivers.h</text>
</a>
</g>
</g>
<!-- Node1&#45;&gt;Node7 -->
<g id="edge6" class="edge">
<title>Node1&#45;&gt;Node7</title>
<path fill="none" stroke="midnightblue" d="M133.5,-280.08C133.5,-273.01 133.5,-262.86 133.5,-253.99"/>
<polygon fill="midnightblue" stroke="midnightblue" points="137,-253.75 133.5,-243.75 130,-253.75 137,-253.75"/>
</g>
<!-- Node9 -->
<g id="node9" class="node">
<title>Node9</title>
<g id="a_node9"><a xlink:href="os__scheduler_8h.html" target="_top" xlink:title="Scheduling module for the OS.">
<polygon fill="white" stroke="black" points="217,-224.5 217,-243.5 306,-243.5 306,-224.5 217,-224.5"/>
<text text-anchor="middle" x="261.5" y="-231.5" font-family="FreeSans" font-size="10.00">os_scheduler.h</text>
</a>
</g>
</g>
<!-- Node1&#45;&gt;Node9 -->
<g id="edge9" class="edge">
<title>Node1&#45;&gt;Node9</title>
<path fill="none" stroke="midnightblue" d="M153.78,-280.44C174.85,-271.56 208.02,-257.56 231.99,-247.45"/>
<polygon fill="midnightblue" stroke="midnightblue" points="233.46,-250.63 241.31,-243.52 230.74,-244.18 233.46,-250.63"/>
</g>
<!-- Node3 -->
<g id="node3" class="node">
<title>Node3</title>
<g id="a_node3"><a xlink:title=" ">
<polygon fill="white" stroke="#bfbfbf" points="21,-112.5 21,-131.5 86,-131.5 86,-112.5 21,-112.5"/>
<text text-anchor="middle" x="53.5" y="-119.5" font-family="FreeSans" font-size="10.00">inttypes.h</text>
</a>
</g>
</g>
<!-- Node2&#45;&gt;Node3 -->
<g id="edge2" class="edge">
<title>Node2&#45;&gt;Node3</title>
<path fill="none" stroke="midnightblue" d="M53.5,-168.08C53.5,-161.01 53.5,-150.86 53.5,-141.99"/>
<polygon fill="midnightblue" stroke="midnightblue" points="57,-141.75 53.5,-131.75 50,-141.75 57,-141.75"/>
</g>
<!-- Node4 -->
<g id="node4" class="node">
<title>Node4</title>
<g id="a_node4"><a xlink:href="defines_8h.html" target="_top" xlink:title="Simple definitions and assembler&#45;macros, mostly 8/16&#45;Bit values.">
<polygon fill="white" stroke="black" points="131,-112.5 131,-131.5 192,-131.5 192,-112.5 131,-112.5"/>
<text text-anchor="middle" x="161.5" y="-119.5" font-family="FreeSans" font-size="10.00">defines.h</text>
</a>
</g>
</g>
<!-- Node2&#45;&gt;Node4 -->
<g id="edge3" class="edge">
<title>Node2&#45;&gt;Node4</title>
<path fill="none" stroke="midnightblue" d="M70.85,-168.32C88.17,-159.66 115.02,-146.24 135,-136.25"/>
<polygon fill="midnightblue" stroke="midnightblue" points="136.81,-139.26 144.19,-131.65 133.68,-133 136.81,-139.26"/>
</g>
<!-- Node5 -->
<g id="node5" class="node">
<title>Node5</title>
<g id="a_node5"><a xlink:href="atmega644constants_8h.html" target="_top" xlink:title="Constants for ATMega644 and EVA board. Defines several useful constants for the ATMega644.">
<polygon fill="white" stroke="black" points="97.5,-56.5 97.5,-75.5 225.5,-75.5 225.5,-56.5 97.5,-56.5"/>
<text text-anchor="middle" x="161.5" y="-63.5" font-family="FreeSans" font-size="10.00">atmega644constants.h</text>
</a>
</g>
</g>
<!-- Node4&#45;&gt;Node5 -->
<g id="edge4" class="edge">
<title>Node4&#45;&gt;Node5</title>
<path fill="none" stroke="midnightblue" d="M161.5,-112.08C161.5,-105.01 161.5,-94.86 161.5,-85.99"/>
<polygon fill="midnightblue" stroke="midnightblue" points="165,-85.75 161.5,-75.75 158,-85.75 165,-85.75"/>
</g>
<!-- Node6 -->
<g id="node6" class="node">
<title>Node6</title>
<g id="a_node6"><a xlink:title=" ">
<polygon fill="white" stroke="#bfbfbf" points="135,-0.5 135,-19.5 188,-19.5 188,-0.5 135,-0.5"/>
<text text-anchor="middle" x="161.5" y="-7.5" font-family="FreeSans" font-size="10.00">avr/io.h</text>
</a>
</g>
</g>
<!-- Node5&#45;&gt;Node6 -->
<g id="edge5" class="edge">
<title>Node5&#45;&gt;Node6</title>
<path fill="none" stroke="midnightblue" d="M161.5,-56.08C161.5,-49.01 161.5,-38.86 161.5,-29.99"/>
<polygon fill="midnightblue" stroke="midnightblue" points="165,-29.75 161.5,-19.75 158,-29.75 165,-29.75"/>
</g>
<!-- Node7&#45;&gt;Node2 -->
<g id="edge7" class="edge">
<title>Node7&#45;&gt;Node2</title>
<path fill="none" stroke="midnightblue" d="M120.65,-224.32C108.28,-215.98 89.37,-203.21 74.76,-193.35"/>
<polygon fill="midnightblue" stroke="midnightblue" points="76.57,-190.35 66.32,-187.65 72.65,-196.15 76.57,-190.35"/>
</g>
<!-- Node8 -->
<g id="node8" class="node">
<title>Node8</title>
<g id="a_node8"><a xlink:title=" ">
<polygon fill="white" stroke="#bfbfbf" points="125.5,-168.5 125.5,-187.5 181.5,-187.5 181.5,-168.5 125.5,-168.5"/>
<text text-anchor="middle" x="153.5" y="-175.5" font-family="FreeSans" font-size="10.00">stddef.h</text>
</a>
</g>
</g>
<!-- Node7&#45;&gt;Node8 -->
<g id="edge8" class="edge">
<title>Node7&#45;&gt;Node8</title>
<path fill="none" stroke="midnightblue" d="M136.8,-224.08C139.48,-216.85 143.35,-206.41 146.69,-197.4"/>
<polygon fill="midnightblue" stroke="midnightblue" points="150.07,-198.34 150.26,-187.75 143.5,-195.91 150.07,-198.34"/>
</g>
<!-- Node9&#45;&gt;Node4 -->
<g id="edge11" class="edge">
<title>Node9&#45;&gt;Node4</title>
<path fill="none" stroke="midnightblue" d="M253.65,-224.37C236.93,-205.97 197.56,-162.67 176.09,-139.05"/>
<polygon fill="midnightblue" stroke="midnightblue" points="178.63,-136.64 169.31,-131.59 173.45,-141.35 178.63,-136.64"/>
</g>
<!-- Node10 -->
<g id="node10" class="node">
<title>Node10</title>
<g id="a_node10"><a xlink:title=" ">
<polygon fill="white" stroke="#bfbfbf" points="226.5,-112.5 226.5,-131.5 288.5,-131.5 288.5,-112.5 226.5,-112.5"/>
<text text-anchor="middle" x="257.5" y="-119.5" font-family="FreeSans" font-size="10.00">stdbool.h</text>
</a>
</g>
</g>
<!-- Node9&#45;&gt;Node10 -->
<g id="edge10" class="edge">
<title>Node9&#45;&gt;Node10</title>
<path fill="none" stroke="midnightblue" d="M261.19,-224.37C260.54,-206.62 259.05,-165.67 258.18,-141.6"/>
<polygon fill="midnightblue" stroke="midnightblue" points="261.67,-141.46 257.81,-131.59 254.68,-141.71 261.67,-141.46"/>
</g>
<!-- Node11 -->
<g id="node11" class="node">
<title>Node11</title>
<g id="a_node11"><a xlink:href="os__process_8h.html" target="_top" xlink:title="Struct specifying a process.">
<polygon fill="white" stroke="black" points="285.5,-168.5 285.5,-187.5 365.5,-187.5 365.5,-168.5 285.5,-168.5"/>
<text text-anchor="middle" x="325.5" y="-175.5" font-family="FreeSans" font-size="10.00">os_process.h</text>
</a>
</g>
</g>
<!-- Node9&#45;&gt;Node11 -->
<g id="edge12" class="edge">
<title>Node9&#45;&gt;Node11</title>
<path fill="none" stroke="midnightblue" d="M271.78,-224.32C281.34,-216.26 295.78,-204.08 307.28,-194.37"/>
<polygon fill="midnightblue" stroke="midnightblue" points="309.64,-196.96 315.03,-187.83 305.13,-191.61 309.64,-196.96"/>
</g>
<!-- Node11&#45;&gt;Node10 -->
<g id="edge14" class="edge">
<title>Node11&#45;&gt;Node10</title>
<path fill="none" stroke="midnightblue" d="M314.57,-168.32C304.33,-160.18 288.78,-147.84 276.5,-138.09"/>
<polygon fill="midnightblue" stroke="midnightblue" points="278.63,-135.31 268.62,-131.83 274.28,-140.79 278.63,-135.31"/>
</g>
<!-- Node12 -->
<g id="node12" class="node">
<title>Node12</title>
<g id="a_node12"><a xlink:title=" ">
<polygon fill="white" stroke="#bfbfbf" points="307,-112.5 307,-131.5 360,-131.5 360,-112.5 307,-112.5"/>
<text text-anchor="middle" x="333.5" y="-119.5" font-family="FreeSans" font-size="10.00">stdint.h</text>
</a>
</g>
</g>
<!-- Node11&#45;&gt;Node12 -->
<g id="edge13" class="edge">
<title>Node11&#45;&gt;Node12</title>
<path fill="none" stroke="midnightblue" d="M326.82,-168.08C327.88,-160.93 329.41,-150.64 330.73,-141.69"/>
<polygon fill="midnightblue" stroke="midnightblue" points="334.2,-142.16 332.2,-131.75 327.28,-141.13 334.2,-142.16"/>
</g>
</g>
</svg>
