<?xml version="1.0" encoding="UTF-8" standalone="no"?>
<!DOCTYPE svg PUBLIC "-//W3C//DTD SVG 1.1//EN"
 "http://www.w3.org/Graphics/SVG/1.1/DTD/svg11.dtd">
<!-- Generated by graphviz version 2.43.0 (0)
 -->
<!-- Title: os_memory.c Pages: 1 -->
<svg width="574pt" height="364pt"
 viewBox="0.00 0.00 574.00 364.00" xmlns="http://www.w3.org/2000/svg" xmlns:xlink="http://www.w3.org/1999/xlink">
<g id="graph0" class="graph" transform="scale(1 1) rotate(0) translate(4 360)">
<title>os_memory.c</title>
<polygon fill="white" stroke="transparent" points="-4,4 -4,-360 570,-360 570,4 -4,4"/>
<!-- Node1 -->
<g id="node1" class="node">
<title>Node1</title>
<g id="a_node1"><a xlink:title=" ">
<polygon fill="#bfbfbf" stroke="black" points="331,-336.5 331,-355.5 412,-355.5 412,-336.5 331,-336.5"/>
<text text-anchor="middle" x="371.5" y="-343.5" font-family="FreeSans" font-size="10.00">os_memory.c</text>
</a>
</g>
</g>
<!-- Node2 -->
<g id="node2" class="node">
<title>Node2</title>
<g id="a_node2"><a xlink:href="os__memory_8h.html" target="_top" xlink:title="Library for OS memory management.">
<polygon fill="white" stroke="black" points="132.5,-280.5 132.5,-299.5 214.5,-299.5 214.5,-280.5 132.5,-280.5"/>
<text text-anchor="middle" x="173.5" y="-287.5" font-family="FreeSans" font-size="10.00">os_memory.h</text>
</a>
</g>
</g>
<!-- Node1&#45;&gt;Node2 -->
<g id="edge1" class="edge">
<title>Node1&#45;&gt;Node2</title>
<path fill="none" stroke="midnightblue" d="M340.13,-336.44C306.24,-327.2 252.1,-312.44 214.78,-302.26"/>
<polygon fill="midnightblue" stroke="midnightblue" points="215.3,-298.77 204.73,-299.52 213.45,-305.52 215.3,-298.77"/>
</g>
<!-- Node14 -->
<g id="node14" class="node">
<title>Node14</title>
<g id="a_node14"><a xlink:href="os__memory__strategies_8h.html" target="_top" xlink:title="Memory allocation library for the OS.">
<polygon fill="white" stroke="black" points="250,-280.5 250,-299.5 387,-299.5 387,-280.5 250,-280.5"/>
<text text-anchor="middle" x="318.5" y="-287.5" font-family="FreeSans" font-size="10.00">os_memory_strategies.h</text>
</a>
</g>
</g>
<!-- Node1&#45;&gt;Node14 -->
<g id="edge16" class="edge">
<title>Node1&#45;&gt;Node14</title>
<path fill="none" stroke="midnightblue" d="M362.75,-336.08C355.03,-328.22 343.6,-316.57 334.28,-307.08"/>
<polygon fill="midnightblue" stroke="midnightblue" points="336.59,-304.44 327.09,-299.75 331.6,-309.34 336.59,-304.44"/>
</g>
<!-- Node15 -->
<g id="node15" class="node">
<title>Node15</title>
<g id="a_node15"><a xlink:href="util_8h.html" target="_top" xlink:title="Little helpers that don&#39;t fit elsewhere.">
<polygon fill="white" stroke="black" points="413,-280.5 413,-299.5 454,-299.5 454,-280.5 413,-280.5"/>
<text text-anchor="middle" x="433.5" y="-287.5" font-family="FreeSans" font-size="10.00">util.h</text>
</a>
</g>
</g>
<!-- Node1&#45;&gt;Node15 -->
<g id="edge18" class="edge">
<title>Node1&#45;&gt;Node15</title>
<path fill="none" stroke="midnightblue" d="M381.46,-336.32C390.63,-328.34 404.44,-316.31 415.53,-306.65"/>
<polygon fill="midnightblue" stroke="midnightblue" points="418.12,-309.04 423.36,-299.83 413.52,-303.76 418.12,-309.04"/>
</g>
<!-- Node17 -->
<g id="node17" class="node">
<title>Node17</title>
<g id="a_node17"><a xlink:href="os__core_8h.html" target="_top" xlink:title="Core of the OS.">
<polygon fill="white" stroke="black" points="479,-280.5 479,-299.5 542,-299.5 542,-280.5 479,-280.5"/>
<text text-anchor="middle" x="510.5" y="-287.5" font-family="FreeSans" font-size="10.00">os_core.h</text>
</a>
</g>
</g>
<!-- Node1&#45;&gt;Node17 -->
<g id="edge22" class="edge">
<title>Node1&#45;&gt;Node17</title>
<path fill="none" stroke="midnightblue" d="M393.52,-336.44C416.6,-327.48 453.06,-313.31 479.14,-303.18"/>
<polygon fill="midnightblue" stroke="midnightblue" points="480.52,-306.4 488.58,-299.52 477.99,-299.88 480.52,-306.4"/>
</g>
<!-- Node3 -->
<g id="node3" class="node">
<title>Node3</title>
<g id="a_node3"><a xlink:href="os__mem__drivers_8h.html" target="_top" xlink:title="Drivers for OS memory management.">
<polygon fill="white" stroke="black" points="0,-168.5 0,-187.5 107,-187.5 107,-168.5 0,-168.5"/>
<text text-anchor="middle" x="53.5" y="-175.5" font-family="FreeSans" font-size="10.00">os_mem_drivers.h</text>
</a>
</g>
</g>
<!-- Node2&#45;&gt;Node3 -->
<g id="edge2" class="edge">
<title>Node2&#45;&gt;Node3</title>
<path fill="none" stroke="midnightblue" d="M132.29,-281.82C109.26,-275.65 81.96,-264.39 65.5,-244 55.03,-231.04 52.58,-211.87 52.42,-197.71"/>
<polygon fill="midnightblue" stroke="midnightblue" points="55.92,-197.72 52.67,-187.63 48.92,-197.54 55.92,-197.72"/>
</g>
<!-- Node8 -->
<g id="node8" class="node">
<title>Node8</title>
<g id="a_node8"><a xlink:href="os__memheap__drivers_8h.html" target="_top" xlink:title="Drivers for OS heap management.">
<polygon fill="white" stroke="black" points="75,-224.5 75,-243.5 206,-243.5 206,-224.5 75,-224.5"/>
<text text-anchor="middle" x="140.5" y="-231.5" font-family="FreeSans" font-size="10.00">os_memheap_drivers.h</text>
</a>
</g>
</g>
<!-- Node2&#45;&gt;Node8 -->
<g id="edge7" class="edge">
<title>Node2&#45;&gt;Node8</title>
<path fill="none" stroke="midnightblue" d="M168.05,-280.08C163.49,-272.61 156.83,-261.72 151.21,-252.52"/>
<polygon fill="midnightblue" stroke="midnightblue" points="154.05,-250.46 145.85,-243.75 148.08,-254.11 154.05,-250.46"/>
</g>
<!-- Node10 -->
<g id="node10" class="node">
<title>Node10</title>
<g id="a_node10"><a xlink:href="os__scheduler_8h.html" target="_top" xlink:title="Scheduling module for the OS.">
<polygon fill="white" stroke="black" points="224,-224.5 224,-243.5 313,-243.5 313,-224.5 224,-224.5"/>
<text text-anchor="middle" x="268.5" y="-231.5" font-family="FreeSans" font-size="10.00">os_scheduler.h</text>
</a>
</g>
</g>
<!-- Node2&#45;&gt;Node10 -->
<g id="edge10" class="edge">
<title>Node2&#45;&gt;Node10</title>
<path fill="none" stroke="midnightblue" d="M188.76,-280.32C203.72,-271.82 226.75,-258.73 244.23,-248.8"/>
<polygon fill="midnightblue" stroke="midnightblue" points="246.31,-251.64 253.27,-243.65 242.85,-245.55 246.31,-251.64"/>
</g>
<!-- Node4 -->
<g id="node4" class="node">
<title>Node4</title>
<g id="a_node4"><a xlink:title=" ">
<polygon fill="white" stroke="#bfbfbf" points="21,-112.5 21,-131.5 86,-131.5 86,-112.5 21,-112.5"/>
<text text-anchor="middle" x="53.5" y="-119.5" font-family="FreeSans" font-size="10.00">inttypes.h</text>
</a>
</g>
</g>
<!-- Node3&#45;&gt;Node4 -->
<g id="edge3" class="edge">
<title>Node3&#45;&gt;Node4</title>
<path fill="none" stroke="midnightblue" d="M53.5,-168.08C53.5,-161.01 53.5,-150.86 53.5,-141.99"/>
<polygon fill="midnightblue" stroke="midnightblue" points="57,-141.75 53.5,-131.75 50,-141.75 57,-141.75"/>
</g>
<!-- Node5 -->
<g id="node5" class="node">
<title>Node5</title>
<g id="a_node5"><a xlink:href="defines_8h.html" target="_top" xlink:title="Simple definitions and assembler&#45;macros, mostly 8/16&#45;Bit values.">
<polygon fill="white" stroke="black" points="161,-112.5 161,-131.5 222,-131.5 222,-112.5 161,-112.5"/>
<text text-anchor="middle" x="191.5" y="-119.5" font-family="FreeSans" font-size="10.00">defines.h</text>
</a>
</g>
</g>
<!-- Node3&#45;&gt;Node5 -->
<g id="edge4" class="edge">
<title>Node3&#45;&gt;Node5</title>
<path fill="none" stroke="midnightblue" d="M75.37,-168.44C98.28,-159.48 134.48,-145.31 160.37,-135.18"/>
<polygon fill="midnightblue" stroke="midnightblue" points="161.7,-138.42 169.74,-131.52 159.15,-131.9 161.7,-138.42"/>
</g>
<!-- Node6 -->
<g id="node6" class="node">
<title>Node6</title>
<g id="a_node6"><a xlink:href="atmega644constants_8h.html" target="_top" xlink:title="Constants for ATMega644 and EVA board. Defines several useful constants for the ATMega644.">
<polygon fill="white" stroke="black" points="127.5,-56.5 127.5,-75.5 255.5,-75.5 255.5,-56.5 127.5,-56.5"/>
<text text-anchor="middle" x="191.5" y="-63.5" font-family="FreeSans" font-size="10.00">atmega644constants.h</text>
</a>
</g>
</g>
<!-- Node5&#45;&gt;Node6 -->
<g id="edge5" class="edge">
<title>Node5&#45;&gt;Node6</title>
<path fill="none" stroke="midnightblue" d="M191.5,-112.08C191.5,-105.01 191.5,-94.86 191.5,-85.99"/>
<polygon fill="midnightblue" stroke="midnightblue" points="195,-85.75 191.5,-75.75 188,-85.75 195,-85.75"/>
</g>
<!-- Node7 -->
<g id="node7" class="node">
<title>Node7</title>
<g id="a_node7"><a xlink:title=" ">
<polygon fill="white" stroke="#bfbfbf" points="165,-0.5 165,-19.5 218,-19.5 218,-0.5 165,-0.5"/>
<text text-anchor="middle" x="191.5" y="-7.5" font-family="FreeSans" font-size="10.00">avr/io.h</text>
</a>
</g>
</g>
<!-- Node6&#45;&gt;Node7 -->
<g id="edge6" class="edge">
<title>Node6&#45;&gt;Node7</title>
<path fill="none" stroke="midnightblue" d="M191.5,-56.08C191.5,-49.01 191.5,-38.86 191.5,-29.99"/>
<polygon fill="midnightblue" stroke="midnightblue" points="195,-29.75 191.5,-19.75 188,-29.75 195,-29.75"/>
</g>
<!-- Node8&#45;&gt;Node3 -->
<g id="edge8" class="edge">
<title>Node8&#45;&gt;Node3</title>
<path fill="none" stroke="midnightblue" d="M126.52,-224.32C112.95,-215.9 92.12,-202.97 76.18,-193.07"/>
<polygon fill="midnightblue" stroke="midnightblue" points="77.79,-189.95 67.44,-187.65 74.09,-195.9 77.79,-189.95"/>
</g>
<!-- Node9 -->
<g id="node9" class="node">
<title>Node9</title>
<g id="a_node9"><a xlink:title=" ">
<polygon fill="white" stroke="#bfbfbf" points="125.5,-168.5 125.5,-187.5 181.5,-187.5 181.5,-168.5 125.5,-168.5"/>
<text text-anchor="middle" x="153.5" y="-175.5" font-family="FreeSans" font-size="10.00">stddef.h</text>
</a>
</g>
</g>
<!-- Node8&#45;&gt;Node9 -->
<g id="edge9" class="edge">
<title>Node8&#45;&gt;Node9</title>
<path fill="none" stroke="midnightblue" d="M142.65,-224.08C144.37,-216.93 146.85,-206.64 149,-197.69"/>
<polygon fill="midnightblue" stroke="midnightblue" points="152.46,-198.29 151.39,-187.75 145.65,-196.65 152.46,-198.29"/>
</g>
<!-- Node10&#45;&gt;Node5 -->
<g id="edge12" class="edge">
<title>Node10&#45;&gt;Node5</title>
<path fill="none" stroke="midnightblue" d="M262.46,-224.37C249.75,-206.22 220.06,-163.8 203.39,-139.99"/>
<polygon fill="midnightblue" stroke="midnightblue" points="206.12,-137.78 197.51,-131.59 200.38,-141.79 206.12,-137.78"/>
</g>
<!-- Node11 -->
<g id="node11" class="node">
<title>Node11</title>
<g id="a_node11"><a xlink:title=" ">
<polygon fill="white" stroke="#bfbfbf" points="275.5,-112.5 275.5,-131.5 337.5,-131.5 337.5,-112.5 275.5,-112.5"/>
<text text-anchor="middle" x="306.5" y="-119.5" font-family="FreeSans" font-size="10.00">stdbool.h</text>
</a>
</g>
</g>
<!-- Node10&#45;&gt;Node11 -->
<g id="edge11" class="edge">
<title>Node10&#45;&gt;Node11</title>
<path fill="none" stroke="midnightblue" d="M271.48,-224.37C277.64,-206.54 291.89,-165.3 300.19,-141.27"/>
<polygon fill="midnightblue" stroke="midnightblue" points="303.57,-142.19 303.53,-131.59 296.96,-139.9 303.57,-142.19"/>
</g>
<!-- Node12 -->
<g id="node12" class="node">
<title>Node12</title>
<g id="a_node12"><a xlink:href="os__process_8h.html" target="_top" xlink:title="Struct specifying a process.">
<polygon fill="white" stroke="black" points="334.5,-168.5 334.5,-187.5 414.5,-187.5 414.5,-168.5 334.5,-168.5"/>
<text text-anchor="middle" x="374.5" y="-175.5" font-family="FreeSans" font-size="10.00">os_process.h</text>
</a>
</g>
</g>
<!-- Node10&#45;&gt;Node12 -->
<g id="edge13" class="edge">
<title>Node10&#45;&gt;Node12</title>
<path fill="none" stroke="midnightblue" d="M285.53,-224.32C302.53,-215.66 328.88,-202.24 348.49,-192.25"/>
<polygon fill="midnightblue" stroke="midnightblue" points="350.19,-195.31 357.51,-187.65 347.01,-189.08 350.19,-195.31"/>
</g>
<!-- Node12&#45;&gt;Node11 -->
<g id="edge15" class="edge">
<title>Node12&#45;&gt;Node11</title>
<path fill="none" stroke="midnightblue" d="M363.57,-168.32C353.33,-160.18 337.78,-147.84 325.5,-138.09"/>
<polygon fill="midnightblue" stroke="midnightblue" points="327.63,-135.31 317.62,-131.83 323.28,-140.79 327.63,-135.31"/>
</g>
<!-- Node13 -->
<g id="node13" class="node">
<title>Node13</title>
<g id="a_node13"><a xlink:title=" ">
<polygon fill="white" stroke="#bfbfbf" points="386,-112.5 386,-131.5 439,-131.5 439,-112.5 386,-112.5"/>
<text text-anchor="middle" x="412.5" y="-119.5" font-family="FreeSans" font-size="10.00">stdint.h</text>
</a>
</g>
</g>
<!-- Node12&#45;&gt;Node13 -->
<g id="edge14" class="edge">
<title>Node12&#45;&gt;Node13</title>
<path fill="none" stroke="midnightblue" d="M380.77,-168.08C386.14,-160.46 394.02,-149.26 400.58,-139.94"/>
<polygon fill="midnightblue" stroke="midnightblue" points="403.45,-141.94 406.34,-131.75 397.72,-137.91 403.45,-141.94"/>
</g>
<!-- Node14&#45;&gt;Node8 -->
<g id="edge17" class="edge">
<title>Node14&#45;&gt;Node8</title>
<path fill="none" stroke="midnightblue" d="M290.3,-280.44C260.09,-271.28 211.99,-256.69 178.47,-246.52"/>
<polygon fill="midnightblue" stroke="midnightblue" points="179.16,-243.07 168.57,-243.52 177.13,-249.77 179.16,-243.07"/>
</g>
<!-- Node15&#45;&gt;Node11 -->
<g id="edge20" class="edge">
<title>Node15&#45;&gt;Node11</title>
<path fill="none" stroke="midnightblue" d="M420.4,-280.36C397.68,-264.68 350.93,-229.32 325.5,-188 316.74,-173.76 311.85,-155.29 309.23,-141.68"/>
<polygon fill="midnightblue" stroke="midnightblue" points="312.65,-140.87 307.53,-131.59 305.74,-142.03 312.65,-140.87"/>
</g>
<!-- Node15&#45;&gt;Node13 -->
<g id="edge19" class="edge">
<title>Node15&#45;&gt;Node13</title>
<path fill="none" stroke="midnightblue" d="M433.25,-280.44C432.58,-260.56 430.3,-209.82 423.5,-168 422.06,-159.16 419.79,-149.49 417.69,-141.39"/>
<polygon fill="midnightblue" stroke="midnightblue" points="421.01,-140.28 415.01,-131.54 414.26,-142.11 421.01,-140.28"/>
</g>
<!-- Node16 -->
<g id="node16" class="node">
<title>Node16</title>
<g id="a_node16"><a xlink:title=" ">
<polygon fill="white" stroke="#bfbfbf" points="471,-224.5 471,-243.5 566,-243.5 566,-224.5 471,-224.5"/>
<text text-anchor="middle" x="518.5" y="-231.5" font-family="FreeSans" font-size="10.00">avr/pgmspace.h</text>
</a>
</g>
</g>
<!-- Node15&#45;&gt;Node16 -->
<g id="edge21" class="edge">
<title>Node15&#45;&gt;Node16</title>
<path fill="none" stroke="midnightblue" d="M447.16,-280.32C460.42,-271.9 480.77,-258.97 496.35,-249.07"/>
<polygon fill="midnightblue" stroke="midnightblue" points="498.31,-251.97 504.88,-243.65 494.56,-246.06 498.31,-251.97"/>
</g>
<!-- Node17&#45;&gt;Node16 -->
<g id="edge23" class="edge">
<title>Node17&#45;&gt;Node16</title>
<path fill="none" stroke="midnightblue" d="M511.82,-280.08C512.88,-272.93 514.41,-262.64 515.73,-253.69"/>
<polygon fill="midnightblue" stroke="midnightblue" points="519.2,-254.16 517.2,-243.75 512.28,-253.13 519.2,-254.16"/>
</g>
</g>
</svg>
