<?xml version="1.0" encoding="UTF-8" standalone="no"?>
<!DOCTYPE svg PUBLIC "-//W3C//DTD SVG 1.1//EN"
 "http://www.w3.org/Graphics/SVG/1.1/DTD/svg11.dtd">
<!-- Generated by graphviz version 2.43.0 (0)
 -->
<!-- Title: os_user_privileges.h Pages: 1 -->
<svg width="458pt" height="364pt"
 viewBox="0.00 0.00 458.00 364.00" xmlns="http://www.w3.org/2000/svg" xmlns:xlink="http://www.w3.org/1999/xlink">
<g id="graph0" class="graph" transform="scale(1 1) rotate(0) translate(4 360)">
<title>os_user_privileges.h</title>
<polygon fill="white" stroke="transparent" points="-4,4 -4,-360 454,-360 454,4 -4,4"/>
<!-- Node1 -->
<g id="node1" class="node">
<title>Node1</title>
<g id="a_node1"><a xlink:title="User privileges specification used in part by the task manager.">
<polygon fill="#bfbfbf" stroke="black" points="166.5,-336.5 166.5,-355.5 282.5,-355.5 282.5,-336.5 166.5,-336.5"/>
<text text-anchor="middle" x="224.5" y="-343.5" font-family="FreeSans" font-size="10.00">os_user_privileges.h</text>
</a>
</g>
</g>
<!-- Node2 -->
<g id="node2" class="node">
<title>Node2</title>
<g id="a_node2"><a xlink:title=" ">
<polygon fill="white" stroke="#bfbfbf" points="0,-112.5 0,-131.5 53,-131.5 53,-112.5 0,-112.5"/>
<text text-anchor="middle" x="26.5" y="-119.5" font-family="FreeSans" font-size="10.00">stdint.h</text>
</a>
</g>
</g>
<!-- Node1&#45;&gt;Node2 -->
<g id="edge1" class="edge">
<title>Node1&#45;&gt;Node2</title>
<path fill="none" stroke="midnightblue" d="M205.56,-336.35C165.05,-316.7 70.48,-264.36 31.5,-188 24.18,-173.67 23.45,-155.2 24.25,-141.62"/>
<polygon fill="midnightblue" stroke="midnightblue" points="27.74,-141.83 25.16,-131.55 20.77,-141.2 27.74,-141.83"/>
</g>
<!-- Node3 -->
<g id="node3" class="node">
<title>Node3</title>
<g id="a_node3"><a xlink:title=" ">
<polygon fill="white" stroke="#bfbfbf" points="353,-280.5 353,-299.5 448,-299.5 448,-280.5 353,-280.5"/>
<text text-anchor="middle" x="400.5" y="-287.5" font-family="FreeSans" font-size="10.00">avr/pgmspace.h</text>
</a>
</g>
</g>
<!-- Node1&#45;&gt;Node3 -->
<g id="edge2" class="edge">
<title>Node1&#45;&gt;Node3</title>
<path fill="none" stroke="midnightblue" d="M252.39,-336.44C282.25,-327.28 329.81,-312.69 362.96,-302.52"/>
<polygon fill="midnightblue" stroke="midnightblue" points="364.21,-305.8 372.74,-299.52 362.16,-299.1 364.21,-305.8"/>
</g>
<!-- Node4 -->
<g id="node4" class="node">
<title>Node4</title>
<g id="a_node4"><a xlink:href="os__scheduler_8h.html" target="_top" xlink:title="Scheduling module for the OS.">
<polygon fill="white" stroke="black" points="107,-224.5 107,-243.5 196,-243.5 196,-224.5 107,-224.5"/>
<text text-anchor="middle" x="151.5" y="-231.5" font-family="FreeSans" font-size="10.00">os_scheduler.h</text>
</a>
</g>
</g>
<!-- Node1&#45;&gt;Node4 -->
<g id="edge3" class="edge">
<title>Node1&#45;&gt;Node4</title>
<path fill="none" stroke="midnightblue" d="M218.77,-336.37C206.72,-318.22 178.58,-275.8 162.78,-251.99"/>
<polygon fill="midnightblue" stroke="midnightblue" points="165.65,-249.99 157.2,-243.59 159.81,-253.86 165.65,-249.99"/>
</g>
<!-- Node6 -->
<g id="node6" class="node">
<title>Node6</title>
<g id="a_node6"><a xlink:href="defines_8h.html" target="_top" xlink:title="Simple definitions and assembler&#45;macros, mostly 8/16&#45;Bit values.">
<polygon fill="white" stroke="black" points="194,-112.5 194,-131.5 255,-131.5 255,-112.5 194,-112.5"/>
<text text-anchor="middle" x="224.5" y="-119.5" font-family="FreeSans" font-size="10.00">defines.h</text>
</a>
</g>
</g>
<!-- Node1&#45;&gt;Node6 -->
<g id="edge11" class="edge">
<title>Node1&#45;&gt;Node6</title>
<path fill="none" stroke="midnightblue" d="M224.5,-336.3C224.5,-303.63 224.5,-187.87 224.5,-141.96"/>
<polygon fill="midnightblue" stroke="midnightblue" points="228,-141.88 224.5,-131.88 221,-141.88 228,-141.88"/>
</g>
<!-- Node10 -->
<g id="node10" class="node">
<title>Node10</title>
<g id="a_node10"><a xlink:href="os__memory_8h.html" target="_top" xlink:title="Library for OS memory management.">
<polygon fill="white" stroke="black" points="252.5,-280.5 252.5,-299.5 334.5,-299.5 334.5,-280.5 252.5,-280.5"/>
<text text-anchor="middle" x="293.5" y="-287.5" font-family="FreeSans" font-size="10.00">os_memory.h</text>
</a>
</g>
</g>
<!-- Node1&#45;&gt;Node10 -->
<g id="edge12" class="edge">
<title>Node1&#45;&gt;Node10</title>
<path fill="none" stroke="midnightblue" d="M235.59,-336.32C245.99,-328.18 261.76,-315.84 274.22,-306.09"/>
<polygon fill="midnightblue" stroke="midnightblue" points="276.49,-308.75 282.21,-299.83 272.18,-303.24 276.49,-308.75"/>
</g>
<!-- Node5 -->
<g id="node5" class="node">
<title>Node5</title>
<g id="a_node5"><a xlink:title=" ">
<polygon fill="white" stroke="#bfbfbf" points="99.5,-112.5 99.5,-131.5 161.5,-131.5 161.5,-112.5 99.5,-112.5"/>
<text text-anchor="middle" x="130.5" y="-119.5" font-family="FreeSans" font-size="10.00">stdbool.h</text>
</a>
</g>
</g>
<!-- Node4&#45;&gt;Node5 -->
<g id="edge4" class="edge">
<title>Node4&#45;&gt;Node5</title>
<path fill="none" stroke="midnightblue" d="M149.85,-224.37C146.46,-206.62 138.65,-165.67 134.05,-141.6"/>
<polygon fill="midnightblue" stroke="midnightblue" points="137.45,-140.76 132.14,-131.59 130.58,-142.07 137.45,-140.76"/>
</g>
<!-- Node4&#45;&gt;Node6 -->
<g id="edge5" class="edge">
<title>Node4&#45;&gt;Node6</title>
<path fill="none" stroke="midnightblue" d="M157.23,-224.37C169.28,-206.22 197.42,-163.8 213.22,-139.99"/>
<polygon fill="midnightblue" stroke="midnightblue" points="216.19,-141.86 218.8,-131.59 210.35,-137.99 216.19,-141.86"/>
</g>
<!-- Node9 -->
<g id="node9" class="node">
<title>Node9</title>
<g id="a_node9"><a xlink:href="os__process_8h.html" target="_top" xlink:title="Struct specifying a process.">
<polygon fill="white" stroke="black" points="40.5,-168.5 40.5,-187.5 120.5,-187.5 120.5,-168.5 40.5,-168.5"/>
<text text-anchor="middle" x="80.5" y="-175.5" font-family="FreeSans" font-size="10.00">os_process.h</text>
</a>
</g>
</g>
<!-- Node4&#45;&gt;Node9 -->
<g id="edge8" class="edge">
<title>Node4&#45;&gt;Node9</title>
<path fill="none" stroke="midnightblue" d="M140.09,-224.32C129.39,-216.18 113.16,-203.84 100.34,-194.09"/>
<polygon fill="midnightblue" stroke="midnightblue" points="102.19,-191.1 92.11,-187.83 97.96,-196.67 102.19,-191.1"/>
</g>
<!-- Node7 -->
<g id="node7" class="node">
<title>Node7</title>
<g id="a_node7"><a xlink:href="atmega644constants_8h.html" target="_top" xlink:title="Constants for ATMega644 and EVA board. Defines several useful constants for the ATMega644.">
<polygon fill="white" stroke="black" points="160.5,-56.5 160.5,-75.5 288.5,-75.5 288.5,-56.5 160.5,-56.5"/>
<text text-anchor="middle" x="224.5" y="-63.5" font-family="FreeSans" font-size="10.00">atmega644constants.h</text>
</a>
</g>
</g>
<!-- Node6&#45;&gt;Node7 -->
<g id="edge6" class="edge">
<title>Node6&#45;&gt;Node7</title>
<path fill="none" stroke="midnightblue" d="M224.5,-112.08C224.5,-105.01 224.5,-94.86 224.5,-85.99"/>
<polygon fill="midnightblue" stroke="midnightblue" points="228,-85.75 224.5,-75.75 221,-85.75 228,-85.75"/>
</g>
<!-- Node8 -->
<g id="node8" class="node">
<title>Node8</title>
<g id="a_node8"><a xlink:title=" ">
<polygon fill="white" stroke="#bfbfbf" points="198,-0.5 198,-19.5 251,-19.5 251,-0.5 198,-0.5"/>
<text text-anchor="middle" x="224.5" y="-7.5" font-family="FreeSans" font-size="10.00">avr/io.h</text>
</a>
</g>
</g>
<!-- Node7&#45;&gt;Node8 -->
<g id="edge7" class="edge">
<title>Node7&#45;&gt;Node8</title>
<path fill="none" stroke="midnightblue" d="M224.5,-56.08C224.5,-49.01 224.5,-38.86 224.5,-29.99"/>
<polygon fill="midnightblue" stroke="midnightblue" points="228,-29.75 224.5,-19.75 221,-29.75 228,-29.75"/>
</g>
<!-- Node9&#45;&gt;Node2 -->
<g id="edge9" class="edge">
<title>Node9&#45;&gt;Node2</title>
<path fill="none" stroke="midnightblue" d="M71.58,-168.08C63.72,-160.22 52.07,-148.57 42.58,-139.08"/>
<polygon fill="midnightblue" stroke="midnightblue" points="44.8,-136.35 35.25,-131.75 39.85,-141.3 44.8,-136.35"/>
</g>
<!-- Node9&#45;&gt;Node5 -->
<g id="edge10" class="edge">
<title>Node9&#45;&gt;Node5</title>
<path fill="none" stroke="midnightblue" d="M88.76,-168.08C95.96,-160.3 106.61,-148.8 115.35,-139.37"/>
<polygon fill="midnightblue" stroke="midnightblue" points="118.17,-141.47 122.4,-131.75 113.03,-136.71 118.17,-141.47"/>
</g>
<!-- Node10&#45;&gt;Node4 -->
<g id="edge19" class="edge">
<title>Node10&#45;&gt;Node4</title>
<path fill="none" stroke="midnightblue" d="M271,-280.44C247.42,-271.48 210.18,-257.31 183.54,-247.18"/>
<polygon fill="midnightblue" stroke="midnightblue" points="184.49,-243.8 173.9,-243.52 182,-250.34 184.49,-243.8"/>
</g>
<!-- Node11 -->
<g id="node11" class="node">
<title>Node11</title>
<g id="a_node11"><a xlink:href="os__mem__drivers_8h.html" target="_top" xlink:title="Drivers for OS memory management.">
<polygon fill="white" stroke="black" points="343,-168.5 343,-187.5 450,-187.5 450,-168.5 343,-168.5"/>
<text text-anchor="middle" x="396.5" y="-175.5" font-family="FreeSans" font-size="10.00">os_mem_drivers.h</text>
</a>
</g>
</g>
<!-- Node10&#45;&gt;Node11 -->
<g id="edge13" class="edge">
<title>Node10&#45;&gt;Node11</title>
<path fill="none" stroke="midnightblue" d="M334.75,-281.17C355.97,-274.87 380.12,-263.68 393.5,-244 402.62,-230.58 402.45,-211.76 400.55,-197.83"/>
<polygon fill="midnightblue" stroke="midnightblue" points="403.98,-197.13 398.79,-187.89 397.08,-198.35 403.98,-197.13"/>
</g>
<!-- Node13 -->
<g id="node13" class="node">
<title>Node13</title>
<g id="a_node13"><a xlink:href="os__memheap__drivers_8h.html" target="_top" xlink:title="Drivers for OS heap management.">
<polygon fill="white" stroke="black" points="253,-224.5 253,-243.5 384,-243.5 384,-224.5 253,-224.5"/>
<text text-anchor="middle" x="318.5" y="-231.5" font-family="FreeSans" font-size="10.00">os_memheap_drivers.h</text>
</a>
</g>
</g>
<!-- Node10&#45;&gt;Node13 -->
<g id="edge16" class="edge">
<title>Node10&#45;&gt;Node13</title>
<path fill="none" stroke="midnightblue" d="M297.63,-280.08C301.01,-272.77 305.92,-262.18 310.12,-253.1"/>
<polygon fill="midnightblue" stroke="midnightblue" points="313.42,-254.3 314.45,-243.75 307.07,-251.36 313.42,-254.3"/>
</g>
<!-- Node11&#45;&gt;Node6 -->
<g id="edge15" class="edge">
<title>Node11&#45;&gt;Node6</title>
<path fill="none" stroke="midnightblue" d="M369.25,-168.44C340.06,-159.28 293.58,-144.69 261.19,-134.52"/>
<polygon fill="midnightblue" stroke="midnightblue" points="262.22,-131.17 251.63,-131.52 260.12,-137.85 262.22,-131.17"/>
</g>
<!-- Node12 -->
<g id="node12" class="node">
<title>Node12</title>
<g id="a_node12"><a xlink:title=" ">
<polygon fill="white" stroke="#bfbfbf" points="364,-112.5 364,-131.5 429,-131.5 429,-112.5 364,-112.5"/>
<text text-anchor="middle" x="396.5" y="-119.5" font-family="FreeSans" font-size="10.00">inttypes.h</text>
</a>
</g>
</g>
<!-- Node11&#45;&gt;Node12 -->
<g id="edge14" class="edge">
<title>Node11&#45;&gt;Node12</title>
<path fill="none" stroke="midnightblue" d="M396.5,-168.08C396.5,-161.01 396.5,-150.86 396.5,-141.99"/>
<polygon fill="midnightblue" stroke="midnightblue" points="400,-141.75 396.5,-131.75 393,-141.75 400,-141.75"/>
</g>
<!-- Node13&#45;&gt;Node11 -->
<g id="edge17" class="edge">
<title>Node13&#45;&gt;Node11</title>
<path fill="none" stroke="midnightblue" d="M331.03,-224.32C343.09,-215.98 361.53,-203.21 375.77,-193.35"/>
<polygon fill="midnightblue" stroke="midnightblue" points="377.77,-196.22 384,-187.65 373.78,-190.47 377.77,-196.22"/>
</g>
<!-- Node14 -->
<g id="node14" class="node">
<title>Node14</title>
<g id="a_node14"><a xlink:title=" ">
<polygon fill="white" stroke="#bfbfbf" points="268.5,-168.5 268.5,-187.5 324.5,-187.5 324.5,-168.5 268.5,-168.5"/>
<text text-anchor="middle" x="296.5" y="-175.5" font-family="FreeSans" font-size="10.00">stddef.h</text>
</a>
</g>
</g>
<!-- Node13&#45;&gt;Node14 -->
<g id="edge18" class="edge">
<title>Node13&#45;&gt;Node14</title>
<path fill="none" stroke="midnightblue" d="M314.87,-224.08C311.89,-216.77 307.57,-206.18 303.88,-197.1"/>
<polygon fill="midnightblue" stroke="midnightblue" points="307.08,-195.69 300.07,-187.75 300.6,-198.33 307.08,-195.69"/>
</g>
</g>
</svg>
