<?xml version="1.0" encoding="UTF-8" standalone="no"?>
<!DOCTYPE svg PUBLIC "-//W3C//DTD SVG 1.1//EN"
 "http://www.w3.org/Graphics/SVG/1.1/DTD/svg11.dtd">
<!-- Generated by graphviz version 2.43.0 (0)
 -->
<!-- Title: os_scheduler.c Pages: 1 -->
<svg width="890pt" height="364pt"
 viewBox="0.00 0.00 889.50 364.00" xmlns="http://www.w3.org/2000/svg" xmlns:xlink="http://www.w3.org/1999/xlink">
<g id="graph0" class="graph" transform="scale(1 1) rotate(0) translate(4 360)">
<title>os_scheduler.c</title>
<polygon fill="white" stroke="transparent" points="-4,4 -4,-360 885.5,-360 885.5,4 -4,4"/>
<!-- Node1 -->
<g id="node1" class="node">
<title>Node1</title>
<g id="a_node1"><a xlink:title="Scheduling module for the OS.">
<polygon fill="#bfbfbf" stroke="black" points="347.5,-336.5 347.5,-355.5 435.5,-355.5 435.5,-336.5 347.5,-336.5"/>
<text text-anchor="middle" x="391.5" y="-343.5" font-family="FreeSans" font-size="10.00">os_scheduler.c</text>
</a>
</g>
</g>
<!-- Node2 -->
<g id="node2" class="node">
<title>Node2</title>
<g id="a_node2"><a xlink:href="os__scheduler_8h.html" target="_top" xlink:title="Scheduling module for the OS.">
<polygon fill="white" stroke="black" points="513,-224.5 513,-243.5 602,-243.5 602,-224.5 513,-224.5"/>
<text text-anchor="middle" x="557.5" y="-231.5" font-family="FreeSans" font-size="10.00">os_scheduler.h</text>
</a>
</g>
</g>
<!-- Node1&#45;&gt;Node2 -->
<g id="edge1" class="edge">
<title>Node1&#45;&gt;Node2</title>
<path fill="none" stroke="midnightblue" d="M402.63,-336.46C419.41,-323.7 452.32,-299.12 481.5,-280 498.49,-268.86 518.26,-257.2 533.37,-248.54"/>
<polygon fill="midnightblue" stroke="midnightblue" points="535.15,-251.55 542.11,-243.57 531.69,-245.47 535.15,-251.55"/>
</g>
<!-- Node3 -->
<g id="node3" class="node">
<title>Node3</title>
<g id="a_node3"><a xlink:title=" ">
<polygon fill="white" stroke="#bfbfbf" points="332.5,-112.5 332.5,-131.5 394.5,-131.5 394.5,-112.5 332.5,-112.5"/>
<text text-anchor="middle" x="363.5" y="-119.5" font-family="FreeSans" font-size="10.00">stdbool.h</text>
</a>
</g>
</g>
<!-- Node1&#45;&gt;Node3 -->
<g id="edge39" class="edge">
<title>Node1&#45;&gt;Node3</title>
<path fill="none" stroke="midnightblue" d="M375.72,-336.47C363.3,-328.77 346.89,-316.18 339.5,-300 314.84,-246.05 340.44,-173.89 354.95,-140.87"/>
<polygon fill="midnightblue" stroke="midnightblue" points="358.22,-142.14 359.19,-131.59 351.85,-139.23 358.22,-142.14"/>
</g>
<!-- Node9 -->
<g id="node9" class="node">
<title>Node9</title>
<g id="a_node9"><a xlink:href="util_8h.html" target="_top" xlink:title="Little helpers that don&#39;t fit elsewhere.">
<polygon fill="white" stroke="black" points="131,-168.5 131,-187.5 172,-187.5 172,-168.5 131,-168.5"/>
<text text-anchor="middle" x="151.5" y="-175.5" font-family="FreeSans" font-size="10.00">util.h</text>
</a>
</g>
</g>
<!-- Node1&#45;&gt;Node9 -->
<g id="edge9" class="edge">
<title>Node1&#45;&gt;Node9</title>
<path fill="none" stroke="midnightblue" d="M363.58,-336.37C340.97,-328.69 308.84,-316.18 283.5,-300 235.48,-269.33 188.56,-220.55 165.78,-195.32"/>
<polygon fill="midnightblue" stroke="midnightblue" points="168.28,-192.86 159.01,-187.72 163.05,-197.52 168.28,-192.86"/>
</g>
<!-- Node11 -->
<g id="node11" class="node">
<title>Node11</title>
<g id="a_node11"><a xlink:href="os__input_8h.html" target="_top" xlink:title="Input library for the OS.">
<polygon fill="white" stroke="black" points="98,-224.5 98,-243.5 165,-243.5 165,-224.5 98,-224.5"/>
<text text-anchor="middle" x="131.5" y="-231.5" font-family="FreeSans" font-size="10.00">os_input.h</text>
</a>
</g>
</g>
<!-- Node1&#45;&gt;Node11 -->
<g id="edge13" class="edge">
<title>Node1&#45;&gt;Node11</title>
<path fill="none" stroke="midnightblue" d="M347.15,-343.25C303.71,-339.77 237.01,-329.57 187.5,-300 167.99,-288.35 151.84,-267.49 141.98,-252.55"/>
<polygon fill="midnightblue" stroke="midnightblue" points="144.72,-250.34 136.44,-243.74 138.8,-254.06 144.72,-250.34"/>
</g>
<!-- Node12 -->
<g id="node12" class="node">
<title>Node12</title>
<g id="a_node12"><a xlink:href="os__scheduling__strategies_8h.html" target="_top" xlink:title="Scheduling library for the OS.">
<polygon fill="white" stroke="black" points="490,-280.5 490,-299.5 639,-299.5 639,-280.5 490,-280.5"/>
<text text-anchor="middle" x="564.5" y="-287.5" font-family="FreeSans" font-size="10.00">os_scheduling_strategies.h</text>
</a>
</g>
</g>
<!-- Node1&#45;&gt;Node12 -->
<g id="edge15" class="edge">
<title>Node1&#45;&gt;Node12</title>
<path fill="none" stroke="midnightblue" d="M418.91,-336.44C448.27,-327.28 495.02,-312.69 527.6,-302.52"/>
<polygon fill="midnightblue" stroke="midnightblue" points="528.71,-305.84 537.22,-299.52 526.63,-299.16 528.71,-305.84"/>
</g>
<!-- Node13 -->
<g id="node13" class="node">
<title>Node13</title>
<g id="a_node13"><a xlink:href="os__taskman_8h.html" target="_top" xlink:title="TaskManager library for the OS.">
<polygon fill="white" stroke="black" points="349,-280.5 349,-299.5 434,-299.5 434,-280.5 349,-280.5"/>
<text text-anchor="middle" x="391.5" y="-287.5" font-family="FreeSans" font-size="10.00">os_taskman.h</text>
</a>
</g>
</g>
<!-- Node1&#45;&gt;Node13 -->
<g id="edge18" class="edge">
<title>Node1&#45;&gt;Node13</title>
<path fill="none" stroke="midnightblue" d="M391.5,-336.08C391.5,-329.01 391.5,-318.86 391.5,-309.99"/>
<polygon fill="midnightblue" stroke="midnightblue" points="395,-309.75 391.5,-299.75 388,-309.75 395,-309.75"/>
</g>
<!-- Node14 -->
<g id="node14" class="node">
<title>Node14</title>
<g id="a_node14"><a xlink:href="os__core_8h.html" target="_top" xlink:title="Core of the OS.">
<polygon fill="white" stroke="black" points="0,-224.5 0,-243.5 63,-243.5 63,-224.5 0,-224.5"/>
<text text-anchor="middle" x="31.5" y="-231.5" font-family="FreeSans" font-size="10.00">os_core.h</text>
</a>
</g>
</g>
<!-- Node1&#45;&gt;Node14 -->
<g id="edge20" class="edge">
<title>Node1&#45;&gt;Node14</title>
<path fill="none" stroke="midnightblue" d="M347.14,-340.03C299.93,-333.9 223.51,-321.55 160.5,-300 121.36,-286.61 79.11,-263.5 54,-248.74"/>
<polygon fill="midnightblue" stroke="midnightblue" points="55.64,-245.65 45.26,-243.54 52.06,-251.66 55.64,-245.65"/>
</g>
<!-- Node15 -->
<g id="node15" class="node">
<title>Node15</title>
<g id="a_node15"><a xlink:href="lcd_8h.html" target="_top" xlink:title="Library for LCD use.">
<polygon fill="white" stroke="black" points="233.5,-224.5 233.5,-243.5 273.5,-243.5 273.5,-224.5 233.5,-224.5"/>
<text text-anchor="middle" x="253.5" y="-231.5" font-family="FreeSans" font-size="10.00">lcd.h</text>
</a>
</g>
</g>
<!-- Node1&#45;&gt;Node15 -->
<g id="edge22" class="edge">
<title>Node1&#45;&gt;Node15</title>
<path fill="none" stroke="midnightblue" d="M369.81,-336.41C351.72,-328.6 325.87,-315.88 306.5,-300 289.51,-286.06 274.13,-265.97 264.37,-251.82"/>
<polygon fill="midnightblue" stroke="midnightblue" points="267.27,-249.87 258.8,-243.5 261.45,-253.76 267.27,-249.87"/>
</g>
<!-- Node17 -->
<g id="node17" class="node">
<title>Node17</title>
<g id="a_node17"><a xlink:href="os__memheap__drivers_8h.html" target="_top" xlink:title="Drivers for OS heap management.">
<polygon fill="white" stroke="black" points="709,-224.5 709,-243.5 840,-243.5 840,-224.5 709,-224.5"/>
<text text-anchor="middle" x="774.5" y="-231.5" font-family="FreeSans" font-size="10.00">os_memheap_drivers.h</text>
</a>
</g>
</g>
<!-- Node1&#45;&gt;Node17 -->
<g id="edge29" class="edge">
<title>Node1&#45;&gt;Node17</title>
<path fill="none" stroke="midnightblue" d="M435.74,-344.88C520.26,-343.79 700.55,-337.05 748.5,-300 762.76,-288.99 769.22,-268.94 772.14,-254.01"/>
<polygon fill="midnightblue" stroke="midnightblue" points="775.64,-254.25 773.74,-243.82 768.73,-253.15 775.64,-254.25"/>
</g>
<!-- Node21 -->
<g id="node21" class="node">
<title>Node21</title>
<g id="a_node21"><a xlink:href="os__memory_8h.html" target="_top" xlink:title="Library for OS memory management.">
<polygon fill="white" stroke="black" points="657.5,-280.5 657.5,-299.5 739.5,-299.5 739.5,-280.5 657.5,-280.5"/>
<text text-anchor="middle" x="698.5" y="-287.5" font-family="FreeSans" font-size="10.00">os_memory.h</text>
</a>
</g>
</g>
<!-- Node1&#45;&gt;Node21 -->
<g id="edge34" class="edge">
<title>Node1&#45;&gt;Node21</title>
<path fill="none" stroke="midnightblue" d="M435.62,-337.34C484.73,-328.8 566.72,-314.5 647.01,-300.26"/>
<polygon fill="midnightblue" stroke="midnightblue" points="648.07,-303.63 657.3,-298.43 646.84,-296.73 648.07,-303.63"/>
</g>
<!-- Node22 -->
<g id="node22" class="node">
<title>Node22</title>
<g id="a_node22"><a xlink:title=" ">
<polygon fill="white" stroke="#bfbfbf" points="795.5,-280.5 795.5,-299.5 881.5,-299.5 881.5,-280.5 795.5,-280.5"/>
<text text-anchor="middle" x="838.5" y="-287.5" font-family="FreeSans" font-size="10.00">avr/interrupt.h</text>
</a>
</g>
</g>
<!-- Node1&#45;&gt;Node22 -->
<g id="edge38" class="edge">
<title>Node1&#45;&gt;Node22</title>
<path fill="none" stroke="midnightblue" d="M435.73,-340.5C508.13,-333.01 656.4,-317.09 781.5,-300 782.76,-299.83 784.03,-299.65 785.31,-299.47"/>
<polygon fill="midnightblue" stroke="midnightblue" points="785.88,-302.93 795.27,-298.02 784.87,-296 785.88,-302.93"/>
</g>
<!-- Node2&#45;&gt;Node3 -->
<g id="edge2" class="edge">
<title>Node2&#45;&gt;Node3</title>
<path fill="none" stroke="midnightblue" d="M551.84,-224.09C542.55,-210.17 522.76,-183.27 499.5,-168 470.61,-149.04 433.02,-137.4 404.69,-130.73"/>
<polygon fill="midnightblue" stroke="midnightblue" points="405.22,-127.26 394.7,-128.49 403.69,-134.09 405.22,-127.26"/>
</g>
<!-- Node4 -->
<g id="node4" class="node">
<title>Node4</title>
<g id="a_node4"><a xlink:href="defines_8h.html" target="_top" xlink:title="Simple definitions and assembler&#45;macros, mostly 8/16&#45;Bit values.">
<polygon fill="white" stroke="black" points="583,-112.5 583,-131.5 644,-131.5 644,-112.5 583,-112.5"/>
<text text-anchor="middle" x="613.5" y="-119.5" font-family="FreeSans" font-size="10.00">defines.h</text>
</a>
</g>
</g>
<!-- Node2&#45;&gt;Node4 -->
<g id="edge3" class="edge">
<title>Node2&#45;&gt;Node4</title>
<path fill="none" stroke="midnightblue" d="M561.89,-224.37C571.05,-206.38 592.35,-164.55 604.53,-140.63"/>
<polygon fill="midnightblue" stroke="midnightblue" points="607.71,-142.09 609.13,-131.59 601.47,-138.92 607.71,-142.09"/>
</g>
<!-- Node7 -->
<g id="node7" class="node">
<title>Node7</title>
<g id="a_node7"><a xlink:href="os__process_8h.html" target="_top" xlink:title="Struct specifying a process.">
<polygon fill="white" stroke="black" points="410.5,-168.5 410.5,-187.5 490.5,-187.5 490.5,-168.5 410.5,-168.5"/>
<text text-anchor="middle" x="450.5" y="-175.5" font-family="FreeSans" font-size="10.00">os_process.h</text>
</a>
</g>
</g>
<!-- Node2&#45;&gt;Node7 -->
<g id="edge6" class="edge">
<title>Node2&#45;&gt;Node7</title>
<path fill="none" stroke="midnightblue" d="M540.31,-224.32C523.15,-215.66 496.55,-202.24 476.75,-192.25"/>
<polygon fill="midnightblue" stroke="midnightblue" points="478.15,-189.04 467.65,-187.65 475,-195.28 478.15,-189.04"/>
</g>
<!-- Node5 -->
<g id="node5" class="node">
<title>Node5</title>
<g id="a_node5"><a xlink:href="atmega644constants_8h.html" target="_top" xlink:title="Constants for ATMega644 and EVA board. Defines several useful constants for the ATMega644.">
<polygon fill="white" stroke="black" points="549.5,-56.5 549.5,-75.5 677.5,-75.5 677.5,-56.5 549.5,-56.5"/>
<text text-anchor="middle" x="613.5" y="-63.5" font-family="FreeSans" font-size="10.00">atmega644constants.h</text>
</a>
</g>
</g>
<!-- Node4&#45;&gt;Node5 -->
<g id="edge4" class="edge">
<title>Node4&#45;&gt;Node5</title>
<path fill="none" stroke="midnightblue" d="M613.5,-112.08C613.5,-105.01 613.5,-94.86 613.5,-85.99"/>
<polygon fill="midnightblue" stroke="midnightblue" points="617,-85.75 613.5,-75.75 610,-85.75 617,-85.75"/>
</g>
<!-- Node6 -->
<g id="node6" class="node">
<title>Node6</title>
<g id="a_node6"><a xlink:title=" ">
<polygon fill="white" stroke="#bfbfbf" points="587,-0.5 587,-19.5 640,-19.5 640,-0.5 587,-0.5"/>
<text text-anchor="middle" x="613.5" y="-7.5" font-family="FreeSans" font-size="10.00">avr/io.h</text>
</a>
</g>
</g>
<!-- Node5&#45;&gt;Node6 -->
<g id="edge5" class="edge">
<title>Node5&#45;&gt;Node6</title>
<path fill="none" stroke="midnightblue" d="M613.5,-56.08C613.5,-49.01 613.5,-38.86 613.5,-29.99"/>
<polygon fill="midnightblue" stroke="midnightblue" points="617,-29.75 613.5,-19.75 610,-29.75 617,-29.75"/>
</g>
<!-- Node7&#45;&gt;Node3 -->
<g id="edge8" class="edge">
<title>Node7&#45;&gt;Node3</title>
<path fill="none" stroke="midnightblue" d="M436.52,-168.32C422.95,-159.9 402.12,-146.97 386.18,-137.07"/>
<polygon fill="midnightblue" stroke="midnightblue" points="387.79,-133.95 377.44,-131.65 384.09,-139.9 387.79,-133.95"/>
</g>
<!-- Node8 -->
<g id="node8" class="node">
<title>Node8</title>
<g id="a_node8"><a xlink:title=" ">
<polygon fill="white" stroke="#bfbfbf" points="171,-112.5 171,-131.5 224,-131.5 224,-112.5 171,-112.5"/>
<text text-anchor="middle" x="197.5" y="-119.5" font-family="FreeSans" font-size="10.00">stdint.h</text>
</a>
</g>
</g>
<!-- Node7&#45;&gt;Node8 -->
<g id="edge7" class="edge">
<title>Node7&#45;&gt;Node8</title>
<path fill="none" stroke="midnightblue" d="M410.41,-168.44C361.96,-158.1 281.13,-140.85 234.24,-130.84"/>
<polygon fill="midnightblue" stroke="midnightblue" points="234.72,-127.36 224.21,-128.7 233.26,-134.21 234.72,-127.36"/>
</g>
<!-- Node9&#45;&gt;Node3 -->
<g id="edge11" class="edge">
<title>Node9&#45;&gt;Node3</title>
<path fill="none" stroke="midnightblue" d="M172.21,-171.72C206.99,-162.87 277.71,-144.85 322.74,-133.38"/>
<polygon fill="midnightblue" stroke="midnightblue" points="323.66,-136.76 332.48,-130.9 321.93,-129.98 323.66,-136.76"/>
</g>
<!-- Node9&#45;&gt;Node8 -->
<g id="edge10" class="edge">
<title>Node9&#45;&gt;Node8</title>
<path fill="none" stroke="midnightblue" d="M159.1,-168.08C165.73,-160.3 175.52,-148.8 183.56,-139.37"/>
<polygon fill="midnightblue" stroke="midnightblue" points="186.23,-141.63 190.05,-131.75 180.9,-137.09 186.23,-141.63"/>
</g>
<!-- Node10 -->
<g id="node10" class="node">
<title>Node10</title>
<g id="a_node10"><a xlink:title=" ">
<polygon fill="white" stroke="#bfbfbf" points="55,-112.5 55,-131.5 150,-131.5 150,-112.5 55,-112.5"/>
<text text-anchor="middle" x="102.5" y="-119.5" font-family="FreeSans" font-size="10.00">avr/pgmspace.h</text>
</a>
</g>
</g>
<!-- Node9&#45;&gt;Node10 -->
<g id="edge12" class="edge">
<title>Node9&#45;&gt;Node10</title>
<path fill="none" stroke="midnightblue" d="M143.41,-168.08C136.34,-160.3 125.91,-148.8 117.35,-139.37"/>
<polygon fill="midnightblue" stroke="midnightblue" points="119.75,-136.8 110.44,-131.75 114.57,-141.51 119.75,-136.8"/>
</g>
<!-- Node11&#45;&gt;Node8 -->
<g id="edge14" class="edge">
<title>Node11&#45;&gt;Node8</title>
<path fill="none" stroke="midnightblue" d="M126.9,-224.37C120.6,-211.29 111.21,-186.05 121.5,-168 130.18,-152.78 146.25,-142.18 161.39,-135.11"/>
<polygon fill="midnightblue" stroke="midnightblue" points="162.81,-138.31 170.62,-131.15 160.05,-131.87 162.81,-138.31"/>
</g>
<!-- Node12&#45;&gt;Node2 -->
<g id="edge16" class="edge">
<title>Node12&#45;&gt;Node2</title>
<path fill="none" stroke="midnightblue" d="M563.34,-280.08C562.42,-272.93 561.08,-262.64 559.92,-253.69"/>
<polygon fill="midnightblue" stroke="midnightblue" points="563.39,-253.22 558.63,-243.75 556.45,-254.12 563.39,-253.22"/>
</g>
<!-- Node12&#45;&gt;Node4 -->
<g id="edge17" class="edge">
<title>Node12&#45;&gt;Node4</title>
<path fill="none" stroke="midnightblue" d="M578.51,-280.23C589.75,-272.31 604.72,-259.53 611.5,-244 626.17,-210.43 621.78,-166.45 617.49,-141.82"/>
<polygon fill="midnightblue" stroke="midnightblue" points="620.87,-140.84 615.54,-131.69 614,-142.17 620.87,-140.84"/>
</g>
<!-- Node13&#45;&gt;Node3 -->
<g id="edge19" class="edge">
<title>Node13&#45;&gt;Node3</title>
<path fill="none" stroke="midnightblue" d="M389.99,-280.08C385.59,-253.95 372.64,-177.21 366.63,-141.58"/>
<polygon fill="midnightblue" stroke="midnightblue" points="370.06,-140.85 364.95,-131.57 363.16,-142.01 370.06,-140.85"/>
</g>
<!-- Node14&#45;&gt;Node10 -->
<g id="edge21" class="edge">
<title>Node14&#45;&gt;Node10</title>
<path fill="none" stroke="midnightblue" d="M37.07,-224.37C48.74,-206.3 75.92,-164.18 91.33,-140.31"/>
<polygon fill="midnightblue" stroke="midnightblue" points="94.47,-141.89 96.95,-131.59 88.59,-138.1 94.47,-141.89"/>
</g>
<!-- Node15&#45;&gt;Node3 -->
<g id="edge23" class="edge">
<title>Node15&#45;&gt;Node3</title>
<path fill="none" stroke="midnightblue" d="M262.13,-224.37C280.61,-205.89 324.21,-162.29 347.76,-138.74"/>
<polygon fill="midnightblue" stroke="midnightblue" points="350.31,-141.14 354.91,-131.59 345.36,-136.19 350.31,-141.14"/>
</g>
<!-- Node15&#45;&gt;Node4 -->
<g id="edge27" class="edge">
<title>Node15&#45;&gt;Node4</title>
<path fill="none" stroke="midnightblue" d="M273.55,-231.63C316.26,-228.21 418.94,-217.37 499.5,-188 534.34,-175.3 570.95,-152.48 593.01,-137.54"/>
<polygon fill="midnightblue" stroke="midnightblue" points="595.27,-140.22 601.52,-131.67 591.3,-134.46 595.27,-140.22"/>
</g>
<!-- Node15&#45;&gt;Node8 -->
<g id="edge24" class="edge">
<title>Node15&#45;&gt;Node8</title>
<path fill="none" stroke="midnightblue" d="M245.55,-224.28C237.99,-215.61 226.74,-201.67 219.5,-188 211.66,-173.19 205.8,-155.04 202.1,-141.68"/>
<polygon fill="midnightblue" stroke="midnightblue" points="205.43,-140.56 199.51,-131.77 198.66,-142.33 205.43,-140.56"/>
</g>
<!-- Node15&#45;&gt;Node9 -->
<g id="edge28" class="edge">
<title>Node15&#45;&gt;Node9</title>
<path fill="none" stroke="midnightblue" d="M237.11,-224.32C220.83,-215.7 195.63,-202.36 176.78,-192.39"/>
<polygon fill="midnightblue" stroke="midnightblue" points="178.32,-189.24 167.85,-187.65 175.05,-195.43 178.32,-189.24"/>
</g>
<!-- Node15&#45;&gt;Node10 -->
<g id="edge26" class="edge">
<title>Node15&#45;&gt;Node10</title>
<path fill="none" stroke="midnightblue" d="M233.47,-231.78C204.65,-228.94 151.63,-219.49 121.5,-188 109.7,-175.67 105.17,-156.42 103.46,-142.06"/>
<polygon fill="midnightblue" stroke="midnightblue" points="106.93,-141.5 102.61,-131.82 99.95,-142.08 106.93,-141.5"/>
</g>
<!-- Node16 -->
<g id="node16" class="node">
<title>Node16</title>
<g id="a_node16"><a xlink:title=" ">
<polygon fill="white" stroke="#bfbfbf" points="228.5,-168.5 228.5,-187.5 278.5,-187.5 278.5,-168.5 228.5,-168.5"/>
<text text-anchor="middle" x="253.5" y="-175.5" font-family="FreeSans" font-size="10.00">stdio.h</text>
</a>
</g>
</g>
<!-- Node15&#45;&gt;Node16 -->
<g id="edge25" class="edge">
<title>Node15&#45;&gt;Node16</title>
<path fill="none" stroke="midnightblue" d="M253.5,-224.08C253.5,-217.01 253.5,-206.86 253.5,-197.99"/>
<polygon fill="midnightblue" stroke="midnightblue" points="257,-197.75 253.5,-187.75 250,-197.75 257,-197.75"/>
</g>
<!-- Node18 -->
<g id="node18" class="node">
<title>Node18</title>
<g id="a_node18"><a xlink:href="os__mem__drivers_8h.html" target="_top" xlink:title="Drivers for OS memory management.">
<polygon fill="white" stroke="black" points="661,-168.5 661,-187.5 768,-187.5 768,-168.5 661,-168.5"/>
<text text-anchor="middle" x="714.5" y="-175.5" font-family="FreeSans" font-size="10.00">os_mem_drivers.h</text>
</a>
</g>
</g>
<!-- Node17&#45;&gt;Node18 -->
<g id="edge30" class="edge">
<title>Node17&#45;&gt;Node18</title>
<path fill="none" stroke="midnightblue" d="M764.86,-224.32C755.99,-216.34 742.63,-204.31 731.89,-194.65"/>
<polygon fill="midnightblue" stroke="midnightblue" points="734.09,-191.92 724.32,-187.83 729.41,-197.13 734.09,-191.92"/>
</g>
<!-- Node20 -->
<g id="node20" class="node">
<title>Node20</title>
<g id="a_node20"><a xlink:title=" ">
<polygon fill="white" stroke="#bfbfbf" points="786.5,-168.5 786.5,-187.5 842.5,-187.5 842.5,-168.5 786.5,-168.5"/>
<text text-anchor="middle" x="814.5" y="-175.5" font-family="FreeSans" font-size="10.00">stddef.h</text>
</a>
</g>
</g>
<!-- Node17&#45;&gt;Node20 -->
<g id="edge33" class="edge">
<title>Node17&#45;&gt;Node20</title>
<path fill="none" stroke="midnightblue" d="M781.11,-224.08C786.76,-216.46 795.04,-205.26 801.95,-195.94"/>
<polygon fill="midnightblue" stroke="midnightblue" points="804.88,-197.87 808.02,-187.75 799.25,-193.7 804.88,-197.87"/>
</g>
<!-- Node18&#45;&gt;Node4 -->
<g id="edge32" class="edge">
<title>Node18&#45;&gt;Node4</title>
<path fill="none" stroke="midnightblue" d="M698.27,-168.32C682.15,-159.7 657.2,-146.36 638.54,-136.39"/>
<polygon fill="midnightblue" stroke="midnightblue" points="640.16,-133.28 629.69,-131.65 636.86,-139.46 640.16,-133.28"/>
</g>
<!-- Node19 -->
<g id="node19" class="node">
<title>Node19</title>
<g id="a_node19"><a xlink:title=" ">
<polygon fill="white" stroke="#bfbfbf" points="682,-112.5 682,-131.5 747,-131.5 747,-112.5 682,-112.5"/>
<text text-anchor="middle" x="714.5" y="-119.5" font-family="FreeSans" font-size="10.00">inttypes.h</text>
</a>
</g>
</g>
<!-- Node18&#45;&gt;Node19 -->
<g id="edge31" class="edge">
<title>Node18&#45;&gt;Node19</title>
<path fill="none" stroke="midnightblue" d="M714.5,-168.08C714.5,-161.01 714.5,-150.86 714.5,-141.99"/>
<polygon fill="midnightblue" stroke="midnightblue" points="718,-141.75 714.5,-131.75 711,-141.75 718,-141.75"/>
</g>
<!-- Node21&#45;&gt;Node2 -->
<g id="edge37" class="edge">
<title>Node21&#45;&gt;Node2</title>
<path fill="none" stroke="midnightblue" d="M676.16,-280.44C652.75,-271.48 615.76,-257.31 589.31,-247.18"/>
<polygon fill="midnightblue" stroke="midnightblue" points="590.33,-243.82 579.74,-243.52 587.82,-250.36 590.33,-243.82"/>
</g>
<!-- Node21&#45;&gt;Node17 -->
<g id="edge36" class="edge">
<title>Node21&#45;&gt;Node17</title>
<path fill="none" stroke="midnightblue" d="M710.71,-280.32C722.28,-272.11 739.88,-259.6 753.66,-249.81"/>
<polygon fill="midnightblue" stroke="midnightblue" points="755.94,-252.48 762.07,-243.83 751.89,-246.77 755.94,-252.48"/>
</g>
<!-- Node21&#45;&gt;Node18 -->
<g id="edge35" class="edge">
<title>Node21&#45;&gt;Node18</title>
<path fill="none" stroke="midnightblue" d="M698.02,-280.09C697.51,-267.5 697.18,-243.82 700.5,-224 702.01,-215.02 704.85,-205.35 707.58,-197.28"/>
<polygon fill="midnightblue" stroke="midnightblue" points="710.9,-198.39 710.98,-187.79 704.31,-196.02 710.9,-198.39"/>
</g>
</g>
</svg>
