<?xml version="1.0" encoding="UTF-8" standalone="no"?>
<!DOCTYPE svg PUBLIC "-//W3C//DTD SVG 1.1//EN"
 "http://www.w3.org/Graphics/SVG/1.1/DTD/svg11.dtd">
<!-- Generated by graphviz version 2.43.0 (0)
 -->
<!-- Title: os_memheap_drivers.c Pages: 1 -->
<svg width="341pt" height="364pt"
 viewBox="0.00 0.00 341.00 364.00" xmlns="http://www.w3.org/2000/svg" xmlns:xlink="http://www.w3.org/1999/xlink">
<g id="graph0" class="graph" transform="scale(1 1) rotate(0) translate(4 360)">
<title>os_memheap_drivers.c</title>
<polygon fill="white" stroke="transparent" points="-4,4 -4,-360 337,-360 337,4 -4,4"/>
<!-- Node1 -->
<g id="node1" class="node">
<title>Node1</title>
<g id="a_node1"><a xlink:title=" ">
<polygon fill="#bfbfbf" stroke="black" points="95.5,-336.5 95.5,-355.5 225.5,-355.5 225.5,-336.5 95.5,-336.5"/>
<text text-anchor="middle" x="160.5" y="-343.5" font-family="FreeSans" font-size="10.00">os_memheap_drivers.c</text>
</a>
</g>
</g>
<!-- Node2 -->
<g id="node2" class="node">
<title>Node2</title>
<g id="a_node2"><a xlink:href="os__memheap__drivers_8h.html" target="_top" xlink:title="Drivers for OS heap management.">
<polygon fill="white" stroke="black" points="17,-224.5 17,-243.5 148,-243.5 148,-224.5 17,-224.5"/>
<text text-anchor="middle" x="82.5" y="-231.5" font-family="FreeSans" font-size="10.00">os_memheap_drivers.h</text>
</a>
</g>
</g>
<!-- Node1&#45;&gt;Node2 -->
<g id="edge1" class="edge">
<title>Node1&#45;&gt;Node2</title>
<path fill="none" stroke="midnightblue" d="M95.37,-337.31C72.27,-331.09 48.55,-319.94 34.5,-300 22.07,-282.36 41.91,-262.45 59.73,-249.37"/>
<polygon fill="midnightblue" stroke="midnightblue" points="61.93,-252.1 68.16,-243.53 57.94,-246.34 61.93,-252.1"/>
</g>
<!-- Node5 -->
<g id="node5" class="node">
<title>Node5</title>
<g id="a_node5"><a xlink:href="defines_8h.html" target="_top" xlink:title="Simple definitions and assembler&#45;macros, mostly 8/16&#45;Bit values.">
<polygon fill="white" stroke="black" points="141,-112.5 141,-131.5 202,-131.5 202,-112.5 141,-112.5"/>
<text text-anchor="middle" x="171.5" y="-119.5" font-family="FreeSans" font-size="10.00">defines.h</text>
</a>
</g>
</g>
<!-- Node1&#45;&gt;Node5 -->
<g id="edge8" class="edge">
<title>Node1&#45;&gt;Node5</title>
<path fill="none" stroke="midnightblue" d="M168.71,-336.18C176.04,-327.66 186.26,-314.02 190.5,-300 207.5,-243.85 202.14,-225.5 190.5,-168 188.61,-158.65 184.71,-148.83 180.93,-140.75"/>
<polygon fill="midnightblue" stroke="midnightblue" points="183.97,-139.01 176.38,-131.63 177.71,-142.14 183.97,-139.01"/>
</g>
<!-- Node9 -->
<g id="node9" class="node">
<title>Node9</title>
<g id="a_node9"><a xlink:href="os__memory__strategies_8h.html" target="_top" xlink:title="Memory allocation library for the OS.">
<polygon fill="white" stroke="black" points="44,-280.5 44,-299.5 181,-299.5 181,-280.5 44,-280.5"/>
<text text-anchor="middle" x="112.5" y="-287.5" font-family="FreeSans" font-size="10.00">os_memory_strategies.h</text>
</a>
</g>
</g>
<!-- Node1&#45;&gt;Node9 -->
<g id="edge9" class="edge">
<title>Node1&#45;&gt;Node9</title>
<path fill="none" stroke="midnightblue" d="M152.57,-336.08C145.65,-328.3 135.43,-316.8 127.05,-307.37"/>
<polygon fill="midnightblue" stroke="midnightblue" points="129.54,-304.9 120.28,-299.75 124.31,-309.55 129.54,-304.9"/>
</g>
<!-- Node10 -->
<g id="node10" class="node">
<title>Node10</title>
<g id="a_node10"><a xlink:title=" ">
<polygon fill="white" stroke="#bfbfbf" points="238,-280.5 238,-299.5 333,-299.5 333,-280.5 238,-280.5"/>
<text text-anchor="middle" x="285.5" y="-287.5" font-family="FreeSans" font-size="10.00">avr/pgmspace.h</text>
</a>
</g>
</g>
<!-- Node1&#45;&gt;Node10 -->
<g id="edge11" class="edge">
<title>Node1&#45;&gt;Node10</title>
<path fill="none" stroke="midnightblue" d="M180.31,-336.44C200.79,-327.6 232.98,-313.69 256.36,-303.59"/>
<polygon fill="midnightblue" stroke="midnightblue" points="257.99,-306.7 265.79,-299.52 255.22,-300.27 257.99,-306.7"/>
</g>
<!-- Node3 -->
<g id="node3" class="node">
<title>Node3</title>
<g id="a_node3"><a xlink:href="os__mem__drivers_8h.html" target="_top" xlink:title="Drivers for OS memory management.">
<polygon fill="white" stroke="black" points="0,-168.5 0,-187.5 107,-187.5 107,-168.5 0,-168.5"/>
<text text-anchor="middle" x="53.5" y="-175.5" font-family="FreeSans" font-size="10.00">os_mem_drivers.h</text>
</a>
</g>
</g>
<!-- Node2&#45;&gt;Node3 -->
<g id="edge2" class="edge">
<title>Node2&#45;&gt;Node3</title>
<path fill="none" stroke="midnightblue" d="M77.71,-224.08C73.74,-216.69 67.97,-205.95 63.07,-196.81"/>
<polygon fill="midnightblue" stroke="midnightblue" points="66.01,-194.91 58.2,-187.75 59.85,-198.22 66.01,-194.91"/>
</g>
<!-- Node8 -->
<g id="node8" class="node">
<title>Node8</title>
<g id="a_node8"><a xlink:title=" ">
<polygon fill="white" stroke="#bfbfbf" points="125.5,-168.5 125.5,-187.5 181.5,-187.5 181.5,-168.5 125.5,-168.5"/>
<text text-anchor="middle" x="153.5" y="-175.5" font-family="FreeSans" font-size="10.00">stddef.h</text>
</a>
</g>
</g>
<!-- Node2&#45;&gt;Node8 -->
<g id="edge7" class="edge">
<title>Node2&#45;&gt;Node8</title>
<path fill="none" stroke="midnightblue" d="M93.91,-224.32C104.61,-216.18 120.84,-203.84 133.66,-194.09"/>
<polygon fill="midnightblue" stroke="midnightblue" points="136.04,-196.67 141.89,-187.83 131.81,-191.1 136.04,-196.67"/>
</g>
<!-- Node4 -->
<g id="node4" class="node">
<title>Node4</title>
<g id="a_node4"><a xlink:title=" ">
<polygon fill="white" stroke="#bfbfbf" points="21,-112.5 21,-131.5 86,-131.5 86,-112.5 21,-112.5"/>
<text text-anchor="middle" x="53.5" y="-119.5" font-family="FreeSans" font-size="10.00">inttypes.h</text>
</a>
</g>
</g>
<!-- Node3&#45;&gt;Node4 -->
<g id="edge3" class="edge">
<title>Node3&#45;&gt;Node4</title>
<path fill="none" stroke="midnightblue" d="M53.5,-168.08C53.5,-161.01 53.5,-150.86 53.5,-141.99"/>
<polygon fill="midnightblue" stroke="midnightblue" points="57,-141.75 53.5,-131.75 50,-141.75 57,-141.75"/>
</g>
<!-- Node3&#45;&gt;Node5 -->
<g id="edge4" class="edge">
<title>Node3&#45;&gt;Node5</title>
<path fill="none" stroke="midnightblue" d="M72.2,-168.44C91.44,-159.64 121.65,-145.81 143.7,-135.72"/>
<polygon fill="midnightblue" stroke="midnightblue" points="145.25,-138.86 152.89,-131.52 142.34,-132.5 145.25,-138.86"/>
</g>
<!-- Node6 -->
<g id="node6" class="node">
<title>Node6</title>
<g id="a_node6"><a xlink:href="atmega644constants_8h.html" target="_top" xlink:title="Constants for ATMega644 and EVA board. Defines several useful constants for the ATMega644.">
<polygon fill="white" stroke="black" points="107.5,-56.5 107.5,-75.5 235.5,-75.5 235.5,-56.5 107.5,-56.5"/>
<text text-anchor="middle" x="171.5" y="-63.5" font-family="FreeSans" font-size="10.00">atmega644constants.h</text>
</a>
</g>
</g>
<!-- Node5&#45;&gt;Node6 -->
<g id="edge5" class="edge">
<title>Node5&#45;&gt;Node6</title>
<path fill="none" stroke="midnightblue" d="M171.5,-112.08C171.5,-105.01 171.5,-94.86 171.5,-85.99"/>
<polygon fill="midnightblue" stroke="midnightblue" points="175,-85.75 171.5,-75.75 168,-85.75 175,-85.75"/>
</g>
<!-- Node7 -->
<g id="node7" class="node">
<title>Node7</title>
<g id="a_node7"><a xlink:title=" ">
<polygon fill="white" stroke="#bfbfbf" points="145,-0.5 145,-19.5 198,-19.5 198,-0.5 145,-0.5"/>
<text text-anchor="middle" x="171.5" y="-7.5" font-family="FreeSans" font-size="10.00">avr/io.h</text>
</a>
</g>
</g>
<!-- Node6&#45;&gt;Node7 -->
<g id="edge6" class="edge">
<title>Node6&#45;&gt;Node7</title>
<path fill="none" stroke="midnightblue" d="M171.5,-56.08C171.5,-49.01 171.5,-38.86 171.5,-29.99"/>
<polygon fill="midnightblue" stroke="midnightblue" points="175,-29.75 171.5,-19.75 168,-29.75 175,-29.75"/>
</g>
<!-- Node9&#45;&gt;Node2 -->
<g id="edge10" class="edge">
<title>Node9&#45;&gt;Node2</title>
<path fill="none" stroke="midnightblue" d="M107.55,-280.08C103.4,-272.61 97.35,-261.72 92.23,-252.52"/>
<polygon fill="midnightblue" stroke="midnightblue" points="95.28,-250.79 87.36,-243.75 89.16,-254.19 95.28,-250.79"/>
</g>
</g>
</svg>
