<?xml version="1.0" encoding="UTF-8" standalone="no"?>
<!DOCTYPE svg PUBLIC "-//W3C//DTD SVG 1.1//EN"
 "http://www.w3.org/Graphics/SVG/1.1/DTD/svg11.dtd">
<!-- Generated by graphviz version 2.43.0 (0)
 -->
<!-- Title: pageHandlerWrapper Pages: 1 -->
<svg width="527pt" height="180pt"
 viewBox="0.00 0.00 527.00 180.00" xmlns="http://www.w3.org/2000/svg" xmlns:xlink="http://www.w3.org/1999/xlink">
<g id="graph0" class="graph" transform="scale(1 1) rotate(0) translate(4 176)">
<title>pageHandlerWrapper</title>
<polygon fill="white" stroke="transparent" points="-4,4 -4,-176 523,-176 523,4 -4,4"/>
<!-- Node1 -->
<g id="node1" class="node">
<title>Node1</title>
<g id="a_node1"><a xlink:title=" ">
<polygon fill="#bfbfbf" stroke="black" points="0,-76.5 0,-95.5 120,-95.5 120,-76.5 0,-76.5"/>
<text text-anchor="middle" x="60" y="-83.5" font-family="FreeSans" font-size="10.00">pageHandlerWrapper</text>
</a>
</g>
</g>
<!-- Node2 -->
<g id="node2" class="node">
<title>Node2</title>
<g id="a_node2"><a xlink:href="lcd_8c.html#ad9ccaf30ea478fef726c058ff4ee7dd1" target="_top" xlink:title="Next output will be written to line 2.">
<polygon fill="white" stroke="black" points="181.5,-152.5 181.5,-171.5 241.5,-171.5 241.5,-152.5 181.5,-152.5"/>
<text text-anchor="middle" x="211.5" y="-159.5" font-family="FreeSans" font-size="10.00">lcd_line2</text>
</a>
</g>
</g>
<!-- Node1&#45;&gt;Node2 -->
<g id="edge1" class="edge">
<title>Node1&#45;&gt;Node2</title>
<path fill="none" stroke="midnightblue" d="M77.59,-95.65C96.37,-106.44 128,-124.2 156,-138 163.01,-141.46 170.64,-144.96 177.9,-148.19"/>
<polygon fill="midnightblue" stroke="midnightblue" points="176.93,-151.59 187.49,-152.39 179.74,-145.17 176.93,-151.59"/>
</g>
<!-- Node5 -->
<g id="node5" class="node">
<title>Node5</title>
<g id="a_node5"><a xlink:href="lcd_8c.html#a93cd5600fa3b27381a4cf57d21f27ebf" target="_top" xlink:title="Write one character.">
<polygon fill="white" stroke="black" points="304,-76.5 304,-95.5 387,-95.5 387,-76.5 304,-76.5"/>
<text text-anchor="middle" x="345.5" y="-83.5" font-family="FreeSans" font-size="10.00">lcd_writeChar</text>
</a>
</g>
</g>
<!-- Node1&#45;&gt;Node5 -->
<g id="edge4" class="edge">
<title>Node1&#45;&gt;Node5</title>
<path fill="none" stroke="midnightblue" d="M99.57,-95.51C116.73,-99.27 137.25,-103.14 156,-105 205.09,-109.86 218.02,-110.92 267,-105 278.91,-103.56 291.64,-100.92 303.26,-98.06"/>
<polygon fill="midnightblue" stroke="midnightblue" points="304.34,-101.39 313.14,-95.51 302.59,-94.62 304.34,-101.39"/>
</g>
<!-- Node6 -->
<g id="node6" class="node">
<title>Node6</title>
<g id="a_node6"><a xlink:href="lcd_8c.html#a59cbc4640fd74a5321a52c0b574e864a" target="_top" xlink:title="Write char PROGMEM* string.">
<polygon fill="white" stroke="black" points="156,-76.5 156,-95.5 267,-95.5 267,-76.5 156,-76.5"/>
<text text-anchor="middle" x="211.5" y="-83.5" font-family="FreeSans" font-size="10.00">lcd_writeProgString</text>
</a>
</g>
</g>
<!-- Node1&#45;&gt;Node6 -->
<g id="edge5" class="edge">
<title>Node1&#45;&gt;Node6</title>
<path fill="none" stroke="midnightblue" d="M120.09,-86C128.44,-86 137.07,-86 145.53,-86"/>
<polygon fill="midnightblue" stroke="midnightblue" points="145.73,-89.5 155.73,-86 145.73,-82.5 145.73,-89.5"/>
</g>
<!-- Node7 -->
<g id="node7" class="node">
<title>Node7</title>
<g id="a_node7"><a xlink:href="lcd_8c.html#ab3a504d74b49b8241001ebd8b121da7d" target="_top" xlink:title="Write text string.">
<polygon fill="white" stroke="black" points="167,-38.5 167,-57.5 256,-57.5 256,-38.5 167,-38.5"/>
<text text-anchor="middle" x="211.5" y="-45.5" font-family="FreeSans" font-size="10.00">lcd_writeString</text>
</a>
</g>
</g>
<!-- Node1&#45;&gt;Node7 -->
<g id="edge7" class="edge">
<title>Node1&#45;&gt;Node7</title>
<path fill="none" stroke="midnightblue" d="M98.73,-76.41C118.28,-71.44 142.35,-65.32 163.14,-60.04"/>
<polygon fill="midnightblue" stroke="midnightblue" points="164.22,-63.38 173.05,-57.52 162.49,-56.59 164.22,-63.38"/>
</g>
<!-- Node8 -->
<g id="node8" class="node">
<title>Node8</title>
<g id="a_node8"><a xlink:href="os__user__privileges_8h.html#a38af7bd4bdf83670e48bbccc61d84385" target="_top" xlink:title=" ">
<polygon fill="white" stroke="black" points="159.5,-0.5 159.5,-19.5 263.5,-19.5 263.5,-0.5 159.5,-0.5"/>
<text text-anchor="middle" x="211.5" y="-7.5" font-family="FreeSans" font-size="10.00">os_askPermission</text>
</a>
</g>
</g>
<!-- Node1&#45;&gt;Node8 -->
<g id="edge9" class="edge">
<title>Node1&#45;&gt;Node8</title>
<path fill="none" stroke="midnightblue" d="M74.98,-76.36C93.07,-64.18 125.87,-43.11 156,-29 160.42,-26.93 165.13,-24.96 169.86,-23.13"/>
<polygon fill="midnightblue" stroke="midnightblue" points="171.33,-26.31 179.51,-19.57 168.91,-19.75 171.33,-26.31"/>
</g>
<!-- Node3 -->
<g id="node3" class="node">
<title>Node3</title>
<g id="a_node3"><a xlink:href="lcd_8c.html#acb116d89c358367b8fd1164120d320e3" target="_top" xlink:title="Send command to LCD.">
<polygon fill="white" stroke="black" points="303,-152.5 303,-171.5 388,-171.5 388,-152.5 303,-152.5"/>
<text text-anchor="middle" x="345.5" y="-159.5" font-family="FreeSans" font-size="10.00">lcd_command</text>
</a>
</g>
</g>
<!-- Node2&#45;&gt;Node3 -->
<g id="edge2" class="edge">
<title>Node2&#45;&gt;Node3</title>
<path fill="none" stroke="midnightblue" d="M241.8,-162C256.64,-162 275.12,-162 292.29,-162"/>
<polygon fill="midnightblue" stroke="midnightblue" points="292.77,-165.5 302.77,-162 292.77,-158.5 292.77,-165.5"/>
</g>
<!-- Node4 -->
<g id="node4" class="node">
<title>Node4</title>
<g id="a_node4"><a xlink:href="lcd_8c.html#a26a89cb41bb1496462fda420cbe79a07" target="_top" xlink:title=" ">
<polygon fill="white" stroke="black" points="424,-152.5 424,-171.5 519,-171.5 519,-152.5 424,-152.5"/>
<text text-anchor="middle" x="471.5" y="-159.5" font-family="FreeSans" font-size="10.00">lcd_sendStream</text>
</a>
</g>
</g>
<!-- Node3&#45;&gt;Node4 -->
<g id="edge3" class="edge">
<title>Node3&#45;&gt;Node4</title>
<path fill="none" stroke="midnightblue" d="M388.14,-162C396.24,-162 404.86,-162 413.37,-162"/>
<polygon fill="midnightblue" stroke="midnightblue" points="413.63,-165.5 423.63,-162 413.63,-158.5 413.63,-165.5"/>
</g>
<!-- Node6&#45;&gt;Node5 -->
<g id="edge6" class="edge">
<title>Node6&#45;&gt;Node5</title>
<path fill="none" stroke="midnightblue" d="M267.33,-86C275.99,-86 284.92,-86 293.49,-86"/>
<polygon fill="midnightblue" stroke="midnightblue" points="293.73,-89.5 303.73,-86 293.73,-82.5 293.73,-89.5"/>
</g>
<!-- Node7&#45;&gt;Node5 -->
<g id="edge8" class="edge">
<title>Node7&#45;&gt;Node5</title>
<path fill="none" stroke="midnightblue" d="M245.81,-57.59C262.69,-62.45 283.39,-68.41 301.47,-73.61"/>
<polygon fill="midnightblue" stroke="midnightblue" points="300.62,-77.01 311.2,-76.41 302.56,-70.28 300.62,-77.01"/>
</g>
</g>
</svg>
