<?xml version="1.0" encoding="UTF-8" standalone="no"?>
<!DOCTYPE svg PUBLIC "-//W3C//DTD SVG 1.1//EN"
 "http://www.w3.org/Graphics/SVG/1.1/DTD/svg11.dtd">
<!-- Generated by graphviz version 2.43.0 (0)
 -->
<!-- Title: idle Pages: 1 -->
<svg width="511pt" height="66pt"
 viewBox="0.00 0.00 511.00 66.00" xmlns="http://www.w3.org/2000/svg" xmlns:xlink="http://www.w3.org/1999/xlink">
<g id="graph0" class="graph" transform="scale(1 1) rotate(0) translate(4 62)">
<title>idle</title>
<polygon fill="white" stroke="transparent" points="-4,4 -4,-62 507,-62 507,4 -4,4"/>
<!-- Node1 -->
<g id="node1" class="node">
<title>Node1</title>
<g id="a_node1"><a xlink:title=" ">
<polygon fill="#bfbfbf" stroke="black" points="0,-19.5 0,-38.5 35,-38.5 35,-19.5 0,-19.5"/>
<text text-anchor="middle" x="17.5" y="-26.5" font-family="FreeSans" font-size="10.00">idle</text>
</a>
</g>
</g>
<!-- Node2 -->
<g id="node2" class="node">
<title>Node2</title>
<g id="a_node2"><a xlink:href="util_8c.html#a6203c4722e9cbe1542b6ccbe98362dd2" target="_top" xlink:title="Waits for some milliseconds.">
<polygon fill="white" stroke="black" points="83.5,-38.5 83.5,-57.5 141.5,-57.5 141.5,-38.5 83.5,-38.5"/>
<text text-anchor="middle" x="112.5" y="-45.5" font-family="FreeSans" font-size="10.00">delayMs</text>
</a>
</g>
</g>
<!-- Node1&#45;&gt;Node2 -->
<g id="edge1" class="edge">
<title>Node1&#45;&gt;Node2</title>
<path fill="none" stroke="midnightblue" d="M35.13,-32.4C45.78,-34.57 60.07,-37.49 73.41,-40.22"/>
<polygon fill="midnightblue" stroke="midnightblue" points="72.85,-43.68 83.34,-42.25 74.25,-36.82 72.85,-43.68"/>
</g>
<!-- Node5 -->
<g id="node5" class="node">
<title>Node5</title>
<g id="a_node5"><a xlink:href="lcd_8c.html#a93cd5600fa3b27381a4cf57d21f27ebf" target="_top" xlink:title="Write one character.">
<polygon fill="white" stroke="black" points="71,-0.5 71,-19.5 154,-19.5 154,-0.5 71,-0.5"/>
<text text-anchor="middle" x="112.5" y="-7.5" font-family="FreeSans" font-size="10.00">lcd_writeChar</text>
</a>
</g>
</g>
<!-- Node1&#45;&gt;Node5 -->
<g id="edge4" class="edge">
<title>Node1&#45;&gt;Node5</title>
<path fill="none" stroke="midnightblue" d="M35.13,-25.6C42.42,-24.11 51.41,-22.28 60.63,-20.39"/>
<polygon fill="midnightblue" stroke="midnightblue" points="61.55,-23.78 70.65,-18.35 60.15,-16.92 61.55,-23.78"/>
</g>
<!-- Node3 -->
<g id="node3" class="node">
<title>Node3</title>
<g id="a_node3"><a xlink:href="util_8c.html#a0ed4ceac216999d297c20ed56cd2f2e0" target="_top" xlink:title="Precise system time in ms.">
<polygon fill="white" stroke="black" points="190,-38.5 190,-57.5 324,-57.5 324,-38.5 190,-38.5"/>
<text text-anchor="middle" x="257" y="-45.5" font-family="FreeSans" font-size="10.00">os_systemTime_precise</text>
</a>
</g>
</g>
<!-- Node2&#45;&gt;Node3 -->
<g id="edge2" class="edge">
<title>Node2&#45;&gt;Node3</title>
<path fill="none" stroke="midnightblue" d="M141.65,-48C152.71,-48 165.97,-48 179.5,-48"/>
<polygon fill="midnightblue" stroke="midnightblue" points="179.86,-51.5 189.86,-48 179.86,-44.5 179.86,-51.5"/>
</g>
<!-- Node4 -->
<g id="node4" class="node">
<title>Node4</title>
<g id="a_node4"><a xlink:href="util_8c.html#aa7568de3711b151bbc57bb3517a5cb0a" target="_top" xlink:title=" ">
<polygon fill="white" stroke="black" points="360,-38.5 360,-57.5 503,-57.5 503,-38.5 360,-38.5"/>
<text text-anchor="middle" x="431.5" y="-45.5" font-family="FreeSans" font-size="10.00">os_systemTime_augment</text>
</a>
</g>
</g>
<!-- Node3&#45;&gt;Node4 -->
<g id="edge3" class="edge">
<title>Node3&#45;&gt;Node4</title>
<path fill="none" stroke="midnightblue" d="M324.2,-48C332.6,-48 341.27,-48 349.86,-48"/>
<polygon fill="midnightblue" stroke="midnightblue" points="349.89,-51.5 359.89,-48 349.89,-44.5 349.89,-51.5"/>
</g>
</g>
</svg>
