<?xml version="1.0" encoding="UTF-8" standalone="no"?>
<!DOCTYPE svg PUBLIC "-//W3C//DTD SVG 1.1//EN"
 "http://www.w3.org/Graphics/SVG/1.1/DTD/svg11.dtd">
<!-- Generated by graphviz version 2.43.0 (0)
 -->
<!-- Title: os_memory_strategies.c Pages: 1 -->
<svg width="429pt" height="364pt"
 viewBox="0.00 0.00 429.00 364.00" xmlns="http://www.w3.org/2000/svg" xmlns:xlink="http://www.w3.org/1999/xlink">
<g id="graph0" class="graph" transform="scale(1 1) rotate(0) translate(4 360)">
<title>os_memory_strategies.c</title>
<polygon fill="white" stroke="transparent" points="-4,4 -4,-360 425,-360 425,4 -4,4"/>
<!-- Node1 -->
<g id="node1" class="node">
<title>Node1</title>
<g id="a_node1"><a xlink:title=" ">
<polygon fill="#bfbfbf" stroke="black" points="64,-336.5 64,-355.5 201,-355.5 201,-336.5 64,-336.5"/>
<text text-anchor="middle" x="132.5" y="-343.5" font-family="FreeSans" font-size="10.00">os_memory_strategies.c</text>
</a>
</g>
</g>
<!-- Node2 -->
<g id="node2" class="node">
<title>Node2</title>
<g id="a_node2"><a xlink:href="os__memory__strategies_8h.html" target="_top" xlink:title="Memory allocation library for the OS.">
<polygon fill="white" stroke="black" points="0,-280.5 0,-299.5 137,-299.5 137,-280.5 0,-280.5"/>
<text text-anchor="middle" x="68.5" y="-287.5" font-family="FreeSans" font-size="10.00">os_memory_strategies.h</text>
</a>
</g>
</g>
<!-- Node1&#45;&gt;Node2 -->
<g id="edge1" class="edge">
<title>Node1&#45;&gt;Node2</title>
<path fill="none" stroke="midnightblue" d="M122.22,-336.32C112.66,-328.26 98.22,-316.08 86.72,-306.37"/>
<polygon fill="midnightblue" stroke="midnightblue" points="88.87,-303.61 78.97,-299.83 84.36,-308.96 88.87,-303.61"/>
</g>
<!-- Node10 -->
<g id="node10" class="node">
<title>Node10</title>
<g id="a_node10"><a xlink:href="os__memory_8h.html" target="_top" xlink:title="Library for OS memory management.">
<polygon fill="white" stroke="black" points="155.5,-280.5 155.5,-299.5 237.5,-299.5 237.5,-280.5 155.5,-280.5"/>
<text text-anchor="middle" x="196.5" y="-287.5" font-family="FreeSans" font-size="10.00">os_memory.h</text>
</a>
</g>
</g>
<!-- Node1&#45;&gt;Node10 -->
<g id="edge9" class="edge">
<title>Node1&#45;&gt;Node10</title>
<path fill="none" stroke="midnightblue" d="M142.78,-336.32C152.34,-328.26 166.78,-316.08 178.28,-306.37"/>
<polygon fill="midnightblue" stroke="midnightblue" points="180.64,-308.96 186.03,-299.83 176.13,-303.61 180.64,-308.96"/>
</g>
<!-- Node3 -->
<g id="node3" class="node">
<title>Node3</title>
<g id="a_node3"><a xlink:href="os__memheap__drivers_8h.html" target="_top" xlink:title="Drivers for OS heap management.">
<polygon fill="white" stroke="black" points="20,-224.5 20,-243.5 151,-243.5 151,-224.5 20,-224.5"/>
<text text-anchor="middle" x="85.5" y="-231.5" font-family="FreeSans" font-size="10.00">os_memheap_drivers.h</text>
</a>
</g>
</g>
<!-- Node2&#45;&gt;Node3 -->
<g id="edge2" class="edge">
<title>Node2&#45;&gt;Node3</title>
<path fill="none" stroke="midnightblue" d="M71.31,-280.08C73.58,-272.85 76.87,-262.41 79.71,-253.4"/>
<polygon fill="midnightblue" stroke="midnightblue" points="83.08,-254.34 82.75,-243.75 76.4,-252.24 83.08,-254.34"/>
</g>
<!-- Node4 -->
<g id="node4" class="node">
<title>Node4</title>
<g id="a_node4"><a xlink:href="os__mem__drivers_8h.html" target="_top" xlink:title="Drivers for OS memory management.">
<polygon fill="white" stroke="black" points="125,-168.5 125,-187.5 232,-187.5 232,-168.5 125,-168.5"/>
<text text-anchor="middle" x="178.5" y="-175.5" font-family="FreeSans" font-size="10.00">os_mem_drivers.h</text>
</a>
</g>
</g>
<!-- Node3&#45;&gt;Node4 -->
<g id="edge3" class="edge">
<title>Node3&#45;&gt;Node4</title>
<path fill="none" stroke="midnightblue" d="M100.44,-224.32C115.09,-215.82 137.63,-202.73 154.74,-192.8"/>
<polygon fill="midnightblue" stroke="midnightblue" points="156.7,-195.7 163.6,-187.65 153.19,-189.65 156.7,-195.7"/>
</g>
<!-- Node9 -->
<g id="node9" class="node">
<title>Node9</title>
<g id="a_node9"><a xlink:title=" ">
<polygon fill="white" stroke="#bfbfbf" points="50.5,-168.5 50.5,-187.5 106.5,-187.5 106.5,-168.5 50.5,-168.5"/>
<text text-anchor="middle" x="78.5" y="-175.5" font-family="FreeSans" font-size="10.00">stddef.h</text>
</a>
</g>
</g>
<!-- Node3&#45;&gt;Node9 -->
<g id="edge8" class="edge">
<title>Node3&#45;&gt;Node9</title>
<path fill="none" stroke="midnightblue" d="M84.34,-224.08C83.42,-216.93 82.08,-206.64 80.92,-197.69"/>
<polygon fill="midnightblue" stroke="midnightblue" points="84.39,-197.22 79.63,-187.75 77.45,-198.12 84.39,-197.22"/>
</g>
<!-- Node5 -->
<g id="node5" class="node">
<title>Node5</title>
<g id="a_node5"><a xlink:title=" ">
<polygon fill="white" stroke="#bfbfbf" points="125,-112.5 125,-131.5 190,-131.5 190,-112.5 125,-112.5"/>
<text text-anchor="middle" x="157.5" y="-119.5" font-family="FreeSans" font-size="10.00">inttypes.h</text>
</a>
</g>
</g>
<!-- Node4&#45;&gt;Node5 -->
<g id="edge4" class="edge">
<title>Node4&#45;&gt;Node5</title>
<path fill="none" stroke="midnightblue" d="M175.03,-168.08C172.19,-160.77 168.07,-150.18 164.54,-141.1"/>
<polygon fill="midnightblue" stroke="midnightblue" points="167.79,-139.8 160.9,-131.75 161.27,-142.34 167.79,-139.8"/>
</g>
<!-- Node6 -->
<g id="node6" class="node">
<title>Node6</title>
<g id="a_node6"><a xlink:href="defines_8h.html" target="_top" xlink:title="Simple definitions and assembler&#45;macros, mostly 8/16&#45;Bit values.">
<polygon fill="white" stroke="black" points="208,-112.5 208,-131.5 269,-131.5 269,-112.5 208,-112.5"/>
<text text-anchor="middle" x="238.5" y="-119.5" font-family="FreeSans" font-size="10.00">defines.h</text>
</a>
</g>
</g>
<!-- Node4&#45;&gt;Node6 -->
<g id="edge5" class="edge">
<title>Node4&#45;&gt;Node6</title>
<path fill="none" stroke="midnightblue" d="M188.14,-168.32C197.01,-160.34 210.37,-148.31 221.11,-138.65"/>
<polygon fill="midnightblue" stroke="midnightblue" points="223.59,-141.13 228.68,-131.83 218.91,-135.92 223.59,-141.13"/>
</g>
<!-- Node7 -->
<g id="node7" class="node">
<title>Node7</title>
<g id="a_node7"><a xlink:href="atmega644constants_8h.html" target="_top" xlink:title="Constants for ATMega644 and EVA board. Defines several useful constants for the ATMega644.">
<polygon fill="white" stroke="black" points="174.5,-56.5 174.5,-75.5 302.5,-75.5 302.5,-56.5 174.5,-56.5"/>
<text text-anchor="middle" x="238.5" y="-63.5" font-family="FreeSans" font-size="10.00">atmega644constants.h</text>
</a>
</g>
</g>
<!-- Node6&#45;&gt;Node7 -->
<g id="edge6" class="edge">
<title>Node6&#45;&gt;Node7</title>
<path fill="none" stroke="midnightblue" d="M238.5,-112.08C238.5,-105.01 238.5,-94.86 238.5,-85.99"/>
<polygon fill="midnightblue" stroke="midnightblue" points="242,-85.75 238.5,-75.75 235,-85.75 242,-85.75"/>
</g>
<!-- Node8 -->
<g id="node8" class="node">
<title>Node8</title>
<g id="a_node8"><a xlink:title=" ">
<polygon fill="white" stroke="#bfbfbf" points="212,-0.5 212,-19.5 265,-19.5 265,-0.5 212,-0.5"/>
<text text-anchor="middle" x="238.5" y="-7.5" font-family="FreeSans" font-size="10.00">avr/io.h</text>
</a>
</g>
</g>
<!-- Node7&#45;&gt;Node8 -->
<g id="edge7" class="edge">
<title>Node7&#45;&gt;Node8</title>
<path fill="none" stroke="midnightblue" d="M238.5,-56.08C238.5,-49.01 238.5,-38.86 238.5,-29.99"/>
<polygon fill="midnightblue" stroke="midnightblue" points="242,-29.75 238.5,-19.75 235,-29.75 242,-29.75"/>
</g>
<!-- Node10&#45;&gt;Node3 -->
<g id="edge11" class="edge">
<title>Node10&#45;&gt;Node3</title>
<path fill="none" stroke="midnightblue" d="M178.67,-280.32C160.78,-271.62 133.02,-258.12 112.45,-248.11"/>
<polygon fill="midnightblue" stroke="midnightblue" points="113.81,-244.88 103.29,-243.65 110.75,-251.18 113.81,-244.88"/>
</g>
<!-- Node10&#45;&gt;Node4 -->
<g id="edge10" class="edge">
<title>Node10&#45;&gt;Node4</title>
<path fill="none" stroke="midnightblue" d="M195.09,-280.37C192.18,-262.62 185.48,-221.67 181.54,-197.6"/>
<polygon fill="midnightblue" stroke="midnightblue" points="184.97,-196.89 179.91,-187.59 178.07,-198.03 184.97,-196.89"/>
</g>
<!-- Node11 -->
<g id="node11" class="node">
<title>Node11</title>
<g id="a_node11"><a xlink:href="os__scheduler_8h.html" target="_top" xlink:title="Scheduling module for the OS.">
<polygon fill="white" stroke="black" points="235,-224.5 235,-243.5 324,-243.5 324,-224.5 235,-224.5"/>
<text text-anchor="middle" x="279.5" y="-231.5" font-family="FreeSans" font-size="10.00">os_scheduler.h</text>
</a>
</g>
</g>
<!-- Node10&#45;&gt;Node11 -->
<g id="edge12" class="edge">
<title>Node10&#45;&gt;Node11</title>
<path fill="none" stroke="midnightblue" d="M209.84,-280.32C222.66,-271.98 242.28,-259.21 257.44,-249.35"/>
<polygon fill="midnightblue" stroke="midnightblue" points="259.72,-252.04 266.2,-243.65 255.91,-246.17 259.72,-252.04"/>
</g>
<!-- Node11&#45;&gt;Node6 -->
<g id="edge14" class="edge">
<title>Node11&#45;&gt;Node6</title>
<path fill="none" stroke="midnightblue" d="M276.28,-224.37C269.64,-206.54 254.26,-165.3 245.31,-141.27"/>
<polygon fill="midnightblue" stroke="midnightblue" points="248.47,-139.74 241.7,-131.59 241.92,-142.18 248.47,-139.74"/>
</g>
<!-- Node12 -->
<g id="node12" class="node">
<title>Node12</title>
<g id="a_node12"><a xlink:title=" ">
<polygon fill="white" stroke="#bfbfbf" points="287.5,-112.5 287.5,-131.5 349.5,-131.5 349.5,-112.5 287.5,-112.5"/>
<text text-anchor="middle" x="318.5" y="-119.5" font-family="FreeSans" font-size="10.00">stdbool.h</text>
</a>
</g>
</g>
<!-- Node11&#45;&gt;Node12 -->
<g id="edge13" class="edge">
<title>Node11&#45;&gt;Node12</title>
<path fill="none" stroke="midnightblue" d="M282.56,-224.37C288.88,-206.54 303.5,-165.3 312.02,-141.27"/>
<polygon fill="midnightblue" stroke="midnightblue" points="315.41,-142.19 315.45,-131.59 308.81,-139.85 315.41,-142.19"/>
</g>
<!-- Node13 -->
<g id="node13" class="node">
<title>Node13</title>
<g id="a_node13"><a xlink:href="os__process_8h.html" target="_top" xlink:title="Struct specifying a process.">
<polygon fill="white" stroke="black" points="326.5,-168.5 326.5,-187.5 406.5,-187.5 406.5,-168.5 326.5,-168.5"/>
<text text-anchor="middle" x="366.5" y="-175.5" font-family="FreeSans" font-size="10.00">os_process.h</text>
</a>
</g>
</g>
<!-- Node11&#45;&gt;Node13 -->
<g id="edge15" class="edge">
<title>Node11&#45;&gt;Node13</title>
<path fill="none" stroke="midnightblue" d="M293.48,-224.32C307.05,-215.9 327.88,-202.97 343.82,-193.07"/>
<polygon fill="midnightblue" stroke="midnightblue" points="345.91,-195.9 352.56,-187.65 342.21,-189.95 345.91,-195.9"/>
</g>
<!-- Node13&#45;&gt;Node12 -->
<g id="edge17" class="edge">
<title>Node13&#45;&gt;Node12</title>
<path fill="none" stroke="midnightblue" d="M358.57,-168.08C351.65,-160.3 341.43,-148.8 333.05,-139.37"/>
<polygon fill="midnightblue" stroke="midnightblue" points="335.54,-136.9 326.28,-131.75 330.31,-141.55 335.54,-136.9"/>
</g>
<!-- Node14 -->
<g id="node14" class="node">
<title>Node14</title>
<g id="a_node14"><a xlink:title=" ">
<polygon fill="white" stroke="#bfbfbf" points="368,-112.5 368,-131.5 421,-131.5 421,-112.5 368,-112.5"/>
<text text-anchor="middle" x="394.5" y="-119.5" font-family="FreeSans" font-size="10.00">stdint.h</text>
</a>
</g>
</g>
<!-- Node13&#45;&gt;Node14 -->
<g id="edge16" class="edge">
<title>Node13&#45;&gt;Node14</title>
<path fill="none" stroke="midnightblue" d="M371.12,-168.08C374.96,-160.69 380.52,-149.95 385.26,-140.81"/>
<polygon fill="midnightblue" stroke="midnightblue" points="388.47,-142.24 389.96,-131.75 382.25,-139.02 388.47,-142.24"/>
</g>
</g>
</svg>
