<?xml version="1.0" encoding="UTF-8" standalone="no"?>
<!DOCTYPE svg PUBLIC "-//W3C//DTD SVG 1.1//EN"
 "http://www.w3.org/Graphics/SVG/1.1/DTD/svg11.dtd">
<!-- Generated by graphviz version 2.43.0 (0)
 -->
<!-- Title: os_core.c Pages: 1 -->
<svg width="762pt" height="308pt"
 viewBox="0.00 0.00 761.50 308.00" xmlns="http://www.w3.org/2000/svg" xmlns:xlink="http://www.w3.org/1999/xlink">
<g id="graph0" class="graph" transform="scale(1 1) rotate(0) translate(4 304)">
<title>os_core.c</title>
<polygon fill="white" stroke="transparent" points="-4,4 -4,-304 757.5,-304 757.5,4 -4,4"/>
<!-- Node1 -->
<g id="node1" class="node">
<title>Node1</title>
<g id="a_node1"><a xlink:title=" ">
<polygon fill="#bfbfbf" stroke="black" points="316.5,-280.5 316.5,-299.5 378.5,-299.5 378.5,-280.5 316.5,-280.5"/>
<text text-anchor="middle" x="347.5" y="-287.5" font-family="FreeSans" font-size="10.00">os_core.c</text>
</a>
</g>
</g>
<!-- Node2 -->
<g id="node2" class="node">
<title>Node2</title>
<g id="a_node2"><a xlink:href="os__core_8h.html" target="_top" xlink:title="Core of the OS.">
<polygon fill="white" stroke="black" points="0,-168.5 0,-187.5 63,-187.5 63,-168.5 0,-168.5"/>
<text text-anchor="middle" x="31.5" y="-175.5" font-family="FreeSans" font-size="10.00">os_core.h</text>
</a>
</g>
</g>
<!-- Node1&#45;&gt;Node2 -->
<g id="edge1" class="edge">
<title>Node1&#45;&gt;Node2</title>
<path fill="none" stroke="midnightblue" d="M316.46,-282.88C280.89,-275.45 221.11,-261.69 171.5,-244 129.95,-229.19 83.96,-206.55 56.41,-192.28"/>
<polygon fill="midnightblue" stroke="midnightblue" points="57.96,-189.14 47.47,-187.6 54.71,-195.34 57.96,-189.14"/>
</g>
<!-- Node4 -->
<g id="node4" class="node">
<title>Node4</title>
<g id="a_node4"><a xlink:href="defines_8h.html" target="_top" xlink:title="Simple definitions and assembler&#45;macros, mostly 8/16&#45;Bit values.">
<polygon fill="white" stroke="black" points="379,-112.5 379,-131.5 440,-131.5 440,-112.5 379,-112.5"/>
<text text-anchor="middle" x="409.5" y="-119.5" font-family="FreeSans" font-size="10.00">defines.h</text>
</a>
</g>
</g>
<!-- Node1&#45;&gt;Node4 -->
<g id="edge3" class="edge">
<title>Node1&#45;&gt;Node4</title>
<path fill="none" stroke="midnightblue" d="M359.03,-280.37C369.06,-272.17 383.12,-258.92 390.5,-244 406.94,-210.76 409.8,-166.66 409.95,-141.92"/>
<polygon fill="midnightblue" stroke="midnightblue" points="413.45,-141.71 409.86,-131.74 406.45,-141.77 413.45,-141.71"/>
</g>
<!-- Node7 -->
<g id="node7" class="node">
<title>Node7</title>
<g id="a_node7"><a xlink:href="util_8h.html" target="_top" xlink:title="Little helpers that don&#39;t fit elsewhere.">
<polygon fill="white" stroke="black" points="120,-168.5 120,-187.5 161,-187.5 161,-168.5 120,-168.5"/>
<text text-anchor="middle" x="140.5" y="-175.5" font-family="FreeSans" font-size="10.00">util.h</text>
</a>
</g>
</g>
<!-- Node1&#45;&gt;Node7 -->
<g id="edge6" class="edge">
<title>Node1&#45;&gt;Node7</title>
<path fill="none" stroke="midnightblue" d="M316.33,-284.67C284.66,-279.16 235.18,-267.4 198.5,-244 179.04,-231.59 162.18,-210.88 151.72,-196.18"/>
<polygon fill="midnightblue" stroke="midnightblue" points="154.35,-193.81 145.82,-187.53 148.57,-197.76 154.35,-193.81"/>
</g>
<!-- Node10 -->
<g id="node10" class="node">
<title>Node10</title>
<g id="a_node10"><a xlink:href="lcd_8h.html" target="_top" xlink:title="Library for LCD use.">
<polygon fill="white" stroke="black" points="207.5,-224.5 207.5,-243.5 247.5,-243.5 247.5,-224.5 207.5,-224.5"/>
<text text-anchor="middle" x="227.5" y="-231.5" font-family="FreeSans" font-size="10.00">lcd.h</text>
</a>
</g>
</g>
<!-- Node1&#45;&gt;Node10 -->
<g id="edge10" class="edge">
<title>Node1&#45;&gt;Node10</title>
<path fill="none" stroke="midnightblue" d="M328.49,-280.44C308.91,-271.64 278.19,-257.81 255.77,-247.72"/>
<polygon fill="midnightblue" stroke="midnightblue" points="256.98,-244.43 246.43,-243.52 254.11,-250.81 256.98,-244.43"/>
</g>
<!-- Node11 -->
<g id="node11" class="node">
<title>Node11</title>
<g id="a_node11"><a xlink:title=" ">
<polygon fill="white" stroke="#bfbfbf" points="293.5,-168.5 293.5,-187.5 343.5,-187.5 343.5,-168.5 293.5,-168.5"/>
<text text-anchor="middle" x="318.5" y="-175.5" font-family="FreeSans" font-size="10.00">stdio.h</text>
</a>
</g>
</g>
<!-- Node1&#45;&gt;Node11 -->
<g id="edge24" class="edge">
<title>Node1&#45;&gt;Node11</title>
<path fill="none" stroke="midnightblue" d="M335.29,-280.24C325.15,-272.14 311.46,-259.11 305.5,-244 299.51,-228.79 304.16,-210.45 309.5,-197.14"/>
<polygon fill="midnightblue" stroke="midnightblue" points="312.84,-198.25 313.73,-187.69 306.45,-195.38 312.84,-198.25"/>
</g>
<!-- Node12 -->
<g id="node12" class="node">
<title>Node12</title>
<g id="a_node12"><a xlink:href="os__input_8h.html" target="_top" xlink:title="Input library for the OS.">
<polygon fill="white" stroke="black" points="314,-224.5 314,-243.5 381,-243.5 381,-224.5 314,-224.5"/>
<text text-anchor="middle" x="347.5" y="-231.5" font-family="FreeSans" font-size="10.00">os_input.h</text>
</a>
</g>
</g>
<!-- Node1&#45;&gt;Node12 -->
<g id="edge17" class="edge">
<title>Node1&#45;&gt;Node12</title>
<path fill="none" stroke="midnightblue" d="M347.5,-280.08C347.5,-273.01 347.5,-262.86 347.5,-253.99"/>
<polygon fill="midnightblue" stroke="midnightblue" points="351,-253.75 347.5,-243.75 344,-253.75 351,-253.75"/>
</g>
<!-- Node13 -->
<g id="node13" class="node">
<title>Node13</title>
<g id="a_node13"><a xlink:href="os__memheap__drivers_8h.html" target="_top" xlink:title="Drivers for OS heap management.">
<polygon fill="white" stroke="black" points="438,-224.5 438,-243.5 569,-243.5 569,-224.5 438,-224.5"/>
<text text-anchor="middle" x="503.5" y="-231.5" font-family="FreeSans" font-size="10.00">os_memheap_drivers.h</text>
</a>
</g>
</g>
<!-- Node1&#45;&gt;Node13 -->
<g id="edge19" class="edge">
<title>Node1&#45;&gt;Node13</title>
<path fill="none" stroke="midnightblue" d="M372.22,-280.44C398.35,-271.4 439.76,-257.06 469.08,-246.92"/>
<polygon fill="midnightblue" stroke="midnightblue" points="470.59,-250.1 478.9,-243.52 468.3,-243.48 470.59,-250.1"/>
</g>
<!-- Node17 -->
<g id="node17" class="node">
<title>Node17</title>
<g id="a_node17"><a xlink:title=" ">
<polygon fill="white" stroke="#bfbfbf" points="587.5,-224.5 587.5,-243.5 673.5,-243.5 673.5,-224.5 587.5,-224.5"/>
<text text-anchor="middle" x="630.5" y="-231.5" font-family="FreeSans" font-size="10.00">avr/interrupt.h</text>
</a>
</g>
</g>
<!-- Node1&#45;&gt;Node17 -->
<g id="edge25" class="edge">
<title>Node1&#45;&gt;Node17</title>
<path fill="none" stroke="midnightblue" d="M378.6,-283.07C426.41,-273.94 518.59,-256.35 577.2,-245.17"/>
<polygon fill="midnightblue" stroke="midnightblue" points="578.21,-248.54 587.37,-243.23 576.89,-241.67 578.21,-248.54"/>
</g>
<!-- Node18 -->
<g id="node18" class="node">
<title>Node18</title>
<g id="a_node18"><a xlink:title=" ">
<polygon fill="white" stroke="#bfbfbf" points="691.5,-224.5 691.5,-243.5 753.5,-243.5 753.5,-224.5 691.5,-224.5"/>
<text text-anchor="middle" x="722.5" y="-231.5" font-family="FreeSans" font-size="10.00">avr/wdt.h</text>
</a>
</g>
</g>
<!-- Node1&#45;&gt;Node18 -->
<g id="edge26" class="edge">
<title>Node1&#45;&gt;Node18</title>
<path fill="none" stroke="midnightblue" d="M378.59,-285.75C436.3,-279.51 564.07,-264.77 681.25,-244.09"/>
<polygon fill="midnightblue" stroke="midnightblue" points="681.88,-247.54 691.11,-242.34 680.65,-240.65 681.88,-247.54"/>
</g>
<!-- Node3 -->
<g id="node3" class="node">
<title>Node3</title>
<g id="a_node3"><a xlink:title=" ">
<polygon fill="white" stroke="#bfbfbf" points="25,-112.5 25,-131.5 120,-131.5 120,-112.5 25,-112.5"/>
<text text-anchor="middle" x="72.5" y="-119.5" font-family="FreeSans" font-size="10.00">avr/pgmspace.h</text>
</a>
</g>
</g>
<!-- Node2&#45;&gt;Node3 -->
<g id="edge2" class="edge">
<title>Node2&#45;&gt;Node3</title>
<path fill="none" stroke="midnightblue" d="M38.27,-168.08C44.06,-160.46 52.56,-149.26 59.64,-139.94"/>
<polygon fill="midnightblue" stroke="midnightblue" points="62.6,-141.83 65.86,-131.75 57.02,-137.6 62.6,-141.83"/>
</g>
<!-- Node5 -->
<g id="node5" class="node">
<title>Node5</title>
<g id="a_node5"><a xlink:href="atmega644constants_8h.html" target="_top" xlink:title="Constants for ATMega644 and EVA board. Defines several useful constants for the ATMega644.">
<polygon fill="white" stroke="black" points="345.5,-56.5 345.5,-75.5 473.5,-75.5 473.5,-56.5 345.5,-56.5"/>
<text text-anchor="middle" x="409.5" y="-63.5" font-family="FreeSans" font-size="10.00">atmega644constants.h</text>
</a>
</g>
</g>
<!-- Node4&#45;&gt;Node5 -->
<g id="edge4" class="edge">
<title>Node4&#45;&gt;Node5</title>
<path fill="none" stroke="midnightblue" d="M409.5,-112.08C409.5,-105.01 409.5,-94.86 409.5,-85.99"/>
<polygon fill="midnightblue" stroke="midnightblue" points="413,-85.75 409.5,-75.75 406,-85.75 413,-85.75"/>
</g>
<!-- Node6 -->
<g id="node6" class="node">
<title>Node6</title>
<g id="a_node6"><a xlink:title=" ">
<polygon fill="white" stroke="#bfbfbf" points="383,-0.5 383,-19.5 436,-19.5 436,-0.5 383,-0.5"/>
<text text-anchor="middle" x="409.5" y="-7.5" font-family="FreeSans" font-size="10.00">avr/io.h</text>
</a>
</g>
</g>
<!-- Node5&#45;&gt;Node6 -->
<g id="edge5" class="edge">
<title>Node5&#45;&gt;Node6</title>
<path fill="none" stroke="midnightblue" d="M409.5,-56.08C409.5,-49.01 409.5,-38.86 409.5,-29.99"/>
<polygon fill="midnightblue" stroke="midnightblue" points="413,-29.75 409.5,-19.75 406,-29.75 413,-29.75"/>
</g>
<!-- Node7&#45;&gt;Node3 -->
<g id="edge9" class="edge">
<title>Node7&#45;&gt;Node3</title>
<path fill="none" stroke="midnightblue" d="M129.57,-168.32C119.33,-160.18 103.78,-147.84 91.5,-138.09"/>
<polygon fill="midnightblue" stroke="midnightblue" points="93.63,-135.31 83.62,-131.83 89.28,-140.79 93.63,-135.31"/>
</g>
<!-- Node8 -->
<g id="node8" class="node">
<title>Node8</title>
<g id="a_node8"><a xlink:title=" ">
<polygon fill="white" stroke="#bfbfbf" points="219,-112.5 219,-131.5 272,-131.5 272,-112.5 219,-112.5"/>
<text text-anchor="middle" x="245.5" y="-119.5" font-family="FreeSans" font-size="10.00">stdint.h</text>
</a>
</g>
</g>
<!-- Node7&#45;&gt;Node8 -->
<g id="edge7" class="edge">
<title>Node7&#45;&gt;Node8</title>
<path fill="none" stroke="midnightblue" d="M157.37,-168.32C174.21,-159.66 200.31,-146.24 219.74,-136.25"/>
<polygon fill="midnightblue" stroke="midnightblue" points="221.38,-139.34 228.67,-131.65 218.18,-133.12 221.38,-139.34"/>
</g>
<!-- Node9 -->
<g id="node9" class="node">
<title>Node9</title>
<g id="a_node9"><a xlink:title=" ">
<polygon fill="white" stroke="#bfbfbf" points="138.5,-112.5 138.5,-131.5 200.5,-131.5 200.5,-112.5 138.5,-112.5"/>
<text text-anchor="middle" x="169.5" y="-119.5" font-family="FreeSans" font-size="10.00">stdbool.h</text>
</a>
</g>
</g>
<!-- Node7&#45;&gt;Node9 -->
<g id="edge8" class="edge">
<title>Node7&#45;&gt;Node9</title>
<path fill="none" stroke="midnightblue" d="M145.29,-168.08C149.26,-160.69 155.03,-149.95 159.93,-140.81"/>
<polygon fill="midnightblue" stroke="midnightblue" points="163.15,-142.22 164.8,-131.75 156.99,-138.91 163.15,-142.22"/>
</g>
<!-- Node10&#45;&gt;Node3 -->
<g id="edge14" class="edge">
<title>Node10&#45;&gt;Node3</title>
<path fill="none" stroke="midnightblue" d="M207.19,-229.47C182.03,-224.22 139.02,-212.24 110.5,-188 95.75,-175.47 85.35,-155.69 79.2,-141.24"/>
<polygon fill="midnightblue" stroke="midnightblue" points="82.42,-139.84 75.48,-131.84 75.91,-142.42 82.42,-139.84"/>
</g>
<!-- Node10&#45;&gt;Node4 -->
<g id="edge15" class="edge">
<title>Node10&#45;&gt;Node4</title>
<path fill="none" stroke="midnightblue" d="M233.07,-224.16C242.22,-210.33 261.68,-183.55 284.5,-168 310.16,-150.51 343.4,-138.97 369.15,-131.96"/>
<polygon fill="midnightblue" stroke="midnightblue" points="370.18,-135.31 378.98,-129.41 368.42,-128.54 370.18,-135.31"/>
</g>
<!-- Node10&#45;&gt;Node7 -->
<g id="edge16" class="edge">
<title>Node10&#45;&gt;Node7</title>
<path fill="none" stroke="midnightblue" d="M213.52,-224.32C199.95,-215.9 179.12,-202.97 163.18,-193.07"/>
<polygon fill="midnightblue" stroke="midnightblue" points="164.79,-189.95 154.44,-187.65 161.09,-195.9 164.79,-189.95"/>
</g>
<!-- Node10&#45;&gt;Node8 -->
<g id="edge12" class="edge">
<title>Node10&#45;&gt;Node8</title>
<path fill="none" stroke="midnightblue" d="M228.91,-224.37C231.82,-206.62 238.52,-165.67 242.46,-141.6"/>
<polygon fill="midnightblue" stroke="midnightblue" points="245.93,-142.03 244.09,-131.59 239.03,-140.89 245.93,-142.03"/>
</g>
<!-- Node10&#45;&gt;Node9 -->
<g id="edge11" class="edge">
<title>Node10&#45;&gt;Node9</title>
<path fill="none" stroke="midnightblue" d="M222.95,-224.37C213.46,-206.38 191.41,-164.55 178.79,-140.63"/>
<polygon fill="midnightblue" stroke="midnightblue" points="181.79,-138.8 174.03,-131.59 175.6,-142.07 181.79,-138.8"/>
</g>
<!-- Node10&#45;&gt;Node11 -->
<g id="edge13" class="edge">
<title>Node10&#45;&gt;Node11</title>
<path fill="none" stroke="midnightblue" d="M242.12,-224.32C256.45,-215.82 278.51,-202.73 295.25,-192.8"/>
<polygon fill="midnightblue" stroke="midnightblue" points="297.1,-195.77 303.92,-187.65 293.53,-189.75 297.1,-195.77"/>
</g>
<!-- Node12&#45;&gt;Node8 -->
<g id="edge18" class="edge">
<title>Node12&#45;&gt;Node8</title>
<path fill="none" stroke="midnightblue" d="M351.37,-224.15C356.56,-210.77 363.9,-185.16 352.5,-168 336.99,-144.65 306.73,-133.39 282.34,-127.97"/>
<polygon fill="midnightblue" stroke="midnightblue" points="282.8,-124.49 272.31,-125.99 281.44,-131.36 282.8,-124.49"/>
</g>
<!-- Node14 -->
<g id="node14" class="node">
<title>Node14</title>
<g id="a_node14"><a xlink:href="os__mem__drivers_8h.html" target="_top" xlink:title="Drivers for OS memory management.">
<polygon fill="white" stroke="black" points="512,-168.5 512,-187.5 619,-187.5 619,-168.5 512,-168.5"/>
<text text-anchor="middle" x="565.5" y="-175.5" font-family="FreeSans" font-size="10.00">os_mem_drivers.h</text>
</a>
</g>
</g>
<!-- Node13&#45;&gt;Node14 -->
<g id="edge20" class="edge">
<title>Node13&#45;&gt;Node14</title>
<path fill="none" stroke="midnightblue" d="M513.46,-224.32C522.63,-216.34 536.44,-204.31 547.53,-194.65"/>
<polygon fill="midnightblue" stroke="midnightblue" points="550.12,-197.04 555.36,-187.83 545.52,-191.76 550.12,-197.04"/>
</g>
<!-- Node16 -->
<g id="node16" class="node">
<title>Node16</title>
<g id="a_node16"><a xlink:title=" ">
<polygon fill="white" stroke="#bfbfbf" points="437.5,-168.5 437.5,-187.5 493.5,-187.5 493.5,-168.5 437.5,-168.5"/>
<text text-anchor="middle" x="465.5" y="-175.5" font-family="FreeSans" font-size="10.00">stddef.h</text>
</a>
</g>
</g>
<!-- Node13&#45;&gt;Node16 -->
<g id="edge23" class="edge">
<title>Node13&#45;&gt;Node16</title>
<path fill="none" stroke="midnightblue" d="M497.23,-224.08C491.86,-216.46 483.98,-205.26 477.42,-195.94"/>
<polygon fill="midnightblue" stroke="midnightblue" points="480.28,-193.91 471.66,-187.75 474.55,-197.94 480.28,-193.91"/>
</g>
<!-- Node14&#45;&gt;Node4 -->
<g id="edge22" class="edge">
<title>Node14&#45;&gt;Node4</title>
<path fill="none" stroke="midnightblue" d="M540.78,-168.44C514.65,-159.4 473.24,-145.06 443.92,-134.92"/>
<polygon fill="midnightblue" stroke="midnightblue" points="444.7,-131.48 434.1,-131.52 442.41,-138.1 444.7,-131.48"/>
</g>
<!-- Node15 -->
<g id="node15" class="node">
<title>Node15</title>
<g id="a_node15"><a xlink:title=" ">
<polygon fill="white" stroke="#bfbfbf" points="533,-112.5 533,-131.5 598,-131.5 598,-112.5 533,-112.5"/>
<text text-anchor="middle" x="565.5" y="-119.5" font-family="FreeSans" font-size="10.00">inttypes.h</text>
</a>
</g>
</g>
<!-- Node14&#45;&gt;Node15 -->
<g id="edge21" class="edge">
<title>Node14&#45;&gt;Node15</title>
<path fill="none" stroke="midnightblue" d="M565.5,-168.08C565.5,-161.01 565.5,-150.86 565.5,-141.99"/>
<polygon fill="midnightblue" stroke="midnightblue" points="569,-141.75 565.5,-131.75 562,-141.75 569,-141.75"/>
</g>
</g>
</svg>
