<?xml version="1.0" encoding="UTF-8" standalone="no"?>
<!DOCTYPE svg PUBLIC "-//W3C//DTD SVG 1.1//EN"
 "http://www.w3.org/Graphics/SVG/1.1/DTD/svg11.dtd">
<!-- Generated by graphviz version 2.43.0 (0)
 -->
<!-- Title: util.h Pages: 1 -->
<svg width="409pt" height="140pt"
 viewBox="0.00 0.00 409.00 140.00" xmlns="http://www.w3.org/2000/svg" xmlns:xlink="http://www.w3.org/1999/xlink">
<g id="graph0" class="graph" transform="scale(1 1) rotate(0) translate(4 136)">
<title>util.h</title>
<polygon fill="white" stroke="transparent" points="-4,4 -4,-136 405,-136 405,4 -4,4"/>
<!-- Node1 -->
<g id="node1" class="node">
<title>Node1</title>
<g id="a_node1"><a xlink:title="Little helpers that don&#39;t fit elsewhere.">
<polygon fill="#bfbfbf" stroke="black" points="185,-112.5 185,-131.5 226,-131.5 226,-112.5 185,-112.5"/>
<text text-anchor="middle" x="205.5" y="-119.5" font-family="FreeSans" font-size="10.00">util.h</text>
</a>
</g>
</g>
<!-- Node2 -->
<g id="node2" class="node">
<title>Node2</title>
<g id="a_node2"><a xlink:href="lcd_8c.html" target="_top" xlink:title="Library for LCD use.">
<polygon fill="white" stroke="black" points="0,-0.5 0,-19.5 39,-19.5 39,-0.5 0,-0.5"/>
<text text-anchor="middle" x="19.5" y="-7.5" font-family="FreeSans" font-size="10.00">lcd.c</text>
</a>
</g>
</g>
<!-- Node1&#45;&gt;Node2 -->
<g id="edge1" class="edge">
<title>Node1&#45;&gt;Node2</title>
<path fill="none" stroke="midnightblue" d="M181.84,-107.01C142.8,-83.92 66.02,-38.51 34.03,-19.59"/>
<polygon fill="midnightblue" stroke="midnightblue" points="180.52,-110.29 190.9,-112.37 184.08,-104.27 180.52,-110.29"/>
</g>
<!-- Node3 -->
<g id="node3" class="node">
<title>Node3</title>
<g id="a_node3"><a xlink:href="lcd_8h.html" target="_top" xlink:title="Library for LCD use.">
<polygon fill="white" stroke="black" points="185.5,-56.5 185.5,-75.5 225.5,-75.5 225.5,-56.5 185.5,-56.5"/>
<text text-anchor="middle" x="205.5" y="-63.5" font-family="FreeSans" font-size="10.00">lcd.h</text>
</a>
</g>
</g>
<!-- Node1&#45;&gt;Node3 -->
<g id="edge2" class="edge">
<title>Node1&#45;&gt;Node3</title>
<path fill="none" stroke="midnightblue" d="M205.5,-101.8C205.5,-92.91 205.5,-82.78 205.5,-75.75"/>
<polygon fill="midnightblue" stroke="midnightblue" points="202,-102.08 205.5,-112.08 209,-102.08 202,-102.08"/>
</g>
<!-- Node4 -->
<g id="node4" class="node">
<title>Node4</title>
<g id="a_node4"><a xlink:href="os__core_8c.html" target="_top" xlink:title=" ">
<polygon fill="white" stroke="black" points="57.5,-0.5 57.5,-19.5 119.5,-19.5 119.5,-0.5 57.5,-0.5"/>
<text text-anchor="middle" x="88.5" y="-7.5" font-family="FreeSans" font-size="10.00">os_core.c</text>
</a>
</g>
</g>
<!-- Node1&#45;&gt;Node4 -->
<g id="edge8" class="edge">
<title>Node1&#45;&gt;Node4</title>
<path fill="none" stroke="midnightblue" d="M189.03,-105.51C164.03,-82.01 117.33,-38.11 97.64,-19.59"/>
<polygon fill="midnightblue" stroke="midnightblue" points="186.64,-108.07 196.32,-112.37 191.43,-102.97 186.64,-108.07"/>
</g>
<!-- Node5 -->
<g id="node5" class="node">
<title>Node5</title>
<g id="a_node5"><a xlink:href="os__scheduler_8c.html" target="_top" xlink:title="Scheduling module for the OS.">
<polygon fill="white" stroke="black" points="137.5,-0.5 137.5,-19.5 225.5,-19.5 225.5,-0.5 137.5,-0.5"/>
<text text-anchor="middle" x="181.5" y="-7.5" font-family="FreeSans" font-size="10.00">os_scheduler.c</text>
</a>
</g>
</g>
<!-- Node1&#45;&gt;Node5 -->
<g id="edge10" class="edge">
<title>Node1&#45;&gt;Node5</title>
<path fill="none" stroke="midnightblue" d="M191.51,-104.37C185.65,-96.34 179.51,-86.24 176.5,-76 170.75,-56.46 175.56,-32.26 178.92,-19.62"/>
<polygon fill="midnightblue" stroke="midnightblue" points="188.91,-106.73 197.83,-112.46 194.43,-102.42 188.91,-106.73"/>
</g>
<!-- Node6 -->
<g id="node6" class="node">
<title>Node6</title>
<g id="a_node6"><a xlink:href="os__taskman_8c.html" target="_top" xlink:title=" ">
<polygon fill="white" stroke="black" points="243.5,-0.5 243.5,-19.5 327.5,-19.5 327.5,-0.5 243.5,-0.5"/>
<text text-anchor="middle" x="285.5" y="-7.5" font-family="FreeSans" font-size="10.00">os_taskman.c</text>
</a>
</g>
</g>
<!-- Node1&#45;&gt;Node6 -->
<g id="edge11" class="edge">
<title>Node1&#45;&gt;Node6</title>
<path fill="none" stroke="midnightblue" d="M217.67,-104.27C234.96,-80.49 266.02,-37.79 279.25,-19.59"/>
<polygon fill="midnightblue" stroke="midnightblue" points="214.83,-102.22 211.78,-112.37 220.49,-106.34 214.83,-102.22"/>
</g>
<!-- Node7 -->
<g id="node7" class="node">
<title>Node7</title>
<g id="a_node7"><a xlink:href="util_8c.html" target="_top" xlink:title=" ">
<polygon fill="white" stroke="black" points="346,-0.5 346,-19.5 387,-19.5 387,-0.5 346,-0.5"/>
<text text-anchor="middle" x="366.5" y="-7.5" font-family="FreeSans" font-size="10.00">util.c</text>
</a>
</g>
</g>
<!-- Node1&#45;&gt;Node7 -->
<g id="edge12" class="edge">
<title>Node1&#45;&gt;Node7</title>
<path fill="none" stroke="midnightblue" d="M226.41,-106.71C260.34,-83.53 326.35,-38.43 353.93,-19.59"/>
<polygon fill="midnightblue" stroke="midnightblue" points="224.42,-103.84 218.13,-112.37 228.36,-109.62 224.42,-103.84"/>
</g>
<!-- Node8 -->
<g id="node8" class="node">
<title>Node8</title>
<g id="a_node8"><a xlink:href="os__memory_8c.html" target="_top" xlink:title=" ">
<polygon fill="white" stroke="black" points="320,-56.5 320,-75.5 401,-75.5 401,-56.5 320,-56.5"/>
<text text-anchor="middle" x="360.5" y="-63.5" font-family="FreeSans" font-size="10.00">os_memory.c</text>
</a>
</g>
</g>
<!-- Node1&#45;&gt;Node8 -->
<g id="edge9" class="edge">
<title>Node1&#45;&gt;Node8</title>
<path fill="none" stroke="midnightblue" d="M235.78,-110.45C265.05,-100.25 308.85,-84.99 336,-75.54"/>
<polygon fill="midnightblue" stroke="midnightblue" points="234.37,-107.23 226.08,-113.83 236.68,-113.84 234.37,-107.23"/>
</g>
<!-- Node3&#45;&gt;Node2 -->
<g id="edge3" class="edge">
<title>Node3&#45;&gt;Node2</title>
<path fill="none" stroke="midnightblue" d="M175.18,-56.52C143.52,-47.62 92.44,-33.11 48.5,-20 45.47,-19.1 42.27,-18.12 39.14,-17.16"/>
<polygon fill="midnightblue" stroke="midnightblue" points="174.56,-59.98 185.14,-59.32 176.45,-53.24 174.56,-59.98"/>
</g>
<!-- Node3&#45;&gt;Node4 -->
<g id="edge4" class="edge">
<title>Node3&#45;&gt;Node4</title>
<path fill="none" stroke="midnightblue" d="M177.84,-52.23C155.95,-42.13 126,-28.31 106.95,-19.52"/>
<polygon fill="midnightblue" stroke="midnightblue" points="176.41,-55.43 186.96,-56.44 179.35,-49.08 176.41,-55.43"/>
</g>
<!-- Node3&#45;&gt;Node5 -->
<g id="edge5" class="edge">
<title>Node3&#45;&gt;Node5</title>
<path fill="none" stroke="midnightblue" d="M197.36,-46.69C193.32,-37.59 188.62,-27.01 185.39,-19.75"/>
<polygon fill="midnightblue" stroke="midnightblue" points="194.28,-48.37 201.54,-56.08 200.67,-45.52 194.28,-48.37"/>
</g>
<!-- Node3&#45;&gt;Node6 -->
<g id="edge6" class="edge">
<title>Node3&#45;&gt;Node6</title>
<path fill="none" stroke="midnightblue" d="M226.8,-50.62C241.42,-40.76 260.33,-27.99 272.68,-19.65"/>
<polygon fill="midnightblue" stroke="midnightblue" points="224.68,-47.83 218.35,-56.32 228.6,-53.63 224.68,-47.83"/>
</g>
<!-- Node3&#45;&gt;Node7 -->
<g id="edge7" class="edge">
<title>Node3&#45;&gt;Node7</title>
<path fill="none" stroke="midnightblue" d="M235.32,-55C267.5,-44.2 317.89,-27.3 345.93,-17.9"/>
<polygon fill="midnightblue" stroke="midnightblue" points="233.93,-51.77 225.57,-58.27 236.16,-58.41 233.93,-51.77"/>
</g>
</g>
</svg>
